<?xml version="1.0" encoding="utf-8"?>
<!-- Generator: Adobe Illustrator 16.0.0, SVG Export Plug-In . SVG Version: 6.00 Build 0)  -->
<!DOCTYPE svg PUBLIC "-//W3C//DTD SVG 1.1//EN" "http://www.w3.org/Graphics/SVG/1.1/DTD/svg11.dtd">
<svg version="1.1" id="Layer_1" xmlns="http://www.w3.org/2000/svg" xmlns:xlink="http://www.w3.org/1999/xlink" x="0px" y="0px"
	 width="512px" height="512px" viewBox="0 0 512 512" enable-background="new 0 0 512 512" xml:space="preserve">
<g>
	<path fill="#212222" d="M145.539,113.32c9.294-8.628,19.234-16.428,29.987-23.172c0.703-0.44,1.393-0.906,2.11-1.321
		c31.892-18.46,65.917-28.701,103.104-26.689c13.318,0.72,25.373,5.039,37.438,10.882c23.855,11.552,39.183,30.257,49.22,53.944
		c6.536,15.422,8.25,31.775,7.963,48.409c-0.055,3.023-1.164,4.184-4.161,4.061c-3.826-0.156-7.67,0.096-11.493-0.084
		c-2.448-0.115-3.361,0.62-3.883,3.166c-1.739,8.472-4.01,16.833-7.78,24.669c-8.701,18.07-22.081,31.629-40.445,39.629
		c-5.44,2.37-10.956,5.316-17.271,5.678c-3.651,0.209-5.243,2.605-5.249,6.509c-0.08,50.267-15.105,95.265-47.835,133.841
		c-3.32,3.916-3.496,6.688,0.465,9.834c1.025,0.817,1.854,1.905,2.693,2.933c3.752,4.576,8.213,7.229,14.242,8.881
		c16.346,4.479,26.011,19.563,25.391,37.326c-0.104,2.946-1.863,2.579-3.674,2.58c-10.164,0.005-20.33,0.002-30.494,0.002
		c-9.998,0-20-0.175-29.991,0.098c-3.484,0.094-4.363-1.403-4.355-4.295c0.038-13.718,4.795-24.988,16.832-32.495
		c1.584-0.988,4.375-1.776,1.963-4.255c-2.076-2.133-3.354-6.509-7.769-4.184c-1.729,0.911-3.169,2.409-4.661,3.73
		c-18.53,16.397-39.394,28.908-62.79,36.951c-21.87,7.519-44.377,11.325-67.604,10.531c-3.819-0.131-5.025-1.768-4.98-5.116
		c0.109-8.155,0.333-16.313,0.337-24.469c0.029-58.985-0.555-117.98,0.196-176.961c0.602-47.271,17.438-88.924,47.803-125.096
		 M257.118,441.313c1.912,0.761,3.916,0.633,5.912,0.646c3.479,0.027,4.02-1.305,2.246-4.229c-4.188-6.9-9.375-12.11-18.225-11.683
		c-11.493-0.438-19.043,4.936-21.69,15.264C235.914,441.313,246.517,441.313,257.118,441.313z M334.413,193.253
		c3.813-4.841,3.845-10.741,4.629-16.438c0.322-2.336-0.854-2.766-2.863-2.757c-17.707,0.074-35.418-0.583-53.12,0.326
		c-3.349-1.063-2.923,1.233-2.927,3.237c-0.034,17.825,0.057,35.652-0.24,53.473c-0.07,4.338,1.779,4.666,5.043,3.982
		C308.959,230.045,325.564,216.237,334.413,193.253z M280.357,81.224c-0.119,6.976-0.341,13.951-0.344,20.927
		c-0.009,18.293,0.061,36.586,0.157,54.878c0.01,1.732-1.011,4.192,2.489,4.119c16.448-0.345,32.909,0.566,49.351-0.51
		c5.479,0.107,10.954,0.278,16.434,0.31c8.951,0.052,8.951,0.015,7.727-8.938c-5.008-36.535-36.322-67.329-72.818-71.569
		C282.322,80.32,281.003,79.646,280.357,81.224z M267.67,83.964c0.551-5.132-3.313-3.718-5.713-3.492
		c-24.714,2.321-48.39,8.285-70.088,20.778c-36.584,21.065-63.025,51.002-78.59,90.344c-9.735,24.607-13.587,50.194-13.446,76.632
		c0.294,55.303,0.089,110.606,0.09,165.909c0,1.499,0.071,3,0.017,4.496c-0.088,2.395,0.628,3.615,3.403,3.384
		c6.112-0.511,12.243-0.765,18.146-2.66c4.884,0.745,9.356-0.795,13.973-2.137c54.138-15.741,93.63-48.363,116.359-100.46
		c8.916-20.435,15.615-41.696,15.85-63.97c0.643-61.106,0.209-122.224,0.189-183.337C267.858,87.622,267.735,85.793,267.67,83.964z"
		/>
	<g>
		<path fill="none" d="M125.094,223.582c-2.854,12.361-4.5,24.885-3.975,37.62c-1.982,1.516-1.949,3.656-1.947,5.867
			c0.044,49.248,0.061,98.498,0.088,147.744c0.003,1.797-0.378,3.743,1.642,4.867c1.434-0.398,2.849-0.888,4.303-1.188
			c70.158-14.637,120.09-79.384,122.916-150.63c0.237-5.992-0.892-6.967-6.755-6.782c-3.229,0.101-4.936,1.616-5.326,4.741
			c-0.354,2.806-0.684,5.611-1.021,8.416c-3.039-0.207-3.807,2.24-4.812,4.262c-1.996,4.013-3.474,8.333-5.837,12.104
			c-17.625,28.131-40.701,50.305-71.227,64.104c-6.646,3.004-13.417,5.82-20.785,6.668c-0.129-1.99-0.37-3.979-0.371-5.971
			c-0.017-28.164,0.018-56.326-0.003-84.486c-0.006-8.241-0.069-8.229-7.949-9.053c-0.983-0.103-1.943-0.436-2.914-0.66
			c-0.525-12.735,1.12-25.259,3.975-37.62c3.016-13.06,6.985-25.302,11.896-36.739l-0.003,0.002
			C132.079,198.283,128.109,210.524,125.094,223.582z"/>
		<path fill="#FFFFFF" stroke="#212222" stroke-width="14" stroke-miterlimit="10" d="M267.668,83.964
			c-10.007,2.349-20.11,4.215-29.782,7.946c-48.679,18.784-81.924,50.751-100.897,94.938l0.003-0.002
			c18.973-44.184,52.218-76.15,100.896-94.933c9.672-3.733,19.775-5.599,29.782-7.948c0.017,0.461,0.039,0.922,0.06,1.383
			l-0.009-5.152c0,0-0.691-0.024-1.962-0.009C267.038,80.398,267.955,81.288,267.668,83.964z"/>
		<path fill="#FFFFFF" stroke="#212222" stroke-width="14" stroke-miterlimit="10" d="M119.174,178.205c0,0-0.001,0.008-0.001,0.009
			c0.014-0.028,0.028-0.058,0.042-0.086C119.201,178.154,119.187,178.179,119.174,178.205z"/>
		<path fill="#FFFFFF" stroke="#212222" stroke-width="14" stroke-miterlimit="10" d="M268.02,249.673l-0.044-24.635
			c-0.023,7.914-0.058,15.827-0.108,23.741C267.919,249.078,267.971,249.377,268.02,249.673z"/>
		<path fill="#FFFFFF" stroke="#212222" stroke-width="14" stroke-miterlimit="10" d="M219.035,149.047
			c-7.594,0.04-12.976,5.502-13.061,13.257c-0.086,7.857,5.547,13.896,13.044,13.98c7.72,0.088,13.187-5.574,13.196-13.67
			C232.223,154.459,226.926,149.005,219.035,149.047z"/>
		<path fill="#FFFFFF" stroke="#212222" stroke-width="14" stroke-miterlimit="10" d="M191.867,101.25
			c21.699-12.493,45.375-18.457,70.088-20.778c0.526-0.049,1.123-0.155,1.729-0.237c-15.156,0.529-70.165,5.916-114.818,54.736
			C161.121,121.919,175.472,110.691,191.867,101.25z"/>
		<path fill="#888888" d="M267.858,89.451c0-1.368-0.066-2.736-0.129-4.104l0.246,139.691
			C268.111,179.844,267.873,134.646,267.858,89.451z"/>
		<path fill="#343F3F" d="M261.589,221.673c-3-0.5-14.534,19-14.534,19c-16.534-14.5-9.966-20-12.036-20s-24.43,29-24.43,29
			c-7.5-10.5-8-28.5-8-28.5c-4.5-2-22,20.5-22,20.5c-3.5-11.5,0-34.5,0-34.5c-3-2-32,14.5-32,14.5c-10-14.5,6.5-44.569,6.5-44.569
			l-18.097,9.742c-4.911,11.437-8.881,23.679-11.896,36.739c-2.855,12.361-4.5,24.885-3.975,37.62
			c0.971,0.225,1.931,0.558,2.914,0.66c7.88,0.824,7.943,0.812,7.949,9.053c0.021,28.16-0.014,56.322,0.003,84.486
			c0.001,1.992,0.242,3.98,0.371,5.971c7.368-0.848,14.139-3.664,20.785-6.668c30.526-13.799,53.602-35.973,71.227-64.104
			c2.363-3.771,3.841-8.091,5.837-12.104c1.005-2.021,1.772-4.469,4.812-4.262c0.338-2.805,0.668-5.61,1.021-8.416
			c0.391-3.125,2.098-4.641,5.326-4.741c5.863-0.185,6.992,0.79,6.755,6.782c-2.826,71.246-52.758,135.993-122.916,150.63
			c-1.454,0.301-2.869,0.79-4.303,1.188c0.194,6.561,0.39,13.116,0.585,19.674c4.885,0.745,9.357-0.795,13.973-2.137
			c54.137-15.741,93.63-48.363,116.359-100.46c8.916-20.435,15.617-41.696,15.85-63.97c0.084-8.003,0.148-16.006,0.198-24.009
			C265.745,236.446,261.589,221.673,261.589,221.673z"/>
		<path fill="#FCFCFC" d="M119.214,178.128c8.825-17.242,18.94-31.447,29.651-43.157
			C136.986,147.623,127.082,161.993,119.214,178.128z"/>
		<path fill="#FCFCFC" d="M263.684,80.235c0.81-0.028,1.501-0.043,2.075-0.049C265.122,80.08,264.399,80.138,263.684,80.235z"/>
		<path fill="#5B6363" d="M119.26,414.813c-0.027-49.246-0.044-98.496-0.088-147.744c-0.002-2.211-0.035-4.352,1.947-5.867
			c-0.525-12.735,1.121-25.259,3.975-37.62c3.016-13.058,6.985-25.299,11.895-36.735l-11.9,6.406
			c-6.804-6.524-5.926-14.941-5.916-15.039c-2.11,4.334-4.08,8.791-5.896,13.38c-9.735,24.608-13.587,50.194-13.446,76.632
			c0.294,55.303,0.089,110.606,0.09,165.909c0,1.499,0.072,3,0.017,4.496c-0.088,2.395,0.629,3.615,3.403,3.384
			c6.112-0.511,12.244-0.764,18.146-2.66c-0.195-6.558-0.391-13.113-0.585-19.674C118.882,418.557,119.263,416.61,119.26,414.813z"
			/>
		<g>
			<path fill="#FCFCFC" d="M267.729,85.347c-0.021-0.461-0.043-0.922-0.06-1.383c-10.007,2.349-20.11,4.215-29.782,7.948
				c-48.677,18.783-81.923,50.749-100.896,94.933l18.097-9.742c0,0-16.5,30.069-6.5,44.569c0,0,29-16.5,32-14.5c0,0-3.5,23,0,34.5
				c0,0,17.5-22.5,22-20.5c0,0,0.5,18,8,28.5c0,0,22.359-29,24.43-29s-4.498,5.5,12.036,20c0,0,11.534-19.5,14.534-19
				c0,0,4.156,14.773,6.278,27.106c0.051-7.914,0.085-15.827,0.108-23.741L267.729,85.347z M219.018,176.284
				c-7.497-0.084-13.13-6.123-13.044-13.98c0.085-7.755,5.467-13.217,13.061-13.257c7.891-0.042,13.188,5.412,13.179,13.567
				C232.205,170.71,226.738,176.372,219.018,176.284z"/>
			<path fill="#FCFCFC" d="M237.886,91.91c9.672-3.731,19.775-5.597,29.782-7.946c0.287-2.676-0.63-3.565-1.909-3.778
				c-0.574,0.006-1.266,0.021-2.075,0.049c-0.605,0.082-1.202,0.188-1.729,0.237c-24.714,2.321-48.389,8.285-70.088,20.778
				c-16.395,9.441-30.746,20.669-43.001,33.721c-10.711,11.71-20.827,25.916-29.651,43.157c-0.014,0.028-0.027,0.058-0.042,0.086
				c-0.01,0.098-0.888,8.515,5.916,15.039l11.9-6.406C155.961,142.661,189.207,110.693,237.886,91.91z"/>
		</g>
	</g>
	<path fill="#F7D946" d="M332.011,160.638c-16.439,1.076-32.902,0.165-49.351,0.51c-3.5,0.073-2.479-2.387-2.489-4.119
		c-0.099-18.292-0.166-36.585-0.157-54.878c0.003-6.976,0.225-13.951,0.344-20.927c1.956,0.886,3.999,1.62,5.854,2.684
		c11.271,6.469,20.35,15.413,27.845,25.869C324.925,124.941,331.461,141.766,332.011,160.638z"/>
	<path fill="#F7D946" d="M334.413,193.253c-8.851,22.984-25.454,36.792-49.479,41.823c-3.264,0.684-5.113,0.355-5.043-3.982
		c0.297-17.82,0.206-35.647,0.24-53.473c0.004-2.004-0.422-4.301,2.928-3.237c0.612,0.532,1.141,1.312,1.852,1.562
		C301.398,181.749,317.908,187.496,334.413,193.253z"/>
	<path fill="#F4CC25" d="M332.011,160.638c-0.55-18.872-7.086-35.697-17.956-50.861c-7.495-10.456-16.574-19.4-27.845-25.869
		c-1.854-1.063-3.896-1.798-5.854-2.684c0.646-1.578,1.967-0.903,2.993-0.784c36.496,4.24,67.813,35.034,72.818,71.569
		c1.227,8.953,1.227,8.99-7.729,8.938C342.965,160.916,337.488,160.745,332.011,160.638z"/>
	<path fill="#F4CC25" d="M334.413,193.253c-16.505-5.757-33.017-11.504-49.504-17.308c-0.711-0.25-1.237-1.029-1.852-1.562
		c17.701-0.909,35.412-0.252,53.119-0.326c2.01-0.009,3.188,0.421,2.863,2.757C338.258,182.512,338.229,188.412,334.413,193.253z"/>
	<path fill="#F7D946" d="M257.118,441.313c-10.604,0-21.204,0-31.754,0c2.647-10.328,10.198-15.699,21.691-15.264
		c1.284,1.48,2.54,2.987,3.857,4.438C253.776,433.645,256.911,436.637,257.118,441.313z"/>
	<path fill="#F4CC25" d="M257.118,441.313c-0.207-4.677-3.342-7.669-6.206-10.824c-1.317-1.45-2.573-2.957-3.857-4.438
		c8.849-0.43,14.033,4.78,18.222,11.683c1.773,2.925,1.234,4.257-2.246,4.229C261.034,441.944,259.03,442.072,257.118,441.313z"/>
	<path fill="#212222" d="M120.902,419.681c-2.02-1.124-1.639-3.067-1.64-4.865c-0.027-49.248-0.044-98.496-0.088-147.746
		c-0.002-2.211-0.035-4.352,1.947-5.867c0.971,0.229,1.93,0.562,2.914,0.662c7.88,0.822,7.943,0.812,7.949,9.053
		c0.021,28.16-0.013,56.322,0.003,84.486c0.001,1.988,0.242,3.979,0.371,5.971c-0.09,12.641-0.051,25.283-0.338,37.922
		c-0.103,4.543,1.98,4.729,5.183,3.336c6.517-2.838,13.188-5.42,19.418-8.805c27.758-15.068,48.95-36.602,63.087-64.973
		c8.592-17.242,14.225-35.283,15.311-54.617c0.34-2.805,0.67-5.61,1.021-8.416c0.393-3.125,2.1-4.643,5.326-4.741
		c5.863-0.185,6.992,0.79,6.755,6.782c-2.826,71.246-52.758,135.993-122.916,150.63C123.751,418.793,122.336,419.28,120.902,419.681
		z"/>
	<path fill="#5B6363" d="M235.019,274.237c-1.086,19.332-6.718,37.373-15.311,54.617c-14.137,28.369-35.329,49.9-63.087,64.973
		c-6.23,3.383-12.901,5.965-19.418,8.803c-3.203,1.396-5.286,1.207-5.183-3.336c0.287-12.637,0.248-25.281,0.338-37.922
		c7.369-0.848,14.139-3.664,20.785-6.668c30.526-13.797,53.602-35.971,71.227-64.102c2.363-3.772,3.841-8.095,5.837-12.105
		C231.212,276.478,231.979,274.03,235.019,274.237z"/>
	<path fill="#212222" d="M232.214,162.614c-0.009,8.096-5.476,13.758-13.195,13.67c-7.498-0.085-13.13-6.123-13.044-13.98
		c0.085-7.755,5.467-13.217,13.061-13.257C226.926,149.005,232.223,154.459,232.214,162.614z"/>
</g>
<path fill="#FFFFFF" stroke="#000000" stroke-miterlimit="10" d="M174.089,176.285"/>
<path fill="#FFFFFF" stroke="#212222" stroke-width="14" stroke-miterlimit="10" d="M265.684,70.305
	c0,0-81.095-41.907-160.095,65.046c0,0,0.312,3.047,1.038,7.738c-6.834,8.785-17.17,25.265-13.038,40.485
	c0,0,12.013-7.914,20.205-10.817c3.228,8.821,7.568,16.452,13.295,19.127c0,0,24-21.219,30-16.149c0,0-15.5,28.069-6.5,44.569
	c0,0,25.5-17,32-14.5c0,0-6,26.5,0,34.5c0,0,19.5-21,22-20.5c0,0,1,25.5,8,28.5c0,0,20.859-31.5,24.43-29c0,0,1.502,14.5,12.036,20
	l14.534-19c0,0,6.779,27.658,6.431,39.387C270.02,259.691,279.333,78.712,265.684,70.305z"/>
<path fill="#212222" d="M228.724,156.498c-0.009,8.096-5.476,13.758-13.195,13.67c-7.498-0.085-13.13-6.123-13.044-13.98
	c0.085-7.755,5.467-13.217,13.061-13.257C223.436,142.889,228.733,148.343,228.724,156.498z"/>
<circle fill="#828282" stroke="#212222" stroke-width="14" stroke-miterlimit="10" cx="433.841" cy="211.1" r="24.252"/>
<path fill="#828282" stroke="#212222" stroke-width="14" stroke-miterlimit="10" d="M409.589,218.673l-193.985,129
	c0,0-22.69,35.557-31.372,43.748l235.357-156.069L409.589,218.673z"/>
<path fill="#FFFFFF" stroke="#212222" stroke-width="14" stroke-miterlimit="10" d="M437.589,237.355c0,0,31,68.712,29,103.015
	s-9.814,97.883,0.093,101.593c0,0,2.093,0.71,0,7.71c0,0-85.489-1.18-91.291,10.91s-22.802,31.09-30.802,27.09
	c0,0-31.99-24-5.495-107c0,0-19.408-65.55-31.942-64"/>
<path fill="#253CC1" stroke="#212222" stroke-width="14" stroke-miterlimit="10" d="M365.589,274.225
	c0,0,27.586,43.448,21.793,74.448s-4.207,7.227,0,14.113s76.943,8.167,78.793-16.004c1.37-17.908-32.334-106.109-32.334-106.109
	c-17.748-8-64.856,39.337-64.856,39.337"/>
<path fill="#EA1B48" stroke="#212222" stroke-width="14" stroke-miterlimit="10" d="M433.841,367.123c0,0-10.244,76.911,8.752,82.73
	l24.089-0.181c0,0-9.05-73.1-2.071-82.55S445.093,362.573,433.841,367.123z"/>
<path fill="#FFFDFE" stroke="#212222" stroke-width="14" stroke-miterlimit="10" d="M405.589,367.123c0,0-11,55.325,4,84.438
	l33.004-1.707c0,0-22.5-47.28-8.752-82.73H405.589z"/>
<path fill="#EA1B48" stroke="#212222" stroke-width="14" stroke-miterlimit="10" d="M381.589,367.123c0,0-9,33.531,0,89.297
	l28-4.859c0,0-14-74.987-4-84.438H381.589z"/>
<path fill="#FFFDFE" stroke="#212222" stroke-width="14" stroke-miterlimit="10" d="M348.589,291.673c0,0,25,30,17,86
	s1.579,88,1.579,88l14.421-9.253c0,0-5.414-96.747,5.793-107.747c0,0-18.321-79.816-26.415-74.448L348.589,291.673z"/>
<path fill="#EA1B48" stroke="#212222" stroke-width="14" stroke-miterlimit="10" d="M322.589,303.442c0,0,38,37.23,26,93.23
	c0,0-12.697,59.6,8.151,87.05l11.245-11.581c0,0-10.396-81.469-2.396-87.469c0,0-8.702-107.741-20.302-100.05L322.589,303.442z"/>
<path fill="#C1BFC0" d="M415.902,216.173c0,0,26.687-21.146,35.687-5.073c0,0-0.888-18.452-17.844-17.847
	C433.745,193.253,415.716,194.673,415.902,216.173z"/>
<path fill="#FEFEFE" d="M99.827,172.167"/>
<polygon fill="#FEFEFE" points="426.744,260.138 424.74,264.933 427.553,269.303 422.373,268.877 419.085,272.903 417.89,267.846 
	413.045,265.964 417.485,263.263 417.778,258.074 421.719,261.462 "/>
<polygon fill="#FEFEFE" points="435.998,277.879 433.994,282.674 436.807,287.045 431.627,286.619 428.338,290.645 427.143,285.588 
	422.299,283.705 426.738,281.004 427.031,275.816 430.973,279.203 "/>
<polygon fill="#FEFEFE" points="443.25,298.092 441.246,302.887 444.059,307.258 438.879,306.832 435.59,310.857 434.395,305.801 
	429.551,303.918 433.99,301.217 434.283,296.029 438.225,299.416 "/>
<polygon fill="#FEFEFE" points="450.504,316.791 448.5,321.586 451.313,325.957 446.133,325.531 442.844,329.557 441.648,324.5 
	436.805,322.617 441.244,319.916 441.537,314.729 445.479,318.115 "/>
<polygon fill="#FEFEFE" points="455.327,335.019 453.323,339.813 456.136,344.185 450.956,343.759 447.667,347.784 446.472,342.728 
	441.628,340.845 446.067,338.144 446.36,332.956 450.302,336.343 "/>
<polygon fill="#FEFEFE" points="409.145,267.552 407.141,272.347 409.953,276.718 404.773,276.292 401.484,280.317 400.289,275.261 
	395.445,273.378 399.885,270.677 400.178,265.489 404.119,268.876 "/>
<polygon fill="#FEFEFE" points="421.347,278.879 419.343,283.674 422.155,288.045 416.976,287.619 413.687,291.645 412.491,286.588 
	407.647,284.705 412.087,282.004 412.38,276.816 416.321,280.203 "/>
<polygon fill="#FEFEFE" points="400.034,282.381 398.03,287.176 400.843,291.547 395.663,291.121 392.374,295.146 391.179,290.09 
	386.335,288.207 390.774,285.506 391.067,280.318 395.009,283.705 "/>
<polygon fill="#FEFEFE" points="426.034,297.209 424.03,302.004 426.843,306.375 421.663,305.949 418.374,309.975 417.179,304.918 
	412.335,303.035 416.774,300.334 417.067,295.146 421.009,298.533 "/>
<polygon fill="#FEFEFE" points="407.287,299.695 405.283,304.49 408.096,308.861 402.916,308.436 399.627,312.461 398.432,307.404 
	393.588,305.521 398.027,302.82 398.32,297.633 402.262,301.02 "/>
<polygon fill="#FEFEFE" points="429.592,316.791 427.588,321.586 430.4,325.957 425.221,325.531 421.932,329.557 420.736,324.5 
	415.893,322.617 420.332,319.916 420.625,314.729 424.566,318.115 "/>
<polygon fill="#FEFEFE" points="435.846,336.019 433.842,340.813 436.654,345.185 431.475,344.759 428.186,348.784 426.99,343.728 
	422.146,341.845 426.586,339.144 426.879,333.956 430.82,337.343 "/>
<polygon fill="#FEFEFE" points="413.092,320.189 411.088,324.984 413.9,329.355 408.721,328.93 405.432,332.955 404.236,327.898 
	399.393,326.016 403.832,323.314 404.125,318.127 408.066,321.514 "/>
<polygon fill="#FEFEFE" points="415.034,340.212 413.03,345.007 415.843,349.378 410.663,348.952 407.374,352.978 406.179,347.921 
	401.335,346.038 405.774,343.337 406.067,338.149 410.009,341.536 "/>
</svg>
