<?xml version="1.0" encoding="utf-8"?>
<!-- Generator: Adobe Illustrator 16.0.0, SVG Export Plug-In . SVG Version: 6.00 Build 0)  -->
<!DOCTYPE svg PUBLIC "-//W3C//DTD SVG 1.1//EN" "http://www.w3.org/Graphics/SVG/1.1/DTD/svg11.dtd">
<svg version="1.1" id="Layer_1" xmlns="http://www.w3.org/2000/svg" xmlns:xlink="http://www.w3.org/1999/xlink" x="0px" y="0px"
	 width="512px" height="512px" viewBox="0 0 512 512" enable-background="new 0 0 512 512" xml:space="preserve">
<rect fill-rule="evenodd" clip-rule="evenodd" fill="#515051" width="516.5" height="512"/>
<rect y="440.377" fill-rule="evenodd" clip-rule="evenodd" fill="#3D3D3D" width="512" height="71.623"/>
<path fill-rule="evenodd" clip-rule="evenodd" fill="#D1BC24" d="M141.39,47.671L512,440.377h-61.069L19.727,121.401
	C19.727,121.401,137.586,108.239,141.39,47.671z"/>
<g>
	<g>
		<path fill-rule="evenodd" clip-rule="evenodd" fill="#FEED5B" d="M148.247,80.328c0.615,9.776-1.86,18.911-5.929,27.645
			c-1.734,3.722-3.742,7.353-5.982,10.792c-2.695,4.139-6.165,7.663-9.903,10.913c-5.373,4.669-11.138,8.752-17.59,11.782
			c-6.894,3.238-14.16,5.236-21.732,6.095c-12.318,1.398-24.278-0.102-35.769-4.757c-9.82-3.979-18.346-9.899-25.485-17.767
			c-8.004-8.82-13.395-19.018-15.828-30.678c-2.239-10.728-1.844-21.389,1.277-31.946c2.588-8.75,6.77-16.661,12.703-23.529
			c7.293-8.443,15.983-15.112,26.356-19.493c6.447-2.724,13.151-4.279,20.069-5.06c8.3-0.937,16.525-0.547,24.621,1.564
			c3.031,0.791,6.005,1.812,8.987,2.781c6.158,2.001,11.813,5.046,16.933,8.938c3.228,2.453,6.079,5.412,9.014,8.234
			c3.642,3.503,6.663,7.517,9.284,11.829c4.099,6.742,6.769,14.04,8.104,21.792c0.616,3.579,0.829,7.228,1.226,10.846
			C148.483,80.315,148.365,80.322,148.247,80.328z M79.838,115.982c0.189-0.392,0.305-0.573,0.366-0.771
			c0.624-2.019,1.23-4.044,1.859-6.062c1.632-5.239,4.602-9.386,9.621-11.906c3.702-1.858,7.653-2.821,11.719-3.37
			c5.922-0.801,11.869-0.702,17.814-0.364c0.876,0.049,1.061-0.243,1.071-1.021c0.024-1.751,0.152-3.502,0.183-5.254
			c0.086-4.937,1.964-9.055,5.554-12.427c4.065-3.82,8.862-6.512,13.797-8.996c0.435-0.219,0.861-0.456,1.291-0.684
			c-0.024-0.109-0.049-0.217-0.074-0.326c-2.395-0.107-4.789-0.295-7.184-0.307c-9.386-0.046-18.771-0.041-28.156-0.046
			c-2.227-0.001-4.454,0.052-6.682,0.044c-0.952-0.004-1.449,0.359-1.583,1.348c-0.142,1.044-0.386,2.081-0.666,3.1
			c-0.479,1.737-1.004,3.542-2.716,4.451c-3.285,1.746-6.86,2.394-10.56,2.382c-0.989-0.003-1.638-0.354-1.645-1.533
			c-0.004-0.828-0.239-1.655-0.379-2.481c-0.237-1.403-0.48-2.805-0.721-4.207c-0.084,0.001-0.169,0.002-0.254,0.003
			c-0.216,1.121-0.432,2.242-0.62,3.215c-1.339,0.066-2.561,0.16-3.782,0.161c-0.255,0-0.639-0.295-0.741-0.545
			c-0.438-1.07-0.793-2.175-1.178-3.267c-0.273,0.463-0.352,0.913-0.397,1.365c-0.198,1.959-0.432,3.916-0.559,5.879
			c-0.06,0.913-0.509,1.202-1.31,1.23c-3.779,0.134-7.403-0.518-10.831-2.151c-0.285-0.135-0.6-0.329-0.763-0.583
			c-1.043-1.625-2.151-3.216-2.324-5.242c-0.062-0.719-0.337-1.417-0.472-2.133c-0.139-0.733-0.571-1.013-1.288-1.051
			c-2.987-0.157-5.975-0.512-8.959-0.482c-10.439,0.106-20.877,0.343-31.316,0.535c-0.235,0.004-0.47,0.062-1.04,0.142
			c0.556,0.342,0.851,0.515,1.136,0.7c3.559,2.288,7.211,4.442,10.646,6.903c3.461,2.48,6.396,5.532,7.226,9.939
			c0.396,2.102,0.444,4.272,0.595,6.416c0.119,1.71,0.168,3.425,0.22,5.139c0.018,0.565,0.222,0.779,0.801,0.719
			c1.052-0.109,2.107-0.186,3.164-0.242c6.244-0.327,12.48-0.408,18.632,0.987c4.985,1.13,9.443,3.23,12.882,7.158
			c2.235,2.554,3.835,5.498,5.258,8.551C78.236,112.537,78.998,114.174,79.838,115.982z"/>
		<path fill-rule="evenodd" clip-rule="evenodd" fill="#515051" d="M79.838,115.982c-0.841-1.808-1.603-3.445-2.365-5.082
			c-1.423-3.053-3.022-5.997-5.258-8.551c-3.438-3.928-7.896-6.028-12.882-7.158c-6.151-1.395-12.388-1.314-18.632-0.987
			c-1.057,0.056-2.112,0.133-3.164,0.242c-0.579,0.06-0.783-0.154-0.801-0.719c-0.052-1.714-0.101-3.429-0.22-5.139
			c-0.15-2.143-0.198-4.313-0.595-6.416c-0.83-4.407-3.765-7.458-7.226-9.939c-3.435-2.461-7.087-4.616-10.646-6.903
			c-0.285-0.185-0.58-0.357-1.136-0.7c0.57-0.08,0.805-0.137,1.04-0.142c10.439-0.191,20.877-0.428,31.316-0.535
			c2.984-0.03,5.972,0.325,8.959,0.482c0.717,0.038,1.149,0.318,1.288,1.051c0.135,0.715,0.41,1.414,0.472,2.133
			c0.173,2.026,1.281,3.618,2.324,5.242c0.163,0.255,0.478,0.448,0.763,0.583c3.428,1.633,7.052,2.285,10.831,2.151
			c0.801-0.028,1.25-0.317,1.31-1.23c0.127-1.963,0.36-3.92,0.559-5.879c0.046-0.453,0.124-0.902,0.397-1.365
			c0.385,1.092,0.739,2.197,1.178,3.267c0.103,0.25,0.486,0.545,0.741,0.545c1.222-0.001,2.443-0.095,3.782-0.161
			c0.188-0.973,0.404-2.094,0.62-3.215c0.085-0.001,0.17-0.002,0.254-0.003c0.24,1.402,0.483,2.804,0.721,4.207
			c0.14,0.826,0.375,1.653,0.379,2.481c0.007,1.178,0.655,1.53,1.645,1.533c3.699,0.012,7.274-0.636,10.56-2.382
			c1.712-0.91,2.237-2.714,2.716-4.451c0.28-1.019,0.524-2.055,0.666-3.1c0.134-0.989,0.631-1.352,1.583-1.348
			c2.228,0.008,4.455-0.045,6.682-0.044c9.386,0.005,18.771,0,28.156,0.046c2.395,0.012,4.789,0.2,7.184,0.307
			c0.025,0.109,0.05,0.217,0.074,0.326c-0.43,0.228-0.856,0.465-1.291,0.684c-4.935,2.484-9.731,5.176-13.797,8.996
			c-3.59,3.372-5.468,7.491-5.554,12.427c-0.03,1.751-0.158,3.502-0.183,5.254c-0.011,0.777-0.195,1.07-1.071,1.021
			c-5.945-0.338-11.893-0.437-17.814,0.364c-4.065,0.549-8.017,1.512-11.719,3.37c-5.02,2.52-7.989,6.667-9.621,11.906
			c-0.629,2.018-1.235,4.042-1.859,6.062C80.143,115.409,80.028,115.59,79.838,115.982z"/>
	</g>
</g>
<g>
	<path fill="#212222" d="M172.45,114.147c9.294-8.628,19.234-16.428,29.987-23.172c0.703-0.44,1.393-0.906,2.11-1.321
		c31.892-18.46,65.917-28.701,103.104-26.689c13.317,0.72,25.373,5.039,37.438,10.882c23.855,11.552,39.183,30.257,49.22,53.944
		c6.536,15.422,8.25,31.775,7.964,48.409c-0.056,3.023-1.164,4.184-4.161,4.061c-3.826-0.156-7.67,0.096-11.493-0.084
		c-2.448-0.115-3.361,0.62-3.883,3.166c-1.739,8.472-4.011,16.833-7.78,24.669c-8.701,18.07-22.081,31.629-40.445,39.629
		c-5.439,2.37-10.956,5.316-17.271,5.678c-3.651,0.209-5.243,2.605-5.249,6.509c-0.08,50.268-15.105,95.265-47.836,133.841
		c-3.319,3.916-3.495,6.688,0.466,9.834c1.024,0.817,1.854,1.905,2.692,2.933c3.752,4.576,8.213,7.229,14.242,8.882
		c16.346,4.479,26.012,19.563,25.392,37.325c-0.104,2.946-1.863,2.579-3.675,2.58c-10.164,0.005-20.33,0.002-30.494,0.002
		c-9.998,0-20-0.175-29.99,0.099c-3.484,0.094-4.363-1.403-4.355-4.295c0.038-13.719,4.795-24.988,16.832-32.495
		c1.583-0.988,4.375-1.776,1.962-4.255c-2.076-2.134-3.354-6.51-7.769-4.185c-1.729,0.911-3.169,2.409-4.661,3.73
		c-18.53,16.396-39.394,28.908-62.79,36.951c-21.87,7.519-44.377,11.324-67.604,10.53c-3.819-0.131-5.025-1.768-4.98-5.115
		c0.109-8.155,0.333-16.313,0.337-24.47c0.029-58.984-0.555-117.979,0.196-176.961c0.602-47.271,17.438-88.924,47.803-125.096
		 M284.029,442.141c1.912,0.762,3.916,0.634,5.912,0.646c3.479,0.027,4.02-1.305,2.246-4.229
		c-4.188-6.899-9.375-12.109-18.226-11.683c-11.493-0.438-19.043,4.936-21.69,15.264
		C262.825,442.141,273.428,442.141,284.029,442.141z M361.324,194.08c3.813-4.841,3.845-10.741,4.629-16.438
		c0.322-2.336-0.854-2.766-2.863-2.757c-17.707,0.074-35.418-0.583-53.12,0.326c-3.349-1.063-2.923,1.233-2.927,3.237
		c-0.034,17.825,0.057,35.652-0.24,53.473c-0.069,4.338,1.779,4.666,5.043,3.982C335.87,230.872,352.476,217.064,361.324,194.08z
		 M307.269,82.051c-0.118,6.976-0.341,13.951-0.344,20.927c-0.009,18.293,0.062,36.586,0.157,54.878
		c0.01,1.732-1.011,4.192,2.489,4.119c16.448-0.345,32.909,0.566,49.351-0.51c5.479,0.107,10.954,0.278,16.435,0.31
		c8.95,0.052,8.95,0.015,7.727-8.938c-5.008-36.535-36.322-67.329-72.818-71.569C309.233,81.147,307.914,80.473,307.269,82.051z
		 M294.581,84.791c0.551-5.132-3.313-3.718-5.713-3.492c-24.714,2.321-48.39,8.285-70.088,20.778
		c-36.584,21.065-63.025,51.002-78.59,90.344c-9.735,24.607-13.587,50.194-13.446,76.632c0.294,55.303,0.089,110.606,0.09,165.909
		c0,1.499,0.071,3,0.017,4.496c-0.088,2.395,0.628,3.615,3.403,3.384c6.112-0.511,12.243-0.765,18.146-2.66
		c4.884,0.745,9.356-0.795,13.973-2.137c54.138-15.741,93.63-48.363,116.359-100.46c8.916-20.435,15.615-41.696,15.85-63.97
		c0.643-61.106,0.209-122.224,0.189-183.337C294.77,88.449,294.646,86.62,294.581,84.791z"/>
	<path fill="#8E708E" d="M294.581,84.791c0.065,1.829,0.188,3.658,0.188,5.487c0.02,61.113,0.453,122.23-0.189,183.337
		c-0.232,22.273-6.934,43.535-15.85,63.97c-22.729,52.097-62.224,84.719-116.359,100.46c-4.616,1.342-9.088,2.882-13.973,2.137
		c-0.195-6.558-0.391-13.112-0.585-19.674c1.434-0.397,2.849-0.888,4.303-1.188c70.158-14.638,120.09-79.385,122.916-150.631
		c0.237-5.992-0.892-6.967-6.755-6.781c-3.229,0.101-4.937,1.615-5.326,4.74c-0.354,2.807-0.684,5.611-1.021,8.416
		c-3.039-0.207-3.807,2.24-4.812,4.263c-1.996,4.013-3.474,8.333-5.837,12.104c-17.625,28.131-40.701,50.305-71.227,64.104
		c-6.646,3.004-13.417,5.82-20.785,6.668c-0.129-1.99-0.37-3.979-0.371-5.971c-0.017-28.164,0.018-56.326-0.003-84.486
		c-0.006-8.241-0.069-8.229-7.949-9.053c-0.983-0.104-1.943-0.437-2.914-0.66c-0.525-12.735,1.12-25.259,3.975-37.62
		c14.667-63.513,51.515-108.027,112.792-131.672C274.471,89.006,284.574,87.14,294.581,84.791z M259.125,163.441
		c0.009-8.155-5.288-13.609-13.179-13.567c-7.594,0.04-12.976,5.502-13.061,13.257c-0.086,7.857,5.547,13.896,13.044,13.98
		C253.649,177.199,259.116,171.537,259.125,163.441z"/>
	<path fill="#292341" d="M147.813,420.508c0.195,6.562,0.39,13.116,0.585,19.674c-5.902,1.896-12.034,2.149-18.146,2.66
		c-2.774,0.231-3.491-0.989-3.403-3.384c0.055-1.496-0.017-2.997-0.017-4.496c-0.001-55.303,0.204-110.606-0.09-165.909
		c-0.141-26.438,3.711-52.024,13.446-76.632c15.565-39.342,42.006-69.278,78.59-90.344c21.699-12.493,45.375-18.457,70.088-20.778
		c2.399-0.226,6.264-1.64,5.713,3.492c-10.007,2.349-20.11,4.215-29.782,7.946c-61.277,23.645-98.125,68.159-112.792,131.672
		c-2.854,12.361-4.5,24.885-3.975,37.62c-1.982,1.516-1.949,3.656-1.947,5.867c0.044,49.248,0.061,98.498,0.088,147.743
		C146.174,417.438,145.793,419.384,147.813,420.508z"/>
	<path fill="#F2AC46" d="M358.922,161.465c-16.438,1.076-32.902,0.165-49.351,0.51c-3.5,0.073-2.479-2.387-2.489-4.119
		c-0.099-18.292-0.166-36.585-0.157-54.878c0.003-6.976,0.226-13.951,0.344-20.927c1.956,0.886,3.999,1.62,5.854,2.684
		c11.271,6.469,20.35,15.413,27.845,25.869C351.836,125.768,358.372,142.593,358.922,161.465z"/>
	<path fill="#F2AC46" d="M361.324,194.08c-8.852,22.984-25.454,36.792-49.479,41.823c-3.264,0.684-5.112,0.355-5.043-3.982
		c0.297-17.82,0.206-35.647,0.24-53.473c0.004-2.004-0.422-4.301,2.928-3.237c0.612,0.532,1.142,1.312,1.853,1.562
		C328.31,182.576,344.819,188.323,361.324,194.08z"/>
	<path fill="#E88D2E" d="M358.922,161.465c-0.55-18.872-7.086-35.697-17.956-50.861c-7.495-10.456-16.574-19.4-27.845-25.869
		c-1.854-1.063-3.896-1.798-5.854-2.684c0.646-1.578,1.968-0.903,2.993-0.784c36.496,4.24,67.813,35.034,72.818,71.569
		c1.227,8.953,1.227,8.99-7.729,8.938C369.876,161.743,364.399,161.572,358.922,161.465z"/>
	<path fill="#E88D2E" d="M361.324,194.08c-16.505-5.757-33.018-11.504-49.504-17.308c-0.711-0.25-1.237-1.029-1.853-1.562
		c17.701-0.909,35.412-0.252,53.119-0.326c2.01-0.009,3.188,0.421,2.863,2.757C365.169,183.339,365.14,189.239,361.324,194.08z"/>
	<path fill="#F2AC46" d="M284.029,442.141c-10.604,0-21.204,0-31.754,0c2.647-10.328,10.198-15.698,21.691-15.264
		c1.284,1.48,2.54,2.987,3.857,4.438C280.688,434.472,283.822,437.464,284.029,442.141z"/>
	<path fill="#E88D2E" d="M284.029,442.141c-0.207-4.677-3.342-7.669-6.206-10.823c-1.317-1.45-2.573-2.957-3.857-4.438
		c8.849-0.43,14.033,4.78,18.222,11.684c1.773,2.925,1.234,4.257-2.246,4.229C287.945,442.771,285.941,442.899,284.029,442.141z"/>
	<path fill="#212222" d="M147.813,420.508c-2.02-1.124-1.639-3.066-1.64-4.865c-0.027-49.248-0.044-98.496-0.088-147.746
		c-0.002-2.211-0.035-4.352,1.947-5.867c0.971,0.229,1.93,0.563,2.914,0.662c7.88,0.822,7.943,0.813,7.949,9.054
		c0.021,28.159-0.013,56.321,0.003,84.485c0.001,1.988,0.242,3.979,0.371,5.972c-0.09,12.641-0.051,25.282-0.338,37.922
		c-0.103,4.543,1.98,4.729,5.183,3.336c6.517-2.838,13.188-5.42,19.418-8.806c27.758-15.067,48.95-36.602,63.087-64.973
		c8.592-17.242,14.225-35.283,15.311-54.617c0.34-2.805,0.67-5.609,1.021-8.416c0.393-3.125,2.1-4.643,5.326-4.74
		c5.863-0.186,6.992,0.79,6.755,6.781c-2.826,71.246-52.758,135.993-122.916,150.631
		C150.662,419.62,149.247,420.107,147.813,420.508z"/>
	<path fill="#BA9BE1" d="M261.93,275.064c-1.086,19.332-6.718,37.373-15.311,54.617c-14.137,28.368-35.329,49.899-63.087,64.973
		c-6.23,3.383-12.901,5.965-19.418,8.803c-3.203,1.396-5.286,1.207-5.183-3.336c0.287-12.637,0.248-25.281,0.338-37.922
		c7.369-0.848,14.139-3.664,20.785-6.668c30.526-13.797,53.602-35.971,71.227-64.102c2.363-3.772,3.841-8.096,5.837-12.105
		C258.123,277.305,258.891,274.857,261.93,275.064z"/>
	<path fill="#212222" d="M259.125,163.441c-0.009,8.096-5.476,13.758-13.195,13.67c-7.498-0.085-13.13-6.123-13.044-13.98
		c0.085-7.755,5.467-13.217,13.061-13.257C253.837,149.832,259.134,155.286,259.125,163.441z"/>
</g>
<path fill="none" stroke="#212222" stroke-width="14" stroke-miterlimit="10" d="M294.931,72.5c0,0-46.431,142,5.569,174
	c0,0-189,18.358-213-10.321C87.5,236.179,176.361,64.5,294.931,72.5z"/>
<path fill="#4E3E7F" stroke="#212222" stroke-width="14" stroke-miterlimit="10" d="M164.349,186.714l-34.515-64.684
	c0,0,57.584,14.444,60.399,28.429"/>
<path fill="#4E3E7F" stroke="#212222" stroke-width="14" stroke-miterlimit="10" d="M89.919,240.761
	c0,0-24.291,144.757-58.343,147.618c0,0,42.707,15.368,25.87,42.036l115.646,46.054c0,0-16.745-221.125-38.351-225.743
	C134.741,250.726,89.458,248.067,89.919,240.761z"/>
<path fill="#FEED5B" stroke="#212222" stroke-width="14" stroke-miterlimit="10" d="M300.5,294.5c0,0-60.941,19.395-16.471,46.697"
	/>
<path fill="#FFFFFF" stroke="#212222" stroke-width="14" stroke-miterlimit="10" d="M221.372,372.5c0,0,26.198,22.831,34.49,22"/>
<path fill="#4E3E7F" d="M148.602,244.511c0,0,125.364,4.169,135.427-3.749c0,0-32.245-32.933,0.113-153.597
	C284.143,87.165,166.703,107.854,148.602,244.511z"/>
<path fill="#FFFFFF" stroke="#212222" stroke-width="14" stroke-miterlimit="10" d="M238.617,358.615"/>
<path fill="none" stroke="#212222" stroke-width="14" stroke-miterlimit="10" d="M257.004,132.5c0,0-47.458,6.882-54.647,42.441"/>
<path fill="#DF9F94" d="M294.931,97.167v136C294.931,233.167,266.026,205.167,294.931,97.167z"/>
<path fill="#DF9F94" d="M210.429,174.941c0,0-3.381-24.439,46.575-35.107C257.004,139.834,299.023,194.715,210.429,174.941z"/>
<circle fill="#212222" cx="244.407" cy="162.396" r="14.522"/>
<path fill="#4E3E7F" stroke="#212222" stroke-width="14" stroke-miterlimit="10" d="M118.438,200.28"/>
<path fill="#292341" d="M95.167,233.167c0,0,6.894,10.363,53.435,11.343l12.692-50.431l-15.209-24.246
	C146.085,169.834,120.5,189.834,95.167,233.167z"/>
<path fill="#292341" d="M91.833,252.181c0,0-23.85,101.515-28.053,109.41c0,0,23.841,6.611,30.349-13.229
	c0,0,22.21-60.119,28.106-55.967c0,0,24.232,12.692,7.286-34.657L91.833,252.181z"/>
<path fill="#292341" d="M164.5,466.5c0,0-25.331-156.392-34.666-126.862c0,0-13.479,104.238-20.074,87.217
	c0,0-16.594-37.646-44.594,0"/>
<path fill="#FFFFFF" stroke="#212222" stroke-width="14" stroke-miterlimit="10" d="M235.029,358.615c0,0,26.198,22.831,34.49,22"/>
<path fill-rule="evenodd" clip-rule="evenodd" fill="#FEED5B" d="M238.617,369.626l14.091,11.012c0,0,1.146,2.416-3.541,5.862
	s-17.652-12.789-17.652-12.789L238.617,369.626z"/>
<path fill-rule="evenodd" clip-rule="evenodd" fill="#FEED5B" d="M236.773,367.736"/>
<path fill-rule="evenodd" clip-rule="evenodd" fill="#4E3E7F" stroke="#212222" stroke-width="14" stroke-miterlimit="10" d="
	M160.034,349.824c0,0,53.916,20.609,82.139,0c0,0-50.89,60.538-75.733,54.398C166.44,404.223,164.592,381.123,160.034,349.824z"/>
</svg>
