<?xml version="1.0" encoding="utf-8"?>
<!-- Generator: Adobe Illustrator 16.0.0, SVG Export Plug-In . SVG Version: 6.00 Build 0)  -->
<!DOCTYPE svg PUBLIC "-//W3C//DTD SVG 1.1//EN" "http://www.w3.org/Graphics/SVG/1.1/DTD/svg11.dtd">
<svg version="1.1" id="Layer_1" xmlns="http://www.w3.org/2000/svg" xmlns:xlink="http://www.w3.org/1999/xlink" x="0px" y="0px"
	 width="512px" height="512px" viewBox="0 0 512 512" enable-background="new 0 0 512 512" xml:space="preserve">
<g>
	<path fill="#212222" d="M272.777,455.225c-9.998,0-20-0.175-29.991,0.098c-3.484,0.094-4.363-1.403-4.355-4.295
		c0.038-13.718,4.795-24.988,16.832-32.495c1.584-0.988,4.375-1.776,1.963-4.255c-2.076-2.133-3.354-6.509-7.769-4.184
		c-1.729,0.911-3.169,2.409-4.661,3.73c-18.53,16.397-39.394,28.908-62.79,36.951c-21.87,7.519-44.377,11.325-67.604,10.531
		c-3.819-0.131-5.025-1.768-4.98-5.116c0.109-8.155,0.333-16.313,0.337-24.469c0.029-58.985-0.555-117.98,0.196-176.961
		c0.602-47.271,17.438-88.924,47.803-125.096c4.432-5.279,4.582-5.155-0.157-9.907c-4-4.011-7.976-8.044-11.363-12.604
		c-1.768-2.38-3.967-3.134-6.942-2.622c-9.61,1.652-16.237-3.279-17.129-12.541c-0.918-9.535,4.937-15.345,14.728-16.159
		c7.169-0.597,15.131,10.046,12.889,17.221c-1.079,3.453-0.063,5.715,2.249,7.97c4.763,4.646,9.509,9.313,14.181,14.051
		c2.612,2.649,4.321,0.85,6.235-0.927c9.294-8.628,19.234-16.428,29.987-23.172c0.703-0.44,1.393-0.906,2.11-1.321
		c31.892-18.46,65.917-28.701,103.104-26.689c13.318,0.72,25.373,5.039,37.438,10.882c23.855,11.552,39.183,30.257,49.22,53.944
		c6.536,15.422,8.25,31.775,7.963,48.409c-0.055,3.023-1.164,4.184-4.161,4.061c-3.826-0.156-7.67,0.096-11.493-0.084
		c-2.448-0.115-3.361,0.62-3.883,3.166c-1.739,8.472-4.01,16.833-7.78,24.669c-8.701,18.07-22.081,31.629-40.445,39.629
		c-5.44,2.37-10.956,5.316-17.271,5.678c-3.651,0.209-5.243,2.605-5.249,6.509c-0.08,50.267-15.105,95.265-47.835,133.841
		c-3.32,3.916-3.496,6.688,0.465,9.834c1.025,0.817,1.854,1.905,2.693,2.933c3.752,4.576,8.213,7.229,14.242,8.881
		c16.346,4.479,26.011,19.563,25.391,37.326c-0.104,2.946-1.863,2.579-3.674,2.58C293.107,455.228,282.941,455.225,272.777,455.225z
		 M284.029,442.141c1.912,0.761,3.916,0.633,5.912,0.646c3.479,0.027,4.02-1.305,2.246-4.229c-4.188-6.9-9.375-12.11-18.225-11.683
		c-11.493-0.438-19.043,4.936-21.69,15.264C262.825,442.141,273.428,442.141,284.029,442.141z M361.324,194.08
		c3.813-4.841,3.845-10.741,4.629-16.438c0.322-2.336-0.854-2.766-2.863-2.757c-17.707,0.074-35.418-0.583-53.12,0.326
		c-3.349-1.063-2.923,1.233-2.927,3.237c-0.034,17.825,0.057,35.652-0.24,53.473c-0.07,4.338,1.779,4.666,5.043,3.982
		C335.87,230.872,352.476,217.064,361.324,194.08z M307.269,82.051c-0.119,6.976-0.341,13.951-0.344,20.927
		c-0.009,18.293,0.061,36.586,0.157,54.878c0.01,1.732-1.011,4.192,2.489,4.119c16.448-0.345,32.909,0.566,49.351-0.51
		c5.479,0.107,10.954,0.278,16.434,0.31c8.951,0.052,8.951,0.015,7.727-8.938c-5.008-36.535-36.322-67.329-72.818-71.569
		C309.233,81.147,307.914,80.473,307.269,82.051z M294.581,84.791c0.551-5.132-3.313-3.718-5.713-3.492
		c-24.714,2.321-48.39,8.285-70.088,20.778c-36.584,21.065-63.025,51.002-78.59,90.344c-9.735,24.607-13.587,50.194-13.446,76.632
		c0.294,55.303,0.089,110.606,0.09,165.909c0,1.499,0.071,3,0.017,4.496c-0.088,2.395,0.628,3.615,3.403,3.384
		c6.112-0.511,12.243-0.765,18.146-2.66c4.884,0.745,9.356-0.795,13.973-2.137c54.138-15.741,93.63-48.363,116.359-100.46
		c8.916-20.435,15.615-41.696,15.85-63.97c0.643-61.106,0.209-122.224,0.189-183.337C294.77,88.449,294.646,86.62,294.581,84.791z"
		/>
	<path fill="#FFF4D3" d="M294.581,84.791c0.065,1.829,0.188,3.658,0.188,5.487c0.02,61.113,0.453,122.23-0.189,183.337
		c-0.232,22.273-6.934,43.535-15.85,63.97c-22.729,52.097-62.223,84.719-116.359,100.46c-4.616,1.342-9.088,2.882-13.973,2.137
		c-0.195-6.558-0.391-13.113-0.585-19.674c1.434-0.398,2.849-0.888,4.303-1.188c70.158-14.637,120.09-79.384,122.916-150.63
		c0.237-5.992-0.892-6.967-6.755-6.782c-3.229,0.101-4.936,1.616-5.326,4.741c-0.354,2.806-0.684,5.611-1.021,8.416
		c-3.039-0.207-3.807,2.24-4.812,4.262c-1.996,4.013-3.474,8.333-5.837,12.104c-17.625,28.131-40.701,50.305-71.227,64.104
		c-6.646,3.004-13.417,5.82-20.785,6.668c-0.129-1.99-0.37-3.979-0.371-5.971c-0.017-28.164,0.018-56.326-0.003-84.486
		c-0.006-8.241-0.069-8.229-7.949-9.053c-0.983-0.103-1.943-0.436-2.914-0.66c-0.525-12.735,1.12-25.259,3.975-37.62
		c14.667-63.513,51.515-108.027,112.792-131.672C274.471,89.006,284.574,87.14,294.581,84.791z M259.125,163.441
		c0.009-8.155-5.288-13.609-13.179-13.567c-7.594,0.04-12.976,5.502-13.061,13.257c-0.086,7.857,5.547,13.896,13.044,13.98
		C253.649,177.199,259.116,171.537,259.125,163.441z"/>
	<path fill="#FCEDCD" d="M147.813,420.508c0.195,6.561,0.39,13.116,0.585,19.674c-5.902,1.896-12.034,2.149-18.146,2.66
		c-2.774,0.231-3.491-0.989-3.403-3.384c0.055-1.496-0.017-2.997-0.017-4.496c-0.001-55.303,0.204-110.606-0.09-165.909
		c-0.141-26.438,3.711-52.024,13.446-76.632c15.565-39.342,42.006-69.278,78.59-90.344c21.699-12.493,45.375-18.457,70.088-20.778
		c2.399-0.226,6.264-1.64,5.713,3.492c-10.007,2.349-20.11,4.215-29.782,7.946c-61.277,23.645-98.125,68.159-112.792,131.672
		c-2.854,12.361-4.5,24.885-3.975,37.62c-1.982,1.516-1.949,3.656-1.947,5.867c0.044,49.248,0.061,98.498,0.088,147.744
		C146.174,417.438,145.793,419.384,147.813,420.508z"/>
	<path fill="#F2AC46" d="M358.922,161.465c-16.439,1.076-32.902,0.165-49.351,0.51c-3.5,0.073-2.479-2.387-2.489-4.119
		c-0.099-18.292-0.166-36.585-0.157-54.878c0.003-6.976,0.225-13.951,0.344-20.927c1.956,0.886,3.999,1.62,5.854,2.684
		c11.271,6.469,20.35,15.413,27.845,25.869C351.836,125.768,358.372,142.593,358.922,161.465z"/>
	<path fill="#F2AC46" d="M361.324,194.08c-8.851,22.984-25.454,36.792-49.479,41.823c-3.264,0.684-5.113,0.355-5.043-3.982
		c0.297-17.82,0.206-35.647,0.24-53.473c0.004-2.004-0.422-4.301,2.928-3.237c0.612,0.532,1.141,1.312,1.852,1.562
		C328.31,182.576,344.819,188.323,361.324,194.08z"/>
	<path fill="#E88D2E" d="M358.922,161.465c-0.55-18.872-7.086-35.697-17.956-50.861c-7.495-10.456-16.574-19.4-27.845-25.869
		c-1.854-1.063-3.896-1.798-5.854-2.684c0.646-1.578,1.967-0.903,2.993-0.784c36.496,4.24,67.813,35.034,72.818,71.569
		c1.227,8.953,1.227,8.99-7.729,8.938C369.876,161.743,364.399,161.572,358.922,161.465z"/>
	<path fill="#E88D2E" d="M361.324,194.08c-16.505-5.757-33.017-11.504-49.504-17.308c-0.711-0.25-1.237-1.029-1.852-1.562
		c17.701-0.909,35.412-0.252,53.119-0.326c2.01-0.009,3.188,0.421,2.863,2.757C365.169,183.339,365.14,189.239,361.324,194.08z"/>
	<path fill="#F2AC46" d="M284.029,442.141c-10.604,0-21.204,0-31.754,0c2.647-10.328,10.198-15.699,21.691-15.264
		c1.284,1.48,2.54,2.987,3.857,4.438C280.688,434.472,283.822,437.464,284.029,442.141z"/>
	<path fill="#E88D2E" d="M284.029,442.141c-0.207-4.677-3.342-7.669-6.206-10.824c-1.317-1.45-2.573-2.957-3.857-4.438
		c8.849-0.43,14.033,4.78,18.222,11.683c1.773,2.925,1.234,4.257-2.246,4.229C287.945,442.771,285.941,442.899,284.029,442.141z"/>
	<path fill="#212222" d="M147.813,420.508c-2.02-1.124-1.639-3.067-1.64-4.865c-0.027-49.248-0.044-98.496-0.088-147.746
		c-0.002-2.211-0.035-4.352,1.947-5.867c0.971,0.229,1.93,0.562,2.914,0.662c7.88,0.822,7.943,0.812,7.949,9.053
		c0.021,28.16-0.013,56.322,0.003,84.486c0.001,1.988,0.242,3.979,0.371,5.971c-0.09,12.641-0.051,25.283-0.338,37.922
		c-0.103,4.543,1.98,4.729,5.183,3.336c6.517-2.838,13.188-5.42,19.418-8.805c27.758-15.068,48.95-36.602,63.087-64.973
		c8.592-17.242,14.225-35.283,15.311-54.617c0.34-2.805,0.67-5.61,1.021-8.416c0.393-3.125,2.1-4.643,5.326-4.741
		c5.863-0.185,6.992,0.79,6.755,6.782c-2.826,71.246-52.758,135.993-122.916,150.63C150.662,419.62,149.247,420.107,147.813,420.508
		z"/>
	<path fill="#FCEDCD" d="M261.93,275.064c-1.086,19.332-6.718,37.373-15.311,54.617c-14.137,28.369-35.329,49.9-63.087,64.973
		c-6.23,3.383-12.901,5.965-19.418,8.803c-3.203,1.396-5.286,1.207-5.183-3.336c0.287-12.637,0.248-25.281,0.338-37.922
		c7.369-0.848,14.139-3.664,20.785-6.668c30.526-13.797,53.602-35.971,71.227-64.102c2.363-3.772,3.841-8.095,5.837-12.105
		C258.123,277.305,258.891,274.857,261.93,275.064z"/>
	<path fill="#212222" d="M259.125,163.441c-0.009,8.096-5.476,13.758-13.195,13.67c-7.498-0.085-13.13-6.123-13.044-13.98
		c0.085-7.755,5.467-13.217,13.061-13.257C253.837,149.832,259.134,155.286,259.125,163.441z"/>
</g>
<path fill="none" stroke="#212222" stroke-width="14" stroke-miterlimit="10" d="M119.22,331.638c0,0,16.989,14.318,28.423,12.068"
	/>
<path fill="none" stroke="#212222" stroke-width="14" stroke-miterlimit="10" d="M240.707,350.368c0,0,44.462-1.174,45.494-3.799"/>
<path fill="#6A4429" d="M125.598,344.181c0,0,16.787,5.003,21.045,3.656v50.514c0,0-1.179,1.888-18.856,1.856
	c0,0-2.935,1.828-2.508-8.178"/>
<path fill="none" stroke="#212222" stroke-width="14" stroke-miterlimit="10" d="M119.22,395.834c0,0,25.516,12.488,32.614,8.389"/>
<path fill="none" stroke="#212222" stroke-width="14" stroke-miterlimit="10" d="M175.5,405.5
	c62.611-5.567,62.663-5.418,73.775-8.162"/>
<path fill="#4B3726" d="M245.36,356.501l24.89-1.751c0,0-11,22.25-27,37.5l-37.029,3.584
	C206.221,395.834,234.557,374.249,245.36,356.501z"/>
<path fill="#4B3726" stroke="#212222" stroke-width="14" stroke-miterlimit="10" d="M300.527,277.516
	c1.844-12.342-34.638,11.224-32.916,10C267.611,287.516,289.222,353.197,300.527,277.516z"/>
<path fill="#4B3726" stroke="#212222" stroke-width="14" stroke-miterlimit="10" d="M126.738,216.5
	c0,0,105.733-15.999,141.414,50.667v21.903c0,0-66.986-83.51-145.653-44.57L126.738,216.5z"/>
<path fill="#4B3726" stroke="#212222" stroke-width="14" stroke-miterlimit="10" d="M147.813,163.493"/>
<path fill="none" stroke="#212222" stroke-width="14" stroke-miterlimit="10" d="M238.235,235.333c0,0,52.453,13.168,62.359,4.502"
	/>
<path fill="none" stroke="#212222" stroke-width="14" stroke-miterlimit="10" d="M151.833,297.834c0,0,90.352,43.874,104.028,25.334
	"/>
<path fill="#E3E5E5" d="M263.454,247.5c0,0,24.384,3.917,31.263,1.738c0.073-0.023,0.145-0.047,0.214-0.071V267.5
	c0,0-6.196,1.049-19.869,7.552C275.062,275.052,273.074,261.5,263.454,247.5z"/>
<path fill="#E3E5E5" d="M268.651,307.792c0,0,9.583,14.372,17.55,12.372l-9.087,21.033l-23.717,2.603
	C253.397,343.8,266.461,316.138,268.651,307.792z"/>
<path fill="#E3E5E5" d="M144.501,242.131c0,0,52.227-23.096,115.613,48.135c0,0-4.28,24.231-8.947,29.564
	c0,0-11.479,11.223-92.24-25.889c0,0-0.427-25.778-1.76-27.778c0,0-3.382-5.499-10.524-2.416l-1.782,0.009"/>
<path fill="#FEFEFE" d="M146.085,242.174l0.048,95.618c0,0-12.504-3.628-19.235-8.628l0.483-79.317
	C127.381,249.847,139.751,241.464,146.085,242.174z"/>
<path fill="none" stroke="#212222" stroke-width="14" stroke-miterlimit="10" d="M253.397,426.854"/>
<g>
	<path fill="#54963C" stroke="#231F20" stroke-width="14" stroke-miterlimit="10" d="M177.729,87.888
		c0,0-112.9,39.405-77.639,78.645C135.353,205.772,188.849,215.006,177.729,87.888z"/>
	<path fill="#467536" d="M109.438,171.479c0,0,2.649-34.941,15.181-40.753l-3.555-11.536
		C121.063,119.19,74.465,145.017,109.438,171.479z"/>
	<path fill="#54963C" stroke="#231F20" stroke-width="14" stroke-miterlimit="10" d="M178.489,118.694
		c11.216-15.314,52.348-10.475,49.782-46.999c-3.017-42.992-48.451-62.51-58.101-52.167c-9.649,10.342-5.474,22.001-24.593,25.12
		c-18.69,3.047-63.643-33.34-15.042,91.972C130.536,136.621,143.375,166.635,178.489,118.694z"/>
	<path fill="#54963C" stroke="#231F20" stroke-width="14" stroke-miterlimit="10" d="M162.455,174.008
		c0,0,12.76-100.654,100.314-127.172c0,0,3.466-2.207,3.433,5.391C266.168,59.824,168.375,199.459,162.455,174.008z"/>
	<path fill="#467536" d="M208.599,84.568c0,0,45.788-23.338,47.47-20.208c0,0,16.817-22.882-1.35-11.045
		C254.719,53.314,222.951,64.611,208.599,84.568z"/>
	<path fill="#467536" d="M139.546,107.424c0,0-24.181-60.509-13.857-61.93c0,0-10.994-2.605-12.892,4.825
		c0,0-3.771,9.165,1.843,29.671c0,0,7.865,27.866,10.631,33.275C125.272,113.264,137.358,109.087,139.546,107.424z"/>
	<path fill="#467536" d="M141.919,113.488c0,0,9.974,24.513,15.259,23.971c0,0-17.301,12.773-23.298-0.048l-6.711-18.186
		C127.17,119.226,140.046,113.734,141.919,113.488z"/>
	<path fill="#5E3704" d="M127.17,119.226"/>
	<path fill="#467536" d="M141.919,113.488c0,0,51.588-22.45,57.13-28.196c5.539-5.747-37.089,52.455-42.83,52.999
		C156.22,138.291,146.797,129.864,141.919,113.488z"/>
	<path fill="none" stroke="#231F20" stroke-width="14" stroke-miterlimit="10" d="M125.392,116.435
		c1.792-0.651,92.867-29.522,99.458-61.046"/>
</g>
<path fill="#755736" stroke="#212222" stroke-width="14" stroke-miterlimit="10" d="M17.035,83.749l12.078-9.495l8.832-13.401
	l7.156,3.301l6.042-6.133l6.324-7.11l9.169,3.786l7.57-18.883l9.669,3.902l2.079,9.685c0,0,18.881,13.868,43.012,90.625
	C128.965,140.025,43.044,148.352,17.035,83.749z"/>
<ellipse fill="#705328" stroke="#212222" stroke-width="14" stroke-miterlimit="10" cx="28.5" cy="-184.86" rx="0" ry="4.36"/>
<circle fill="#705328" stroke="#212222" stroke-width="14" stroke-miterlimit="10" cx="131.541" cy="141.839" r="12.376"/>
<path fill="#543D25" d="M22.952,87.245L33.53,79.35l5.829-10.968l6.322,3.247l71.646,62.955l-2.289,0.491
	C115.038,135.075,60.998,143.005,22.952,87.245z"/>
<path fill-rule="evenodd" clip-rule="evenodd" fill="#FFFFFF" d="M405.846,282.129c0,0-2.348-4.434-8.307-4.454
	c0,0,0.359-16.823-16.776-13.545c0,0-4.996-1.304-8.593,5.557c0,0-12.589-10.955-20.993,1.243c0,0-17.046-3.68-8.718,11.737
	c0,0,0.646,2.909,24.283,15.108c0,0,7.165,4.459,2.834,25.644c0,0-5.097,8.859-4.606,13.608c0,0,12.736,27.205,14.86-10.189
	c0,0,1.266-19.771,10.596-23.067c9.329-3.297,9.329-3.297,9.329-3.297S415.647,293.622,405.846,282.129z"/>
<g>
	<path fill="none" d="M353.73,290.546c-3.118-1.741-6.182-3.583-9.147-5.599c-3.691-2.508-5.912-10.548-1.274-13.384
		c2.043-1.252,4.064-1.09,6.023-0.685c1.716,0.354,2.695-0.005,3.772-1.266c3.541-4.152,7.881-5.557,13.097-3.434
		c1.52,0.619,2.995,1.422,4.112,2.583c1.352,1.404,2.282,1.186,3.298-0.249c1.754-2.478,4.294-3.701,7.151-4.384
		c7.046-1.682,17.074,2.419,16.584,12.491c-0.078,1.588,0.846,1.485,1.839,1.695c6.643,1.404,9.578,6.158,8.033,12.736
		c-1.063,4.527-3.505,7.698-7.238,9.317C395.35,299.61,370.449,295.42,353.73,290.546z"/>
	<path fill="none" d="M380.636,320.682c-0.226,1.188-0.411,2.385-0.541,3.594c-0.46,4.313-0.844,8.633-1.262,12.949
		c-0.458,2.106-1.531,3.745-3.343,4.884c-2.677,1.685-5.794,1.423-8.191-0.667c-2.378-2.072-3.081-5.592-1.695-8.735
		c2.069-4.695,4.243-9.347,5.667-14.275C374.519,319.386,377.686,320.166,380.636,320.682z"/>
	<path fill="none" d="M325.063,295.985c2.049,0.426,4.073,0.979,6.103,1.496c2.876,0.731,3.021,0.955,2.315,3.839
		c-1.824,7.46-3.67,14.914-5.508,22.371c0.003,0.001,0.006,0.001,0.009,0.002c-1.708,6.931-3.375,13.872-5.157,20.783
		c-0.364,1.409-0.034,3.604-1.743,3.947c-1.758,0.354-2.973-1.426-4.093-2.696c-3.51-3.976-3.726-8.952-3.642-13.8
		c0.212-12.055,4.068-23.29,8.299-34.412C322.299,295.798,323.621,295.687,325.063,295.985z"/>
	<path fill="#FFC130" d="M396.175,306.855c0.798-0.101,1.697-0.242,1.4,1.047c-0.501,2.182-1.064,4.35-1.608,6.521
		c-0.149,0.592-0.575,0.903-1.149,1.001c-2.051,0.347-4.101,0.693-6.155,1.012c-1.347,0.21-1.676-0.42-1.261-1.521
		C388.263,311.153,392.472,307.318,396.175,306.855z"/>
	<path fill="#FFC130" d="M343.781,290.719c5.825,3.37,11.704,6.65,17.62,9.856c3.546,1.921,6.464,7.111,6.122,11.127
		c-0.149,1.774-0.771,2.484-2.663,2.004c-7.399-1.876-14.497-4.448-20.933-8.649c-5.101-3.329-5.108-3.317-3.683-9.262
		c0.315-1.279,0.695-2.547,0.93-3.842C341.483,290.256,342.035,289.71,343.781,290.719z"/>
	<path fill="#FFFFFF" d="M372.286,314.156c1.563-8.633-1.611-14.868-9.32-18.753c-3.107-1.564-6.197-3.164-9.235-4.857
		c16.719,4.874,41.619,9.064,46.25,9.824c-1.104,0.479-2.313,0.828-3.641,1.03c-6.862,1.044-11.239,4.713-13.477,11.119
		c-0.934,2.671-1.7,5.39-2.228,8.162c-2.95-0.516-6.117-1.296-9.365-2.251C371.676,317.029,372.022,315.608,372.286,314.156z"/>
	<path fill="#212222" stroke="#212222" stroke-width="2" stroke-miterlimit="10" d="M303.437,340.471
		c1.04,8.453,4.707,15.641,12.282,20.315c2.665,1.644,2.918,3.24,1.041,5.82c-0.82,1.128-1.724,2.206-2.423,3.405
		c-1.607,2.757-1.09,5.383,0.729,7.972c5.395,7.67,13.837,10.452,21.875,13.804c8.022,3.345,16.546,4.781,25.183,5.169
		c6.312,0.284,12.651,0.447,18.607-2.643c3.513-1.82,5.666-5.486,4.494-9.313c-0.546-1.782-0.575-3.482-0.135-5.259
		c6.014-24.259,12.054-48.512,17.976-72.793c0.696-2.854,3.261-3.791,4.86-5.687c4.626-5.486,6.461-11.301,4.479-18.487
		c-1.26-4.569-4.504-6.616-8.129-8.547c-0.974-0.519-1.598-1.016-1.857-2.117c-1.457-6.165-5.453-10.159-11.238-12.241
		c-5.941-2.137-11.869-2.294-17.338,1.602c-1.46,1.041-2.778,1.06-4.459,0.092c-5.728-3.296-13.35-2.256-18.3,2.374
		c-1.107,1.036-2.085,1.462-3.68,1.201c-8.476-1.378-13.12,6.452-12.16,12.325c0.368,2.262,0.158,4.621,1.728,6.638
		c0.851,1.092,0.124,2.468-0.427,3.521c-0.647,1.239-1.811,0.385-2.718,0.2c-1.823-0.373-3.622-0.871-5.432-1.316
		c-0.004,0.018-0.008,0.035-0.013,0.053c-2.109-0.52-4.202-1.142-6.335-1.537c-3.839-0.713-7.151,1.144-8.02,4.937
		c-1.466,6.396-4.401,12.253-6.363,18.465C304.361,318.886,302.084,329.492,303.437,340.471z M343.781,290.719
		c5.825,3.37,11.704,6.65,17.62,9.856c3.546,1.921,6.464,7.111,6.122,11.127c-0.149,1.774-0.771,2.484-2.663,2.004
		c-7.399-1.876-14.497-4.448-20.933-8.649c-5.101-3.329-5.108-3.317-3.683-9.262c0.315-1.279,0.695-2.547,0.93-3.842
		C341.483,290.256,342.035,289.71,343.781,290.719z M387.401,314.915c0.861-3.762,5.07-7.597,8.773-8.06
		c0.798-0.101,1.697-0.242,1.4,1.047c-0.501,2.182-1.064,4.35-1.608,6.521c-0.149,0.592-0.575,0.903-1.149,1.001
		c-2.051,0.347-4.101,0.693-6.155,1.012C387.315,316.646,386.986,316.017,387.401,314.915z M365.604,332.706
		c2.069-4.695,4.243-9.347,5.667-14.275c0.405-1.401,0.752-2.822,1.016-4.274c1.563-8.633-1.611-14.868-9.32-18.753
		c-3.107-1.564-6.197-3.164-9.235-4.857c-3.118-1.741-6.182-3.583-9.147-5.599c-3.691-2.508-5.912-10.548-1.274-13.384
		c2.043-1.252,4.064-1.09,6.023-0.685c1.716,0.354,2.695-0.005,3.772-1.266c3.541-4.152,7.881-5.557,13.097-3.434
		c1.52,0.619,2.995,1.422,4.112,2.583c1.352,1.404,2.282,1.186,3.298-0.249c1.754-2.478,4.294-3.701,7.151-4.384
		c7.046-1.682,17.074,2.419,16.584,12.491c-0.078,1.588,0.846,1.485,1.839,1.695c6.643,1.404,9.578,6.158,8.033,12.736
		c-1.063,4.527-3.505,7.698-7.238,9.317c-1.104,0.479-2.313,0.828-3.641,1.03c-6.862,1.044-11.239,4.713-13.477,11.119
		c-0.934,2.671-1.7,5.39-2.228,8.162c-0.226,1.188-0.411,2.385-0.541,3.594c-0.46,4.313-0.844,8.633-1.262,12.949
		c-0.458,2.106-1.531,3.745-3.343,4.884c-2.677,1.685-5.794,1.423-8.191-0.667C364.921,339.369,364.218,335.85,365.604,332.706z
		 M321.646,297.516c0.653-1.718,1.976-1.829,3.417-1.53c2.049,0.426,4.073,0.979,6.103,1.496c2.876,0.731,3.021,0.955,2.315,3.839
		c-1.824,7.46-3.67,14.914-5.508,22.371c0.003,0.001,0.006,0.001,0.009,0.002c-1.708,6.931-3.375,13.872-5.157,20.783
		c-0.364,1.409-0.034,3.604-1.743,3.947c-1.758,0.354-2.973-1.426-4.093-2.696c-3.51-3.976-3.726-8.952-3.642-13.8
		C313.559,319.873,317.415,308.638,321.646,297.516z"/>
</g>
<path fill-rule="evenodd" clip-rule="evenodd" fill="#FFC130" d="M394.371,320.978l-9.566,0.731c0,0-1.103,16.163-1.887,18.37
	c0,0-6.171,10.238-13.731,6.936c0,0-9.553-5.953-8.1-11.355c0,0,5.342-18.262,2.412-19.034c0,0-24.125-7.123-26.036-9.67
	l-14.681,59.583c0,0,21.492,27.136,58.466,14.406l14.682-59.583"/>
<path fill-rule="evenodd" clip-rule="evenodd" fill="#FFC130" d="M337.463,306.955"/>
<path fill="#E3E5E5" d="M365.468,344.181"/>
<path fill="#EFA91B" d="M347.96,311.635c0,0-14.329,56.865-7.27,68.115c0,0-14.376-6.924-17.908-13.212l14.681-59.583
	L347.96,311.635z"/>
<path fill="#E88D2E" stroke="#212222" stroke-width="14" stroke-miterlimit="10" d="M307.267,295.856
	c0,0,46.595,38.083-12.336,52.613C294.931,348.47,308.533,303.713,307.267,295.856z"/>
<path fill="#EFA91B" d="M348.875,306.955l3.5-10.08l-9.875-5.75c0,0-2.755,8.94-2.333,10.25
	C340.167,301.375,342.25,304.785,348.875,306.955z"/>
</svg>
