<?xml version="1.0" encoding="utf-8"?>
<!-- Generator: Adobe Illustrator 16.0.0, SVG Export Plug-In . SVG Version: 6.00 Build 0)  -->
<!DOCTYPE svg PUBLIC "-//W3C//DTD SVG 1.1//EN" "http://www.w3.org/Graphics/SVG/1.1/DTD/svg11.dtd">
<svg version="1.1" id="Layer_1" xmlns="http://www.w3.org/2000/svg" xmlns:xlink="http://www.w3.org/1999/xlink" x="0px" y="0px"
	 width="512px" height="512px" viewBox="0 0 512 512" enable-background="new 0 0 512 512" xml:space="preserve">
<g>
	<path fill="#60E672" d="M513,257.549c0,83.813-0.026,167.626,0.094,251.438c0.005,3.394-0.629,4.11-4.079,4.108
		c-167.959-0.109-335.917-0.115-503.876,0.022c-3.917,0.004-4.21-1.184-4.208-4.479C1.01,340.848,1.014,173.055,0.906,5.263
		C0.904,1.693,1.593,0.897,5.236,0.9C173.028,1.014,340.82,1.018,508.612,0.89c3.999-0.004,4.474,1.178,4.47,4.72
		C512.977,89.59,513,173.569,513,257.549z M355.182,232.107l-0.079,0.073c2.239-1.782,4.329-3.708,5.927-6.112
		c7.363-7.868,12.397-17.056,16.208-27.116c2.474-6.532,3.084-13.535,5.807-19.948c0.663,0.028,1.33,0.121,1.988,0.075
		c5.229-0.362,12.39,2.354,15.192-1.078c2.902-3.552,0.894-10.471,0.6-15.919c-0.119-5.46-0.792-10.848-2.076-16.158
		c-1.467-7.247-3.017-14.468-6.737-20.991c-8.399-21.744-23.149-37.988-43.088-49.737c-3.418-2.184-6.906-4.22-10.867-5.285
		l0.03,0.044c-1.486-0.694-2.937-1.482-4.464-2.069c-18.868-7.26-38.343-7.135-57.958-4.486c-7.342,0.99-14.782,1.732-21.746,4.601
		c-0.659,0.063-1.318,0.127-1.978,0.19c-12.955,3.437-25.486,7.951-37.156,14.647l0.126-0.112c-0.947,0.473-1.895,0.944-2.842,1.416
		c-13.631,6.809-25.728,15.816-37.034,25.938c-7.37,6.598-7.337,6.638-13.995-0.288c-1.146-1.192-2.648-2.066-3.728-3.191
		c-4.18-4.354-10.211-7.807-8.989-15.306c0.915-5.614-0.622-10.255-5.09-13.796c-4.717-3.738-10.09-2.697-14.822-0.757
		c-6.321,2.592-8.931,11.01-6.463,17.995c2.355,6.666,9.057,10.741,15.79,8.933c3.51-0.943,6.051-0.051,7.806,2.518
		c3.786,5.54,8.766,9.947,13.374,14.688c2.229,2.293,1.847,3.557-0.111,5.67c-6.569,7.088-12.386,14.801-17.52,22.982
		c-6.964,11.098-13.084,22.546-17.797,34.914c-3.844,10.087-7.5,20.085-9.41,30.701c-2.473,6.701-3.17,13.739-3.93,20.765
		c-0.335,2.716-0.671,5.433-1.006,8.148c-0.057,0.495-0.163,0.991-0.164,1.486c-0.126,70.444-0.228,140.89-0.424,211.334
		c-0.007,2.717,0.902,3.261,3.383,3.296c12.498,0.178,24.988-0.047,37.291-2.342c5.373-1.003,11.21-0.788,15.872-4.47
		c8.747-0.565,16.737-4.066,24.694-7.121c20.358-7.816,38.281-19.771,54.613-34.162c6.206-5.469,6.166-5.347,11.816,0.851
		c1.723,1.89,1.723,2.698-0.57,3.938c-5.304,2.861-8.931,7.552-12.561,12.192c-4.827,6.894-5.629,14.724-5.479,22.831
		c0.047,2.508,1.437,2.519,3.242,2.517c20.662-0.023,41.324-0.031,61.986,0.004c1.953,0.003,3.003-0.31,2.971-2.708
		c-0.114-8.615-1.185-16.902-6.703-23.981c-1.576-3.306-5.399-4.496-7.172-7.618c-5.357-4.815-12.019-6.315-18.843-7.396
		c-3.62-3.87-7.067-7.924-10.921-11.548c-2.675-2.518-2.904-4.059-0.313-7.063c15.271-17.704,27.748-37.136,35.184-59.508
		c4.965-10.68,7.934-21.944,9.828-33.524c0.009-0.403,0.018-0.808,0.026-1.211c0.925-1.072,0.994-2.39,1.209-3.717
		c2.066-12.813,3.329-25.691,2.924-38.68c-0.094-2.985,0.641-4.429,3.84-4.946c4.017-0.65,8.177-1.159,11.748-3.464
		c10.643-2.801,19.542-8.601,27.516-15.992C354.484,232.735,354.833,232.422,355.182,232.107z"/>
	<path fill="#212222" d="M243.093,429.056c3.63-4.642,7.257-9.331,12.561-12.192c2.293-1.238,2.293-2.048,0.57-3.938
		c-5.65-6.195-5.61-6.318-11.816-0.851c-16.332,14.392-34.255,26.346-54.613,34.162c-7.957,3.055-15.947,6.556-24.692,7.118
		c-15.793,3.34-31.678,5.882-47.899,5.65c-7.167-0.103-7.182-0.028-7.183-7.146c-0.002-66.993,0.006-133.986-0.015-200.979
		c-0.001-2.294,0.515-4.691-0.863-6.826c0.335-2.716,0.67-5.433,1.006-8.148c3.224-6.559,3.781-13.623,3.93-20.765
		c1.911-10.616,5.566-20.614,9.41-30.701c4.712-12.368,10.833-23.816,17.797-34.914c5.133-8.182,10.95-15.895,17.52-22.982
		c1.958-2.113,2.34-3.377,0.111-5.67c-4.608-4.74-9.587-9.147-13.374-14.688c-1.755-2.568-4.296-3.461-7.806-2.518
		c-6.733,1.809-13.435-2.267-15.79-8.933c-2.468-6.985,0.142-15.403,6.463-17.995c4.732-1.94,10.105-2.981,14.822,0.757
		c4.468,3.541,6.005,8.182,5.09,13.796c-1.222,7.499,4.809,10.951,8.989,15.306c1.08,1.125,2.583,1.999,3.728,3.191
		c6.658,6.926,6.625,6.886,13.995,0.288c11.306-10.121,23.402-19.129,37.034-25.938c1.686,1.011,2.276-0.179,2.842-1.416
		c0,0-0.126,0.112-0.126,0.113c1.29-0.238,2.737-0.179,3.844-0.764c9.906-5.23,20.449-8.791,31.106-12.063
		c1.031-0.316,1.783-0.834,2.205-1.821c0.659-0.063,1.318-0.127,1.974-0.189c2.493-0.001,4.937-0.264,7.41-0.754
		c23.225-4.602,46.433-6.844,69.511,0.924c2.351,0.792,4.831,1.198,7.251,1.784l-0.03-0.044c2.973,3.099,6.447,5.162,10.867,5.285
		c19.938,11.749,34.688,27.993,43.087,49.734c1.394,5.293,2.705,10.611,4.224,15.87c0.521,1.811,0.223,4.142,2.516,5.124
		c1.284,5.311,1.957,10.698,2.076,16.158c-1.609,3.472-0.837,7.16-0.771,10.729c0.071,3.8-1.247,5.213-5.151,5.272
		c-3.938,0.061-8.068-1.299-11.856,0.92c-2.723,6.413-3.333,13.416-5.807,19.948c-3.811,10.061-8.845,19.248-16.208,27.116
		c-3.377,0.679-5.09,2.97-5.927,6.112l0.079-0.073c-0.579,0.059-1.27-0.008-1.046,0.941c-7.974,7.392-16.873,13.191-27.513,15.991
		c-3.918-0.334-7.452,1.527-11.235,1.97c-4.07,0.477-5.501,2.791-5.483,6.813c0.04,10.285-0.863,20.529-1.981,30.75
		c-0.411,3.752-1.941,7.402-1.021,11.272c-0.01,0.404-0.019,0.808-0.026,1.211c-2.31,1.505-2.028,4.115-2.411,6.285
		c-1.638,9.317-6.23,17.813-7.417,27.24c-7.435,22.372-19.911,41.803-35.184,59.508c-2.593,3.006-2.361,4.547,0.313,7.063
		c3.853,3.623,7.302,7.678,10.921,11.547c5.896,3.441,12.799,4.325,18.842,7.396c1.772,3.122,5.597,4.313,7.172,7.618
		c1.723,6.502,5.436,12.386,5.05,19.581c-0.229,4.266-1.349,5.809-5.754,5.76c-17.933-0.197-35.871-0.2-53.804,0.002
		c-4.427,0.051-5.737-1.478-5.683-5.775C238.998,440.84,241.708,435.126,243.093,429.056z M212.908,414.961
		c2.03-0.954,4.086-1.878,4.971-4.188c1.001-0.854,1.962-1.762,3.01-2.556c23.367-17.695,41.515-39.683,54.261-66.087
		c7.83-16.223,13.519-33.149,16.056-51.03c1.096-7.727,1.825-15.504,2.721-23.257c0.147,1.755,0.296,3.511,0.563,6.716
		c0.316-1.947,0.464-2.43,0.464-2.91c0.015-62.436,0-124.869,0.065-187.303c0.004-3.808-1.387-5.385-5.261-5.415
		c-12.261-0.099-24.128,2.659-35.905,5.375c-3.99,0.92-8.866,1.714-11.827,5.597c-5.294,2.886-11.19,4.157-16.599,7.075
		c-18.537,10.001-35.482,21.904-49.896,37.322c-2.249,2.404-5.095,4.335-6.995,6.968c-9.664,13.393-18.774,27.154-26.533,41.766
		c-5.412,9.391-9.125,19.399-10.936,30.098l0.039-0.18c-2.701,5.637-3.053,11.83-4.173,17.834c-0.566,3.035-1.927,6.12-0.048,9.189
		c-0.343,4.365-0.687,8.729-1.03,13.095c-2.323,2.479-1.819,5.586-1.82,8.542c-0.02,57.925-0.019,115.851,0.011,173.775
		c0.001,1.531-0.472,3.164,0.875,5.383c0-2.571,0-4.378,0-6.184c0-56.594-0.005-113.188,0.019-169.781
		c0.001-2.294-0.472-4.686,0.877-6.822c0.023,58.985,0.045,117.972,0.079,176.958c0.001,2.328,0.124,4.657,0.189,6.987
		c2.974,1.796,6.168,2.195,9.548,1.57c5.052-0.934,10.076-2.18,15.172-2.676c12.049-1.172,22.976-6.287,34.258-9.913
		c5.593-1.797,10.904-5.369,16.493-7.844c1.715-0.761,3.054-2.008,3.434-3.994l0.216-0.064c3.206-0.21,5.557-2.04,7.784-4.104
		L212.908,414.961z M292.943,441.317c-4.086-8.543-9.539-15.321-20.067-15.548c-10.862-0.471-19.815,6.158-21.839,16.168
		c0.839,2.234,2.786,2.011,4.582,2.014c10.896,0.015,21.792-0.002,32.689,0.005C290.371,443.958,292.354,443.879,292.943,441.317z
		 M306.079,160.855c0.756,2.327,2.729,2.09,4.531,2.091c22.571,0.015,45.144,0.014,67.716,0.005
		c1.813-0.001,3.754,0.208,4.642-1.991c0.513-5.526-0.804-10.787-2.265-16.042c-5.01-18.013-13.913-33.604-28.527-45.566
		c-12.907-10.565-27.392-17.518-44.299-18.646c-0.688-0.029-1.375-0.06-2.063-0.09c-2.424,0.167-1.76,2.078-1.762,3.396
		c-0.043,24.129-0.031,48.259-0.029,72.389c0,1.85-0.113,3.757,2.158,4.524C306.183,160.925,306.08,160.855,306.079,160.855z
		 M322.07,173.288c-3.381,0.578-6.764,0.588-10.144-0.005c-1.673-1.75-3.305-1.725-4.893,0.115
		c-0.404,0.188-0.809,0.375-1.211,0.563c-2.048,1.06-1.798,2.996-1.798,4.808c-0.01,17.143-0.012,34.284,0,51.427
		c0.002,1.804-0.285,3.748,1.736,4.845c0.985,0.03,2.002,0.232,2.953,0.065c25.021-4.388,42.075-18.589,51.615-42.01
		c2.877-6.127,4.352-12.595,4.701-19.336c-1.878-2.559-3.996-2.001-6.189-0.479c-1.638,0.534-3.274,0.548-4.915,0.007
		c-1.619-1.729-3.239-1.728-4.857,0c-0.714,0-1.429,0-2.143,0c-2.359-2.02-4.722-1.597-7.085-0.007
		c-1.894,0.533-3.787,0.534-5.682,0C330.131,171.537,326.101,171.443,322.07,173.288z"/>
	<path fill="#0E0D0D" d="M109.144,244.054c1.378,2.135,0.862,4.532,0.863,6.826c0.021,66.993,0.013,133.986,0.015,200.979
		c0,7.118,0.016,7.045,7.183,7.146c16.222,0.23,32.106-2.312,47.899-5.649c-4.664,3.684-10.501,3.469-15.874,4.472
		c-12.303,2.295-24.793,2.52-37.291,2.342c-2.481-0.035-3.391-0.579-3.383-3.296c0.196-70.444,0.298-140.89,0.424-211.334
		C108.981,245.045,109.087,244.549,109.144,244.054z"/>
	<path fill="#0E0D0D" d="M243.093,429.056c-1.385,6.07-4.096,11.784-4.176,18.229c-0.054,4.299,1.256,5.827,5.683,5.775
		c17.933-0.201,35.873-0.198,53.804-0.002c4.406,0.05,5.523-1.493,5.754-5.76c0.386-7.195-3.327-13.079-5.049-19.581
		c5.52,7.079,6.588,15.366,6.703,23.981c0.033,2.398-1.018,2.711-2.971,2.708c-20.662-0.035-41.324-0.027-61.986-0.004
		c-1.805,0.002-3.195-0.009-3.242-2.517C237.464,443.778,238.266,435.948,243.093,429.056z"/>
	<path fill="#0E0D0D" d="M338.085,69.954c-2.42-0.586-4.9-0.992-7.251-1.784c-23.078-7.768-46.286-5.525-69.511-0.924
		c-2.476,0.49-4.917,0.753-7.41,0.754c6.968-2.869,14.407-3.611,21.75-4.602c19.616-2.648,39.09-2.773,57.958,4.486
		C335.148,68.472,336.599,69.26,338.085,69.954z"/>
	<path fill="#0E0D0D" d="M306.899,299.848c-0.919-3.871,0.61-7.521,1.021-11.272c1.118-10.222,2.021-20.466,1.981-30.75
		c-0.018-4.023,1.413-6.338,5.483-6.814c3.783-0.442,7.317-2.304,11.235-1.97c-3.574,2.306-7.734,2.814-11.751,3.465
		c-3.199,0.518-3.935,1.961-3.84,4.946c0.404,12.987-0.856,25.866-2.925,38.68C307.895,297.458,307.824,298.775,306.899,299.848z"/>
	<path fill="#0E0D0D" d="M251.939,68.189c-0.422,0.987-1.174,1.505-2.205,1.821c-10.657,3.272-21.2,6.833-31.106,12.063
		c-1.107,0.585-2.554,0.525-3.844,0.764C226.454,76.141,238.984,71.626,251.939,68.189z"/>
	<path fill="#0E0D0D" d="M297.045,334.583c1.186-9.426,5.779-17.923,7.417-27.24c0.382-2.17,0.103-4.78,2.411-6.284
		C304.979,312.639,302.01,323.902,297.045,334.583z"/>
	<path fill="#0E0D0D" d="M114.079,215.141c-0.149,7.142-0.706,14.206-3.93,20.765C110.909,228.88,111.606,221.842,114.079,215.141z"
		/>
	<path fill="#0E0D0D" d="M398.747,145.924c-2.293-0.982-1.993-3.313-2.516-5.124c-1.519-5.259-2.83-10.577-4.224-15.87
		C395.73,131.456,397.28,138.677,398.747,145.924z"/>
	<path fill="#0E0D0D" d="M383.043,179.004c3.788-2.219,7.918-0.859,11.856-0.92c3.904-0.06,5.224-1.473,5.151-5.272
		c-0.064-3.569-0.838-7.258,0.771-10.729c0.294,5.448,2.304,12.367-0.6,15.919c-2.804,3.433-9.963,0.716-15.192,1.078
		C384.373,179.125,383.706,179.032,383.043,179.004z"/>
	<path fill="#0E0D0D" d="M291.938,420.099c-6.043-3.07-12.945-3.955-18.842-7.396C279.92,413.782,286.58,415.282,291.938,420.099z"
		/>
	<path fill="#0E0D0D" d="M348.922,75.195c-4.42-0.123-7.896-2.187-10.867-5.285C342.016,70.976,345.504,73.012,348.922,75.195z"/>
	<path fill="#0E0D0D" d="M355.103,232.181c0.837-3.143,2.55-5.434,5.927-6.112C359.432,228.473,357.342,230.398,355.103,232.181z"/>
	<path fill="#0E0D0D" d="M214.91,82.725c-0.566,1.237-1.156,2.427-2.842,1.416C213.016,83.669,213.963,83.197,214.91,82.725z"/>
	<path fill="#0E0D0D" d="M354.136,233.049c-0.224-0.949,0.467-0.883,1.046-0.941C354.833,232.422,354.484,232.735,354.136,233.049z"
		/>
	<path fill="#40C453" d="M293.927,267.842c-0.896,7.754-1.625,15.531-2.721,23.258c-2.537,17.881-8.226,34.809-16.056,51.03
		c-12.746,26.404-30.895,48.392-54.261,66.087c-1.048,0.794-2.009,1.7-3.009,2.553c-1.828,1.193-4.177,1.771-4.972,4.191
		l0.083-0.059c-3.242,0.142-5.244,2.634-7.784,4.104c0,0-0.216,0.064-0.216,0.063c-4.843,2.493-9.6,5.173-14.546,7.44
		c-14.169,6.5-28.8,11.545-44.401,13.307c0.004-6.808,0.008-13.612,0.01-20.419c0.327-0.073,0.635-0.196,0.921-0.37
		c3.884-0.843,7.813-1.517,11.646-2.551c66.151-17.841,112.96-79.541,115.505-150.432c0.132-3.684-0.87-5.414-4.663-4.77
		c-3.162,0.537-8.288-2.305-7.695,4.755c0.246,2.921-0.537,5.928-0.853,8.895c-2.968,0.136-3.687,2.608-4.595,4.671
		c-4.187,9.504-9.906,18.104-15.935,26.456c-16.57,22.959-38.602,39.192-64.275,50.542c-5.685,2.514-11.654,4.963-18.097,5.322
		c-0.129-1.98-0.369-3.96-0.371-5.939c-0.024-28.265-0.017-56.526-0.017-84.789c0-9.34,0-9.336-9.512-9.815
		c-0.66-0.033-1.313-0.192-1.97-0.295c-1.056-18.041,3.08-35.38,8-52.432c6.782-23.503,17.344-45.445,33.192-64.158
		c19.955-23.561,44.014-41.947,73.521-52.296c10.647-3.735,21.266-7.814,32.781-8.149c0.09,2.157,0.254,4.313,0.256,6.471
		C293.914,149.623,293.919,208.732,293.927,267.842z M258.17,162.496c0.031-8.098-5.375-13.758-13.132-13.75
		c-7.658,0.008-13.212,5.837-13.148,13.799c0.062,7.631,5.618,13.444,12.964,13.564C252.478,176.233,258.139,170.445,258.17,162.496
		z"/>
	<path fill="#60E672" d="M146.055,419.398c-0.003,6.807-0.007,13.611-0.012,20.419c-6.572,1.47-13.216,2.25-19.957,2.109
		c-0.065-2.33-0.188-4.659-0.189-6.987c-0.034-58.986-0.056-117.973-0.079-176.957c0.013-1.637,0.025-3.275,0.038-4.914
		c0.343-4.365,0.687-8.729,1.03-13.095c1.407-9.008,2.814-18.016,4.221-27.023l-0.039,0.18c3.646-10.032,7.291-20.065,10.936-30.098
		c7.759-14.611,16.87-28.373,26.533-41.766c1.9-2.633,4.747-4.563,6.995-6.968c14.415-15.418,31.36-27.321,49.896-37.322
		c5.409-2.918,11.305-4.189,16.599-7.075c1.409-0.466,2.819-0.929,4.227-1.399c14.025-4.696,28.421-7.486,43.182-8.419
		c2.879-0.182,5.131,0.165,4.201,3.959c-11.517,0.335-22.134,4.414-32.781,8.149c-29.505,10.349-53.565,28.735-73.521,52.296
		c-15.848,18.713-26.41,40.655-33.192,64.158c-4.92,17.052-9.056,34.391-8.001,52.433l-0.067,0.071
		c-1.677,1.84-1.065,4.111-1.067,6.209c-0.033,48.609-0.03,97.22-0.009,145.828c0,1.805-0.367,3.676,0.593,5.385
		C145.796,418.819,145.951,419.095,146.055,419.398z"/>
	<path fill="#F4AE55" d="M305.814,80.616c0.688,0.03,1.375,0.061,2.063,0.091c8.892,6.686,18.253,12.761,25.676,21.268
		c14.73,16.881,23.089,36.349,24.484,58.753c-17.32,0.043-34.64,0.085-51.959,0.128c0,0,0.103,0.069,0.102,0.069
		c-0.124-1.65-0.354-3.301-0.355-4.95C305.805,130.854,305.813,105.735,305.814,80.616z"/>
	<path fill="#F4AE55" d="M360.332,193.096c-9.54,23.421-26.595,37.622-51.615,42.01c-0.951,0.167-1.968-0.035-2.953-0.065
		c0.021-20.359,0.041-40.72,0.062-61.079c0.403-0.188,0.807-0.375,1.211-0.563c0.31,0.174,0.619,0.348,0.929,0.521
		c0.818,0.553,1.564,1.311,2.466,1.63C327.053,181.43,343.694,187.257,360.332,193.096z"/>
	<path fill="#EB8F40" d="M358.039,160.728c-1.396-22.404-9.754-41.872-24.484-58.753c-7.423-8.507-16.783-14.582-25.676-21.268
		c16.905,1.127,31.39,8.079,44.297,18.645c14.614,11.963,23.519,27.554,28.527,45.566c1.461,5.255,2.775,10.516,2.265,16.042
		C374.658,160.883,366.349,160.805,358.039,160.728z"/>
	<path fill="#EB8F40" d="M360.332,193.096c-16.638-5.839-33.279-11.666-49.902-17.546c-0.9-0.319-1.646-1.077-2.466-1.63
		c1.321-0.212,2.644-0.424,3.964-0.637c3.38,0.593,6.763,0.583,10.144,0.005c4.03,0.419,8.062,0.444,12.092-0.007
		c1.895,0.534,3.788,0.533,5.682,0c2.361,0.43,4.724,0.406,7.085,0.007c0.714,0,1.429,0,2.143,0c1.619,0,3.238,0,4.857,0
		c1.641,0.541,3.277,0.527,4.915-0.007c2.063,0.159,4.126,0.318,6.189,0.479C364.684,180.501,363.209,186.969,360.332,193.096z"/>
	<path fill="#F4AE55" d="M251.037,441.938c2.023-10.01,10.977-16.639,21.84-16.168c4.001,5.11,9.624,9.091,11.124,15.945
		C273.014,441.79,262.023,441.864,251.037,441.938z"/>
	<path fill="#0E0D0D" d="M293.639,84.043c0.93-3.794-1.324-4.141-4.201-3.959c-14.762,0.933-29.156,3.723-43.183,8.419
		c-1.407,0.471-2.818,0.934-4.227,1.399c2.96-3.883,7.837-4.677,11.827-5.597c11.777-2.716,23.645-5.474,35.905-5.375
		c3.874,0.03,5.264,1.607,5.26,5.415c-0.064,62.434-0.051,124.867-0.064,187.302c0,0.481-0.146,0.963-0.464,2.91
		c-0.269-3.203-0.416-4.959-0.563-6.715c-0.008-59.11-0.013-118.22-0.033-177.329C293.893,88.356,293.727,86.2,293.639,84.043z"/>
	<path fill="#0E0D0D" d="M125.855,253.069c-0.013,1.638-0.025,3.276-0.038,4.914c-1.349,2.137-0.876,4.527-0.877,6.822
		c-0.023,56.594-0.019,113.188-0.019,169.78c0,1.806,0,3.611,0,6.184c-1.347-2.219-0.874-3.852-0.875-5.383
		c-0.03-57.926-0.031-115.852-0.011-173.776C124.037,258.656,123.533,255.549,125.855,253.069z"/>
	<path fill="#0E0D0D" d="M305.814,80.616c-0.002,25.119-0.01,50.238,0.011,75.358c0.002,1.649,0.231,3.3,0.355,4.95
		c-2.271-0.768-2.157-2.675-2.157-4.524c-0.002-24.13-0.014-48.26,0.029-72.389C304.057,82.694,303.393,80.783,305.814,80.616z"/>
	<path fill="#0E0D0D" d="M358.039,160.728c8.31,0.077,16.619,0.155,24.929,0.232c-0.888,2.199-2.829,1.99-4.642,1.991
		c-22.572,0.009-45.145,0.01-67.716-0.005c-1.803-0.001-3.775,0.236-4.531-2.091C323.399,160.813,340.719,160.771,358.039,160.728z"
		/>
	<path fill="#0E0D0D" d="M126.085,441.928c6.741,0.141,13.385-0.641,19.957-2.109c15.603-1.762,30.233-6.807,44.402-13.307
		c4.946-2.269,9.703-4.947,14.546-7.44c-0.38,1.987-1.719,3.234-3.434,3.995c-5.589,2.475-10.9,6.047-16.493,7.844
		c-11.282,3.626-22.209,8.741-34.258,9.913c-5.096,0.496-10.12,1.742-15.172,2.676C132.253,444.123,129.059,443.724,126.085,441.928
		z"/>
	<path fill="#EB8F40" d="M284.001,441.716c-1.5-6.854-7.123-10.835-11.124-15.944c10.528,0.226,15.98,7.004,20.066,15.548
		C290.004,442.402,286.995,441.901,284.001,441.716z"/>
	<path fill="#0E0D0D" d="M305.824,173.961c-0.021,20.359-0.04,40.72-0.061,61.079c-2.022-1.097-1.736-3.041-1.736-4.845
		c-0.014-17.143-0.012-34.284-0.002-51.427C304.027,176.957,303.775,175.021,305.824,173.961z"/>
	<path fill="#0E0D0D" d="M284.001,441.716c2.994,0.187,6.003,0.688,8.942-0.396c-0.59,2.561-2.572,2.64-4.637,2.638
		c-10.896-0.007-21.793,0.01-32.688-0.005c-1.796-0.003-3.743,0.222-4.582-2.013C262.023,441.864,273.014,441.79,284.001,441.716z"
		/>
	<path fill="#0E0D0D" d="M142.004,183.033c-3.646,10.032-7.291,20.065-10.936,30.098
		C132.879,202.433,136.592,192.424,142.004,183.033z"/>
	<path fill="#0E0D0D" d="M131.106,212.951c-1.407,9.008-2.814,18.016-4.221,27.023c-1.879-3.069-0.519-6.154,0.048-9.189
		C128.053,224.781,128.406,218.588,131.106,212.951z"/>
	<path fill="#0E0D0D" d="M334.162,173.281c-4.03,0.451-8.062,0.426-12.092,0.007C326.101,171.443,330.131,171.537,334.162,173.281z"
		/>
	<path fill="#0E0D0D" d="M346.929,173.288c-2.361,0.399-4.724,0.423-7.085-0.007C342.207,171.691,344.568,171.269,346.929,173.288z"
		/>
	<path fill="#0E0D0D" d="M365.033,173.76c-2.063-0.16-4.126-0.319-6.189-0.479C361.037,171.759,363.155,171.201,365.033,173.76z"/>
	<path fill="#0E0D0D" d="M205.207,419.007c2.541-1.471,4.542-3.963,7.784-4.104C210.763,416.967,208.412,418.797,205.207,419.007z"
		/>
	<path fill="#0E0D0D" d="M311.928,173.283c-1.32,0.213-2.643,0.425-3.964,0.637c-0.31-0.174-0.619-0.348-0.929-0.521
		C308.623,171.559,310.255,171.533,311.928,173.283z"/>
	<path fill="#0E0D0D" d="M353.929,173.288c-1.619,0-3.238,0-4.857,0C350.689,171.561,352.31,171.56,353.929,173.288z"/>
	<path fill="#0E0D0D" d="M212.908,414.961c0.795-2.42,3.144-2.998,4.972-4.191C216.994,413.083,214.938,414.007,212.908,414.961z"/>
	<path fill="#212222" d="M260.915,274.927c0.315-2.967,1.099-5.974,0.853-8.895c-0.593-7.06,4.533-4.218,7.695-4.755
		c3.793-0.646,4.795,1.086,4.663,4.77c-2.545,70.891-49.354,132.591-115.505,150.433c-3.833,1.033-7.761,1.708-11.645,2.55
		c0.013-49.993,0.05-99.986-0.01-149.979c-0.005-3.854,0.376-6.506,5.298-6.133c4.516,0.342,3.735,3.448,3.737,6.146
		c0.026,42.328,0.012,84.656,0.007,126.984c0,1.645,0,3.288,0,4.933c0.892-4.521,0.764-9.003,0.919-13.478
		c0.283-8.131-0.825-16.297,0.626-24.396c0.081,2.143,0.227,4.283,0.232,6.427c0.025,10.083,0.019,20.167,0.009,30.251
		c-0.003,2.827,0.055,4.422,4.089,3.256c4.746-1.372,8.402-4.879,13.241-5.759c2.19,1.149,3.559,0.031,4.704-1.704l-0.098,0.128
		c0.949,0.062,1.586-0.45,2.12-1.151l-0.119,0.156c0.946,0.059,1.584-0.454,2.126-1.146l-0.195-0.137
		c1.259,0.322,2.48,0.582,2.312-1.42c9.463-5.635,18.271-12.188,26.801-19.129c1.933-0.117,2.953-1.166,3.138-3.07
		c1.291-1.295,2.582-2.593,3.872-3.89c1.288-0.14,1.911-0.938,2.121-2.144c11.382-13.01,20.61-27.418,27.969-43.039
		c4.306-6.213,7.02-12.98,7.193-20.633C258.779,291.775,260.656,283.475,260.915,274.927z"/>
	<path fill="#60E672" d="M260.915,274.927c-0.259,8.548-2.136,16.849-3.845,25.175c-2.397,6.877-4.796,13.756-7.194,20.633
		c-7.359,15.623-16.587,30.031-27.969,43.039c-0.707,0.715-1.415,1.43-2.122,2.145c-1.291,1.297-2.581,2.594-3.872,3.891
		c-1.046,1.022-2.092,2.047-3.138,3.069c-8.53,6.942-17.338,13.494-26.801,19.129c-0.771,0.474-1.542,0.946-2.312,1.421
		c0,0,0.195,0.137,0.188,0.129c-0.984-0.117-1.714,0.221-2.119,1.152c0,0,0.119-0.156,0.112-0.163
		c-0.98-0.108-1.712,0.226-2.113,1.158c0,0,0.098-0.128,0.093-0.132c-1.81-0.092-3.141,1.12-4.7,1.708
		c-4.839,0.88-8.495,4.387-13.241,5.759c-4.034,1.166-4.092-0.429-4.089-3.256c0.01-10.084,0.017-20.168-0.009-30.251
		c-0.005-2.144-0.151-4.284-0.233-6.427c0.153-0.396,0.307-0.791,0.46-1.188c6.443-0.359,12.413-2.811,18.097-5.322
		c25.673-11.35,47.706-27.582,64.275-50.541c6.028-8.354,11.748-16.953,15.935-26.457
		C257.229,277.535,257.947,275.063,260.915,274.927z"/>
	<path fill="#212222" d="M258.17,162.496c-0.031,7.949-5.692,13.737-13.316,13.613c-7.346-0.12-12.902-5.934-12.964-13.564
		c-0.064-7.962,5.49-13.791,13.148-13.799C252.795,148.738,258.201,154.398,258.17,162.496z"/>
	<path fill="#0E0D0D" d="M158.013,361.918c-0.153,0.396-0.307,0.79-0.46,1.188c-1.451,8.1-0.343,16.266-0.626,24.396
		c-0.156,4.474-0.028,8.957-0.919,13.477c0-1.644,0-3.287,0-4.932c0.005-42.328,0.019-84.655-0.007-126.983
		c-0.001-2.697,0.779-5.805-3.737-6.146c-4.922-0.373-5.303,2.277-5.298,6.133c0.06,49.993,0.023,99.986,0.01,149.979
		c-0.287,0.174-0.595,0.297-0.922,0.37c-0.103-0.305-0.257-0.579-0.459-0.816c0.088-1.816,0.248-3.641,0.25-5.465
		c0.016-26.163-0.018-52.326,0.019-78.489c0.035-24.492,0.139-48.983,0.212-73.478l0.067-0.071c0.657,0.101,1.311,0.261,1.971,0.294
		c9.512,0.48,9.513,0.477,9.512,9.814c0,28.264-0.007,56.525,0.017,84.789C157.644,357.958,157.884,359.938,158.013,361.918z"/>
	<path fill="#40C453" d="M146.075,261.15c-0.073,24.492-0.178,48.984-0.212,73.478c-0.037,26.163-0.003,52.326-0.019,78.489
		c-0.001,1.824-0.161,3.647-0.25,5.465c-0.962-1.719-0.595-3.59-0.595-5.395c-0.021-48.608-0.024-97.219,0.009-145.828
		C145.01,265.264,144.398,262.99,146.075,261.15z"/>
	<path fill="#0E0D0D" d="M249.876,320.734c2.398-6.879,4.796-13.758,7.194-20.635C256.896,307.754,254.183,314.521,249.876,320.734z
		"/>
	<path fill="#0E0D0D" d="M175.125,397.279c1.559-0.588,2.89-1.801,4.7-1.709C178.684,397.311,177.316,398.43,175.125,397.279z"/>
	<path fill="#0E0D0D" d="M212.776,372.877c1.046-1.023,2.092-2.047,3.138-3.07C215.729,371.711,214.709,372.76,212.776,372.877z"/>
	<path fill="#0E0D0D" d="M183.664,393.426c0.771-0.474,1.542-0.945,2.312-1.42C186.144,394.008,184.922,393.748,183.664,393.426z"/>
	<path fill="#0E0D0D" d="M219.786,365.917c0.707-0.715,1.415-1.431,2.122-2.146C221.697,364.979,221.074,365.777,219.786,365.917z"
		/>
	<path fill="#0E0D0D" d="M181.733,394.708c0.404-0.933,1.134-1.271,2.119-1.151C183.317,394.254,182.679,394.766,181.733,394.708z"
		/>
	<path fill="#0E0D0D" d="M179.732,395.703c0.401-0.934,1.133-1.268,2.113-1.158C181.318,395.253,180.681,395.766,179.732,395.703z"
		/>
</g>
<path fill="#FFFFFF" stroke="#000000" stroke-width="14" stroke-miterlimit="10" d="M151.804,148.746"/>
<path fill="#966608" stroke="#212222" stroke-width="14" stroke-miterlimit="10" d="M221.908,193.096
	c0,0,123.127,36.826,143.125,11.405s-11.104,130.083-11.104,130.083S334.852,328,331.926,330s-19.069,10.166-19.998,4.583
	C311,329,304.09,315.641,297.045,317.82c-7.045,2.179-38.229-118.656-75.137-119.738S221.908,193.096,221.908,193.096z"/>
<path fill="#724B05" d="M314.667,220c0,0,48.33,27.677,45.665,37.005s5.734-39.057,4.701-41.864S343.001,219,314.667,220z"/>
</svg>
