<?xml version="1.0" encoding="utf-8"?>
<!-- Generator: Adobe Illustrator 21.1.0, SVG Export Plug-In . SVG Version: 6.00 Build 0)  -->
<svg version="1.1" id="Layer_1" xmlns="http://www.w3.org/2000/svg" xmlns:xlink="http://www.w3.org/1999/xlink" x="0px" y="0px"
	 viewBox="0 0 512 512" style="enable-background:new 0 0 512 512;" xml:space="preserve">
<style type="text/css">
	.st0{display:none;fill:#FEFEFE;}
	.st1{fill:#212222;}
	.st2{fill:#505050;}
	.st3{fill:#646464;}
	.st4{fill:#F2AC46;}
	.st5{fill:#E88D2E;}
	.st6{fill:#323232;}
	.st7{opacity:0.33;fill:#646464;stroke:#4B4B4B;stroke-width:2;stroke-miterlimit:10;enable-background:new    ;}
	.st8{fill:#646464;stroke:#4B4B4B;stroke-width:2;stroke-miterlimit:10;}
	.st9{opacity:0.39;fill:#646464;stroke:#4B4B4B;stroke-width:2;stroke-miterlimit:10;enable-background:new    ;}
	.st10{fill:none;stroke:#222222;stroke-width:12;stroke-miterlimit:10;}
	.st11{fill:url(#SVGID_1_);stroke:#222222;stroke-width:12;stroke-miterlimit:10;}
	.st12{fill:url(#SVGID_2_);stroke:#222222;stroke-width:12;stroke-miterlimit:10;}
</style>
<g>
	<path class="st0" d="M257,513c-84,0-168,0-251.9,0.1c-3.3,0-4.2-0.4-4.2-4C1,341.1,1,173.2,0.9,5.2c0-3.7,0.9-4.3,4.4-4.3
		C173.1,1,340.9,1,508.7,0.9c3.4,0,4.4,0.4,4.4,4.3c-0.1,168-0.1,335.9,0,503.9c0,3.5-0.8,4-4.1,4C425,513,341,513,257,513z"/>
	<path class="st1" d="M172.4,114.1c9.3-8.6,19.2-16.4,30-23.2c0.7-0.4,1.4-0.9,2.1-1.3c31.9-18.4,66-28.6,103.2-26.6
		c13.3,0.7,25.4,5,37.4,10.9c23.9,11.6,39.2,30.3,49.2,53.9c6.5,15.4,8.2,31.8,8,48.4c-0.1,3-1.2,4.2-4.2,4.1
		c-3.8-0.2-7.7,0.1-11.5-0.1c-2.4-0.1-3.4,0.6-3.9,3.2c-1.7,8.5-4,16.8-7.8,24.7c-8.7,18.1-22.1,31.6-40.4,39.6
		c-5.4,2.4-11,5.3-17.3,5.7c-3.7,0.2-5.2,2.6-5.2,6.5c-0.1,50.3-15.1,95.3-47.8,133.8c-3.3,3.9-3.5,6.7,0.5,9.8
		c1,0.8,1.9,1.9,2.7,2.9c3.8,4.6,8.2,7.2,14.2,8.9c16.3,4.5,26,19.6,25.4,37.3c-0.1,2.9-1.9,2.6-3.7,2.6c-10.2,0-20.3,0-30.5,0
		c-10,0-20-0.2-30,0.1c-3.5,0.1-4.4-1.4-4.4-4.3c0-13.7,4.8-25,16.8-32.5c1.6-1,4.4-1.8,2-4.3c-2.1-2.1-3.4-6.5-7.8-4.2
		c-1.7,0.9-3.2,2.4-4.7,3.7c-18.5,16.4-39.4,28.9-62.8,37c-21.9,7.5-44.4,11.3-67.6,10.5c-3.8-0.1-5-1.8-5-5.1
		c0.1-8.2,0.3-16.3,0.3-24.5c0-59-0.6-118,0.2-177c0.6-47.3,17.4-88.9,47.8-125.1 M284,442.1c1.9,0.8,3.9,0.6,5.9,0.6
		c3.5,0,4-1.3,2.2-4.2c-4.2-6.9-9.4-12.1-18.2-11.7c-11.5-0.4-19,4.9-21.7,15.3C262.8,442.1,273.4,442.1,284,442.1z M361.3,194.1
		c3.8-4.8,3.8-10.7,4.6-16.4c0.3-2.3-0.9-2.8-2.9-2.8c-17.7,0.1-35.4-0.6-53.1,0.3c-3.3-1.1-2.9,1.2-2.9,3.2
		c0,17.8,0.1,35.7-0.2,53.5c-0.1,4.3,1.8,4.7,5,4C335.9,230.9,352.5,217.1,361.3,194.1z M307.3,82.1c-0.1,7-0.3,14-0.3,20.9
		c0,18.3,0.1,36.6,0.2,54.9c0,1.7-1,4.2,2.5,4.1c16.4-0.3,32.9,0.6,49.4-0.5c5.5,0.1,11,0.3,16.4,0.3c9,0.1,9,0,7.7-8.9
		c-5-36.5-36.3-67.3-72.8-71.6C309.2,81.1,307.9,80.5,307.3,82.1z M294.6,84.8c0.6-5.1-3.3-3.7-5.7-3.5
		c-24.7,2.3-48.4,8.3-70.1,20.8c-36.6,21.1-63,51-78.6,90.3c-9.7,24.6-13.6,50.2-13.4,76.6c0.3,55.3,0.1,110.6,0.1,165.9
		c0,1.5,0.1,3,0,4.5c-0.1,2.4,0.6,3.6,3.4,3.4c6.1-0.5,12.2-0.8,18.1-2.7c4.9,0.7,9.4-0.8,14-2.1c54.1-15.7,93.6-48.4,116.4-100.5
		c8.9-20.4,15.6-41.7,15.9-64c0.6-61.1,0.2-122.2,0.2-183.3C294.8,88.4,294.6,86.6,294.6,84.8z"/>
	<path class="st2" d="M294.6,84.8c0.1,1.8,0.2,3.7,0.2,5.5c0,61.1,0.5,122.2-0.2,183.3c-0.2,22.3-6.9,43.5-15.9,64
		C256,389.7,216.5,422.3,162.4,438c-4.6,1.3-9.1,2.9-14,2.1c-0.2-6.6-0.4-13.1-0.6-19.7c1.4-0.4,2.8-0.9,4.3-1.2
		c70.2-14.6,120.1-79.4,122.9-150.6c0.2-6-0.9-7-6.8-6.8c-3.2,0.1-4.9,1.6-5.3,4.7c-0.4,2.8-0.7,5.6-1,8.4c-3-0.2-3.8,2.2-4.8,4.3
		c-2,4-3.5,8.3-5.8,12.1c-17.6,28.1-40.7,50.3-71.2,64.1c-6.6,3-13.4,5.8-20.8,6.7c-0.1-2-0.4-4-0.4-6c0-28.2,0-56.3,0-84.5
		c0-8.2-0.1-8.2-7.9-9.1c-1-0.1-1.9-0.4-2.9-0.7c-0.5-12.7,1.1-25.3,4-37.6c14.7-63.5,51.5-108,112.8-131.7
		C274.5,89,284.6,87.1,294.6,84.8z M259.1,163.4c0-8.2-5.3-13.6-13.2-13.6c-7.6,0-13,5.5-13.1,13.3c-0.1,7.9,5.5,13.9,13,14
		C253.6,177.2,259.1,171.5,259.1,163.4z"/>
	<path class="st3" d="M147.8,420.5c0.2,6.6,0.4,13.1,0.6,19.7c-5.9,1.9-12,2.1-18.1,2.7c-2.8,0.2-3.5-1-3.4-3.4c0.1-1.5,0-3,0-4.5
		c0-55.3,0.2-110.6-0.1-165.9c-0.1-26.4,3.7-52,13.4-76.6c15.6-39.3,42-69.3,78.6-90.3c21.7-12.5,45.4-18.5,70.1-20.8
		c2.4-0.2,6.3-1.6,5.7,3.5c-10,2.3-20.1,4.2-29.8,7.9C203.5,116.4,166.7,161,152,224.5c-2.9,12.4-4.5,24.9-4,37.6
		c-2,1.5-1.9,3.7-1.9,5.9c0,49.2,0.1,98.5,0.1,147.7C146.2,417.4,145.8,419.4,147.8,420.5z"/>
	<path class="st4" d="M358.9,161.5c-16.4,1.1-32.9,0.2-49.4,0.5c-3.5,0.1-2.5-2.4-2.5-4.1c-0.1-18.3-0.2-36.6-0.2-54.9
		c0-7,0.2-14,0.3-20.9c2,0.9,4,1.6,5.9,2.7c11.3,6.5,20.4,15.4,27.8,25.9C351.8,125.8,358.4,142.6,358.9,161.5z"/>
	<path class="st4" d="M361.3,194.1c-8.9,23-25.5,36.8-49.5,41.8c-3.3,0.7-5.1,0.4-5-4c0.3-17.8,0.2-35.6,0.2-53.5
		c0-2-0.4-4.3,2.9-3.2c0.6,0.5,1.1,1.3,1.9,1.6C328.3,182.6,344.8,188.3,361.3,194.1z"/>
	<path class="st5" d="M358.9,161.5c-0.5-18.9-7.1-35.7-18-50.9c-7.5-10.5-16.6-19.4-27.8-25.9c-1.9-1.1-3.9-1.8-5.9-2.7
		c0.6-1.6,2-0.9,3-0.8c36.5,4.2,67.8,35,72.8,71.6c1.2,9,1.2,9-7.7,8.9C369.9,161.7,364.4,161.6,358.9,161.5z"/>
	<path class="st5" d="M361.3,194.1c-16.5-5.8-33-11.5-49.5-17.3c-0.7-0.2-1.2-1-1.9-1.6c17.7-0.9,35.4-0.3,53.1-0.3
		c2,0,3.2,0.4,2.9,2.8C365.2,183.3,365.1,189.2,361.3,194.1z"/>
	<path class="st4" d="M284,442.1c-10.6,0-21.2,0-31.8,0c2.6-10.3,10.2-15.7,21.7-15.3c1.3,1.5,2.5,3,3.9,4.4
		C280.7,434.5,283.8,437.5,284,442.1z"/>
	<path class="st5" d="M284,442.1c-0.2-4.7-3.3-7.7-6.2-10.8c-1.3-1.5-2.6-3-3.9-4.4c8.8-0.4,14,4.8,18.2,11.7
		c1.8,2.9,1.2,4.3-2.2,4.2C287.9,442.8,285.9,442.9,284,442.1z"/>
	<path class="st1" d="M147.8,420.5c-2-1.1-1.6-3.1-1.6-4.9c0-49.2,0-98.5-0.1-147.7c0-2.2,0-4.4,1.9-5.9c1,0.2,1.9,0.6,2.9,0.7
		c7.9,0.8,7.9,0.8,7.9,9.1c0,28.2,0,56.3,0,84.5c0,2,0.2,4,0.4,6c-0.1,12.6-0.1,25.3-0.3,37.9c-0.1,4.5,2,4.7,5.2,3.3
		c6.5-2.8,13.2-5.4,19.4-8.8c27.8-15.1,48.9-36.6,63.1-65c8.6-17.2,14.2-35.3,15.3-54.6c0.3-2.8,0.7-5.6,1-8.4
		c0.4-3.1,2.1-4.6,5.3-4.7c5.9-0.2,7,0.8,6.8,6.8c-2.8,71.2-52.8,136-122.9,150.6C150.7,419.6,149.2,420.1,147.8,420.5z"/>
	<path class="st3" d="M261.9,275.1c-1.1,19.3-6.7,37.4-15.3,54.6c-14.1,28.4-35.3,49.9-63.1,65c-6.2,3.4-12.9,6-19.4,8.8
		c-3.2,1.4-5.3,1.2-5.2-3.3c0.3-12.6,0.2-25.3,0.3-37.9c7.4-0.8,14.1-3.7,20.8-6.7c30.5-13.8,53.6-36,71.2-64.1
		c2.4-3.8,3.8-8.1,5.8-12.1C258.1,277.3,258.9,274.9,261.9,275.1z"/>
	<path class="st1" d="M259.1,163.4c0,8.1-5.5,13.8-13.2,13.7c-7.5-0.1-13.1-6.1-13-14c0.1-7.8,5.5-13.2,13.1-13.3
		C253.8,149.8,259.1,155.3,259.1,163.4z"/>
</g>
<g id="Helmet">
	<path class="st6" d="M412.3,118.4c0,0-32.2-0.6-58.5,1.2s-60.2,3.3-60.2,3.3l27.9,65.8l51.4-4.2l40.5,4.2L412.3,118.4z"/>
	<path class="st2" d="M116.5,230.3C107,228.1,80.1,96,172,49.5s184.3,35.2,184.4,35.3c0,0,59.1,29.4,56.3,32.6
		c-2.8,3.3-51.4,0.8-55.8,1.1s-63.8,4.2-63.8,4.2l27.4,65.3c0,0,56.8-5.3,66.9-4.4c10.2,0.8,16.1,0.4,23.5,5.1
		c1.8,1.1-12.7,18.9-14.5,19.9s-40,20.4-40,20.4s-6,31.2-9.9,39.3c-3.9,8.2-26.3,22.9-31.4,23.4s-39.6-13.1-42.9-15.8
		c-3.4-2.7-21.7-38.4-31.7-39.8S125.4,232.4,116.5,230.3z"/>
	<g id="Shadows">
		<path id="Bottom" class="st7" d="M289,222c-1.2-1.5,37.6-34.3,37.6-34.3s78.8-6,84.2,1c5.4,7-52,40.3-52,40.3s-5.7-9.7-21-11
			S290.2,223.5,289,222z"/>
		<path id="Left" class="st8" d="M251.1,100.2c1.5-1.6,47.8,22.4,47.8,22.4l27.7,65.1c0,0-36.3,34.3-37.6,34.3s-2.5-40.8-8-60.9
			S249.6,101.8,251.1,100.2z"/>
		<path id="Top" class="st9" d="M297.8,122.1c0,0-47.7-19.1-46.6-21.8s44.3-0.9,65.5-2.6c21.3-1.7,49.3-9,49.3-9l46.7,28.7
			L297.8,122.1z"/>
		<path class="st8" d="M119,230.3c0,0-35.6-99,17.2-149.3s106.2-45.6,106.2-45.6s-69.3,11.3-96.2,70c-23.2,50.6,1.7,127.1,1.7,127.1
			L119,230.3z"/>
	</g>
	<path class="st10" d="M358.9,229c-3.9,4.5-6,31.2-9.9,39.3c-3.9,8.2-26.3,22.9-31.4,23.4s-39.6-13.1-42.9-15.8
		c-3.4-2.7-21.7-38.4-31.7-39.8s-115.1-3.7-124-5.8c-9.5-2.2-36.4-134.3,55.5-180.8s184.3,35.2,184.4,35.3c0,0,59.1,29.4,56.3,32.6
		c-2.8,3.3-51.4,0.8-55.8,1.1s-63.8,4.2-63.8,4.2L323,188c0,0,56.8-5.3,66.9-4.4c10.2,0.8,24.9-2,23.5,5.1S362.8,224.5,358.9,229z"
		/>
	<g>
		
			<radialGradient id="SVGID_1_" cx="621.4155" cy="967.5862" r="47.2477" gradientTransform="matrix(0.7694 -7.246522e-02 8.501092e-02 0.9026 -329.0224 -655.4076)" gradientUnits="userSpaceOnUse">
			<stop  offset="0" style="stop-color:#FFFFFF"/>
			<stop  offset="0" style="stop-color:#000000"/>
			<stop  offset="0.2077" style="stop-color:#030202"/>
			<stop  offset="0.3337" style="stop-color:#0B0A0A"/>
			<stop  offset="0.4377" style="stop-color:#191617"/>
			<stop  offset="0.4864" style="stop-color:#231F20"/>
			<stop  offset="0.5955" style="stop-color:#292627"/>
			<stop  offset="0.7517" style="stop-color:#3B3939"/>
			<stop  offset="0.9354" style="stop-color:#585758"/>
			<stop  offset="1" style="stop-color:#646464"/>
		</radialGradient>
		<path class="st11" d="M267.7,169.5c2.2,23.3-12.3,43.7-32.4,45.6c-20.1,1.9-38.1-15.5-40.3-38.8s12.3-43.7,32.4-45.6
			C247.5,128.8,265.5,146.2,267.7,169.5z"/>
		
			<radialGradient id="SVGID_2_" cx="231.35" cy="172.9431" r="21.356" gradientTransform="matrix(0.9956 -9.376909e-02 0.11 1.1679 -18.0047 -7.3518)" gradientUnits="userSpaceOnUse">
			<stop  offset="0" style="stop-color:#FFFFFF"/>
			<stop  offset="0" style="stop-color:#222222"/>
			<stop  offset="1" style="stop-color:#646464"/>
		</radialGradient>
		<path class="st12" d="M251,171.1c1.2,12.6-6.6,23.6-17.5,24.6c-10.8,1-20.6-8.3-21.8-20.9c-1.2-12.6,6.6-23.6,17.5-24.6
			C240.1,149.1,249.8,158.5,251,171.1z"/>
	</g>
</g>
</svg>
