<?xml version="1.0" encoding="utf-8"?>
<!-- Generator: Adobe Illustrator 16.0.0, SVG Export Plug-In . SVG Version: 6.00 Build 0)  -->
<!DOCTYPE svg PUBLIC "-//W3C//DTD SVG 1.1//EN" "http://www.w3.org/Graphics/SVG/1.1/DTD/svg11.dtd">
<svg version="1.1" id="Layer_1" xmlns="http://www.w3.org/2000/svg" xmlns:xlink="http://www.w3.org/1999/xlink" x="0px" y="0px"
	 width="512px" height="512px" viewBox="0 0 512 512" enable-background="new 0 0 512 512" xml:space="preserve">
<g>
	<path fill="#212222" d="M172.451,114.148c9.294-8.628,19.234-16.428,29.987-23.172c0.703-0.44,1.393-0.906,2.11-1.321
		c31.892-18.46,65.917-28.701,103.104-26.689c13.319,0.72,25.373,5.039,37.438,10.882c23.855,11.552,39.182,30.257,49.22,53.944
		c6.536,15.422,8.25,31.775,7.962,48.409c-0.054,3.023-1.164,4.184-4.161,4.061c-3.826-0.156-7.67,0.096-11.493-0.084
		c-2.448-0.115-3.361,0.62-3.883,3.166c-1.739,8.472-4.009,16.833-7.78,24.669c-8.701,18.07-22.081,31.629-40.445,39.629
		c-5.441,2.37-10.956,5.316-17.271,5.678c-3.651,0.209-5.243,2.605-5.249,6.509c-0.08,50.267-15.105,95.265-47.834,133.841
		c-3.321,3.916-3.497,6.688,0.464,9.834c1.026,0.817,1.854,1.905,2.694,2.933c3.752,4.576,8.213,7.228,14.242,8.88
		c16.346,4.479,26.01,19.563,25.39,37.327c-0.104,2.946-1.863,2.579-3.673,2.58c-10.164,0.004-20.33,0.001-30.494,0.001
		c-9.998,0-20-0.175-29.991,0.097c-3.484,0.094-4.363-1.403-4.355-4.295c0.038-13.717,4.795-24.988,16.832-32.495
		c1.584-0.988,4.375-1.776,1.963-4.255c-2.075-2.132-3.354-6.508-7.768-4.183c-1.729,0.911-3.169,2.409-4.661,3.73
		c-18.53,16.398-39.394,28.908-62.79,36.951c-21.87,7.519-44.377,11.326-67.604,10.532c-3.819-0.131-5.025-1.768-4.98-5.117
		c0.109-8.155,0.333-16.312,0.337-24.468c0.029-58.986-0.555-117.981,0.196-176.961c0.602-47.271,17.438-88.924,47.803-125.096
		 M284.029,442.141c1.912,0.76,3.916,0.632,5.912,0.646c3.479,0.027,4.02-1.305,2.246-4.229
		c-4.188-6.901-9.375-12.111-18.224-11.683c-11.493-0.438-19.043,4.936-21.69,15.264
		C262.825,442.141,273.428,442.141,284.029,442.141z M361.324,194.08c3.814-4.841,3.845-10.741,4.629-16.438
		c0.322-2.336-0.854-2.766-2.863-2.757c-17.707,0.074-35.418-0.583-53.12,0.326c-3.349-1.063-2.923,1.233-2.927,3.237
		c-0.034,17.825,0.057,35.652-0.24,53.473c-0.071,4.338,1.779,4.666,5.043,3.982C335.87,230.872,352.476,217.064,361.324,194.08z
		 M307.269,82.051c-0.12,6.976-0.341,13.951-0.344,20.927c-0.009,18.293,0.06,36.586,0.157,54.878
		c0.01,1.732-1.011,4.192,2.489,4.119c16.448-0.345,32.909,0.566,49.351-0.51c5.479,0.107,10.954,0.278,16.433,0.31
		c8.952,0.052,8.952,0.015,7.727-8.938c-5.008-36.535-36.322-67.329-72.818-71.569C309.233,81.147,307.914,80.473,307.269,82.051z
		 M294.581,84.791c0.551-5.132-3.313-3.718-5.713-3.492c-24.714,2.321-48.39,8.285-70.088,20.778
		c-36.584,21.065-63.025,51.002-78.59,90.344c-9.735,24.607-13.587,50.194-13.446,76.632c0.294,55.303,0.089,110.606,0.09,165.909
		c0,1.499,0.071,3,0.017,4.496c-0.088,2.395,0.628,3.615,3.403,3.384c6.112-0.511,12.243-0.765,18.146-2.66
		c4.884,0.745,9.356-0.795,13.973-2.137c54.138-15.741,93.63-48.363,116.359-100.46c8.916-20.435,15.615-41.696,15.85-63.97
		c0.643-61.106,0.209-122.224,0.189-183.337C294.77,88.449,294.646,86.62,294.581,84.791z"/>
	<path fill="#EDE326" d="M294.581,84.791c0.065,1.829,0.188,3.658,0.188,5.487c0.02,61.113,0.453,122.23-0.189,183.337
		c-0.232,22.273-6.934,43.535-15.85,63.97c-22.729,52.097-62.222,84.719-116.359,100.46c-4.616,1.342-9.088,2.882-13.973,2.137
		c-0.195-6.558-0.391-13.114-0.585-19.674c1.434-0.399,2.849-0.888,4.303-1.189c70.158-14.636,120.09-79.383,122.916-150.629
		c0.237-5.992-0.892-6.967-6.755-6.783c-3.228,0.101-4.935,1.617-5.326,4.742c-0.354,2.805-0.684,5.611-1.021,8.416
		c-3.039-0.207-3.807,2.24-4.812,4.261c-1.996,4.013-3.474,8.333-5.837,12.104c-17.625,28.131-40.701,50.305-71.227,64.103
		c-6.646,3.004-13.417,5.821-20.785,6.668c-0.129-1.99-0.37-3.979-0.371-5.97c-0.017-28.164,0.018-56.326-0.003-84.487
		c-0.006-8.241-0.069-8.229-7.949-9.052c-0.983-0.103-1.943-0.436-2.914-0.661c-0.525-12.735,1.12-25.259,3.975-37.62
		c14.667-63.513,51.515-108.027,112.792-131.672C274.471,89.006,284.574,87.14,294.581,84.791z M259.125,163.441
		c0.009-8.155-5.288-13.609-13.179-13.567c-7.594,0.04-12.976,5.502-13.061,13.257c-0.086,7.857,5.547,13.896,13.044,13.98
		C253.649,177.199,259.116,171.537,259.125,163.441z"/>
	<path fill="#EAC428" d="M147.813,420.508c0.195,6.56,0.39,13.116,0.585,19.674c-5.902,1.896-12.034,2.149-18.146,2.66
		c-2.774,0.231-3.491-0.989-3.403-3.384c0.055-1.496-0.017-2.997-0.017-4.496c-0.001-55.303,0.204-110.606-0.09-165.909
		c-0.141-26.438,3.711-52.024,13.446-76.632c15.565-39.342,42.006-69.278,78.59-90.344c21.699-12.493,45.375-18.457,70.088-20.778
		c2.399-0.226,6.264-1.64,5.713,3.492c-10.007,2.349-20.11,4.215-29.782,7.946c-55.023,21.232-90.35,59.291-107.606,112.822
		c-1.961,6.084-3.689,12.368-5.186,18.851c-2.854,12.361-4.5,24.885-3.975,37.62c-1.982,1.516-1.949,3.656-1.947,5.867
		c0.044,49.248,0.061,98.498,0.088,147.745C146.174,417.438,145.793,419.384,147.813,420.508z"/>
	<path fill="#F2AC46" d="M358.922,161.465c-16.44,1.076-32.902,0.165-49.351,0.51c-3.5,0.073-2.479-2.387-2.489-4.119
		c-0.099-18.292-0.166-36.585-0.157-54.878c0.003-6.976,0.224-13.951,0.344-20.927c1.956,0.886,3.999,1.62,5.854,2.684
		c11.271,6.469,20.35,15.413,27.845,25.869C351.836,125.768,358.372,142.593,358.922,161.465z"/>
	<path fill="#F2AC46" d="M361.324,194.08c-8.85,22.984-25.454,36.792-49.479,41.823c-3.264,0.684-5.114,0.355-5.043-3.982
		c0.297-17.82,0.206-35.647,0.24-53.473c0.004-2.004-0.422-4.301,2.928-3.237c0.612,0.532,1.14,1.312,1.851,1.562
		C328.31,182.576,344.819,188.323,361.324,194.08z"/>
	<path fill="#E88D2E" d="M358.922,161.465c-0.55-18.872-7.086-35.697-17.956-50.861c-7.495-10.456-16.574-19.4-27.845-25.869
		c-1.854-1.063-3.896-1.798-5.854-2.684c0.646-1.578,1.966-0.903,2.993-0.784c36.496,4.24,67.812,35.034,72.818,71.569
		c1.227,8.953,1.227,8.99-7.728,8.938C369.876,161.743,364.399,161.572,358.922,161.465z"/>
	<path fill="#E88D2E" d="M361.324,194.08c-16.505-5.757-33.016-11.504-49.504-17.308c-0.711-0.25-1.237-1.029-1.851-1.562
		c17.701-0.909,35.412-0.252,53.119-0.326c2.01-0.009,3.187,0.421,2.863,2.757C365.169,183.339,365.14,189.239,361.324,194.08z"/>
	<path fill="#F2AC46" d="M284.029,442.141c-10.603,0-21.204,0-31.754,0c2.647-10.328,10.198-15.7,21.691-15.264
		c1.284,1.48,2.54,2.987,3.857,4.438C280.688,434.472,283.822,437.464,284.029,442.141z"/>
	<path fill="#E88D2E" d="M284.029,442.141c-0.207-4.677-3.342-7.669-6.206-10.825c-1.317-1.45-2.573-2.957-3.857-4.438
		c8.849-0.43,14.033,4.78,18.222,11.683c1.773,2.924,1.234,4.256-2.246,4.229C287.945,442.771,285.941,442.899,284.029,442.141z"/>
	<path fill="#212222" d="M147.813,420.508c-2.02-1.124-1.639-3.068-1.64-4.865c-0.027-49.248-0.044-98.496-0.088-147.746
		c-0.002-2.211-0.035-4.352,1.947-5.867c0.971,0.228,1.93,0.561,2.914,0.662c7.88,0.822,7.943,0.811,7.949,9.052
		c0.021,28.161-0.013,56.323,0.003,84.487c0.001,1.988,0.242,3.979,0.371,5.97c-0.09,12.641-0.051,25.284-0.338,37.922
		c-0.103,4.543,1.98,4.73,5.183,3.336c6.517-2.838,13.188-5.42,19.418-8.804c27.758-15.069,48.95-36.602,63.087-64.973
		c8.592-17.242,14.225-35.283,15.311-54.617c0.34-2.805,0.67-5.611,1.021-8.416c0.393-3.125,2.1-4.643,5.326-4.742
		c5.863-0.184,6.992,0.791,6.755,6.783c-2.826,71.246-52.758,135.993-122.916,150.629
		C150.662,419.62,149.247,420.107,147.813,420.508z"/>
	<path fill="#EAC428" d="M261.93,275.064c-1.086,19.332-6.718,37.373-15.311,54.617c-14.137,28.37-35.329,49.901-63.087,64.973
		c-6.23,3.383-12.901,5.965-19.418,8.803c-3.203,1.396-5.286,1.207-5.183-3.336c0.287-12.637,0.248-25.281,0.338-37.922
		c7.369-0.848,14.139-3.664,20.785-6.668c30.526-13.797,53.602-35.971,71.227-64.102c2.363-3.772,3.841-8.094,5.837-12.105
		C258.123,277.305,258.891,274.857,261.93,275.064z"/>
	<path fill="#212222" d="M259.125,163.441c-0.009,8.096-5.476,13.758-13.195,13.67c-7.498-0.085-13.13-6.123-13.044-13.98
		c0.085-7.755,5.467-13.217,13.061-13.257C253.837,149.832,259.134,155.286,259.125,163.441z"/>
</g>
<path fill="#EDE326" stroke="#212222" stroke-width="14" stroke-miterlimit="10" d="M213.841,84.574
	c0,0-74.908-10.044-86.282-25.821s-17.221,52.27,62.231,54.446L213.841,84.574z"/>
<path fill="#FFFFFF" stroke="#000000" stroke-width="14" stroke-miterlimit="10" d="M146.085,94.5"/>
<path fill="#EDE326" stroke="#212222" stroke-width="14" stroke-miterlimit="10" d="M210.429,97.5c0,7.25-81.878,39.574-97.959,36
	c-18-4,42.248,47.239,68.248,12.5"/>
<path fill="#FFFFFF" stroke="#212222" stroke-width="14" stroke-miterlimit="10" d="M158.928,146"/>
<path fill="#FFFFFF" stroke="#212222" stroke-width="14" stroke-miterlimit="10" d="M171,97.5"/>
<path fill="#EDE326" stroke="#212222" stroke-width="14" stroke-miterlimit="10" d="M139.24,177.219
	c0-0.001-30.634,57.074-67.55,53.558c-20.653-3.277,97.591,18.874,100.705,3.836"/>
<path fill="#EDE326" stroke="#212222" stroke-width="14" stroke-miterlimit="10" d="M146.22,157
	c-6.805,2.484-75.675,23.739-81.313,20.112c0,0,47.477,26.048,60.238,16.968S146.22,157,146.22,157z"/>
<path fill="#EDE326" stroke="#212222" stroke-width="14" stroke-miterlimit="10" d="M183.622,168.904
	c0,0-35.341,43.304-45.622,39.656c0,0,50.893,18.926,85.435,5.605"/>
<path fill="#EDE326" stroke="#212222" stroke-width="14" stroke-miterlimit="10" d="M218.632,214.139
	c0,0-13.711,50.742-24.122,51.525c0,0,51.882-3.135,76.75-27.773"/>
<path fill="#EAC428" d="M210.686,257c0,0,49.564-26.75,48.439-29.5l6.875,5.25C266,232.75,254.621,249,210.686,257z"/>
<path fill="#EAC428" d="M216.5,202.5l4.872,6.061c0,0-31.125,10.182-64.872-1.561C156.5,207,212,206,216.5,202.5z"/>
<path fill="#EAC428" d="M103.5,227.5c0,0-3.709,6.5,63.896,4.5c0,0-53.896-5.169-51.896-13.084L103.5,227.5z"/>
<path fill="#EAC428" d="M88.5,180.5l38.238,2.25c0,0-5.385,10.201-14.899,7.201S88.5,180.5,88.5,180.5z"/>
<path fill="#EAC428" d="M128.5,69.75c0,0,37.801,30.083,62.333,31.083L184.5,107.5C184.5,107.5,128.5,98.833,128.5,69.75z"/>
<path fill="#EDE326" stroke="#212222" stroke-width="14" stroke-miterlimit="10" d="M122.97,381.669
	c0,0-69.964,78.293-89.964,63.293s45,97,75,16S122.97,381.669,122.97,381.669z"/>
<path fill="#EDE326" stroke="#212222" stroke-width="14" stroke-miterlimit="10" d="M122.404,350.354c0,0-33.666,57.81-57.645,51.28
	c-23.979-6.53,31.645,31.358,46.424,8.687C125.962,387.648,122.404,350.354,122.404,350.354z"/>
<path fill="#EAC428" d="M56.225,472.284c0,0,39.667-14.301,58.667-54.65C114.891,417.634,97.558,517.617,56.225,472.284z"/>
<path fill="#EAC428" d="M79.891,406.951c0,0,23.667-1.334,31-12.334C110.891,394.617,108.224,421.285,79.891,406.951z"/>
<path fill="#EDE326" stroke="#212222" stroke-width="14" stroke-miterlimit="10" d="M275.062,69.75c0,0-88.127-20.25-94.344-41.25
	s-40.474,37.582,40.654,56.291C221.372,84.791,263.623,67,275.062,69.75z"/>
<path fill="#EDE326" stroke="#212222" stroke-width="14" stroke-miterlimit="10" d="M296.704,72.553c0,0-41.964,14.633-59.372-14.42
	c-17.408-29.053-7.704-21.559-7.704-21.559C226.932,24.247,304.638,41.557,296.704,72.553z"/>
<path fill="#EAC428" d="M124.5,140.167c0,0,82.349-25.969,89.341-35.151S181.167,166.167,124.5,140.167z"/>
<path fill="#EDE326" d="M124.5,140.167c0,0,43.871,7.142,64.436-8.096l-14.102,9.768C174.833,141.839,164.5,165.834,124.5,140.167z"
	/>
<path fill="#EAC428" d="M186.18,149.481"/>
<path fill="#EAC428" d="M174.833,141.839c0,0,12.538-16.425,14.102-18.668s-2.755,26.311-2.755,26.311"/>
<path fill="#EAC428" d="M199.833,127.823"/>
<path fill="#EAC428" d="M238.343,40.5c0,0,16.155,27.843,51.49,26.667C289.833,67.167,242.519,78.5,238.343,40.5z"/>
<path fill="#EAC428" d="M176.167,35.5c0,0,18.333,39.667,53,38.667l-7.795,3.667C221.372,77.833,168.834,67.833,176.167,35.5z"/>
</svg>
