<?xml version="1.0" encoding="utf-8"?>
<!-- Generator: Adobe Illustrator 16.0.0, SVG Export Plug-In . SVG Version: 6.00 Build 0)  -->
<!DOCTYPE svg PUBLIC "-//W3C//DTD SVG 1.1//EN" "http://www.w3.org/Graphics/SVG/1.1/DTD/svg11.dtd">
<svg version="1.1" id="Layer_1" xmlns="http://www.w3.org/2000/svg" xmlns:xlink="http://www.w3.org/1999/xlink" x="0px" y="0px"
	 width="512px" height="512px" viewBox="0 0 512 512" enable-background="new 0 0 512 512" xml:space="preserve">
<g>
	<path fill="#FEFEFE" d="M255.873,513c-83.979,0-167.959-0.021-251.938,0.085c-3.261,0.004-4.18-0.434-4.178-4.009
		c0.118-167.959,0.12-335.918-0.004-503.877C-0.25,1.455,0.689,0.912,4.158,0.914C171.95,1.013,339.743,1.012,507.535,0.92
		c3.403-0.002,4.439,0.443,4.438,4.254c-0.13,167.959-0.127,335.918-0.013,503.877c0.003,3.526-0.836,4.042-4.149,4.037
		C423.831,512.977,339.852,513,255.873,513z M271.637,455.225c10.164,0,20.33,0.003,30.494-0.002
		c1.809-0.001,3.567,0.366,3.672-2.58c0.619-17.766-9.043-32.849-25.389-37.327c-6.031-1.652-10.49-4.304-14.242-8.88
		c-0.843-1.026-1.668-2.114-2.695-2.933c-3.961-3.146-3.785-5.918-0.463-9.834c32.728-38.576,47.753-83.573,47.833-133.841
		c0.006-3.903,1.598-6.3,5.249-6.509c6.315-0.361,11.83-3.308,17.271-5.678c18.364-8,31.744-21.559,40.445-39.629
		c3.771-7.836,6.041-16.197,7.78-24.669c0.521-2.546,1.435-3.281,3.883-3.166c3.823,0.18,7.667-0.072,11.493,0.084
		c2.997,0.123,4.107-1.037,4.16-4.061c0.289-16.634-1.425-32.987-7.961-48.409c-10.039-23.688-25.363-42.393-49.22-53.944
		c-12.065-5.843-24.119-10.162-37.438-10.882c-37.188-2.012-71.211,8.229-103.104,26.689c-0.718,0.415-1.407,0.881-2.11,1.321
		c-10.753,6.744-20.693,14.544-29.987,23.172c-1.914,1.776-3.623,3.576-6.235,0.927c-4.672-4.738-9.417-9.404-14.181-14.051
		c-2.311-2.255-3.327-4.517-2.249-7.97c2.242-7.175-5.72-17.817-12.889-17.221c-9.791,0.814-15.646,6.624-14.728,16.159
		c0.892,9.262,7.519,14.193,17.129,12.541c2.976-0.512,5.174,0.242,6.942,2.622c3.388,4.56,7.364,8.593,11.363,12.604
		c4.739,4.752,4.589,4.628,0.157,9.907c-30.366,36.172-47.201,77.825-47.803,125.096c-0.751,58.979-0.167,117.974-0.196,176.961
		c-0.004,8.156-0.228,16.313-0.337,24.468c-0.045,3.351,1.161,4.986,4.98,5.117c23.227,0.794,45.734-3.015,67.604-10.532
		c23.396-8.043,44.26-20.553,62.79-36.951c1.492-1.321,2.932-2.819,4.661-3.73c4.414-2.325,5.693,2.051,7.767,4.183
		c2.412,2.479-0.377,3.267-1.962,4.255c-12.037,7.507-16.794,18.778-16.832,32.495c-0.008,2.892,0.871,4.389,4.355,4.295
		C251.636,455.05,261.639,455.225,271.637,455.225z"/>
	<path fill="#212222" d="M272.777,455.225c-9.998,0-20-0.175-29.991,0.097c-3.484,0.094-4.363-1.403-4.355-4.295
		c0.038-13.717,4.795-24.988,16.832-32.495c1.584-0.988,4.375-1.776,1.963-4.255c-2.075-2.132-3.354-6.508-7.768-4.183
		c-1.729,0.911-3.169,2.409-4.661,3.73c-18.53,16.398-39.394,28.908-62.79,36.951c-21.87,7.519-44.377,11.326-67.604,10.532
		c-3.819-0.131-5.025-1.768-4.98-5.117c0.109-8.155,0.333-16.312,0.337-24.468c0.029-58.986-0.555-117.981,0.196-176.961
		c0.602-47.271,17.438-88.924,47.803-125.096c4.432-5.279,4.582-5.155-0.157-9.907c-4-4.011-7.976-8.044-11.363-12.604
		c-1.768-2.38-3.967-3.134-6.942-2.622c-9.61,1.652-16.237-3.279-17.129-12.541c-0.918-9.535,4.937-15.345,14.728-16.159
		c7.169-0.597,15.131,10.046,12.889,17.221c-1.079,3.453-0.063,5.715,2.249,7.97c4.763,4.646,9.509,9.313,14.181,14.051
		c2.612,2.649,4.321,0.85,6.235-0.927c9.294-8.628,19.234-16.428,29.987-23.172c0.703-0.44,1.393-0.906,2.11-1.321
		c31.892-18.46,65.917-28.701,103.104-26.689c13.319,0.72,25.373,5.039,37.438,10.882c23.855,11.552,39.182,30.257,49.22,53.944
		c6.536,15.422,8.25,31.775,7.962,48.409c-0.054,3.023-1.164,4.184-4.161,4.061c-3.826-0.156-7.67,0.096-11.493-0.084
		c-2.448-0.115-3.361,0.62-3.883,3.166c-1.739,8.472-4.009,16.833-7.78,24.669c-8.701,18.07-22.081,31.629-40.445,39.629
		c-5.441,2.37-10.956,5.316-17.271,5.678c-3.651,0.209-5.243,2.605-5.249,6.509c-0.08,50.267-15.105,95.265-47.834,133.841
		c-3.321,3.916-3.497,6.688,0.464,9.834c1.026,0.817,1.854,1.905,2.694,2.933c3.752,4.576,8.213,7.228,14.242,8.88
		c16.346,4.479,26.01,19.563,25.39,37.327c-0.104,2.946-1.863,2.579-3.673,2.58C293.107,455.228,282.941,455.225,272.777,455.225z
		 M284.029,442.141c1.912,0.76,3.916,0.632,5.912,0.646c3.479,0.027,4.02-1.305,2.246-4.229
		c-4.188-6.901-9.375-12.111-18.224-11.683c-11.493-0.438-19.043,4.936-21.69,15.264
		C262.825,442.141,273.428,442.141,284.029,442.141z M361.324,194.08c3.814-4.841,3.845-10.741,4.629-16.438
		c0.322-2.336-0.854-2.766-2.863-2.757c-17.707,0.074-35.418-0.583-53.12,0.326c-3.349-1.063-2.923,1.233-2.927,3.237
		c-0.034,17.825,0.057,35.652-0.24,53.473c-0.071,4.338,1.779,4.666,5.043,3.982C335.87,230.872,352.476,217.064,361.324,194.08z
		 M307.269,82.051c-0.12,6.976-0.341,13.951-0.344,20.927c-0.009,18.293,0.06,36.586,0.157,54.878
		c0.01,1.732-1.011,4.192,2.489,4.119c16.448-0.345,32.909,0.566,49.351-0.51c5.479,0.107,10.954,0.278,16.433,0.31
		c8.952,0.052,8.952,0.015,7.727-8.938c-5.008-36.535-36.322-67.329-72.818-71.569C309.233,81.147,307.914,80.473,307.269,82.051z
		 M294.581,84.791c0.551-5.132-3.313-3.718-5.713-3.492c-24.714,2.321-48.39,8.285-70.088,20.778
		c-36.584,21.065-63.025,51.002-78.59,90.344c-9.735,24.607-13.587,50.194-13.446,76.632c0.294,55.303,0.089,110.606,0.09,165.909
		c0,1.499,0.071,3,0.017,4.496c-0.088,2.395,0.628,3.615,3.403,3.384c6.112-0.511,12.243-0.765,18.146-2.66
		c4.884,0.745,9.356-0.795,13.973-2.137c54.138-15.741,93.63-48.363,116.359-100.46c8.916-20.435,15.615-41.696,15.85-63.97
		c0.643-61.106,0.209-122.224,0.189-183.337C294.77,88.449,294.646,86.62,294.581,84.791z"/>
	<path fill="#158C56" d="M147.813,420.508c0.195,6.56,0.39,13.116,0.585,19.674c-5.902,1.896-12.034,2.149-18.146,2.66
		c-2.774,0.231-3.491-0.989-3.403-3.384c0.055-1.496-0.017-2.997-0.017-4.496c-0.001-55.303,0.204-110.606-0.09-165.909
		c-0.141-26.438,3.711-52.024,13.446-76.632c15.565-39.342,42.006-69.278,78.59-90.344c21.699-12.493,45.375-18.457,70.088-20.778
		c2.399-0.226,6.264-1.64,5.713,3.492c-10.007,2.349-20.11,4.215-29.782,7.946c-61.277,23.645-98.125,68.159-112.792,131.672
		c-2.854,12.361-4.5,24.885-3.975,37.62c-1.982,1.516-1.949,3.656-1.947,5.867c0.044,49.248,0.061,98.498,0.088,147.745
		C146.174,417.438,145.793,419.384,147.813,420.508z"/>
	<path fill="#F2AC46" d="M358.922,161.465c-16.44,1.076-32.902,0.165-49.351,0.51c-3.5,0.073-2.479-2.387-2.489-4.119
		c-0.099-18.292-0.166-36.585-0.157-54.878c0.003-6.976,0.224-13.951,0.344-20.927c1.956,0.886,3.999,1.62,5.854,2.684
		c11.271,6.469,20.35,15.413,27.845,25.869C351.836,125.768,358.372,142.593,358.922,161.465z"/>
	<path fill="#F2AC46" d="M361.324,194.08c-8.85,22.984-25.454,36.792-49.479,41.823c-3.264,0.684-5.114,0.355-5.043-3.982
		c0.297-17.82,0.206-35.647,0.24-53.473c0.004-2.004-0.422-4.301,2.928-3.237c0.612,0.532,1.14,1.312,1.851,1.562
		C328.31,182.576,344.819,188.323,361.324,194.08z"/>
	<path fill="#E88D2E" d="M358.922,161.465c-0.55-18.872-7.086-35.697-17.956-50.861c-7.495-10.456-16.574-19.4-27.845-25.869
		c-1.854-1.063-3.896-1.798-5.854-2.684c0.646-1.578,1.966-0.903,2.993-0.784c36.496,4.24,67.812,35.034,72.818,71.569
		c1.227,8.953,1.227,8.99-7.728,8.938C369.876,161.743,364.399,161.572,358.922,161.465z"/>
	<path fill="#E88D2E" d="M361.324,194.08c-16.505-5.757-33.016-11.504-49.504-17.308c-0.711-0.25-1.237-1.029-1.851-1.562
		c17.701-0.909,35.412-0.252,53.119-0.326c2.01-0.009,3.187,0.421,2.863,2.757C365.169,183.339,365.14,189.239,361.324,194.08z"/>
	<path fill="#F2AC46" d="M284.029,442.141c-10.603,0-21.204,0-31.754,0c2.647-10.328,10.198-15.7,21.691-15.264
		c1.284,1.48,2.54,2.987,3.857,4.438C280.688,434.472,283.822,437.464,284.029,442.141z"/>
	<path fill="#E88D2E" d="M284.029,442.141c-0.207-4.677-3.342-7.669-6.206-10.825c-1.317-1.45-2.573-2.957-3.857-4.438
		c8.849-0.43,14.033,4.78,18.222,11.683c1.773,2.924,1.234,4.256-2.246,4.229C287.945,442.771,285.941,442.899,284.029,442.141z"/>
	<path fill="#212222" d="M259.125,163.441c-0.009,8.096-5.476,13.758-13.195,13.67c-7.498-0.085-13.13-6.123-13.044-13.98
		c0.085-7.755,5.467-13.217,13.061-13.257C253.837,149.832,259.134,155.286,259.125,163.441z"/>
</g>
<g>
	<g>
		<path fill-rule="evenodd" clip-rule="evenodd" fill="#555553" d="M431.035,283.1c-0.397-0.368-0.481-0.769-0.129-1.217
			C431.181,282.266,431.263,282.664,431.035,283.1z"/>
		<path fill-rule="evenodd" clip-rule="evenodd" fill="#555553" d="M430.345,279.735c-0.595-0.087-0.61-0.423-0.367-0.866
			C430.295,279.073,430.389,279.376,430.345,279.735z"/>
		<path fill-rule="evenodd" clip-rule="evenodd" fill="#747474" d="M307.552,342.722c-1.868,0.168-3.374,1.232-4.914,2.118
			c-4.983,2.861-9.902,5.836-14.851,8.761c-3.341,1.972-6.211,1.457-7.938-1.406c-1.787-2.956-0.871-5.734,2.594-7.79
			c9.009-5.343,18.023-10.676,27.034-16.014c17.322-10.259,34.66-20.49,51.94-30.817c1.768-1.055,2.62-0.839,3.467,0.945
			c0.714,1.505,1.688,2.887,2.53,4.334c1.713,2.944,1.892,2.462-1.001,4.178c-15.585,9.241-31.174,18.47-46.764,27.701
			c-3.237,1.919-6.462,3.86-9.724,5.739c-0.975,0.562-1.773,1.24-2.32,2.218C307.609,342.688,307.552,342.722,307.552,342.722z"/>
		<path fill-rule="evenodd" clip-rule="evenodd" fill="#727271" d="M414.176,272.066c0.339,0.5,0.16,1.003,0.008,1.507
			c-0.356,0.248-0.933,0.687-0.656,0.959c0.494,0.481,0.513-0.39,0.827-0.554c1.603,2.689,3.234,5.36,4.803,8.069
			c1.745,3.015,1.067,6.141-1.922,7.935c-9.298,5.582-18.624,11.115-27.995,16.57c-3.303,1.92-6.225,1.029-8.184-2.252
			c-3.547-5.938-7.067-11.89-10.572-17.852c-2.052-3.489-1.338-6.398,2.176-8.529c4.917-2.981,9.888-5.875,14.836-8.805
			c4.109-2.435,8.21-4.882,12.329-7.298c3.584-2.101,6.532-1.334,8.671,2.227c1.386,2.31,2.73,4.645,4.137,6.941
			c0.339,0.554,0.503,1.5,1.558,1.089L414.176,272.066z M412.63,278.035c-0.051,0.197-0.101,0.393-0.152,0.591
			c0.02,0.325,0.042,0.649,0.06,0.976c-0.122,0.15-0.247,0.302-0.371,0.453c0.06,0.024,0.171,0.076,0.174,0.07
			c0.093-0.163,0.175-0.334,0.258-0.504c0.188-0.34,0.096-0.663-0.063-0.981c0.051-0.198,0.101-0.394,0.151-0.591
			c0.127-0.151,0.254-0.303,0.38-0.455c-0.062-0.025-0.173-0.078-0.178-0.071C412.796,277.689,412.713,277.862,412.63,278.035z
			 M396.13,286.344c-3.068,1.816-6.159,3.591-9.191,5.459c-3.175,1.953-3.892,5.603-1.747,8.449c1.81,2.4,4.766,2.809,7.826,1.01
			c6.001-3.529,11.982-7.087,17.966-10.643c3.035-1.806,3.986-4.993,2.362-7.839c-1.502-2.639-5.155-3.523-8.016-1.877
			C402.243,282.682,399.192,284.526,396.13,286.344z M393.527,281.714c3.066-1.815,6.147-3.603,9.191-5.456
			c2.92-1.777,3.442-5.078,2.108-7.778c-1.362-2.758-4.838-3.533-7.75-1.928c-0.812,0.448-1.485,1.16-2.312,1.572
			c-5.603,2.786-10.838,6.212-16.197,9.417c-3.262,1.951-3.941,5.112-2.097,8.011c1.736,2.727,4.889,3.327,8.044,1.49
			C387.531,285.286,390.523,283.49,393.527,281.714z"/>
		<path fill-rule="evenodd" clip-rule="evenodd" fill="#747474" d="M414.354,273.979c-0.314,0.164-0.333,1.035-0.827,0.554
			c-0.276-0.272,0.3-0.711,0.656-0.959C414.24,273.709,414.297,273.844,414.354,273.979z"/>
		<path fill-rule="evenodd" clip-rule="evenodd" fill="#555553" d="M307.552,342.722c0,0,0.058-0.034,0.055-0.033
			c0.004,0.196,0.009,0.392,0.014,0.59l0.027,0.007C307.613,343.097,307.583,342.908,307.552,342.722z"/>
		<path fill-rule="evenodd" clip-rule="evenodd" fill="#555553" d="M266.316,324.081c-0.198-0.053-0.397-0.103-0.599-0.153
			l-0.006,0.025c0.199,0.052,0.398,0.104,0.599,0.153L266.316,324.081z"/>
		<path fill-rule="evenodd" clip-rule="evenodd" fill="#555553" d="M266.311,324.106c0.199,0.052,0.398,0.104,0.599,0.154
			l0.007-0.027c-0.201-0.051-0.399-0.102-0.6-0.152L266.311,324.106z"/>
		<path fill-rule="evenodd" clip-rule="evenodd" fill="#555553" d="M267.514,324.387c-0.199-0.052-0.399-0.102-0.598-0.153
			l-0.007,0.027c0.199,0.051,0.398,0.103,0.599,0.153L267.514,324.387z"/>
		<path fill-rule="evenodd" clip-rule="evenodd" fill="#555553" d="M267.508,324.414c0.199,0.051,0.397,0.102,0.598,0.154
			l0.007-0.029c-0.199-0.051-0.399-0.101-0.598-0.151C267.514,324.387,267.508,324.414,267.508,324.414z"/>
		<path fill-rule="evenodd" clip-rule="evenodd" fill="#555553" d="M268.105,324.568c0.081,0.014,0.162,0.028,0.246,0.042
			c-0.037,0.009-0.08,0.036-0.109,0.024c-0.047-0.019-0.086-0.062-0.13-0.096L268.105,324.568z"/>
		<path fill-rule="evenodd" clip-rule="evenodd" fill="#212222" d="M396.128,286.343c3.064-1.816,6.115-3.661,9.202-5.439
			c2.86-1.646,6.514-0.762,8.016,1.877c1.624,2.846,0.673,6.033-2.362,7.839c-5.983,3.556-11.965,7.113-17.966,10.643
			c-3.061,1.799-6.017,1.391-7.826-1.01c-2.145-2.847-1.428-6.496,1.747-8.449C389.971,289.935,393.062,288.16,396.128,286.343z"/>
		<path fill-rule="evenodd" clip-rule="evenodd" fill="#747474" d="M412.534,278.64c0.159,0.318,0.251,0.642,0.063,0.981
			l-0.061-0.02c-0.018-0.326-0.04-0.65-0.06-0.976L412.534,278.64z"/>
		<path fill-rule="evenodd" clip-rule="evenodd" fill="#747474" d="M412.598,279.621c-0.083,0.17-0.165,0.341-0.258,0.504
			c-0.003,0.006-0.114-0.046-0.174-0.07c0.124-0.151,0.249-0.303,0.371-0.453L412.598,279.621z"/>
		<path fill-rule="evenodd" clip-rule="evenodd" fill="#747474" d="M412.63,278.035c0.083-0.173,0.166-0.346,0.258-0.513
			c0.005-0.007,0.116,0.046,0.178,0.071c-0.126,0.152-0.253,0.304-0.38,0.455L412.63,278.035z"/>
		<path fill-rule="evenodd" clip-rule="evenodd" fill="#747474" d="M412.478,278.626c0.052-0.198,0.102-0.394,0.152-0.591
			l0.056,0.014c-0.051,0.197-0.101,0.393-0.151,0.591L412.478,278.626z"/>
	</g>
	<g>
		<path fill="#5E3704" d="M268.313,352.888c-1.548-7.5,1.624-14.021,8.941-18.389c2.133-1.273,2.131-1.272,0.148-2.784
			c-3.852-2.936-8.159-5.072-12.506-7.14c-2.763-0.364-5.456-0.958-7.934-2.299c-0.425,0.06-0.868,0.232-1.269,0.16
			c-5.415-0.96-10.833-0.776-16.256-0.123c-0.906,0.194-1.81,0.388-2.714,0.58c-2.722,0.424-5.208,1.646-7.859,2.306
			c-1.943,0.95-3.887,1.897-5.831,2.847c-0.36,0.246-0.71,0.507-1.081,0.734c-12.413,7.654-20.183,18.591-23.161,32.875
			c-5.902,28.311,14.259,55.981,42.977,59.125c5.998,0.656,11.883,0.095,17.759-0.993c1.296-0.427,2.591-0.853,3.888-1.277
			c2.777-0.579,5.071-2.317,7.711-3.228c0.118-0.081,0.236-0.161,0.356-0.243c5.295-3.242,10.192-6.946,14.139-11.815
			c8.747-10.8,12.558-23.107,11.269-36.938c-0.41-4.415-0.55-4.4-4.357-2.289C282.841,369.367,270.548,363.729,268.313,352.888z"/>
		<path fill="none" d="M307.647,343.285c-0.012-0.062-0.021-0.122-0.031-0.183c0.001,0.059,0.003,0.117,0.004,0.176L307.647,343.285
			z"/>
		<path fill="none" d="M270.022,422.463c0.34-0.117,0.53-0.485,0.452-1.314l0,0C270.553,421.978,270.362,422.345,270.022,422.463z"
			/>
		<path fill="none" d="M268.574,422.208c-0.027-0.063-0.058-0.12-0.084-0.183l0,0C268.517,422.088,268.547,422.145,268.574,422.208z
			"/>
		<path fill="none" d="M268.623,422.241c0.131,0.047,0.262,0.092,0.387,0.133C268.885,422.333,268.754,422.288,268.623,422.241
			L268.623,422.241z"/>
		<path fill="none" d="M367.415,302.853c-0.843-1.447-1.816-2.829-2.53-4.334c-0.847-1.784-1.699-2-3.467-0.945
			c-17.28,10.327-34.618,20.559-51.94,30.817c-5.897,3.493-11.796,6.988-17.694,10.481c2.099,2.867,3.918,5.931,5.43,9.146
			c1.804-1.066,3.607-2.136,5.425-3.178c1.54-0.886,3.046-1.95,4.914-2.118c0.021,0.126,0.043,0.254,0.064,0.381
			c-0.003-0.138-0.009-0.276-0.012-0.414c0.549-0.978,1.348-1.656,2.322-2.218c3.262-1.879,6.486-3.82,9.724-5.739
			c15.59-9.231,31.179-18.46,46.764-27.701C369.307,305.314,369.128,305.797,367.415,302.853z"/>
		<path fill="none" d="M304.805,353.11c0.181,0.294,0.268,0.593,0.067,0.914C305.072,353.703,304.986,353.403,304.805,353.11z"/>
		<path fill="none" d="M304.872,354.024L304.872,354.024c-0.135-0.222-0.205-0.444-0.157-0.678
			C304.667,353.58,304.738,353.804,304.872,354.024z"/>
		<path fill="none" d="M414.193,272.054c-0.006,0.004-0.012,0.008-0.018,0.013c0.004,0.004,0.003,0.008,0.006,0.01
			c0.003,0,0.006,0,0.009-0.002C414.189,272.067,414.192,272.062,414.193,272.054z"/>
		<path fill="none" d="M414.354,273.979c-0.058-0.135-0.114-0.27-0.171-0.405c0.151-0.5,0.326-0.999-0.002-1.497
			c-1.047,0.402-1.212-0.538-1.549-1.091c-1.406-2.297-2.751-4.632-4.137-6.941c-2.139-3.561-5.087-4.327-8.671-2.227
			c-4.119,2.416-8.22,4.863-12.329,7.298c-4.948,2.93-9.919,5.823-14.836,8.805c-3.514,2.131-4.228,5.04-2.176,8.529
			c3.505,5.962,7.025,11.914,10.572,17.852c1.959,3.281,4.881,4.172,8.184,2.252c9.371-5.455,18.697-10.988,27.995-16.57
			c2.989-1.794,3.667-4.92,1.922-7.935C417.589,279.339,415.957,276.668,414.354,273.979z"/>
		<path fill="#20201E" d="M268.352,324.61c-0.063-0.011-0.123-0.021-0.185-0.031c0.025,0.021,0.049,0.044,0.075,0.056
			C268.271,324.646,268.314,324.619,268.352,324.61z"/>
		<path fill="#20201E" d="M265.696,419.642c1.312,0.313,2.224,1.121,2.794,2.384l0,0
			C267.921,420.763,267.008,419.955,265.696,419.642z"/>
		<path fill="#20201E" d="M270.475,421.148L270.475,421.148c0-0.004,0-0.007,0-0.013
			C270.475,421.142,270.475,421.145,270.475,421.148z"/>
		<path fill="#20201E" d="M266.909,324.261c0.199,0.051,0.398,0.103,0.599,0.153c0.199,0.051,0.397,0.102,0.598,0.154
			c0.021,0.003,0.041,0.006,0.062,0.011c-0.018-0.016-0.036-0.026-0.055-0.04c-0.199-0.051-0.399-0.101-0.598-0.151
			c-0.2-0.053-0.4-0.103-0.599-0.154c-0.201-0.051-0.399-0.102-0.6-0.152c-0.198-0.053-0.397-0.103-0.599-0.153l-0.006,0.025
			c0.199,0.052,0.398,0.104,0.599,0.153C266.51,324.158,266.709,324.21,266.909,324.261z"/>
	</g>
	<path fill="#20201E" d="M269.075,355.646"/>
	<g>
		<g>
			<path fill="none" d="M200.052,384.339c-0.184,0.13-0.364,0.265-0.548,0.395c0,0,0,0,0,0.001
				C199.688,384.604,199.869,384.47,200.052,384.339C200.052,384.339,200.052,384.339,200.052,384.339z"/>
			<path fill="none" d="M209.799,376.78c0,0.001-0.001,0.001-0.001,0.002c0.917-0.773,1.834-1.548,2.73-2.342
				c-0.001,0-0.002,0.001-0.002,0.001C211.631,375.234,210.715,376.008,209.799,376.78z"/>
			<path fill="none" d="M265.696,419.642c1.312,0.313,2.224,1.121,2.794,2.384C267.921,420.763,267.008,419.955,265.696,419.642z"/>
			<path fill="none" d="M260.85,285.806c-1.252,8.638-3.403,17.021-6.285,25.204l0,0
				C257.445,302.827,259.598,294.443,260.85,285.806z"/>
			<path fill="none" d="M147.813,420.508c1.434-0.399,2.849-0.888,4.303-1.189C150.662,419.62,149.247,420.107,147.813,420.508z"/>
			<path fill="none" d="M270.022,422.463c0.255-0.088,0.426-0.317,0.462-0.776C270.448,422.146,270.277,422.374,270.022,422.463z"/>
			<path fill="none" d="M158.931,400.122L158.931,400.122c-0.103,4.543,1.98,4.73,5.183,3.336c6.517-2.838,13.188-5.42,19.418-8.804
				c-6.23,3.383-12.901,5.965-19.418,8.803C160.911,404.853,158.828,404.664,158.931,400.122z"/>
			<path fill="none" d="M183.532,394.654c2.161-1.173,4.268-2.399,6.35-3.651v-0.001C187.8,392.254,185.693,393.48,183.532,394.654z
				"/>
			<path fill="none" d="M245.929,177.111c7.72,0.088,13.187-5.574,13.196-13.67c0.009-8.155-5.288-13.609-13.179-13.567
				c-7.594,0.04-12.976,5.502-13.061,13.257C232.799,170.988,238.432,177.027,245.929,177.111z"/>
			<path fill="none" d="M265.277,262.627c-1.322,0.743-2.081,2.068-2.326,4.021C263.196,264.695,263.955,263.37,265.277,262.627z"/>
			<path fill="none" d="M218.658,411.921c6.596,4.701,14.421,7.855,23.023,8.798c5.998,0.656,11.883,0.095,17.759-0.993
				c1.295-0.427,2.593-0.852,3.888-1.278c2.778-0.579,5.071-2.314,7.71-3.228c0.12-0.081,0.238-0.161,0.357-0.242
				c5.295-3.243,10.193-6.946,14.14-11.816c8.747-10.798,12.557-23.107,11.268-36.938c-0.411-4.412-0.55-4.399-4.357-2.289
				c-8.588,4.762-19.214,0.871-23.078-7.62C256.285,379.278,239.294,397.707,218.658,411.921z"/>
			<path fill="none" d="M260.864,285.695c0.29-2.012,0.522-4.039,0.714-6.079C261.387,281.656,261.154,283.684,260.864,285.695z"/>
			<polygon fill="none" points="414.177,272.067 414.182,272.076 414.19,272.074 			"/>
			<path fill="none" d="M414.354,273.979c-0.058-0.135-0.114-0.27-0.171-0.405c0.151-0.5,0.326-0.999-0.002-1.497
				c-1.047,0.402-1.212-0.538-1.549-1.091c-1.406-2.297-2.751-4.632-4.137-6.941c-2.139-3.561-5.087-4.327-8.671-2.227
				c-4.119,2.416-8.22,4.863-12.329,7.298c-4.948,2.93-9.919,5.823-14.836,8.805c-3.514,2.131-4.228,5.04-2.176,8.529
				c3.505,5.962,7.025,11.914,10.572,17.852c1.959,3.281,4.881,4.172,8.184,2.252c9.371-5.455,18.697-10.988,27.995-16.57
				c2.989-1.794,3.667-4.92,1.922-7.935C417.589,279.339,415.957,276.668,414.354,273.979z"/>
			<path fill="none" d="M304.872,354.024c0.2-0.321,0.114-0.621-0.067-0.914C304.985,353.404,305.072,353.703,304.872,354.024z"/>
			<path fill="none" d="M150.946,262.691c-0.77-0.08-1.525-0.301-2.283-0.501C149.42,262.392,150.175,262.612,150.946,262.691z"/>
			<path fill="none" d="M307.647,343.285c-0.012-0.062-0.021-0.122-0.031-0.183c0.001,0.059,0.003,0.117,0.004,0.176
				L307.647,343.285z"/>
			<path fill="none" d="M364.885,298.519c-0.847-1.784-1.699-2-3.467-0.945c-17.28,10.327-34.618,20.559-51.94,30.817
				c-5.897,3.493-11.796,6.988-17.694,10.481c-3.112,1.845-6.228,3.686-9.34,5.532c-3.465,2.056-4.381,4.834-2.594,7.79
				c1.727,2.863,4.597,3.378,7.938,1.406c3.144-1.858,6.281-3.726,9.426-5.583c1.804-1.066,3.607-2.136,5.425-3.178
				c1.54-0.886,3.046-1.95,4.914-2.118c0.021,0.126,0.043,0.254,0.064,0.381c-0.003-0.138-0.009-0.276-0.012-0.414
				c0.549-0.978,1.348-1.656,2.322-2.218c3.262-1.879,6.486-3.82,9.724-5.739c15.59-9.231,31.179-18.46,46.764-27.701
				c2.893-1.716,2.714-1.233,1.001-4.178C366.572,301.405,365.599,300.023,364.885,298.519z"/>
			<path fill="#5E3704" d="M269.075,355.646l-45.229,28.639c-0.357-0.605-0.719-1.208-1.077-1.813
				c-2.758,2.556-5.606,5.013-8.543,7.363c0.078,0.131,0.154,0.263,0.231,0.394l-4.048,2.563c-1.857,1.394-3.747,2.743-5.667,4.052
				c3.536,5.9,8.272,11.056,13.915,15.077c20.636-14.214,37.627-32.643,50.709-55.607c-0.478-1.049-0.854-2.166-1.108-3.348
				C268.603,354.629,269.075,355.646,269.075,355.646z"/>
			<path fill="#888888" d="M277.167,334.437c0.704-0.42,1.152-0.697,1.396-0.939c-0.984,0.575-1.881,1.168-2.7,1.771
				C276.282,334.982,276.717,334.705,277.167,334.437z"/>
			<path fill="#888888" d="M268.123,352.219c0.015,0.088,0.029,0.174,0.044,0.26C268.15,352.392,268.139,352.306,268.123,352.219z"
				/>
			<path fill="#888888" d="M278.596,333.467c0.451-0.477,0.022-0.819-1.279-1.813c-1.396-1.064-2.854-2.021-4.35-2.91
				C276.607,331.217,278.522,333.384,278.596,333.467z"/>
			<path fill="#888888" d="M268.352,324.61c-0.063-0.011-0.123-0.021-0.185-0.031c0.025,0.021,0.049,0.044,0.075,0.056
				C268.271,324.646,268.314,324.619,268.352,324.61z"/>
			<path fill="#0F6D45" d="M195.334,402.764c-13.228,7.646-27.729,13.323-43.218,16.555c-1.454,0.302-2.869,0.79-4.303,1.189
				c0.194,6.56,0.39,13.116,0.585,19.674c4.885,0.745,9.357-0.795,13.973-2.137c16.905-4.915,32.381-11.477,46.366-19.763
				C203.479,413.959,198.92,408.735,195.334,402.764z"/>
			<path fill="#888888" d="M266.316,324.081c-0.198-0.053-0.397-0.103-0.599-0.153l-0.006,0.025
				c0.199,0.052,0.398,0.104,0.599,0.153c0.199,0.052,0.398,0.104,0.599,0.154c0.199,0.051,0.398,0.103,0.599,0.153
				c0.199,0.051,0.397,0.102,0.598,0.154c0.021,0.003,0.041,0.006,0.062,0.011c-0.018-0.016-0.036-0.026-0.055-0.04
				c-0.199-0.051-0.399-0.101-0.598-0.151c-0.2-0.053-0.4-0.103-0.599-0.154C266.715,324.183,266.517,324.132,266.316,324.081z"/>
			<path fill="#1E1C1D" d="M204.537,396.51c0.066,0.113,0.139,0.222,0.206,0.334c1.92-1.309,3.81-2.658,5.667-4.052L204.537,396.51z
				"/>
			<path fill="#1E1C1D" d="M195.334,402.764c-0.896-1.493-1.739-3.028-2.509-4.612c-1.142-2.349-2.116-4.737-2.943-7.148
				c-2.082,1.252-4.188,2.479-6.35,3.651c-6.23,3.384-12.901,5.966-19.418,8.804c-3.203,1.395-5.286,1.207-5.183-3.336l0,0
				c0-0.001,0-0.001,0-0.001c0.287-12.637,0.248-25.28,0.338-37.921c-0.129-1.99-0.37-3.979-0.371-5.97
				c-0.017-28.164,0.018-56.326-0.003-84.487c-0.006-8.241-0.069-8.229-7.949-9.052c-0.771-0.079-1.526-0.3-2.283-0.501
				c-0.21-0.056-0.42-0.111-0.631-0.16c0,0,0,0,0-0.001c-1.982,1.516-1.949,3.656-1.947,5.867
				c0.044,49.25,0.061,98.498,0.088,147.746c0.001,1.797-0.38,3.741,1.64,4.865c1.434-0.4,2.849-0.888,4.303-1.189
				C167.605,416.087,182.106,410.41,195.334,402.764z"/>
			<path fill="#1E1C1D" d="M199.504,384.734c1.165,4.136,2.862,8.087,5.022,11.759c-1.976-4.264-3.438-8.312-4.474-12.153
				C199.869,384.47,199.688,384.604,199.504,384.734z"/>
			<path fill="#1E1C1D" d="M212.528,374.44c-0.896,0.794-1.813,1.568-2.73,2.342c-0.983,1.672-0.988,3.809,0.186,5.824
				c1.404,2.415,2.823,4.821,4.243,7.229c2.937-2.351,5.785-4.808,8.543-7.363c-1.063-1.801-2.123-3.603-3.203-5.395
				C217.919,374.349,215.097,373.352,212.528,374.44z"/>
			<path fill="#1E1C1D" d="M148.663,262.19c-0.21-0.057-0.42-0.111-0.63-0.161h0c0,0.001,0,0.001,0,0.001
				C148.243,262.079,148.453,262.135,148.663,262.19z"/>
			<path fill="#1E1C1D" d="M265.277,262.627c0.793-0.446,1.79-0.683,3-0.721C267.067,261.943,266.07,262.181,265.277,262.627z"/>
			<path fill="#1E1C1D" d="M158.898,356.23c0.001,1.99,0.242,3.979,0.371,5.97l0,0C159.14,360.209,158.899,358.219,158.898,356.23z"
				/>
			<path fill="#1E1C1D" d="M158.895,271.743c0.021,28.161-0.014,56.323,0.003,84.487
				C158.882,328.066,158.916,299.904,158.895,271.743z"/>
			<path fill="#FCFCFC" d="M201.805,351.583c0.029-0.066,0.057-0.134,0.086-0.2C201.863,351.449,201.833,351.516,201.805,351.583z"
				/>
			<path fill="#FCFCFC" d="M223.873,327.659c6.527-3.117,12.518-4.871,17.949-5.665c-0.823,0.075-1.647,0.158-2.47,0.258
				c-0.906,0.193-1.81,0.387-2.715,0.579c-2.721,0.424-5.207,1.647-7.858,2.306c-1.945,0.95-3.887,1.899-5.832,2.848
				c-0.36,0.247-0.711,0.506-1.081,0.733c-9.048,5.58-15.617,12.913-19.674,22.007C209.502,334.971,223.873,327.659,223.873,327.659
				z"/>
			<path fill="#FCFCFC" d="M199.021,360.236c-0.106,0.452-0.221,0.898-0.316,1.358c-1.655,7.938-1.259,15.827,0.799,23.139
				c0.185-0.13,0.365-0.265,0.548-0.395C197.566,375.122,197.565,367.106,199.021,360.236z"/>
			<g>
				<path fill="#158C56" d="M180.054,355.532c-6.646,3.004-13.417,5.821-20.785,6.668c-0.09,12.641-0.051,25.284-0.338,37.922
					c-0.103,4.542,1.98,4.73,5.183,3.335c6.517-2.838,13.188-5.42,19.418-8.803c2.161-1.174,4.268-2.4,6.35-3.652
					c-4.604-13.431-4.347-27.644,0.435-40.59C186.989,352.224,183.577,353.939,180.054,355.532z"/>
				<path fill="#158C56" d="M259.337,275.789c-1.056,0.844-1.591,2.273-2.219,3.536c-1.996,4.013-3.474,8.333-5.837,12.104
					c-3.305,5.274-6.801,10.34-10.502,15.18c-1.235,1.615-2.494,3.205-3.775,4.77c0.207,0.038,0.414,0.076,0.62,0.114
					c0.727-0.289,1.463-0.521,2.262-0.391c4.915-0.721,9.809-0.696,14.679-0.093c2.882-8.183,5.033-16.566,6.285-25.204
					c0.006-0.036,0.01-0.073,0.015-0.11c0.29-2.012,0.522-4.039,0.714-6.079c0.142-1.511,0.266-3.025,0.352-4.552
					C260.79,274.986,259.97,275.282,259.337,275.789z"/>
			</g>
			<path fill="#FCFCFC" d="M211.76,374.826c-0.849,0.514-1.508,1.185-1.961,1.954c0.916-0.772,1.832-1.546,2.727-2.339
				C212.268,374.551,212.011,374.674,211.76,374.826z"/>
			<path fill="#FCFCFC" d="M240.779,306.609c-1.235,1.615-2.494,3.205-3.775,4.77l0,0
				C238.285,309.814,239.543,308.225,240.779,306.609z"/>
			<path fill="#FCFCFC" d="M259.337,275.789c-1.056,0.844-1.591,2.273-2.219,3.535c-1.996,4.012-3.474,8.333-5.837,12.105
				c2.363-3.771,3.841-8.092,5.837-12.104C257.746,278.063,258.281,276.633,259.337,275.789z"/>
			<path fill="#FCFCFC" d="M180.054,355.532c3.523-1.593,6.935-3.309,10.263-5.12v-0.001
				C186.99,352.223,183.577,353.939,180.054,355.532c-6.646,3.003-13.416,5.819-20.785,6.667v0.001l0,0
				C166.637,361.354,173.408,358.536,180.054,355.532z"/>
			<path fill="#FCFCFC" d="M159.269,362.2c-0.09,12.641-0.051,25.284-0.338,37.921c0,0,0,0,0,0.001
				C159.218,387.484,159.179,374.841,159.269,362.2L159.269,362.2z"/>
			<path fill="#FCFCFC" d="M261.93,275.064c-0.086,1.526-0.21,3.041-0.352,4.552C261.72,278.105,261.844,276.591,261.93,275.064z"/>
			<path fill="#FCFCFC" d="M260.85,285.806c0.006-0.036,0.01-0.073,0.015-0.11C260.859,285.732,260.855,285.77,260.85,285.806z"/>
			<polygon fill="#FCFCFC" points="159.269,362.2 159.269,362.2 159.269,362.2 			"/>
			<polygon fill="#212222" points="414.191,272.054 414.191,272.055 414.193,272.054 			"/>
			<path fill="#212222" d="M414.176,272.066c0.005-0.004,0.011-0.008,0.016-0.012c0,0,0,0,0-0.001
				C414.188,272.059,414.183,272.063,414.176,272.066z"/>
			<path fill="#212222" d="M250.431,321.498c0.232-0.534,0.472-1.067,0.698-1.603C250.903,320.431,250.664,320.964,250.431,321.498
				L250.431,321.498z"/>
			<path fill="#212222" d="M270.475,421.148c0.02,0.207,0.022,0.386,0.01,0.538C270.497,421.534,270.494,421.355,270.475,421.148z"
				/>
			<path fill="#212222" d="M304.872,354.024c-0.134-0.221-0.205-0.444-0.157-0.678C304.667,353.58,304.737,353.803,304.872,354.024z
				"/>
			<path fill="#212222" d="M254.564,311.01L254.564,311.01c-0.989,2.809-2.062,5.596-3.219,8.358
				C252.503,316.605,253.575,313.819,254.564,311.01z"/>
			<path fill="#212222" d="M424.049,300.948c-0.756-1.128-0.66-1.733,0.502-2.611c5.044-3.809,7.28-8.901,6.484-15.237
				c-0.397-0.368-0.481-0.769-0.129-1.217c-0.186-0.716-0.373-1.432-0.562-2.147c-0.595-0.087-0.61-0.423-0.367-0.866
				c-0.156-0.404-0.259-0.843-0.476-1.212c-4.099-6.953-8.109-13.958-12.35-20.823c-3.487-5.647-10.834-8.413-17.344-6.944
				c-1.692,0.382-3.438,2.098-4.807,1.412c-1.335-0.668-1.886-2.817-2.888-4.242c-1.932-2.744-5.081-3.51-7.65-1.942
				c-2.683,1.639-3.32,4.784-1.704,7.866c0.795,1.516,2.773,3.033,2.145,4.495c-0.568,1.316-2.725,1.968-4.212,2.862
				c-1.489,0.896-3.109,2.528-4.505,2.368c-1.495-0.171-1.865-2.675-2.88-4.06c-0.129-0.175-0.231-0.368-0.356-0.547
				c-1.778-2.506-5.042-3.245-7.53-1.707c-2.58,1.596-3.346,4.686-1.82,7.464c0.631,1.147,1.265,2.303,2.014,3.373
				c0.729,1.046,0.645,1.624-0.467,2.43c-4.987,3.614-7.255,8.581-6.758,14.721c0.115,1.425-0.302,2.176-1.553,2.913
				c-21.945,12.937-43.861,25.92-65.758,38.938c-1.249,0.743-2.031,0.806-3.182-0.224c-1.1-0.983-2.225-1.917-3.372-2.807
				c-1.779,4.839-3.724,9.634-5.795,14.381c-2.857,6.549-5.98,12.789-9.363,18.729c3.864,8.491,14.49,12.382,23.078,7.62
				c3.808-2.11,3.946-2.123,4.357,2.289c1.289,13.831-2.521,26.141-11.268,36.938c-3.946,4.87-8.845,8.573-14.14,11.816
				c-0.119,0.081-0.237,0.161-0.357,0.242c-2.639,0.913-4.932,2.648-7.71,3.228c-1.295,0.427-2.593,0.852-3.888,1.278
				c-5.876,1.088-11.761,1.649-17.759,0.993c-8.602-0.942-16.427-4.097-23.023-8.798c-3.222,2.219-6.522,4.347-9.921,6.361
				c12.075,9.928,27.821,15.108,43.887,13.663c7.927-0.713,15.362-2.992,22.511-6.373c0.834-0.568,1.669-1.141,2.504-1.709
				c3.292-1.438,6.054-3.647,8.711-6.006c0.376-0.206,0.749-0.413,1.124-0.621c0.223-0.18,0.447-0.36,0.67-0.54
				c0.046-0.385,0.273-0.601,0.638-0.688c0.142-0.165,0.273-0.339,0.427-0.492c16.014-16.139,22-35.323,17.436-57.665
				c-0.336-1.647,0.054-2.404,1.478-3.243c21.823-12.856,43.622-25.757,65.377-38.733c1.538-0.917,2.491-0.691,3.85,0.184
				c4.064,2.618,8.495,3.181,13.186,1.989c1.453-0.37,2.941-1.999,4.149-1.281c1.215,0.724,1.749,2.592,2.585,3.956
				c1.825,2.981,4.89,3.935,7.646,2.379c2.732-1.537,3.503-4.773,1.944-7.808c-0.815-1.587-2.854-3.205-2.25-4.67
				c0.562-1.357,2.853-2.018,4.406-2.945c4.465-2.661,4.471-2.653,7.156,1.689c0.115,0.186,0.22,0.378,0.344,0.559
				c1.725,2.5,4.729,3.316,7.297,1.984c2.5-1.295,3.565-4.364,2.361-7.156C425.6,303.427,424.855,302.152,424.049,300.948z
				 M265.696,419.642c1.312,0.313,2.225,1.121,2.794,2.384C267.92,420.763,267.008,419.955,265.696,419.642z M268.623,422.241
				c0.131,0.047,0.262,0.092,0.387,0.133C268.885,422.333,268.754,422.288,268.623,422.241z M270.022,422.463
				c0.255-0.089,0.426-0.317,0.462-0.776c0.013-0.152,0.01-0.331-0.01-0.538c0.02,0.207,0.022,0.386,0.01,0.538
				C270.448,422.146,270.277,422.375,270.022,422.463z M304.872,354.024c-0.135-0.222-0.205-0.444-0.157-0.678
				C304.667,353.58,304.738,353.804,304.872,354.024c0.2-0.321,0.113-0.62-0.067-0.914
				C304.986,353.403,305.072,353.703,304.872,354.024z M366.414,307.03c-15.585,9.241-31.174,18.47-46.764,27.701
				c-3.237,1.919-6.462,3.86-9.724,5.739c-0.975,0.562-1.773,1.24-2.322,2.218c0.003,0.138,0.009,0.276,0.012,0.414
				c0.01,0.061,0.02,0.121,0.031,0.183l-0.027-0.007c-0.001-0.059-0.003-0.117-0.004-0.176c-0.021-0.127-0.044-0.255-0.064-0.381
				c-1.868,0.168-3.374,1.232-4.914,2.118c-1.817,1.042-3.621,2.111-5.425,3.178c-3.145,1.857-6.282,3.725-9.426,5.583
				c-3.341,1.972-6.211,1.457-7.938-1.406c-1.787-2.956-0.871-5.734,2.594-7.79c3.112-1.847,6.228-3.688,9.34-5.532
				c5.898-3.493,11.797-6.988,17.694-10.481c17.322-10.259,34.66-20.49,51.94-30.817c1.768-1.055,2.62-0.839,3.467,0.945
				c0.714,1.505,1.688,2.887,2.53,4.334C369.128,305.797,369.307,305.314,366.414,307.03z M417.235,289.982
				c-9.298,5.582-18.624,11.115-27.995,16.57c-3.303,1.92-6.225,1.029-8.184-2.252c-3.547-5.938-7.067-11.89-10.572-17.852
				c-2.052-3.489-1.338-6.398,2.176-8.529c4.917-2.981,9.888-5.875,14.836-8.805c4.109-2.435,8.21-4.882,12.329-7.298
				c3.584-2.101,6.532-1.334,8.671,2.227c1.386,2.31,2.73,4.645,4.137,6.941c0.337,0.553,0.502,1.493,1.549,1.091
				c-0.003-0.002-0.002-0.006-0.005-0.009l0.014,0.007c-0.001-0.006,0.001-0.012,0.001-0.02c-0.005,0.004-0.011,0.008-0.016,0.012
				c0.007-0.004,0.012-0.008,0.016-0.013c0,0,0,0,0.002,0c-0.001,0-0.001,0.001-0.002,0.001c0,0.008-0.002,0.014-0.001,0.02
				c-0.003,0.002-0.006,0.002-0.009,0.002c0.328,0.498,0.153,0.997,0.002,1.497c0.057,0.136,0.113,0.271,0.171,0.405
				c1.603,2.689,3.234,5.36,4.803,8.069C420.902,285.063,420.225,288.188,417.235,289.982z"/>
			<path fill="#212222" d="M199.504,384.733c-3.105,2.189-6.313,4.278-9.622,6.269v0.001
				C193.19,389.013,196.399,386.924,199.504,384.733C199.504,384.733,199.504,384.733,199.504,384.733z"/>
			<path fill="#212222" d="M204.743,396.844c-3.059,2.084-6.195,4.062-9.409,5.92c3.586,5.972,8.145,11.195,13.403,15.519
				c3.399-2.015,6.7-4.143,9.921-6.361C213.016,407.899,208.279,402.744,204.743,396.844z"/>
			<path fill="#212222" d="M263.09,323.811c4.075,1.404,7.382,3.238,9.877,4.933c1.496,0.89,2.953,1.846,4.35,2.91
				c1.302,0.994,1.73,1.337,1.279,1.813c0.002,0.002,0.006,0.007,0.006,0.007c-0.013,0.008-0.024,0.016-0.038,0.023
				c-0.244,0.242-0.692,0.52-1.396,0.939c-0.45,0.269-0.885,0.546-1.304,0.831c-7.993,5.892-8.394,12.878-7.74,16.951
				c0.016,0.087,0.027,0.173,0.044,0.26c0.029,0.167,0.06,0.331,0.092,0.487c0.255,1.182,0.631,2.299,1.108,3.348
				c3.383-5.939,6.506-12.18,9.363-18.729c2.071-4.747,4.016-9.542,5.795-14.381c-5.394-4.183-11.311-7.331-17.729-9.456
				C265.668,317.146,264.431,320.502,263.09,323.811z M268.112,324.539c0.019,0.014,0.037,0.024,0.055,0.04
				c0.062,0.011,0.122,0.021,0.185,0.031c-0.037,0.009-0.08,0.036-0.109,0.024c-0.026-0.012-0.05-0.035-0.075-0.056
				c-0.021-0.005-0.04-0.008-0.062-0.011c-0.2-0.053-0.398-0.104-0.598-0.154c-0.2-0.051-0.399-0.103-0.599-0.153
				c-0.2-0.051-0.399-0.103-0.599-0.154c-0.2-0.049-0.399-0.102-0.599-0.153l0.006-0.025c0.201,0.051,0.4,0.101,0.599,0.153
				c0.2,0.051,0.398,0.102,0.6,0.152c0.198,0.052,0.398,0.102,0.599,0.154C267.713,324.438,267.913,324.488,268.112,324.539z"/>
			<path fill="#0F6D45" d="M294.77,90.278c0-1.829-0.123-3.658-0.188-5.487c-10.007,2.349-20.11,4.215-29.782,7.947
				c-61.277,23.645-98.125,68.159-112.792,131.672c-2.855,12.361-4.5,24.884-3.975,37.619h0c0.21,0.05,0.42,0.104,0.63,0.161
				c0.758,0.2,1.514,0.421,2.283,0.501c7.88,0.822,7.943,0.811,7.949,9.052c0.021,28.161-0.013,56.323,0.003,84.487
				c0.001,1.988,0.242,3.979,0.371,5.97v-0.001c7.369-0.848,14.139-3.664,20.785-6.668c3.523-1.592,6.936-3.309,10.263-5.12
				c18.295-9.961,33.694-23.169,46.687-39.032c1.281-1.564,2.54-3.154,3.775-4.77c3.701-4.84,7.197-9.905,10.502-15.18
				c2.363-3.772,3.841-8.094,5.837-12.105c0.628-1.262,1.163-2.691,2.219-3.535c0.633-0.507,1.453-0.803,2.593-0.725
				c0.338-2.805,0.668-5.611,1.021-8.416c0.245-1.953,1.004-3.278,2.326-4.021c0.793-0.446,1.79-0.684,3-0.721
				c5.863-0.184,6.992,0.791,6.755,6.783c-0.614,15.476-3.453,30.643-8.236,45.059c6.419,2.125,12.336,5.273,17.729,9.456
				c5.878-15.989,9.876-32.49,10.055-49.589C295.223,212.508,294.789,151.391,294.77,90.278z M245.929,177.111
				c-7.497-0.084-13.13-6.123-13.044-13.98c0.085-7.755,5.467-13.217,13.061-13.257c7.891-0.042,13.188,5.412,13.179,13.567
				C259.116,171.537,253.649,177.199,245.929,177.111z"/>
			<path fill="#212222" d="M237.004,311.379L237.004,311.379c-12.993,15.863-28.392,29.071-46.687,39.032v0.001
				C208.612,340.451,224.011,327.242,237.004,311.379z"/>
			<path fill="#212222" d="M251.345,319.368c-0.073,0.176-0.142,0.353-0.216,0.527C251.204,319.721,251.272,319.544,251.345,319.368
				z"/>
			<path fill="#D8A744" d="M200.052,384.339C200.052,384.339,200.052,384.339,200.052,384.339c3.371-2.398,6.618-4.919,9.746-7.557
				c0-0.001,0-0.001,0.001-0.002C206.671,379.419,203.423,381.939,200.052,384.339z"/>
			<path fill="#D8A744" d="M212.526,374.441c0,0,0.001-0.001,0.002-0.001c13.966-12.382,25.374-27.266,34.091-44.759
				C237.902,347.175,226.493,362.06,212.526,374.441z"/>
			<path fill="#D8A744" d="M246.619,329.682c1.301-2.611,2.525-5.244,3.686-7.894l0,0
				C249.145,324.438,247.92,327.07,246.619,329.682z"/>
			<path fill="#724806" d="M262.922,324.219c-9.048,22.166-22.794,42.171-40.152,58.254c0.357,0.604,0.719,1.207,1.077,1.813
				l45.229-28.639c0,0-0.473-1.018-0.816-2.681c-0.01-0.048-0.023-0.093-0.033-0.141c-0.024-0.116-0.037-0.231-0.059-0.347
				c-0.015-0.086-0.029-0.172-0.044-0.26c-1.177-6.785,1.539-12.732,7.74-16.951c0.819-0.603,1.716-1.195,2.7-1.771
				c0.01-0.01,0.023-0.021,0.032-0.03c-0.073-0.083-1.988-2.25-5.629-4.724c-2.632-1.563-5.386-2.912-8.157-4.229
				C264.176,324.43,263.547,324.332,262.922,324.219z"/>
			<path fill="#D8A744" d="M214.458,390.229c-0.077-0.131-0.154-0.263-0.231-0.394c-1.256,1.005-2.529,1.99-3.816,2.956
				L214.458,390.229z"/>
			<path fill="#158C56" d="M239.886,311.103c-0.798-0.13-1.535,0.102-2.262,0.391c-0.207-0.038-0.413-0.076-0.62-0.114
				c-12.993,15.863-28.392,29.072-46.687,39.033c-4.782,12.946-5.039,27.159-0.435,40.59c3.309-1.99,6.517-4.079,9.622-6.269
				c-2.058-7.312-2.454-15.2-0.799-23.139c0.096-0.46,0.21-0.906,0.316-1.358c0.661-3.119,1.62-6.002,2.784-8.653
				c-1.154,2.726-2.074,5.616-2.784,8.653c-1.457,6.87-1.456,14.886,1.031,24.103c3.371-2.399,6.619-4.92,9.747-7.559
				c0.453-0.77,1.112-1.44,1.961-1.954c0.251-0.152,0.508-0.275,0.766-0.385c13.967-12.382,25.376-27.267,34.093-44.76
				c1.301-2.611,2.526-5.244,3.686-7.894c-2.826-0.149-5.654-0.053-8.483,0.206c-5.431,0.794-11.422,2.548-17.949,5.665
				c0,0-14.371,7.312-21.681,23.065c4.057-9.094,10.625-16.427,19.674-22.007c0.37-0.228,0.72-0.486,1.081-0.733
				c1.944-0.948,3.887-1.897,5.832-2.848c2.651-0.658,5.137-1.882,7.858-2.306c0.905-0.192,1.809-0.386,2.715-0.579
				c0.823-0.1,1.647-0.183,2.47-0.258c3.049-0.446,5.919-0.587,8.609-0.496c0.232-0.534,0.472-1.067,0.698-1.603
				c0.074-0.175,0.143-0.352,0.216-0.527c1.158-2.763,2.23-5.55,3.219-8.358C249.695,310.406,244.801,310.382,239.886,311.103z"/>
			<path fill="#D8A744" d="M250.305,321.788L250.305,321.788c0.042-0.097,0.084-0.193,0.126-0.29l0,0
				C250.389,321.595,250.347,321.691,250.305,321.788z"/>
			<path fill="#D8A744" d="M278.602,333.474c0,0-0.004-0.005-0.006-0.007c-0.009,0.01-0.022,0.021-0.032,0.03
				C278.577,333.489,278.589,333.481,278.602,333.474z"/>
			<path fill="#D8A744" d="M264.81,324.514c2.771,1.317,5.525,2.666,8.157,4.229c-2.495-1.694-5.802-3.528-9.877-4.933
				c-0.055,0.137-0.112,0.271-0.168,0.408C263.547,324.332,264.176,324.43,264.81,324.514z"/>
			<path fill="#D8A744" d="M268.123,352.219c-0.653-4.073-0.253-11.06,7.74-16.951C269.662,339.486,266.946,345.434,268.123,352.219
				z"/>
			<path fill="#D8A744" d="M268.259,352.966c-0.032-0.156-0.063-0.32-0.092-0.487c0.021,0.115,0.034,0.23,0.059,0.347
				C268.235,352.873,268.249,352.918,268.259,352.966z"/>
			<path fill="#D8A744" d="M204.535,396.512l0.002-0.002c-0.003-0.005-0.007-0.011-0.011-0.017
				C204.529,396.499,204.532,396.506,204.535,396.512z"/>
			<path fill="#D8A744" d="M250.305,321.788c1.768,0.093,3.536,0.274,5.303,0.589c0.402,0.07,0.845-0.103,1.269-0.163
				c1.91,1.034,3.948,1.621,6.046,2.005c0.056-0.137,0.113-0.271,0.168-0.408c-3.62-1.247-7.849-2.15-12.659-2.313
				C250.389,321.595,250.347,321.691,250.305,321.788z"/>
			<path fill="#D8A744" d="M201.892,351.383c0.096-0.223,0.202-0.438,0.301-0.658C202.091,350.942,201.99,351.161,201.892,351.383z"
				/>
		</g>
		<path fill="#DDDDDD" d="M220.972,401.159c1.807,2.997,5.128,3.818,7.857,2.099c2.663-1.68,3.339-4.849,1.618-7.816
			c-1.787-3.074-3.62-6.123-5.435-9.182c-0.39-0.659-0.778-1.316-1.166-1.975l-9.388,5.944
			C216.614,393.881,218.782,397.525,220.972,401.159z"/>
		<path fill="#1E1C1D" d="M204.526,396.493c-2.16-3.672-3.857-7.623-5.022-11.759c-3.105,2.189-6.314,4.278-9.623,6.269
			c0.827,2.411,1.801,4.8,2.943,7.148c0.771,1.584,1.613,3.119,2.509,4.612c3.214-1.858,6.35-3.836,9.409-5.92
			c-0.067-0.112-0.14-0.221-0.206-0.334l-0.002,0.002C204.532,396.506,204.529,396.499,204.526,396.493z"/>
	</g>
	<path fill="#999898" d="M279.369,350.76l27.88-21.048c0,0-21.503,12.441-25.313,15.206
		C281.936,344.918,278.997,346.985,279.369,350.76z"/>
	<g>
		<path fill="#999898" d="M376.472,285.552c-1.845-2.898-1.165-6.06,2.097-8.011c5.359-3.205,10.595-6.631,16.197-9.417
			c0.826-0.412,1.5-1.124,2.312-1.572c2.912-1.605,6.388-0.83,7.75,1.928c0.534,1.08,0.764,2.256,0.67,3.393l5.149-4.203
			c0,0-3.382-13.359-15.842-2.891L370.979,279.2c0,0-2.352,1.595-1.978,4.358l7.059,12.341l17.156-14.003
			c-2.898,1.718-5.789,3.451-8.7,5.146C381.36,288.879,378.208,288.278,376.472,285.552z"/>
		<path fill="#212222" d="M405.497,271.872c0.094-1.137-0.136-2.313-0.67-3.393c-1.362-2.758-4.838-3.533-7.75-1.928
			c-0.812,0.448-1.485,1.16-2.312,1.572c-5.603,2.786-10.838,6.212-16.197,9.417c-3.262,1.951-3.941,5.112-2.097,8.011
			c1.736,2.727,4.889,3.327,8.044,1.49c2.911-1.694,5.802-3.428,8.7-5.146c0.104-0.062,0.208-0.123,0.312-0.184
			c3.066-1.814,6.147-3.602,9.191-5.455C404.471,275.191,405.354,273.576,405.497,271.872z"/>
	</g>
</g>
<path fill="#212222" d="M268.277,261.906c-1.21,0.038-2.207,0.274-3,0.721c-1.322,0.743-2.081,2.068-2.326,4.021
	c-0.354,2.805-0.684,5.611-1.021,8.416c-0.086,1.526-0.21,3.041-0.352,4.552c-0.191,2.04-0.424,4.067-0.714,6.079
	c-0.005,0.037-0.009,0.074-0.015,0.11c-1.252,8.638-3.404,17.021-6.285,25.204c-0.989,2.81-2.062,5.596-3.219,8.358
	c-0.037,0.088-0.072,0.176-0.108,0.264l-1.532,3.482c-0.984,2.201-2.002,4.394-3.086,6.567
	c-8.717,17.493-20.125,32.377-34.09,44.759c-0.259,0.109-0.517,0.233-0.769,0.386c-0.85,0.515-1.509,1.187-1.962,1.956
	c-3.127,2.638-6.375,5.158-9.745,7.558c1.037,3.842,2.498,7.89,4.474,12.153c0.003,0.006,0.007,0.012,0.011,0.017l5.873-3.718
	c1.288-0.966,2.561-1.951,3.816-2.956c-1.419-2.408-2.838-4.814-4.243-7.229c1.481,2.547,2.977,5.084,4.474,7.623l9.388-5.944
	c-0.357-0.605-0.719-1.208-1.076-1.813c17.085-15.831,30.661-35.467,39.712-57.218l0.012,0.001l0.337-0.823
	c0.029-0.072,0.062-0.143,0.091-0.214c-0.001,0-0.002,0-0.003-0.001l0.167-0.408c0.002,0,0.003,0.001,0.004,0.001
	c0.023-0.058,0.044-0.117,0.067-0.175l0.151-0.369l-0.008-0.002c1.257-3.133,2.429-6.304,3.495-9.517
	c4.783-14.416,7.622-29.583,8.236-45.059C275.27,262.697,274.141,261.723,268.277,261.906z"/>
<g>
	<path fill-rule="evenodd" clip-rule="evenodd" fill="#724806" stroke="#231F20" stroke-width="14" stroke-miterlimit="10" d="
		M167.325,101.836c0,0-134.864,45.775-91.213,94.867C119.763,245.792,184.495,258.418,167.325,101.836z"/>
	<path fill-rule="evenodd" clip-rule="evenodd" fill="#724806" stroke="#231F20" stroke-width="14" stroke-miterlimit="10" d="
		M169.154,139.736c13.06-18.565,62.762-11.639,58.587-56.613c-4.912-52.938-60.235-78.019-71.554-65.529
		c-11.32,12.488-5.942,26.925-28.886,30.306c-22.43,3.305-77.674-42.51-15.395,112.74
		C111.907,160.64,128.269,197.856,169.154,139.736z"/>
	<path fill-rule="evenodd" clip-rule="evenodd" fill="#724806" stroke="#231F20" stroke-width="14" stroke-miterlimit="10" d="
		M151.476,207.375c0,0,12.388-123.473,117.094-154.001c0,0,4.112-2.63,4.296,6.711C273.051,69.426,159.365,238.813,151.476,207.375z
		"/>
	<path fill-rule="evenodd" clip-rule="evenodd" fill="none" stroke="#231F20" stroke-width="14" stroke-miterlimit="10" d="
		M105.111,135.695c0,0,112.034-39.685,118.025-72.706"/>
	<path fill="#5E3704" d="M87.521,203.006c0,0,2.155-42.903,17.083-49.755l-4.627-14.27
		C99.976,138.981,44.596,169.634,87.521,203.006z"/>
	<path fill-rule="evenodd" clip-rule="evenodd" fill="#5E3704" d="M204.42,98.487c0,0,54.478-27.612,56.597-23.724
		c0,0,19.584-27.738-1.954-13.614C259.063,61.149,221.12,74.285,204.42,98.487z"/>
	<path fill-rule="evenodd" clip-rule="evenodd" fill="#5E3704" d="M121.898,124.952c0,0-30.933-74.982-18.535-76.483
		c0,0-13.323-3.466-15.39,5.627c0,0-4.271,11.179,3.102,36.529c0,0,10.303,34.454,13.797,41.17
		C104.872,131.795,119.311,126.945,121.898,124.952z"/>
	<path fill-rule="evenodd" clip-rule="evenodd" fill="#442602" d="M124.937,132.466c0,0,12.746,30.38,19.098,29.839
		c0,0-20.467,15.296-28.074-0.614l-8.625-22.521C107.335,139.171,122.688,132.724,124.937,132.466z"/>
	<path fill-rule="evenodd" clip-rule="evenodd" fill="#5E3704" d="M107.335,139.171"/>
	<path fill-rule="evenodd" clip-rule="evenodd" fill="#5E3704" d="M124.937,132.466c0,0,61.493-26.38,67.999-33.316
		c6.505-6.936-43.13,63.623-50.032,64.155C142.904,163.305,131.3,152.719,124.937,132.466z"/>
</g>
<path fill="#158C56" d="M159.269,404.223c0,0,59.578-20.588,77.829-58.047c0,0,28.781-52.381,17.467-52.903
	c0,0-52.015,59.728-76.29,64.228"/>
</svg>
