<?xml version="1.0" encoding="utf-8"?>
<!-- Generator: Adobe Illustrator 16.0.0, SVG Export Plug-In . SVG Version: 6.00 Build 0)  -->
<!DOCTYPE svg PUBLIC "-//W3C//DTD SVG 1.1//EN" "http://www.w3.org/Graphics/SVG/1.1/DTD/svg11.dtd">
<svg version="1.1" id="Layer_1" xmlns="http://www.w3.org/2000/svg" xmlns:xlink="http://www.w3.org/1999/xlink" x="0px" y="0px"
	 width="512px" height="512px" viewBox="0 0 512 512" enable-background="new 0 0 512 512" xml:space="preserve">
<g>
	<path fill="#FEFEFE" d="M257.014,513c-83.979,0-167.959-0.021-251.938,0.085c-3.261,0.004-4.18-0.434-4.178-4.009
		C1.015,341.117,1.017,173.158,0.893,5.199C0.89,1.455,1.83,0.912,5.299,0.914C173.091,1.013,340.884,1.012,508.676,0.92
		c3.403-0.002,4.439,0.443,4.438,4.254c-0.13,167.959-0.127,335.918-0.013,503.877c0.003,3.526-0.836,4.042-4.149,4.037
		C424.972,512.977,340.992,513,257.014,513z M272.777,455.225c10.164,0,20.33,0.003,30.494-0.002
		c1.809-0.001,3.567,0.366,3.672-2.58c0.619-17.766-9.043-32.849-25.389-37.327c-6.031-1.652-10.49-4.304-14.242-8.88
		c-0.843-1.026-1.668-2.114-2.695-2.933c-3.961-3.146-3.785-5.918-0.463-9.834c32.728-38.576,47.753-83.573,47.833-133.841
		c0.006-3.903,1.598-6.3,5.249-6.509c6.315-0.361,11.83-3.308,17.271-5.678c18.364-8,31.744-21.559,40.445-39.629
		c3.771-7.836,6.041-16.197,7.78-24.669c0.521-2.546,1.435-3.281,3.883-3.166c3.823,0.18,7.667-0.072,11.493,0.084
		c2.997,0.123,4.107-1.037,4.16-4.061c0.289-16.634-1.425-32.987-7.961-48.409c-10.039-23.688-25.363-42.393-49.22-53.944
		c-12.065-5.843-24.119-10.162-37.438-10.882c-37.188-2.012-71.211,8.229-103.104,26.689c-0.718,0.415-1.407,0.881-2.11,1.321
		c-10.753,6.744-20.693,14.544-29.987,23.172c-1.914,1.776-3.623,3.576-6.235,0.927c-4.672-4.738-9.417-9.404-14.181-14.051
		c-2.311-2.255-3.327-4.517-2.249-7.97c2.242-7.175-5.72-17.817-12.889-17.221c-9.791,0.814-15.646,6.624-14.728,16.159
		c0.892,9.262,7.519,14.193,17.129,12.541c2.976-0.512,5.174,0.242,6.942,2.622c3.388,4.56,7.364,8.593,11.363,12.604
		c4.739,4.752,4.589,4.628,0.157,9.907c-30.366,36.172-47.201,77.825-47.803,125.096c-0.751,58.979-0.167,117.974-0.196,176.961
		c-0.004,8.156-0.228,16.313-0.337,24.468c-0.045,3.351,1.161,4.986,4.98,5.117c23.227,0.794,45.734-3.015,67.604-10.532
		c23.396-8.043,44.26-20.553,62.79-36.951c1.492-1.321,2.932-2.819,4.661-3.73c4.414-2.325,5.693,2.051,7.767,4.183
		c2.412,2.479-0.377,3.267-1.962,4.255c-12.037,7.507-16.794,18.778-16.832,32.495c-0.008,2.892,0.871,4.389,4.355,4.295
		C252.777,455.05,262.779,455.225,272.777,455.225z"/>
	<path fill="#F9A7A7" d="M358.922,161.465c-16.44,1.076-32.902,0.165-49.351,0.51c-3.5,0.073-2.479-2.387-2.489-4.119
		c-0.099-18.292-0.166-36.585-0.157-54.878c0.003-6.976,0.224-13.951,0.344-20.927c1.956,0.886,3.999,1.62,5.854,2.684
		c11.271,6.469,20.35,15.413,27.845,25.869C351.836,125.768,358.372,142.593,358.922,161.465z"/>
	<path fill="#F9A7A7" d="M361.324,194.08c-8.85,22.984-25.454,36.792-49.479,41.823c-3.264,0.684-5.114,0.355-5.043-3.982
		c0.297-17.82,0.206-35.647,0.24-53.473c0.004-2.004-0.422-4.301,2.928-3.237c0.612,0.532,1.14,1.312,1.851,1.562
		C328.31,182.576,344.819,188.323,361.324,194.08z"/>
	<path fill="#E08585" d="M358.922,161.465c-0.55-18.872-7.086-35.697-17.956-50.861c-7.495-10.456-16.574-19.4-27.845-25.869
		c-1.854-1.063-3.896-1.798-5.854-2.684c0.646-1.578,1.966-0.903,2.993-0.784c36.496,4.24,67.812,35.034,72.818,71.569
		c1.227,8.953,1.227,8.99-7.728,8.938C369.876,161.743,364.399,161.572,358.922,161.465z"/>
	<path fill="#E08585" d="M361.324,194.08c-16.505-5.757-33.016-11.504-49.504-17.308c-0.711-0.25-1.237-1.029-1.851-1.562
		c17.701-0.909,35.412-0.252,53.119-0.326c2.01-0.009,3.187,0.421,2.863,2.757C365.169,183.339,365.14,189.239,361.324,194.08z"/>
	<path fill="#F2AC46" d="M284.029,442.141c-10.603,0-21.204,0-31.754,0c2.647-10.328,10.198-15.7,21.691-15.264
		c1.284,1.48,2.54,2.987,3.857,4.438C280.688,434.472,283.822,437.464,284.029,442.141z"/>
	<path fill="#E88D2E" d="M284.029,442.141c-0.207-4.677-3.342-7.669-6.206-10.825c-1.317-1.45-2.573-2.957-3.857-4.438
		c8.849-0.43,14.033,4.78,18.222,11.683c1.773,2.924,1.234,4.256-2.246,4.229C287.945,442.771,285.941,442.899,284.029,442.141z"/>
	<path fill="#1E1C1D" d="M147.813,420.508c-2.02-1.124-1.639-3.068-1.64-4.865c-0.027-49.248-0.044-98.496-0.088-147.746
		c-0.002-2.211-0.035-4.352,1.947-5.867c0.971,0.228,1.93,0.561,2.914,0.662c7.88,0.822,7.943,0.811,7.949,9.052
		c0.021,28.161-0.013,56.323,0.003,84.487c0.001,1.988,0.242,3.979,0.371,5.97c-0.09,12.641-0.051,25.284-0.338,37.922
		c-0.103,4.543,1.98,4.73,5.183,3.336c6.517-2.838,13.188-5.42,19.418-8.804c27.758-15.069,48.95-36.602,63.087-64.973
		c8.592-17.242,14.225-35.283,15.311-54.617c0.34-2.805,0.67-5.611,1.021-8.416c0.393-3.125,2.1-4.643,5.326-4.742
		c5.863-0.184,6.992,0.791,6.755,6.783c-2.826,71.246-52.758,135.993-122.916,150.629
		C150.662,419.62,149.247,420.107,147.813,420.508z"/>
	<path fill="#1E1C1D" d="M259.125,163.441c-0.009,8.096-5.476,13.758-13.195,13.67c-7.498-0.085-13.13-6.123-13.044-13.98
		c0.085-7.755,5.467-13.217,13.061-13.257C253.837,149.832,259.134,155.286,259.125,163.441z"/>
</g>
<path fill="none" d="M152.005,224.409c-2.854,12.361-4.5,24.885-3.975,37.62c-1.982,1.516-1.949,3.656-1.947,5.867
	c0.044,49.248,0.061,98.498,0.088,147.745c0.003,1.796-0.378,3.742,1.642,4.866c1.434-0.399,2.849-0.888,4.303-1.189
	c70.158-14.636,120.09-79.383,122.916-150.629c0.237-5.992-0.892-6.967-6.755-6.783c-3.228,0.101-4.935,1.617-5.326,4.742
	c-0.354,2.805-0.684,5.611-1.021,8.416c-3.039-0.207-3.807,2.24-4.812,4.261c-1.996,4.013-3.474,8.333-5.837,12.104
	c-17.625,28.131-40.701,50.305-71.227,64.103c-6.646,3.004-13.417,5.821-20.785,6.668c-0.129-1.99-0.37-3.979-0.371-5.97
	c-0.017-28.164,0.018-56.326-0.003-84.487c-0.006-8.241-0.069-8.229-7.949-9.052c-0.983-0.103-1.943-0.436-2.914-0.661
	c-0.525-12.735,1.12-25.259,3.975-37.62c5.595-24.228,14.429-45.682,26.604-64.276c0-0.001,0-0.002,0-0.004
	C166.435,178.726,157.6,200.18,152.005,224.409z"/>
<path fill="#888888" d="M294.77,90.278c0-1.348-0.064-2.696-0.126-4.044l0.275,123.07
	C294.965,169.629,294.782,129.953,294.77,90.278z"/>
<path fill="#FCFCFC" d="M146.171,415.642c-0.027-49.247-0.044-98.497-0.088-147.745c-0.002-2.211-0.035-4.352,1.947-5.867
	c-0.525-12.735,1.121-25.259,3.975-37.62c5.595-24.229,14.43-45.684,26.605-64.279c-0.294-15.333,2.86-30.079,2.872-30.134
	c-17.823,17.283-31.649,38.046-41.294,62.425c-9.735,24.608-13.587,50.194-13.446,76.632c0.294,55.303,0.089,110.606,0.09,165.909
	c0,1.499,0.072,3,0.017,4.496c-0.088,2.395,0.629,3.615,3.403,3.384c6.112-0.511,12.244-0.764,18.146-2.66
	c-0.195-6.558-0.391-13.114-0.585-19.674C145.793,419.384,146.174,417.438,146.171,415.642z"/>
<path fill="#FCFCFC" d="M288.866,81.299c-1.643,0.154-3.279,0.327-4.912,0.515c2.971-0.303,6.013-0.536,9.114-0.705
	C291.847,80.726,290.149,81.178,288.866,81.299z"/>
<path fill="#FCFCFC" d="M245.946,149.874c-7.594,0.04-12.976,5.502-13.061,13.257c-0.086,7.857,5.547,13.896,13.044,13.98
	c7.72,0.088,13.187-5.574,13.196-13.67C259.134,155.286,253.837,149.832,245.946,149.874z"/>
<path fill="#FFFFFF" d="M294.931,214.5l-0.012-5.196c-0.002,1.72-0.007,3.439-0.01,5.16
	C294.922,214.485,294.931,214.5,294.931,214.5z"/>
<path fill="#FFFFFF" d="M294.579,84.791c-10.007,2.349-20.11,4.215-29.782,7.946c-37.901,14.625-66.445,37.243-86.187,67.393
	c0,0.001,0,0.002,0,0.004c19.742-30.151,48.286-52.771,86.188-67.396c9.672-3.732,19.775-5.598,29.782-7.947
	c0.018,0.481,0.04,0.962,0.063,1.442l-0.012-5.211c-0.525,0.024-1.042,0.058-1.563,0.086
	C294.131,81.441,294.835,82.403,294.579,84.791z"/>
<g>
	<path fill="#BFBEBE" d="M233.216,351.701c-4.419,5.863-8.271,10.289-10.309,12.546
		C226.563,360.279,229.998,356.097,233.216,351.701z"/>
	<path fill="#BFBEBE" d="M195.5,365c-9.003,7.543-14.453,0.52-17.087-8.735c-6.122,2.718-12.38,5.158-19.144,5.936l0,0
		c-0.09,12.641-0.051,25.284-0.338,37.921c-0.103,4.543,1.98,4.731,5.183,3.336c6.517-2.838,13.188-5.42,19.418-8.803
		c14.403-7.82,27.021-17.396,37.82-28.748C221.173,365.515,213.772,349.69,195.5,365z"/>
	<path fill="#BFBEBE" d="M259.337,275.789c-1.056,0.844-1.591,2.273-2.219,3.536c-1.996,4.013-3.474,8.333-5.837,12.104
		c-2.545,4.062-5.218,7.983-7.996,11.79c7.142,2.596,12.573,3.942,12.578,3.943c3.317-10.337,5.444-21.005,6.067-32.099
		C260.79,274.986,259.97,275.282,259.337,275.789z"/>
	<path fill="#BFBEBE" d="M280.5,216.5c-10,10-36.5,7.5-36.5-3.5s-9.5-20-43-18.92c-17.548,0.566-22.064-17.045-22.39-33.946
		c-12.175,18.595-21.009,40.048-26.604,64.276c-2.855,12.361-4.5,24.885-3.975,37.62c0.971,0.226,1.931,0.559,2.914,0.661
		c7.88,0.822,7.943,0.811,7.949,9.052c0.021,28.161-0.014,56.323,0.003,84.487c0.001,1.99,0.242,3.979,0.371,5.97v-0.001
		c6.764-0.778,13.021-3.218,19.143-5.936c-2.778-9.763-2.425-22.007,0.198-22.264c5.11-0.5,13.39-18.5-0.02-32
		s25.409-39.5,31.838-22c4.029,10.969,20.856,18.858,32.856,23.22c2.778-3.807,5.451-7.729,7.996-11.79
		c2.363-3.772,3.841-8.094,5.837-12.105c0.628-1.262,1.163-2.691,2.219-3.535c0.633-0.507,1.453-0.803,2.593-0.725
		c0.338-2.805,0.668-5.611,1.021-8.416c0.392-3.125,2.099-4.642,5.326-4.742c5.863-0.184,6.992,0.791,6.755,6.783
		c-2.826,71.246-52.758,135.993-122.916,150.629c-1.454,0.302-2.869,0.79-4.303,1.189c0.194,6.56,0.39,13.116,0.585,19.674
		c4.885,0.745,9.357-0.795,13.973-2.137c54.138-15.741,93.631-48.363,116.359-100.46c8.916-20.435,15.617-41.696,15.85-63.97
		c0.207-19.716,0.296-39.434,0.329-59.152C294.583,213.914,290.119,206.881,280.5,216.5z"/>
	<path fill="#BFBEBE" d="M178.413,356.265C178.413,356.264,178.412,356.264,178.413,356.265c-6.122,2.717-12.379,5.156-19.144,5.935
		v0.001l0,0C166.032,361.423,172.291,358.982,178.413,356.265z"/>
	<path fill="#BFBEBE" d="M259.337,275.789c-1.056,0.844-1.591,2.273-2.219,3.535c-1.996,4.012-3.474,8.333-5.837,12.105
		c2.363-3.771,3.841-8.092,5.837-12.104C257.746,278.063,258.281,276.633,259.337,275.789z"/>
	<path fill="#BFBEBE" d="M221.361,365.925c0,0,0.572-0.599,1.545-1.678c-0.514,0.558-1.032,1.11-1.554,1.659
		C221.355,365.911,221.361,365.925,221.361,365.925z"/>
	<path fill="#3A3738" d="M240.779,306.609c-16.039,20.972-35.922,37.712-60.725,48.923c-0.546,0.247-1.094,0.489-1.642,0.732
		c2.634,9.255,8.084,16.278,17.087,8.735c18.272-15.31,25.673,0.515,25.853,0.906c0.522-0.549,1.041-1.102,1.554-1.659
		c2.038-2.257,5.89-6.683,10.309-12.546c4.997-6.825,9.481-14.149,13.403-22.02c3.662-7.349,6.779-14.843,9.243-22.519
		c-0.004-0.001-5.436-1.348-12.578-3.943C242.455,304.356,241.629,305.496,240.779,306.609z"/>
	<path fill="#BFBEBE" d="M180.054,355.532c24.802-11.211,44.686-27.951,60.725-48.923
		C224.74,327.581,204.856,344.321,180.054,355.532c-0.546,0.246-1.094,0.488-1.642,0.731c0,0,0,0,0,0.001
		C178.96,356.021,179.508,355.779,180.054,355.532z"/>
</g>
<path fill="#1E1C1D" d="M207.346,419.094c0,0,10.715-37.381,43.935-36.737C251.281,382.356,237.192,402.688,207.346,419.094z"/>
<path fill="#1E1C1D" d="M210.429,280c-6.429-17.5-45.247,8.5-31.838,22s5.13,31.5,0.02,32c-2.623,0.257-2.977,12.501-0.198,22.264
	c0,0,0.001,0,0.001-0.001c0,0.001-0.001,0.002-0.001,0.002s42.157-17.075,64.872-53.045
	C231.285,298.858,214.458,290.969,210.429,280z"/>
<path fill="#3A3738" d="M146.077,270.997c-3.003-13.028-19.907-13.996-19.907-13.996v0.209l-0.078-0.055
	c0,0-1.468,60.356,0.156,86.988l0.002,1.762c0.036-0.016,0.074-0.022,0.11-0.035c0.001,0.012,0.001,0.023,0.002,0.035l0.294-0.113
	c3.566-0.572,9.492,9.887,9.492,9.887c8.237,4.777,9.979-17.371,9.979-17.371S147.142,274.091,146.077,270.997z"/>
<g>
	<path fill="none" d="M246.005,89.952c-1.213,0.403-2.423,0.82-3.627,1.253C243.583,90.773,244.792,90.355,246.005,89.952
		L246.005,89.952z"/>
	<path fill="none" d="M181.734,129.75c1.023-0.979,5.194-4.922,10.939-9.719C188.875,123.138,185.227,126.376,181.734,129.75z"/>
	<path fill="none" d="M222.635,99.941c0.386-0.207,0.775-0.403,1.163-0.605C223.411,99.539,223.021,99.735,222.635,99.941z"/>
	<path fill="none" d="M226.502,97.951c0.493-0.245,0.988-0.481,1.483-0.72C227.49,97.47,226.995,97.707,226.502,97.951z"/>
	<path fill="none" d="M238.334,92.722c0.587-0.23,1.174-0.465,1.764-0.688C239.508,92.257,238.922,92.492,238.334,92.722z"/>
	<path fill="none" d="M234.353,94.345c0.569-0.242,1.137-0.484,1.708-0.718C235.49,93.861,234.921,94.104,234.353,94.345z"/>
	<path fill="none" d="M230.408,96.087c0.541-0.249,1.083-0.494,1.626-0.736C231.492,95.593,230.949,95.838,230.408,96.087z"/>
	<path fill="none" d="M278.526,82.51c0.004-0.001,0.01-0.002,0.014-0.003c-1.466,0.204-2.927,0.422-4.384,0.656
		c0.048-0.006,0.096-0.012,0.144-0.018C275.705,82.92,277.113,82.707,278.526,82.51z"/>
	<path fill="none" d="M310.263,81.268c-1.029-0.121-2.349-0.795-2.994,0.783c-0.12,6.976-0.341,13.951-0.344,20.927
		c-0.009,18.293,0.06,36.586,0.157,54.878c0.01,1.732-1.011,4.192,2.489,4.119c16.448-0.345,32.909,0.566,49.351-0.51
		c5.479,0.107,10.954,0.278,16.433,0.31c8.952,0.052,8.952,0.015,7.727-8.938C378.073,116.302,346.759,85.508,310.263,81.268z"/>
	<path fill="none" d="M363.09,174.885c-17.707,0.074-35.418-0.583-53.12,0.326c-3.349-1.063-2.923,1.233-2.927,3.237
		c-0.034,17.825,0.057,35.652-0.24,53.473c-0.071,4.338,1.779,4.666,5.043,3.982c24.024-5.031,40.63-18.839,49.479-41.823
		c3.814-4.841,3.845-10.741,4.629-16.438C366.275,175.306,365.099,174.876,363.09,174.885z"/>
	<path fill="none" d="M245.946,149.874c-7.594,0.04-12.976,5.502-13.061,13.257c-0.086,7.857,5.547,13.896,13.044,13.98
		c7.72,0.088,13.187-5.574,13.196-13.67C259.134,155.286,253.837,149.832,245.946,149.874z"/>
	<path fill="none" d="M294.915,211.417c0.001-0.672,0.005-1.345,0.006-2.018c-0.001-0.001-0.001-0.004-0.002-0.005
		C294.918,210.068,294.916,210.743,294.915,211.417z"/>
	<path fill="none" d="M252.274,442.14c10.551,0.001,21.154,0.001,31.755,0.001c1.912,0.76,3.916,0.632,5.912,0.646
		c3.479,0.027,4.02-1.305,2.246-4.229c-4.188-6.901-9.375-12.111-18.224-11.683C262.471,426.438,254.921,431.812,252.274,442.14z"/>
	<path fill="none" d="M178.61,160.13c-0.124-6.439,0.361-12.77,0.966-17.957l0-0.003c0.823-7.064,1.867-11.995,1.903-12.162
		l0.001-0.01c-17.822,17.283-31.646,38.045-41.291,62.423c-9.735,24.607-13.587,50.194-13.446,76.632
		c0.294,55.303,0.089,110.606,0.09,165.909c0,1.499,0.071,3,0.017,4.496c-0.088,2.395,0.628,3.615,3.403,3.384
		c6.112-0.511,12.243-0.765,18.146-2.66c4.884,0.745,9.356-0.795,13.973-2.137c54.138-15.741,93.63-48.363,116.359-100.46
		c8.916-20.435,15.615-41.696,15.85-63.97c0.207-19.718,0.291-39.438,0.324-59.157c-0.345-0.579-4.81-7.555-14.406,2.042
		c-10,10-36.5,7.5-36.5-3.5s-9.5-20-43-18.92c-17.548,0.566-22.064-17.045-22.39-33.946c16.625-25.391,39.519-45.417,68.96-59.849
		c0,0,0-0.001,0-0.002C218.129,114.715,195.235,134.74,178.61,160.13z"/>
	<path fill="#1E1C1D" d="M394.31,127.792c-10.038-23.687-25.364-42.392-49.22-53.944c-12.065-5.843-24.119-10.162-37.438-10.882
		c-37.187-2.012-71.211,8.229-103.104,26.689c-0.717,0.415-1.407,0.881-2.11,1.321c-10.753,6.744-20.693,14.544-29.987,23.172
		c-1.914,1.777-3.623,3.576-6.235,0.927c-4.672-4.738-9.418-9.405-14.181-14.051c-2.312-2.255-3.328-4.517-2.249-7.97
		c2.242-7.175-5.72-17.818-12.889-17.221c-9.791,0.814-15.646,6.624-14.728,16.159c0.892,9.262,7.519,14.193,17.129,12.541
		c2.975-0.512,5.174,0.242,6.942,2.622c3.387,4.56,7.363,8.593,11.363,12.604c4.739,4.752,4.589,4.628,0.157,9.907
		c-30.365,36.172-47.201,77.825-47.803,125.096c-0.751,58.979-0.167,117.975-0.196,176.961c-0.004,8.156-0.228,16.313-0.337,24.468
		c-0.045,3.35,1.161,4.986,4.98,5.117c23.227,0.794,45.734-3.014,67.604-10.532c23.396-8.043,44.26-20.553,62.79-36.951
		c1.492-1.321,2.932-2.819,4.661-3.73c4.413-2.325,5.693,2.051,7.768,4.183c2.412,2.479-0.379,3.267-1.963,4.255
		c-12.037,7.507-16.794,18.778-16.832,32.495c-0.008,2.892,0.871,4.389,4.355,4.295c9.991-0.271,19.993-0.097,29.991-0.097
		c10.164,0,20.33,0.003,30.494-0.001c1.81-0.001,3.568,0.366,3.673-2.58c0.62-17.765-9.044-32.849-25.39-37.327
		c-6.029-1.652-10.49-4.304-14.242-8.88c-0.84-1.027-1.668-2.115-2.694-2.933c-3.961-3.146-3.785-5.918-0.464-9.834
		c32.729-38.576,47.754-83.574,47.834-133.841c0.006-3.904,1.598-6.3,5.249-6.509c6.315-0.362,11.83-3.308,17.271-5.678
		c18.364-8,31.744-21.559,40.445-39.629c3.771-7.836,6.041-16.197,7.78-24.669c0.521-2.546,1.435-3.281,3.883-3.166
		c3.823,0.18,7.667-0.072,11.493,0.084c2.997,0.123,4.107-1.038,4.161-4.061C402.56,159.567,400.846,143.214,394.31,127.792z
		 M273.964,426.876c8.849-0.429,14.035,4.781,18.224,11.683c1.773,2.924,1.233,4.256-2.246,4.229c-1.996-0.015-4,0.113-5.912-0.646
		c-10.602,0-21.204,0-31.755-0.001C254.921,431.812,262.471,426.438,273.964,426.876z M294.915,211.417
		c0.001-0.674,0.003-1.349,0.004-2.023c0.001,0.001,0.001,0.004,0.002,0.005C294.92,210.072,294.916,210.745,294.915,211.417z
		 M296,140.5c0,0,0,0-1.069,1s-6.431,5.5-6.419,0s-0.012-21.5-20.359-19.47c-12.867,1.284-18.313-11.886-20.582-21.746
		c-29.441,14.432-52.335,34.458-68.96,59.849c0.325,16.901,4.842,34.512,22.39,33.946C234.5,193,244,202,244,213s26.5,13.5,36.5,3.5
		c9.597-9.597,14.062-2.621,14.406-2.042c-0.033,19.72-0.117,39.439-0.324,59.157c-0.234,22.273-6.934,43.535-15.85,63.97
		c-22.729,52.097-62.222,84.719-116.359,100.46c-4.617,1.342-9.089,2.882-13.973,2.137c-5.903,1.896-12.034,2.149-18.146,2.66
		c-2.775,0.231-3.491-0.989-3.403-3.384c0.054-1.496-0.017-2.997-0.017-4.496c-0.001-55.303,0.204-110.606-0.09-165.909
		c-0.141-26.438,3.711-52.025,13.446-76.632c9.645-24.377,23.469-45.14,41.291-62.423l0.001-0.006c0,0,0.064-0.062,0.188-0.181
		c0.017-0.017,0.045-0.043,0.064-0.062c3.493-3.374,7.141-6.611,10.939-9.719c7.26-6.061,17.021-13.472,26.101-17.95l0.004-0.003
		c1.278-0.736,2.565-1.444,3.857-2.136c0.386-0.207,0.776-0.403,1.163-0.605c0.899-0.47,1.799-0.936,2.705-1.385
		c0.493-0.245,0.988-0.481,1.483-0.72c0.805-0.388,1.612-0.771,2.423-1.144c0.541-0.249,1.083-0.494,1.626-0.736
		c0.771-0.343,1.543-0.677,2.318-1.006c0.569-0.242,1.137-0.484,1.708-0.718c0.755-0.31,1.514-0.607,2.273-0.905
		c0.587-0.23,1.174-0.465,1.764-0.688c0.757-0.285,1.519-0.556,2.28-0.829c1.205-0.433,2.414-0.85,3.627-1.253
		c0-0.001-0.001-0.016-0.001-0.016c3.789-3.062,16.498-5.304,28.152-6.774c1.457-0.234,2.918-0.452,4.384-0.656
		c3.508-0.926,13.604-3.364,15.701-1.356c1.123-0.086,1.759-0.128,1.759-0.128V140.5z M259.125,163.441
		c-0.009,8.096-5.476,13.758-13.196,13.67c-7.497-0.084-13.13-6.123-13.044-13.98c0.085-7.755,5.467-13.217,13.061-13.257
		C253.837,149.832,259.134,155.286,259.125,163.441z M365.953,177.642c-0.784,5.697-0.814,11.597-4.629,16.438
		c-8.849,22.984-25.454,36.792-49.479,41.823c-3.264,0.684-5.114,0.356-5.043-3.982c0.297-17.821,0.206-35.648,0.24-53.473
		c0.004-2.004-0.422-4.3,2.927-3.237c17.702-0.909,35.413-0.252,53.12-0.326C365.099,174.876,366.275,175.306,365.953,177.642z
		 M375.354,161.775c-5.479-0.032-10.954-0.203-16.433-0.31c-16.441,1.076-32.902,0.165-49.351,0.51
		c-3.5,0.073-2.479-2.387-2.489-4.119c-0.098-18.292-0.166-36.585-0.157-54.878c0.003-6.976,0.224-13.951,0.344-20.927
		c0.646-1.578,1.965-0.904,2.994-0.783c36.496,4.24,67.811,35.034,72.818,71.569C384.307,161.79,384.307,161.827,375.354,161.775z"
		/>
	<path fill="#3A3738" d="M274.3,83.145c7.892-0.992,15.276-1.629,19.06-1.926c-1.23-0.57-3.104-0.05-4.491,0.081
		c-3.465,0.325-6.907,0.731-10.328,1.208c-0.004,0.001-0.01,0.002-0.014,0.003C277.113,82.707,275.705,82.92,274.3,83.145z"/>
	<path fill="#3A3738" d="M179.577,142.17l0,0.003c-0.604,5.188-1.089,11.518-0.966,17.957c16.625-25.39,39.519-45.415,68.96-59.847
		c-1.3-5.65-1.558-10.203-1.565-10.33c-1.213,0.403-2.422,0.82-3.627,1.253c-0.761,0.273-1.522,0.543-2.28,0.829
		c-0.59,0.223-1.176,0.458-1.764,0.688c-0.759,0.297-1.518,0.595-2.273,0.905c-0.571,0.234-1.14,0.477-1.708,0.718
		c-0.774,0.329-1.547,0.663-2.318,1.006c-0.543,0.242-1.085,0.487-1.626,0.736c-0.811,0.373-1.618,0.755-2.423,1.144
		c-0.495,0.239-0.99,0.476-1.483,0.72c-0.905,0.45-1.806,0.915-2.705,1.385c-0.388,0.203-0.777,0.399-1.163,0.605
		c-1.292,0.691-2.577,1.4-3.855,2.136c-9.374,5.397-18.077,11.382-26.107,17.953c-5.745,4.797-9.916,8.74-10.939,9.719
		c-0.085,0.082-0.168,0.167-0.253,0.249l-0.001,0.01C181.444,130.175,180.4,135.105,179.577,142.17z"/>
	<path fill="#3A3738" d="M232.035,95.352c0.771-0.343,1.543-0.677,2.318-1.006C233.578,94.674,232.805,95.009,232.035,95.352z"/>
	<path fill="#3A3738" d="M227.985,97.231c0.805-0.389,1.612-0.771,2.423-1.144C229.598,96.46,228.791,96.843,227.985,97.231z"/>
	<path fill="#1E1C1D" d="M293.359,81.218c0.319-0.025,0.615-0.048,0.882-0.068c-2.098-2.008-12.193,0.43-15.701,1.356
		c3.421-0.477,6.863-0.883,10.328-1.208C290.256,81.168,292.129,80.648,293.359,81.218z"/>
	<path fill="#3A3738" d="M240.098,92.035c0.757-0.286,1.519-0.556,2.28-0.829C241.617,91.479,240.855,91.75,240.098,92.035z"/>
	<path fill="#3A3738" d="M236.061,93.627c0.755-0.31,1.514-0.607,2.273-0.905C237.575,93.02,236.816,93.317,236.061,93.627z"/>
	<path fill="#3A3738" d="M222.635,99.941c-1.292,0.691-2.579,1.4-3.857,2.136l-0.004,0.003c-9.079,4.479-18.841,11.889-26.101,17.95
		c8.03-6.571,16.733-12.556,26.107-17.953C220.058,101.341,221.343,100.632,222.635,99.941z"/>
	<path fill="#3A3738" d="M181.669,129.811c-0.124,0.119-0.187,0.181-0.188,0.181l-0.001,0.006c0.085-0.082,0.167-0.167,0.253-0.249
		C181.714,129.768,181.687,129.794,181.669,129.811z"/>
	<path fill="#3A3738" d="M223.798,99.336c0.899-0.47,1.8-0.935,2.705-1.385C225.597,98.4,224.697,98.866,223.798,99.336z"/>
	<path fill="#3A3738" d="M281.123,87.875L281.123,87.875c-1.257,0.3-2.511,0.613-3.763,0.936
		C278.612,88.488,279.866,88.175,281.123,87.875z"/>
	<path fill="#3A3738" d="M281.183,87.86c2.633-0.628,5.274-1.224,7.916-1.819c-2.646,0.594-5.29,1.191-7.927,1.821L281.183,87.86z"
		/>
	<path fill="#3A3738" d="M246.183,89.894c-0.059,0.02-0.118,0.039-0.177,0.059v0C246.064,89.933,246.124,89.913,246.183,89.894z"/>
	<path fill="#3A3738" d="M276.844,88.943c-1.105,0.289-2.206,0.594-3.306,0.909C274.638,89.538,275.738,89.231,276.844,88.943z"/>
	<path fill="#3A3738" d="M268.721,91.333c-1.314,0.439-2.624,0.903-3.924,1.404c-5.983,2.309-11.707,4.84-17.227,7.546
		c0,0.001,0,0.001,0,0.002c5.52-2.706,11.244-5.237,17.229-7.546C266.099,92.237,267.406,91.771,268.721,91.333z"/>
	<path fill="#3A3738" d="M272.712,90.085c-1.073,0.315-2.141,0.651-3.206,0.998C270.571,90.736,271.639,90.399,272.712,90.085z"/>
	<path fill="#3A3738" d="M274.3,83.145c-0.048,0.006-0.096,0.012-0.144,0.018c-3.584,0.576-7.14,1.249-10.668,2.018
		C267.063,84.402,270.667,83.725,274.3,83.145z"/>
	<path fill="#3A3738" d="M294.306,84.854c0.092-0.021,0.184-0.042,0.275-0.063h-0.002C294.488,84.813,294.396,84.833,294.306,84.854
		z"/>
	<path fill="#3A3738" d="M259.767,86.033c0.992-0.238,1.985-0.471,2.982-0.692C261.752,85.562,260.759,85.795,259.767,86.033z"/>
	<path fill="#3A3738" d="M247.866,89.336c0.831-0.264,1.665-0.513,2.5-0.764C249.531,88.823,248.697,89.072,247.866,89.336z"/>
	<path fill="#3A3738" d="M255.842,87.021c0.917-0.243,1.836-0.478,2.758-0.705C257.679,86.544,256.76,86.778,255.842,87.021z"/>
	<path fill="#3A3738" d="M251.862,88.123c0.869-0.252,1.742-0.494,2.615-0.732C253.604,87.629,252.731,87.87,251.862,88.123z"/>
	<path fill="#3A3738" d="M294.582,84.747l-0.001,0.044c0.057-0.526,0.056-0.967,0.026-1.364
		C294.637,83.81,294.634,84.242,294.582,84.747z"/>
	<path fill="#3A3738" d="M247.866,89.336c0.831-0.264,1.665-0.513,2.5-0.764c0.499-0.15,0.997-0.304,1.497-0.449
		c0.869-0.253,1.742-0.494,2.615-0.732c0.455-0.124,0.909-0.249,1.365-0.37c0.917-0.243,1.836-0.477,2.758-0.705
		c0.389-0.096,0.777-0.19,1.166-0.283c0.992-0.238,1.985-0.471,2.982-0.692c0.246-0.055,0.493-0.106,0.739-0.16
		c3.528-0.77,7.084-1.442,10.668-2.018c-11.654,1.47-24.363,3.712-28.152,6.774c0,0,0.001,0.014,0.001,0.016
		c0.059-0.02,0.118-0.039,0.177-0.059C246.744,89.708,247.303,89.516,247.866,89.336z"/>
	<path fill="#BFBEBE" d="M294.632,82.051l-0.025,1.351c0.001,0.008,0,0.018,0.001,0.025c0.029,0.396,0.03,0.838-0.026,1.364
		c0.006,0.155,0.014,0.311,0.021,0.465c-0.007-0.155-0.015-0.31-0.021-0.465c-0.092,0.021-0.184,0.042-0.275,0.063
		c-1.733,0.405-3.471,0.797-5.207,1.188c-2.642,0.595-5.283,1.19-7.916,1.819l-0.011,0.002c-0.017,0.004-0.032,0.008-0.049,0.012v0
		c-1.257,0.3-2.511,0.613-3.763,0.936c-0.172,0.044-0.345,0.087-0.517,0.132c-1.105,0.289-2.206,0.595-3.306,0.909
		c-0.275,0.079-0.552,0.153-0.826,0.233c-1.073,0.314-2.141,0.651-3.206,0.998c-0.262,0.085-0.524,0.162-0.785,0.25
		c-1.314,0.439-2.622,0.904-3.922,1.406c-5.984,2.309-11.708,4.841-17.229,7.546c2.269,9.86,7.715,23.029,20.582,21.746
		C288.5,120,288.523,136,288.512,141.5s5.35,1,6.419,0s1.069-1,1.069-1V81.022c0,0-0.636,0.042-1.759,0.128
		C294.488,81.387,294.631,81.681,294.632,82.051z"/>
	<path fill="#FCFCFC" d="M293.359,81.218c-3.783,0.297-11.168,0.935-19.06,1.926c-3.633,0.581-7.237,1.257-10.812,2.036
		c-0.246,0.054-0.493,0.105-0.739,0.16c-0.997,0.221-1.99,0.455-2.982,0.692c-0.389,0.093-0.777,0.187-1.166,0.283
		c-0.922,0.228-1.841,0.462-2.758,0.705c-0.456,0.121-0.911,0.245-1.365,0.37c-0.873,0.238-1.746,0.48-2.615,0.732
		c-0.5,0.146-0.998,0.299-1.497,0.449c-0.834,0.251-1.669,0.5-2.5,0.764c-0.563,0.18-1.122,0.372-1.684,0.558
		c-0.059,0.02-0.118,0.04-0.177,0.059c0.007,0.127,0.265,4.68,1.565,10.33c5.52-2.706,11.243-5.237,17.227-7.546
		c1.3-0.501,2.609-0.965,3.924-1.404c0.261-0.087,0.523-0.165,0.785-0.25c1.065-0.347,2.133-0.683,3.206-0.998
		c0.274-0.08,0.551-0.155,0.826-0.233c1.1-0.314,2.2-0.62,3.306-0.909c0.172-0.045,0.345-0.088,0.517-0.132
		c1.252-0.323,2.506-0.636,3.763-0.937v-0.002l0.049-0.01c2.637-0.629,5.281-1.227,7.927-1.821c1.736-0.391,3.474-0.782,5.207-1.188
		c0.091-0.021,0.183-0.042,0.273-0.063h0.002l0.001-0.044c0.052-0.505,0.055-0.937,0.025-1.32
		C294.514,82.191,294.038,81.533,293.359,81.218z"/>
	<path fill="#3A3738" d="M281.123,87.874c0.017-0.004,0.032-0.008,0.049-0.012l-0.049,0.01V87.874z"/>
	<path fill="#3A3738" d="M273.538,89.852c-0.275,0.079-0.552,0.153-0.826,0.233C272.986,90.004,273.263,89.93,273.538,89.852z"/>
	<path fill="#3A3738" d="M262.749,85.34c0.246-0.055,0.493-0.106,0.739-0.16C263.242,85.234,262.995,85.286,262.749,85.34z"/>
	<path fill="#3A3738" d="M258.601,86.316c0.389-0.096,0.777-0.19,1.166-0.283C259.378,86.126,258.989,86.22,258.601,86.316z"/>
	<path fill="#3A3738" d="M277.36,88.811c-0.172,0.044-0.345,0.087-0.517,0.132C277.016,88.898,277.188,88.855,277.36,88.811z"/>
	<path fill="#3A3738" d="M246.183,89.894c0.562-0.186,1.121-0.378,1.684-0.558C247.303,89.516,246.744,89.708,246.183,89.894z"/>
	<path fill="#3A3738" d="M269.506,91.083c-0.262,0.085-0.524,0.162-0.785,0.25C268.981,91.245,269.244,91.168,269.506,91.083z"/>
	<path fill="#3A3738" d="M294.306,84.854c-1.733,0.405-3.471,0.796-5.207,1.188C290.835,85.651,292.572,85.259,294.306,84.854z"/>
	<path fill="#3A3738" d="M254.477,87.391c0.455-0.125,0.909-0.249,1.365-0.37C255.386,87.142,254.932,87.267,254.477,87.391z"/>
	<path fill="#3A3738" d="M294.607,83.427c-0.001-0.008,0-0.018-0.001-0.025l0.025-1.351c-0.001-0.37-0.144-0.664-0.391-0.9
		c-0.267,0.02-0.563,0.043-0.882,0.068C294.038,81.533,294.514,82.191,294.607,83.427z"/>
	<path fill="#3A3738" d="M250.366,88.572c0.499-0.15,0.997-0.304,1.497-0.449C251.362,88.268,250.864,88.422,250.366,88.572z"/>
</g>
<path fill="#FCFCFC" d="M246.183,89.894c0,0,5.858-2.357,14.102-4.714c10.432-2.981,24.684-5.961,35.716-4.158v3.832
	c0,0-37.584,9.691-48.43,15.429L245,89.968"/>
</svg>
