<?xml version="1.0" encoding="utf-8"?>
<!-- Generator: Adobe Illustrator 16.0.0, SVG Export Plug-In . SVG Version: 6.00 Build 0)  -->
<!DOCTYPE svg PUBLIC "-//W3C//DTD SVG 1.1//EN" "http://www.w3.org/Graphics/SVG/1.1/DTD/svg11.dtd">
<svg version="1.1" id="Layer_1" xmlns="http://www.w3.org/2000/svg" xmlns:xlink="http://www.w3.org/1999/xlink" x="0px" y="0px"
	 width="512px" height="512px" viewBox="0 0 512 512" enable-background="new 0 0 512 512" xml:space="preserve">
<g>
	<path fill="#FEFEFE" d="M257.014,513c-83.979,0-167.958-0.021-251.938,0.085c-3.261,0.004-4.18-0.434-4.178-4.009
		C1.015,341.117,1.017,173.158,0.893,5.199C0.89,1.455,1.83,0.912,5.299,0.914C173.091,1.013,340.884,1.012,508.676,0.92
		c3.403-0.002,4.439,0.443,4.438,4.254c-0.13,167.959-0.127,335.918-0.015,503.877c0.004,3.526-0.836,4.042-4.147,4.037
		C424.972,512.977,340.992,513,257.014,513z"/>
	<path fill="#D6D6D6" d="M294.581,84.791c0.065,1.829,0.188,3.658,0.188,5.487c0.02,61.113,0.453,122.23-0.189,183.337
		c-0.232,22.273-6.934,43.535-15.85,63.97c-22.729,52.097-62.224,84.719-116.359,100.46c-4.616,1.342-9.088,2.882-13.973,2.137
		c-0.195-6.558-0.391-13.112-0.585-19.674c1.434-0.397,2.849-0.888,4.303-1.188c70.158-14.638,120.09-79.385,122.916-150.631
		c0.237-5.992-0.892-6.967-6.755-6.781c-3.229,0.101-4.937,1.615-5.326,4.74c-0.354,2.807-0.684,5.611-1.021,8.416
		c-3.039-0.207-3.807,2.24-4.812,4.263c-1.996,4.013-3.474,8.333-5.837,12.104c-17.625,28.131-40.701,50.305-71.227,64.104
		c-6.646,3.004-13.417,5.82-20.785,6.668c-0.129-1.99-0.37-3.979-0.371-5.971c-0.017-28.164,0.018-56.326-0.003-84.486
		c-0.006-8.241-0.069-8.229-7.949-9.053c-0.983-0.104-1.943-0.437-2.914-0.66c-0.525-12.735,1.12-25.259,3.975-37.62
		c14.667-63.513,51.515-108.027,112.792-131.672C274.471,89.006,284.574,87.14,294.581,84.791z M259.125,163.441
		c0.009-8.155-5.288-13.609-13.179-13.567c-7.594,0.04-12.976,5.502-13.061,13.257c-0.086,7.857,5.547,13.896,13.044,13.98
		C253.649,177.199,259.116,171.537,259.125,163.441z"/>
	<path fill="#A3A3A3" d="M147.813,420.508c0.195,6.562,0.39,13.116,0.585,19.674c-5.902,1.896-12.034,2.149-18.146,2.66
		c-2.774,0.231-3.491-0.989-3.403-3.384c0.055-1.496-0.017-2.997-0.017-4.496c-0.001-55.303,0.204-110.606-0.09-165.909
		c-0.141-26.438,3.711-52.024,13.446-76.632c15.565-39.342,42.006-69.278,78.59-90.344c21.699-12.493,45.375-18.457,70.088-20.778
		c2.399-0.226,6.264-1.64,5.713,3.492c-10.007,2.349-20.11,4.215-29.782,7.946c-61.277,23.645-98.125,68.159-112.792,131.672
		c-2.854,12.361-4.5,24.885-3.975,37.62c-1.982,1.516-1.949,3.656-1.947,5.867c0.044,49.248,0.061,98.498,0.088,147.743
		C146.174,417.438,145.793,419.384,147.813,420.508z"/>
	<path fill="#D6D6D6" d="M358.922,161.465c-16.438,1.076-32.902,0.165-49.351,0.51c-3.5,0.073-2.479-2.387-2.489-4.119
		c-0.099-18.292-0.166-36.585-0.157-54.878c0.003-6.976,0.226-13.951,0.344-20.927c1.956,0.886,3.999,1.62,5.854,2.684
		c11.271,6.469,20.35,15.413,27.845,25.869C351.836,125.768,358.372,142.593,358.922,161.465z"/>
	<path fill="#A3A3A3" d="M358.922,161.465c-0.55-18.872-7.086-35.697-17.956-50.861c-7.495-10.456-16.574-19.4-27.845-25.869
		c-1.854-1.063-3.896-1.798-5.854-2.684c0.646-1.578,1.968-0.903,2.993-0.784c36.496,4.24,67.813,35.034,72.818,71.569
		c1.227,8.953,1.227,8.99-7.729,8.938C369.876,161.743,364.399,161.572,358.922,161.465z"/>
	<path fill="#D6D6D6" d="M284.029,442.141c-10.604,0-21.204,0-31.754,0c2.647-10.328,10.198-15.698,21.691-15.264
		c1.284,1.48,2.54,2.987,3.857,4.438C280.688,434.472,283.822,437.464,284.029,442.141z"/>
	<path fill="#A3A3A3" d="M284.029,442.141c-0.207-4.677-3.342-7.669-6.206-10.823c-1.317-1.45-2.573-2.957-3.857-4.438
		c8.849-0.43,14.033,4.78,18.222,11.684c1.773,2.925,1.234,4.257-2.246,4.229C287.945,442.771,285.941,442.899,284.029,442.141z"/>
	<path fill="#212222" d="M147.813,420.508c-2.02-1.124-1.639-3.066-1.64-4.865c-0.027-49.248-0.044-98.496-0.088-147.746
		c-0.002-2.211-0.035-4.352,1.947-5.867c0.971,0.229,1.93,0.563,2.914,0.662c7.88,0.822,7.943,0.813,7.949,9.054
		c0.021,28.159-0.013,56.321,0.003,84.485c0.001,1.988,0.242,3.979,0.371,5.972c-0.09,12.641-0.051,25.282-0.338,37.922
		c-0.103,4.543,1.98,4.729,5.183,3.336c6.517-2.838,13.188-5.42,19.418-8.806c27.758-15.067,48.95-36.602,63.087-64.973
		c8.592-17.242,14.225-35.283,15.311-54.617c0.34-2.805,0.67-5.609,1.021-8.416c0.393-3.125,2.1-4.643,5.326-4.74
		c5.863-0.186,6.992,0.79,6.755,6.781c-2.826,71.246-52.758,135.993-122.916,150.631
		C150.662,419.62,149.247,420.107,147.813,420.508z"/>
	<path fill="#D6D6D6" d="M261.93,275.064c-1.086,19.332-6.718,37.373-15.311,54.617c-14.137,28.368-35.329,49.899-63.087,64.973
		c-6.23,3.383-12.901,5.965-19.418,8.803c-3.203,1.396-5.286,1.207-5.183-3.336c0.287-12.637,0.248-25.281,0.338-37.922
		c7.369-0.848,14.139-3.664,20.785-6.668c30.526-13.797,53.602-35.971,71.227-64.102c2.363-3.772,3.841-8.096,5.837-12.105
		C258.123,277.305,258.891,274.857,261.93,275.064z"/>
	<path fill="#212222" d="M259.125,163.441c-0.009,8.096-5.476,13.758-13.195,13.67c-7.498-0.085-13.13-6.123-13.044-13.98
		c0.085-7.755,5.467-13.217,13.061-13.257C253.837,149.832,259.134,155.286,259.125,163.441z"/>
</g>
<rect x="126.738" y="275.052" fill="#4F4F4F" width="19.822" height="167.817"/>
<path fill="#212222" d="M254.756,153.251c-5.693-5.026-13.345-4.534-18.572,1.195c-2.3,2.521-3.563,5.504-3.807,8.487
	c-0.001,0-0.002,0-0.002,0.001c0,0-7.136,4.354-8.422,5.217c-1.286,0.863,1.425,6.339,1.425,6.339l10.493-1.672
	c0.237,0.252,0.475,0.505,0.737,0.745c5.7,5.205,13.549,4.62,18.947-1.415C260.99,166.069,260.671,158.474,254.756,153.251z"/>
<path fill="#A3A3A3" stroke="#212222" stroke-width="14" stroke-miterlimit="10" d="M294.931,131.5
	c-1.685,0.842-22.189,24.979-76.153-33.423c0,0,23.722-21.126,76.153-21.126V131.5z"/>
<path fill="#A3A3A3" stroke="#212222" stroke-width="14" stroke-miterlimit="10" d="M147.813,177.112
	c0,0,77.546-10.253,114.117,59.067H128.832C128.832,236.179,134.126,195.724,147.813,177.112z"/>
<circle fill="#C1C1C1" stroke="#212222" stroke-width="14" stroke-miterlimit="10" cx="176.492" cy="210.291" r="25.889"/>
<path fill="#FCFCFC" d="M118.5,269.5"/>
<path fill="none" stroke="#212222" stroke-width="14" stroke-miterlimit="10" d="M118.5,269.5h32.104c0,0,56.201-30,117.549,0"/>
<line fill="#212222" stroke="#212222" stroke-width="14" stroke-miterlimit="10" x1="118.5" y1="369.5" x2="150.604" y2="369.5"/>
<line fill="#212222" stroke="#212222" stroke-width="14" stroke-miterlimit="10" x1="268.152" y1="369.5" x2="227.5" y2="369.5"/>
<path fill="#212222" stroke="#212222" stroke-width="14" stroke-miterlimit="10" d="M261.93,314.5c0,0,19.963-11.283,31.245,0"/>
<path fill="#212222" stroke="#212222" stroke-width="14" stroke-miterlimit="10" d="M252.275,334.5c0,0,19.284,18.275,31.754,5.138"
	/>
<g>
	<path fill="#D6D6D6" d="M306.802,231.921c-0.069,4.337,1.779,4.666,5.043,3.982c22.441-4.699,38.402-17.062,47.624-37.403h-52.442
		C307.019,209.642,306.987,220.783,306.802,231.921z"/>
	<path fill="#212222" d="M394.309,127.791c-10.037-23.687-25.364-42.392-49.22-53.944c-12.064-5.843-24.12-10.162-37.438-10.882
		c-37.188-2.012-71.212,8.229-103.104,26.689c-0.717,0.415-1.407,0.881-2.11,1.321c-10.753,6.744-20.693,14.544-29.987,23.172
		l-14.691,15.517c-30.365,36.172-47.201,77.825-47.803,125.096c-0.751,58.981-0.167,117.977-0.196,176.961
		c-0.004,8.156-0.228,16.314-0.337,24.47c-0.045,3.348,1.161,4.984,4.98,5.115c23.227,0.794,45.734-3.012,67.604-10.53
		c23.396-8.043,44.26-20.555,62.79-36.951c1.492-1.321,2.932-2.819,4.661-3.73c4.415-2.325,5.693,2.051,7.769,4.185
		c2.412,2.479-0.379,3.267-1.962,4.255c-12.037,7.507-16.794,18.776-16.832,32.495c-0.008,2.892,0.871,4.389,4.355,4.295
		c9.991-0.273,19.992-0.099,29.99-0.099c10.164,0,20.33,0.003,30.494-0.002c1.812-0.001,3.57,0.366,3.675-2.58
		c0.62-17.763-9.046-32.847-25.392-37.325c-6.029-1.652-10.49-4.306-14.242-8.882c-0.838-1.027-1.668-2.115-2.692-2.933
		c-3.961-3.146-3.785-5.918-0.466-9.834c32.73-38.576,47.756-83.573,47.836-133.841c0.006-3.904,1.598-6.3,5.249-6.509
		c6.314-0.362,11.831-3.308,17.271-5.678c18.364-8,31.744-21.559,40.445-39.629c3.77-7.836,6.041-16.197,7.78-24.669
		c0.521-2.546,1.435-3.281,3.883-3.166c3.823,0.18,7.667-0.072,11.493,0.084c2.997,0.123,4.105-1.038,4.161-4.061
		C402.559,159.566,400.845,143.213,394.309,127.791z M273.962,426.875c8.851-0.427,14.037,4.783,18.226,11.683
		c1.773,2.925,1.232,4.257-2.246,4.229c-1.996-0.013-4,0.115-5.912-0.646c-10.602,0-21.204,0-31.757-0.002
		C254.919,431.811,262.469,426.437,273.962,426.875z M294.582,273.615c-0.234,22.273-6.934,43.535-15.85,63.97
		c-22.729,52.097-62.222,84.719-116.359,100.46c-4.617,1.342-9.089,2.882-13.973,2.137c-5.903,1.896-12.034,2.149-18.146,2.66
		c-2.775,0.231-3.491-0.989-3.403-3.384c0.054-1.496-0.017-2.997-0.017-4.496c-0.001-55.303,0.204-110.606-0.09-165.909
		c-0.141-26.438,3.711-52.025,13.446-76.632c15.565-39.342,42.006-69.279,78.59-90.344c21.698-12.493,45.375-18.457,70.088-20.778
		c2.399-0.226,6.264-1.64,5.713,3.492c0.065,1.829,0.188,3.658,0.19,5.487C294.791,151.391,295.225,212.509,294.582,273.615z
		 M311.846,235.903c-3.264,0.684-5.112,0.356-5.043-3.982c0.186-11.139,0.217-22.28,0.225-33.421h52.415
		C350.222,218.829,334.279,231.205,311.846,235.903z M323.105,180.727c-3.762-1.318-7.524-2.63-11.283-3.954
		c-0.001,0-0.001,0-0.002-0.001C315.58,178.096,319.344,179.408,323.105,180.727z M365.953,177.642
		c-0.291,2.115-0.479,4.257-0.795,6.363c0.315-2.106,0.502-4.249,0.792-6.364c0.162-1.167-0.051-1.859-0.556-2.258
		C365.9,175.782,366.114,176.473,365.953,177.642z M364.964,175.137c0.03,0.013,0.054,0.034,0.083,0.048
		C365.018,175.171,364.994,175.15,364.964,175.137z M375.356,161.775c-5.48-0.032-10.955-0.203-16.435-0.31
		c-16.441,1.076-32.902,0.165-49.351,0.51c-3.5,0.073-2.479-2.387-2.489-4.119c-0.096-18.292-0.166-36.585-0.157-54.878
		c0.003-6.976,0.226-13.951,0.344-20.927c0.646-1.578,1.965-0.904,2.996-0.783c36.496,4.24,67.811,35.034,72.818,71.569
		C384.307,161.79,384.307,161.827,375.356,161.775z"/>
</g>
<path fill="none" stroke="#212222" stroke-width="14" stroke-miterlimit="10" d="M261.93,79.892c0,0-11.307,28.648,13.132,54.315"/>
<line fill="none" stroke="#212222" stroke-width="14" stroke-miterlimit="10" x1="118.5" y1="295.5" x2="147.813" y2="295.5"/>
<line fill="none" stroke="#212222" stroke-width="14" stroke-miterlimit="10" x1="118.5" y1="321.5" x2="150.604" y2="321.5"/>
<line fill="none" stroke="#212222" stroke-width="14" stroke-miterlimit="10" x1="118.5" y1="344.389" x2="150.604" y2="344.389"/>
<path fill="none" stroke="#212222" stroke-width="14" stroke-miterlimit="10" d="M150.604,265.5"/>
<path fill="#212222" stroke="#212222" stroke-width="14" stroke-miterlimit="10" d="M268.152,269.5"/>
<path fill="#212222" stroke="#212222" stroke-width="14" stroke-miterlimit="10" d="M163.5,269.5"/>
<path fill="none" stroke="#212222" stroke-width="14" stroke-miterlimit="10" d="M261.93,236.179c0,0,26.57,33.321,40.57,33.321
	h-34.348"/>
<path fill="#D6D6D6" stroke="#212222" stroke-width="14" stroke-miterlimit="10" d="M254.862,77.951
	c0,0-47.991-32.451-45.176-45.451s-29.186-27-28.186,0s21.954,57.803-0.023,85.901C181.477,118.401,221.857,77.604,254.862,77.951z"
	/>
<path fill="#A3A3A3" stroke="#212222" stroke-width="14" stroke-miterlimit="10" d="M162.509,193.015
	c0,0,3.567-81.132-11.255-89.947c-14.821-8.815,35.692-57.272,35.692-57.272s19.67,7.5,4.234,22.508
	c-15.437,15.009-15.437,15.009-15.437,15.009s-9.823,14.594,3.361,23.249l0.943,103.361
	C180.049,209.922,162.354,228.683,162.509,193.015z"/>
<path fill="none" stroke="#212222" stroke-width="14" stroke-miterlimit="10" d="M157.167,362.199c0,0,56.81-4.82,105.732-95.124"/>
<line fill="none" stroke="#212222" stroke-width="14" stroke-miterlimit="10" x1="150.604" y1="387.5" x2="210.429" y2="387.5"/>
<line fill="none" stroke="#212222" stroke-width="14" stroke-miterlimit="10" x1="172.812" y1="358.565" x2="172.812" y2="380.5"/>
<path fill="#1CB0C4" d="M260.083,330.766l4.417-10.542c0,0,26.248-13.318,21.104,0l-6.872,17.361
	C278.732,337.585,258.236,347.031,260.083,330.766z"/>
<path fill="#A3A3A3" d="M180.167,373.666c0,0,72.043-46.875,78.667-76.161l2.017-11.699c0,0-59.35,71.754-81.683,76.394
	L180.167,373.666z"/>
<path fill="#21CBD8" d="M262.5,326.167h20.752c0,0,9.354-16.178-5.699-11.089l-13.053,5.146L262.5,326.167z"/>
<line fill="none" stroke="#212222" stroke-width="14" stroke-miterlimit="10" x1="223.89" y1="373.156" x2="223.89" y2="320.127"/>
<path fill="#3D3D3D" d="M147.795,243.001h111.192l18.565,19.832c0,0-7.806,0.483-9.345-0.925c0,0-46.12-12.408-65.262-12.158
	c0,0-53.821,12.834-55.133,12.834C147.813,262.584,147.813,256.167,147.795,243.001z"/>
<path fill="#4F4F4F" d="M127.993,243.001h19.802l0.018,19.583h-21.075C126.738,262.584,124.652,255.168,127.993,243.001z"/>
<path fill="#4F4F4F" d="M150.604,229.5c0,0-17.851-19.342,5.563-45.099c0,0-1.793-2.432-5.563,0c0,0-13.53,28.765-13.65,45.099
	H150.604z"/>
<line fill="#FFFFFF" stroke="#212222" stroke-width="14" stroke-miterlimit="10" x1="146.085" y1="161.781" x2="158.372" y2="174.068"/>
<path fill="#A3A3A3" d="M202.381,38.505c0,0,11.449,37.04,8.048,47.853c0,0,22.738-13.187,27.405-13.187
	C237.833,73.171,208.928,46.505,202.381,38.505z"/>
<path fill="#A3A3A3" stroke="#212222" stroke-width="14" stroke-miterlimit="10" d="M223.89,420.508
	c0,0-12.354-27.501-21.509-30.003"/>
<path fill="#A3A3A3" stroke="#212222" stroke-width="14" stroke-miterlimit="10" d="M218.778,380.5c0,0,28.065,14.005,27.227,20.005
	"/>
<path fill="#4F4F4F" d="M159.269,380.5h6.897v-13.667c0,0-5.478,2.666-7.239,1"/>
<path fill="#D6D6D6" d="M146.085,420.508v20.333c0,0,8.415,0.021,11.082-1.323S150.67,419.843,146.085,420.508z"/>
<path fill="#4F4F4F" d="M213.695,390.267l3.382-2.767c0,0,14.118,7.16,18.521,11.08l-10.951,9.039c0,0-9.156-16.283-10.951-16.119"
	/>
</svg>
