<?xml version="1.0" encoding="utf-8"?>
<!-- Generator: Adobe Illustrator 16.0.0, SVG Export Plug-In . SVG Version: 6.00 Build 0)  -->
<!DOCTYPE svg PUBLIC "-//W3C//DTD SVG 1.1//EN" "http://www.w3.org/Graphics/SVG/1.1/DTD/svg11.dtd">
<svg version="1.1" id="Layer_1" xmlns="http://www.w3.org/2000/svg" xmlns:xlink="http://www.w3.org/1999/xlink" x="0px" y="0px"
	 width="512px" height="512px" viewBox="0 0 512 512" enable-background="new 0 0 512 512" xml:space="preserve">
<g>
	<path fill="#212222" d="M172.45,114.147c9.294-8.628,19.234-16.428,29.987-23.172c0.703-0.44,1.393-0.906,2.11-1.321
		c31.892-18.46,65.917-28.701,103.104-26.689c13.317,0.72,25.373,5.039,37.438,10.882c23.855,11.552,39.183,30.257,49.22,53.944
		c6.536,15.422,8.25,31.775,7.964,48.409c-0.056,3.023-1.164,4.184-4.161,4.061c-3.826-0.156-7.67,0.096-11.493-0.084
		c-2.448-0.115-3.361,0.62-3.883,3.166c-1.739,8.472-4.011,16.833-7.78,24.669c-8.701,18.07-22.081,31.629-40.445,39.629
		c-5.439,2.37-10.956,5.316-17.271,5.678c-3.651,0.209-5.243,2.605-5.249,6.509c-0.08,50.268-15.105,95.265-47.836,133.841
		c-3.319,3.916-3.495,6.688,0.466,9.834c1.024,0.817,1.854,1.905,2.692,2.933c3.752,4.576,8.213,7.229,14.242,8.882
		c16.346,4.479,26.012,19.563,25.392,37.325c-0.104,2.946-1.863,2.579-3.675,2.58c-10.164,0.005-20.33,0.002-30.494,0.002
		c-9.998,0-20-0.175-29.99,0.099c-3.484,0.094-4.363-1.403-4.355-4.295c0.038-13.719,4.795-24.988,16.832-32.495
		c1.583-0.988,4.375-1.776,1.962-4.255c-2.076-2.134-3.354-6.51-7.769-4.185c-1.729,0.911-3.169,2.409-4.661,3.73
		c-18.53,16.396-39.394,28.908-62.79,36.951c-21.87,7.519-44.377,11.324-67.604,10.53c-3.819-0.131-5.025-1.768-4.98-5.115
		c0.109-8.155,0.333-16.313,0.337-24.47c0.029-58.984-0.555-117.979,0.196-176.961c0.602-47.271,17.438-88.924,47.803-125.096
		 M284.029,442.141c1.912,0.762,3.916,0.634,5.912,0.646c3.479,0.027,4.02-1.305,2.246-4.229
		c-4.188-6.899-9.375-12.109-18.226-11.683c-11.493-0.438-19.043,4.936-21.69,15.264
		C262.825,442.141,273.428,442.141,284.029,442.141z M361.324,194.08c3.813-4.841,3.845-10.741,4.629-16.438
		c0.322-2.336-0.854-2.766-2.863-2.757c-17.707,0.074-35.418-0.583-53.12,0.326c-3.349-1.063-2.923,1.233-2.927,3.237
		c-0.034,17.825,0.057,35.652-0.24,53.473c-0.069,4.338,1.779,4.666,5.043,3.982C335.87,230.872,352.476,217.064,361.324,194.08z
		 M307.269,82.051c-0.118,6.976-0.341,13.951-0.344,20.927c-0.009,18.293,0.062,36.586,0.157,54.878
		c0.01,1.732-1.011,4.192,2.489,4.119c16.448-0.345,32.909,0.566,49.351-0.51c5.479,0.107,10.954,0.278,16.435,0.31
		c8.95,0.052,8.95,0.015,7.727-8.938c-5.008-36.535-36.322-67.329-72.818-71.569C309.233,81.147,307.914,80.473,307.269,82.051z
		 M294.581,84.791c0.551-5.132-3.313-3.718-5.713-3.492c-24.714,2.321-48.39,8.285-70.088,20.778
		c-36.584,21.065-63.025,51.002-78.59,90.344c-9.735,24.607-13.587,50.194-13.446,76.632c0.294,55.303,0.089,110.606,0.09,165.909
		c0,1.499,0.071,3,0.017,4.496c-0.088,2.395,0.628,3.615,3.403,3.384c6.112-0.511,12.243-0.765,18.146-2.66
		c4.884,0.745,9.356-0.795,13.973-2.137c54.138-15.741,93.63-48.363,116.359-100.46c8.916-20.435,15.615-41.696,15.85-63.97
		c0.643-61.106,0.209-122.224,0.189-183.337C294.77,88.449,294.646,86.62,294.581,84.791z"/>
	<path fill="#AA8B77" d="M294.581,84.791c0.065,1.829,0.188,3.658,0.188,5.487c0.02,61.113,0.453,122.23-0.189,183.337
		c-0.232,22.273-6.934,43.535-15.85,63.97c-22.729,52.097-62.224,84.719-116.359,100.46c-4.616,1.342-9.088,2.882-13.973,2.137
		c-0.195-6.558-0.391-13.112-0.585-19.674c1.434-0.397,2.849-0.888,4.303-1.188c70.158-14.638,120.09-79.385,122.916-150.631
		c0.237-5.992-0.892-6.967-6.755-6.781c-3.229,0.101-4.937,1.615-5.326,4.74c-0.354,2.807-0.684,5.611-1.021,8.416
		c-3.039-0.207-3.807,2.24-4.812,4.263c-1.996,4.013-3.474,8.333-5.837,12.104c-17.625,28.131-40.701,50.305-71.227,64.104
		c-6.646,3.004-13.417,5.82-20.785,6.668c-0.129-1.99-0.37-3.979-0.371-5.971c-0.017-28.164,0.018-56.326-0.003-84.486
		c-0.006-8.241-0.069-8.229-7.949-9.053c-0.983-0.104-1.943-0.437-2.914-0.66c-0.525-12.735,1.12-25.259,3.975-37.62
		c14.667-63.513,51.515-108.027,112.792-131.672C274.471,89.006,284.574,87.14,294.581,84.791z M259.125,163.441
		c0.009-8.155-5.288-13.609-13.179-13.567c-7.594,0.04-12.976,5.502-13.061,13.257c-0.086,7.857,5.547,13.896,13.044,13.98
		C253.649,177.199,259.116,171.537,259.125,163.441z"/>
	<path fill="#CCA996" d="M147.813,420.508c0.195,6.562,0.39,13.116,0.585,19.674c-5.902,1.896-12.034,2.149-18.146,2.66
		c-2.774,0.231-3.491-0.989-3.403-3.384c0.055-1.496-0.017-2.997-0.017-4.496c-0.001-55.303,0.204-110.606-0.09-165.909
		c-0.141-26.438,3.711-52.024,13.446-76.632c15.565-39.342,42.006-69.278,78.59-90.344c21.699-12.493,45.375-18.457,70.088-20.778
		c2.399-0.226,6.264-1.64,5.713,3.492c-10.007,2.349-20.11,4.215-29.782,7.946c-61.277,23.645-98.125,68.159-112.792,131.672
		c-2.854,12.361-4.5,24.885-3.975,37.62c-1.982,1.516-1.949,3.656-1.947,5.867c0.044,49.248,0.061,98.498,0.088,147.743
		C146.174,417.438,145.793,419.384,147.813,420.508z"/>
	<path fill="#F2AC46" d="M358.922,161.465c-16.438,1.076-32.902,0.165-49.351,0.51c-3.5,0.073-2.479-2.387-2.489-4.119
		c-0.099-18.292-0.166-36.585-0.157-54.878c0.003-6.976,0.226-13.951,0.344-20.927c1.956,0.886,3.999,1.62,5.854,2.684
		c11.271,6.469,20.35,15.413,27.845,25.869C351.836,125.768,358.372,142.593,358.922,161.465z"/>
	<path fill="#F2AC46" d="M361.324,194.08c-8.852,22.984-25.454,36.792-49.479,41.823c-3.264,0.684-5.112,0.355-5.043-3.982
		c0.297-17.82,0.206-35.647,0.24-53.473c0.004-2.004-0.422-4.301,2.928-3.237c0.612,0.532,1.142,1.312,1.853,1.562
		C328.31,182.576,344.819,188.323,361.324,194.08z"/>
	<path fill="#E88D2E" d="M358.922,161.465c-0.55-18.872-7.086-35.697-17.956-50.861c-7.495-10.456-16.574-19.4-27.845-25.869
		c-1.854-1.063-3.896-1.798-5.854-2.684c0.646-1.578,1.968-0.903,2.993-0.784c36.496,4.24,67.813,35.034,72.818,71.569
		c1.227,8.953,1.227,8.99-7.729,8.938C369.876,161.743,364.399,161.572,358.922,161.465z"/>
	<path fill="#E88D2E" d="M361.324,194.08c-16.505-5.757-33.018-11.504-49.504-17.308c-0.711-0.25-1.237-1.029-1.853-1.562
		c17.701-0.909,35.412-0.252,53.119-0.326c2.01-0.009,3.188,0.421,2.863,2.757C365.169,183.339,365.14,189.239,361.324,194.08z"/>
	<path fill="#F2AC46" d="M284.029,442.141c-10.604,0-21.204,0-31.754,0c2.647-10.328,10.198-15.698,21.691-15.264
		c1.284,1.48,2.54,2.987,3.857,4.438C280.688,434.472,283.822,437.464,284.029,442.141z"/>
	<path fill="#E88D2E" d="M284.029,442.141c-0.207-4.677-3.342-7.669-6.206-10.823c-1.317-1.45-2.573-2.957-3.857-4.438
		c8.849-0.43,14.033,4.78,18.222,11.684c1.773,2.925,1.234,4.257-2.246,4.229C287.945,442.771,285.941,442.899,284.029,442.141z"/>
	<path fill="#212222" d="M147.813,420.508c-2.02-1.124-1.639-3.066-1.64-4.865c-0.027-49.248-0.044-98.496-0.088-147.746
		c-0.002-2.211-0.035-4.352,1.947-5.867c0.971,0.229,1.93,0.563,2.914,0.662c7.88,0.822,7.943,0.813,7.949,9.054
		c0.021,28.159-0.013,56.321,0.003,84.485c0.001,1.988,0.242,3.979,0.371,5.972c-0.09,12.641-0.051,25.282-0.338,37.922
		c-0.103,4.543,1.98,4.729,5.183,3.336c6.517-2.838,13.188-5.42,19.418-8.806c27.758-15.067,48.95-36.602,63.087-64.973
		c8.592-17.242,14.225-35.283,15.311-54.617c0.34-2.805,0.67-5.609,1.021-8.416c0.393-3.125,2.1-4.643,5.326-4.74
		c5.863-0.186,6.992,0.79,6.755,6.781c-2.826,71.246-52.758,135.993-122.916,150.631
		C150.662,419.62,149.247,420.107,147.813,420.508z"/>
	<path fill="#FCFCFC" d="M261.93,275.064c-1.086,19.332-6.718,37.373-15.311,54.617c-14.137,28.368-35.329,49.899-63.087,64.973
		c-6.23,3.383-12.901,5.965-19.418,8.803c-3.203,1.396-5.286,1.207-5.183-3.336c0.287-12.637,0.248-25.281,0.338-37.922
		c7.369-0.848,14.139-3.664,20.785-6.668c30.526-13.797,53.602-35.971,71.227-64.102c2.363-3.772,3.841-8.096,5.837-12.105
		C258.123,277.305,258.891,274.857,261.93,275.064z"/>
	<path fill="#212222" d="M259.125,163.441c-0.009,8.096-5.476,13.758-13.195,13.67c-7.498-0.085-13.13-6.123-13.044-13.98
		c0.085-7.755,5.467-13.217,13.061-13.257C253.837,149.832,259.134,155.286,259.125,163.441z"/>
</g>
<path fill="#FFFFFF" stroke="#000000" stroke-width="14" stroke-miterlimit="10" d="M152.12,149.991"/>
<path fill="#724B05" d="M314.982,221.245c0,0,48.33,27.677,45.665,37.005s5.734-39.057,4.701-41.864
	C364.315,213.579,343.316,220.245,314.982,221.245z"/>
<path fill="#6B6B6B" stroke="#212222" stroke-width="14" stroke-miterlimit="10" d="M340.811,61.052
	c-48.82-3.56-65.599,8.732-67.702,11.784c-2.105,3.052-20.216-8.153,1.344,132.694c0.094,0.613,0.188,1.21,0.28,1.813
	c-28.519-5.828-52.509-13.001-52.509-13.001s-36.908,3.904,0,4.986s68.092,121.917,75.137,119.738
	c7.045-2.18,13.955,11.18,14.883,16.763c0.93,5.583,17.072-2.583,19.998-4.583s22.003,4.584,22.003,4.584
	s31.104-155.504,11.104-130.083c-8.729,11.097-37.108,10.332-66.319,5.947c0.164-4.3,0.228-7.015,0.228-7.015
	s10.682-78.772,16.322-75.596c5.644,3.178,17.521,4.537,20.95,0c3.43-4.537,12.425-15.352,17.282-8.595
	c4.855,6.756,24.223-2.392,24.223-2.392l3.147-15.506C381.182,102.59,389.63,64.613,340.811,61.052z"/>
<path fill="#8C8885" d="M272.021,99.078c0,0,22.128-6,28.128,0l40.062-2.667c0,0-5.619,6.175,3.492-2.246
	c9.113-8.421,29.113,14.246,29.113,14.246s8.667-35.956-21-38.978C351.815,69.434,263.226,54.412,272.021,99.078z"/>
<path fill="#5E5B5A" d="M316.93,222.38c0,0,43.55,29.041,43.718,35.87s4.701-41.864,4.701-41.864S343.712,220.349,316.93,222.38z"/>
<path fill="#562C1A" stroke="#212222" stroke-width="14" stroke-miterlimit="10" d="M245.027,346.979
	c0,0,70.873-62.479,77.673-61.479s2.646-18.896,10.223-20.448s22.585-18.054,33.081-5.303s40.283,17.66,17.647,23.751
	s-38.233,3-38.192,8s-1.834,7.926-11.396,9.463S191,386.5,191,386.5l-132.5,51c0,0-8-19.291,0-20.646s162.872-60.941,162.872-60.941
	L245.027,346.979z"/>
<g>
	<path fill="#6B6B6B" stroke="#212222" stroke-width="14" stroke-miterlimit="10" d="M240.5,48.5c0,0,124.083-14.576-11.458,48.212
		c0,0-103.542,150.191-124.542,118.99C104.5,215.702,137.5,88.5,240.5,48.5z"/>
	<path fill="#6B6B6B" stroke="#212222" stroke-width="14" stroke-miterlimit="10" d="M221.372,57.308
		c0,0-53.872-58.808-155.872-35.808c0,0-44,48-37,75c0,0,52-2,87-23c0,0,34,47,23,84"/>
	<path fill="#545454" d="M34.5,90.5c0,0,77.667-9.549,83-27.785C117.5,62.715,38,72,34.5,90.5z"/>
	<path fill="#545454" d="M208,73c0,0-27.5-34.5-45.5-41.5c0,0,39,7.822,57,28.911C219.5,60.411,219,61,208,73z"/>
	<path fill="#545454" d="M152.12,146.314c0,0-13.513,36.483,3.416,15.696c0,0,39.108-76.292,50.284-81.225
		C205.82,80.786,208.577,60.312,152.12,146.314z"/>
	<path fill="#545454" d="M143,157.5c0,0-15,22.5-30,56c0,0,7.5-37,22.5-56C135.5,157.5,138.501,153.144,143,157.5z"/>
</g>
<path fill="#6B6B6B" stroke="#212222" stroke-width="14" stroke-miterlimit="10" d="M159.269,362.199"/>
<path fill="#A8A8A8" d="M159.269,362.199v40.607c0,0,98.09-30.178,102.661-127.742c0,0-0.32-5.468-6.068,1.936
	C238.617,299.209,196.48,354.849,159.269,362.199z"/>
<path fill="#6B6B6B" stroke="#212222" stroke-width="14" stroke-miterlimit="10" d="M111.312,233.921c0,0-27.211-9.414-14.312,8.079
	s8.342,37,5.421,65.5S102.5,327.5,99,353s-4.5,88.5-20,99s-12.5,27.5,4,20.5s15.977-2.5,43.738-0.5s36.614-1,49.688-7
	s21.074-4.182,27.574-3.591s10.743-3.909,17.372-9.909S188.5,281,194,273s5.871-25.5,16.686-25.5s11.196-9.218,12.755-16.109
	S163.124,202.842,111.312,233.921z"/>
<path fill="#545454" d="M213,240c0,0-77-13.5-91,10.5c0,0,61.5,31.5,65.5,20c0,0,7.903-13.604,10.952-15.552S213,240,213,240z"/>
<path fill="#545454" d="M90.5,461.409c0,0,19-20.909,27-107.909c0,0,15.117,99.5,7.059,111.5C124.559,465,99.5,461.318,90.5,461.409
	z"/>
<path fill="#545454" d="M205.82,384l4.866,29.5c0,0-31.686-3.5-37.186-0.5s-32,0-34-3.75C139.5,409.25,197.64,394,205.82,384z"/>
<path fill="#35180E" d="M337.985,292.5c0,0-7.485-20.949,16.515-19.475c0,0,22.258-2.619,23.5,4.475c0,0-23.5,3.553-25.5,5.026
	s-4.582,5.974-7.041,2.474S337.985,292.5,337.985,292.5z"/>
<path fill="#35180E" stroke="#212222" stroke-width="14" stroke-miterlimit="10" d="M355.922,175.503c0,0,71.578,31.16,85.078,24.08
	c0,0-7.5-11.58-4.5-14.58c0,0,42.5-8.873,34,3.063c0,0-12.5,26.437-17,27.437s-9,2-9.5,0S359.344,191.003,355.922,175.503z"/>
<path fill="#562C1A" d="M443.612,190.5c0,0-7.249-4.196,0-6.098c7.25-1.902,29.012-1.269,23.655,3.665
	C461.912,193,461.912,193,461.912,193S450.915,193.345,443.612,190.5z"/>
<path fill="#6B6B6B" stroke="#212222" stroke-width="14" stroke-miterlimit="10" d="M272.062,375.662
	c0,0,32.297,34.338,41.868,29.588s11.376,39.288-24.526,17.603c0,0-48.654-29.02-33.278-33.02
	C256.125,389.833,269.893,378.781,272.062,375.662z"/>
<path fill="#6B6B6B" stroke="#212222" stroke-width="14" stroke-miterlimit="10" d="M221.902,442.791c0,0,17.266-7.87,20.599-2.414"
	/>
<path fill="#545454" d="M252.275,409.25c0,0,7.475,4.914,6.85,7.914c0,0-12.623,10.647-16.624,14.99c0,0-12.667,0.328-14.667,2.669
	c0,0-3.904-5.805-0.919-7.971c0,0,20.586-17.85,23.919-17.603"/>
<path fill="#545454" d="M272.499,386.164c0,0,18.863,28.667,22.432,32c0,0-34.432-22.666-34.432-24
	C260.499,394.164,268.166,385.164,272.499,386.164z"/>
<path fill="#6B6B6B" stroke="#212222" stroke-width="14" stroke-miterlimit="10" d="M205.842,258.906"/>
<path fill="#6B6B6B" stroke="#212222" stroke-width="14" stroke-miterlimit="10" d="M225.79,237.646c0,0,32.235,11.083,36.14,3.635"
	/>
<path fill="#969696" d="M225.79,243.855l34.709,5.979l4.866,12.75l-3.436,12.48c0,0-5.826-1.175-7.281,4.401
	c-1.695,6.5-44.22,56.701-44.22,56.701s-15.262-55.563-7.929-63.614c0,0,1.334-25.812,14.667-17.932
	C217.167,254.621,218.702,247.866,225.79,243.855z"/>
<path fill="#969696" d="M273.521,285.248l8.979,20.585l-18.404,15.436C264.096,321.269,275.062,282.526,273.521,285.248z"/>
<path fill="#969696" d="M277.111,341.197c0,0-14.006,41.298-53.642,67.299l-4.729-22.409c0,0,18.963-23.186,21.028-22.055
	C239.769,364.032,275.056,339.231,277.111,341.197z"/>
</svg>
