<?xml version="1.0" encoding="utf-8"?>
<!-- Generator: Adobe Illustrator 21.1.0, SVG Export Plug-In . SVG Version: 6.00 Build 0)  -->
<svg version="1.1" id="Layer_1" xmlns="http://www.w3.org/2000/svg" xmlns:xlink="http://www.w3.org/1999/xlink" x="0px" y="0px"
	 viewBox="0 0 512 512" style="enable-background:new 0 0 512 512;" xml:space="preserve">
<style type="text/css">
	.st0{fill:#532A00;stroke:#222222;stroke-width:6;stroke-miterlimit:10;}
	.st1{fill:#212222;}
	.st2{fill:#62CBFF;}
	.st3{opacity:0.35;fill:#FFFFFF;}
	.st4{fill:#F2AC46;}
	.st5{fill:#E88D2E;}
	.st6{opacity:0.35;fill:#FCFCFC;}
	.st7{fill:#FFFFFF;stroke:#222222;stroke-width:12;stroke-miterlimit:10;}
	.st8{fill:none;stroke:#222222;stroke-width:4;stroke-miterlimit:10;}
	.st9{opacity:0.35;fill:none;stroke:#222222;stroke-width:4;stroke-miterlimit:10;}
	.st10{fill:#FFFFFF;stroke:#222222;stroke-width:6;stroke-miterlimit:10;}
</style>
<g>
	<path class="st0" d="M333,300.3c0,0,2.9,6.9,1.8,14.2s-6.5,12.2-4.8,17.1c1.7,4.9,4.2,2.9,3,12.9c-1.2,10-2.5,14-0.6,22.7
		c1.9,8.7,3.5,16,2.7,20.7c-0.8,4.7-2.7,11.3-0.2,18c2.4,6.7,5.1,10.4,3.8,17.2c-1.4,6.8-2.4,12.4,0.4,15.3s6.3,3.5,4.8,7.5
		s-2,6.7,2.5,6.7s5.8-10.1,5.4-13.4s-5-14.6-3-20.6s1.9-10,0-16.7c-1.9-6.7-3.5-12.8-2.5-18.4c1-5.6-1.5-17.6-3-24.2
		c-1.5-6.7-1.5-18.8,0.5-23.1c2-4.3,3-18.9,1-23.6c0,0-1.1-13,0.7-15.2"/>
	<path class="st0" d="M352.9,288.1c0,1.9-1.7,4-1.2,5.4c0.5,1.5-4.3,3.7-5.5,6.1c-1.2,2.4-5.4,2.4-8.6,2.4c-2.8,0-6.4-2.2-7.8-1.9
		c-1.4,0.2-4.8-3.5-6.1-6.1c-0.9-1.8-1.5-3.8-1.5-5.9c2.1-5.7,4.2-8,5.9-11c1.7-3,7.5-4,9.4-3c1.9,1,4.7,1.5,6.4,1.3
		s6.3,2.3,6.2,4.8C350.1,282.7,352.9,285.2,352.9,288.1z"/>
</g>
<g id="BorbBase">
	<path class="st1" d="M172.4,114.1c9.3-8.6,19.2-16.4,30-23.2c0.7-0.4,1.4-0.9,2.1-1.3C236.4,71.2,270.5,61,307.7,63
		c13.3,0.7,25.4,5,37.4,10.9c23.9,11.6,39.2,30.3,49.2,53.9c6.5,15.4,8.2,31.8,8,48.4c-0.1,3-1.2,4.2-4.2,4.1
		c-3.8-0.2-7.7,0.1-11.5-0.1c-2.4-0.1-3.4,0.6-3.9,3.2c-1.7,8.5-4,16.8-7.8,24.7c-8.7,18.1-22.1,31.6-40.4,39.6
		c-5.4,2.4-11,5.3-17.3,5.7c-3.7,0.2-5.2,2.6-5.2,6.5c-0.1,50.3-15.1,95.3-47.8,133.8c-3.3,3.9-3.5,6.7,0.5,9.8
		c1,0.8,1.9,1.9,2.7,2.9c3.8,4.6,8.2,7.2,14.2,8.9c16.3,4.5,26,19.6,25.4,37.3c-0.1,2.9-1.9,2.6-3.7,2.6c-10.2,0-20.3,0-30.5,0
		c-10,0-20-0.2-30,0.1c-3.5,0.1-4.4-1.4-4.4-4.3c0-13.7,4.8-25,16.8-32.5c1.6-1,4.4-1.8,2-4.3c-2.1-2.1-3.4-6.5-7.8-4.2
		c-1.7,0.9-3.2,2.4-4.7,3.7c-18.5,16.4-39.4,28.9-62.8,37c-21.9,7.5-44.4,11.3-67.6,10.5c-3.8-0.1-5-1.8-5-5.1
		c0.1-8.2,0.3-16.3,0.3-24.5c0-59-0.6-118,0.2-177c0.6-47.3,17.4-88.9,47.8-125.1 M284,442.1c1.9,0.8,3.9,0.6,5.9,0.6
		c3.5,0,4-1.3,2.2-4.2c-4.2-6.9-9.4-12.1-18.2-11.7c-11.5-0.4-19,4.9-21.7,15.3C262.8,442.1,273.4,442.1,284,442.1z M361.3,194.1
		c3.8-4.8,3.8-10.7,4.6-16.4c0.3-2.3-0.9-2.8-2.9-2.8c-17.7,0.1-35.4-0.6-53.1,0.3c-3.3-1.1-2.9,1.2-2.9,3.2
		c0,17.8,0.1,35.7-0.2,53.5c-0.1,4.3,1.8,4.7,5,4C335.9,230.9,352.5,217.1,361.3,194.1z M307.3,82.1c-0.1,7-0.3,14-0.3,20.9
		c0,18.3,0.1,36.6,0.2,54.9c0,1.7-1,4.2,2.5,4.1c16.4-0.3,32.9,0.6,49.4-0.5c5.5,0.1,11,0.3,16.4,0.3c9,0.1,9,0,7.7-8.9
		c-5-36.5-36.3-67.3-72.8-71.6C309.2,81.1,307.9,80.5,307.3,82.1z M294.6,84.8c0.6-5.1-3.3-3.7-5.7-3.5
		c-24.7,2.3-48.4,8.3-70.1,20.8c-36.6,21.1-63,51-78.6,90.3c-9.7,24.6-13.6,50.2-13.4,76.6c0.3,55.3,0.1,110.6,0.1,165.9
		c0,1.5,0.1,3,0,4.5c-0.1,2.4,0.6,3.6,3.4,3.4c6.1-0.5,12.2-0.8,18.1-2.7c4.9,0.7,9.4-0.8,14-2.1c54.1-15.7,93.6-48.4,116.4-100.5
		c8.9-20.4,15.6-41.7,15.9-64c0.6-61.1,0.2-122.2,0.2-183.3C294.8,88.4,294.6,86.6,294.6,84.8z"/>
	<path class="st2" d="M126.7,263.9c-0.5-12.7,3.6-37.3,6.4-49.7C147.8,150.7,203.7,95,261.9,84.8c26.9-3.5,23-1.5,33-3.8
		c0.1,1.8-0.2,7.5-0.2,9.3c0,61.1,0.5,122.2-0.2,183.3c-0.2,22.3-6.9,43.5-15.9,64C256,389.7,216.5,422.3,162.4,438
		c-4.6,1.3-30.7,5.6-35.6,4.8c-0.2-6.6,0.2-15.8,0-22.4"/>
	<path class="st3" d="M147.8,420.5c0.2,6.6,0.4,13.1,0.6,19.7c-5.9,1.9-12,2.1-18.1,2.7c-2.8,0.2-3.5-1-3.4-3.4c0.1-1.5,0-3,0-4.5
		c0-55.3,0.2-110.6-0.1-165.9c-0.1-26.4,3.7-52,13.4-76.6c15.6-39.3,42-69.3,78.6-90.3c21.7-12.5,45.4-18.5,70.1-20.8
		c2.4-0.2,6.3-1.6,5.7,3.5c-10,2.3-20.1,4.2-29.8,7.9c-61.3,23.6-98.1,68.2-112.8,131.7c-2.9,12.4-4.5,24.9-4,37.6
		c-2,1.5-1.9,3.7-1.9,5.9c0,49.2,0.1,98.5,0.1,147.7C146.2,417.4,145.8,419.4,147.8,420.5z"/>
	<path class="st4" d="M358.9,161.5c-16.4,1.1-32.9,0.2-49.4,0.5c-3.5,0.1-2.5-2.4-2.5-4.1c-0.1-18.3-0.2-36.6-0.2-54.9
		c0-7,0.2-14,0.3-20.9c2,0.9,4,1.6,5.9,2.7c11.3,6.5,20.4,15.4,27.8,25.9C351.8,125.8,358.4,142.6,358.9,161.5z"/>
	<path class="st4" d="M361.3,194.1c-8.9,23-25.5,36.8-49.5,41.8c-3.3,0.7-5.1,0.4-5-4c0.3-17.8,0.2-35.6,0.2-53.5
		c0-2-0.4-4.3,2.9-3.2c0.6,0.5,1.1,1.3,1.9,1.6C328.3,182.6,344.8,188.3,361.3,194.1z"/>
	<path class="st5" d="M358.9,161.5c-0.5-18.9-7.1-35.7-18-50.9c-7.5-10.5-16.6-19.4-27.8-25.9c-1.9-1.1-3.9-1.8-5.9-2.7
		c0.6-1.6,2-0.9,3-0.8c36.5,4.2,67.8,35,72.8,71.6c1.2,9,1.2,9-7.7,8.9C369.9,161.7,364.4,161.6,358.9,161.5z"/>
	<path class="st5" d="M361.3,194.1c-16.5-5.8-33-11.5-49.5-17.3c-0.7-0.2-1.2-1-1.9-1.6c17.7-0.9,35.4-0.3,53.1-0.3
		c2,0,3.2,0.4,2.9,2.8C365.2,183.3,365.1,189.2,361.3,194.1z"/>
	<path class="st4" d="M284,442.1c-10.6,0-21.2,0-31.8,0c2.6-10.3,10.2-15.7,21.7-15.3c1.3,1.5,2.5,3,3.9,4.4
		C280.7,434.5,283.8,437.5,284,442.1z"/>
	<path class="st5" d="M284,442.1c-0.2-4.7-3.3-7.7-6.2-10.8c-1.3-1.5-2.6-3-3.9-4.4c8.8-0.4,14,4.8,18.2,11.7
		c1.8,2.9,1.2,4.3-2.2,4.2C287.9,442.8,285.9,442.9,284,442.1z"/>
	<g>
		<path class="st1" d="M338.9,290.6c-20.8,68.6-89.7,112.6-160.9,109.1c-6-0.3-6.9-1.5-6.2-7.3c0.4-3.2,2-4.8,5.2-4.9
			c2.8-0.1,5.6-0.2,8.5-0.3c19.4,0.6,37.8-3.4,55.8-10.4c29.5-11.6,52.8-30.8,70.3-57.1c3.9-5.9,7.1-12.3,10.5-18.6
			c1.7-3.1,1.7-5.2-2.9-5.5c-12.6-0.8-25.2-2-37.8-3c-2-0.3-3.9-0.7-5.9-0.9c-28.1-2.5-56.1-5-84.2-7.5c-8.2-0.7-8.2-0.8-8.3-8.7
			c0-1-0.3-2-0.4-3c1.7-1.8,3.8-1.6,6-1.4c49.1,4.4,98.1,8.8,147.2,13.2c1.8,0.2,3.8,0,4.7,2.1C339.9,287.8,339.3,289.1,338.9,290.6
			z"/>
		<path class="st2" d="M190.1,382.8c4.2-1.6,8.6-2.7,12.6-4.7c29.6-15.1,53.7-36.1,70.2-65.3c3.6-6.4,7-12.8,8.5-20.1
			c12.6,1,25.2,2.2,37.8,3c4.5,0.3,4.5,2.4,2.9,5.5c-3.4,6.2-6.6,12.7-10.5,18.6c-17.5,26.3-40.8,45.5-70.3,57.1
			c-17.9,7-36.4,11-55.8,10.4C185.5,384.1,188,383.6,190.1,382.8z"/>
		<path class="st6" d="M190.1,382.8c4.2-1.6,8.6-2.7,12.6-4.7c29.6-15.1,53.7-36.1,70.2-65.3c3.6-6.4,7-12.8,8.5-20.1
			c12.6,1,25.2,2.2,37.8,3c4.5,0.3,4.5,2.4,2.9,5.5c-3.4,6.2-6.6,12.7-10.5,18.6c-17.5,26.3-40.8,45.5-70.3,57.1
			c-17.9,7-36.4,11-55.8,10.4C185.5,384.1,188,383.6,190.1,382.8z"/>
	</g>
	<path class="st1" d="M259.1,163.4c0,8.1-5.5,13.8-13.2,13.7c-7.5-0.1-13.1-6.1-13-14c0.1-7.8,5.5-13.2,13.1-13.3
		C253.8,149.8,259.1,155.3,259.1,163.4z"/>
</g>
<g id="Hair">
	<path class="st7" d="M136.7,37.4c7.3,21-4.6,44.1-26.5,51.7S68.6,93.9,61.3,73s4.6-44.1,26.5-51.7S129.4,16.5,136.7,37.4z"/>
	<path class="st7" d="M97,91.6c15.3-15.9,12.4-6.6,24-19.9S134.3,47,139.7,41c5.3-6,24-5.3,28.7-10.7c4.7-5.3,8-12,22-3.3
		S205,46.3,215,43s18-7.3,22.7-0.7c4.7,6.7,20.9,0,21.5,8.7s-0.8,10.7,3.2,15.3s-3.2,11.3-3.2,11.3S190.6,99.2,179,117
		s-50,77.1-50,77.1s-18.5,9.7-19.6,0s2.4-16.3,0-19.4c-2.4-3.1-21.1,0.6-17.1-11.2c4-11.8-18.2-16.2-0.6-29.2S81.7,107.5,97,91.6z"
		/>
	<path class="st8" d="M133.1,159.6c-2.2,4.2-7.5,5.9-11.7,3.6c-4.2-2.2-5.9-7.5-3.6-11.7"/>
	<path class="st8" d="M122.3,135.3c-4.6,1.3-9.4-1.4-10.7-6c-1.3-4.6,1.4-9.4,6-10.7"/>
	<path class="st8" d="M161.8,54.3c0.9-4.7,5.5-7.8,10.1-6.8c4.7,0.9,7.8,5.5,6.8,10.1"/>
	<path class="st8" d="M219.2,60c2.7-4,8-5,12-2.4c4,2.7,5,8,2.4,12"/>
	<path class="st8" d="M187.2,70.4c1.9-4.4,6.9-6.5,11.3-4.6c4.4,1.9,6.5,6.9,4.6,11.3"/>
	<path class="st8" d="M125.5,106c-4.6-1.4-7.2-6.2-5.8-10.8c1.4-4.6,6.2-7.2,10.8-5.8"/>
	<path class="st8" d="M140.7,78.3c-2.5-4.1-1.3-9.4,2.8-11.9c4.1-2.5,9.4-1.3,11.9,2.8"/>
	<path class="st8" d="M152.1,125.8c-4.8,0.4-8.9-3.2-9.3-7.9c-0.4-4.8,3.2-8.9,7.9-9.3"/>
	<path class="st8" d="M165.8,94.2c-1-4.7,2-9.3,6.7-10.2c4.7-1,9.3,2,10.2,6.7"/>
	<path class="st8" d="M92.7,72.8c-2.8,3.9-8.2,4.8-12.1,2s-4.8-8.2-2-12.1"/>
	<path class="st8" d="M83.4,52.4c-4.1-2-5.8-7.2-3.7-11.5s7.2-6.1,11.3-4.1"/>
	<path class="st8" d="M104.6,34.7c2.3-4,7.5-5.3,11.7-2.9c4.1,2.4,5.6,7.6,3.3,11.6"/>
	<path class="st8" d="M94.2,58.9c-0.9-4.5,2.3-8.9,7-9.8c4.7-0.9,9.2,2.1,10.1,6.6"/>
</g>
<path id="Wrinkle" class="st9" d="M223.8,188.9c0,0,0.9-3.9,6.1-4.3c5.2-0.4,4.6,3.9,10.2,4.3c5.7,0.3,11.6-8.6,16.9-4.3
	c5.3,4.3,8.3,6.4,13.9-0.3"/>
<path id="Edging" class="st10" d="M122.3,227.7c0,0,52.3,26.7,81.5,28.3c29.2,1.7,108.6-3.6,108.6-2.5c0,0.8,3.5,19.4-5.6,21.6
	c-12.8,3.2-12.3-12.4-12.2-10.4c0.5,6.4,0.4,11.5-9.3,11.4c-9.8-0.1-6.9-10.5-9.9-10.4s-2.9,8.5-11,9.6s-5.9-9.6-10.1-9.1
	s-2.7,12.8-12.5,13s-9.2-12.8-12.5-12.8s0.8,13-9.5,12.8c-10.2-0.3-11.8-13.3-15.2-13.8s-7,16.3-16,13.8c-9-2.5-6.5-18.5-9.2-19
	s-2.2,13.8-11.5,10.8c-9.2-3-7.2-16.1-10.5-17.4c-3.2-1.3-9.8,15.2-18.8,12.4s-4.7-18.3-7.8-19.2c-3-1-5.8,9.7-12.8,6.8
	s-6-26.1-4.2-27.8S122.3,227.7,122.3,227.7z"/>
</svg>
