<?xml version="1.0" encoding="utf-8"?>
<!-- Generator: Adobe Illustrator 16.0.0, SVG Export Plug-In . SVG Version: 6.00 Build 0)  -->
<!DOCTYPE svg PUBLIC "-//W3C//DTD SVG 1.1//EN" "http://www.w3.org/Graphics/SVG/1.1/DTD/svg11.dtd">
<svg version="1.1" id="Layer_1" xmlns="http://www.w3.org/2000/svg" xmlns:xlink="http://www.w3.org/1999/xlink" x="0px" y="0px"
	 width="512px" height="512px" viewBox="0 0 512 512" enable-background="new 0 0 512 512" xml:space="preserve">
<g>
	<path fill="#FEFEFE" d="M257.014,513c-83.979,0-167.959-0.021-251.938,0.085c-3.261,0.004-4.18-0.434-4.178-4.009
		C1.015,341.117,1.017,173.158,0.893,5.199C0.89,1.455,1.83,0.912,5.299,0.914C173.091,1.013,340.884,1.012,508.676,0.92
		c3.403-0.002,4.439,0.443,4.438,4.254c-0.13,167.959-0.127,335.918-0.013,503.877c0.003,3.526-0.836,4.042-4.149,4.037
		C424.972,512.977,340.992,513,257.014,513z M272.777,455.225c10.164,0,20.33,0.003,30.494-0.002
		c1.809-0.001,3.567,0.366,3.672-2.58c0.619-17.766-9.043-32.849-25.389-37.327c-6.031-1.652-10.49-4.304-14.242-8.88
		c-0.843-1.026-1.668-2.114-2.695-2.933c-3.961-3.146-3.785-5.918-0.463-9.834c32.728-38.576,47.753-83.573,47.833-133.841
		c0.006-3.903,1.598-6.3,5.249-6.509c6.315-0.361,11.83-3.308,17.271-5.678c18.364-8,31.744-21.559,40.445-39.629
		c3.771-7.836,6.041-16.197,7.78-24.669c0.521-2.546,1.435-3.281,3.883-3.166c3.823,0.18,7.667-0.072,11.493,0.084
		c2.997,0.123,4.107-1.037,4.16-4.061c0.289-16.634-1.425-32.987-7.961-48.409c-10.039-23.688-25.363-42.393-49.22-53.944
		c-12.065-5.843-24.119-10.162-37.438-10.882c-37.188-2.012-71.211,8.229-103.104,26.689c-0.718,0.415-1.407,0.881-2.11,1.321
		c-10.753,6.744-20.693,14.544-29.987,23.172c-1.914,1.776-3.623,3.576-6.235,0.927c-4.672-4.738-9.417-9.404-14.181-14.051
		c-2.311-2.255-3.327-4.517-2.249-7.97c2.242-7.175-5.72-17.817-12.889-17.221c-9.791,0.814-15.646,6.624-14.728,16.159
		c0.892,9.262,7.519,14.193,17.129,12.541c2.976-0.512,5.174,0.242,6.942,2.622c3.388,4.56,7.364,8.593,11.363,12.604
		c4.739,4.752,4.589,4.628,0.157,9.907c-30.366,36.172-47.201,77.825-47.803,125.096c-0.751,58.979-0.167,117.974-0.196,176.961
		c-0.004,8.156-0.228,16.313-0.337,24.468c-0.045,3.351,1.161,4.986,4.98,5.117c23.227,0.794,45.734-3.015,67.604-10.532
		c23.396-8.043,44.26-20.553,62.79-36.951c1.492-1.321,2.932-2.819,4.661-3.73c4.414-2.325,5.693,2.051,7.767,4.183
		c2.412,2.479-0.377,3.267-1.962,4.255c-12.037,7.507-16.794,18.778-16.832,32.495c-0.008,2.892,0.871,4.389,4.355,4.295
		C252.777,455.05,262.779,455.225,272.777,455.225z"/>
	<path fill="#F2AC46" d="M358.922,161.465c-16.44,1.076-32.902,0.165-49.351,0.51c-3.5,0.073-2.479-2.387-2.489-4.119
		c-0.099-18.292-0.166-36.585-0.157-54.878c0.003-6.976,0.224-13.951,0.344-20.927c1.956,0.886,3.999,1.62,5.854,2.684
		c11.271,6.469,20.35,15.413,27.845,25.869C351.836,125.768,358.372,142.593,358.922,161.465z"/>
	<path fill="#F2AC46" d="M361.324,194.08c-8.85,22.984-25.454,36.792-49.479,41.823c-3.264,0.684-5.114,0.355-5.043-3.982
		c0.297-17.82,0.206-35.647,0.24-53.473c0.004-2.004-0.422-4.301,2.928-3.237c0.612,0.532,1.14,1.312,1.851,1.562
		C328.31,182.576,344.819,188.323,361.324,194.08z"/>
	<path fill="#E88D2E" d="M358.922,161.465c-0.55-18.872-7.086-35.697-17.956-50.861c-7.495-10.456-16.574-19.4-27.845-25.869
		c-1.854-1.063-3.896-1.798-5.854-2.684c0.646-1.578,1.966-0.903,2.993-0.784c36.496,4.24,67.812,35.034,72.818,71.569
		c1.227,8.953,1.227,8.99-7.728,8.938C369.876,161.743,364.399,161.572,358.922,161.465z"/>
	<path fill="#E88D2E" d="M361.324,194.08c-16.505-5.757-33.016-11.504-49.504-17.308c-0.711-0.25-1.237-1.029-1.851-1.562
		c17.701-0.909,35.412-0.252,53.119-0.326c2.01-0.009,3.187,0.421,2.863,2.757C365.169,183.339,365.14,189.239,361.324,194.08z"/>
	<path fill="#A1472C" d="M284.029,442.141c-10.603,0-21.204,0-31.754,0c2.647-10.328,10.198-15.7,21.691-15.264
		c1.284,1.48,2.54,2.987,3.857,4.438C280.688,434.472,283.822,437.464,284.029,442.141z"/>
	<path fill="#5B2115" d="M284.029,442.141c-0.207-4.677-3.342-7.669-6.206-10.825c-1.317-1.45-2.573-2.957-3.857-4.438
		c8.849-0.43,14.033,4.78,18.222,11.683c1.773,2.924,1.234,4.256-2.246,4.229C287.945,442.771,285.941,442.899,284.029,442.141z"/>
	<path fill="#1E1C1D" d="M147.813,420.508c-2.02-1.124-1.639-3.068-1.64-4.865c-0.027-49.248-0.044-98.496-0.088-147.746
		c-0.002-2.211-0.035-4.352,1.947-5.867c0.971,0.228,1.93,0.561,2.914,0.662c7.88,0.822,7.943,0.811,7.949,9.052
		c0.021,28.161-0.013,56.323,0.003,84.487c0.001,1.988,0.242,3.979,0.371,5.97c-0.09,12.641-0.051,25.284-0.338,37.922
		c-0.103,4.543,1.98,4.73,5.183,3.336c6.517-2.838,13.188-5.42,19.418-8.804c27.758-15.069,48.95-36.602,63.087-64.973
		c8.592-17.242,14.225-35.283,15.311-54.617c0.34-2.805,0.67-5.611,1.021-8.416c0.393-3.125,2.1-4.643,5.326-4.742
		c5.863-0.184,6.992,0.791,6.755,6.783c-2.826,71.246-52.758,135.993-122.916,150.629
		C150.662,419.62,149.247,420.107,147.813,420.508z"/>
	<path fill="#FCFCFC" d="M261.93,275.064c-1.086,19.332-6.718,37.373-15.311,54.617c-14.137,28.37-35.329,49.901-63.087,64.973
		c-6.23,3.383-12.901,5.965-19.418,8.803c-3.203,1.396-5.286,1.207-5.183-3.336c0.287-12.637,0.248-25.281,0.338-37.922
		c7.369-0.848,14.139-3.664,20.785-6.668c30.526-13.797,53.602-35.971,71.227-64.102c2.363-3.772,3.841-8.094,5.837-12.105
		C258.123,277.305,258.891,274.857,261.93,275.064z"/>
	<g>
		<path fill="none" d="M232.886,163.131c0.085-7.755,5.467-13.217,13.061-13.257h0C238.352,149.914,232.97,155.376,232.886,163.131
			c-0.087,7.857,5.546,13.896,13.043,13.98h0C238.432,177.025,232.8,170.988,232.886,163.131z"/>
		<path fill="#9E7348" d="M146.171,415.642c-0.027-49.247-0.044-98.497-0.088-147.745c-0.002-2.211-0.035-4.352,1.947-5.867
			c-0.525-12.735,1.121-25.259,3.975-37.62c14.667-63.513,51.515-108.027,112.792-131.672c9.672-3.731,19.775-5.597,29.782-7.946
			c0.551-5.132-3.313-3.718-5.713-3.492c-24.714,2.321-48.389,8.285-70.088,20.778c-36.584,21.066-63.025,51.002-78.59,90.344
			c-9.735,24.608-13.587,50.194-13.446,76.632c0.294,55.303,0.089,110.606,0.09,165.909c0,1.499,0.072,3,0.017,4.496
			c-0.088,2.395,0.629,3.615,3.403,3.384c6.112-0.511,12.244-0.764,18.146-2.66c-0.195-6.558-0.391-13.114-0.585-19.674
			C145.793,419.384,146.174,417.438,146.171,415.642z"/>
		<path fill="#1E1C1D" d="M256.269,154.461c-0.356-0.449-0.743-0.869-1.159-1.258c-0.208-0.195-0.422-0.382-0.645-0.561
			c-2.217-1.79-5.129-2.787-8.52-2.769c-7.594,0.04-12.975,5.502-13.061,13.257c-0.086,7.857,5.546,13.895,13.044,13.98
			c3.92,0.045,7.259-1.393,9.598-3.88c1.403-1.492,2.446-3.361,3.038-5.515c0.243-0.883,0.41-1.814,0.495-2.787
			c0.042-0.486,0.063-0.983,0.064-1.489c0.003-2.548-0.513-4.833-1.463-6.769C257.27,155.874,256.804,155.135,256.269,154.461z"/>
		<path fill="#1E1C1D" d="M245.93,177.111c3.919,0.045,7.259-1.393,9.598-3.88C253.189,175.718,249.85,177.156,245.93,177.111
			L245.93,177.111z"/>
		<path fill="#1E1C1D" d="M245.947,149.874L245.947,149.874c3.39-0.018,6.302,0.979,8.519,2.769
			C252.249,150.853,249.337,149.856,245.947,149.874z"/>
		<path fill="#1E1C1D" d="M255.11,153.203c0.416,0.389,0.802,0.809,1.159,1.258C255.913,154.012,255.526,153.592,255.11,153.203z"/>
	</g>
</g>
<g>
	<path fill="none" d="M256.269,154.461c-0.356-0.449-0.743-0.869-1.159-1.258c-0.208-0.195-0.422-0.382-0.645-0.561
		c-2.217-1.79-5.129-2.787-8.519-2.769h0h0c-7.594,0.04-12.976,5.502-13.061,13.257c-0.086,7.857,5.547,13.896,13.044,13.98h0h0
		c3.919,0.045,7.259-1.393,9.598-3.88c1.403-1.492,2.446-3.361,3.038-5.515c0.243-0.883,0.41-1.814,0.495-2.787
		c0.042-0.486,0.063-0.983,0.064-1.489c0.003-2.548-0.513-4.833-1.463-6.769C257.27,155.874,256.804,155.135,256.269,154.461z"/>
	<path fill="#F4D3A8" d="M294.77,90.278c0-1.829-0.123-3.658-0.188-5.487c-10.007,2.349-20.11,4.215-29.782,7.947
		c-61.277,23.645-98.125,68.159-112.792,131.672c-0.211,0.913-0.401,1.829-0.598,2.744c39.655,14.442,129.441,28.459,143.305,30.572
		C295.141,201.914,294.787,146.095,294.77,90.278z M259.061,164.93c-0.085,0.972-0.252,1.903-0.495,2.787
		c-0.592,2.153-1.635,4.022-3.038,5.515c-2.339,2.487-5.678,3.925-9.598,3.88h0h0c-7.497-0.084-13.13-6.123-13.044-13.98
		c0.085-7.755,5.467-13.217,13.061-13.257h0h0c3.39-0.018,6.302,0.979,8.519,2.769c0.222,0.179,0.437,0.366,0.645,0.561
		c0.416,0.389,0.802,0.809,1.159,1.258c0.535,0.673,1,1.413,1.393,2.211c0.95,1.936,1.466,4.22,1.463,6.769
		C259.124,163.947,259.103,164.443,259.061,164.93z"/>
	<path fill="#386637" d="M294.714,257.727c-0.04,5.297-0.078,10.593-0.134,15.889c-0.232,22.273-6.934,43.535-15.85,63.97
		c-22.729,52.097-62.222,84.719-116.359,100.46c-4.616,1.342-9.088,2.882-13.973,2.137c-0.195-6.558-0.391-13.114-0.585-19.674
		c1.434-0.399,2.849-0.888,4.303-1.189c70.158-14.636,120.09-79.383,122.916-150.629c0.237-5.992-0.892-6.967-6.755-6.783
		c-3.228,0.101-4.935,1.617-5.326,4.742c-0.354,2.805-0.684,5.611-1.021,8.416c-3.039-0.207-3.807,2.24-4.812,4.261
		c-1.996,4.013-3.474,8.333-5.837,12.104c-17.625,28.131-40.701,50.305-71.227,64.103c-6.646,3.004-13.417,5.821-20.785,6.668
		c-0.129-1.99-0.37-3.979-0.371-5.97c-0.017-28.164,0.018-56.326-0.003-84.487c-0.006-8.241-0.069-8.229-7.949-9.052
		c-0.983-0.103-1.943-0.436-2.914-0.661c-0.486-11.794,0.903-23.406,3.377-34.876c-11.266-4.103-18.489-8.24-18.772-12.148
		c0,0-11.428,2.565-7.745,228.863c0,0,162.615,4.63,171.636-185.868C296.527,258.001,295.896,257.907,294.714,257.727z"/>
</g>
<path fill="#518D4F" d="M294.714,257.727c-13.864-2.113-103.65-16.13-143.305-30.572c-2.474,11.47-3.863,23.082-3.377,34.876
	c0.971,0.226,1.931,0.559,2.914,0.661c7.88,0.822,7.943,0.811,7.949,9.052c0.021,28.161-0.014,56.323,0.003,84.487
	c0.001,1.99,0.242,3.979,0.371,5.97c7.368-0.847,14.139-3.664,20.785-6.668c30.526-13.798,53.602-35.972,71.227-64.103
	c2.363-3.771,3.841-8.092,5.837-12.104c1.005-2.021,1.772-4.468,4.812-4.261c0.338-2.805,0.668-5.611,1.021-8.416
	c0.392-3.125,2.099-4.642,5.326-4.742c5.863-0.184,6.992,0.791,6.755,6.783c-2.826,71.246-52.758,135.993-122.916,150.629
	c-1.454,0.302-2.869,0.79-4.303,1.189c0.143,4.832,0.287,9.662,0.431,14.492c0,0,0,0,0,0l-0.431,7.031
	c0,0,62.237-8.736,95.962-46.759c0,0,25.788-23.683,39.631-64.728c0,0,4.559-9.883,7.889-29.959
	c1.987-8.828,3.189-17.813,3.285-26.971C294.636,268.319,294.674,263.023,294.714,257.727z"/>
<path fill="#1E1C1D" d="M394.31,127.792c-10.038-23.687-25.364-42.392-49.22-53.944c-12.065-5.843-24.119-10.162-37.438-10.882
	c-37.187-2.012-71.211,8.229-103.104,26.689c-0.717,0.415-1.407,0.881-2.11,1.321c-10.753,6.744-20.693,14.544-29.987,23.172
	c-1.914,1.777-3.623,3.576-6.235,0.927c-4.672-4.738-9.418-9.405-14.181-14.051c-2.312-2.255-3.328-4.517-2.249-7.97
	c2.242-7.175-5.72-17.818-12.889-17.221c-9.791,0.814-15.646,6.624-14.728,16.159c0.892,9.262,7.519,14.193,17.129,12.541
	c2.975-0.512,5.174,0.242,6.942,2.622c3.387,4.56,7.363,8.593,11.363,12.604c4.739,4.752,4.589,4.628,0.157,9.907
	c-30.365,36.172-47.201,77.825-47.803,125.096c-0.751,58.979-0.167,117.975-0.196,176.961c-0.004,8.156-0.228,16.313-0.337,24.468
	c-0.045,3.35,1.161,4.986,4.98,5.117c23.227,0.794,45.734-3.014,67.604-10.532c23.396-8.043,44.26-20.553,62.79-36.951
	c1.492-1.321,2.932-2.819,4.661-3.73c4.413-2.325,5.693,2.051,7.768,4.183c2.412,2.479-0.379,3.267-1.963,4.255
	c-12.037,7.507-16.794,18.778-16.832,32.495c-0.008,2.892,0.871,4.389,4.355,4.295c9.991-0.271,19.993-0.097,29.991-0.097
	c10.164,0,20.33,0.003,30.494-0.001c1.81-0.001,3.568,0.366,3.673-2.58c0.62-17.765-9.044-32.849-25.39-37.327
	c-6.029-1.652-10.49-4.304-14.242-8.88c-0.84-1.027-1.668-2.115-2.694-2.933c-3.961-3.146-3.785-5.918-0.464-9.834
	c32.729-38.576,47.754-83.574,47.834-133.841c0.006-3.904,1.598-6.3,5.249-6.509c6.315-0.362,11.83-3.308,17.271-5.678
	c18.364-8,31.744-21.559,40.445-39.629c3.771-7.836,6.041-16.197,7.78-24.669c0.521-2.546,1.435-3.281,3.883-3.166
	c3.823,0.18,7.667-0.072,11.493,0.084c2.997,0.123,4.107-1.038,4.161-4.061C402.56,159.567,400.846,143.214,394.31,127.792z
	 M273.964,426.876c8.849-0.429,14.035,4.781,18.224,11.683c1.773,2.924,1.233,4.256-2.246,4.229c-1.996-0.015-4,0.113-5.912-0.646
	c-10.602,0-21.204,0-31.755-0.001C254.921,431.812,262.471,426.438,273.964,426.876z M278.732,337.585
	c-22.729,52.097-62.222,84.719-116.359,100.46c-4.617,1.342-9.089,2.882-13.973,2.137c-5.903,1.896-12.034,2.149-18.146,2.66
	c-2.775,0.231-3.491-0.989-3.403-3.384c0.054-1.496-0.017-2.997-0.017-4.496c-0.001-55.303,0.204-110.606-0.09-165.909
	c-0.141-26.438,3.711-52.025,13.446-76.632c15.565-39.342,42.006-69.279,78.59-90.344c21.698-12.493,45.375-18.457,70.088-20.778
	c2.399-0.226,6.264-1.64,5.713,3.492c0.065,1.829,0.188,3.658,0.19,5.487c0.02,61.113,0.453,122.231-0.189,183.337
	C294.348,295.889,287.648,317.15,278.732,337.585z M365.953,177.642c-0.784,5.697-0.814,11.597-4.629,16.438
	c-8.849,22.984-25.454,36.792-49.479,41.823c-3.264,0.684-5.114,0.356-5.043-3.982c0.297-17.821,0.206-35.648,0.24-53.473
	c0.004-2.004-0.422-4.3,2.927-3.237c17.702-0.909,35.413-0.252,53.12-0.326C365.099,174.876,366.275,175.306,365.953,177.642z
	 M375.354,161.775c-5.479-0.032-10.954-0.203-16.433-0.31c-16.441,1.076-32.902,0.165-49.351,0.51
	c-3.5,0.073-2.479-2.387-2.489-4.119c-0.098-18.292-0.166-36.585-0.157-54.878c0.003-6.976,0.224-13.951,0.344-20.927
	c0.646-1.578,1.965-0.904,2.994-0.783c36.496,4.24,67.811,35.034,72.818,71.569C384.307,161.79,384.307,161.827,375.354,161.775z"/>
<path fill="#498748" stroke="#212222" stroke-width="14" stroke-miterlimit="10" d="M221.372,84.791
	c0,0,20.986-22.291-10.943-14.291c0,0,6.071-23.568-17.929-7.784c0,0-92-58.67-124-5.443S19.5,186.5,23.5,188.5c0,0,89-40,95-52
	c0,0-19.154,23.985-9.077,26.993c0,0-14.61,55.811,14.733,20.909S162.243,111.082,221.372,84.791z"/>
<path fill="#386637" d="M32,177.112c0,0,70.346-33.612,77.423-40.612S152,85.044,154,81.022S113,33.224,32,177.112z"/>
<path fill="#386637" d="M221.372,76c0,0-56.872,25.248-81.372,73.874S135.093,89.035,221.372,76z"/>
<path fill="none" stroke="#212222" stroke-width="14" stroke-miterlimit="10" d="M124.16,205.561
	c7.83,11.744,7.602,26.963,170.553,49.354"/>
<g>
	
		<rect x="137.268" y="386.135" transform="matrix(0.9788 -0.2047 0.2047 0.9788 -77.3736 42.859)" fill="#878785" stroke="#212222" stroke-width="14" stroke-miterlimit="10" width="62.422" height="18.585"/>
	
		<ellipse transform="matrix(0.9788 -0.2047 0.2047 0.9788 -80.2651 33.5732)" fill="#8E8D73" stroke="#212222" stroke-width="14" stroke-miterlimit="10" cx="122.156" cy="404.779" rx="27.882" ry="24.76"/>
	<path fill="#8E8D73" stroke="#212222" stroke-width="14" stroke-miterlimit="10" d="M197.127,379.943l1.775,8.787l-0.002,0.001
		l0.035,0.16l0.032,0.16h0.002l1.895,8.762c0,0,4.501,23.834,29.305,30.827l-9.238-44.181l-0.068-0.321l-9.238-44.181
		C191.702,356.305,197.127,379.943,197.127,379.943z"/>
	<polygon fill="#8E8D73" stroke="#212222" stroke-width="14" stroke-miterlimit="10" points="470.072,329.773 422.256,319.244 
		216.388,362.293 220.184,380.446 220.479,381.854 220.522,382.065 220.817,383.473 224.613,401.626 430.481,358.578 	"/>
	<polygon fill="#C1C0A7" points="226.713,380.661 455.479,332.824 421.994,325.744 223.892,367.169 	"/>
</g>
<path fill="#386637" d="M159.04,362.2c0,0,75.21-20.243,100.085-86.222l2.576-0.914c0,0-3.121,95.727-102.661,131.831
	C159.04,406.896,155.08,371.4,159.04,362.2z"/>
<path fill="#1E1C1D" d="M147.584,420.508c-2.02-1.124-1.639-3.068-1.64-4.865c-0.027-49.248-0.044-98.496-0.088-147.746
	c-0.002-2.211-0.035-4.352,1.947-5.867c0.971,0.228,1.93,0.561,2.914,0.662c7.88,0.822,7.943,0.811,7.949,9.052
	c0.021,28.161-0.013,56.323,0.003,84.487c0.001,1.988,0.242,3.979,0.371,5.97c-0.09,12.641-0.051,25.284-0.338,37.922
	c-0.103,4.543,1.98,4.73,5.183,3.336c6.517-2.838,13.188-5.42,19.418-8.804c27.758-15.069,48.95-36.602,63.087-64.973
	c8.592-17.242,14.225-35.283,15.311-54.617c0.34-2.805,0.67-5.611,1.021-8.416c0.393-3.125,2.1-4.643,5.326-4.742
	c5.863-0.184,6.992,0.791,6.754,6.783c-2.826,71.246-52.758,135.993-122.916,150.629
	C150.433,419.62,149.018,420.107,147.584,420.508z"/>
<path fill="#518D4F" d="M160.04,363.2c0,0,18.945-3.515,52.953-27.607S213.5,299.5,197.5,307"/>
<path fill="#C1C0A7" d="M101.5,406.896c0,0,20.569-16.162,39-11.468c0,0-8-10.928-19.5-7.928
	C121,387.5,100.485,390.598,101.5,406.896z"/>
</svg>
