<?xml version="1.0" encoding="utf-8"?>
<!-- Generator: Adobe Illustrator 16.0.0, SVG Export Plug-In . SVG Version: 6.00 Build 0)  -->
<!DOCTYPE svg PUBLIC "-//W3C//DTD SVG 1.1//EN" "http://www.w3.org/Graphics/SVG/1.1/DTD/svg11.dtd">
<svg version="1.1" id="Layer_1" xmlns="http://www.w3.org/2000/svg" xmlns:xlink="http://www.w3.org/1999/xlink" x="0px" y="0px"
	 width="512px" height="512px" viewBox="0 0 512 512" enable-background="new 0 0 512 512" xml:space="preserve">
<g>
	<path fill="none" d="M255.9,511.912c-83.979,0-167.959-0.021-251.938,0.085c-3.261,0.004-4.18-0.434-4.178-4.009
		C-0.098,340.029-0.096,172.07-0.22,4.111c-0.003-3.744,0.937-4.287,4.406-4.285c167.792,0.099,335.585,0.098,503.377,0.006
		c3.403-0.002,4.439,0.443,4.438,4.254c-0.13,167.959-0.127,335.918-0.013,503.877c0.003,3.526-0.836,4.042-4.149,4.037
		C423.858,511.889,339.879,511.912,255.9,511.912z M271.664,454.137c10.164,0,20.33,0.003,30.494-0.002
		c1.809-0.001,3.567,0.366,3.672-2.58c0.619-17.766-9.043-32.849-25.39-37.327c-6.03-1.652-10.489-4.304-14.241-8.88
		c-0.843-1.026-1.668-2.114-2.695-2.933c-3.961-3.146-3.785-5.918-0.463-9.834c32.728-38.576,47.753-83.574,47.832-133.841
		c0.007-3.903,1.599-6.3,5.25-6.509c6.315-0.361,11.83-3.308,17.271-5.678c18.364-8,31.744-21.559,40.445-39.629
		c3.771-7.836,6.041-16.197,7.779-24.669c0.521-2.546,1.436-3.281,3.884-3.166c3.823,0.18,7.667-0.072,11.493,0.084
		c2.996,0.123,4.107-1.037,4.16-4.061c0.289-16.634-1.425-32.987-7.961-48.409c-10.039-23.688-25.363-42.393-49.22-53.944
		c-12.065-5.843-24.119-10.162-37.438-10.882c-37.188-2.012-71.211,8.229-103.104,26.689c-0.718,0.415-1.407,0.881-2.11,1.321
		c-10.753,6.744-20.693,14.544-29.987,23.172c-1.914,1.776-3.623,3.576-6.235,0.927c-4.672-4.738-9.417-9.404-14.181-14.051
		c-2.311-2.255-3.327-4.517-2.249-7.97c2.242-7.175-5.72-17.817-12.889-17.221c-9.791,0.814-15.646,6.624-14.728,16.159
		c0.892,9.262,7.519,14.193,17.129,12.541c2.976-0.512,5.174,0.242,6.942,2.622c3.388,4.56,7.364,8.593,11.363,12.604
		c4.739,4.752,4.589,4.628,0.157,9.907c-30.366,36.172-47.201,77.825-47.803,125.096c-0.751,58.979-0.167,117.975-0.196,176.961
		c-0.004,8.156-0.228,16.313-0.337,24.468c-0.045,3.351,1.161,4.986,4.98,5.117c23.227,0.794,45.734-3.015,67.604-10.532
		c23.396-8.043,44.26-20.553,62.79-36.951c1.492-1.321,2.932-2.819,4.661-3.73c4.414-2.325,5.693,2.051,7.767,4.183
		c2.412,2.479-0.377,3.267-1.962,4.255c-12.037,7.507-16.794,18.778-16.832,32.495c-0.008,2.892,0.871,4.389,4.355,4.295
		C251.664,453.962,261.667,454.137,271.664,454.137z"/>
	<path fill="#16B21D" d="M271.664,454.137c-9.997,0-20-0.175-29.991,0.097c-3.484,0.094-4.363-1.403-4.355-4.295
		c0.038-13.717,4.795-24.988,16.832-32.495c1.584-0.988,4.375-1.776,1.963-4.255c-2.075-2.132-3.354-6.508-7.768-4.183
		c-1.729,0.911-3.169,2.409-4.661,3.73c-18.53,16.398-39.394,28.908-62.79,36.951c-21.87,7.519-44.377,11.326-67.604,10.532
		c-3.819-0.131-5.025-1.768-4.98-5.117c0.109-8.155,0.333-16.312,0.337-24.468c0.029-58.986-0.555-117.981,0.196-176.961
		c0.602-47.271,17.438-88.924,47.803-125.096c4.432-5.279,4.582-5.155-0.157-9.907c-4-4.011-7.976-8.044-11.363-12.604
		c-1.768-2.38-3.967-3.134-6.942-2.622c-9.61,1.652-16.237-3.279-17.129-12.541c-0.918-9.535,4.937-15.345,14.728-16.159
		c7.169-0.597,15.131,10.046,12.889,17.221c-1.079,3.453-0.063,5.715,2.249,7.97c4.763,4.646,9.509,9.313,14.181,14.051
		c2.612,2.649,4.321,0.85,6.235-0.927c9.294-8.628,19.234-16.428,29.987-23.172c0.703-0.44,1.393-0.906,2.11-1.321
		c31.892-18.46,65.917-28.701,103.103-26.689c13.32,0.72,25.373,5.039,37.439,10.882c23.855,11.552,39.182,30.257,49.221,53.944
		c6.535,15.422,8.249,31.775,7.961,48.409c-0.054,3.023-1.164,4.184-4.161,4.061c-3.826-0.156-7.671,0.096-11.493-0.084
		c-2.448-0.115-3.361,0.62-3.883,3.166c-1.739,8.472-4.008,16.833-7.78,24.669c-8.701,18.07-22.081,31.629-40.445,39.629
		c-5.442,2.37-10.956,5.316-17.272,5.678c-3.65,0.209-5.242,2.605-5.248,6.509c-0.08,50.267-15.105,95.265-47.834,133.841
		c-3.321,3.916-3.497,6.688,0.464,9.834c1.026,0.817,1.854,1.905,2.694,2.933c3.752,4.576,8.213,7.228,14.242,8.88
		c16.346,4.479,26.01,19.563,25.389,37.327c-0.104,2.946-1.862,2.579-3.672,2.58C291.994,454.14,281.828,454.137,271.664,454.137z
		 M282.916,441.053c1.912,0.76,3.916,0.632,5.912,0.646c3.479,0.027,4.02-1.305,2.246-4.229
		c-4.188-6.901-9.375-12.111-18.224-11.683c-11.493-0.438-19.043,4.936-21.69,15.264
		C261.712,441.053,272.314,441.053,282.916,441.053z M360.211,192.992c3.814-4.841,3.845-10.741,4.629-16.438
		c0.322-2.336-0.854-2.766-2.863-2.757c-17.707,0.074-35.418-0.583-53.12,0.326c-3.349-1.063-2.923,1.233-2.927,3.237
		c-0.034,17.825,0.057,35.652-0.24,53.473c-0.072,4.338,1.779,4.666,5.043,3.982C334.757,229.784,351.363,215.976,360.211,192.992z
		 M306.156,80.963c-0.121,6.976-0.342,13.951-0.345,20.927c-0.009,18.293,0.06,36.586,0.157,54.878
		c0.01,1.732-1.011,4.192,2.489,4.119c16.448-0.345,32.909,0.566,49.351-0.51c5.479,0.107,10.954,0.278,16.432,0.31
		c8.953,0.052,8.953,0.015,7.728-8.938c-5.008-36.535-36.322-67.329-72.817-71.569C308.119,80.059,306.801,79.385,306.156,80.963z
		 M293.468,83.703c0.551-5.132-3.313-3.718-5.713-3.492c-24.714,2.321-48.39,8.285-70.088,20.778
		c-36.584,21.065-63.025,51.002-78.59,90.344c-9.735,24.607-13.587,50.194-13.446,76.632c0.294,55.303,0.089,110.606,0.09,165.909
		c0,1.499,0.071,3,0.017,4.496c-0.088,2.395,0.628,3.615,3.403,3.384c6.112-0.511,12.243-0.765,18.146-2.66
		c4.884,0.745,9.356-0.795,13.973-2.137c54.138-15.741,93.63-48.363,116.359-100.46c8.916-20.435,15.615-41.696,15.85-63.97
		c0.643-61.106,0.209-122.224,0.189-183.337C293.656,87.361,293.533,85.532,293.468,83.703z"/>
	<path fill="#4DFE83" d="M293.468,83.703c0.065,1.829,0.188,3.658,0.188,5.487c0.02,61.113,0.453,122.23-0.189,183.337
		c-0.232,22.273-6.934,43.535-15.85,63.97c-22.729,52.097-62.222,84.719-116.359,100.46c-4.616,1.342-9.088,2.882-13.973,2.137
		c-0.195-6.558-0.391-13.114-0.585-19.674c1.434-0.399,2.849-0.888,4.303-1.189c70.158-14.636,120.09-79.384,122.916-150.629
		c0.237-5.992-0.892-6.967-6.755-6.783c-3.228,0.101-4.935,1.617-5.326,4.742c-0.354,2.805-0.684,5.611-1.022,8.416
		c-3.038-0.207-3.806,2.24-4.811,4.261c-1.996,4.013-3.474,8.333-5.837,12.104c-17.625,28.131-40.701,50.306-71.228,64.103
		c-6.646,3.004-13.417,5.821-20.785,6.668c-0.129-1.99-0.37-3.98-0.371-5.97c-0.017-28.163,0.018-56.326-0.003-84.487
		c-0.006-8.241-0.069-8.229-7.949-9.052c-0.983-0.103-1.943-0.436-2.914-0.661c-0.525-12.735,1.12-25.259,3.975-37.62
		c14.667-63.513,51.515-108.027,112.792-131.672C273.356,87.918,283.461,86.052,293.468,83.703z M258.012,162.353
		c0.009-8.155-5.288-13.609-13.179-13.567c-7.594,0.04-12.976,5.502-13.061,13.257c-0.086,7.857,5.547,13.896,13.044,13.98
		C252.536,176.111,258.003,170.449,258.012,162.353z"/>
	<path fill="#32E05F" d="M146.7,419.42c0.195,6.56,0.39,13.116,0.585,19.674c-5.902,1.896-12.034,2.149-18.146,2.66
		c-2.774,0.231-3.491-0.989-3.403-3.384c0.055-1.496-0.017-2.997-0.017-4.496c-0.001-55.303,0.204-110.606-0.09-165.909
		c-0.141-26.438,3.711-52.024,13.446-76.632c15.565-39.342,42.006-69.278,78.59-90.344c21.699-12.493,45.375-18.457,70.088-20.778
		c2.399-0.226,6.264-1.64,5.713,3.492c-10.007,2.349-20.111,4.215-29.782,7.946c-61.277,23.645-98.125,68.159-112.792,131.672
		c-2.854,12.361-4.5,24.885-3.975,37.62c-1.982,1.516-1.949,3.656-1.947,5.867c0.044,49.248,0.061,98.497,0.088,147.745
		C145.061,416.35,144.68,418.296,146.7,419.42z"/>
	<path fill="#4DFE83" d="M357.809,160.377c-16.441,1.076-32.902,0.165-49.352,0.51c-3.5,0.073-2.479-2.387-2.488-4.119
		c-0.1-18.292-0.166-36.585-0.157-54.878c0.003-6.976,0.224-13.951,0.345-20.927c1.955,0.886,3.998,1.62,5.853,2.684
		c11.271,6.469,20.35,15.413,27.845,25.869C350.723,124.68,357.259,141.505,357.809,160.377z"/>
	<path fill="#4DFE83" d="M360.211,192.992c-8.85,22.984-25.454,36.792-49.479,41.823c-3.264,0.684-5.114,0.355-5.043-3.982
		c0.298-17.82,0.206-35.647,0.24-53.473c0.004-2.004-0.422-4.301,2.928-3.237c0.612,0.532,1.14,1.312,1.851,1.562
		C327.197,181.488,343.705,187.235,360.211,192.992z"/>
	<path fill="#32E05F" d="M357.809,160.377c-0.55-18.872-7.086-35.697-17.956-50.861c-7.495-10.456-16.573-19.4-27.845-25.869
		c-1.854-1.063-3.896-1.798-5.854-2.684c0.646-1.578,1.965-0.903,2.993-0.784c36.496,4.24,67.812,35.034,72.818,71.569
		c1.228,8.953,1.228,8.99-7.728,8.938C368.763,160.655,363.285,160.484,357.809,160.377z"/>
	<path fill="#32E05F" d="M360.211,192.992c-16.506-5.757-33.016-11.504-49.504-17.308c-0.711-0.25-1.237-1.029-1.851-1.562
		c17.701-0.909,35.412-0.252,53.119-0.326c2.011-0.009,3.187,0.421,2.863,2.757C364.056,182.251,364.027,188.151,360.211,192.992z"
		/>
	<path fill="#4DFE83" d="M282.916,441.053c-10.603,0-21.204,0-31.754,0c2.647-10.328,10.198-15.7,21.691-15.264
		c1.284,1.48,2.54,2.987,3.857,4.438C279.574,433.384,282.709,436.376,282.916,441.053z"/>
	<path fill="#32E05F" d="M282.916,441.053c-0.207-4.677-3.342-7.669-6.206-10.825c-1.317-1.45-2.573-2.957-3.857-4.438
		c8.849-0.43,14.033,4.78,18.222,11.683c1.773,2.924,1.234,4.256-2.246,4.229C286.833,441.684,284.828,441.812,282.916,441.053z"/>
	<path fill="#32E05F" d="M258.012,162.353c-0.009,8.096-5.476,13.758-13.195,13.67c-7.498-0.085-13.13-6.123-13.044-13.98
		c0.085-7.755,5.467-13.217,13.062-13.257C252.724,148.744,258.021,154.198,258.012,162.353z"/>
</g>
<path fill="#4DFE83" d="M146.339,255.913c0,0-5.462,165.216,0.586,183.181c6.049,17.965,181.566-134.682,131.438-184.182
	C228.236,205.412,148.074,245.018,146.339,255.913z"/>
<circle fill="#FFFFFF" stroke="#000000" stroke-width="14" stroke-miterlimit="10" cx="58.091" cy="385.839" r="44"/>
<path fill="#D6E1E9" d="M-145.882-106.213c0,0,27.528,51.223,72.417,44.154c0,0-22.894,26.407-59.502,0.67
	C-132.968-61.389-153.188-80.3-145.882-106.213z"/>
<g>
	<path fill="#16B21D" d="M215.549,369.217l-67.748-106.158L14.091,348.131C118.606,443.138,215.549,369.217,215.549,369.217z"/>
	<path fill="#32E05F" d="M208.79,360.67l-54.627-85.597L37.921,349.048C124.161,424.396,208.79,360.67,208.79,360.67z"/>
	<path fill="#4DFE83" d="M211.164,360.795c0,0-69.102,15.799-130.607-38.219l75.53-48.081L211.164,360.795z"/>
</g>
<path fill="#D4DDE6" d="M21.38,381.744c0,0,28.707,42.895,64.006,29.334c0,0-13.063,18.666-44.413,9.333
	C40.974,420.411,18.152,405.277,21.38,381.744z"/>
</svg>
