<?xml version="1.0" encoding="utf-8"?>
<!-- Generator: Adobe Illustrator 16.0.0, SVG Export Plug-In . SVG Version: 6.00 Build 0)  -->
<!DOCTYPE svg PUBLIC "-//W3C//DTD SVG 1.1//EN" "http://www.w3.org/Graphics/SVG/1.1/DTD/svg11.dtd">
<svg version="1.1" id="Layer_1" xmlns="http://www.w3.org/2000/svg" xmlns:xlink="http://www.w3.org/1999/xlink" x="0px" y="0px"
	 width="512px" height="512px" viewBox="0 0 512 512" enable-background="new 0 0 512 512" xml:space="preserve">
<g>
	<path fill="#FEFEFE" d="M257.014,513c-83.979,0-167.959-0.021-251.938,0.085c-3.261,0.004-4.18-0.434-4.178-4.009
		C1.015,341.117,1.017,173.158,0.893,5.199C0.89,1.455,1.83,0.912,5.299,0.914C173.091,1.013,340.884,1.012,508.676,0.92
		c3.403-0.002,4.439,0.443,4.438,4.254c-0.13,167.959-0.127,335.918-0.013,503.877c0.003,3.526-0.836,4.042-4.149,4.037
		C424.972,512.977,340.992,513,257.014,513z M272.777,455.225c10.164,0,20.33,0.003,30.494-0.002
		c1.809-0.001,3.567,0.366,3.672-2.58c0.619-17.766-9.043-32.849-25.389-37.327c-6.031-1.652-10.49-4.304-14.242-8.88
		c-0.843-1.026-1.668-2.114-2.695-2.933c-3.961-3.146-3.785-5.918-0.463-9.834c32.728-38.576,47.753-83.573,47.833-133.841
		c0.006-3.903,1.598-6.3,5.249-6.509c6.315-0.361,11.83-3.308,17.271-5.678c18.364-8,31.744-21.559,40.445-39.629
		c3.771-7.836,6.041-16.197,7.78-24.669c0.521-2.546,1.435-3.281,3.883-3.166c3.823,0.18,7.667-0.072,11.493,0.084
		c2.997,0.123,4.107-1.037,4.16-4.061c0.289-16.634-1.425-32.987-7.961-48.409c-10.039-23.688-25.363-42.393-49.22-53.944
		c-12.065-5.843-24.119-10.162-37.438-10.882c-37.188-2.012-71.211,8.229-103.104,26.689c-0.718,0.415-1.407,0.881-2.11,1.321
		c-10.753,6.744-20.693,14.544-29.987,23.172c-1.914,1.776-3.623,3.576-6.235,0.927c-4.672-4.738-9.417-9.404-14.181-14.051
		c-2.311-2.255-3.327-4.517-2.249-7.97c2.242-7.175-5.72-17.817-12.889-17.221c-9.791,0.814-15.646,6.624-14.728,16.159
		c0.892,9.262,7.519,14.193,17.129,12.541c2.976-0.512,5.174,0.242,6.942,2.622c3.388,4.56,7.364,8.593,11.363,12.604
		c4.739,4.752,4.589,4.628,0.157,9.907c-30.366,36.172-47.201,77.825-47.803,125.096c-0.751,58.979-0.167,117.974-0.196,176.961
		c-0.004,8.156-0.228,16.313-0.337,24.468c-0.045,3.351,1.161,4.986,4.98,5.117c23.227,0.794,45.734-3.015,67.604-10.532
		c23.396-8.043,44.26-20.553,62.79-36.951c1.492-1.321,2.932-2.819,4.661-3.73c4.414-2.325,5.693,2.051,7.767,4.183
		c2.412,2.479-0.377,3.267-1.962,4.255c-12.037,7.507-16.794,18.778-16.832,32.495c-0.008,2.892,0.871,4.389,4.355,4.295
		C252.777,455.05,262.779,455.225,272.777,455.225z"/>
	<path fill="#1E1C1D" d="M272.777,455.225c-9.998,0-20-0.175-29.991,0.097c-3.484,0.094-4.363-1.403-4.355-4.295
		c0.038-13.717,4.795-24.988,16.832-32.495c1.584-0.988,4.375-1.776,1.963-4.255c-2.075-2.132-3.354-6.508-7.768-4.183
		c-1.729,0.911-3.169,2.409-4.661,3.73c-18.53,16.398-39.394,28.908-62.79,36.951c-21.87,7.519-44.377,11.326-67.604,10.532
		c-3.819-0.131-5.025-1.768-4.98-5.117c0.109-8.155,0.333-16.312,0.337-24.468c0.029-58.986-0.555-117.981,0.196-176.961
		c0.602-47.271,17.438-88.924,47.803-125.096c4.432-5.279,4.582-5.155-0.157-9.907c-4-4.011-7.976-8.044-11.363-12.604
		c-1.768-2.38-3.967-3.134-6.942-2.622c-9.61,1.652-16.237-3.279-17.129-12.541c-0.918-9.535,4.937-15.345,14.728-16.159
		c7.169-0.597,15.131,10.046,12.889,17.221c-1.079,3.453-0.063,5.715,2.249,7.97c4.763,4.646,9.509,9.313,14.181,14.051
		c2.612,2.649,4.321,0.85,6.235-0.927c9.294-8.628,19.234-16.428,29.987-23.172c0.703-0.44,1.393-0.906,2.11-1.321
		c31.892-18.46,65.917-28.701,103.104-26.689c13.319,0.72,25.373,5.039,37.438,10.882c23.855,11.552,39.182,30.257,49.22,53.944
		c6.536,15.422,8.25,31.775,7.962,48.409c-0.054,3.023-1.164,4.184-4.161,4.061c-3.826-0.156-7.67,0.096-11.493-0.084
		c-2.448-0.115-3.361,0.62-3.883,3.166c-1.739,8.472-4.009,16.833-7.78,24.669c-8.701,18.07-22.081,31.629-40.445,39.629
		c-5.441,2.37-10.956,5.316-17.271,5.678c-3.651,0.209-5.243,2.605-5.249,6.509c-0.08,50.267-15.105,95.265-47.834,133.841
		c-3.321,3.916-3.497,6.688,0.464,9.834c1.026,0.817,1.854,1.905,2.694,2.933c3.752,4.576,8.213,7.228,14.242,8.88
		c16.346,4.479,26.01,19.563,25.39,37.327c-0.104,2.946-1.863,2.579-3.673,2.58C293.107,455.228,282.941,455.225,272.777,455.225z
		 M284.029,442.141c1.912,0.76,3.916,0.632,5.912,0.646c3.479,0.027,4.02-1.305,2.246-4.229
		c-4.188-6.901-9.375-12.111-18.224-11.683c-11.493-0.438-19.043,4.936-21.69,15.264
		C262.825,442.141,273.428,442.141,284.029,442.141z M361.324,194.08c3.814-4.841,3.845-10.741,4.629-16.438
		c0.322-2.336-0.854-2.766-2.863-2.757c-17.707,0.074-35.418-0.583-53.12,0.326c-3.349-1.063-2.923,1.233-2.927,3.237
		c-0.034,17.825,0.057,35.652-0.24,53.473c-0.071,4.338,1.779,4.666,5.043,3.982C335.87,230.872,352.476,217.064,361.324,194.08z
		 M307.269,82.051c-0.12,6.976-0.341,13.951-0.344,20.927c-0.009,18.293,0.06,36.586,0.157,54.878
		c0.01,1.732-1.011,4.192,2.489,4.119c16.448-0.345,32.909,0.566,49.351-0.51c5.479,0.107,10.954,0.278,16.433,0.31
		c8.952,0.052,8.952,0.015,7.727-8.938c-5.008-36.535-36.322-67.329-72.818-71.569C309.233,81.147,307.914,80.473,307.269,82.051z
		 M294.581,84.791c0.551-5.132-3.313-3.718-5.713-3.492c-24.714,2.321-48.39,8.285-70.088,20.778
		c-36.584,21.065-63.025,51.002-78.59,90.344c-9.735,24.607-13.587,50.194-13.446,76.632c0.294,55.303,0.089,110.606,0.09,165.909
		c0,1.499,0.071,3,0.017,4.496c-0.088,2.395,0.628,3.615,3.403,3.384c6.112-0.511,12.243-0.765,18.146-2.66
		c4.884,0.745,9.356-0.795,13.973-2.137c54.138-15.741,93.63-48.363,116.359-100.46c8.916-20.435,15.615-41.696,15.85-63.97
		c0.643-61.106,0.209-122.224,0.189-183.337C294.77,88.449,294.646,86.62,294.581,84.791z"/>
	<path fill="#DDC700" d="M294.581,84.791c0.065,1.829,0.188,3.658,0.188,5.487c0.02,61.113,0.453,122.23-0.189,183.337
		c-0.232,22.273-6.934,43.535-15.85,63.97c-22.729,52.097-62.222,84.719-116.359,100.46c-4.616,1.342-9.088,2.882-13.973,2.137
		c-0.195-6.558-0.391-13.114-0.585-19.674c1.434-0.399,2.849-0.888,4.303-1.189c70.158-14.636,120.09-79.383,122.916-150.629
		c0.237-5.992-0.892-6.967-6.755-6.783c-3.228,0.101-4.935,1.617-5.326,4.742c-0.354,2.805-0.684,5.611-1.021,8.416
		c-3.039-0.207-3.807,2.24-4.812,4.261c-1.996,4.013-3.474,8.333-5.837,12.104c-17.625,28.131-40.701,50.305-71.227,64.103
		c-6.646,3.004-13.417,5.821-20.785,6.668c-0.129-1.99-0.37-3.979-0.371-5.97c-0.017-28.164,0.018-56.326-0.003-84.487
		c-0.006-8.241-0.069-8.229-7.949-9.052c-0.983-0.103-1.943-0.436-2.914-0.661c-0.525-12.735,1.12-25.259,3.975-37.62
		c14.667-63.513,51.515-108.027,112.792-131.672C274.471,89.006,284.574,87.14,294.581,84.791z M259.125,163.441
		c0.009-8.155-5.288-13.609-13.179-13.567c-7.594,0.04-12.976,5.502-13.061,13.257c-0.086,7.857,5.547,13.896,13.044,13.98
		C253.649,177.199,259.116,171.537,259.125,163.441z"/>
	<path fill="#F4E308" d="M147.813,420.508c0.195,6.56,0.39,13.116,0.585,19.674c-5.902,1.896-12.034,2.149-18.146,2.66
		c-2.774,0.231-3.491-0.989-3.403-3.384c0.055-1.496-0.017-2.997-0.017-4.496c-0.001-55.303,0.204-110.606-0.09-165.909
		c-0.141-26.438,3.711-52.024,13.446-76.632c15.565-39.342,42.006-69.278,78.59-90.344c21.699-12.493,45.375-18.457,70.088-20.778
		c2.399-0.226,6.264-1.64,5.713,3.492c-10.007,2.349-20.11,4.215-29.782,7.946c-61.277,23.645-98.125,68.159-112.792,131.672
		c-2.854,12.361-4.5,24.885-3.975,37.62c-1.982,1.516-1.949,3.656-1.947,5.867c0.044,49.248,0.061,98.498,0.088,147.745
		C146.174,417.438,145.793,419.384,147.813,420.508z"/>
	<path fill="#F2AC46" d="M358.922,161.465c-16.44,1.076-32.902,0.165-49.351,0.51c-3.5,0.073-2.479-2.387-2.489-4.119
		c-0.099-18.292-0.166-36.585-0.157-54.878c0.003-6.976,0.224-13.951,0.344-20.927c1.956,0.886,3.999,1.62,5.854,2.684
		c11.271,6.469,20.35,15.413,27.845,25.869C351.836,125.768,358.372,142.593,358.922,161.465z"/>
	<path fill="#F2AC46" d="M361.324,194.08c-8.85,22.984-25.454,36.792-49.479,41.823c-3.264,0.684-5.114,0.355-5.043-3.982
		c0.297-17.82,0.206-35.647,0.24-53.473c0.004-2.004-0.422-4.301,2.928-3.237c0.612,0.532,1.14,1.312,1.851,1.562
		C328.31,182.576,344.819,188.323,361.324,194.08z"/>
	<path fill="#E88D2E" d="M358.922,161.465c-0.55-18.872-7.086-35.697-17.956-50.861c-7.495-10.456-16.574-19.4-27.845-25.869
		c-1.854-1.063-3.896-1.798-5.854-2.684c0.646-1.578,1.966-0.903,2.993-0.784c36.496,4.24,67.812,35.034,72.818,71.569
		c1.227,8.953,1.227,8.99-7.728,8.938C369.876,161.743,364.399,161.572,358.922,161.465z"/>
	<path fill="#E88D2E" d="M361.324,194.08c-16.505-5.757-33.016-11.504-49.504-17.308c-0.711-0.25-1.237-1.029-1.851-1.562
		c17.701-0.909,35.412-0.252,53.119-0.326c2.01-0.009,3.187,0.421,2.863,2.757C365.169,183.339,365.14,189.239,361.324,194.08z"/>
	<path fill="#F2AC46" d="M284.029,442.141c-10.603,0-21.204,0-31.754,0c2.647-10.328,10.198-15.7,21.691-15.264
		c1.284,1.48,2.54,2.987,3.857,4.438C280.688,434.472,283.822,437.464,284.029,442.141z"/>
	<path fill="#E88D2E" d="M284.029,442.141c-0.207-4.677-3.342-7.669-6.206-10.825c-1.317-1.45-2.573-2.957-3.857-4.438
		c8.849-0.43,14.033,4.78,18.222,11.683c1.773,2.924,1.234,4.256-2.246,4.229C287.945,442.771,285.941,442.899,284.029,442.141z"/>
	<path fill="#1E1C1D" d="M147.813,420.508c-2.02-1.124-1.639-3.068-1.64-4.865c-0.027-49.248-0.044-98.496-0.088-147.746
		c-0.002-2.211-0.035-4.352,1.947-5.867c0.971,0.228,1.93,0.561,2.914,0.662c7.88,0.822,7.943,0.811,7.949,9.052
		c0.021,28.161-0.013,56.323,0.003,84.487c0.001,1.988,0.242,3.979,0.371,5.97c-0.09,12.641-0.051,25.284-0.338,37.922
		c-0.103,4.543,1.98,4.73,5.183,3.336c6.517-2.838,13.188-5.42,19.418-8.804c27.758-15.069,48.95-36.602,63.087-64.973
		c8.592-17.242,14.225-35.283,15.311-54.617c0.34-2.805,0.67-5.611,1.021-8.416c0.393-3.125,2.1-4.643,5.326-4.742
		c5.863-0.184,6.992,0.791,6.755,6.783c-2.826,71.246-52.758,135.993-122.916,150.629
		C150.662,419.62,149.247,420.107,147.813,420.508z"/>
	<path fill="#F4E308" d="M261.93,275.064c-1.086,19.332-6.718,37.373-15.311,54.617c-14.137,28.37-35.329,49.901-63.087,64.973
		c-6.23,3.383-12.901,5.965-19.418,8.803c-3.203,1.396-5.286,1.207-5.183-3.336c0.287-12.637,0.248-25.281,0.338-37.922
		c7.369-0.848,14.139-3.664,20.785-6.668c30.526-13.797,53.602-35.971,71.227-64.102c2.363-3.772,3.841-8.094,5.837-12.105
		C258.123,277.305,258.891,274.857,261.93,275.064z"/>
	<path fill="#1E1C1D" d="M259.125,163.441c-0.009,8.096-5.476,13.758-13.195,13.67c-7.498-0.085-13.13-6.123-13.044-13.98
		c0.085-7.755,5.467-13.217,13.061-13.257C253.837,149.832,259.134,155.286,259.125,163.441z"/>
</g>
<path fill="none" stroke="#212222" stroke-width="14" stroke-miterlimit="10" d="M171.043,139.404h42.972h40.786
	c0,0,45.689,25.8,0,44.466c0,0-37.691,7.176-40.786-22.998c-3.095-30.173-46.05-17.163-46.05-17.163
	C159.326,141.969,171.043,139.404,171.043,139.404z"/>
<g opacity="0.5">
	<path fill="#1E1C1D" d="M216.405,203.748c-1.164,0.241-1.446,0.879-1.091,1.94c0.113,0.038,0.225,0.076,0.337,0.113
		C215.887,205.16,216.123,204.519,216.405,203.748z"/>
	<path fill="#1E1C1D" d="M215.743,214.748c0.374-0.432,0.706-0.899,1.05-1.355c-0.149-0.127-0.298-0.254-0.447-0.381
		c-0.403,0.458-0.815,0.909-1.198,1.383c-0.046,0.056,0.043,0.315,0.128,0.354C215.408,214.809,215.672,214.827,215.743,214.748z"/>
	<path fill="#1E1C1D" d="M217.069,210.385c-0.009-0.105-0.022-0.21-0.032-0.315c-0.254,0.026-0.623-0.044-0.737,0.094
		c-0.447,0.53-1.048,1.032-0.667,1.976C216.111,211.554,216.591,210.97,217.069,210.385z"/>
	<path fill="#1E1C1D" d="M215.33,193.563c0.078,0.117,0.158,0.232,0.239,0.35c0.52-0.482,1.042-0.964,1.613-1.492
		C216.309,192.016,215.97,192.256,215.33,193.563z"/>
	<path fill="#1E1C1D" d="M214.934,208.512c0.296-0.333,0.651-0.633,0.864-1.012c0.126-0.218,0.022-0.561,0.022-0.849
		c-0.098-0.024-0.199-0.048-0.297-0.072c-0.293,0.43-0.625,0.841-0.853,1.303C214.604,208.019,214.837,208.299,214.934,208.512z"/>
	<path fill="#1E1C1D" d="M218.248,209.77c0.452-0.47,0.903-0.941,1.474-1.539C218.708,207.942,218.146,208.511,218.248,209.77z"/>
	<path fill="#1E1C1D" d="M218.66,203.644c0.415-0.722,0.729-1.241,0.997-1.783c0.035-0.067-0.182-0.255-0.282-0.388
		c-0.387,0.478-0.791,0.945-1.141,1.445C218.188,202.981,218.405,203.222,218.66,203.644z"/>
	<path fill="#1E1C1D" d="M216.011,200.642c0.153,0.105,0.436,0.311,0.442,0.301c0.486-0.604,0.948-1.227,1.471-1.925
		c-0.208-0.091-0.504-0.264-0.532-0.228C216.912,199.392,216.464,200.02,216.011,200.642z"/>
	<path fill="#1E1C1D" d="M213.735,201.376c-0.304,0.285-0.52,0.667-0.772,1.009c0.037,0.103,0.074,0.206,0.108,0.309
		c0.26-0.058,0.619-0.034,0.752-0.192c0.263-0.311,0.401-0.724,0.589-1.095C214.18,201.39,213.85,201.271,213.735,201.376z"/>
	<path fill="#1E1C1D" d="M219.208,204.55c-0.438,0.608-0.874,1.218-1.407,1.961C218.901,206.688,219.503,205.916,219.208,204.55z"/>
	<path fill="#1E1C1D" d="M211.735,220.71c0.462,0.049,1.322-1.191,1.239-1.72c-0.153-0.134-0.307-0.268-0.46-0.403
		c-0.365,0.522-0.757,1.03-1.07,1.58C211.384,220.271,211.611,220.697,211.735,220.71z"/>
	<path fill="#1E1C1D" d="M213.219,213.818c-0.233,0.321-0.568,0.615-0.66,0.972c-0.057,0.22,0.256,0.534,0.403,0.805
		c0.151-0.085,0.305-0.17,0.459-0.254C213.355,214.833,213.286,214.325,213.219,213.818z"/>
	<path fill="#1E1C1D" d="M213.635,209.967c-0.383,0.402-0.773,0.799-1.127,1.223c-0.023,0.027,0.217,0.27,0.474,0.579
		c0.388-0.569,0.702-1.011,0.981-1.474C213.982,210.262,213.749,210.08,213.635,209.967z"/>
	<path fill="#1E1C1D" d="M215.518,218.465c-0.011-0.093-0.099-0.248-0.161-0.253c-0.16-0.014-0.399-0.017-0.477,0.078
		c-0.334,0.415-0.624,0.865-1.031,1.447C214.599,219.795,215.569,218.958,215.518,218.465z"/>
	<path fill="#1E1C1D" d="M218.55,195.434c0.473-0.579,0.891-1.094,1.41-1.731C218.761,193.656,218.121,194.49,218.55,195.434z"/>
	<path fill="#1E1C1D" d="M215.156,216.274c-0.158-0.054-0.316-0.109-0.474-0.165c-0.337,0.461-0.674,0.921-1.011,1.382
		c0.444-0.138,0.926-0.216,1.32-0.441C215.147,216.961,215.108,216.542,215.156,216.274z"/>
	<path fill="#1E1C1D" d="M212.747,199.493c-0.007,0.028,0.099,0.084,0.378,0.313c0.198-0.652,0.372-1.204,0.511-1.762
		c0.007-0.024-0.282-0.12-0.434-0.182C213.05,198.406,212.892,198.948,212.747,199.493z"/>
	<path fill="#1E1C1D" d="M211.732,203.296c-0.474,0.491-0.956,0.975-1.409,1.483c-0.052,0.058,0.012,0.334,0.085,0.364
		c0.174,0.073,0.497,0.149,0.565,0.067c0.422-0.511,0.793-1.065,1.18-1.605C212.012,203.502,211.872,203.399,211.732,203.296z"/>
	<path fill="#1E1C1D" d="M212.085,213.342c-0.08-0.116-0.163-0.233-0.245-0.349c-0.813-0.041-1.15,0.657-1.638,1.123
		c0.087,0.147,0.176,0.293,0.266,0.439C211.005,214.151,211.546,213.746,212.085,213.342z"/>
	<path fill="#1E1C1D" d="M212.399,191.431c-0.558,0.624-1.055,1.297-1.573,1.955c0.094,0.1,0.186,0.2,0.28,0.3
		c0.275-0.18,0.594-0.321,0.818-0.549c0.351-0.353,0.651-0.756,0.945-1.159c0.105-0.146,0.124-0.354,0.183-0.532
		C212.828,191.435,212.491,191.327,212.399,191.431z"/>
	<path fill="#1E1C1D" d="M211.348,195.767c-0.225,0.417-0.324,0.9-0.47,1.358c0.146,0.057,0.293,0.115,0.443,0.172
		c0.277-0.502,0.556-1.004,1.003-1.807C211.814,195.623,211.427,195.615,211.348,195.767z"/>
	<path fill="#1E1C1D" d="M210.98,208.792c0.418-0.685,0.757-1.196,1.037-1.737c0.041-0.081-0.184-0.297-0.287-0.452
		c-0.389,0.483-0.795,0.955-1.151,1.462C210.532,208.135,210.749,208.384,210.98,208.792z"/>
	<path fill="#1E1C1D" d="M214.311,197.787c0.176,0.076,0.353,0.152,0.529,0.229c0.275-0.542,0.562-1.081,0.813-1.633
		c0.037-0.082-0.076-0.325-0.142-0.335c-0.154-0.022-0.417,0.007-0.463,0.102C214.773,196.681,214.551,197.239,214.311,197.787z"/>
	<path fill="#1E1C1D" d="M202.27,206.555c-0.043-0.125-0.087-0.25-0.13-0.375c-0.309,0.144-0.748,0.207-0.898,0.447
		c-0.286,0.457-1.033,0.886-0.348,1.687C201.383,207.689,201.825,207.122,202.27,206.555z"/>
	<path fill="#1E1C1D" d="M205.464,203.575c-0.165-0.077-0.332-0.156-0.499-0.233c-0.287,0.49-0.592,0.969-0.83,1.48
		c-0.028,0.061,0.309,0.288,0.476,0.438C204.896,204.699,205.181,204.137,205.464,203.575z"/>
	<path fill="#1E1C1D" d="M201.012,204.619c0.974-0.469,1.219-0.967,0.715-1.816c-0.372,0.594-0.697,1.112-1.022,1.631
		C200.808,204.495,200.911,204.557,201.012,204.619z"/>
	<path fill="#1E1C1D" d="M202.737,211.002c-0.426,0.624-0.77,1.128-1.219,1.783C202.625,212.866,203.134,212.13,202.737,211.002z"/>
	<path fill="#1E1C1D" d="M203.837,214.661c-0.122-0.105-0.245-0.21-0.367-0.316c-0.9,0.304-1.209,1.238-1.813,1.86
		c0.154,0.133,0.307,0.267,0.46,0.4C202.691,215.957,203.264,215.309,203.837,214.661z"/>
	<path fill="#1E1C1D" d="M204.578,217.36c-0.081-0.204-0.161-0.409-0.243-0.613c-0.52,0.23-1.05,0.448-1.549,0.717
		c-0.04,0.021,0.117,0.394,0.181,0.603C203.502,217.832,204.042,217.596,204.578,217.36z"/>
	<path fill="#1E1C1D" d="M201.401,195.755c0.117,0.132,0.234,0.264,0.351,0.396c0.47-0.485,0.969-0.948,1.391-1.472
		c0.087-0.111-0.103-0.44-0.254-1.004C202.254,194.563,201.828,195.159,201.401,195.755z"/>
	<path fill="#1E1C1D" d="M199.155,196.198c0.542-0.605,1.045-1.169,1.552-1.733C199.354,194.412,198.699,195.258,199.155,196.198z"
		/>
	<path fill="#1E1C1D" d="M200.04,216.146c-0.22,0.421-0.477,0.829-0.635,1.271c-0.037,0.105,0.254,0.324,0.395,0.49
		C200.022,217.367,200.792,216.982,200.04,216.146z"/>
	<path fill="#1E1C1D" d="M203.64,199.839c-0.351,0.477-0.71,0.947-1.036,1.441c-0.025,0.042,0.193,0.239,0.44,0.534
		c0.364-0.624,0.671-1.127,0.941-1.648C204.007,200.125,203.761,199.951,203.64,199.839z"/>
	<path fill="#1E1C1D" d="M202.852,209.425c0.527-0.568,1.031-1.157,1.563-1.765c-0.119-0.17-0.181-0.35-0.273-0.365
		c-0.158-0.027-0.408-0.013-0.493,0.088c-0.413,0.49-0.793,1.009-1.16,1.533c-0.062,0.089-0.06,0.293,0.004,0.379
		C202.561,209.383,202.815,209.464,202.852,209.425z"/>
	<path fill="#1E1C1D" d="M218.623,197.876c0.388-0.64,0.713-1.182,1.041-1.722c-0.115-0.055-0.23-0.11-0.344-0.166
		C218.31,196.682,218.133,197.049,218.623,197.876z"/>
	<path fill="#1E1C1D" d="M202.096,199.288c0.362-0.584,0.674-1.086,1.061-1.709C201.995,197.657,201.562,198.379,202.096,199.288z"
		/>
	<path fill="#1E1C1D" d="M209.587,217.467c0.126-0.088,0.192-0.266,0.286-0.402c-0.087-0.124-0.174-0.248-0.261-0.371
		c-0.364,0.272-0.756,0.523-1.083,0.836c-0.085,0.083,0.021,0.362,0.039,0.551C208.909,217.878,209.262,217.692,209.587,217.467z"/>
	<path fill="#1E1C1D" d="M199.836,212.185c-0.096-0.076-0.189-0.153-0.287-0.229c-0.357,0.55-0.715,1.099-1.123,1.722
		C199.462,213.765,199.815,213.331,199.836,212.185z"/>
	<path fill="#1E1C1D" d="M206.003,209.838c-0.221-0.167-0.363-0.273-0.504-0.379c-0.303,0.408-0.626,0.802-0.885,1.235
		c-0.046,0.075,0.176,0.309,0.275,0.47C205.24,210.748,205.59,210.331,206.003,209.838z"/>
	<path fill="#1E1C1D" d="M208.121,212.211c0.953,0.362,1.833-0.393,1.847-1.762C209.37,211.019,208.773,211.588,208.121,212.211z"/>
	<path fill="#1E1C1D" d="M210.921,199.507c-1.13,0.803-1.336,1.306-0.814,2.007C211.159,200.331,211.251,200.105,210.921,199.507z"
		/>
	<path fill="#1E1C1D" d="M205.341,191.933c-0.089,0.115,0.034,0.588,0.14,0.618c0.488,0.133,1.203-0.988,0.933-1.66
		C205.994,191.284,205.618,191.572,205.341,191.933z"/>
	<path fill="#1E1C1D" d="M206.951,195.793c0.136,0.092,0.269,0.184,0.404,0.277c0.353-0.621,0.706-1.241,1.059-1.861
		c-0.119-0.072-0.239-0.144-0.36-0.216C207.28,194.329,207.105,195.054,206.951,195.793z"/>
	<path fill="#1E1C1D" d="M207.456,203.369c1.049-1.439,1.162-2.137,0.426-2.753C207.745,201.508,207.064,202.197,207.456,203.369z"
		/>
	<path fill="#1E1C1D" d="M205.785,201.15c1.022-0.322,0.876-1.298,1.163-2.038C205.937,199.458,205.872,200.309,205.785,201.15z"/>
	<path fill="#1E1C1D" d="M249.374,205.274c0.474-0.293,0.935-0.61,1.489-0.988c-0.488-0.434-0.628-0.558-0.766-0.681
		c-0.339,0.435-0.689,0.863-1.001,1.316C249.068,204.962,249.357,205.284,249.374,205.274z"/>
	<path fill="#1E1C1D" d="M208.973,206.784c-0.415,0.604-0.708,1.034-1.106,1.613C208.978,208.513,209.242,208.136,208.973,206.784z"
		/>
	<path fill="#1E1C1D" d="M207.027,216.9c0.547-0.639,1.065-1.306,1.76-2.173c-1.178,0.071-2.431,1.283-2.388,1.988
		c0.007,0.094,0.089,0.255,0.147,0.26C206.707,216.988,206.944,216.995,207.027,216.9z"/>
	<path fill="#1E1C1D" d="M232.403,224.303c0.271-0.322,0.387-0.771,0.571-1.166c-0.122-0.06-0.241-0.119-0.36-0.18
		c-0.392,0.425-0.784,0.85-1.178,1.275c0.039,0.104,0.078,0.207,0.115,0.31C231.844,224.47,232.248,224.488,232.403,224.303z"/>
	<path fill="#1E1C1D" d="M230.476,206.131c-0.53,0.548-0.907,0.94-1.366,1.416C230.059,208.08,230.474,207.675,230.476,206.131z"/>
	<path fill="#1E1C1D" d="M230.24,222.669c-0.31,0.336-0.64,0.656-0.917,1.017c-0.083,0.107-0.084,0.386-0.002,0.476
		c0.089,0.097,0.426,0.14,0.477,0.074c0.323-0.417,0.594-0.871,0.882-1.311C230.533,222.839,230.387,222.754,230.24,222.669z"/>
	<path fill="#1E1C1D" d="M231.602,211.942c-0.108-0.076-0.213-0.152-0.322-0.229c-0.524,0.75-1.048,1.5-1.654,2.365
		C230.586,214.106,231.512,212.954,231.602,211.942z"/>
	<path fill="#1E1C1D" d="M230.485,216.026c-0.348,0.459-0.712,0.908-1.024,1.39c-0.062,0.094,0.087,0.32,0.213,0.714
		c0.594-0.821,0.924-1.262,1.217-1.727C230.909,216.372,230.627,216.156,230.485,216.026z"/>
	<path fill="#1E1C1D" d="M229.77,228.25c0.229-0.265,0.392-0.603,0.519-0.935c0.068-0.185,0.002-0.421-0.003-0.636
		c-0.19,0.059-0.47,0.057-0.555,0.184c-0.371,0.544-0.683,1.127-1.017,1.696c0.086,0.087,0.176,0.175,0.263,0.263
		C229.246,228.635,229.562,228.489,229.77,228.25z"/>
	<path fill="#1E1C1D" d="M228.743,211.732c0.31-0.625,0.576-1.27,0.855-1.909c-0.183-0.081-0.368-0.16-0.552-0.239
		c-0.312,0.597-0.635,1.189-0.924,1.797c-0.042,0.085,0.051,0.323,0.136,0.356C228.404,211.794,228.709,211.802,228.743,211.732z"/>
	<path fill="#1E1C1D" d="M229.323,198.637c0.16,0.095,0.323,0.189,0.483,0.283c0.349-0.543,0.697-1.087,1.045-1.631
		c-0.181-0.095-0.359-0.19-0.541-0.286C229.98,197.548,229.651,198.093,229.323,198.637z"/>
	<path fill="#1E1C1D" d="M228.313,218.992c-0.308,0.154-0.699,0.24-0.898,0.481c-0.236,0.286-0.307,0.705-0.45,1.066
		c0.14,0.043,0.28,0.086,0.419,0.129c0.374-0.454,0.745-0.908,1.119-1.361C228.439,219.203,228.377,219.098,228.313,218.992z"/>
	<path fill="#1E1C1D" d="M230.781,202.839c-0.426,0.653-0.814,1.244-1.292,1.976C230.767,204.693,231.34,203.747,230.781,202.839z"
		/>
	<path fill="#1E1C1D" d="M231.686,200.039c-0.133-0.062-0.266-0.124-0.399-0.185c-0.357,0.449-0.715,0.897-1.073,1.347
		c0.038,0.089,0.071,0.177,0.108,0.266c0.282-0.052,0.696-0.01,0.815-0.176C231.402,200.93,231.512,200.462,231.686,200.039z"/>
	<path fill="#1E1C1D" d="M234.892,221.548c-1.116,0.468-1.299,1.118-0.646,2.237C234.484,222.963,234.663,222.346,234.892,221.548z"
		/>
	<path fill="#1E1C1D" d="M249.884,199.49c0.155,0.106,0.31,0.213,0.463,0.32c0.341-0.478,0.68-0.956,1.021-1.434
		c-0.16-0.119-0.323-0.238-0.483-0.357C250.551,198.509,250.219,199,249.884,199.49z"/>
	<path fill="#1E1C1D" d="M251.357,202.229c0.356-0.529,0.695-1.07,1.036-1.608c-0.174-0.102-0.346-0.202-0.518-0.303
		c-0.309,0.466-0.637,0.922-0.916,1.406c-0.06,0.103,0.036,0.32,0.109,0.459C251.096,202.236,251.333,202.265,251.357,202.229z"/>
	<path fill="#1E1C1D" d="M235.497,214.214c-0.066-0.081-0.304-0.144-0.361-0.096c-0.511,0.424-1,0.875-1.492,1.318
		c0.144,0.154,0.291,0.309,0.435,0.462c0.488-0.432,0.983-0.856,1.453-1.306C235.594,214.533,235.566,214.301,235.497,214.214z"/>
	<path fill="#1E1C1D" d="M249.545,196.576c1.256-0.108,1.976-1.122,1.564-2.085C250.595,195.178,250.152,195.767,249.545,196.576z"
		/>
	<path fill="#1E1C1D" d="M249.235,192.163c0.037,0.105,0.076,0.211,0.115,0.317c0.3-0.073,0.735-0.049,0.875-0.239
		c0.292-0.393,0.426-0.898,0.626-1.357c-0.124-0.062-0.248-0.124-0.372-0.187C250.065,191.186,249.65,191.674,249.235,192.163z"/>
	<path fill="#1E1C1D" d="M231.737,197.547c0.144,0.103,0.291,0.205,0.435,0.308c0.307-0.459,0.639-0.906,0.9-1.39
		c0.046-0.084-0.215-0.329-0.433-0.641C232.274,196.52,232.004,197.034,231.737,197.547z"/>
	<path fill="#1E1C1D" d="M232.651,209.745c0.252-0.593,0.509-1.183,0.735-1.784c0.021-0.054-0.174-0.268-0.254-0.26
		c-0.156,0.016-0.385,0.101-0.438,0.22c-0.215,0.5-0.376,1.023-0.555,1.538C232.309,209.556,232.481,209.65,232.651,209.745z"/>
	<path fill="#1E1C1D" d="M233.35,216.736c-0.096-0.081-0.19-0.16-0.286-0.24c-0.355,0.529-0.711,1.058-1.103,1.643
		C232.917,218.346,233.317,217.87,233.35,216.736z"/>
	<path fill="#1E1C1D" d="M234.342,226.98c0.05-0.119-0.208-0.531-0.314-0.528c-0.492,0.021-1.102,1.75-0.697,2.449
		C233.735,228.158,234.076,227.586,234.342,226.98z"/>
	<path fill="#1E1C1D" d="M234.998,231.109c-0.124-0.024-0.25-0.05-0.373-0.075c-0.232,0.384-0.461,0.77-0.855,1.423
		c0.467-0.084,0.896-0.052,0.974-0.2C234.922,231.922,234.924,231.497,234.998,231.109z"/>
	<path fill="#1E1C1D" d="M226.743,224.726c-0.53,0.768-0.917,1.328-1.325,1.921C226.372,226.886,227.041,226.048,226.743,224.726z"
		/>
	<path fill="#1E1C1D" d="M223.028,225.2c-1.413,1.023-1.843,1.855-1.298,2.523C222.15,226.911,223.104,226.453,223.028,225.2z"/>
	<path fill="#1E1C1D" d="M223.97,216.795c0.087-0.048,0.025-0.353,0.032-0.539c-0.386,0.183-0.782,0.347-1.153,0.553
		c-0.177,0.098-0.31,0.274-0.564,0.509C223.262,218.006,223.493,217.058,223.97,216.795z"/>
	<path fill="#1E1C1D" d="M222.235,212.681c0.341-0.826,0.622-1.5,1.002-2.422C222.02,210.678,221.648,211.626,222.235,212.681z"/>
	<path fill="#1E1C1D" d="M222.196,192.596c-0.112,0.178,0.051,0.523,0.089,0.793c0.094-0.003,0.19-0.006,0.284-0.01
		c0.342-0.591,0.683-1.182,1.08-1.874C222.553,191.314,222.489,192.128,222.196,192.596z"/>
	<path fill="#1E1C1D" d="M222.909,205.765c-0.186-0.103-0.371-0.205-0.56-0.308c-0.425,0.658-0.864,1.309-1.262,1.983
		c-0.058,0.099,0.032,0.342,0.128,0.453c0.06,0.065,0.351,0.059,0.394-0.006C222.059,207.189,222.48,206.475,222.909,205.765z"/>
	<path fill="#1E1C1D" d="M223.626,207.887c-0.183,0.459-0.375,0.916-0.522,1.387c-0.007,0.021,0.377,0.165,0.582,0.25
		c0.172-0.477,0.342-0.955,0.514-1.431C224.009,208.024,223.816,207.955,223.626,207.887z"/>
	<path fill="#1E1C1D" d="M222.792,195.689c0.055,0.095,0.586,0.087,0.646-0.015c0.36-0.63,0.649-1.299,0.988-2.009
		C223.615,193.717,222.496,195.183,222.792,195.689z"/>
	<path fill="#1E1C1D" d="M218.179,214.08c-1.371,0.95-1.622,1.42-0.979,2.126c0.465-0.663,0.907-1.294,1.35-1.926
		C218.426,214.213,218.303,214.147,218.179,214.08z"/>
	<path fill="#1E1C1D" d="M221.261,212.084c-0.506,0.748-0.91,1.343-1.313,1.937c0.034,0.079,0.071,0.158,0.105,0.236
		c0.277-0.084,0.72-0.093,0.8-0.266C221.098,213.47,221.857,213.023,221.261,212.084z"/>
	<path fill="#1E1C1D" d="M217.298,223.819c0.312-0.282,0.484-0.715,0.713-1.086c-0.105-0.064-0.21-0.128-0.313-0.192
		c-0.413,0.322-0.828,0.645-1.241,0.967c-0.007,0.099-0.014,0.197-0.021,0.296C216.733,223.817,217.145,223.958,217.298,223.819z"/>
	<path fill="#1E1C1D" d="M225.498,223.358c0.005,0.143,0.399,0.416,0.429,0.392c0.566-0.43,1.102-0.897,1.82-1.502
		C226.924,222.158,225.484,222.989,225.498,223.358z"/>
	<path fill="#1E1C1D" d="M220.454,217.436c0.314-0.286,0.486-0.725,0.718-1.1c-0.115-0.082-0.229-0.164-0.344-0.245
		c-0.452,0.391-0.903,0.781-1.357,1.172c0.03,0.09,0.057,0.181,0.084,0.271C219.863,217.51,220.278,217.599,220.454,217.436z"/>
	<path fill="#1E1C1D" d="M219.332,210.843c-0.426,0.787-0.798,1.472-1.226,2.26C219.215,213.046,219.877,211.808,219.332,210.843z"
		/>
	<path fill="#1E1C1D" d="M225.338,212.021c-0.401,0.134-0.912,1.606-0.624,2.402c0.44-0.772,0.768-1.317,1.057-1.881
		c0.059-0.121,0.016-0.337-0.057-0.465C225.673,212.007,225.45,211.984,225.338,212.021z"/>
	<path fill="#1E1C1D" d="M226.092,201.18c0.108,0.104,0.216,0.208,0.321,0.312c0.229-0.216,0.547-0.393,0.664-0.657
		c0.174-0.396,0.209-0.854,0.303-1.286c-0.137-0.036-0.275-0.071-0.415-0.107C226.674,200.021,226.383,200.601,226.092,201.18z"/>
	<path fill="#1E1C1D" d="M224.71,201.314c-0.087,0.207-0.089,0.448-0.172,0.923c0.394-0.269,0.676-0.355,0.75-0.529
		c0.16-0.379,0.224-0.801,0.296-1.209c0.004-0.031-0.339-0.166-0.351-0.148C225.04,200.662,224.85,200.979,224.71,201.314z"/>
	<path fill="#1E1C1D" d="M224.891,206.662c0.182,0.062,0.365,0.125,0.548,0.188c0.362-0.777,0.99-1.466,0.836-2.411
		c-0.153-0.055-0.31-0.11-0.463-0.166C225.505,205.069,225.198,205.865,224.891,206.662z"/>
	<path fill="#1E1C1D" d="M225.854,208.245c-0.149,0.164-0.192,0.419-0.227,0.682c0.486-0.242,0.988-0.46,1.432-0.763
		c0.136-0.093,0.067-0.476,0.095-0.726C226.71,207.699,226.181,207.883,225.854,208.245z"/>
	<path fill="#1E1C1D" d="M225.792,216.853c0.608-0.955,1.082-1.695,1.653-2.59C226.186,214.425,225.379,215.636,225.792,216.853z"/>
	<path fill="#1E1C1D" d="M217.771,218.338c-0.094-0.102-0.19-0.205-0.285-0.308c-0.46,0.416-0.923,0.831-1.384,1.246
		c0.094,0.119,0.188,0.239,0.284,0.357C217.273,219.646,217.47,218.938,217.771,218.338z"/>
	<path fill="#1E1C1D" d="M228.173,201.414c-0.262,0.493-0.539,0.979-0.769,1.487c-0.048,0.104,0.046,0.325,0.147,0.419
		c0.06,0.057,0.341,0.016,0.378-0.053c0.273-0.539,0.511-1.095,0.761-1.646C228.517,201.552,228.345,201.483,228.173,201.414z"/>
	<path fill="#1E1C1D" d="M227.248,217.604c0.329-0.244,0.671-0.475,0.983-0.739c0.121-0.104,0.172-0.286,0.254-0.432
		c-0.106-0.121-0.211-0.242-0.316-0.364c-0.385,0.367-0.782,0.724-1.142,1.115C226.99,217.225,227.169,217.459,227.248,217.604z"/>
	<path fill="#1E1C1D" d="M225.551,209.395c0.034-0.147,0.055-0.309,0.075-0.468c-0.036,0.018-0.075,0.037-0.112,0.055
		C225.526,209.119,225.54,209.257,225.551,209.395z"/>
	<path fill="#1E1C1D" d="M221.685,204.104c0.086,0.072,0.324,0.11,0.379,0.053c0.584-0.606,1.106-1.251,1.187-2.099
		c-0.122-0.069-0.246-0.138-0.369-0.207c-0.44,0.629-0.892,1.251-1.313,1.893C221.522,203.815,221.598,204.032,221.685,204.104z"/>
	<path fill="#1E1C1D" d="M206.122,206.701c-0.027,0.055,0.136,0.258,0.243,0.296c0.108,0.038,0.335-0.005,0.378-0.084
		c0.353-0.624,0.674-1.266,1.006-1.902c-0.12-0.074-0.239-0.149-0.358-0.224C206.619,205.17,206.452,206,206.122,206.701z"/>
	<path fill="#1E1C1D" d="M289.928,206.951c0.137,0.012,0.276,0.023,0.414,0.034c0.283-0.414,0.607-0.81,0.823-1.255
		c0.063-0.127-0.188-0.403-0.294-0.61c-0.268,0.316-0.586,0.605-0.786,0.959C289.947,206.324,289.973,206.657,289.928,206.951z"/>
	<path fill="#1E1C1D" d="M283.703,192.919c0.251-0.915,0.439-1.594,0.689-2.499C283.188,191.155,282.987,191.881,283.703,192.919z"
		/>
	<path fill="#1E1C1D" d="M292.775,216.653c-1.265,0.113-1.597,0.695-1.049,1.542C292.1,217.646,292.436,217.15,292.775,216.653z"/>
	<path fill="#1E1C1D" d="M292.202,194.597c-0.063-0.096-0.13-0.193-0.194-0.289c-0.25,0.145-0.613,0.233-0.722,0.447
		c-0.19,0.373-0.222,0.824-0.319,1.242c0.148,0.01,0.294,0.021,0.441,0.032C291.674,195.551,291.937,195.075,292.202,194.597z"/>
	<path fill="#1E1C1D" d="M290.951,228.691c0.321-0.635,0.636-1.272,0.924-1.922c0.034-0.077-0.094-0.317-0.172-0.33
		c-0.146-0.023-0.405,0.013-0.456,0.11c-0.343,0.622-0.655,1.259-0.929,1.911c-0.039,0.093,0.184,0.292,0.291,0.452
		C290.776,228.806,290.91,228.771,290.951,228.691z"/>
	<path fill="#1E1C1D" d="M291.591,186.978c0.784,0.008,1.091-0.373,1.421-1.759C292.214,185.214,291.894,185.611,291.591,186.978z"
		/>
	<path fill="#1E1C1D" d="M291.004,209.777c1.135-0.097,1.243-1.055,1.606-1.8C291.531,208.121,291.323,208.996,291.004,209.777z"/>
	<path fill="#1E1C1D" d="M290.083,215.428c-0.142,0.145-0.225,0.347-0.41,0.646c1.214,0.473,1.051-0.666,1.494-1.008
		c0.053-0.042-0.089-0.332-0.142-0.507C290.708,214.847,290.38,215.123,290.083,215.428z"/>
	<path fill="#1E1C1D" d="M292.905,213.541c0.163-0.5,0.29-1.013,0.426-1.521c-0.169-0.04-0.336-0.078-0.506-0.117
		c-0.174,0.435-0.373,0.865-0.51,1.312c-0.033,0.106,0.104,0.313,0.222,0.397C292.61,213.665,292.886,213.603,292.905,213.541z"/>
	<path fill="#1E1C1D" d="M290.793,223.138c0.275-0.728,0.484-1.279,0.753-1.987C290.433,221.507,290.131,222.29,290.793,223.138z"/>
	<path fill="#1E1C1D" d="M290.844,211.92c-0.313,0.531-0.578,0.903-0.741,1.315c-0.041,0.105,0.277,0.5,0.388,0.482
		C290.922,213.654,291.214,212.543,290.844,211.92z"/>
	<path fill="#1E1C1D" d="M290.846,203.907c0.338-0.653,0.633-1.192,0.885-1.75c0.055-0.126,0-0.343-0.082-0.47
		c-0.042-0.064-0.273-0.067-0.386-0.021C290.594,201.941,290.332,203.128,290.846,203.907z"/>
	<path fill="#1E1C1D" d="M286.866,198.804c0.208-0.659,0.41-1.288,0.608-1.917c-0.121-0.036-0.243-0.071-0.361-0.106
		C286.196,197.642,286.093,198.262,286.866,198.804z"/>
	<path fill="#1E1C1D" d="M290.827,193.55c1.107,0.218,1.092-0.688,1.49-1.084c0.029-0.027-0.151-0.261-0.235-0.4
		c-0.324,0.304-0.658,0.598-0.963,0.917C291.009,193.096,290.965,193.274,290.827,193.55z"/>
	<path fill="#1E1C1D" d="M286.684,189.709c-0.371,0.473-1.053,0.855-0.554,1.858c0.412-0.543,0.706-0.893,0.946-1.274
		c0.074-0.115,0.041-0.345-0.027-0.48C287.008,189.733,286.716,189.67,286.684,189.709z"/>
	<path fill="#1E1C1D" d="M283.721,205.529c0.994-0.069,1.681-1.157,1.52-2.219C284.156,203.649,284.177,204.652,283.721,205.529z"/>
	<path fill="#1E1C1D" d="M283.302,196.117c1.161-0.003,1.77-0.859,1.334-2.03C284.136,194.849,283.746,195.439,283.302,196.117z"/>
	<path fill="#1E1C1D" d="M284.986,188.622c-0.025,0.049,0.24,0.245,0.371,0.372c0.303-0.417,0.607-0.835,0.963-1.325
		c-0.234-0.157-0.385-0.259-0.538-0.363C285.509,187.742,285.223,188.169,284.986,188.622z"/>
	<path fill="#1E1C1D" d="M290.951,188.867c-0.39,0.711-0.736,1.445-1.185,2.363c0.813-0.216,1.925-1.878,1.735-2.257
		C291.449,188.867,290.98,188.813,290.951,188.867z"/>
	<path fill="#1E1C1D" d="M288.531,198.69c0.91,0.013,1.078-0.102,1.497-1.064c0.086-0.197-0.021-0.477-0.042-0.718
		c-0.101-0.015-0.204-0.03-0.307-0.044C289.315,197.442,288.953,198.021,288.531,198.69z"/>
	<path fill="#1E1C1D" d="M289.128,187.332c-0.496-0.01-0.844,1.119-0.438,1.704c0.271-0.416,0.553-0.771,0.729-1.172
		C289.474,187.742,289.238,187.334,289.128,187.332z"/>
	<path fill="#1E1C1D" d="M287.117,192.96c0.192,0.053,0.497,0.206,0.558,0.141c0.425-0.47,0.804-0.983,1.213-1.504
		c-0.132-0.155-0.219-0.257-0.307-0.36c-0.419,0.353-0.863,0.683-1.246,1.072C287.191,192.457,287.187,192.739,287.117,192.96z"/>
	<path fill="#1E1C1D" d="M288.868,193.573c-0.408,0.284-0.755,0.657-1.377,1.227c0.54,0.018,1.02,0.178,1.241,0.008
		c0.356-0.272,0.541-0.762,0.801-1.159C289.307,193.618,289.006,193.479,288.868,193.573z"/>
	<path fill="#1E1C1D" d="M289.181,208.948c-0.184,0.281-0.175,0.685-0.247,1.035c0.128,0.042,0.258,0.083,0.387,0.125
		c0.332-0.503,0.664-1.006,0.994-1.509c-0.094-0.101-0.188-0.2-0.282-0.301C289.741,208.511,289.363,208.668,289.181,208.948z"/>
	<path fill="#1E1C1D" d="M292.958,218.549c-0.157,0.566-0.332,1.128-0.455,1.702c-0.028,0.127,0.094,0.324,0.206,0.425
		c0.057,0.05,0.336-0.011,0.361-0.077c0.242-0.653,0.736-1.301,0.274-2.004C293.217,218.579,293.086,218.564,292.958,218.549z"/>
	<path fill="#1E1C1D" d="M293.859,228.64c0.109-0.14,0.219-0.28,0.329-0.42c0.001-0.356,0.001-0.713,0.002-1.068
		c-0.275,0.406-0.541,0.819-0.807,1.231C293.543,228.468,293.702,228.554,293.859,228.64z"/>
	<path fill="#1E1C1D" d="M283.418,211.688c1.077,0.104,1.722-0.604,1.653-1.946C284.426,210.5,283.966,211.042,283.418,211.688z"/>
	<path fill="#1E1C1D" d="M289.936,217.914c-0.567,0.479-1.113,0.987-1.638,1.515c-0.029,0.03,0.192,0.302,0.297,0.462
		c0.61-0.524,1.218-1.047,1.926-1.655C290.242,218.08,289.984,217.875,289.936,217.914z"/>
	<path fill="#1E1C1D" d="M284.049,228.092c-0.19,0.748-0.36,1.418-0.529,2.088c0.104,0.028,0.213,0.056,0.32,0.084
		C284.529,229.726,284.763,228.567,284.049,228.092z"/>
	<path fill="#1E1C1D" d="M283.577,220.376c0.263-0.522,0.495-0.941,0.682-1.38c0.039-0.089-0.055-0.303-0.151-0.361
		c-0.093-0.057-0.343-0.043-0.394,0.027C283.382,219.134,282.876,219.602,283.577,220.376z"/>
	<path fill="#1E1C1D" d="M294.229,192.959c-0.055,0.222-0.055,0.453,0,0.678C294.229,193.411,294.229,193.186,294.229,192.959z"/>
	<path fill="#1E1C1D" d="M294.002,222.218c0.063,0.009,0.13-0.011,0.198-0.053c0.001-0.409,0.001-0.817,0.002-1.226
		c-0.154,0.227-0.302,0.448-0.425,0.676C293.706,221.749,293.893,222.202,294.002,222.218z"/>
	<path fill="#1E1C1D" d="M293.186,190.362c-0.078,0.095,0.064,0.366,0.104,0.556c0.17-0.076,0.392-0.109,0.497-0.237
		c0.151-0.182,0.291-0.374,0.441-0.586c0-0.273,0-0.545,0-0.818C293.603,189.379,293.48,190.001,293.186,190.362z"/>
	<path fill="#1E1C1D" d="M292.695,198.309c0.112,0.007,0.224,0.014,0.334,0.021c0.397-0.7,0.796-1.404,1.199-2.119
		c0-0.106,0-0.211,0-0.316c-0.634-0.076-0.855,0.145-1.407,1.348C292.679,197.552,292.732,197.951,292.695,198.309z"/>
	<path fill="#1E1C1D" d="M292.968,235.282c-0.078,0.156,0.144,0.463,0.298,0.897c0.342-0.612,0.633-1.133,0.906-1.623
		c0.001-0.365,0.004-0.73,0.005-1.096C293.552,233.884,293.303,234.629,292.968,235.282z"/>
	<path fill="#1E1C1D" d="M283.954,215.525c0.192,0.058,0.386,0.116,0.578,0.174c0.161-0.53,0.321-1.059,0.479-1.589
		c-0.167-0.053-0.334-0.106-0.503-0.16C284.323,214.475,284.141,215,283.954,215.525z"/>
	<path fill="#1E1C1D" d="M287.182,208.612c0.182,0.026,0.362,0.052,0.543,0.078c0.082-0.517,0.165-1.035,0.247-1.552
		c-0.192-0.028-0.387-0.055-0.579-0.083C287.321,207.575,287.253,208.093,287.182,208.612z"/>
	<path fill="#1E1C1D" d="M287.727,223.062c0.367-0.461,0.921-0.871,0.398-1.812c-0.361,0.551-0.646,0.932-0.851,1.351
		C287.241,222.666,287.567,222.903,287.727,223.062z"/>
	<path fill="#1E1C1D" d="M289.943,225.042c-0.124-0.047-0.248-0.096-0.371-0.144c-0.954,0.803-1.025,1.029-0.419,1.802
		C289.441,226.094,289.691,225.567,289.943,225.042z"/>
	<path fill="#1E1C1D" d="M288.817,228.64c-0.553,0.661-1.032,1.237-1.599,1.917C288.404,230.739,289.234,229.71,288.817,228.64z"/>
	<path fill="#1E1C1D" d="M288.011,201.926c0.299-0.61,0.548-1.241,0.813-1.865c-0.188-0.091-0.378-0.183-0.565-0.274
		c-0.307,0.654-0.623,1.305-0.907,1.968c-0.03,0.071,0.121,0.311,0.199,0.316C287.704,202.084,287.96,202.03,288.011,201.926z"/>
	<path fill="#1E1C1D" d="M284.529,233.683c0.354-0.463,0.643-0.973,0.956-1.465c-0.148-0.112-0.297-0.223-0.443-0.334
		c-0.364,0.45-0.75,0.886-1.08,1.36c-0.088,0.124-0.006,0.361,0.002,0.548C284.156,233.759,284.445,233.795,284.529,233.683z"/>
	<path fill="#1E1C1D" d="M284.988,208.549c0.461-0.685,0.818-1.217,1.334-1.979C284.969,206.854,284.512,207.586,284.988,208.549z"
		/>
	<path fill="#1E1C1D" d="M283.775,224.137c0.069,0.108,0.14,0.216,0.212,0.324c0.224-0.111,0.554-0.165,0.656-0.343
		c0.579-1.012,0.618-1.559,0.123-2.116C284.418,222.752,284.097,223.445,283.775,224.137z"/>
	<path fill="#1E1C1D" d="M287.649,205.282c0.247-0.595,0.495-1.19,0.741-1.786c-0.178-0.073-0.356-0.146-0.535-0.219
		c-0.235,0.561-0.488,1.117-0.688,1.691C287.152,205.013,287.479,205.175,287.649,205.282z"/>
	<path fill="#1E1C1D" d="M287.326,219.672c0.037-0.059-0.162-0.267-0.252-0.405c-0.329,0.345-0.679,0.674-0.972,1.047
		c-0.106,0.134-0.071,0.376-0.102,0.569c0.102,0.063,0.204,0.126,0.306,0.19C286.652,220.609,287.01,220.154,287.326,219.672z"/>
	<path fill="#1E1C1D" d="M286.734,217.343c0.052-0.11-0.027-0.332-0.119-0.441c-0.051-0.059-0.328-0.042-0.381,0.029
		c-0.359,0.471-1,0.905-0.252,1.729C286.262,218.18,286.523,217.774,286.734,217.343z"/>
	<path fill="#1E1C1D" d="M292.088,239.804c0.053-0.176-0.087-0.41-0.21-0.891c-0.444,0.595-0.784,0.894-0.915,1.265
		c-0.119,0.336-0.01,0.75,0,1.13c0.19-0.057,0.484-0.057,0.555-0.18C291.756,240.712,291.948,240.262,292.088,239.804z"/>
	<path fill="#1E1C1D" d="M191.719,199.365c-0.295,0.618-0.603,1.231-0.874,1.858c-0.041,0.092,0.062,0.342,0.143,0.363
		c0.151,0.042,0.447,0.024,0.488-0.06c0.303-0.631,0.557-1.285,0.827-1.932C192.108,199.519,191.914,199.442,191.719,199.365z"/>
	<path fill="#1E1C1D" d="M192.228,194.361c0.351-0.234,0.566-0.678,0.807-1.052c0.03-0.048-0.114-0.296-0.204-0.31
		c-0.149-0.024-0.353,0.021-0.468,0.116c-0.385,0.314-0.742,0.665-1.414,1.278C191.533,194.393,191.98,194.525,192.228,194.361z"/>
	<path fill="#1E1C1D" d="M190.323,198.467c0.222-0.765,0.412-1.419,0.603-2.073C189.764,197.07,189.622,197.689,190.323,198.467z"/>
	<path fill="#1E1C1D" d="M190.506,204.723c0.209,0.083,0.419,0.166,0.631,0.249c0.245-0.638,0.492-1.275,0.737-1.914
		c-0.171-0.071-0.343-0.143-0.513-0.214C191.075,203.471,190.791,204.097,190.506,204.723z"/>
	<path fill="#1E1C1D" d="M195.599,191.628c-0.329,0.287-0.667,0.562-0.974,0.868c-0.115,0.115-0.154,0.303-0.302,0.619
		c1.059,0.167,1.106-0.67,1.48-1.084C195.839,191.99,195.672,191.767,195.599,191.628z"/>
	<path fill="#1E1C1D" d="M193.591,197.044c0.078-0.079-0.098-0.409-0.238-0.913c-0.537,0.855-0.889,1.417-1.364,2.172
		C193.252,198.441,193.167,197.466,193.591,197.044z"/>
	<path fill="#1E1C1D" d="M225.645,219.038c-0.027-0.101-0.058-0.201-0.085-0.302c-0.843,0.26-1.685,0.521-2.607,0.809
		C223.784,220.287,224.751,220.056,225.645,219.038z"/>
	<path fill="#1E1C1D" d="M223.684,227.987c0.326-0.474,0.651-0.947,0.974-1.42c-0.149-0.102-0.298-0.203-0.447-0.305
		c-0.342,0.47-0.685,0.939-1.027,1.409C223.352,227.776,223.519,227.881,223.684,227.987z"/>
	<path fill="#1E1C1D" d="M192.046,190.795c-0.41,0.323-0.836,0.637-1.185,1.02c-0.156,0.17-0.153,0.484-0.22,0.734
		c0.193,0.033,0.496,0.162,0.564,0.085c0.405-0.446,0.753-0.94,1.17-1.481C192.251,191.017,192.056,190.789,192.046,190.795z"/>
	<path fill="#1E1C1D" d="M205.7,214.311c-0.506,0.594-0.926,1.221-0.293,2.128c0.288-0.608,0.587-1.212,0.853-1.83
		c0.034-0.08-0.076-0.286-0.172-0.336C205.989,214.22,205.764,214.237,205.7,214.311z"/>
	<path fill="#1E1C1D" d="M206.454,210.894c-0.428,0.482-0.855,0.965-1.441,1.622c0.44,0.07,0.837,0.225,0.912,0.128
		c0.369-0.458,0.651-0.983,0.962-1.485C206.743,211.07,206.599,210.982,206.454,210.894z"/>
	<path fill="#1E1C1D" d="M194.104,203.39c0.11-0.031,0.221-0.063,0.331-0.094c0.25-0.49,0.511-0.976,0.743-1.475
		c0.069-0.147,0.091-0.344,0.05-0.496c-0.019-0.074-0.312-0.17-0.344-0.135c-0.303,0.334-0.674,0.659-0.828,1.06
		C193.933,202.577,194.08,203.006,194.104,203.39z"/>
	<path fill="#1E1C1D" d="M199.323,201.303c-0.31,0.681-0.591,1.3-0.874,1.917c0.117,0.047,0.236,0.094,0.353,0.141
		C199.761,202.621,199.976,201.971,199.323,201.303z"/>
	<path fill="#1E1C1D" d="M197.632,195.28c-0.878,0.104-0.99,1.001-1.364,1.586c-0.163,0.253-0.062,0.67-0.083,1.011
		c0.112,0.009,0.223,0.019,0.333,0.027c0.451-0.792,0.902-1.585,1.354-2.378C197.792,195.444,197.711,195.361,197.632,195.28z"/>
	<path fill="#1E1C1D" d="M196.396,211.265c-0.262,0.665-0.468,1.188-0.729,1.849C196.722,213.031,197.015,212.308,196.396,211.265z"
		/>
	<path fill="#1E1C1D" d="M197.876,193.721c0.458-0.924,0.823-1.66,1.226-2.472C197.993,191.339,197.347,192.547,197.876,193.721z"/>
	<path fill="#1E1C1D" d="M199.625,208.934c-0.099-0.08-0.197-0.161-0.295-0.242c-0.445,0.615-0.887,1.231-1.448,2.009
		C198.991,210.635,199.515,209.99,199.625,208.934z"/>
	<path fill="#1E1C1D" d="M193.8,208.173c-0.087-0.101-0.176-0.203-0.264-0.305c-0.305,0.225-0.695,0.397-0.891,0.692
		c-0.172,0.254-0.124,0.65-0.174,0.983c0.128,0.026,0.254,0.053,0.382,0.079C193.169,209.14,193.486,208.657,193.8,208.173z"/>
	<path fill="#1E1C1D" d="M243.548,232.947c-0.126,0.183-0.023,0.519-0.023,0.785c0.122,0.031,0.245,0.062,0.366,0.093
		c0.122-0.255,0.273-0.501,0.358-0.768c0.099-0.317,0.138-0.651,0.204-0.979C244.144,232.363,243.779,232.61,243.548,232.947z"/>
	<path fill="#1E1C1D" d="M193.66,206.724c0.403-0.552,0.727-0.964,1.006-1.404c0.073-0.113,0.043-0.335-0.023-0.468
		c-0.043-0.089-0.241-0.168-0.353-0.152C193.813,204.772,193.355,205.946,193.66,206.724z"/>
	<path fill="#1E1C1D" d="M194.796,195.707c0.3-0.484,0.552-0.857,0.761-1.253c0.06-0.117,0.037-0.326-0.034-0.445
		c-0.048-0.086-0.255-0.147-0.367-0.121C194.62,194.012,194.366,195.066,194.796,195.707z"/>
	<path fill="#1E1C1D" d="M195.816,207.146c-0.555,0.762-1.024,1.407-1.561,2.144C195.376,209.394,196.254,208.224,195.816,207.146z"
		/>
	<path fill="#1E1C1D" d="M194.173,211.544c-0.224,0.597-0.428,1.135-0.632,1.673c0.126,0.033,0.256,0.065,0.382,0.097
		C194.858,212.3,194.893,212.149,194.173,211.544z"/>
	<path fill="#1E1C1D" d="M244.433,229.569c-0.371,0.58-0.704,1.097-1.19,1.856C244.597,231.05,244.964,230.391,244.433,229.569z"/>
	<path fill="#1E1C1D" d="M288.685,237.516c-0.321,0.495-0.644,0.991-0.917,1.512c-0.082,0.156-0.043,0.39-0.011,0.581
		c0.011,0.07,0.158,0.118,0.378,0.264c0.216-0.376,0.47-0.708,0.605-1.08c0.137-0.372,0.159-0.784,0.213-1.181
		C288.957,237.591,288.696,237.497,288.685,237.516z"/>
	<path fill="#1E1C1D" d="M288.021,234.325c-1.236,0.444-1.511,1.221-0.931,2.221C287.396,235.815,287.651,235.208,288.021,234.325z"
		/>
	<path fill="#1E1C1D" d="M287.491,242.502c-0.039,0.093,0.123,0.312,0.247,0.404c0.061,0.045,0.318-0.033,0.355-0.113
		c0.243-0.551,0.451-1.117,0.668-1.678c-0.167-0.072-0.336-0.146-0.503-0.218C287.995,241.43,287.718,241.956,287.491,242.502z"/>
	<path fill="#1E1C1D" d="M283.08,199.135c0.41-0.518,1.19-0.872,0.841-1.723c-0.124-0.057-0.248-0.113-0.369-0.17
		c-0.287,0.572-0.572,1.145-0.859,1.717C282.82,199.018,282.952,199.076,283.08,199.135z"/>
	<path fill="#1E1C1D" d="M289.799,230.872c-0.533,0.38-0.973,0.664-1.371,0.99c-0.153,0.125-0.222,0.351-0.33,0.531
		c0.223,0.083,0.489,0.287,0.66,0.228C289.444,232.381,289.957,231.964,289.799,230.872z"/>
	<path fill="#1E1C1D" d="M289.865,236.122c0.272-0.442,0.439-0.949,0.648-1.431c-0.151-0.071-0.303-0.142-0.454-0.213
		c-0.361,0.565-0.722,1.131-1.083,1.696c0.063,0.085,0.126,0.17,0.19,0.254C289.407,236.331,289.755,236.298,289.865,236.122z"/>
	<path fill="#1E1C1D" d="M283.428,202.071c0.078-0.705,0.155-1.409,0.245-2.199c-1.095,0.471-1.181,0.879-0.575,2.149
		C283.208,202.038,283.317,202.055,283.428,202.071z"/>
	<path fill="#1E1C1D" d="M284.211,234.946c-0.31,0.307-0.669,0.58-0.905,0.933c-0.144,0.214-0.096,0.554-0.132,0.837
		c0.122,0.024,0.242,0.049,0.361,0.075c0.337-0.487,0.669-0.974,1.004-1.46C284.432,235.202,284.319,235.074,284.211,234.946z"/>
	<path fill="#1E1C1D" d="M284.743,243.184c0.388-0.588,0.747-1.195,1.13-1.824c-0.11-0.137-0.184-0.314-0.279-0.328
		c-0.153-0.02-0.403,0.017-0.472,0.12c-0.352,0.529-0.673,1.081-0.964,1.645c-0.045,0.088,0.097,0.321,0.211,0.42
		C284.438,243.275,284.697,243.252,284.743,243.184z"/>
	<path fill="#1E1C1D" d="M283.416,239.699c0.131-0.025,0.262-0.048,0.395-0.072c0.071-0.691,0.14-1.383,0.211-2.075
		c-0.129-0.045-0.26-0.091-0.388-0.136c-0.165,0.356-0.433,0.703-0.465,1.07C283.135,238.881,283.325,239.293,283.416,239.699z"/>
	<path fill="#1E1C1D" d="M286.075,224.818c-0.273,0.539-0.544,1.076-0.813,1.614c0.177,0.091,0.352,0.183,0.526,0.273
		c0.264-0.549,0.524-1.098,0.788-1.647C286.409,224.979,286.242,224.897,286.075,224.818z"/>
	<path fill="#1E1C1D" d="M287.432,227.896c0.068-0.116,0.073-0.359-0.004-0.448c-0.083-0.094-0.396-0.148-0.442-0.09
		c-0.368,0.46-0.954,0.874-0.446,1.83C286.921,228.644,287.198,228.283,287.432,227.896z"/>
	<path fill="#1E1C1D" d="M293.692,216.496c0.155,0.109,0.422,0.336,0.454,0.308c0.021-0.019,0.043-0.046,0.064-0.066
		c0.001-0.296,0.002-0.592,0.002-0.888C294.04,216.067,293.861,216.278,293.692,216.496z"/>
	<path fill="#1E1C1D" d="M293.975,238.749c0.121-0.129,0.155-0.34,0.18-0.56c0-0.139,0.001-0.278,0.001-0.417
		c-0.087-0.01-0.173-0.019-0.261-0.029c-0.332,0.348-0.668,0.697-1.003,1.045c0.033,0.104,0.066,0.208,0.099,0.314
		C293.328,238.993,293.764,238.973,293.975,238.749z"/>
	<path fill="#1E1C1D" d="M251.108,237.506c0.337-0.661,0.601-1.174,0.846-1.695c0.004-0.009-0.22-0.121-0.337-0.186
		c-0.273,0.494-0.546,0.986-0.812,1.482C250.798,237.121,250.845,237.163,251.108,237.506z"/>
	<path fill="#1E1C1D" d="M251.649,232.32c-0.406,0.559-0.813,1.118-1.219,1.677c0.151,0.112,0.302,0.225,0.451,0.337
		c0.433-0.538,0.869-1.075,1.302-1.613C252.004,232.588,251.828,232.454,251.649,232.32z"/>
	<path fill="#1E1C1D" d="M291.756,233.754c0.272-0.569,0.522-1.093,0.902-1.887C291.274,232.394,291.066,232.964,291.756,233.754z"
		/>
	<path fill="#1E1C1D" d="M293.264,222.749c-0.252,0.143-0.585,0.229-0.738,0.441c-0.286,0.391-0.467,0.856-0.838,1.571
		c0.479-0.143,0.824-0.147,0.994-0.32c0.237-0.248,0.381-0.607,0.5-0.94C293.266,223.269,293.242,223,293.264,222.749z"/>
	<path fill="#1E1C1D" d="M198.576,214.163c-0.246,0.75-1.293,1.096-0.892,2.182C198.892,215.479,199.149,214.882,198.576,214.163z"
		/>
	<path fill="#1E1C1D" d="M291.257,242.757c-0.498,0.532-1.247,0.969-0.704,1.861C290.904,244.038,291.829,243.69,291.257,242.757z"
		/>
	<path fill="#1E1C1D" d="M292.304,229.553c-0.305,0.399-0.628,0.785-0.897,1.205c-0.063,0.096,0.018,0.324,0.1,0.45
		c0.034,0.053,0.31,0.049,0.355-0.014c0.323-0.437,0.611-0.897,0.914-1.349C292.617,229.747,292.461,229.65,292.304,229.553z"/>
	<path fill="#1E1C1D" d="M276.418,201.087c-0.362,0.722-0.66,1.311-0.99,1.971C276.491,203.051,276.979,202.142,276.418,201.087z"/>
	<path fill="#1E1C1D" d="M268.851,215.802c-0.628,0.569-1.081,0.981-1.593,1.443C268.371,217.608,268.807,217.266,268.851,215.802z"
		/>
	<path fill="#1E1C1D" d="M267.058,235.086c0.311-0.28,0.674-0.521,0.906-0.854c0.14-0.206,0.075-0.552,0.103-0.835
		c-0.118-0.013-0.235-0.026-0.356-0.039c-0.283,0.361-0.61,0.699-0.831,1.095C266.804,234.591,266.991,234.871,267.058,235.086z"/>
	<path fill="#1E1C1D" d="M267.502,240.591c0.331-0.442,0.549-0.964,0.811-1.456c-0.151-0.094-0.303-0.188-0.454-0.281
		c-0.386,0.517-0.768,1.033-1.306,1.756C266.993,240.61,267.409,240.718,267.502,240.591z"/>
	<path fill="#1E1C1D" d="M281.476,207.546c-0.044-0.063-0.277-0.054-0.393-0.002c-0.497,0.226-0.688,1.389-0.222,2.035
		c0.282-0.6,0.524-1.071,0.719-1.562C281.631,207.887,281.564,207.67,281.476,207.546z"/>
	<path fill="#1E1C1D" d="M269.421,211.917c-0.481,0.754-0.865,1.361-1.254,1.968c0.049,0.078,0.1,0.155,0.149,0.233
		c0.253-0.077,0.669-0.091,0.729-0.241C269.263,213.316,270.103,212.884,269.421,211.917z"/>
	<path fill="#1E1C1D" d="M267.816,225.944c-1.01-0.207-1.425,0.612-1.99,1.188C266.838,227.385,267.232,226.488,267.816,225.944z"/>
	<path fill="#1E1C1D" d="M264.074,233.156c-0.731,0.762-1.288,1.306-0.855,2.21C263.736,234.808,264.304,234.269,264.074,233.156z"
		/>
	<path fill="#1E1C1D" d="M265.228,230.3c0.153-0.13,0.151-0.441,0.22-0.671c-0.255,0.062-0.585,0.047-0.748,0.201
		c-0.354,0.333-0.625,0.753-1.005,1.234C264.705,231.547,264.831,230.635,265.228,230.3z"/>
	<path fill="#1E1C1D" d="M280.568,218.457c0.263-0.647,0.504-1.235,0.744-1.822c-0.124-0.047-0.247-0.093-0.369-0.141
		C279.985,217.387,279.848,217.861,280.568,218.457z"/>
	<path fill="#1E1C1D" d="M266.529,236.449c-0.231-0.089-0.557-0.271-0.596-0.222c-0.471,0.573-0.902,1.18-1.341,1.778
		c0.169,0.115,0.476,0.341,0.485,0.33C265.546,237.762,265.988,237.168,266.529,236.449z"/>
	<path fill="#1E1C1D" d="M268.161,231.596c0.096-0.083,0.016-0.359,0.018-0.547c-0.192,0.036-0.457,0.005-0.562,0.119
		c-0.342,0.367-0.626,0.786-1.072,1.374C267.642,232.809,267.747,231.954,268.161,231.596z"/>
	<path fill="#1E1C1D" d="M281.723,188.775c-0.098-0.05-0.194-0.1-0.294-0.148c-0.389,0.706-0.776,1.411-1.205,2.184
		C281.18,190.867,281.874,189.787,281.723,188.775z"/>
	<path fill="#1E1C1D" d="M275.015,219.644c-0.121,0.228-0.029,0.565-0.033,0.853c0.203-0.137,0.43-0.251,0.608-0.417
		c0.281-0.258,0.529-0.551,0.813-0.848C275.75,218.907,275.35,219.013,275.015,219.644z"/>
	<path fill="#1E1C1D" d="M276.154,212.936c-0.415,0.643-0.777,1.185-1.103,1.749c-0.029,0.049,0.192,0.24,0.298,0.364
		c0.422-0.541,0.85-1.078,1.252-1.635C276.619,213.389,276.399,213.196,276.154,212.936z"/>
	<path fill="#1E1C1D" d="M277.615,209.646c-0.104-0.074-0.212-0.147-0.32-0.222c-0.366,0.653-0.732,1.307-1.146,2.042
		C277.14,211.551,277.499,211.024,277.615,209.646z"/>
	<path fill="#1E1C1D" d="M277.906,207.737c0.36-0.346,0.69-0.721,1.108-1.181c-0.308-0.186-0.575-0.377-0.594-0.355
		c-0.336,0.385-0.645,0.791-0.932,1.212C277.481,207.424,277.891,207.754,277.906,207.737z"/>
	<path fill="#1E1C1D" d="M275.721,226.886c-0.19,0.04-0.522,0.039-0.547,0.128c-0.126,0.413-0.167,0.852-0.239,1.28
		c0.2,0.014,0.398,0.028,0.596,0.041C275.595,227.853,275.659,227.369,275.721,226.886z"/>
	<path fill="#1E1C1D" d="M275.354,207.214c-0.788,0.194-1.422,0.602-1.611,1.468c-0.032,0.151,0.259,0.37,0.399,0.557
		c0.497-0.588,0.992-1.175,1.489-1.764C275.537,207.388,275.445,207.301,275.354,207.214z"/>
	<path fill="#1E1C1D" d="M278.87,220.948c0.119,0.064,0.235,0.127,0.353,0.191c0.594-0.366,1.134-0.76,0.951-1.53
		c-0.122-0.066-0.243-0.133-0.365-0.199C279.498,219.922,279.184,220.436,278.87,220.948z"/>
	<path fill="#1E1C1D" d="M280.453,197.523c0.273-0.471,0.518-0.957,0.757-1.447c0.014-0.029-0.078-0.108-0.346-0.46
		c-0.333,0.687-0.595,1.222-0.855,1.758C280.162,197.427,280.437,197.548,280.453,197.523z"/>
	<path fill="#1E1C1D" d="M275.021,221.849c-0.599,0.456-1.195,0.911-1.924,1.466C274.008,223.757,274.946,223.113,275.021,221.849z"
		/>
	<path fill="#1E1C1D" d="M276.277,216.506c0.043-0.042-0.119-0.278-0.186-0.423c-0.359,0.249-0.733,0.481-1.069,0.755
		c-0.12,0.097-0.156,0.292-0.229,0.443c0.096,0.109,0.192,0.219,0.288,0.328C275.484,217.246,275.899,216.893,276.277,216.506z"/>
	<path fill="#1E1C1D" d="M263.327,231.417c-0.186-0.135-0.481-0.421-0.539-0.381c-0.625,0.449-1.305,0.898-1.072,2.151
		C262.351,232.488,262.839,231.953,263.327,231.417z"/>
	<path fill="#1E1C1D" d="M257.036,217.728c-0.133,0.154-0.07,0.468-0.096,0.709c0.298-0.17,0.605-0.332,0.894-0.517
		c0.172-0.109,0.319-0.257,0.568-0.463C257.635,216.725,257.34,217.374,257.036,217.728z"/>
	<path fill="#1E1C1D" d="M260.686,210.908c0.1,0.038,0.2,0.078,0.304,0.116c0.179-0.153,0.372-0.292,0.532-0.463
		c0.226-0.242,0.432-0.506,0.624-0.775c0.007-0.012-0.251-0.271-0.296-0.248c-0.346,0.18-0.721,0.356-0.985,0.627
		C260.71,210.323,260.738,210.655,260.686,210.908z"/>
	<path fill="#1E1C1D" d="M278.993,202.683c-0.431,0.646-0.818,1.226-1.207,1.807c0.094,0.061,0.187,0.122,0.281,0.182
		C279.083,204.303,279.518,203.521,278.993,202.683z"/>
	<path fill="#1E1C1D" d="M260.284,213.826c-0.094-0.116-0.186-0.232-0.279-0.348c-0.534,0.423-1.071,0.845-1.605,1.268
		c0.093,0.112,0.185,0.225,0.275,0.338C259.469,214.982,259.937,214.479,260.284,213.826z"/>
	<path fill="#1E1C1D" d="M259.938,231.611c0.155,0.069,0.396,0.232,0.446,0.188c0.9-0.797,1.778-1.62,2.653-2.429
		C262.013,228.777,261.182,229.352,259.938,231.611z"/>
	<path fill="#1E1C1D" d="M257.656,221.138c-0.275,0.701-0.508,1.417-0.79,2.255c0.803-0.24,1.609-1.692,1.351-2.16
		C258.157,221.125,257.672,221.098,257.656,221.138z"/>
	<path fill="#1E1C1D" d="M263.795,193.728c0.497-0.463,0.994-0.927,1.6-1.49C264.453,191.841,263.8,192.396,263.795,193.728z"/>
	<path fill="#1E1C1D" d="M267.927,211.369c0.042-0.084-0.234-0.454-0.353-0.45c-0.507,0.019-1.094,1.636-0.701,2.359
		C267.271,212.576,267.631,211.986,267.927,211.369z"/>
	<path fill="#1E1C1D" d="M266.561,195.415c0.611-0.696,1.052-1.196,1.64-1.862C267.095,193.436,266.521,194.075,266.561,195.415z"/>
	<path fill="#1E1C1D" d="M263.116,197.786c0.291-0.638,0.571-1.249,0.851-1.86c-0.107-0.044-0.215-0.09-0.322-0.134
		C262.658,196.422,262.392,197.248,263.116,197.786z"/>
	<path fill="#1E1C1D" d="M265.296,189.291c0.062,0.118,0.126,0.235,0.188,0.353c1.103,0.232,1.394-0.824,2.104-1.216
		c-0.091-0.142-0.184-0.282-0.272-0.423C266.642,188.434,265.968,188.862,265.296,189.291z"/>
	<path fill="#1E1C1D" d="M258.729,205.795c0.108,0.097,0.418,0.16,0.47,0.099c0.443-0.531,0.85-1.093,1.264-1.647
		c-0.175-0.124-0.348-0.249-0.524-0.374c-0.436,0.49-0.883,0.969-1.293,1.48C258.578,205.436,258.637,205.71,258.729,205.795z"/>
	<path fill="#1E1C1D" d="M262.063,201.968c0.54-0.457,1.014-0.858,1.485-1.259c-0.144-0.123-0.38-0.378-0.423-0.35
		c-0.521,0.34-1.014,0.723-1.515,1.094C261.735,201.592,261.856,201.731,262.063,201.968z"/>
	<path fill="#1E1C1D" d="M258.411,202.256c0.352-0.514,0.623-0.915,0.894-1.316c0.043-0.059,0.109-0.112,0.117-0.175
		c0.023-0.158,0.067-0.337,0.015-0.474c-0.032-0.081-0.246-0.157-0.355-0.135C258.472,200.278,258.018,201.503,258.411,202.256z"/>
	<path fill="#1E1C1D" d="M258.799,227.972c-1.273,0.756-1.53,1.665-0.807,2.57C258.299,229.558,258.549,228.765,258.799,227.972z"/>
	<path fill="#1E1C1D" d="M259.163,193.943c0.062,0.111,0.126,0.221,0.188,0.333c0.261-0.133,0.577-0.212,0.77-0.409
		c0.374-0.381,0.701-0.815,1.004-1.256c0.11-0.16,0.101-0.401,0.144-0.606c-0.224,0.027-0.548-0.029-0.656,0.096
		C260.096,192.687,259.641,193.324,259.163,193.943z"/>
	<path fill="#1E1C1D" d="M258.973,239.599c0.14,0.015,0.357-0.05,0.43-0.156c0.322-0.491,0.609-1.007,0.994-1.659
		c-0.861,0.063-1.726,0.957-1.642,1.499C258.774,239.403,258.889,239.59,258.973,239.599z"/>
	<path fill="#1E1C1D" d="M260.868,233.65c-0.342,0.364-0.658,0.759-0.918,1.184c-0.041,0.069,0.237,0.329,0.368,0.501
		c0.284-0.426,0.567-0.853,1.028-1.543C261.2,233.746,260.921,233.594,260.868,233.65z"/>
	<path fill="#1E1C1D" d="M259.434,220.788c1.192,0.684,1.273-0.461,1.798-0.699c0.175-0.078,0.196-0.484,0.337-0.885
		C260.721,219.832,260.129,220.273,259.434,220.788z"/>
	<path fill="#1E1C1D" d="M261.543,225.487c-0.088-0.085-0.176-0.169-0.265-0.254c-0.468,0.497-0.937,0.993-1.459,1.546
		C260.766,227.1,261.216,226.707,261.543,225.487z"/>
	<path fill="#1E1C1D" d="M261.333,214.523c-1.1,0.85-1.134,0.95-0.465,1.777c0.305-0.588,0.575-1.112,0.846-1.635
		C261.588,214.618,261.459,214.571,261.333,214.523z"/>
	<path fill="#1E1C1D" d="M259.373,209.323c0.387-0.693,0.721-1.29,1.175-2.104C259.316,207.574,258.819,208.504,259.373,209.323z"/>
	<path fill="#1E1C1D" d="M259.563,225.11c0.446-0.793,0.834-1.478,1.306-2.318C259.663,222.851,258.986,224.048,259.563,225.11z"/>
	<path fill="#1E1C1D" d="M260.204,196.059c-0.299,0.28-0.688,0.514-0.862,0.855c-0.133,0.257,0.012,0.652,0.033,0.984
		c0.107-0.007,0.212-0.015,0.32-0.022c0.257-0.496,0.511-0.993,0.768-1.49C260.375,196.278,260.288,196.168,260.204,196.059z"/>
	<path fill="#1E1C1D" d="M271.891,216.122c-0.103-0.055-0.206-0.11-0.309-0.165c-0.456,0.4-0.915,0.8-1.37,1.201
		c0.082,0.128,0.162,0.255,0.245,0.384c0.387-0.219,0.815-0.393,1.146-0.676C271.783,216.713,271.799,216.376,271.891,216.122z"/>
	<path fill="#1E1C1D" d="M277.797,226.234c-0.195,0.325-0.383,0.593-0.52,0.884c-0.221,0.462-0.408,0.939-0.592,1.417
		c-0.002,0.007,0.33,0.167,0.344,0.146c0.438-0.619,0.859-1.25,1.26-1.894C278.311,226.754,278.118,226.591,277.797,226.234z"/>
	<path fill="#1E1C1D" d="M279.282,235.122c0.066-0.097,0.11-0.278,0.064-0.367c-0.051-0.095-0.228-0.184-0.34-0.175
		c-0.534,0.039-1.042,1.172-0.688,1.839C278.7,235.912,279.003,235.525,279.282,235.122z"/>
	<path fill="#1E1C1D" d="M278.724,238.696c0.947,0.39,1.03,0.325,1.582-1.176C279.243,237.322,279.286,238.338,278.724,238.696z"/>
	<path fill="#1E1C1D" d="M278.696,242.55c0.421-0.68,0.778-1.257,1.136-1.834c-0.097-0.064-0.194-0.127-0.291-0.191
		C278.636,240.927,278.239,241.684,278.696,242.55z"/>
	<path fill="#1E1C1D" d="M277.188,239.508c0.055-0.113-0.036-0.343-0.133-0.465c-0.045-0.061-0.346-0.044-0.375,0.015
		c-0.291,0.543-0.547,1.103-0.811,1.657c0.161,0.076,0.323,0.153,0.486,0.23C276.638,240.468,276.938,240.001,277.188,239.508z"/>
	<path fill="#1E1C1D" d="M274.848,225.012c-0.138-0.06-0.274-0.118-0.412-0.176c-0.377,0.549-0.752,1.098-1.128,1.646
		c0.063,0.111,0.128,0.22,0.191,0.33c0.251-0.128,0.603-0.195,0.728-0.397C274.494,225.984,274.648,225.483,274.848,225.012z"/>
	<path fill="#1E1C1D" d="M273.406,218.811c-0.019-0.08-0.249-0.198-0.337-0.167c-0.745,0.271-1.479,0.569-2.471,0.959
		c1.259,0.628,1.969,0.023,2.714-0.342C273.404,219.216,273.436,218.954,273.406,218.811z"/>
	<path fill="#1E1C1D" d="M272.839,230.984c-0.095-0.032-0.188-0.064-0.28-0.096c-0.275,0.351-0.629,0.666-0.805,1.06
		c-0.182,0.411-0.193,0.896-0.279,1.349c0.3-0.323,0.614-0.634,0.895-0.973c0.183-0.22,0.352-0.465,0.455-0.727
		C272.894,231.417,272.839,231.19,272.839,230.984z"/>
	<path fill="#1E1C1D" d="M273.992,238.868c0.119-0.343,0.029-0.757,0.029-1.14c-0.114-0.007-0.229-0.013-0.346-0.02
		c-0.206,0.509-0.409,1.02-0.615,1.53c0.085,0.096,0.169,0.192,0.256,0.288C273.55,239.311,273.903,239.133,273.992,238.868z"/>
	<path fill="#1E1C1D" d="M275.995,237.362c0.025-0.073-0.194-0.231-0.303-0.35c-0.315,0.481-0.652,0.953-0.929,1.455
		c-0.042,0.077,0.185,0.298,0.476,0.732C275.564,238.43,275.805,237.905,275.995,237.362z"/>
	<path fill="#1E1C1D" d="M280.562,222.789c-0.466,0.493-0.865,0.913-1.378,1.456C280.321,224.472,280.837,223.907,280.562,222.789z"
		/>
	<path fill="#1E1C1D" d="M181.063,198c0.126,0.056,0.251,0.11,0.378,0.166c0.972-0.799,1.125-1.175,0.571-1.84
		C181.67,196.927,181.367,197.464,181.063,198z"/>
	<path fill="#1E1C1D" d="M189.643,206.38c-0.114-0.099-0.227-0.197-0.339-0.295c-0.328,0.315-0.704,0.596-0.962,0.958
		c-0.146,0.203-0.099,0.542-0.138,0.819c0.133,0.019,0.263,0.039,0.394,0.059C188.945,207.407,189.294,206.893,189.643,206.38z"/>
	<path fill="#1E1C1D" d="M183.397,196.839c0.101,0.119,0.202,0.236,0.303,0.354c0.262-0.238,0.594-0.435,0.761-0.725
		c0.167-0.29,0.17-0.673,0.245-1.016c-0.126-0.038-0.25-0.075-0.373-0.113C184.021,195.839,183.709,196.34,183.397,196.839z"/>
	<path fill="#1E1C1D" d="M182.9,200.623c0.248-0.337,0.314-0.807,0.456-1.22c-0.121-0.047-0.245-0.095-0.367-0.143
		c-0.362,0.427-0.722,0.854-1.084,1.28c0.032,0.123,0.064,0.246,0.096,0.369C182.312,200.821,182.75,200.826,182.9,200.623z"/>
	<path fill="#1E1C1D" d="M272.77,235.637c0.021-0.028-0.216-0.217-0.33-0.331c-0.364,0.368-0.741,0.729-1.075,1.121
		c-0.027,0.034,0.204,0.284,0.419,0.574C272.171,236.482,272.485,236.07,272.77,235.637z"/>
	<path fill="#1E1C1D" d="M188.868,202.828c-1.208,0.412-1.237,1.385-1.581,2.218C188.126,205.043,188.724,204.222,188.868,202.828z"
		/>
	<path fill="#1E1C1D" d="M282.268,221.517c-0.21,0.457-0.439,0.907-0.618,1.375c-0.048,0.127,0.062,0.311,0.099,0.468
		c0.116,0.028,0.23,0.057,0.349,0.084c0.169-0.568,0.348-1.133,0.491-1.707C282.602,221.692,282.383,221.591,282.268,221.517z"/>
	<path fill="#1E1C1D" d="M187.961,195.227c0.248-0.362,0.348-0.822,0.513-1.239c-0.142-0.065-0.286-0.129-0.428-0.195
		c-0.401,0.592-0.8,1.185-1.201,1.777c0.087,0.096,0.174,0.193,0.262,0.29C187.396,195.653,187.772,195.501,187.961,195.227z"/>
	<path fill="#1E1C1D" d="M280.611,228.458c0.905-0.004,1.469-0.823,1.585-2.18C281.097,226.706,281.11,227.689,280.611,228.458z"/>
	<path fill="#1E1C1D" d="M281.234,233.556c-0.431,0.012-0.846,1.183-0.533,1.882c0.364-0.543,0.671-0.93,0.882-1.362
		C281.633,233.972,281.354,233.553,281.234,233.556z"/>
	<path fill="#1E1C1D" d="M186.482,199.73c-0.092,0.612-0.11,1.234-0.154,1.853c0.19,0.016,0.383,0.031,0.576,0.047
		c0.08-0.538,0.176-1.075,0.229-1.616c0.016-0.17-0.08-0.351-0.124-0.525C186.826,199.567,186.496,199.626,186.482,199.73z"/>
	<path fill="#1E1C1D" d="M187.166,196.633c-0.42,0.739-0.727,1.277-1.144,2.006C187.214,198.361,187.63,197.639,187.166,196.633z"/>
	<path fill="#1E1C1D" d="M269.324,207.752c0.243-0.098,0.596-0.13,0.706-0.308c0.386-0.612,0.684-1.276,1.016-1.92
		c-0.158-0.08-0.314-0.159-0.472-0.238c-0.488,0.71-0.978,1.42-1.465,2.13C269.181,207.529,269.251,207.64,269.324,207.752z"/>
	<path fill="#1E1C1D" d="M273.55,206.923c0.45-1.001,0.795-1.771,1.197-2.676C273.635,204.437,273.078,205.65,273.55,206.923z"/>
	<path fill="#1E1C1D" d="M274.029,196.015c-0.126-0.035-0.429,0.085-0.434,0.154c-0.036,0.518-0.021,1.039-0.021,1.56
		c0.175-0.007,0.349-0.013,0.522-0.02c0.068-0.44,0.157-0.878,0.187-1.319C274.291,196.263,274.146,196.047,274.029,196.015z"/>
	<path fill="#1E1C1D" d="M275.416,199.368c-0.186,0.073-0.431,0.153-0.509,0.304c-0.223,0.434-0.373,0.902-0.594,1.46
		c0.748-0.037,1.556-1.105,1.329-1.572C275.602,199.476,275.462,199.35,275.416,199.368z"/>
	<path fill="#1E1C1D" d="M273.097,188.715c-0.044,0.08,0.211,0.462,0.328,0.463c0.52,0.002,1.054-1.402,0.657-1.999
		C273.725,187.72,273.379,188.2,273.097,188.715z"/>
	<path fill="#1E1C1D" d="M273.843,200.457c0.021-0.073-0.22-0.3-0.35-0.31c-0.126-0.009-0.344,0.143-0.39,0.271
		c-0.148,0.415-0.241,0.85-0.402,1.472C273.772,201.763,273.686,201.009,273.843,200.457z"/>
	<path fill="#1E1C1D" d="M278.185,201.29c0.557-0.041,0.999,0.045,1.109-0.106c0.279-0.377,0.407-0.861,0.596-1.302
		c-0.129-0.063-0.258-0.124-0.388-0.187C279.133,200.142,278.765,200.588,278.185,201.29z"/>
	<path fill="#1E1C1D" d="M277.279,217.288c0.037,0.114,0.521,0.241,0.603,0.161c0.353-0.334,0.631-0.743,1.02-1.229
		C278.212,216.051,277.142,216.855,277.279,217.288z"/>
	<path fill="#1E1C1D" d="M277.774,224.061c0.293-0.304,0.517-0.674,0.768-1.019c-0.094-0.127-0.188-0.255-0.282-0.383
		c-0.359,0.305-0.737,0.588-1.059,0.927c-0.091,0.096-0.005,0.353,0,0.536C277.398,224.107,277.674,224.167,277.774,224.061z"/>
	<path fill="#1E1C1D" d="M277.547,198.442c1.153-0.214,1.518-0.885,1.03-1.729C278.195,197.354,277.87,197.898,277.547,198.442z"/>
	<path fill="#1E1C1D" d="M273.037,214.06c0.326-0.602,0.662-1.197,0.967-1.809c0.043-0.086-0.043-0.333-0.116-0.355
		c-0.147-0.044-0.432-0.039-0.475,0.042c-0.33,0.614-0.616,1.252-0.916,1.883C272.678,213.899,272.856,213.979,273.037,214.06z"/>
	<path fill="#1E1C1D" d="M276.204,190.811c1.176-0.065,1.817-1.249,1.26-2.093C277.014,189.468,276.61,190.14,276.204,190.811z"/>
	<path fill="#1E1C1D" d="M269.297,227.449c0.156,0.014,0.389-0.022,0.475-0.129c0.447-0.569,0.859-1.166,1.284-1.753
		c-0.157-0.133-0.313-0.265-0.471-0.398c-0.492,0.652-0.995,1.299-1.469,1.965C269.082,227.18,269.222,227.442,269.297,227.449z"/>
	<path fill="#1E1C1D" d="M271.565,210.351c-0.229-0.079-0.572-0.242-0.6-0.2c-0.34,0.509-0.655,1.037-0.916,1.587
		c-0.053,0.105,0.153,0.33,0.24,0.5C270.649,211.708,271.007,211.178,271.565,210.351z"/>
	<path fill="#1E1C1D" d="M272.012,197.565c-0.353,0.48-0.705,0.96-1.058,1.439c0.172,0.102,0.344,0.204,0.516,0.305
		c0.337-0.475,0.674-0.949,1.014-1.423C272.324,197.779,272.169,197.672,272.012,197.565z"/>
	<path fill="#1E1C1D" d="M271.516,191.237c-0.303,0.195-0.652,0.394-0.829,0.684c-0.197,0.322-0.225,0.745-0.326,1.125
		c0.131,0.032,0.349,0.126,0.376,0.087c0.369-0.511,0.71-1.04,1.182-1.752C271.771,191.324,271.584,191.192,271.516,191.237z"/>
	<path fill="#1E1C1D" d="M268.924,189.175c-0.114,0.091-0.039,0.416-0.05,0.633c0.215-0.067,0.513-0.068,0.634-0.213
		c0.432-0.512,0.8-1.074,1.192-1.616c-0.085-0.096-0.169-0.191-0.252-0.288C269.554,187.728,269.476,188.733,268.924,189.175z"/>
	<path fill="#1E1C1D" d="M271.742,239.513c-0.969,0.231-1.13,1.195-1.537,1.952C271.341,241.364,271.436,240.354,271.742,239.513z"
		/>
	<path fill="#1E1C1D" d="M279.58,211.391c-0.618,0.867-1.135,1.586-1.722,2.41C278.858,214.002,279.946,212.574,279.58,211.391z"/>
	<path fill="#1E1C1D" d="M270.338,222.29c0.104,0.183,0.203,0.366,0.305,0.549c0.392-0.272,0.793-0.532,1.159-0.832
		c0.05-0.041-0.073-0.29-0.117-0.443C271.236,221.806,270.787,222.048,270.338,222.29z"/>
	<path fill="#1E1C1D" d="M271.22,229.274c-0.225,0.447-0.337,0.948-0.497,1.428c0.135,0.02,0.353,0.098,0.39,0.048
		c0.357-0.49,0.685-1.001,1.068-1.576c-0.094-0.104-0.253-0.344-0.304-0.324C271.637,228.95,271.323,229.07,271.22,229.274z"/>
	<path fill="#1E1C1D" d="M252.009,214.476c-0.713,0.693-1.425,1.387-2.248,2.187C250.698,217.031,252.217,215.624,252.009,214.476z"
		/>
	<path fill="#1E1C1D" d="M271.247,201.455c-0.632,0.913-1.12,1.614-1.695,2.443C270.665,203.886,271.48,202.745,271.247,201.455z"/>
	<path fill="#1E1C1D" d="M271.714,193.793c-0.285,0.403-0.489,0.869-0.678,1.328c-0.062,0.153,0.023,0.364,0.044,0.548
		c0.208-0.072,0.524-0.083,0.606-0.227c0.347-0.603,0.624-1.244,0.929-1.871c-0.055-0.069-0.106-0.139-0.162-0.208
		C272.201,193.502,271.863,193.583,271.714,193.793z"/>
	<path fill="#1E1C1D" d="M267.574,208.348c0.062-0.157-0.023-0.369-0.043-0.556c-0.188,0.047-0.45,0.033-0.556,0.152
		c-0.323,0.368-0.584,0.787-0.87,1.188C266.735,209.513,267.217,209.262,267.574,208.348z"/>
	<path fill="#1E1C1D" d="M238.503,199.194c0.282-0.9,0.995-1.463,0.374-2.501C238.448,197.544,237.775,198.113,238.503,199.194z"/>
	<path fill="#1E1C1D" d="M238.939,217.07c-0.192-0.069-0.387-0.14-0.58-0.209c-0.217,0.529-0.432,1.057-0.647,1.586
		c0.174,0.067,0.348,0.136,0.522,0.204C238.469,218.125,238.703,217.597,238.939,217.07z"/>
	<path fill="#1E1C1D" d="M238.02,214.244c-0.981,0.155-1.623,1.993-0.942,2.81C237.376,216.164,237.674,215.273,238.02,214.244z"/>
	<path fill="#1E1C1D" d="M241.935,207.109c0.406-0.42,0.813-0.841,1.283-1.328c-0.243-0.205-0.387-0.326-0.532-0.447
		c-0.349,0.464-0.706,0.921-1.029,1.403C241.627,206.782,241.836,206.982,241.935,207.109z"/>
	<path fill="#1E1C1D" d="M238.804,220.878c0.296-0.386,0.527-0.82,0.843-1.336c-1.123-0.354-1.082,0.545-1.423,0.936
		c-0.085,0.097,0.021,0.356,0.039,0.541C238.448,220.975,238.717,220.993,238.804,220.878z"/>
	<path fill="#1E1C1D" d="M241.508,208.595c-0.297,0.419-0.566,0.859-0.818,1.307c-0.017,0.03,0.179,0.177,0.275,0.269
		c0.277-0.293,0.573-0.574,0.827-0.887c0.122-0.148,0.168-0.357,0.319-0.697C241.767,208.587,241.554,208.533,241.508,208.595z"/>
	<path fill="#1E1C1D" d="M237.19,210.183c-1.167,0.18-1.335,1.06-1.854,1.617C236.141,212.053,236.388,211.845,237.19,210.183z"/>
	<path fill="#1E1C1D" d="M239.734,203.587c-0.247,0.378-0.554,0.733-0.719,1.144c-0.089,0.226,0.064,0.545,0.108,0.823
		c0.099,0,0.195,0.001,0.291,0.001c0.224-0.469,0.488-0.928,0.648-1.417C240.108,204.003,239.851,203.772,239.734,203.587z"/>
	<path fill="#1E1C1D" d="M240.362,198.867c1.075,0.038,1.726-0.977,1.199-1.991C241.11,197.626,240.759,198.21,240.362,198.867z"/>
	<path fill="#1E1C1D" d="M235.16,209.276c0.16-0.542,0.334-1.082,0.463-1.63c0.012-0.05-0.25-0.163-0.383-0.246
		c-0.176,0.44-0.369,0.875-0.513,1.325c-0.044,0.134,0.05,0.312,0.082,0.47C234.926,209.223,235.043,209.25,235.16,209.276z"/>
	<path fill="#1E1C1D" d="M235.215,202.271c0.092-0.694,0.186-1.39,0.284-2.132C234.353,200.405,234.234,201.009,235.215,202.271z"/>
	<path fill="#1E1C1D" d="M240.081,199.998c-0.36,0.695-0.72,1.391-1.082,2.087C240.117,201.983,240.516,201.177,240.081,199.998z"/>
	<path fill="#1E1C1D" d="M235.63,190.847c-0.596,0.277-0.71,1.545-0.131,2.069c0.213-0.58,0.429-1.129,0.612-1.688
		c0.034-0.105-0.019-0.298-0.101-0.367C235.93,190.797,235.738,190.798,235.63,190.847z"/>
	<path fill="#1E1C1D" d="M235.423,197.375c-0.366,0.589-0.692,1.111-1.141,1.831C235.526,199.04,235.983,198.238,235.423,197.375z"
		/>
	<path fill="#1E1C1D" d="M235.894,218.469c-0.229,0.641-0.424,1.181-0.697,1.941C236.297,219.913,236.551,219.157,235.894,218.469z"
		/>
	<path fill="#1E1C1D" d="M236.918,228.471c-1.031,0.007-1.375,0.774-0.774,2.187C236.462,229.755,236.685,229.13,236.918,228.471z"
		/>
	<path fill="#1E1C1D" d="M235.169,196.102c0.074,0.118,0.149,0.235,0.223,0.353c0.273-0.167,0.639-0.273,0.799-0.514
		c0.269-0.402,0.404-0.89,0.594-1.34c-0.132-0.061-0.266-0.12-0.396-0.18C235.983,194.981,235.575,195.542,235.169,196.102z"/>
	<path fill="#1E1C1D" d="M237.34,206.819c-0.438,0.461-1.073,0.854-0.683,1.955c0.472-0.604,0.811-1.003,1.1-1.432
		c0.073-0.107,0.025-0.339-0.048-0.473C237.674,206.801,237.392,206.762,237.34,206.819z"/>
	<path fill="#1E1C1D" d="M238.905,192.95c-0.037,0.048,0.188,0.292,0.445,0.669c0.486-0.75,0.871-1.341,1.253-1.933
		c-0.14-0.086-0.382-0.267-0.403-0.245C239.746,191.927,239.308,192.425,238.905,192.95z"/>
	<path fill="#1E1C1D" d="M241.034,193.589c-0.154,0.028-0.301,0.142-0.429,0.246c-0.337,0.278-0.66,0.568-0.991,0.854
		c-0.039,0.113-0.08,0.227-0.121,0.34c0.344,0,0.8,0.137,1.004-0.03c0.353-0.286,0.557-0.756,0.797-1.163
		C241.313,193.809,241.107,193.576,241.034,193.589z"/>
	<path fill="#1E1C1D" d="M240.458,216.93c0.064-0.87,0.122-1.64,0.179-2.408C239.629,215.361,239.601,216.392,240.458,216.93z"/>
	<path fill="#1E1C1D" d="M235.64,205.631c0.755,0.08,1.224-0.498,1.535-1.904C236.313,203.635,236.052,203.959,235.64,205.631z"/>
	<path fill="#1E1C1D" d="M237.653,191.194c-0.011,0.021,0.344,0.29,0.353,0.28c0.357-0.373,0.697-0.765,1.125-1.253
		c-0.316-0.163-0.601-0.337-0.619-0.315C238.202,190.317,237.917,190.751,237.653,191.194z"/>
	<path fill="#1E1C1D" d="M242.759,204.065c0.298-0.796,0.559-1.486,0.869-2.31C242.255,202.25,241.907,203.273,242.759,204.065z"/>
	<path fill="#1E1C1D" d="M246.032,216.656c0.308-0.079,0.688-0.073,0.903-0.257c0.365-0.308,0.624-0.738,0.926-1.117
		c-0.225-0.055-0.543-0.231-0.658-0.145c-0.47,0.356-0.875,0.794-1.306,1.201C245.942,216.445,245.986,216.551,246.032,216.656z"/>
	<path fill="#1E1C1D" d="M247.377,220.579c-0.042-0.101-0.558-0.171-0.63-0.08c-0.38,0.464-0.685,0.987-1.103,1.618
		C246.36,222.196,247.549,221.02,247.377,220.579z"/>
	<path fill="#1E1C1D" d="M246.953,227.497c0.083-0.127,0.099-0.334,0.062-0.482c-0.019-0.075-0.238-0.156-0.353-0.14
		c-0.55,0.079-1.016,1.282-0.649,1.918C246.374,228.302,246.683,227.911,246.953,227.497z"/>
	<path fill="#1E1C1D" d="M249.918,219.885c-0.071-0.107-0.142-0.215-0.213-0.322c-0.502,0.275-1.001,0.552-1.5,0.828
		c0.062,0.114,0.125,0.228,0.188,0.342C249.098,220.828,249.676,220.682,249.918,219.885z"/>
	<path fill="#1E1C1D" d="M249.611,208.478c0.316-0.419,0.61-0.854,0.913-1.283c-0.021-0.11-0.044-0.22-0.064-0.331
		c-0.296,0.104-0.706,0.121-0.862,0.328c-0.312,0.404-0.486,0.911-0.692,1.385c-0.009,0.024,0.233,0.226,0.318,0.203
		C249.371,208.739,249.513,208.607,249.611,208.478z"/>
	<path fill="#1E1C1D" d="M248.363,223.778c-0.8-0.117-1.348,0.584-1.428,1.813C247.993,225.361,247.984,224.45,248.363,223.778z"/>
	<path fill="#1E1C1D" d="M246.609,211.427c0.926-0.23,1.073-1.083,1.446-1.753c-0.148-0.115-0.298-0.229-0.447-0.344
		c-0.442,0.618-0.882,1.237-1.324,1.856C246.392,211.265,246.501,211.346,246.609,211.427z"/>
	<path fill="#1E1C1D" d="M251.707,217.404c-0.532,0.352-1.062,0.705-1.731,1.149C250.897,219.107,251.475,218.753,251.707,217.404z"
		/>
	<path fill="#1E1C1D" d="M247.872,202.095c-0.062-0.045-0.314,0.032-0.359,0.117c-0.287,0.533-0.539,1.084-0.803,1.631
		c0.188,0.088,0.378,0.175,0.569,0.263c0.286-0.534,0.589-1.061,0.84-1.611C248.158,202.409,247.993,202.185,247.872,202.095z"/>
	<path fill="#1E1C1D" d="M248.161,218.373c0.232-0.39,0.481-0.771,0.681-1.176c0.062-0.125-0.012-0.318-0.023-0.48
		c-0.19,0.03-0.5,0-0.552,0.101c-0.229,0.445-0.385,0.927-0.569,1.396C247.852,218.267,248.007,218.32,248.161,218.373z"/>
	<path fill="#1E1C1D" d="M247.902,212.472c-0.438,0.68-0.791,1.225-1.173,1.817C247.797,214.438,248.305,213.718,247.902,212.472z"
		/>
	<path fill="#1E1C1D" d="M247.123,196.542c0.069,0.075,0.138,0.15,0.209,0.226c0.568-0.538,1.137-1.076,1.814-1.718
		C248.012,194.834,247.503,195.276,247.123,196.542z"/>
	<path fill="#1E1C1D" d="M244.433,213.833c0.653-0.382,0.754-0.966,0.552-1.662c-0.117-0.041-0.232-0.083-0.349-0.125
		c-0.197,0.55-0.394,1.099-0.591,1.649C244.173,213.741,244.304,213.788,244.433,213.833z"/>
	<path fill="#1E1C1D" d="M245.139,218.419c-0.219,0.904-0.386,1.595-0.589,2.433C245.665,220.405,245.924,219.358,245.139,218.419z"
		/>
	<path fill="#1E1C1D" d="M242.583,209.86c0.967,0.198,1.785-0.763,1.758-1.784c-0.097-0.065-0.19-0.131-0.284-0.196
		C243.583,208.517,243.108,209.153,242.583,209.86z"/>
	<path fill="#1E1C1D" d="M243.463,194.497c-0.55,0.109-0.8,1.21-0.328,1.795c0.271-0.451,0.506-0.805,0.697-1.183
		c0.064-0.127,0.059-0.336-0.003-0.466C243.786,194.553,243.576,194.474,243.463,194.497z"/>
	<path fill="#1E1C1D" d="M242.457,193.586c1.043,0.175,1.262-0.027,1.668-1.172c-0.078-0.077-0.156-0.154-0.234-0.231
		C243.47,192.597,243.046,193.011,242.457,193.586z"/>
	<path fill="#1E1C1D" d="M251.106,211.88c-0.156,0.008-0.365,0.096-0.449,0.218c-0.261,0.374-0.477,0.779-0.766,1.268
		c0.653,0.12,1.623-0.74,1.494-1.204C251.353,212.045,251.197,211.875,251.106,211.88z"/>
	<path fill="#1E1C1D" d="M245.798,193.619c-0.039,0.083,0.058,0.29,0.151,0.354c0.092,0.063,0.351,0.064,0.378,0.011
		c0.362-0.682,0.694-1.377,1.034-2.069c-0.188-0.092-0.376-0.184-0.566-0.275C246.458,192.297,246.112,192.951,245.798,193.619z"/>
	<path fill="#1E1C1D" d="M236.551,224.753c0.321-0.862,0.603-1.625,0.988-2.665C236.256,222.824,235.88,223.947,236.551,224.753z"/>
	<path fill="#1E1C1D" d="M244.792,198.619c0.486-0.935,0.926-1.781,1.367-2.626c-0.1-0.046-0.198-0.091-0.299-0.138
		C244.705,196.653,244.229,197.731,244.792,198.619z"/>
	<path fill="#1E1C1D" d="M244.886,216.672c-0.135-0.073-0.27-0.144-0.405-0.216c-0.408,0.475-1.19,0.778-0.94,1.557
		c0.131,0.066,0.261,0.134,0.392,0.201C244.251,217.699,244.57,217.185,244.886,216.672z"/>
	<path fill="#1E1C1D" d="M242.924,223.317c0.26-0.771,0.466-1.377,0.669-1.983c-0.098-0.033-0.199-0.066-0.297-0.097
		C242.464,221.939,242.329,222.409,242.924,223.317z"/>
	<path fill="#1E1C1D" d="M257.045,232.125c-0.953,0.813-1.165,1.402-0.732,2.029C257.188,233.275,257.411,232.66,257.045,232.125z"
		/>
	<path fill="#1E1C1D" d="M266.472,214.953c0.101-0.15,0.085-0.375,0.124-0.565c-0.22,0.014-0.499-0.052-0.646,0.057
		c-0.484,0.354-0.92,0.771-1.455,1.233C265.274,216.047,265.904,215.801,266.472,214.953z"/>
	<path fill="#1E1C1D" d="M252.426,198.707c0.387,0.058,0.625,0.167,0.715,0.095c0.319-0.258,0.601-0.564,0.855-0.884
		c0.037-0.045-0.149-0.262-0.231-0.399c-0.273,0.193-0.555,0.373-0.814,0.583C252.799,198.226,252.689,198.397,252.426,198.707z"/>
	<path fill="#1E1C1D" d="M256.789,227.553c0.303-0.652,0.589-1.271,0.944-2.037C256.393,225.891,256.021,226.812,256.789,227.553z"
		/>
	<path fill="#1E1C1D" d="M258.394,211.067c-0.589,0.725-1.111,1.366-1.591,1.955C257.427,213.16,258.386,212.243,258.394,211.067z"
		/>
	<path fill="#1E1C1D" d="M255.169,214.069c-0.408,0.362-0.791,0.757-1.181,1.143c0.143,0.088,0.357,0.283,0.413,0.246
		c0.43-0.298,0.83-0.639,1.315-1.027C255.435,214.241,255.201,214.042,255.169,214.069z"/>
	<path fill="#1E1C1D" d="M255.579,205.452c-0.394,0.653-0.763,1.321-1.134,1.988c0.175,0.059,0.48,0.202,0.505,0.165
		c0.394-0.596,0.752-1.214,1.164-1.906C255.9,205.6,255.588,205.437,255.579,205.452z"/>
	<path fill="#1E1C1D" d="M254.227,226.923c0.058-0.054-0.064-0.29-0.101-0.441c-0.364,0.222-0.738,0.431-1.088,0.673
		c-0.099,0.068-0.126,0.234-0.188,0.354c0.083,0.119,0.165,0.238,0.246,0.357C253.478,227.557,253.872,227.26,254.227,226.923z"/>
	<path fill="#1E1C1D" d="M252.55,205.856c0.112,0.064,0.421,0.019,0.47-0.07c0.277-0.516,0.501-1.059,0.743-1.592
		c-0.169-0.072-0.34-0.143-0.509-0.214c-0.284,0.475-0.589,0.939-0.839,1.432C252.359,205.519,252.446,205.795,252.55,205.856z"/>
	<path fill="#1E1C1D" d="M253.899,236.343c0.316-0.269,0.583-0.601,0.835-0.931c0.034-0.046-0.108-0.224-0.169-0.342
		c-0.303,0.192-0.612,0.373-0.903,0.58c-0.138,0.098-0.241,0.246-0.512,0.534C253.54,236.274,253.815,236.416,253.899,236.343z"/>
	<path fill="#1E1C1D" d="M255.318,215.754c-0.605,0.585-1.087,1.032-1.54,1.503c-0.072,0.073-0.076,0.292-0.014,0.381
		c0.057,0.084,0.284,0.158,0.357,0.112C254.773,217.346,255.526,216.993,255.318,215.754z"/>
	<path fill="#1E1C1D" d="M254.839,223.181c-0.346,0.463-0.729,0.904-1.01,1.402c-0.091,0.163,0.041,0.657,0.148,0.685
		C254.44,225.38,255.359,223.989,254.839,223.181z"/>
	<path fill="#1E1C1D" d="M257.834,190.355c-1.027,0.753-1.306,1.732-0.635,2.624c0.338-0.894,0.642-1.708,0.949-2.523
		C258.043,190.422,257.938,190.388,257.834,190.355z"/>
	<path fill="#1E1C1D" d="M262.855,207.674c0.089,0.232,0.227,0.63,0.348,0.631c0.464,0.002,0.936-1.375,0.59-1.936
		c-0.319,0.402-0.566,0.708-0.803,1.021C262.926,207.475,262.828,207.605,262.855,207.674z"/>
	<path fill="#1E1C1D" d="M264.752,213.587c0.091-0.064,0.012-0.36,0.012-0.55c-0.19,0.024-0.46-0.021-0.556,0.084
		c-0.346,0.382-0.634,0.816-1.044,1.368C264.304,214.894,264.304,213.905,264.752,213.587z"/>
	<path fill="#1E1C1D" d="M262.437,225.196c0.283-0.381,0.567-0.763,0.852-1.145c-0.069-0.105-0.138-0.21-0.206-0.315
		c-0.321,0.177-0.72,0.291-0.935,0.552c-0.16,0.194-0.082,0.579-0.109,0.878C262.17,225.177,262.303,225.186,262.437,225.196z"/>
	<path fill="#1E1C1D" d="M263.423,205.458c0.128,0.053,0.258,0.105,0.384,0.158c0.256-0.631,0.511-1.263,0.824-2.04
		C263.515,203.801,263.281,204.257,263.423,205.458z"/>
	<path fill="#1E1C1D" d="M265.658,222.366c-0.519,0.402-0.967,0.753-1.549,1.205C265.255,223.944,265.816,223.489,265.658,222.366z"
		/>
	<path fill="#1E1C1D" d="M265.041,219.172c0.252-0.284,0.348-0.701,0.511-1.06c-0.132-0.071-0.266-0.141-0.398-0.212
		c-0.39,0.415-0.776,0.828-1.163,1.243c0.055,0.147,0.109,0.295,0.165,0.442C264.46,219.454,264.847,219.396,265.041,219.172z"/>
	<path fill="#1E1C1D" d="M263.417,211.677c0.134,0.089,0.271,0.178,0.408,0.267c0.479-0.57,0.957-1.141,1.693-2.015
		c-0.527,0-0.89-0.095-0.975,0.017C264.127,210.492,263.786,211.094,263.417,211.677z"/>
	<path fill="#1E1C1D" d="M266.295,197.267c0.093,0.065,0.184,0.13,0.275,0.196c1.081-0.466,1.348-0.977,0.79-1.811
		C266.982,196.226,266.639,196.746,266.295,197.267z"/>
	<path fill="#1E1C1D" d="M266.346,202.962c0.747,0.099,1.646-0.769,1.497-1.34c-0.03-0.11-0.176-0.248-0.282-0.266
		c-0.115-0.019-0.311,0.055-0.369,0.15C266.898,201.968,266.637,202.452,266.346,202.962z"/>
	<path fill="#1E1C1D" d="M264.045,200.461c0.177,0.139,0.35,0.276,0.524,0.415c0.516-0.703,1.028-1.405,1.543-2.107
		c-0.156-0.115-0.312-0.231-0.47-0.347C265.11,199.101,264.579,199.782,264.045,200.461z"/>
	<path fill="#1E1C1D" d="M267.692,204.58c-0.087-0.077-0.177-0.154-0.264-0.232c-0.455,0.636-0.909,1.271-1.385,1.935
		C266.98,206.642,267.612,205.922,267.692,204.58z"/>
	<path fill="#1E1C1D" d="M240.156,230.8c0.424-0.458,0.791-0.968,1.146-1.482c0.019-0.024-0.33-0.361-0.36-0.342
		c-0.552,0.383-1.086,0.797-1.623,1.203c0.066,0.143,0.133,0.285,0.199,0.428C239.739,230.678,240.092,230.87,240.156,230.8z"/>
	<path fill="#1E1C1D" d="M245.257,222.452c-0.518,0.823-0.907,1.44-1.297,2.058c0.046,0.106,0.092,0.212,0.138,0.318
		c0.243-0.083,0.642-0.108,0.699-0.259C245.019,223.983,245.798,223.513,245.257,222.452z"/>
	<path fill="#1E1C1D" d="M249.655,232.567c-0.137-0.085-0.378-0.268-0.404-0.243c-0.492,0.495-0.969,1.008-1.423,1.539
		c-0.03,0.037,0.154,0.253,0.353,0.567C248.731,233.736,249.192,233.151,249.655,232.567z"/>
	<path fill="#1E1C1D" d="M248.044,229.393c-0.122-0.042-0.24-0.084-0.36-0.126c-1.008,0.891-1.262,1.62-0.686,2.532
		C247.384,230.913,247.714,230.152,248.044,229.393z"/>
	<path fill="#1E1C1D" d="M242.982,212.946c0.025-0.162,0.043-0.35-0.021-0.49c-0.04-0.083-0.25-0.154-0.363-0.13
		c-0.423,0.089-0.733,1.179-0.403,1.795c0.259-0.388,0.431-0.65,0.604-0.911C242.86,213.121,242.966,213.041,242.982,212.946z"/>
	<path fill="#1E1C1D" d="M245.803,235.54c0.282-0.412,0.543-0.841,0.774-1.284c0.124-0.236,0.167-0.514,0.246-0.773
		c-0.151-0.068-0.303-0.135-0.454-0.204c-0.417,0.682-0.857,1.35-1.23,2.054c-0.076,0.14,0.107,0.413,0.172,0.625
		C245.478,235.82,245.684,235.71,245.803,235.54z"/>
	<path fill="#1E1C1D" d="M242.628,228.896c0.145,0.029,0.411-0.004,0.459-0.095c0.369-0.733,0.701-1.485,1.045-2.231
		c-0.2-0.083-0.399-0.167-0.596-0.252c-0.354,0.741-0.717,1.478-1.049,2.228C242.448,228.632,242.556,228.881,242.628,228.896z"/>
	<path fill="#1E1C1D" d="M239.67,227.701c0.009-0.021-0.25-0.19-0.382-0.292c-0.266,0.494-0.534,0.987-0.795,1.483
		c-0.007,0.013,0.043,0.054,0.254,0.298C239.088,228.654,239.393,228.186,239.67,227.701z"/>
	<path fill="#1E1C1D" d="M238.554,225.071c-0.126-0.049-0.254-0.098-0.381-0.147c-0.245,0.547-0.487,1.097-0.73,1.645
		c0.153,0.059,0.305,0.118,0.458,0.178C238.217,226.221,238.873,225.815,238.554,225.071z"/>
	<path fill="#1E1C1D" d="M240.878,220.189c0.186-1.003,1.643-1.015,1.549-2.269C240.825,218.569,240.291,219.291,240.878,220.189z"
		/>
	<path fill="#1E1C1D" d="M241.417,232.432c0.465-0.292,0.894-0.759,0.362-1.399c-0.501,0.419-0.967,0.807-1.432,1.195
		c-0.037,0.11-0.073,0.221-0.108,0.332C240.637,232.526,241.119,232.621,241.417,232.432z"/>
	<path fill="#1E1C1D" d="M241.643,224.972c-0.412,0.46-0.997,0.863-0.708,1.558c0.136,0.052,0.273,0.104,0.408,0.156
		c0.239-0.515,0.477-1.031,0.713-1.548C241.919,225.083,241.781,225.028,241.643,224.972z"/>
	<path fill="#1E1C1D" d="M250.952,210.384c0.69-0.876,1.235-1.568,1.933-2.452C251.633,208.054,250.773,209.16,250.952,210.384z"/>
	<path fill="#1E1C1D" d="M254.474,200.193c-0.222,0.456-0.307,0.977-0.451,1.471c0.229-0.033,0.603,0.007,0.663-0.11
		c0.286-0.554,0.488-1.151,0.719-1.732c-0.066-0.074-0.132-0.148-0.199-0.223C254.954,199.794,254.601,199.939,254.474,200.193z"/>
	<path fill="#1E1C1D" d="M254.165,220.175c0.071-0.159-0.076-0.596-0.19-0.623c-0.486-0.114-1.141,1.048-0.685,2.033
		C253.656,221.014,253.963,220.618,254.165,220.175z"/>
	<path fill="#1E1C1D" d="M253.214,212.09c0.424-0.738,0.722-1.26,1.063-1.86C253.15,210.211,252.788,210.793,253.214,212.09z"/>
	<path fill="#1E1C1D" d="M255.811,203.754c0.53-0.732,1.134-1.439,0.611-2.421C256.01,202.094,255.352,202.806,255.811,203.754z"/>
	<path fill="#1E1C1D" d="M255.002,212.2c0.074-0.054-0.002-0.306-0.012-0.467c-0.188,0.02-0.451-0.031-0.55,0.072
		c-0.344,0.361-0.631,0.775-1.032,1.29C254.61,213.762,254.541,212.536,255.002,212.2z"/>
	<path fill="#1E1C1D" d="M253.242,193.008c1.185,0.11,1.729-0.438,1.504-1.581C254.181,192.022,253.759,192.464,253.242,193.008z"/>
	<path fill="#1E1C1D" d="M251.074,223.448c0.456-0.433,0.912-0.866,1.48-1.406C251.411,221.786,250.902,222.251,251.074,223.448z"/>
	<path fill="#1E1C1D" d="M251.471,228.897c0.071-0.11-0.076-0.351-0.122-0.532c-0.158,0.053-0.374,0.058-0.468,0.166
		c-0.325,0.375-0.607,0.785-1.02,1.333C251.01,230.332,251.138,229.422,251.471,228.897z"/>
	<path fill="#1E1C1D" d="M249.999,221.115c-0.371,0.406-0.759,0.799-1.101,1.229c-0.066,0.085,0.005,0.338,0.089,0.461
		c0.051,0.069,0.331,0.095,0.381,0.036c0.38-0.447,0.731-0.92,1.094-1.385C250.306,221.342,250.152,221.228,249.999,221.115z"/>
	<path fill="#1E1C1D" d="M255.263,196.127c-0.059,0.086,0.138,0.336,0.326,0.754c0.419-0.73,0.745-1.261,1.022-1.814
		c0.039-0.078-0.151-0.266-0.233-0.403C255.999,195.147,255.6,195.618,255.263,196.127z"/>
</g>
<g>
	<circle fill="#222B2D" stroke="#212222" stroke-width="14" stroke-miterlimit="10" cx="148.923" cy="200.026" r="39.5"/>
	<path fill="#3F4547" d="M123.026,220.511c0,0,23-34.5,54.5-37c0,0-20.5-28.5-47.5-9.5
		C130.026,174.011,105.526,189.011,123.026,220.511z"/>
	<path fill="#3F4547" stroke="#212222" stroke-width="14" stroke-miterlimit="10" d="M126.112,186.431
		c0,0-29.387-45.465,15.824-59.704c45.209-14.24,15.84,4.204,13.543,7.639c-2.295,3.437-25.16,14.889-9.207,47.67
		C162.229,214.817,126.112,186.431,126.112,186.431z"/>
	<circle fill="#222B2D" stroke="#212222" stroke-width="14" stroke-miterlimit="10" cx="148.136" cy="200.058" r="15.5"/>
	<path fill="#3F4547" d="M139.784,200.292c0,0,8.146-7.881,12.828-7.213c0,0-4.855-3.08-9.016-0.041
		C143.597,193.038,138.743,195.837,139.784,200.292z"/>
</g>
</svg>
