<?xml version="1.0" encoding="utf-8"?>
<!-- Generator: Adobe Illustrator 16.0.0, SVG Export Plug-In . SVG Version: 6.00 Build 0)  -->
<!DOCTYPE svg PUBLIC "-//W3C//DTD SVG 1.1//EN" "http://www.w3.org/Graphics/SVG/1.1/DTD/svg11.dtd">
<svg version="1.1" id="Layer_1" xmlns="http://www.w3.org/2000/svg" xmlns:xlink="http://www.w3.org/1999/xlink" x="0px" y="0px"
	 width="512px" height="512px" viewBox="0 0 512 512" enable-background="new 0 0 512 512" xml:space="preserve">
<g>
	<path fill="#FEFEFE" d="M257.014,513c-83.979,0-167.958-0.021-251.938,0.085c-3.261,0.004-4.18-0.434-4.178-4.009
		C1.015,341.117,1.017,173.158,0.893,5.199C0.89,1.455,1.83,0.912,5.299,0.914C173.091,1.013,340.884,1.012,508.676,0.92
		c3.403-0.002,4.439,0.443,4.438,4.254c-0.13,167.959-0.127,335.918-0.016,503.877c0.005,3.526-0.836,4.042-4.146,4.037
		C424.972,512.977,340.992,513,257.014,513z"/>
	<path fill="#212222" d="M172.45,114.147c9.294-8.628,19.234-16.428,29.987-23.172c0.703-0.44,1.393-0.906,2.11-1.321
		c31.892-18.46,65.917-28.701,103.104-26.689c13.316,0.72,25.373,5.039,37.438,10.882c23.855,11.552,39.183,30.257,49.22,53.944
		c6.536,15.422,8.25,31.775,7.965,48.409c-0.057,3.023-1.164,4.184-4.161,4.061c-3.826-0.156-7.67,0.096-11.493-0.084
		c-2.448-0.115-3.361,0.62-3.883,3.166c-1.739,8.472-4.012,16.833-7.78,24.669c-8.701,18.07-22.081,31.629-40.445,39.629
		c-5.438,2.37-10.956,5.316-17.271,5.678c-3.651,0.209-5.243,2.605-5.249,6.509c-0.08,50.268-15.105,95.265-47.837,133.841
		c-3.318,3.916-3.494,6.688,0.467,9.834c1.023,0.817,1.854,1.905,2.691,2.933c3.752,4.576,8.213,7.229,14.242,8.883
		c16.346,4.479,26.013,19.563,25.393,37.324c-0.104,2.946-1.863,2.579-3.676,2.58c-10.164,0.005-20.33,0.002-30.494,0.002
		c-9.998,0-20-0.175-29.989,0.1c-3.484,0.094-4.363-1.403-4.355-4.295c0.038-13.72,4.795-24.988,16.832-32.495
		c1.583-0.988,4.375-1.776,1.961-4.255c-2.076-2.135-3.354-6.511-7.769-4.186c-1.729,0.911-3.169,2.409-4.661,3.73
		c-18.53,16.396-39.394,28.908-62.79,36.951c-21.87,7.519-44.377,11.323-67.604,10.529c-3.819-0.131-5.025-1.768-4.98-5.114
		c0.109-8.155,0.333-16.313,0.337-24.471c0.029-58.983-0.555-117.979,0.196-176.961c0.602-47.271,17.438-88.924,47.803-125.096
		 M284.029,442.141c1.912,0.763,3.916,0.635,5.912,0.646c3.479,0.027,4.02-1.305,2.246-4.229
		c-4.188-6.898-9.375-12.108-18.227-11.683c-11.493-0.438-19.043,4.936-21.69,15.264
		C262.825,442.141,273.428,442.141,284.029,442.141z M361.324,194.08c3.813-4.841,3.845-10.741,4.629-16.438
		c0.322-2.336-0.854-2.766-2.863-2.757c-17.707,0.074-35.418-0.583-53.12,0.326c-3.349-1.063-2.923,1.233-2.927,3.237
		c-0.034,17.825,0.057,35.652-0.24,53.473c-0.068,4.338,1.779,4.666,5.043,3.982C335.87,230.872,352.476,217.064,361.324,194.08z
		 M307.269,82.051c-0.117,6.976-0.341,13.951-0.344,20.927c-0.009,18.293,0.063,36.586,0.157,54.878
		c0.01,1.732-1.011,4.192,2.489,4.119c16.448-0.345,32.909,0.566,49.351-0.51c5.479,0.107,10.954,0.278,16.436,0.31
		c8.949,0.052,8.949,0.015,7.727-8.938c-5.008-36.535-36.322-67.329-72.818-71.569C309.233,81.147,307.914,80.473,307.269,82.051z
		 M294.581,84.791c0.551-5.132-3.313-3.718-5.713-3.492c-24.714,2.321-48.39,8.285-70.088,20.778
		c-36.584,21.065-63.025,51.002-78.59,90.344c-9.735,24.607-13.587,50.194-13.446,76.632c0.294,55.303,0.089,110.606,0.09,165.909
		c0,1.499,0.071,3,0.017,4.496c-0.088,2.395,0.628,3.615,3.403,3.384c6.112-0.511,12.243-0.765,18.146-2.66
		c4.884,0.745,9.356-0.795,13.973-2.137c54.138-15.741,93.63-48.363,116.359-100.46c8.916-20.435,15.615-41.696,15.85-63.97
		c0.643-61.106,0.209-122.224,0.189-183.337C294.77,88.449,294.646,86.62,294.581,84.791z"/>
	<path fill="#F9D96C" d="M294.581,84.791c0.065,1.829,0.188,3.658,0.188,5.487c0.02,61.113,0.453,122.23-0.189,183.337
		c-0.232,22.273-6.934,43.535-15.85,63.97c-22.729,52.097-62.225,84.719-116.359,100.46c-4.616,1.342-9.088,2.882-13.973,2.137
		c-0.195-6.558-0.391-13.111-0.585-19.674c1.434-0.396,2.849-0.888,4.303-1.188c70.158-14.639,120.09-79.385,122.916-150.631
		c0.237-5.992-0.892-6.967-6.755-6.781c-3.229,0.101-4.938,1.615-5.326,4.74c-0.354,2.807-0.684,5.61-1.021,8.416
		c-3.039-0.207-3.807,2.239-4.812,4.263c-1.996,4.013-3.474,8.333-5.837,12.104c-17.625,28.131-40.701,50.305-71.227,64.104
		c-6.646,3.004-13.417,5.82-20.785,6.668c-0.129-1.99-0.37-3.979-0.371-5.971c-0.017-28.164,0.018-56.326-0.003-84.486
		c-0.006-8.241-0.069-8.229-7.949-9.053c-0.983-0.104-1.943-0.438-2.914-0.66c-0.525-12.735,1.12-25.259,3.975-37.62
		c14.667-63.513,51.515-108.027,112.792-131.672C274.471,89.006,284.574,87.14,294.581,84.791z M259.125,163.441
		c0.009-8.155-5.288-13.609-13.179-13.567c-7.594,0.04-12.976,5.502-13.061,13.257c-0.086,7.857,5.547,13.896,13.044,13.98
		C253.649,177.199,259.116,171.537,259.125,163.441z"/>
	<path fill="#FFE18D" d="M147.813,420.508c0.195,6.563,0.39,13.116,0.585,19.674c-5.902,1.896-12.034,2.149-18.146,2.66
		c-2.774,0.231-3.491-0.989-3.403-3.384c0.055-1.496-0.017-2.997-0.017-4.496c-0.001-55.303,0.204-110.606-0.09-165.909
		c-0.141-26.438,3.711-52.024,13.446-76.632c15.565-39.342,42.006-69.278,78.59-90.344c21.699-12.493,45.375-18.457,70.088-20.778
		c2.399-0.226,6.264-1.64,5.713,3.492c-10.007,2.349-20.11,4.215-29.782,7.946c-61.277,23.645-98.125,68.159-112.792,131.672
		c-2.854,12.361-4.5,24.885-3.975,37.62c-1.982,1.516-1.949,3.656-1.947,5.867c0.044,49.248,0.061,98.498,0.088,147.742
		C146.174,417.438,145.793,419.384,147.813,420.508z"/>
	<path fill="#F2AC46" d="M358.922,161.465c-16.438,1.076-32.902,0.165-49.351,0.51c-3.5,0.073-2.479-2.387-2.489-4.119
		c-0.099-18.292-0.166-36.585-0.157-54.878c0.003-6.976,0.227-13.951,0.344-20.927c1.956,0.886,3.999,1.62,5.854,2.684
		c11.271,6.469,20.35,15.413,27.845,25.869C351.836,125.768,358.372,142.593,358.922,161.465z"/>
	<path fill="#F2AC46" d="M361.324,194.08c-8.853,22.984-25.454,36.792-49.479,41.823c-3.264,0.684-5.111,0.355-5.043-3.982
		c0.297-17.82,0.206-35.647,0.24-53.473c0.004-2.004-0.422-4.301,2.928-3.237c0.612,0.532,1.143,1.312,1.854,1.562
		C328.31,182.576,344.819,188.323,361.324,194.08z"/>
	<path fill="#E88D2E" d="M358.922,161.465c-0.55-18.872-7.086-35.697-17.956-50.861c-7.495-10.456-16.574-19.4-27.845-25.869
		c-1.854-1.063-3.896-1.798-5.854-2.684c0.646-1.578,1.969-0.903,2.993-0.784c36.496,4.24,67.813,35.034,72.818,71.569
		c1.227,8.953,1.227,8.99-7.729,8.938C369.876,161.743,364.399,161.572,358.922,161.465z"/>
	<path fill="#E88D2E" d="M361.324,194.08c-16.505-5.757-33.019-11.504-49.504-17.308c-0.711-0.25-1.237-1.029-1.854-1.562
		c17.701-0.909,35.412-0.252,53.119-0.326c2.01-0.009,3.188,0.421,2.863,2.757C365.169,183.339,365.14,189.239,361.324,194.08z"/>
	<path fill="#414141" d="M284.029,442.141c-10.604,0-21.204,0-31.754,0c2.647-10.328,10.198-15.697,21.691-15.264
		c1.284,1.48,2.54,2.987,3.857,4.438C280.688,434.472,283.822,437.464,284.029,442.141z"/>
	<path fill="#212222" stroke="#212222" stroke-width="14" stroke-miterlimit="10" d="M284.029,442.141
		c-0.207-4.677-3.342-7.669-6.206-10.822c-1.317-1.45-2.573-2.957-3.857-4.438c8.849-0.43,14.033,4.78,18.222,11.685
		c1.773,2.925,1.234,4.257-2.246,4.229C287.945,442.771,285.941,442.899,284.029,442.141z"/>
	<path fill="#212222" d="M147.813,420.508c-2.02-1.124-1.639-3.065-1.64-4.865c-0.027-49.248-0.044-98.496-0.088-147.746
		c-0.002-2.211-0.035-4.352,1.947-5.867c0.971,0.229,1.93,0.563,2.914,0.662c7.88,0.822,7.943,0.813,7.949,9.055
		c0.021,28.158-0.013,56.32,0.003,84.484c0.001,1.988,0.242,3.979,0.371,5.973c-0.09,12.641-0.051,25.281-0.338,37.922
		c-0.103,4.543,1.98,4.729,5.183,3.336c6.517-2.838,13.188-5.42,19.418-8.807c27.758-15.066,48.95-36.602,63.087-64.973
		c8.592-17.242,14.225-35.283,15.311-54.617c0.34-2.805,0.67-5.608,1.021-8.416c0.393-3.125,2.1-4.643,5.326-4.739
		c5.863-0.187,6.992,0.79,6.755,6.78c-2.826,71.246-52.758,135.993-122.916,150.632C150.662,419.62,149.247,420.107,147.813,420.508
		z"/>
	<path fill="#FFE18D" d="M261.93,275.064c-1.086,19.332-6.718,37.373-15.311,54.617c-14.137,28.367-35.329,49.898-63.087,64.973
		c-6.23,3.383-12.901,5.965-19.418,8.803c-3.203,1.396-5.286,1.207-5.183-3.336c0.287-12.637,0.248-25.281,0.338-37.922
		c7.369-0.848,14.139-3.664,20.785-6.668c30.526-13.797,53.602-35.971,71.227-64.102c2.363-3.772,3.841-8.097,5.837-12.105
		C258.123,277.305,258.891,274.857,261.93,275.064z"/>
	<path fill="#212222" d="M259.125,163.441c-0.009,8.096-5.476,13.758-13.195,13.67c-7.498-0.085-13.13-6.123-13.044-13.98
		c0.085-7.755,5.467-13.217,13.061-13.257C253.837,149.832,259.134,155.286,259.125,163.441z"/>
</g>
<circle fill="#A5A5A5" stroke="#212222" stroke-width="14" stroke-miterlimit="10" cx="232.885" cy="162.01" r="62.5"/>
<circle fill="#FFFFFF" stroke="#212222" stroke-width="14" stroke-miterlimit="10" cx="236.385" cy="163.493" r="43"/>
<circle fill="#212222" cx="247.407" cy="164.396" r="14.522"/>
<path fill="#212222" stroke="#212222" stroke-width="14" stroke-miterlimit="10" d="M158.894,342.216
	c0,0,73.991,17.948,77.491,9.195c0,0-45.374,48.533-77.457,52.812L158.894,342.216z"/>
<path fill="#6B6B6B" stroke="#212222" stroke-width="14" stroke-miterlimit="10" d="M132.502,190.5l37.883-8.667l17.677,23.727
	c0,0-59.754,9.606-61.324,5.606L132.502,190.5z"/>
<path fill="#D6D6D6" d="M182.167,184.402c0,0-14.155-25.179,3.333-51.234c0,0,10.667-22.333,37.667-25.667
	C223.167,107.501,169.167,132.636,182.167,184.402z"/>
<path fill="#474747" d="M137.167,200.503c0,0,31.437-4.847,33.218-6.423c0,0,5.297,6.09,6.373,6.423
	c1.076,0.333,1.076,0.333,1.076,0.333s-40.77,6.312-42.552,5.656L137.167,200.503z"/>
<path fill="#87B8E0" stroke="#212222" stroke-width="14" stroke-miterlimit="10" d="M120.5,267.167c0,0,99.334-63.333,182.667,0
	l-2.667,22c-90.667-60.667-180,3.333-180,3.333V267.167z"/>
<path fill="none" stroke="#212222" stroke-width="14" stroke-miterlimit="10" d="M273.966,369.167c0,0-156.799-9.235-156.799-26.951
	"/>
<path fill="#73AFD8" stroke="#212222" stroke-width="14" stroke-miterlimit="10" d="M287.15,281.105c0,0-12.09,53.395-34.875,88.062
	l15.877,4.052c0,0,27.951-39.511,33.324-92.111H287.15V281.105z"/>
<path fill="#73AFD8" d="M231.969,373.219c0,0,13.921-0.045,23.893,3.45c0,0-35.736,55.829-108.049,64.495v-20.656
	C147.813,420.508,197.771,411.273,231.969,373.219z"/>
<path fill="#87B8E0" d="M126.894,357.164l19.251,4.333v55.691c0,0-0.687,1.662,1.667,3.318v20.656c0,0-21.326,2.671-20.919,1.705"/>
<path fill="#414141" d="M193.385,349.559c0,0-27.794,24.383-34.173,23.66c0,0-0.318-27.951-0.318-31.003
	S185.603,349.953,193.385,349.559z"/>
<path fill="none" stroke="#212222" stroke-width="14" stroke-miterlimit="10" d="M170.385,122.03c0,0-34.551-47.296-56.551-41.079"
	/>
<path fill="none" stroke="#212222" stroke-width="14" stroke-miterlimit="10" d="M188.062,110.501c0,0-26.896-51.334-23.562-58.667"
	/>
<path fill="none" stroke="#212222" stroke-width="14" stroke-miterlimit="10" d="M158.928,135.834c0,0-31.094-20.683-35.761-15.341"
	/>
<path fill="none" stroke="#212222" stroke-width="14" stroke-miterlimit="10" d="M197.639,99.51c0,0,8.86-33.009,25.527-41.676"/>
<path fill="none" stroke="#212222" stroke-width="14" stroke-miterlimit="10" d="M147.813,154.501c0,0-19.503-12.434-21.075-8.55"/>
</svg>
