<?xml version="1.0" encoding="utf-8"?>
<!-- Generator: Adobe Illustrator 16.0.0, SVG Export Plug-In . SVG Version: 6.00 Build 0)  -->
<!DOCTYPE svg PUBLIC "-//W3C//DTD SVG 1.1//EN" "http://www.w3.org/Graphics/SVG/1.1/DTD/svg11.dtd">
<svg version="1.1" id="Layer_1" xmlns="http://www.w3.org/2000/svg" xmlns:xlink="http://www.w3.org/1999/xlink" x="0px" y="0px"
	 width="512px" height="512px" viewBox="0 0 512 512" enable-background="new 0 0 512 512" xml:space="preserve">
<g>
	<path fill="#212222" d="M172.45,114.147c9.294-8.628,19.234-16.428,29.987-23.172c0.703-0.44,1.393-0.906,2.11-1.321
		c31.892-18.46,65.917-28.701,103.104-26.689c13.318,0.72,25.373,5.039,37.438,10.882c23.855,11.552,39.183,30.257,49.22,53.944
		c6.536,15.422,8.25,31.775,7.963,48.409c-0.055,3.023-1.164,4.184-4.161,4.061c-3.826-0.156-7.67,0.096-11.493-0.084
		c-2.448-0.115-3.361,0.62-3.883,3.166c-1.739,8.472-4.01,16.833-7.78,24.669c-8.701,18.07-22.081,31.629-40.445,39.629
		c-5.44,2.37-10.956,5.316-17.271,5.678c-3.651,0.209-5.243,2.605-5.249,6.509c-0.08,50.267-15.105,95.265-47.835,133.841
		c-3.32,3.916-3.496,6.688,0.465,9.834c1.025,0.817,1.854,1.905,2.693,2.933c3.752,4.576,8.213,7.229,14.242,8.881
		c16.346,4.479,26.011,19.563,25.391,37.326c-0.104,2.946-1.863,2.579-3.674,2.58c-10.164,0.005-20.33,0.002-30.494,0.002
		c-9.998,0-20-0.175-29.991,0.098c-3.484,0.094-4.363-1.403-4.355-4.295c0.038-13.718,4.795-24.988,16.832-32.495
		c1.584-0.988,4.375-1.776,1.963-4.255c-2.076-2.133-3.354-6.509-7.769-4.184c-1.729,0.911-3.169,2.409-4.661,3.73
		c-18.53,16.397-39.394,28.908-62.79,36.951c-21.87,7.519-44.377,11.325-67.604,10.531c-3.819-0.131-5.025-1.768-4.98-5.116
		c0.109-8.155,0.333-16.313,0.337-24.469c0.029-58.985-0.555-117.98,0.196-176.961c0.602-47.271,17.438-88.924,47.803-125.096
		 M284.029,442.141c1.912,0.761,3.916,0.633,5.912,0.646c3.479,0.027,4.02-1.305,2.246-4.229c-4.188-6.9-9.375-12.11-18.225-11.683
		c-11.493-0.438-19.043,4.936-21.69,15.264C262.825,442.141,273.428,442.141,284.029,442.141z M361.324,194.08
		c3.813-4.841,3.845-10.741,4.629-16.438c0.322-2.336-0.854-2.766-2.863-2.757c-17.707,0.074-35.418-0.583-53.12,0.326
		c-3.349-1.063-2.923,1.233-2.927,3.237c-0.034,17.825,0.057,35.652-0.24,53.473c-0.07,4.338,1.779,4.666,5.043,3.982
		C335.87,230.872,352.476,217.064,361.324,194.08z M307.269,82.051c-0.119,6.976-0.341,13.951-0.344,20.927
		c-0.009,18.293,0.061,36.586,0.157,54.878c0.01,1.732-1.011,4.192,2.489,4.119c16.448-0.345,32.909,0.566,49.351-0.51
		c5.479,0.107,10.954,0.278,16.434,0.31c8.951,0.052,8.951,0.015,7.727-8.938c-5.008-36.535-36.322-67.329-72.818-71.569
		C309.233,81.147,307.914,80.473,307.269,82.051z M294.581,84.791c0.551-5.132-3.313-3.718-5.713-3.492
		c-24.714,2.321-48.39,8.285-70.088,20.778c-36.584,21.065-63.025,51.002-78.59,90.344c-9.735,24.607-13.587,50.194-13.446,76.632
		c0.294,55.303,0.089,110.606,0.09,165.909c0,1.499,0.071,3,0.017,4.496c-0.088,2.395,0.628,3.615,3.403,3.384
		c6.112-0.511,12.243-0.765,18.146-2.66c4.884,0.745,9.356-0.795,13.973-2.137c54.138-15.741,93.63-48.363,116.359-100.46
		c8.916-20.435,15.615-41.696,15.85-63.97c0.643-61.106,0.209-122.224,0.189-183.337C294.77,88.449,294.646,86.62,294.581,84.791z"
		/>
	<path fill="#7A0559" d="M294.581,84.791c0.065,1.829,0.188,3.658,0.188,5.487c0.02,61.113,0.453,122.23-0.189,183.337
		c-0.232,22.273-6.934,43.535-15.85,63.97c-22.729,52.097-62.223,84.719-116.359,100.46c-4.616,1.342-9.088,2.882-13.973,2.137
		c-0.195-6.558-0.391-13.113-0.585-19.674c1.434-0.398,2.849-0.888,4.303-1.188c70.158-14.637,120.09-79.384,122.916-150.63
		c0.237-5.992-0.892-6.967-6.755-6.782c-3.229,0.101-4.936,1.616-5.326,4.741c-0.354,2.806-0.684,5.611-1.021,8.416
		c-3.039-0.207-3.807,2.24-4.812,4.262c-1.996,4.013-3.474,8.333-5.837,12.104c-17.625,28.131-40.701,50.305-71.227,64.104
		c-6.646,3.004-13.417,5.82-20.785,6.668c-0.129-1.99-0.37-3.979-0.371-5.971c-0.017-28.164,0.018-56.326-0.003-84.486
		c-0.006-8.241-0.069-8.229-7.949-9.053c-0.983-0.103-1.943-0.436-2.914-0.66c-0.525-12.735,1.12-25.259,3.975-37.62
		c14.667-63.513,51.515-108.027,112.792-131.672C274.471,89.006,284.574,87.14,294.581,84.791z M259.125,163.441
		c0.009-8.155-5.288-13.609-13.179-13.567c-7.594,0.04-12.976,5.502-13.061,13.257c-0.086,7.857,5.547,13.896,13.044,13.98
		C253.649,177.199,259.116,171.537,259.125,163.441z"/>
	<path fill="#F2AC46" d="M358.922,161.465c-16.439,1.076-32.902,0.165-49.351,0.51c-3.5,0.073-2.479-2.387-2.489-4.119
		c-0.099-18.292-0.166-36.585-0.157-54.878c0.003-6.976,0.225-13.951,0.344-20.927c1.956,0.886,3.999,1.62,5.854,2.684
		c11.271,6.469,20.35,15.413,27.845,25.869C351.836,125.768,358.372,142.593,358.922,161.465z"/>
	<path fill="#F2AC46" d="M361.324,194.08c-8.851,22.984-25.454,36.792-49.479,41.823c-3.264,0.684-5.113,0.355-5.043-3.982
		c0.297-17.82,0.206-35.647,0.24-53.473c0.004-2.004-0.422-4.301,2.928-3.237c0.612,0.532,1.141,1.312,1.852,1.562
		C328.31,182.576,344.819,188.323,361.324,194.08z"/>
	<path fill="#E88D2E" d="M358.922,161.465c-0.55-18.872-7.086-35.697-17.956-50.861c-7.495-10.456-16.574-19.4-27.845-25.869
		c-1.854-1.063-3.896-1.798-5.854-2.684c0.646-1.578,1.967-0.903,2.993-0.784c36.496,4.24,67.813,35.034,72.818,71.569
		c1.227,8.953,1.227,8.99-7.729,8.938C369.876,161.743,364.399,161.572,358.922,161.465z"/>
	<path fill="#E88D2E" d="M361.324,194.08c-16.505-5.757-33.017-11.504-49.504-17.308c-0.711-0.25-1.237-1.029-1.852-1.562
		c17.701-0.909,35.412-0.252,53.119-0.326c2.01-0.009,3.188,0.421,2.863,2.757C365.169,183.339,365.14,189.239,361.324,194.08z"/>
	<path fill="#F2AC46" d="M284.029,442.141c-10.604,0-21.204,0-31.754,0c2.647-10.328,10.198-15.699,21.691-15.264
		c1.284,1.48,2.54,2.987,3.857,4.438C280.688,434.472,283.822,437.464,284.029,442.141z"/>
	<path fill="#E88D2E" d="M284.029,442.141c-0.207-4.677-3.342-7.669-6.206-10.824c-1.317-1.45-2.573-2.957-3.857-4.438
		c8.849-0.43,14.033,4.78,18.222,11.683c1.773,2.925,1.234,4.257-2.246,4.229C287.945,442.771,285.941,442.899,284.029,442.141z"/>
	<path fill="#212222" d="M147.813,420.508c-2.02-1.124-1.639-3.067-1.64-4.865c-0.027-49.248-0.044-98.496-0.088-147.746
		c-0.002-2.211-0.035-4.352,1.947-5.867c0.971,0.229,1.93,0.562,2.914,0.662c7.88,0.822,7.943,0.812,7.949,9.053
		c0.021,28.16-0.013,56.322,0.003,84.486c0.001,1.988,0.242,3.979,0.371,5.971c-0.09,12.641-0.051,25.283-0.338,37.922
		c-0.103,4.543,1.98,4.729,5.183,3.336c6.517-2.838,13.188-5.42,19.418-8.805c27.758-15.068,48.95-36.602,63.087-64.973
		c8.592-17.242,14.225-35.283,15.311-54.617c0.34-2.805,0.67-5.61,1.021-8.416c0.393-3.125,2.1-4.643,5.326-4.741
		c5.863-0.185,6.992,0.79,6.755,6.782c-2.826,71.246-52.758,135.993-122.916,150.63C150.662,419.62,149.247,420.107,147.813,420.508
		z"/>
	<path fill="#930C73" d="M261.93,275.064c-1.086,19.332-6.718,37.373-15.311,54.617c-14.137,28.369-35.329,49.9-63.087,64.973
		c-6.23,3.383-12.901,5.965-19.418,8.803c-3.203,1.396-5.286,1.207-5.183-3.336c0.287-12.637,0.248-25.281,0.338-37.922
		c7.369-0.848,14.139-3.664,20.785-6.668c30.526-13.797,53.602-35.971,71.227-64.102c2.363-3.772,3.841-8.095,5.837-12.105
		C258.123,277.305,258.891,274.857,261.93,275.064z"/>
	<path fill="#D6D6D6" d="M259.125,163.441c-0.009,8.096-5.476,13.758-13.195,13.67c-7.498-0.085-13.13-6.123-13.044-13.98
		c0.085-7.755,5.467-13.217,13.061-13.257C253.837,149.832,259.134,155.286,259.125,163.441z"/>
</g>
<path fill="#FFFFFF" stroke="#212222" stroke-width="14" stroke-miterlimit="10" d="M179.728,123.089
	c0,0-99.083-24.36-106.384-37.986c-7.301-13.626-15.081,8.679-9.821,12.58c0,0,62.338,37.176,60.742,96.345L179.728,123.089z"/>
<path fill="#FFFFFF" stroke="#000000" stroke-width="14" stroke-miterlimit="10" d="M202.5,103.5"/>
<path fill="#FFFFFF" stroke="#000000" stroke-width="14" stroke-miterlimit="10" d="M194.5,105.5"/>
<path fill="#4EC935" stroke="#212222" stroke-width="14" stroke-miterlimit="10" d="M206.5,25.101c0,0-80.999,88.284-147.152,64.704
	c0.202-1.616-10.771-63.362,86.201-71.666C145.549,18.139,205,20.702,206.5,25.101z"/>
<path fill="#930C73" d="M288.866,81.299c-24.714,2.321-48.389,8.285-70.088,20.778c-8.667,4.991-16.759,10.486-24.278,16.48v-0.007
	c0,0-0.018,0.018-0.05,0.047c-0.487,0.389-0.977,0.775-1.459,1.168c-4.998,3.633-22.486,13.319-52.49-1.266l-67-22
	c0,0,65,38,57.991,124.605l0.006-0.008c-3.401,15.642-4.842,31.636-4.755,47.956c0.294,55.303,0.089,110.606,0.09,165.909
	c0,1.499,0.072,3,0.017,4.496c-0.088,2.395,0.629,3.615,3.403,3.384c6.112-0.511,12.244-0.764,18.146-2.66
	c-0.195-6.558-0.39-13.113-0.585-19.674c-2.02-1.124-1.639-3.07-1.642-4.867c-0.027-49.246-0.044-98.496-0.088-147.744
	c-0.002-2.211-0.035-4.352,1.947-5.867c-0.525-12.735,1.121-25.259,3.975-37.62c14.667-63.513,51.515-108.027,112.792-131.672
	c9.672-3.731,19.775-5.597,29.782-7.946C295.13,79.659,291.266,81.073,288.866,81.299z"/>
<path fill="#FFFFFF" stroke="#212222" stroke-width="14" stroke-miterlimit="10" d="M206.5,29"/>
<path fill="#FFFFFF" d="M109.422-32"/>
<path fill="#7A0559" d="M73.5,96.5c0,0,52.651,35.923,58.159,101.295C131.659,197.795,146.075,140.5,73.5,96.5z"/>
<path fill="#3BAD1F" d="M66,84.791c0,0,63.917-56.634,127.25-55.8C193.25,28.991,122.572,101.749,66,84.791z"/>
<path fill="#212222" d="M256.274,163.723c0,4.971-4.029,9-9,9l0,0c-4.971,0-9-4.029-9-9l0,0c0-4.971,4.029-9,9-9l0,0
	C252.245,154.723,256.274,158.752,256.274,163.723L256.274,163.723z"/>
<g>
	<path fill="#212222" d="M172.45,114.147c9.294-8.628,19.234-16.428,29.987-23.172c0.703-0.44,1.393-0.906,2.11-1.321
		c31.892-18.46,65.917-28.701,103.104-26.689c13.318,0.72,25.373,5.039,37.438,10.882c23.855,11.552,39.183,30.257,49.22,53.944
		c6.536,15.422,8.25,31.775,7.963,48.409c-0.055,3.023-1.164,4.184-4.161,4.061c-3.826-0.156-7.67,0.096-11.493-0.084
		c-2.448-0.115-3.361,0.62-3.883,3.166c-1.739,8.472-4.01,16.833-7.78,24.669c-8.701,18.07-22.081,31.629-40.445,39.629
		c-5.44,2.37-10.956,5.316-17.271,5.678c-3.651,0.209-5.243,2.605-5.249,6.509c-0.08,50.267-15.105,95.265-47.835,133.841
		c-3.32,3.916-3.496,6.688,0.465,9.834c1.025,0.817,1.854,1.905,2.693,2.933c3.752,4.576,8.213,7.229,14.242,8.881
		c16.346,4.479,26.011,19.563,25.391,37.326c-0.104,2.946-1.863,2.579-3.674,2.58c-10.164,0.005-20.33,0.002-30.494,0.002
		c-9.998,0-20-0.175-29.991,0.098c-3.484,0.094-4.363-1.403-4.355-4.295c0.038-13.718,4.795-24.988,16.832-32.495
		c1.584-0.988,4.375-1.776,1.963-4.255c-2.076-2.133-3.354-6.509-7.769-4.184c-1.729,0.911-3.169,2.409-4.661,3.73
		c-18.53,16.397-39.394,28.908-62.79,36.951c-21.87,7.519-44.377,11.325-67.604,10.531c-3.819-0.131-5.025-1.768-4.98-5.116
		c0.109-8.155,0.333-16.313,0.337-24.469c0.029-58.985-0.555-117.98,0.196-176.961c0.602-47.271,17.438-88.924,47.803-125.096
		 M284.029,442.141c1.912,0.761,3.916,0.633,5.912,0.646c3.479,0.027,4.02-1.305,2.246-4.229c-4.188-6.9-9.375-12.11-18.225-11.683
		c-11.493-0.438-19.043,4.936-21.69,15.264C262.825,442.141,273.428,442.141,284.029,442.141z M361.324,194.08
		c3.813-4.841,3.845-10.741,4.629-16.438c0.322-2.336-0.854-2.766-2.863-2.757c-17.707,0.074-35.418-0.583-53.12,0.326
		c-3.349-1.063-2.923,1.233-2.927,3.237c-0.034,17.825,0.057,35.652-0.24,53.473c-0.07,4.338,1.779,4.666,5.043,3.982
		C335.87,230.872,352.476,217.064,361.324,194.08z M307.269,82.051c-0.119,6.976-0.341,13.951-0.344,20.927
		c-0.009,18.293,0.061,36.586,0.157,54.878c0.01,1.732-1.011,4.192,2.489,4.119c16.448-0.345,32.909,0.566,49.351-0.51
		c5.479,0.107,10.954,0.278,16.434,0.31c8.951,0.052,8.951,0.015,7.727-8.938c-5.008-36.535-36.322-67.329-72.818-71.569
		C309.233,81.147,307.914,80.473,307.269,82.051z M294.581,84.791c0.551-5.132-3.313-3.718-5.713-3.492
		c-24.714,2.321-48.39,8.285-70.088,20.778c-36.584,21.065-63.025,51.002-78.59,90.344c-9.735,24.607-13.587,50.194-13.446,76.632
		c0.294,55.303,0.089,110.606,0.09,165.909c0,1.499,0.071,3,0.017,4.496c-0.088,2.395,0.628,3.615,3.403,3.384
		c6.112-0.511,12.243-0.765,18.146-2.66c4.884,0.745,9.356-0.795,13.973-2.137c54.138-15.741,93.63-48.363,116.359-100.46
		c8.916-20.435,15.615-41.696,15.85-63.97c0.643-61.106,0.209-122.224,0.189-183.337C294.77,88.449,294.646,86.62,294.581,84.791z"
		/>
	<path fill="#DD1221" d="M294.581,84.791c0.065,1.829,0.188,3.658,0.188,5.487c0.02,61.113,0.453,122.23-0.189,183.337
		c-0.232,22.273-6.934,43.535-15.85,63.97c-22.729,52.097-62.223,84.719-116.359,100.46c-4.616,1.342-9.088,2.882-13.973,2.137
		c-0.195-6.558-0.391-13.113-0.585-19.674c1.434-0.398,2.849-0.888,4.303-1.188c70.158-14.637,120.09-79.384,122.916-150.63
		c0.237-5.992-0.892-6.967-6.755-6.782c-3.229,0.101-4.936,1.616-5.326,4.741c-0.354,2.806-0.684,5.611-1.021,8.416
		c-3.039-0.207-3.807,2.24-4.812,4.262c-1.996,4.013-3.474,8.333-5.837,12.104c-17.625,28.131-40.701,50.305-71.227,64.104
		c-6.646,3.004-13.417,5.82-20.785,6.668c-0.129-1.99-0.37-3.979-0.371-5.971c-0.017-28.164,0.018-56.326-0.003-84.486
		c-0.006-8.241-0.069-8.229-7.949-9.053c-0.983-0.103-1.943-0.436-2.914-0.66c-0.525-12.735,1.12-25.259,3.975-37.62
		c14.667-63.513,51.515-108.027,112.792-131.672C274.471,89.006,284.574,87.14,294.581,84.791z M259.125,163.441
		c0.009-8.155-5.288-13.609-13.179-13.567c-7.594,0.04-12.976,5.502-13.061,13.257c-0.086,7.857,5.547,13.896,13.044,13.98
		C253.649,177.199,259.116,171.537,259.125,163.441z"/>
	<path fill="#F2AC46" d="M358.922,161.465c-16.439,1.076-32.902,0.165-49.351,0.51c-3.5,0.073-2.479-2.387-2.489-4.119
		c-0.099-18.292-0.166-36.585-0.157-54.878c0.003-6.976,0.225-13.951,0.344-20.927c1.956,0.886,3.999,1.62,5.854,2.684
		c11.271,6.469,20.35,15.413,27.845,25.869C351.836,125.768,358.372,142.593,358.922,161.465z"/>
	<path fill="#F2AC46" d="M361.324,194.08c-8.851,22.984-25.454,36.792-49.479,41.823c-3.264,0.684-5.113,0.355-5.043-3.982
		c0.297-17.82,0.206-35.647,0.24-53.473c0.004-2.004-0.422-4.301,2.928-3.237c0.612,0.532,1.141,1.312,1.852,1.562
		C328.31,182.576,344.819,188.323,361.324,194.08z"/>
	<path fill="#E88D2E" d="M358.922,161.465c-0.55-18.872-7.086-35.697-17.956-50.861c-7.495-10.456-16.574-19.4-27.845-25.869
		c-1.854-1.063-3.896-1.798-5.854-2.684c0.646-1.578,1.967-0.903,2.993-0.784c36.496,4.24,67.813,35.034,72.818,71.569
		c1.227,8.953,1.227,8.99-7.729,8.938C369.876,161.743,364.399,161.572,358.922,161.465z"/>
	<path fill="#E88D2E" d="M361.324,194.08c-16.505-5.757-33.017-11.504-49.504-17.308c-0.711-0.25-1.237-1.029-1.852-1.562
		c17.701-0.909,35.412-0.252,53.119-0.326c2.01-0.009,3.188,0.421,2.863,2.757C365.169,183.339,365.14,189.239,361.324,194.08z"/>
	<path fill="#F2AC46" d="M284.029,442.141c-10.604,0-21.204,0-31.754,0c2.647-10.328,10.198-15.699,21.691-15.264
		c1.284,1.48,2.54,2.987,3.857,4.438C280.688,434.472,283.822,437.464,284.029,442.141z"/>
	<path fill="#E88D2E" d="M284.029,442.141c-0.207-4.677-3.342-7.669-6.206-10.824c-1.317-1.45-2.573-2.957-3.857-4.438
		c8.849-0.43,14.033,4.78,18.222,11.683c1.773,2.925,1.234,4.257-2.246,4.229C287.945,442.771,285.941,442.899,284.029,442.141z"/>
	<path fill="#212222" d="M147.813,420.508c-2.02-1.124-1.639-3.067-1.64-4.865c-0.027-49.248-0.044-98.496-0.088-147.746
		c-0.002-2.211-0.035-4.352,1.947-5.867c0.971,0.229,1.93,0.562,2.914,0.662c7.88,0.822,7.943,0.812,7.949,9.053
		c0.021,28.16-0.013,56.322,0.003,84.486c0.001,1.988,0.242,3.979,0.371,5.971c-0.09,12.641-0.051,25.283-0.338,37.922
		c-0.103,4.543,1.98,4.729,5.183,3.336c6.517-2.838,13.188-5.42,19.418-8.805c27.758-15.068,48.95-36.602,63.087-64.973
		c8.592-17.242,14.225-35.283,15.311-54.617c0.34-2.805,0.67-5.61,1.021-8.416c0.393-3.125,2.1-4.643,5.326-4.741
		c5.863-0.185,6.992,0.79,6.755,6.782c-2.826,71.246-52.758,135.993-122.916,150.63C150.662,419.62,149.247,420.107,147.813,420.508
		z"/>
	<path fill="#F43149" d="M261.93,275.064c-1.086,19.332-6.718,37.373-15.311,54.617c-14.137,28.369-35.329,49.9-63.087,64.973
		c-6.23,3.383-12.901,5.965-19.418,8.803c-3.203,1.396-5.286,1.207-5.183-3.336c0.287-12.637,0.248-25.281,0.338-37.922
		c7.369-0.848,14.139-3.664,20.785-6.668c30.526-13.797,53.602-35.971,71.227-64.102c2.363-3.772,3.841-8.095,5.837-12.105
		C258.123,277.305,258.891,274.857,261.93,275.064z"/>
	<path fill="#212222" d="M259.125,163.441c-0.009,8.096-5.476,13.758-13.195,13.67c-7.498-0.085-13.13-6.123-13.044-13.98
		c0.085-7.755,5.467-13.217,13.061-13.257C253.837,149.832,259.134,155.286,259.125,163.441z"/>
</g>
<path fill="#FFFFFF" stroke="#212222" stroke-width="14" stroke-miterlimit="10" d="M179.728,123.089
	c0,0-99.083-24.36-106.384-37.986c-7.301-13.626-15.081,8.679-9.821,12.58c0,0,62.338,37.176,60.742,96.345L179.728,123.089z"/>
<path fill="#FFFFFF" stroke="#000000" stroke-width="14" stroke-miterlimit="10" d="M202.5,103.5"/>
<path fill="#FFFFFF" stroke="#000000" stroke-width="14" stroke-miterlimit="10" d="M194.5,105.5"/>
<path fill="#4EC935" stroke="#212222" stroke-width="14" stroke-miterlimit="10" d="M206.5,25.101c0,0-80.999,88.284-147.152,64.704
	c0.202-1.616-10.771-63.362,86.201-71.666C145.549,18.139,205,20.702,206.5,25.101z"/>
<path fill="#F43149" d="M288.866,81.299c-24.714,2.321-48.389,8.285-70.088,20.778c-8.667,4.991-16.759,10.486-24.278,16.48v-0.007
	c0,0-0.018,0.018-0.05,0.047c-0.487,0.389-0.977,0.775-1.459,1.168c-4.998,3.633-22.486,13.319-52.49-1.266l-67-22
	c0,0,65,38,57.991,124.605l0.006-0.008c-3.401,15.642-4.842,31.636-4.755,47.956c0.294,55.303,0.089,110.606,0.09,165.909
	c0,1.499,0.072,3,0.017,4.496c-0.088,2.395,0.629,3.615,3.403,3.384c6.112-0.511,12.244-0.764,18.146-2.66
	c-0.195-6.558-0.39-13.113-0.585-19.674c-2.02-1.124-1.639-3.07-1.642-4.867c-0.027-49.246-0.044-98.496-0.088-147.744
	c-0.002-2.211-0.035-4.352,1.947-5.867c-0.525-12.735,1.121-25.259,3.975-37.62c14.667-63.513,51.515-108.027,112.792-131.672
	c9.672-3.731,19.775-5.597,29.782-7.946C295.13,79.659,291.266,81.073,288.866,81.299z"/>
<path fill="#FFFFFF" stroke="#212222" stroke-width="14" stroke-miterlimit="10" d="M206.5,29"/>
<path fill="#FFFFFF" d="M109.422-32"/>
<path fill="#DD1221" d="M73.5,96.5c0,0,52.651,35.923,58.159,101.295C131.659,197.795,146.075,140.5,73.5,96.5z"/>
<path fill="#3BAD1F" d="M66,84.791c0,0,63.917-56.634,127.25-55.8C193.25,28.991,122.572,101.749,66,84.791z"/>
<path fill="#FFFFFF" d="M347.928,287.599"/>
<path fill="#FFFFFF" d="M347.928,287.599"/>
<path fill="#5AD33D" d="M66,84.791c0,0,5.126-47.291,81.813-59.291C147.813,25.5,59.5,21.582,66,84.791z"/>
</svg>
