<?xml version="1.0" encoding="utf-8"?>
<!-- Generator: Adobe Illustrator 16.0.0, SVG Export Plug-In . SVG Version: 6.00 Build 0)  -->
<!DOCTYPE svg PUBLIC "-//W3C//DTD SVG 1.1//EN" "http://www.w3.org/Graphics/SVG/1.1/DTD/svg11.dtd">
<svg version="1.1" id="Layer_1" xmlns="http://www.w3.org/2000/svg" xmlns:xlink="http://www.w3.org/1999/xlink" x="0px" y="0px"
	 width="512px" height="512px" viewBox="0 0 512 512" enable-background="new 0 0 512 512" xml:space="preserve">
<g>
	<path fill-rule="evenodd" clip-rule="evenodd" fill="#FDFDFD" d="M0.031,255.54C0.031,170.881,0.035,86.223,0,1.564
		C0,0.288,0.287,0,1.564,0C170.88,0.033,340.197,0.033,509.513,0c1.277,0,1.566,0.286,1.565,1.564
		c-0.033,169.316-0.033,338.633,0,507.948c0.001,1.276-0.285,1.566-1.564,1.565c-169.316-0.033-338.632-0.033-507.948,0
		C0.29,511.079,0,510.793,0,509.514C0.035,424.855,0.031,340.197,0.031,255.54z M394.888,183.601
		c1.927,0.019,3.854,0.001,5.779,0.072c0.832,0.031,1.066-0.251,1.038-1.057c-0.067-1.925-0.054-3.853-0.072-5.779
		c0.019-11,0.024-21.999,0.079-32.998c0.005-0.969-0.363-1.115-1.185-1.079c-1.303,0.057-2.618-0.082-3.91,0.042
		c-1.37,0.131-1.809-0.229-1.782-1.704c0.102-5.612-0.042-11.229,0.09-16.839c0.041-1.719-0.485-2.146-2.057-1.947
		c-1.005,0.127-2.048-0.066-3.056,0.046c-1.354,0.152-1.851-0.199-1.792-1.693c0.133-3.34-0.075-6.695,0.091-10.032
		c0.084-1.727-0.487-2.141-2.058-1.949c-1.062,0.13-2.158-0.054-3.227,0.045c-1.203,0.112-1.72-0.162-1.612-1.523
		c0.137-1.747,0.022-3.513,0.017-5.27c0.006-1.863-0.022-3.728,0.031-5.589c0.026-0.952-0.328-1.306-1.28-1.279
		c-1.861,0.053-3.725,0.025-5.589,0.03c-1.759-0.006-3.522-0.083-5.277,0.009c-1.139,0.06-1.635-0.181-1.522-1.444
		c0.122-1.351-0.035-2.726,0.049-4.083c0.063-1.007-0.169-1.42-1.28-1.338c-1.468,0.108-2.952-0.02-4.425,0.044
		c-0.869,0.038-1.194-0.196-1.15-1.118c0.076-1.586-0.014-3.179,0.036-4.768c0.023-0.744-0.206-0.986-0.957-0.961
		c-1.588,0.052-3.181-0.038-4.767,0.037c-0.915,0.043-1.162-0.27-1.123-1.146c0.066-1.473-0.063-2.957,0.045-4.425
		c0.08-1.104-0.323-1.304-1.334-1.287c-3.575,0.062-7.153-0.021-10.729,0.05c-1.172,0.024-1.792-0.128-1.618-1.518
		c0.139-1.117-0.064-2.276,0.051-3.4c0.149-1.47-0.233-1.995-1.865-1.967c-6.186,0.102-12.374,0.02-18.561,0.007
		c-0.013-1.806-0.072-3.613-0.02-5.417c0.028-0.969-0.156-1.444-1.278-1.381c-1.857,0.104-3.724,0.054-5.585,0.069
		c-11.333-0.003-22.665-0.006-33.997-0.009c-1.857-0.012-3.718,0.032-5.572-0.057c-1.092-0.052-1.327,0.404-1.298,1.383
		c0.053,1.8-0.002,3.603-0.012,5.404c-7.202,0.016-14.403,0.027-21.605,0.051c-1.807,0.006-4.176-0.632-5.266,0.266
		c-1.131,0.931-0.337,3.395-0.318,5.183c0.012,1.125-0.313,1.4-1.412,1.388c-4.082-0.049-8.164,0.011-12.245,0.03
		c-1.87-0.019-3.74,0.008-5.605-0.076c-0.946-0.042-1.272,0.224-1.237,1.208c0.066,1.867-0.004,3.738-0.019,5.607
		c-4.132,0.006-8.264,0.043-12.396-0.005c-0.97-0.011-1.258,0.271-1.209,1.226c0.076,1.524-0.023,3.058,0.038,4.583
		c0.032,0.817-0.228,1.063-1.043,1.045c-1.922-0.041-3.847,0.017-5.77,0.035c-1.866-0.018-3.735,0.006-5.599-0.071
		c-0.932-0.039-1.289,0.208-1.254,1.205c0.064,1.864-0.007,3.733-0.021,5.6c-1.866,0.009-3.734,0.077-5.597,0.003
		c-0.997-0.04-1.236,0.312-1.192,1.242c0.071,1.524-0.026,3.055,0.037,4.579c0.034,0.832-0.25,1.062-1.054,1.033
		c-1.581-0.057-3.168,0.025-4.75-0.034c-0.813-0.03-1.079,0.219-1.046,1.041c0.062,1.524-0.036,3.056,0.037,4.579
		c0.046,0.94-0.214,1.273-1.2,1.234c-1.863-0.075-3.732-0.014-5.598-0.009c-1.76-0.006-3.523,0.064-5.276-0.044
		c-1.325-0.082-1.665,0.443-1.6,1.674c0.089,1.697,0.022,3.403,0.022,5.105c-0.566,0.021-1.131,0.065-1.697,0.06
		c-1.639-0.016-3.839,0.58-4.768-0.246c-1.067-0.949-0.379-3.202-0.297-4.87c0.071-1.461-0.386-1.823-1.778-1.728
		c-1.625,0.111-3.844,0.596-4.754-0.234c-1.052-0.959-0.32-3.203-0.293-4.881c0.021-1.25-0.197-1.86-1.624-1.693
		c-1.176,0.139-2.389-0.055-3.571,0.051c-1.283,0.115-1.712-0.233-1.69-1.622c0.088-5.847,0.011-11.696,0.062-17.543
		c0.009-1.027-0.21-1.397-1.298-1.324c-1.526,0.104-3.064-0.01-4.596,0.042c-0.748,0.025-0.983-0.212-0.96-0.96
		c0.051-1.588-0.039-3.182,0.037-4.768c0.043-0.92-0.28-1.13-1.148-1.12c-3.803,0.043-7.608,0.051-11.411-0.004
		c-0.938-0.014-1.147,0.304-1.106,1.163c0.066,1.36-0.094,2.736,0.048,4.084c0.151,1.426-0.441,1.704-1.696,1.612
		c-1.355-0.1-2.725,0.015-4.085-0.038c-0.774-0.03-1.086,0.145-1.082,1.011c0.037,6.132,0.043,12.264-0.004,18.396
		c-0.008,0.993,0.406,1.077,1.203,1.064c1.872-0.029,3.745,0.02,5.617,0.038c0.006,1.748,0.076,3.498-0.004,5.241
		c-0.054,1.171,0.318,1.565,1.518,1.544c4.057-0.074,8.115-0.042,12.174-0.051c1.865,0.008,3.733,0.076,5.594,0.003
		c0.992-0.039,1.241,0.304,1.195,1.237c-0.071,1.523,0.025,3.054-0.036,4.578c-0.033,0.822,0.234,1.069,1.046,1.039
		c1.581-0.059,3.167,0.022,4.748-0.034c0.798-0.029,1.08,0.196,1.056,1.029c-0.055,1.92-0.009,3.844-0.004,5.766
		c0,2.294,0,4.589,0,6.884c-0.005,0.397-0.007,0.794-0.015,1.192c-0.035,1.805,0.61,4.193-0.297,5.254
		c-0.939,1.1-3.405,0.306-5.2,0.303c-0.993-0.001-1.427,0.165-1.343,1.284c0.109,1.467-0.019,2.952,0.043,4.425
		c0.037,0.86-0.182,1.205-1.113,1.154c-1.471-0.08-2.956,0.049-4.425-0.044c-1.048-0.067-1.34,0.235-1.32,1.303
		c0.072,3.688-0.017,7.38,0.056,11.069c0.021,1.067-0.271,1.37-1.32,1.303c-1.469-0.094-2.953,0.035-4.425-0.045
		c-0.931-0.05-1.149,0.294-1.113,1.155c0.063,1.474-0.066,2.958,0.044,4.425c0.083,1.119-0.346,1.344-1.344,1.274
		c-1.187-0.083-2.392,0.072-3.573-0.042c-1.466-0.143-2.025,0.223-1.97,1.865c0.131,3.912,0.02,7.832,0.007,11.748
		c-1.806,0.013-3.613,0.072-5.417,0.019c-0.968-0.028-1.444,0.157-1.381,1.279c0.104,1.857,0.054,3.723,0.069,5.585
		c-0.016,2.776-0.023,5.552-0.048,8.328c-0.015,1.692,0.597,3.969-0.256,4.92c-0.979,1.089-3.302,0.366-5.027,0.306
		c-1.298-0.045-1.566,0.339-1.56,1.589c0.047,8.556,0.006,17.113-0.007,25.669c-1.807,0.012-3.614,0.072-5.418,0.019
		c-0.969-0.028-1.443,0.157-1.381,1.279c0.104,1.857,0.054,3.723,0.069,5.585c-0.015,0.51-0.043,1.02-0.043,1.53
		c-0.002,76.116-0.002,152.233-0.002,228.351c0,0.17,0.021,0.344-0.003,0.511c-0.133,0.908,0.145,1.265,1.165,1.261
		c10.955-0.048,21.909-0.042,32.863-0.051c1.797,0.009,3.597-0.05,5.389,0.05c1.231,0.068,1.535-0.43,1.488-1.563
		c-0.072-1.737-0.008-3.479-0.002-5.221c6.794-0.023,13.588-0.047,20.382-0.07c1.76,0.005,3.524-0.066,5.277,0.042
		c1.327,0.082,1.664-0.444,1.6-1.675c-0.088-1.698-0.019-3.405-0.019-5.107c4.136-0.019,8.273-0.065,12.408-0.035
		c0.934,0.007,1.296-0.208,1.237-1.202c-0.085-1.411,0.047-2.836-0.043-4.248c-0.07-1.085,0.229-1.434,1.374-1.414
		c4.079,0.07,8.16,0.02,12.24,0.016c1.759,0.006,3.522-0.064,5.275,0.044c1.326,0.081,1.666-0.443,1.601-1.674
		c-0.089-1.698-0.023-3.404-0.023-5.106c1.925-0.021,3.85-0.081,5.774-0.045c0.805,0.015,1.086-0.207,1.053-1.038
		c-0.063-1.527,0.038-3.061-0.039-4.588c-0.047-0.951,0.234-1.243,1.209-1.229c3.739,0.057,7.479-0.006,11.217,0.043
		c0.926,0.012,1.302-0.191,1.244-1.194c-0.086-1.468,0.03-2.948-0.041-4.417c-0.045-0.928,0.188-1.304,1.192-1.245
		c1.468,0.087,2.947-0.03,4.417,0.042c0.927,0.044,1.305-0.187,1.246-1.191c-0.086-1.468,0.029-2.947-0.042-4.418
		c-0.044-0.926,0.184-1.306,1.19-1.246c1.468,0.087,2.947-0.029,4.417,0.042c0.925,0.044,1.308-0.182,1.248-1.19
		c-0.087-1.468,0.029-2.947-0.041-4.417c-0.044-0.924,0.18-1.298,1.188-1.248c1.865,0.091,3.737,0.048,5.605,0.062
		c0.028,2.269,0.056,4.538,0.083,6.807c-0.015,1.921-0.071,3.842-0.025,5.762c0.019,0.822-0.241,1.065-1.05,1.036
		c-1.581-0.058-3.166,0.023-4.747-0.033c-0.8-0.028-1.077,0.197-1.056,1.03c0.048,1.919-0.006,3.842-0.02,5.763
		c-1.806,0.013-3.614,0.071-5.417,0.019c-0.969-0.027-1.444,0.156-1.381,1.278c0.104,1.857,0.054,3.724,0.069,5.586
		c-0.016,6.24,0.023,12.48-0.084,18.719c-0.025,1.455,0.388,1.729,1.768,1.724c14.694-0.055,29.389-0.034,44.083-0.034
		c6.979,0,13.957-0.009,20.935,0.012c0.866,0.002,1.438,0.039,1.422-1.19c-0.085-6.409-0.063-12.819-0.078-19.229
		c0.015-1.862-0.034-3.729,0.069-5.586c0.063-1.122-0.414-1.306-1.382-1.278c-1.804,0.053-3.611-0.007-5.417-0.019
		c-0.014-1.918-0.064-3.835-0.021-5.75c0.019-0.81-0.219-1.066-1.037-1.045c-1.916,0.049-3.834,0-5.751-0.008
		c-0.014-1.867-0.085-3.736-0.021-5.601c0.035-0.995-0.323-1.243-1.255-1.204c-1.863,0.077-3.732,0.054-5.6,0.071
		c-2.255-0.034-4.51-0.067-6.766-0.101c-0.01-1.802-0.064-3.604-0.012-5.404c0.028-0.979-0.207-1.436-1.299-1.383
		c-1.854,0.088-3.715,0.045-5.571,0.057c-1.918-0.013-3.835-0.063-5.75-0.019c-0.811,0.019-1.063-0.222-1.043-1.038
		c0.049-1.916,0.001-3.833-0.009-5.751c0.001-2.299,0.001-4.599,0.001-6.898c0.009-1.92,0.059-3.841,0.007-5.759
		c-0.022-0.832,0.257-1.057,1.056-1.028c1.578,0.056,3.163-0.023,4.742,0.033c0.8,0.028,1.077-0.199,1.054-1.03
		c-0.053-1.918-0.007-3.839-0.001-5.759c1.869-0.014,3.741-0.084,5.607-0.019c0.983,0.034,1.25-0.292,1.208-1.237
		c-0.084-1.866-0.057-3.735-0.076-5.605c0.02-1.926,0.078-3.853,0.038-5.778c-0.018-0.815,0.225-1.078,1.046-1.046
		c1.527,0.061,3.063-0.041,4.591,0.038c0.97,0.051,1.23-0.265,1.217-1.222c-0.054-3.741,0.01-7.484-0.044-11.225
		c-0.014-0.958,0.247-1.275,1.218-1.223c1.47,0.08,2.951-0.038,4.42,0.042c0.968,0.052,1.234-0.259,1.22-1.22
		c-0.054-3.741,0.01-7.484-0.044-11.226c-0.013-0.955,0.243-1.279,1.216-1.223c1.413,0.08,2.84-0.055,4.25,0.044
		c1.115,0.078,1.412-0.278,1.398-1.392c-0.054-4.08,0.008-8.162,0.025-12.242c1.74-0.006,3.483-0.069,5.221,0.003
		c1.132,0.047,1.631-0.256,1.562-1.487c-0.099-1.792-0.04-3.593-0.049-5.389c0.018-9.058,0.035-18.112,0.053-27.169
		c1.867-0.014,3.736-0.085,5.601-0.021c0.995,0.035,1.243-0.323,1.204-1.255c-0.077-1.863-0.054-3.732-0.071-5.6
		c0.018-10.836,0.06-21.673,0.021-32.51c-0.005-1.272,0.296-1.598,1.571-1.574c4.025,0.075,8.055-0.004,12.082-0.022
		c1.868,0.019,3.74-0.008,5.605,0.076c0.945,0.042,1.272-0.224,1.237-1.208c-0.066-1.866,0.005-3.738,0.019-5.607
		c4.078-0.006,8.158-0.058,12.235,0.011c1.144,0.02,1.439-0.331,1.372-1.414c-0.09-1.467,0.024-2.947-0.04-4.417
		c-0.037-0.842,0.265-1.056,1.061-1.028c1.585,0.055,3.174-0.029,4.758,0.034c0.84,0.034,1.058-0.262,1.029-1.06
		c-0.056-1.584,0.029-3.174-0.034-4.757c-0.033-0.837,0.258-1.06,1.058-1.031c1.585,0.056,3.174-0.028,4.758,0.035
		c0.835,0.033,1.062-0.254,1.032-1.057c-0.057-1.584,0.028-3.173-0.034-4.757c-0.033-0.833,0.251-1.063,1.056-1.034
		c1.584,0.057,3.173-0.028,4.757,0.034c0.831,0.033,1.053-0.248,1.037-1.053c-0.037-1.924,0.02-3.849,0.038-5.774
		c1.703-0.001,3.41-0.071,5.108,0.018c1.229,0.064,1.757-0.272,1.675-1.6c-0.109-1.753-0.037-3.518-0.043-5.277
		c0.019-2.245,0.037-4.49,0.056-6.734c1.806-0.013,3.614-0.072,5.417-0.02c0.97,0.029,1.444-0.156,1.383-1.278
		c-0.104-1.858-0.055-3.724-0.069-5.585c0.021-4.519,0.042-9.036,0.063-13.555c2.262-0.031,4.522-0.063,6.783-0.097
		C390.329,183.601,392.608,183.601,394.888,183.601z"/>
	<path fill-rule="evenodd" clip-rule="evenodd" fill="#1E1C1D" d="M279.075,415.27c2.256,0.033,4.511,0.066,6.766,0.101
		c0.007,1.74,0.07,3.483-0.003,5.221c-0.046,1.132,0.257,1.631,1.489,1.562c1.791-0.099,3.592-0.041,5.389-0.049
		c1.917,0.008,3.835,0.057,5.751,0.008c0.818-0.021,1.056,0.235,1.037,1.045c-0.043,1.915,0.008,3.832,0.021,5.75
		c-0.014,1.858,0.031,3.721-0.061,5.575c-0.055,1.099,0.404,1.322,1.382,1.294c1.801-0.054,3.605,0.003,5.408,0.014
		c0.015,6.41-0.007,12.82,0.078,19.229c0.017,1.229-0.556,1.192-1.422,1.19c-6.978-0.021-13.956-0.012-20.935-0.012
		c-14.694,0-29.389-0.021-44.083,0.034c-1.379,0.005-1.792-0.269-1.768-1.724c0.107-6.238,0.069-12.479,0.084-18.719
		c1.803-0.011,3.607-0.067,5.408-0.014c0.977,0.028,1.436-0.195,1.382-1.294c-0.092-1.854-0.047-3.717-0.061-5.575
		c0.014-1.921,0.068-3.844,0.02-5.763c-0.021-0.833,0.256-1.059,1.056-1.03c1.581,0.057,3.166-0.024,4.747,0.033
		c0.809,0.029,1.068-0.214,1.05-1.036c-0.045-1.92,0.011-3.841,0.025-5.762c1.871-0.012,3.742-0.061,5.612-0.017
		c0.887,0.021,1.204-0.275,1.172-1.168c-0.058-1.529-0.048-3.063-0.004-4.592c0.023-0.809-0.273-1.102-1.081-1.08
		c-1.926,0.05-3.854,0.037-5.782,0.05c-1.869-0.014-3.741,0.029-5.605-0.062c-1.009-0.05-1.233,0.324-1.188,1.248
		c0.07,1.47-0.046,2.949,0.041,4.417c0.06,1.009-0.323,1.234-1.248,1.19c-1.47-0.071-2.949,0.045-4.417-0.042
		c-1.007-0.06-1.235,0.32-1.19,1.246c0.071,1.471-0.045,2.95,0.042,4.418c0.06,1.005-0.319,1.235-1.246,1.191
		c-1.47-0.072-2.949,0.045-4.417-0.042c-1.004-0.059-1.237,0.317-1.192,1.245c0.071,1.469-0.045,2.949,0.041,4.417
		c0.059,1.003-0.318,1.206-1.244,1.194c-3.738-0.049-7.479,0.014-11.217-0.043c-0.975-0.015-1.256,0.277-1.209,1.229
		c0.076,1.527-0.024,3.061,0.039,4.588c0.034,0.831-0.248,1.053-1.053,1.038c-1.924-0.036-3.849,0.023-5.774,0.045
		c-1.921-0.017-3.845-0.001-5.767-0.066c-0.802-0.028-1.078,0.205-1.058,1.035c0.043,1.921-0.013,3.844-0.029,5.768
		c-4.081,0.004-8.162,0.055-12.24-0.016c-1.144-0.02-1.444,0.329-1.374,1.414c0.091,1.412-0.042,2.837,0.043,4.248
		c0.06,0.994-0.303,1.209-1.237,1.202c-4.135-0.03-8.271,0.017-12.408,0.035c-1.925-0.019-3.852-0.005-5.775-0.072
		c-0.802-0.028-1.082,0.2-1.061,1.034c0.046,1.925-0.009,3.852-0.022,5.778c-6.794,0.023-13.588,0.047-20.382,0.07
		c-1.867-0.018-3.735,0.006-5.6-0.071c-0.932-0.039-1.289,0.209-1.255,1.204c0.065,1.864-0.005,3.733-0.02,5.601
		c-10.955,0.009-21.909,0.003-32.863,0.051c-1.02,0.004-1.298-0.353-1.165-1.261c0.024-0.167,0.003-0.341,0.003-0.511
		c0-76.117,0-152.234,0.002-228.351c0-0.51,0.028-1.02,0.043-1.53c1.803-0.011,3.607-0.067,5.408-0.014
		c0.977,0.029,1.437-0.195,1.382-1.293c-0.092-1.855-0.048-3.717-0.06-5.576c0.013-8.557,0.054-17.113,0.007-25.669
		c-0.007-1.25,0.262-1.634,1.56-1.589c1.726,0.06,4.048,0.783,5.027-0.306c0.853-0.951,0.241-3.228,0.256-4.92
		c0.024-2.775,0.032-5.551,0.048-8.328c1.803-0.011,3.607-0.066,5.408-0.014c0.977,0.029,1.436-0.195,1.381-1.293
		c-0.091-1.855-0.047-3.716-0.06-5.576c0.013-3.917,0.124-7.836-0.007-11.748c-0.056-1.642,0.504-2.007,1.97-1.865
		c1.181,0.115,2.387-0.041,3.573,0.042c0.999,0.07,1.427-0.155,1.344-1.274c-0.11-1.468,0.018-2.952-0.044-4.425
		c-0.036-0.861,0.183-1.205,1.113-1.155c1.472,0.08,2.956-0.049,4.425,0.045c1.048,0.067,1.341-0.235,1.32-1.303
		c-0.072-3.688,0.017-7.38-0.056-11.069c-0.021-1.067,0.272-1.37,1.32-1.303c1.469,0.094,2.954-0.035,4.425,0.044
		c0.932,0.051,1.15-0.294,1.113-1.154c-0.062-1.474,0.066-2.958-0.043-4.425c-0.084-1.12,0.35-1.286,1.343-1.284
		c1.795,0.003,4.261,0.797,5.2-0.303c0.907-1.061,0.262-3.449,0.297-5.254c0.008-0.397,0.01-0.794,0.015-1.192
		c0.451-0.016,0.902-0.021,1.352-0.049c1.782-0.111,4.232,0.777,5.162-0.353c0.894-1.086,0.245-3.443,0.273-5.242
		c0-0.056-0.008-0.114,0-0.169c0.127-0.817-0.224-1.058-1.032-1.042c-1.917,0.041-3.836-0.014-5.755-0.029
		c-0.005-1.922-0.051-3.845,0.004-5.766c0.024-0.833-0.257-1.058-1.056-1.029c-1.581,0.056-3.167-0.025-4.748,0.034
		c-0.812,0.03-1.079-0.217-1.046-1.039c0.062-1.523-0.035-3.055,0.036-4.578c0.045-0.934-0.204-1.276-1.195-1.237
		c-1.861,0.073-3.729,0.005-5.594-0.003c-0.014-1.869-0.062-3.739-0.028-5.606c0.015-0.814-0.114-1.218-1.084-1.202
		c-4.191,0.068-8.383,0.057-12.575,0.075c-1.872-0.018-3.745-0.067-5.617-0.038c-0.797,0.012-1.21-0.072-1.203-1.064
		c0.048-6.132,0.042-12.263,0.004-18.396c-0.005-0.866,0.308-1.041,1.082-1.011c1.361,0.053,2.73-0.063,4.085,0.038
		c1.255,0.092,1.847-0.186,1.696-1.612c-0.142-1.348,0.018-2.724-0.048-4.084c-0.042-0.859,0.168-1.177,1.106-1.163
		c3.803,0.055,7.608,0.047,11.411,0.004c0.869-0.01,1.192,0.2,1.148,1.12c-0.075,1.586,0.015,3.179-0.037,4.768
		c-0.023,0.748,0.212,0.985,0.96,0.96c1.532-0.052,3.07,0.062,4.596-0.042c1.087-0.073,1.307,0.297,1.298,1.324
		c-0.051,5.848,0.026,11.697-0.062,17.543c-0.021,1.389,0.408,1.737,1.69,1.622c1.183-0.106,2.395,0.088,3.571-0.051
		c1.426-0.167,1.645,0.443,1.624,1.693c-0.027,1.678-0.759,3.921,0.293,4.881c0.91,0.83,3.128,0.345,4.754,0.234
		c1.392-0.095,1.849,0.266,1.778,1.728c-0.082,1.667-0.77,3.92,0.297,4.87c0.929,0.826,3.128,0.23,4.768,0.246
		c0.566,0.006,1.131-0.038,1.697-0.06c1.922,0.017,3.846,0.001,5.767,0.067c0.803,0.027,1.077-0.205,1.059-1.035
		c-0.044-1.921,0.012-3.845,0.029-5.768c1.866-0.005,3.734-0.066,5.598,0.009c0.986,0.039,1.246-0.294,1.2-1.234
		c-0.073-1.523,0.024-3.055-0.037-4.579c-0.033-0.821,0.233-1.071,1.046-1.041c1.582,0.059,3.168-0.023,4.75,0.034
		c0.803,0.028,1.088-0.201,1.054-1.033c-0.063-1.524,0.034-3.055-0.037-4.579c-0.044-0.93,0.195-1.281,1.192-1.242
		c1.863,0.074,3.731,0.006,5.597-0.003c1.797,0.009,3.597-0.049,5.389,0.049c1.232,0.069,1.535-0.429,1.488-1.562
		c-0.072-1.737-0.008-3.48-0.003-5.221c1.923-0.018,3.848-0.076,5.77-0.035c0.816,0.018,1.076-0.228,1.043-1.045
		c-0.061-1.526,0.039-3.059-0.038-4.583c-0.048-0.955,0.239-1.237,1.209-1.226c4.132,0.048,8.264,0.011,12.396,0.005
		c1.76,0.006,3.524-0.066,5.278,0.043c1.328,0.082,1.664-0.444,1.6-1.674c-0.088-1.698-0.019-3.405-0.016-5.108
		c4.081-0.019,8.164-0.079,12.245-0.03c1.098,0.013,1.423-0.263,1.412-1.388c-0.02-1.788-0.813-4.252,0.318-5.183
		c1.09-0.898,3.459-0.26,5.266-0.266c7.202-0.024,14.403-0.035,21.605-0.051c1.863,0.016,3.729-0.035,5.589,0.072
		c1.13,0.065,1.3-0.417,1.272-1.381c-0.052-1.805,0.008-3.614,0.021-5.421c11.332,0.003,22.664,0.006,33.997,0.009
		c0.01,1.803,0.066,3.607,0.014,5.408c-0.029,0.977,0.195,1.436,1.293,1.381c1.855-0.091,3.717-0.047,5.576-0.06
		c6.187,0.013,12.375,0.095,18.561-0.007c1.632-0.027,2.015,0.497,1.865,1.967c-0.115,1.124,0.088,2.283-0.051,3.4
		c-0.174,1.39,0.446,1.542,1.618,1.518c3.576-0.071,7.154,0.012,10.729-0.05c1.011-0.017,1.414,0.184,1.334,1.287
		c-0.107,1.469,0.021,2.952-0.045,4.425c-0.039,0.876,0.208,1.189,1.123,1.146c1.586-0.074,3.179,0.015,4.767-0.037
		c0.751-0.024,0.98,0.218,0.957,0.961c-0.05,1.588,0.04,3.182-0.036,4.768c-0.044,0.922,0.281,1.156,1.15,1.118
		c1.473-0.064,2.957,0.063,4.425-0.044c1.111-0.082,1.343,0.331,1.28,1.338c-0.084,1.357,0.073,2.732-0.049,4.083
		c-0.112,1.264,0.384,1.504,1.522,1.444c1.755-0.093,3.519-0.015,5.277-0.009c0.014,1.923,0.067,3.847,0.023,5.768
		c-0.019,0.816,0.231,1.065,1.047,1.047c1.921-0.044,3.845,0.009,5.768,0.023c0.006,1.757,0.12,3.523-0.017,5.27
		c-0.107,1.361,0.409,1.635,1.612,1.523c1.068-0.099,2.165,0.084,3.227-0.045c1.57-0.192,2.142,0.222,2.058,1.949
		c-0.166,3.337,0.042,6.692-0.091,10.032c-0.059,1.495,0.438,1.845,1.792,1.693c1.008-0.113,2.051,0.081,3.056-0.046
		c1.571-0.199,2.098,0.228,2.057,1.947c-0.132,5.611,0.012,11.228-0.09,16.839c-0.026,1.475,0.412,1.835,1.782,1.704
		c1.292-0.123,2.607,0.015,3.91-0.042c0.821-0.036,1.189,0.11,1.185,1.079c-0.055,10.999-0.061,21.998-0.079,32.998
		c-2.261,0.008-4.521,0.016-6.78,0.024c-2.256,0-4.511,0-6.767,0.001c-1.861-0.006-3.723,0.022-5.582-0.032
		c-0.96-0.028-1.295,0.345-1.268,1.286c0.052,1.859,0.024,3.721,0.03,5.582c-0.021,4.519-0.042,9.036-0.063,13.555
		c-1.803,0.01-3.607,0.066-5.409,0.013c-0.976-0.028-1.436,0.195-1.381,1.293c0.092,1.855,0.047,3.717,0.06,5.576
		c-0.019,2.245-0.037,4.49-0.056,6.734c-1.926,0.014-3.854,0.069-5.778,0.022c-0.834-0.021-1.062,0.259-1.033,1.061
		c0.067,1.924,0.053,3.851,0.071,5.776c-0.019,1.925-0.075,3.85-0.038,5.774c0.016,0.805-0.206,1.086-1.037,1.053
		c-1.584-0.062-3.173,0.022-4.757-0.034c-0.805-0.029-1.089,0.201-1.056,1.034c0.063,1.583-0.022,3.173,0.034,4.757
		c0.029,0.803-0.197,1.09-1.032,1.057c-1.584-0.063-3.173,0.021-4.758-0.035c-0.8-0.028-1.091,0.194-1.058,1.031
		c0.063,1.583-0.021,3.173,0.034,4.757c0.028,0.798-0.189,1.093-1.029,1.06c-1.584-0.063-3.173,0.021-4.758-0.034
		c-0.796-0.028-1.098,0.186-1.061,1.028c0.064,1.47-0.05,2.95,0.04,4.417c0.067,1.083-0.229,1.434-1.372,1.414
		c-4.077-0.069-8.157-0.017-12.235-0.011c-1.76-0.006-3.524,0.066-5.277-0.043c-1.328-0.083-1.665,0.443-1.601,1.674
		c0.089,1.699,0.019,3.405,0.017,5.108c-4.027,0.019-8.057,0.098-12.082,0.022c-1.275-0.024-1.576,0.302-1.571,1.574
		c0.038,10.837-0.004,21.674-0.021,32.51c-1.74,0.007-3.483,0.07-5.221-0.002c-1.132-0.047-1.63,0.256-1.562,1.488
		c0.099,1.791,0.04,3.592,0.049,5.389c-0.018,9.057-0.035,18.111-0.053,27.169c-1.867,0.014-3.736,0.085-5.601,0.02
		c-0.995-0.034-1.243,0.322-1.204,1.254c0.078,1.864,0.054,3.733,0.071,5.6c-0.018,4.08-0.079,8.162-0.025,12.242
		c0.014,1.113-0.283,1.47-1.398,1.392c-1.41-0.099-2.837,0.036-4.25-0.044c-0.973-0.057-1.229,0.268-1.216,1.223
		c0.054,3.741-0.01,7.484,0.044,11.226c0.015,0.961-0.252,1.271-1.22,1.22c-1.469-0.08-2.95,0.038-4.42-0.042
		c-0.971-0.053-1.231,0.265-1.218,1.223c0.054,3.74-0.01,7.483,0.044,11.225c0.014,0.957-0.247,1.272-1.217,1.222
		c-1.527-0.079-3.063,0.022-4.591-0.038c-0.821-0.032-1.063,0.23-1.046,1.046c0.04,1.926-0.019,3.853-0.038,5.778
		c-1.703,0.003-3.409,0.072-5.108-0.017c-1.23-0.063-1.757,0.272-1.674,1.601c0.109,1.753,0.037,3.518,0.043,5.277
		c-0.006,1.92-0.052,3.841,0.001,5.759c0.023,0.831-0.254,1.059-1.054,1.03c-1.579-0.057-3.164,0.022-4.742-0.033
		c-0.799-0.028-1.078,0.196-1.056,1.028c0.052,1.918,0.002,3.839-0.007,5.759c-0.451,0.014-0.903,0.016-1.352,0.045
		c-1.78,0.118-4.225-0.785-5.157,0.363c-0.892,1.098-0.247,3.444-0.278,5.241c-0.001,0.057,0.007,0.114-0.001,0.169
		c-0.117,0.809,0.222,1.071,1.035,1.055c1.917-0.039,3.835,0.012,5.752,0.025c0.01,1.918,0.058,3.835,0.009,5.751
		c-0.021,0.816,0.232,1.057,1.043,1.038c1.915-0.045,3.832,0.006,5.75,0.019c0.013,1.807,0.072,3.615,0.021,5.42
		c-0.028,0.965,0.143,1.446,1.272,1.383C275.344,415.234,277.211,415.285,279.075,415.27z M285.875,435.732l0.009,0.008
		c-0.009-1.86-0.066-3.724-0.005-5.582c0.031-0.979-0.316-1.27-1.261-1.23c-1.858,0.074-3.721,0.053-5.581,0.07
		c-6.462-0.018-12.924-0.025-19.386-0.069c-0.819-0.005-1.085,0.274-1.061,1.077c0.048,1.529-0.028,3.063,0.028,4.591
		c0.032,0.868-0.218,1.217-1.138,1.176c-1.528-0.065-3.063,0.013-4.592-0.028c-0.76-0.02-1.145,0.157-1.114,1.023
		c0.055,1.586,0.051,3.176,0,4.762c-0.027,0.828,0.288,1.058,1.083,1.055c10.997-0.038,21.995-0.05,32.992-0.068
		c0.51,0.019,1.021,0.069,1.53,0.049c1.691-0.067,3.959,0.725,4.926-0.276c1.12-1.16,0.204-3.451,0.38-5.238
		c0.108-1.099-0.356-1.348-1.362-1.313C289.511,435.8,287.691,435.74,285.875,435.732z M265.461,81.476
		c-1.793-0.007-3.591,0.051-5.381-0.044c-1.229-0.066-1.541,0.435-1.494,1.567c0.071,1.735,0.011,3.476,0.007,5.213
		c-5.103,0.019-10.205,0.028-15.307,0.06c-1.634,0.01-3.817-0.543-4.757,0.287c-1.087,0.957-0.244,3.194-0.363,4.87
		c-0.004,0.057-0.009,0.114,0,0.169c0.203,1.194-0.292,1.536-1.487,1.51c-3.627-0.077-7.258-0.001-10.886-0.046
		c-0.93-0.011-1.335,0.216-1.274,1.221c0.078,1.3-0.088,2.619,0.047,3.909c0.156,1.489-0.446,1.771-1.808,1.733
		c-3.512-0.095-7.031,0.009-10.545-0.057c-1.07-0.02-1.378,0.32-1.322,1.352c0.08,1.47-0.015,2.949,0.033,4.421
		c0.026,0.804-0.246,1.106-1.065,1.078c-1.472-0.049-2.95,0.043-4.421-0.032c-1.011-0.051-1.447,0.215-1.361,1.31
		c0.094,1.183-0.066,2.388,0.043,3.568c0.137,1.472-0.231,2.149-1.891,1.992c-1.627-0.153-3.283-0.002-4.927,0.016
		c-1.801-0.018-3.605,0.017-5.403-0.071c-1.08-0.053-1.501,0.259-1.452,1.401c0.077,1.798-0.004,3.603-0.019,5.405
		c-1.811,0.008-3.624,0.07-5.433,0.005c-1.007-0.036-1.433,0.215-1.36,1.308c0.093,1.409-0.049,2.833,0.045,4.242
		c0.074,1.1-0.363,1.352-1.364,1.303c-1.469-0.073-2.944,0.016-4.415-0.032c-0.81-0.026-1.096,0.26-1.07,1.07
		c0.048,1.47-0.042,2.946,0.031,4.414c0.05,1.001-0.203,1.438-1.302,1.365c-1.409-0.094-2.833,0.048-4.242-0.045
		c-1.093-0.072-1.344,0.353-1.309,1.36c0.065,1.809,0.003,3.622-0.006,5.433c-1.801,0.015-3.606,0.096-5.404,0.02
		c-1.142-0.049-1.455,0.372-1.402,1.452c0.089,1.798,0.055,3.602,0.072,5.403c-0.018,1.699-0.148,3.406-0.019,5.093
		c0.113,1.484-0.442,1.85-1.812,1.727c-1.292-0.116-2.606,0.026-3.905-0.041c-0.912-0.046-1.178,0.298-1.146,1.172
		c0.057,1.528-0.018,3.06,0.028,4.588c0.023,0.797-0.233,1.116-1.059,1.083c-1.301-0.052-2.613,0.08-3.906-0.038
		c-1.429-0.13-1.969,0.225-1.905,1.813c0.141,3.506,0.003,7.023,0.068,10.534c0.019,1.063-0.308,1.391-1.347,1.325
		c-1.297-0.083-2.612,0.064-3.905-0.043c-1.253-0.104-1.643,0.272-1.62,1.575c0.074,4.02-0.003,8.042-0.021,12.063
		c-1.737,0.004-3.478,0.064-5.213-0.006c-1.132-0.047-1.633,0.265-1.567,1.494c0.095,1.79,0.037,3.587,0.044,5.381
		c-0.016,4.514-0.032,9.028-0.049,13.542c-1.802,0.014-3.607,0.096-5.405,0.019c-1.142-0.049-1.454,0.373-1.401,1.452
		c0.088,1.798,0.054,3.602,0.072,5.403c-0.018,0.624-0.051,1.247-0.051,1.87c-0.002,73.613-0.002,147.226-0.002,220.839
		c0,0.283,0.028,0.57-0.005,0.851c-0.112,0.914,0.176,1.299,1.196,1.289c6.412-0.06,12.825-0.057,19.237-0.075
		c0.453,0.019,0.907,0.066,1.358,0.05c1.747-0.065,4.003,0.718,5.101-0.292c1.121-1.031,0.354-3.323,0.33-5.055
		c-0.018-1.241,0.423-1.5,1.567-1.486c4.651,0.059,9.304,0.045,13.955,0.014c1.575-0.011,3.632,0.672,4.603-0.267
		c1.06-1.026,0.221-3.117,0.351-4.735c0.009-0.113,0.017-0.23-0.001-0.341c-0.205-1.242,0.394-1.497,1.535-1.484
		c4.026,0.046,8.054-0.011,12.081-0.027c1.799,0.017,3.602-0.017,5.397,0.07c1.084,0.054,1.5-0.275,1.453-1.41
		c-0.074-1.796,0.004-3.599,0.018-5.399c2.248-0.027,4.495-0.055,6.743-0.082c1.795,0.014,3.593-0.021,5.384,0.06
		c1.072,0.049,1.51-0.265,1.463-1.405c-0.072-1.792,0.007-3.589,0.021-5.383c1.812-0.009,3.625-0.066,5.435-0.006
		c1.001,0.032,1.442-0.228,1.374-1.315c-0.085-1.354,0.039-2.72-0.039-4.074c-0.061-1.07,0.228-1.554,1.394-1.465
		c1.239,0.095,2.496-0.054,3.734,0.042c1.275,0.099,1.887-0.228,1.729-1.648c-0.125-1.118,0.061-2.271-0.047-3.393
		c-0.131-1.36,0.24-1.938,1.73-1.826c1.687,0.126,3.394-0.002,5.091-0.019c1.8,0.017,3.602-0.017,5.398,0.07
		c1.083,0.053,1.5-0.276,1.453-1.41c-0.073-1.797,0.004-3.6,0.018-5.399c1.872-0.008,3.746-0.054,5.617-0.007
		c0.891,0.021,1.194-0.282,1.172-1.172c-0.047-1.871-0.001-3.744,0.007-5.617c1.8-0.013,3.603-0.091,5.399-0.017
		c1.134,0.046,1.463-0.369,1.411-1.454c-0.088-1.796-0.055-3.598-0.072-5.397c0.018-1.642,0.132-3.29,0.023-4.924
		c-0.095-1.43,0.239-2.104,1.826-1.903c1.115,0.142,2.268-0.046,3.393,0.048c1.212,0.102,1.717-0.208,1.662-1.557
		c-0.068-1.679-0.748-3.902,0.258-4.916c1.087-1.098,3.329-0.351,5.06-0.324c1.24,0.019,1.503-0.423,1.482-1.565
		c-0.063-3.511,0.048-7.024-0.044-10.534c-0.034-1.318,0.401-1.679,1.64-1.574c1.181,0.101,2.388-0.078,3.563,0.048
		c1.42,0.152,1.724-0.454,1.655-1.73c-0.091-1.693-0.008-3.396,0-5.096c1.795-0.015,3.592-0.094,5.383-0.021
		c1.142,0.047,1.454-0.391,1.406-1.463c-0.081-1.792-0.046-3.589-0.06-5.384c0.02-4.086,0.07-8.173,0.038-12.258
		c-0.008-1.026,0.263-1.428,1.336-1.36c1.356,0.085,2.728-0.046,4.084,0.041c1.118,0.071,1.451-0.313,1.438-1.43
		c-0.056-4.825-0.047-9.65-0.01-14.476c0.011-1.457-0.636-3.341,0.291-4.259c0.924-0.914,2.804-0.245,4.264-0.287
		c2.561-0.073,2.24,0.302,2.24-2.29c0.006-71.242,0.005-142.483,0.002-213.725c0-0.681-0.033-1.361-0.052-2.041
		c0.019-1.809-0.028-3.622,0.078-5.426c0.067-1.151-0.365-1.402-1.441-1.396C282.657,81.479,274.06,81.468,265.461,81.476z
		 M360.886,190.497c1.7-0.007,3.402-0.084,5.098,0.001c1.231,0.063,1.75-0.279,1.668-1.6c-0.108-1.75-0.038-3.511-0.046-5.267
		c0.006-1.701-0.064-3.405,0.041-5.1c0.08-1.289-0.252-1.762-1.653-1.725c-3.851,0.104-7.708,0.032-11.562,0.037
		c-11.504,0.016-23.009,0.036-34.513,0.055c-3.966-0.019-7.933,0.03-11.896-0.091c-1.438-0.044-1.762,0.383-1.757,1.782
		c0.054,14.165,0.033,28.33,0.033,42.496c0,5.156,0.035,10.313-0.026,15.467c-0.014,1.196,0.183,1.748,1.547,1.643
		c1.746-0.133,3.51-0.041,5.267-0.047c1.758,0.007,3.52-0.063,5.27,0.046c1.324,0.083,1.663-0.443,1.598-1.672
		c-0.089-1.695-0.02-3.399-0.019-5.1c4.079-0.024,8.161-0.091,12.24-0.045c1.142,0.014,1.465-0.351,1.399-1.441
		c-0.086-1.412,0.023-2.835-0.037-4.25c-0.038-0.884,0.244-1.208,1.149-1.166c1.415,0.065,2.838-0.044,4.25,0.037
		c1.067,0.06,1.541-0.213,1.453-1.385c-0.101-1.353,0.054-2.725-0.046-4.079c-0.086-1.164,0.372-1.451,1.447-1.39
		c1.412,0.082,2.836-0.027,4.25,0.036c0.899,0.041,1.193-0.269,1.156-1.16c-0.063-1.472,0.032-2.95-0.034-4.42
		c-0.042-0.938,0.221-1.326,1.222-1.268c1.355,0.078,2.729-0.081,4.078,0.047c1.349,0.127,1.645-0.414,1.554-1.632
		c-0.101-1.354,0.025-2.722-0.039-4.08c-0.043-0.903,0.277-1.189,1.164-1.154c1.471,0.06,2.949-0.035,4.42,0.034
		c0.956,0.045,1.271-0.255,1.257-1.235c-0.058-4.137-0.04-8.275-0.05-12.414L360.886,190.497z M374.507,129.138
		c-0.024-1.913-0.079-3.827-0.059-5.74c0.009-0.795-0.251-1.1-1.063-1.076c-1.52,0.046-3.044-0.042-4.562,0.031
		c-0.992,0.047-1.244-0.34-1.221-1.268c0.048-1.857-0.01-3.715-0.024-5.574c0.015-1.809-0.029-3.622,0.064-5.428
		c0.061-1.177-0.445-1.436-1.5-1.396c-1.751,0.068-3.506,0.018-5.261,0.018c-0.024-1.757-0.149-3.52-0.043-5.269
		c0.083-1.337-0.412-1.661-1.64-1.565c-1.297,0.101-2.613-0.048-3.912,0.044c-1.094,0.078-1.366-0.357-1.312-1.367
		c0.074-1.357-0.054-2.727,0.04-4.082c0.08-1.149-0.358-1.426-1.445-1.408c-3.63,0.059-7.262-0.016-10.892,0.045
		c-1.061,0.018-1.395-0.309-1.332-1.35c0.081-1.356-0.049-2.727,0.041-4.082c0.074-1.121-0.31-1.45-1.425-1.43
		c-3.63,0.065-7.262-0.01-10.892,0.046c-1.029,0.017-1.42-0.255-1.354-1.329c0.088-1.413-0.026-2.837,0.038-4.252
		c0.044-0.943-0.24-1.288-1.231-1.272c-4.14,0.065-8.28,0.057-12.421,0.075c-1.757-0.019-3.521,0.052-5.269-0.085
		c-1.341-0.105-1.563,0.409-1.562,1.628c0.033,26.205,0.036,52.409-0.006,78.614c-0.002,1.303,0.369,1.583,1.614,1.578
		c13.046-0.045,26.092-0.023,39.137-0.031c4.594-0.002,9.187-0.035,13.78-0.053c6.401,0.019,12.804,0.009,19.205,0.081
		c1.151,0.013,1.262-0.479,1.258-1.416c-0.029-8.613-0.024-17.226-0.029-25.838c0.006-1.756-0.064-3.519,0.046-5.269
		c0.083-1.326-0.444-1.662-1.672-1.598C377.911,129.208,376.207,129.14,374.507,129.138z"/>
	<path fill-rule="evenodd" clip-rule="evenodd" fill="#C7C7C7" d="M129.13,101.947c4.192-0.018,8.384-0.007,12.575-0.075
		c0.971-0.016,1.1,0.388,1.084,1.202c-0.034,1.868,0.014,3.738,0.028,5.606c-4.059,0.008-8.117-0.023-12.174,0.051
		c-1.2,0.021-1.572-0.373-1.518-1.544C129.206,105.445,129.136,103.695,129.13,101.947z"/>
	<path fill-rule="evenodd" clip-rule="evenodd" fill="#545353" d="M204.114,88.32c-0.005,1.741-0.069,3.484,0.003,5.221
		c0.047,1.132-0.256,1.63-1.488,1.562c-1.792-0.099-3.592-0.04-5.389-0.049c0.014-1.867,0.085-3.736,0.021-5.6
		c-0.035-0.996,0.322-1.244,1.254-1.205C200.379,88.327,202.248,88.302,204.114,88.32z"/>
	<path fill-rule="evenodd" clip-rule="evenodd" fill="#EFEFEF" d="M381.231,101.935c-1.923-0.014-3.847-0.067-5.768-0.023
		c-0.815,0.019-1.065-0.231-1.047-1.047c0.044-1.921-0.01-3.845-0.023-5.768c1.864-0.005,3.728,0.023,5.589-0.03
		c0.952-0.027,1.307,0.327,1.28,1.279C381.209,98.208,381.237,100.072,381.231,101.935z"/>
	<path fill-rule="evenodd" clip-rule="evenodd" fill="#EFEFEF" d="M176.878,108.722c-0.017,1.923-0.073,3.847-0.029,5.768
		c0.019,0.83-0.256,1.063-1.059,1.035c-1.921-0.066-3.845-0.05-5.767-0.067c0-1.703,0.067-3.409-0.022-5.105
		c-0.065-1.231,0.275-1.756,1.6-1.674C173.355,108.786,175.118,108.715,176.878,108.722z"/>
	<path fill-rule="evenodd" clip-rule="evenodd" fill="#EFEFEF" d="M156.417,122.299c1.919,0.016,3.838,0.07,5.755,0.029
		c0.809-0.017,1.16,0.225,1.032,1.042c-0.008,0.055,0,0.113,0,0.169c-0.029,1.799,0.62,4.156-0.273,5.242
		c-0.929,1.129-3.38,0.242-5.162,0.353c-0.45,0.028-0.901,0.034-1.352,0.049C156.417,126.888,156.417,124.593,156.417,122.299z"/>
	<path fill-rule="evenodd" clip-rule="evenodd" fill="#818080" d="M129.109,176.805c0.013,1.859-0.031,3.721,0.06,5.576
		c0.055,1.098-0.404,1.322-1.381,1.293c-1.801-0.053-3.605,0.003-5.408,0.014c-0.015-1.862,0.035-3.728-0.069-5.585
		c-0.063-1.123,0.413-1.307,1.381-1.279C125.496,176.877,127.303,176.818,129.109,176.805z"/>
	<path fill-rule="evenodd" clip-rule="evenodd" fill="#302F31" d="M381.267,183.697c-0.006-1.861,0.021-3.722-0.03-5.582
		c-0.027-0.941,0.308-1.314,1.268-1.286c1.859,0.054,3.721,0.026,5.582,0.031c-0.013,2.247-0.024,4.494-0.036,6.74
		C385.789,183.634,383.528,183.666,381.267,183.697z"/>
	<path fill-rule="evenodd" clip-rule="evenodd" fill="#545353" d="M388.05,183.601c0.012-2.246,0.023-4.493,0.036-6.74
		c2.256,0,4.511,0,6.767,0c0.013,2.247,0.023,4.494,0.035,6.74C392.608,183.601,390.329,183.601,388.05,183.601z"/>
	<path fill-rule="evenodd" clip-rule="evenodd" fill="#302F31" d="M394.888,183.601c-0.012-2.246-0.022-4.493-0.035-6.74
		c2.26-0.008,4.52-0.016,6.78-0.024c0.019,1.926,0.005,3.854,0.072,5.779c0.028,0.806-0.206,1.088-1.038,1.057
		C398.742,183.602,396.814,183.619,394.888,183.601z"/>
	<path fill-rule="evenodd" clip-rule="evenodd" fill="#818080" d="M374.474,204.135c-0.013-1.859,0.032-3.721-0.06-5.576
		c-0.055-1.099,0.405-1.322,1.381-1.293c1.802,0.053,3.606-0.003,5.409-0.013c0.015,1.861-0.035,3.727,0.069,5.585
		c0.062,1.123-0.413,1.307-1.383,1.278C378.088,204.063,376.279,204.122,374.474,204.135z"/>
	<path fill-rule="evenodd" clip-rule="evenodd" fill="#EFEFEF" d="M367.678,217.729c-0.019-1.925-0.004-3.853-0.071-5.776
		c-0.028-0.802,0.199-1.081,1.033-1.061c1.925,0.046,3.853-0.009,5.778-0.022c0.006,1.76-0.066,3.524,0.043,5.277
		c0.082,1.327-0.446,1.664-1.675,1.6C371.088,217.658,369.381,217.727,367.678,217.729z"/>
	<path fill-rule="evenodd" clip-rule="evenodd" fill="#818080" d="M115.482,224.5c0.012,1.859-0.032,3.721,0.06,5.576
		c0.054,1.098-0.405,1.322-1.382,1.293c-1.801-0.054-3.605,0.003-5.408,0.014c-0.015-1.862,0.035-3.728-0.069-5.585
		c-0.062-1.123,0.413-1.308,1.381-1.279C111.869,224.572,113.676,224.512,115.482,224.5z"/>
	<path fill-rule="evenodd" clip-rule="evenodd" fill="#302F31" d="M326.734,251.735c0.002-1.703,0.072-3.409-0.017-5.108
		c-0.064-1.23,0.272-1.757,1.601-1.674c1.753,0.109,3.518,0.037,5.277,0.043c-0.014,1.869-0.085,3.741-0.019,5.607
		c0.035,0.984-0.292,1.25-1.237,1.208C330.475,251.727,328.603,251.753,326.734,251.735z"/>
	<path fill-rule="evenodd" clip-rule="evenodd" fill="#A3A2A3" d="M279.085,61.049c-0.013,1.807-0.072,3.616-0.021,5.421
		c0.027,0.964-0.143,1.446-1.272,1.381c-1.859-0.107-3.726-0.057-5.589-0.072c0.01-1.801,0.064-3.604,0.012-5.404
		c-0.029-0.979,0.206-1.435,1.298-1.383C275.367,61.081,277.228,61.037,279.085,61.049z"/>
	<path fill-rule="evenodd" clip-rule="evenodd" fill="#818080" d="M319.965,67.787c-1.859,0.013-3.721-0.031-5.576,0.06
		c-1.098,0.055-1.322-0.405-1.293-1.381c0.053-1.801-0.004-3.605-0.014-5.408c1.861-0.015,3.728,0.035,5.585-0.069
		c1.122-0.063,1.307,0.412,1.278,1.381C319.893,64.174,319.952,65.981,319.965,67.787z"/>
	<path fill-rule="evenodd" clip-rule="evenodd" fill="#302F31" d="M231.357,74.696c-0.002,1.703-0.072,3.41,0.016,5.108
		c0.064,1.23-0.272,1.756-1.6,1.674c-1.753-0.109-3.518-0.037-5.278-0.043c0.014-1.869,0.085-3.741,0.019-5.607
		c-0.035-0.983,0.292-1.25,1.237-1.208C227.618,74.705,229.488,74.677,231.357,74.696z"/>
	<path fill-rule="evenodd" clip-rule="evenodd" fill="#545353" d="M306.326,292.716c-0.009-1.797,0.05-3.598-0.049-5.389
		c-0.068-1.232,0.43-1.535,1.562-1.488c1.737,0.072,3.48,0.009,5.221,0.002c0.018,1.867-0.006,3.736,0.071,5.6
		c0.039,0.932-0.209,1.29-1.204,1.255C310.063,292.631,308.193,292.702,306.326,292.716z"/>
	<path fill-rule="evenodd" clip-rule="evenodd" fill="#C7C7C7" d="M299.54,326.758c-0.018-1.866,0.007-3.735-0.071-5.6
		c-0.039-0.932,0.209-1.288,1.204-1.254c1.864,0.065,3.733-0.006,5.601-0.02c0.009,1.796-0.05,3.597,0.049,5.389
		c0.069,1.231-0.43,1.534-1.562,1.487C303.023,326.688,301.28,326.752,299.54,326.758z"/>
	<path fill-rule="evenodd" clip-rule="evenodd" fill="#302F31" d="M272.25,381.29c-0.006-1.76,0.066-3.524-0.043-5.277
		c-0.083-1.328,0.443-1.664,1.674-1.601c1.699,0.089,3.405,0.02,5.108,0.017c0.02,1.87-0.008,3.739,0.076,5.605
		c0.042,0.945-0.225,1.271-1.208,1.237C275.991,381.206,274.119,381.276,272.25,381.29z"/>
	<path fill-rule="evenodd" clip-rule="evenodd" fill="#C7C7C7" d="M265.392,401.731c-1.917-0.014-3.835-0.064-5.752-0.025
		c-0.813,0.017-1.152-0.246-1.035-1.055c0.008-0.055,0-0.112,0.001-0.169c0.031-1.797-0.613-4.144,0.278-5.241
		c0.933-1.148,3.377-0.245,5.157-0.363c0.448-0.029,0.9-0.031,1.352-0.045C265.393,397.133,265.393,399.433,265.392,401.731z"/>
	<path fill-rule="evenodd" clip-rule="evenodd" fill="#818080" d="M251.753,408.542c1.928-0.013,3.856,0,5.782-0.05
		c0.808-0.021,1.104,0.271,1.081,1.08c-0.044,1.529-0.054,3.063,0.004,4.592c0.032,0.893-0.285,1.188-1.172,1.168
		c-1.87-0.044-3.741,0.005-5.612,0.017C251.81,413.08,251.781,410.811,251.753,408.542z"/>
	<path fill-rule="evenodd" clip-rule="evenodd" fill="#A3A2A3" d="M279.075,415.27c-1.864,0.016-3.731-0.035-5.589,0.072
		c-1.13,0.063-1.301-0.418-1.272-1.383c0.052-1.805-0.008-3.613-0.021-5.42c1.856-0.012,3.717,0.031,5.571-0.057
		c1.092-0.053,1.327,0.403,1.299,1.383C279.011,411.665,279.065,413.468,279.075,415.27z"/>
	<path fill-rule="evenodd" clip-rule="evenodd" fill="#545353" d="M292.716,422.104c-1.797,0.008-3.598-0.05-5.389,0.049
		c-1.232,0.069-1.535-0.43-1.489-1.562c0.073-1.737,0.01-3.48,0.003-5.221c1.867-0.018,3.736,0.006,5.6-0.071
		c0.932-0.039,1.29,0.209,1.255,1.204C292.631,418.367,292.702,420.236,292.716,422.104z"/>
	<path fill-rule="evenodd" clip-rule="evenodd" fill="#818080" d="M244.939,428.906c0.014,1.858-0.032,3.721,0.061,5.575
		c0.054,1.099-0.405,1.322-1.382,1.294c-1.801-0.054-3.605,0.003-5.408,0.014c-0.015-1.862,0.034-3.729-0.069-5.586
		c-0.063-1.122,0.413-1.306,1.381-1.278C241.325,428.978,243.133,428.919,244.939,428.906z"/>
	<path fill-rule="evenodd" clip-rule="evenodd" fill="#818080" d="M306.255,435.789c-1.803-0.011-3.607-0.067-5.408-0.014
		c-0.978,0.028-1.437-0.195-1.382-1.294c0.092-1.854,0.047-3.717,0.061-5.575c1.806,0.012,3.613,0.071,5.417,0.019
		c0.968-0.027,1.444,0.156,1.382,1.278C306.221,432.061,306.27,433.927,306.255,435.789z"/>
	<path fill-rule="evenodd" clip-rule="evenodd" fill="#EFEFEF" d="M204.062,442.557c0.016-1.924,0.072-3.847,0.029-5.768
		c-0.02-0.83,0.256-1.063,1.058-1.035c1.921,0.065,3.845,0.05,5.767,0.066c0,1.702-0.066,3.408,0.023,5.106
		c0.065,1.23-0.275,1.755-1.601,1.674C207.584,442.492,205.821,442.563,204.062,442.557z"/>
	<path fill-rule="evenodd" clip-rule="evenodd" fill="#EFEFEF" d="M169.988,456.181c0.014-1.927,0.069-3.854,0.022-5.778
		c-0.021-0.834,0.259-1.063,1.061-1.034c1.924,0.067,3.851,0.054,5.775,0.072c0,1.702-0.07,3.409,0.019,5.107
		c0.064,1.23-0.272,1.757-1.6,1.675C173.512,456.114,171.748,456.186,169.988,456.181z"/>
	<path fill-rule="evenodd" clip-rule="evenodd" fill="#C7C7C7" d="M142.732,462.984c0.015-1.867,0.085-3.736,0.02-5.601
		c-0.034-0.995,0.323-1.243,1.255-1.204c1.864,0.077,3.733,0.054,5.6,0.071c-0.006,1.741-0.07,3.483,0.002,5.221
		c0.047,1.133-0.257,1.631-1.488,1.563C146.329,462.935,144.529,462.993,142.732,462.984z"/>
	<path fill-rule="evenodd" clip-rule="evenodd" fill="#C7361A" d="M231.336,401.638c-1.698,0.017-3.404,0.145-5.091,0.019
		c-1.49-0.111-1.861,0.466-1.73,1.826c0.108,1.122-0.077,2.274,0.047,3.393c0.158,1.421-0.454,1.747-1.729,1.648
		c-1.238-0.096-2.495,0.053-3.734-0.042c-1.167-0.089-1.455,0.395-1.394,1.465c0.077,1.354-0.047,2.721,0.039,4.074
		c0.068,1.088-0.372,1.348-1.374,1.315c-1.81-0.061-3.623-0.003-5.435,0.006c-1.795-0.013-3.592,0.042-5.382-0.058
		c-1.235-0.068-1.53,0.449-1.486,1.571c0.068,1.736,0.006,3.477,0,5.215c-2.248,0.027-4.496,0.055-6.743,0.082
		c-1.794-0.007-3.591,0.051-5.381-0.045c-1.232-0.065-1.538,0.44-1.492,1.57c0.069,1.734,0.009,3.476,0.005,5.214
		c-4.027,0.017-8.055,0.073-12.081,0.027c-1.141-0.013-1.739,0.242-1.535,1.484c0.019,0.11,0.011,0.228,0.001,0.341
		c-0.13,1.618,0.709,3.709-0.351,4.735c-0.971,0.938-3.028,0.256-4.603,0.267c-4.651,0.031-9.304,0.045-13.955-0.014
		c-1.145-0.014-1.585,0.245-1.567,1.486c0.024,1.731,0.791,4.023-0.33,5.055c-1.098,1.01-3.354,0.227-5.101,0.292
		c-0.452,0.017-0.906-0.031-1.358-0.05c0.008-6.798,0.015-13.597,0.022-20.395c1.853,0.002,3.707-0.033,5.559,0.024
		c0.944,0.029,1.288-0.29,1.263-1.248c-0.047-1.852,0.009-3.705,0.024-5.558c4.522-0.029,9.044-0.059,13.566-0.089
		c1.796,0.016,3.596-0.02,5.389,0.066c1.084,0.053,1.495-0.276,1.449-1.409c-0.072-1.793,0.009-3.592,0.025-5.389
		c4.086-0.006,8.174-0.042,12.261,0.004c1.032,0.013,1.422-0.271,1.356-1.338c-0.083-1.357,0.047-2.729-0.041-4.085
		c-0.072-1.123,0.32-1.454,1.434-1.435c3.576,0.061,7.153-0.036,10.728,0.04c1.228,0.025,1.584-0.384,1.494-1.55
		c-0.091-1.186,0.055-2.389-0.04-3.572c-0.104-1.28,0.233-1.885,1.654-1.734c1.179,0.126,2.388-0.05,3.572,0.048
		c1.227,0.101,1.769-0.229,1.646-1.57c-0.12-1.294,0.029-2.611-0.044-3.913c-0.056-1.013,0.231-1.44,1.321-1.373
		c1.414,0.088,2.839-0.026,4.255,0.038c0.949,0.042,1.319-0.26,1.272-1.245c-0.069-1.473,0.024-2.952-0.031-4.426
		c-0.034-0.889,0.274-1.198,1.168-1.175c1.872,0.047,3.746,0,5.619-0.008c1.863,0.008,3.727-0.019,5.589,0.037
		c0.952,0.027,1.306-0.326,1.278-1.279c-0.055-1.861-0.029-3.726-0.037-5.59c0.008-1.809,0.067-3.62,0.004-5.427
		c-0.035-1.012,0.238-1.438,1.32-1.365c1.295,0.087,2.605-0.056,3.899,0.042c1.223,0.093,1.767-0.229,1.639-1.565
		c-0.118-1.231,0.067-2.494-0.05-3.727c-0.128-1.336,0.416-1.658,1.638-1.565c1.293,0.098,2.605-0.045,3.9,0.042
		c1.082,0.073,1.355-0.354,1.32-1.365c-0.063-1.807-0.003-3.618,0.004-5.427c1.8-0.015,3.602-0.092,5.398-0.019
		c1.135,0.047,1.462-0.371,1.41-1.454c-0.086-1.797-0.053-3.599-0.07-5.398c0.017-1.813,0.085-3.629,0.032-5.442
		c-0.029-1.001,0.226-1.447,1.316-1.375c1.298,0.086,2.614-0.06,3.911,0.043c1.244,0.099,1.673-0.266,1.638-1.581
		c-0.093-3.57,0-7.146-0.051-10.719c-0.015-1.009,0.232-1.444,1.321-1.371c1.299,0.088,2.614-0.06,3.911,0.044
		c1.252,0.101,1.647-0.28,1.631-1.586c-0.072-5.784-0.002-11.571-0.055-17.355c-0.011-1.155,0.259-1.641,1.495-1.546
		c1.353,0.104,2.723-0.023,4.081,0.039c0.941,0.044,1.282-0.247,1.279-1.235c-0.044-13.216-0.052-26.431-0.069-39.646
		c0.018-1.87-0.008-3.741,0.067-5.609c0.041-1-0.37-1.271-1.298-1.233c-1.414,0.057-2.835,0.057-4.25,0
		c-0.927-0.037-1.339,0.233-1.298,1.233c0.076,1.868,0.051,3.739,0.068,5.609c-0.033,2.258-0.065,4.516-0.099,6.773
		c-1.796,0.009-3.593,0.058-5.388,0.01c-0.979-0.026-1.442,0.239-1.396,1.315c0.079,1.85,0.049,3.703,0.063,5.556l-0.058-0.049
		c-1.759,0.002-3.521,0.068-5.276-0.016c-1.193-0.057-1.573,0.352-1.55,1.545c0.065,3.574-0.003,7.15,0.04,10.726
		c0.012,1.006-0.274,1.459-1.347,1.395c-1.188-0.072-2.395,0.096-3.571-0.043c-1.653-0.194-1.988,0.521-1.943,2.018
		c0.099,3.346-0.025,6.697,0.059,10.043c0.033,1.298-0.397,1.708-1.654,1.615c-1.299-0.097-2.611,0.02-3.914-0.034
		c-0.955-0.04-1.323,0.315-1.286,1.278c0.054,1.416-0.025,2.838,0.026,4.255c0.034,0.934-0.274,1.354-1.258,1.306
		c-1.189-0.058-2.391,0.071-3.573-0.034c-1.492-0.134-2.22,0.27-2.022,1.931c0.14,1.175-0.028,2.384,0.043,3.571
		c0.063,1.067-0.379,1.393-1.392,1.349c-1.416-0.062-2.838,0.019-4.255-0.026c-0.882-0.026-1.218,0.316-1.192,1.196
		c0.043,1.474-0.02,2.951,0.02,4.425c0.023,0.86-0.272,1.248-1.175,1.214c-1.247-0.048-2.504,0.078-3.743-0.034
		c-1.449-0.131-2.113,0.276-1.932,1.853c0.13,1.119-0.055,2.274,0.046,3.399c0.119,1.314-0.416,1.645-1.657,1.616
		c-1.63-0.035-3.739-0.717-4.778,0.264c-1.133,1.069-0.365,3.224-0.362,4.896c0.002,1.252-0.339,1.68-1.633,1.65
		c-3.516-0.079-7.036,0.011-10.555-0.039c-1.079-0.015-1.568,0.274-1.485,1.43c0.081,1.129-0.068,2.276,0.038,3.401
		c0.142,1.5-0.281,2.214-1.935,2.021c-1.175-0.139-2.384,0.028-3.57-0.043c-1.064-0.063-1.404,0.371-1.352,1.389
		c0.063,1.244-0.068,2.503,0.038,3.742c0.115,1.351-0.363,1.744-1.715,1.729c-5.731-0.067-11.463,0.003-17.194-0.043
		c-1.161-0.01-1.663,0.301-1.564,1.524c0.09,1.129-0.07,2.278,0.041,3.402c0.145,1.46-0.298,1.982-1.858,1.938
		c-3.912-0.111-7.83-0.029-11.746-0.025c-0.019-0.736-0.052-1.473-0.052-2.21c-0.002-23.659-0.002-47.317-0.002-70.978
		c0-6.808-0.037-13.616,0.031-20.425c0.013-1.362-0.261-1.938-1.746-1.82c-1.691,0.133-3.402,0.024-5.104,0.021
		c0.002-5.563,0.005-11.125,0.006-16.688c0-7.493,0.029-14.986-0.026-22.479c-0.009-1.313,0.316-1.884,1.706-1.737
		c1.01,0.107,2.052-0.077,3.061,0.043c1.617,0.191,2.121-0.358,2.103-2.032c-0.086-7.775,0.002-15.553-0.06-23.329
		c-0.012-1.44,0.282-2.108,1.859-1.931c1.177,0.132,2.385-0.038,3.572,0.044c1.152,0.079,1.463-0.401,1.433-1.484
		c-0.064-2.27-0.054-4.542-0.008-6.812c0.035-1.691-0.702-3.841,0.292-4.95c1.025-1.146,3.217-0.366,4.89-0.362
		c1.256,0.003,1.679-0.345,1.649-1.636c-0.081-3.517,0.005-7.039-0.047-10.557c-0.016-1.075,0.268-1.566,1.427-1.491
		c1.243,0.083,2.505-0.077,3.743,0.043c1.42,0.138,1.714-0.469,1.687-1.755c-0.074-3.46,0.021-6.925-0.048-10.386
		c-0.024-1.215,0.393-1.6,1.566-1.528c1.357,0.082,2.725-0.015,4.085,0.029c0.878,0.028,1.225-0.309,1.197-1.192
		c-0.044-1.418,0.036-2.84-0.026-4.257c-0.044-1.014,0.283-1.455,1.35-1.391c1.188,0.071,2.392-0.072,3.573,0.039
		c1.448,0.136,2.109-0.275,1.932-1.852c-0.131-1.177,0.038-2.386-0.043-3.572c-0.079-1.152,0.4-1.487,1.486-1.43
		c1.358,0.072,2.725-0.025,4.085,0.031c0.968,0.04,1.309-0.343,1.274-1.292c-0.054-1.417,0.025-2.839-0.026-4.256
		c-0.034-0.942,0.292-1.341,1.268-1.301c1.36,0.055,2.727-0.042,4.085,0.03c1.088,0.059,1.558-0.283,1.483-1.432
		c-0.082-1.244,0.053-2.502-0.039-3.744c-0.09-1.233,0.273-1.781,1.599-1.67c1.24,0.104,2.501-0.05,3.743,0.042
		c1.232,0.091,1.586-0.415,1.518-1.572c-0.079-1.358,0.017-2.725-0.028-4.085c-0.03-0.892,0.333-1.21,1.204-1.186
		c1.475,0.042,2.953-0.021,4.427,0.02c0.87,0.024,1.234-0.292,1.204-1.184c-0.045-1.36,0.05-2.728-0.028-4.085
		c-0.067-1.155,0.282-1.669,1.517-1.573c1.185,0.092,2.392-0.074,3.572,0.043c1.479,0.147,1.884-0.473,1.766-1.843
		c-0.102-1.184,0.042-2.387-0.038-3.573c-0.078-1.144,0.386-1.47,1.478-1.439c2.269,0.065,4.541,0.052,6.811,0.007
		c1.692-0.033,3.84,0.701,4.952-0.289c1.15-1.022,0.366-3.215,0.365-4.888c-0.001-1.25,0.333-1.685,1.631-1.654
		c3.46,0.083,6.926-0.019,10.387,0.053c1.226,0.026,1.783-0.268,1.67-1.599c-0.106-1.24,0.049-2.501-0.043-3.743
		c-0.092-1.236,0.424-1.538,1.575-1.518c3.518,0.06,7.039-0.023,10.557,0.046c1.204,0.023,1.592-0.377,1.536-1.559
		c-0.082-1.755-0.021-3.518-0.02-5.278c9.065-0.004,18.132-0.009,27.198-0.014c0.019,0.68,0.052,1.36,0.052,2.041
		c0.003,71.241,0.004,142.483-0.002,213.725c0,2.592,0.32,2.217-2.24,2.29c-1.46,0.042-3.34-0.627-4.264,0.287
		c-0.927,0.918-0.28,2.802-0.291,4.259c-0.037,4.825-0.046,9.65,0.01,14.476c0.013,1.117-0.32,1.501-1.438,1.43
		c-1.356-0.087-2.728,0.044-4.084-0.041c-1.073-0.067-1.344,0.334-1.336,1.36c0.032,4.085-0.019,8.172-0.038,12.258
		c-1.738,0.007-3.479,0.068-5.215,0c-1.123-0.044-1.64,0.25-1.571,1.486c0.1,1.789,0.046,3.587,0.057,5.382
		c-0.008,1.699-0.091,3.402,0,5.096c0.068,1.276-0.235,1.883-1.655,1.73c-1.176-0.126-2.383,0.053-3.563-0.048
		c-1.238-0.104-1.674,0.256-1.64,1.574c0.092,3.51-0.019,7.023,0.044,10.534c0.021,1.143-0.242,1.584-1.482,1.565
		c-1.73-0.026-3.973-0.773-5.06,0.324c-1.006,1.014-0.326,3.237-0.258,4.916c0.056,1.349-0.449,1.658-1.662,1.557
		c-1.125-0.094-2.278,0.094-3.393-0.048c-1.587-0.2-1.921,0.474-1.826,1.903c0.109,1.634-0.005,3.282-0.023,4.924
		c-1.738,0.005-3.478,0.065-5.213-0.005c-1.13-0.046-1.637,0.26-1.57,1.492c0.096,1.789,0.037,3.587,0.045,5.381
		c-0.008,1.873-0.054,3.746-0.007,5.617c0.022,0.89-0.281,1.193-1.172,1.172c-1.871-0.047-3.745-0.001-5.617,0.007
		c-1.794-0.007-3.592,0.051-5.381-0.045c-1.232-0.066-1.539,0.44-1.493,1.57C231.401,398.158,231.341,399.899,231.336,401.638z
		 M231.352,163.109c0,1.871,0.059,3.744-0.023,5.612c-0.047,1.077,0.344,1.38,1.366,1.327c1.414-0.075,2.836,0.034,4.251-0.036
		c0.993-0.05,1.274,0.34,1.235,1.279c-0.062,1.471,0.009,2.947-0.025,4.421c-0.017,0.745,0.144,1.15,1.018,1.144
		c3.855-0.033,7.711-0.031,11.566-0.001c0.826,0.006,1.085-0.311,1.063-1.1c-0.042-1.473,0.054-2.952-0.032-4.421
		c-0.063-1.083,0.352-1.375,1.369-1.323c1.414,0.073,2.834-0.012,4.251,0.029c0.813,0.023,1.243-0.146,1.232-1.105
		c-0.044-3.798-0.042-7.597-0.001-11.395c0.01-0.912-0.322-1.182-1.188-1.152c-1.473,0.052-2.951-0.039-4.421,0.031
		c-0.992,0.047-1.275-0.34-1.235-1.278c0.061-1.472-0.009-2.949,0.025-4.422c0.017-0.745-0.144-1.15-1.019-1.143
		c-3.854,0.033-7.71,0.031-11.566,0c-0.826-0.006-1.084,0.31-1.062,1.1c0.041,1.473-0.055,2.951,0.031,4.42
		c0.063,1.083-0.351,1.378-1.368,1.324c-1.356-0.074-2.726,0.053-4.08-0.04c-1.154-0.079-1.455,0.374-1.407,1.457
		C231.407,159.592,231.351,161.352,231.352,163.109z"/>
	<path fill-rule="evenodd" clip-rule="evenodd" fill="#EC4C37" d="M149.598,422.121c-0.007,6.798-0.014,13.597-0.022,20.395
		c-6.412,0.019-12.825,0.016-19.237,0.075c-1.02,0.01-1.308-0.375-1.196-1.289c0.034-0.28,0.005-0.567,0.005-0.851
		c0-73.613,0-147.227,0.002-220.839c0-0.623,0.033-1.247,0.051-1.87c1.738-0.005,3.479-0.068,5.215,0.002
		c1.132,0.046,1.635-0.261,1.568-1.494c-0.098-1.79-0.041-3.588-0.049-5.383c0.017-4.514,0.033-9.028,0.049-13.542
		c1.859-0.014,3.72-0.078,5.577-0.023c0.982,0.028,1.266-0.333,1.229-1.27c-0.072-1.856-0.052-3.717-0.071-5.576
		c0.019-4.021,0.095-8.043,0.021-12.063c-0.023-1.303,0.366-1.68,1.62-1.575c1.293,0.108,2.608-0.04,3.905,0.043
		c1.039,0.066,1.366-0.262,1.347-1.325c-0.064-3.511,0.073-7.028-0.068-10.534c-0.064-1.587,0.476-1.942,1.905-1.813
		c1.293,0.117,2.605-0.015,3.906,0.038c0.825,0.033,1.082-0.286,1.059-1.083c-0.046-1.528,0.029-3.06-0.028-4.588
		c-0.032-0.874,0.234-1.218,1.146-1.172c1.299,0.067,2.613-0.075,3.905,0.041c1.369,0.123,1.924-0.243,1.812-1.727
		c-0.129-1.688,0.001-3.395,0.019-5.093c1.738-0.006,3.48-0.068,5.215,0.002c1.132,0.046,1.635-0.26,1.568-1.493
		c-0.098-1.79-0.041-3.588-0.049-5.383c0.009-1.811,0.071-3.624,0.006-5.433c-0.035-1.007,0.215-1.433,1.309-1.36
		c1.409,0.093,2.833-0.049,4.242,0.045c1.099,0.073,1.352-0.363,1.302-1.365c-0.072-1.468,0.018-2.944-0.031-4.414
		c-0.026-0.811,0.26-1.097,1.07-1.07c1.47,0.048,2.946-0.042,4.415,0.032c1.001,0.049,1.438-0.203,1.364-1.303
		c-0.094-1.409,0.048-2.833-0.045-4.242c-0.072-1.093,0.353-1.344,1.36-1.308c1.809,0.064,3.622,0.003,5.433-0.005
		c1.795,0.008,3.594-0.049,5.383,0.048c1.232,0.067,1.539-0.436,1.493-1.567c-0.071-1.736-0.008-3.477-0.002-5.216
		c1.644-0.018,3.3-0.169,4.927-0.016c1.66,0.157,2.027-0.52,1.891-1.992c-0.109-1.181,0.051-2.385-0.043-3.568
		c-0.086-1.095,0.35-1.361,1.361-1.31c1.471,0.075,2.949-0.017,4.421,0.032c0.82,0.028,1.092-0.274,1.065-1.078
		c-0.047-1.473,0.047-2.952-0.033-4.421c-0.056-1.032,0.251-1.372,1.322-1.352c3.515,0.066,7.033-0.039,10.545,0.057
		c1.362,0.037,1.964-0.244,1.808-1.733c-0.135-1.291,0.031-2.609-0.047-3.909c-0.061-1.005,0.344-1.232,1.274-1.221
		c3.627,0.044,7.258-0.031,10.886,0.046c1.194,0.026,1.689-0.316,1.487-1.51c-0.009-0.055-0.004-0.113,0-0.169
		c0.119-1.676-0.724-3.913,0.363-4.87c0.94-0.83,3.123-0.276,4.757-0.287c5.102-0.032,10.204-0.041,15.307-0.06
		c2.272,0.017,4.546,0.032,6.818,0.047l0.009,0.009c-0.001,1.76-0.063,3.522,0.02,5.278c0.056,1.182-0.332,1.583-1.536,1.559
		c-3.519-0.069-7.039,0.014-10.557-0.046c-1.15-0.02-1.667,0.282-1.575,1.518c0.092,1.242-0.063,2.503,0.043,3.743
		c0.113,1.331-0.444,1.625-1.67,1.599c-3.461-0.072-6.926,0.03-10.387-0.053c-1.298-0.031-1.632,0.405-1.631,1.654
		c0.001,1.673,0.786,3.865-0.365,4.888c-1.112,0.989-3.26,0.255-4.952,0.289c-2.27,0.045-4.542,0.058-6.811-0.007
		c-1.091-0.031-1.555,0.296-1.478,1.439c0.08,1.187-0.063,2.389,0.038,3.573c0.118,1.37-0.287,1.99-1.766,1.843
		c-1.18-0.117-2.387,0.049-3.572-0.043c-1.235-0.096-1.584,0.418-1.517,1.573c0.079,1.358-0.017,2.725,0.028,4.085
		c0.03,0.892-0.334,1.208-1.204,1.184c-1.475-0.041-2.953,0.021-4.427-0.02c-0.871-0.024-1.234,0.293-1.204,1.186
		c0.045,1.36-0.051,2.728,0.028,4.085c0.068,1.157-0.286,1.663-1.518,1.572c-1.242-0.092-2.503,0.062-3.743-0.042
		c-1.326-0.111-1.689,0.437-1.599,1.67c0.092,1.242-0.043,2.5,0.039,3.744c0.075,1.149-0.395,1.491-1.483,1.432
		c-1.358-0.072-2.726,0.025-4.085-0.03c-0.976-0.04-1.301,0.358-1.268,1.301c0.051,1.417-0.027,2.839,0.026,4.256
		c0.035,0.949-0.306,1.332-1.274,1.292c-1.36-0.056-2.727,0.042-4.085-0.031c-1.085-0.057-1.564,0.278-1.486,1.43
		c0.082,1.186-0.088,2.395,0.043,3.572c0.177,1.577-0.484,1.987-1.932,1.852c-1.181-0.111-2.385,0.033-3.573-0.039
		c-1.067-0.064-1.394,0.377-1.35,1.391c0.062,1.417-0.019,2.839,0.026,4.257c0.028,0.883-0.318,1.22-1.197,1.192
		c-1.361-0.044-2.728,0.053-4.085-0.029c-1.173-0.072-1.59,0.313-1.566,1.528c0.07,3.461-0.025,6.926,0.048,10.386
		c0.027,1.287-0.267,1.894-1.687,1.755c-1.237-0.12-2.5,0.04-3.743-0.043c-1.159-0.076-1.443,0.416-1.427,1.491
		c0.052,3.519-0.034,7.041,0.047,10.557c0.03,1.292-0.393,1.639-1.649,1.636c-1.673-0.004-3.865-0.784-4.89,0.362
		c-0.994,1.109-0.257,3.259-0.292,4.95c-0.046,2.27-0.056,4.542,0.008,6.812c0.031,1.083-0.281,1.563-1.433,1.484
		c-1.187-0.082-2.395,0.088-3.572-0.044c-1.578-0.177-1.871,0.491-1.859,1.931c0.062,7.776-0.026,15.553,0.06,23.329
		c0.019,1.673-0.486,2.223-2.103,2.032c-1.008-0.12-2.05,0.064-3.061-0.043c-1.39-0.147-1.715,0.423-1.706,1.737
		c0.055,7.493,0.027,14.985,0.026,22.479c-0.001,5.563-0.003,11.125-0.006,16.688l0.026,0.034c-1.588-0.008-3.191,0.119-4.761-0.061
		c-1.825-0.209-2.109,0.542-2.107,2.185c0.043,47.54,0.034,95.081,0.035,142.621c0,1.701,0.017,3.403,0.025,5.104
		c-0.008,1.857,0.017,3.716-0.039,5.572c-0.029,0.944,0.313,1.306,1.268,1.278c1.856-0.054,3.715-0.023,5.572-0.027L149.598,422.121
		z"/>
	<path fill-rule="evenodd" clip-rule="evenodd" fill="#379CD3" d="M360.8,163.16c-4.594,0.019-9.187,0.051-13.78,0.053
		c-13.045,0.007-26.091-0.015-39.137,0.031c-1.245,0.004-1.616-0.275-1.614-1.578c0.042-26.205,0.039-52.409,0.006-78.614
		c-0.002-1.219,0.221-1.733,1.562-1.628c1.747,0.138,3.512,0.067,5.269,0.085c0.003,1.531,0.007,3.063,0.009,4.593
		c0.003,2.163,0.002,2.163,2.248,2.164c1.078,0.001,2.158,0.055,3.231-0.015c1.067-0.068,1.396,0.382,1.349,1.393
		c-0.061,1.302,0.054,2.613-0.034,3.911c-0.081,1.2,0.358,1.571,1.548,1.548c3.458-0.065,6.92,0.032,10.378-0.047
		c1.31-0.029,1.791,0.311,1.749,1.702c-0.098,3.286,0.089,6.583-0.074,9.865c-0.091,1.818,0.548,2.288,2.209,2.107
		c1.121-0.122,2.268,0.021,3.399-0.035c0.978-0.049,1.298,0.363,1.264,1.302c-0.051,1.416,0.027,2.836-0.025,4.252
		c-0.036,0.957,0.325,1.324,1.283,1.284c1.302-0.054,2.613,0.06,3.911-0.034c1.251-0.091,1.692,0.311,1.66,1.612
		c-0.084,3.344,0.065,6.695-0.067,10.036c-0.066,1.692,0.516,2.207,2.115,2.022c1.007-0.116,2.048,0.064,3.059-0.043
		c1.385-0.146,1.722,0.417,1.706,1.734c-0.063,5.728-0.001,11.456-0.048,17.184c-0.011,1.16,0.305,1.663,1.527,1.566
		c1.127-0.088,2.275,0.069,3.399-0.041c1.45-0.141,1.989,0.285,1.942,1.852C360.726,155.332,360.802,159.247,360.8,163.16z"/>
	<path fill-rule="evenodd" clip-rule="evenodd" fill="#379CD3" d="M313.087,238.148c-1.757,0.006-3.521-0.086-5.267,0.047
		c-1.364,0.104-1.561-0.447-1.547-1.643c0.062-5.155,0.026-10.312,0.026-15.467c0-14.166,0.021-28.331-0.033-42.496
		c-0.005-1.398,0.318-1.826,1.757-1.782c3.963,0.121,7.93,0.072,11.896,0.091c0.003,1.305-0.005,2.609,0.01,3.913
		c0.038,3.236-0.419,2.827,2.758,2.839c5.331,0.02,10.663,0.049,15.994-0.025c1.364-0.02,1.827,0.399,1.707,1.737
		c-0.1,1.125,0.059,2.273-0.04,3.399c-0.119,1.334,0.34,1.754,1.706,1.738c6.238-0.074,12.478-0.039,18.716-0.043
		c0.01,4.139-0.008,8.277,0.05,12.414c0.014,0.979-0.301,1.28-1.257,1.235c-1.471-0.069-2.949,0.026-4.42-0.034
		c-0.887-0.036-1.207,0.251-1.164,1.154c0.064,1.358-0.062,2.727,0.039,4.08c0.091,1.218-0.205,1.759-1.554,1.632
		c-1.349-0.127-2.723,0.031-4.078-0.047c-1.001-0.058-1.264,0.33-1.222,1.268c0.066,1.471-0.028,2.949,0.034,4.42
		c0.037,0.892-0.257,1.201-1.156,1.16c-1.414-0.063-2.838,0.045-4.25-0.036c-1.075-0.062-1.533,0.226-1.447,1.39
		c0.1,1.354-0.055,2.726,0.046,4.079c0.088,1.172-0.386,1.445-1.453,1.385c-1.412-0.081-2.835,0.028-4.25-0.037
		c-0.905-0.042-1.188,0.282-1.149,1.166c0.061,1.415-0.049,2.838,0.037,4.25c0.065,1.091-0.258,1.455-1.399,1.441
		c-4.079-0.046-8.161,0.021-12.24,0.045c-1.854-0.016-3.71,0.009-5.562-0.063c-0.941-0.037-1.284,0.256-1.256,1.229
		C313.171,234.44,313.104,236.295,313.087,238.148z"/>
	<path fill-rule="evenodd" clip-rule="evenodd" fill="#4187BE" d="M360.8,163.16c0.002-3.914-0.074-7.829,0.043-11.738
		c0.047-1.567-0.492-1.993-1.942-1.852c-1.124,0.109-2.272-0.048-3.399,0.041c-1.223,0.097-1.538-0.406-1.527-1.566
		c0.047-5.728-0.016-11.456,0.048-17.184c0.016-1.316-0.321-1.88-1.706-1.734c-1.011,0.107-2.052-0.073-3.059,0.043
		c-1.6,0.185-2.182-0.33-2.115-2.022c0.133-3.341-0.017-6.692,0.067-10.036c0.032-1.301-0.409-1.703-1.66-1.612
		c-1.298,0.094-2.609-0.021-3.911,0.034c-0.958,0.04-1.319-0.328-1.283-1.284c0.053-1.416-0.025-2.836,0.025-4.252
		c0.034-0.939-0.286-1.351-1.264-1.302c-1.132,0.056-2.278-0.086-3.399,0.035c-1.661,0.181-2.3-0.289-2.209-2.107
		c0.163-3.282-0.023-6.579,0.074-9.865c0.042-1.391-0.439-1.731-1.749-1.702c-3.458,0.079-6.92-0.019-10.378,0.047
		c-1.189,0.023-1.629-0.348-1.548-1.548c0.088-1.298-0.026-2.609,0.034-3.911c0.048-1.011-0.281-1.461-1.349-1.393
		c-1.073,0.07-2.153,0.016-3.231,0.015c-2.246-0.001-2.245-0.001-2.248-2.164c-0.002-1.531-0.006-3.063-0.009-4.593
		c4.141-0.019,8.281-0.01,12.421-0.075c0.991-0.016,1.275,0.33,1.231,1.272c-0.064,1.415,0.05,2.839-0.038,4.252
		c-0.066,1.074,0.324,1.346,1.354,1.329c3.63-0.056,7.262,0.02,10.892-0.046c1.115-0.02,1.499,0.309,1.425,1.43
		c-0.09,1.355,0.04,2.726-0.041,4.082c-0.063,1.041,0.271,1.368,1.332,1.35c3.63-0.062,7.262,0.014,10.892-0.045
		c1.087-0.018,1.525,0.259,1.445,1.408c-0.094,1.355,0.034,2.725-0.04,4.082c-0.055,1.01,0.218,1.445,1.312,1.367
		c1.299-0.092,2.615,0.057,3.912-0.044c1.228-0.096,1.723,0.229,1.64,1.565c-0.106,1.749,0.019,3.512,0.043,5.268
		c-0.014,1.809,0.016,3.619-0.058,5.425c-0.041,1.008,0.256,1.419,1.328,1.378c1.806-0.069,3.617-0.005,5.426,0.003
		c0.015,1.859,0.072,3.717,0.024,5.574c-0.023,0.928,0.229,1.315,1.221,1.268c1.518-0.072,3.042,0.016,4.562-0.031
		c0.812-0.024,1.071,0.28,1.063,1.076c-0.021,1.913,0.034,3.827,0.059,5.74c-0.015,1.852,0.007,3.705-0.063,5.555
		c-0.035,0.939,0.263,1.289,1.233,1.264c1.85-0.051,3.703,0.014,5.556,0.031c0.005,8.612,0,17.226,0.029,25.838
		c0.004,0.937-0.106,1.429-1.258,1.416C373.604,163.169,367.201,163.179,360.8,163.16z"/>
	<path fill-rule="evenodd" clip-rule="evenodd" fill="#4187BE" d="M360.77,190.457c-6.238,0.004-12.478-0.031-18.716,0.043
		c-1.366,0.017-1.825-0.403-1.706-1.738c0.099-1.126-0.06-2.274,0.04-3.399c0.12-1.338-0.343-1.756-1.707-1.737
		c-5.331,0.074-10.663,0.045-15.994,0.025c-3.177-0.012-2.72,0.396-2.758-2.839c-0.015-1.304-0.007-2.608-0.01-3.913
		c11.504-0.019,23.009-0.039,34.513-0.055c3.854-0.005,7.711,0.067,11.562-0.037c1.401-0.037,1.733,0.436,1.653,1.725
		c-0.105,1.694-0.035,3.399-0.041,5.1c-1.798,0.017-3.599,0.102-5.393,0.026c-1.14-0.048-1.453,0.367-1.399,1.447
		c0.089,1.794,0.055,3.595,0.072,5.393L360.77,190.457z"/>
	<path fill-rule="evenodd" clip-rule="evenodd" fill="#379CD3" d="M285.851,442.516c-10.997,0.019-21.995,0.03-32.992,0.068
		c-0.795,0.003-1.109-0.227-1.083-1.055c0.051-1.586,0.055-3.176,0-4.762c-0.031-0.866,0.354-1.043,1.114-1.023
		c1.529,0.041,3.064-0.037,4.592,0.028c0.92,0.041,1.17-0.308,1.138-1.176c-0.057-1.528,0.02-3.062-0.028-4.591
		c-0.024-0.803,0.241-1.082,1.061-1.077c6.462,0.044,12.924,0.052,19.386,0.069c0.003,1.645,0.084,3.294-0.015,4.932
		c-0.083,1.356,0.271,1.968,1.76,1.855c1.693-0.128,3.399-0.039,5.102-0.045l-0.009-0.008
		C285.867,437.993,285.859,440.255,285.851,442.516z"/>
	<path fill-rule="evenodd" clip-rule="evenodd" fill="#EC4C37" d="M292.618,88.254c-9.066,0.004-18.133,0.009-27.198,0.014
		c0,0-0.009-0.009-0.009-0.008c0.017-2.262,0.033-4.523,0.05-6.784c8.599-0.007,17.196,0.003,25.794-0.043
		c1.076-0.006,1.509,0.245,1.441,1.396C292.59,84.632,292.637,86.445,292.618,88.254z"/>
	<path fill-rule="evenodd" clip-rule="evenodd" fill="#545353" d="M367.579,115.511c-1.809-0.008-3.62-0.072-5.426-0.003
		c-1.072,0.041-1.369-0.371-1.328-1.378c0.073-1.806,0.044-3.616,0.058-5.425c1.755,0.001,3.51,0.051,5.261-0.017
		c1.055-0.04,1.561,0.218,1.5,1.396C367.55,111.889,367.594,113.702,367.579,115.511z"/>
	<path fill-rule="evenodd" clip-rule="evenodd" fill="#B94031" d="M197.301,115.574c-0.006,1.739-0.069,3.479,0.002,5.216
		c0.046,1.132-0.261,1.635-1.493,1.567c-1.79-0.098-3.588-0.04-5.383-0.048c0.015-1.802,0.096-3.606,0.019-5.405
		c-0.049-1.142,0.373-1.455,1.452-1.401C193.696,115.59,195.5,115.556,197.301,115.574z"/>
	<path fill-rule="evenodd" clip-rule="evenodd" fill="#302F31" d="M381.233,135.987c-1.853-0.017-3.706-0.082-5.556-0.031
		c-0.971,0.025-1.269-0.324-1.233-1.264c0.069-1.85,0.048-3.703,0.063-5.555c1.7,0.002,3.404,0.071,5.101-0.018
		c1.228-0.064,1.755,0.272,1.672,1.598C381.169,132.468,381.239,134.23,381.233,135.987z"/>
	<path fill-rule="evenodd" clip-rule="evenodd" fill="#B94031" d="M170.002,142.732c0.009,1.795-0.048,3.593,0.049,5.383
		c0.067,1.233-0.436,1.539-1.568,1.493c-1.735-0.07-3.477-0.008-5.215-0.002c-0.018-1.802,0.017-3.605-0.072-5.403
		c-0.053-1.08,0.261-1.501,1.402-1.452C166.396,142.828,168.201,142.747,170.002,142.732z"/>
	<path fill-rule="evenodd" clip-rule="evenodd" fill="#302F31" d="M360.886,190.497c-0.018-1.798,0.017-3.599-0.072-5.393
		c-0.054-1.08,0.26-1.495,1.399-1.447c1.794,0.076,3.595-0.009,5.393-0.026c0.008,1.756-0.063,3.517,0.046,5.267
		c0.082,1.321-0.437,1.662-1.668,1.6C364.288,190.413,362.586,190.489,360.886,190.497z"/>
	<path fill-rule="evenodd" clip-rule="evenodd" fill="#43231E" d="M142.72,190.457c0.019,1.858-0.001,3.719,0.071,5.576
		c0.037,0.937-0.248,1.298-1.229,1.27c-1.857-0.055-3.718,0.009-5.577,0.023c-0.007-1.794,0.051-3.591-0.044-5.381
		c-0.066-1.229,0.435-1.542,1.567-1.494C139.242,190.521,140.982,190.461,142.72,190.457z"/>
	<path fill-rule="evenodd" clip-rule="evenodd" fill="#B94031" d="M135.935,210.868c0.009,1.795-0.048,3.593,0.049,5.383
		c0.067,1.232-0.436,1.54-1.568,1.494c-1.736-0.071-3.477-0.008-5.215-0.002c-0.018-1.801,0.016-3.605-0.072-5.403
		c-0.053-1.079,0.26-1.501,1.401-1.452C132.328,210.963,134.133,210.882,135.935,210.868z"/>
	<path fill-rule="evenodd" clip-rule="evenodd" fill="#302F31" d="M313.087,238.148c0.017-1.854,0.084-3.708,0.031-5.56
		c-0.028-0.973,0.314-1.266,1.256-1.229c1.852,0.073,3.707,0.048,5.562,0.063c-0.001,1.701-0.07,3.405,0.019,5.1
		c0.065,1.229-0.273,1.754-1.598,1.672C316.606,238.085,314.845,238.155,313.087,238.148z"/>
	<path fill-rule="evenodd" clip-rule="evenodd" fill="#873327" d="M272.257,347.206c-0.011-1.795,0.043-3.593-0.057-5.382
		c-0.068-1.236,0.448-1.53,1.571-1.486c1.736,0.068,3.477,0.007,5.215,0c0.014,1.795-0.021,3.592,0.06,5.384
		c0.048,1.072-0.265,1.51-1.406,1.463C275.849,347.112,274.052,347.191,272.257,347.206z"/>
	<path fill-rule="evenodd" clip-rule="evenodd" fill="#A4331F" d="M245.001,388.103c-0.008-1.794,0.051-3.592-0.045-5.381
		c-0.066-1.232,0.44-1.538,1.57-1.492c1.735,0.07,3.475,0.01,5.213,0.005c0.017,1.8-0.017,3.602,0.072,5.397
		c0.052,1.085-0.277,1.5-1.411,1.454C248.604,388.012,246.801,388.09,245.001,388.103z"/>
	<path fill-rule="evenodd" clip-rule="evenodd" fill="#A4331F" d="M231.336,401.638c0.005-1.738,0.065-3.479-0.005-5.214
		c-0.046-1.13,0.26-1.637,1.493-1.57c1.79,0.096,3.587,0.038,5.381,0.045c-0.014,1.8-0.091,3.603-0.018,5.399
		c0.047,1.134-0.369,1.463-1.453,1.41C234.938,401.621,233.136,401.654,231.336,401.638z"/>
	<path fill-rule="evenodd" clip-rule="evenodd" fill="#873327" d="M204.067,422.07c0.006-1.738,0.068-3.479,0-5.215
		c-0.044-1.122,0.25-1.64,1.486-1.571c1.79,0.1,3.587,0.045,5.382,0.058c-0.014,1.794-0.093,3.591-0.021,5.383
		c0.047,1.141-0.391,1.454-1.463,1.405C207.66,422.049,205.862,422.084,204.067,422.07z"/>
	<path fill-rule="evenodd" clip-rule="evenodd" fill="#A4331F" d="M190.456,428.892c0.004-1.738,0.064-3.479-0.005-5.214
		c-0.046-1.13,0.26-1.636,1.492-1.57c1.79,0.096,3.587,0.038,5.381,0.045c-0.014,1.801-0.092,3.604-0.018,5.399
		c0.046,1.135-0.369,1.464-1.453,1.41C194.058,428.875,192.255,428.908,190.456,428.892z"/>
	<path fill-rule="evenodd" clip-rule="evenodd" fill="#43231E" d="M265.461,81.476c-0.017,2.261-0.033,4.522-0.05,6.784
		c-2.272-0.017-4.546-0.032-6.818-0.048c0.004-1.737,0.064-3.478-0.007-5.213c-0.047-1.132,0.265-1.633,1.494-1.567
		C261.87,81.526,263.668,81.468,265.461,81.476z"/>
	<path fill-rule="evenodd" clip-rule="evenodd" fill="#4187BE" d="M285.884,435.74c-1.702,0.006-3.408-0.083-5.102,0.045
		c-1.488,0.112-1.843-0.499-1.76-1.855c0.099-1.638,0.018-3.287,0.015-4.932c1.86-0.018,3.723,0.004,5.581-0.07
		c0.944-0.039,1.292,0.251,1.261,1.23C285.817,432.017,285.875,433.88,285.884,435.74z"/>
	<path fill-rule="evenodd" clip-rule="evenodd" fill="#4187BE" d="M285.851,442.516c0.009-2.261,0.017-4.522,0.024-6.783
		c1.816,0.008,3.636,0.067,5.449,0.005c1.006-0.035,1.471,0.214,1.362,1.313c-0.176,1.787,0.74,4.078-0.38,5.238
		c-0.967,1.001-3.234,0.209-4.926,0.276C286.872,442.585,286.36,442.534,285.851,442.516z"/>
	<path fill-rule="evenodd" clip-rule="evenodd" fill="#EC4C37" d="M156.457,360.82c3.916-0.004,7.833-0.086,11.746,0.025
		c1.56,0.045,2.002-0.478,1.858-1.938c-0.111-1.124,0.049-2.273-0.041-3.402c-0.099-1.224,0.403-1.534,1.564-1.524
		c5.731,0.046,11.463-0.024,17.194,0.043c1.352,0.016,1.83-0.378,1.715-1.729c-0.106-1.239,0.026-2.498-0.038-3.742
		c-0.052-1.018,0.288-1.452,1.352-1.389c1.187,0.071,2.395-0.096,3.57,0.043c1.654,0.193,2.077-0.521,1.935-2.021
		c-0.106-1.125,0.043-2.272-0.038-3.401c-0.083-1.155,0.407-1.444,1.485-1.43c3.519,0.05,7.039-0.04,10.555,0.039
		c1.294,0.029,1.636-0.398,1.633-1.65c-0.003-1.673-0.771-3.827,0.362-4.896c1.039-0.98,3.147-0.299,4.778-0.264
		c1.241,0.028,1.775-0.302,1.657-1.616c-0.102-1.125,0.084-2.28-0.046-3.399c-0.182-1.576,0.483-1.983,1.932-1.853
		c1.238,0.112,2.496-0.014,3.743,0.034c0.903,0.034,1.198-0.354,1.175-1.214c-0.04-1.474,0.023-2.951-0.02-4.425
		c-0.026-0.88,0.311-1.223,1.192-1.196c1.417,0.045,2.839-0.035,4.255,0.026c1.013,0.044,1.456-0.281,1.392-1.349
		c-0.071-1.188,0.097-2.396-0.043-3.571c-0.197-1.661,0.53-2.064,2.022-1.931c1.182,0.105,2.384-0.023,3.573,0.034
		c0.984,0.048,1.292-0.372,1.258-1.306c-0.052-1.417,0.028-2.839-0.026-4.255c-0.037-0.963,0.331-1.318,1.286-1.278
		c1.303,0.054,2.615-0.063,3.914,0.034c1.257,0.093,1.688-0.317,1.654-1.615c-0.083-3.346,0.04-6.697-0.059-10.043
		c-0.044-1.497,0.291-2.212,1.943-2.018c1.176,0.139,2.383-0.029,3.571,0.043c1.073,0.064,1.359-0.389,1.347-1.395
		c-0.043-3.575,0.025-7.151-0.04-10.726c-0.022-1.193,0.357-1.602,1.55-1.545c1.755,0.084,3.518,0.018,5.276,0.016
		c0.004,8.571-0.023,17.143,0.043,25.713c0.01,1.313-0.381,1.673-1.628,1.571c-1.296-0.105-2.613,0.045-3.913-0.045
		c-1.072-0.073-1.339,0.315-1.328,1.347c0.048,4.541,0.025,9.082,0.007,13.623c-0.008,1.751,0.58,4.027-0.291,5.107
		c-0.918,1.141-3.294,0.356-5.025,0.338c-1.204-0.013-1.534,0.34-1.51,1.529c0.076,3.631,0,7.266,0.046,10.896
		c0.012,0.943-0.237,1.32-1.232,1.268c-1.414-0.076-2.839,0.036-4.255-0.038c-1.004-0.052-1.455,0.203-1.366,1.306
		c0.094,1.185-0.067,2.391,0.043,3.572c0.138,1.478-0.24,2.193-1.895,1.983c-1.173-0.148-2.387,0.049-3.571-0.051
		c-1.171-0.098-1.409,0.386-1.392,1.454c0.055,3.518-0.058,7.04,0.048,10.556c0.042,1.401-0.428,1.758-1.723,1.651
		c-1.24-0.104-2.501,0.054-3.742-0.045c-1.165-0.092-1.455,0.378-1.394,1.453c0.08,1.415-0.029,2.84,0.036,4.256
		c0.042,0.906-0.287,1.177-1.169,1.154c-1.871-0.048-3.745,0.001-5.619,0.009c-1.863-0.008-3.727,0.017-5.589-0.039
		c-0.95-0.028-1.309,0.317-1.28,1.273c0.057,1.862,0.028,3.727,0.036,5.59c-0.011,1.76-0.099,3.523-0.006,5.277
		c0.063,1.198-0.311,1.543-1.511,1.518c-3.632-0.075-7.267,0.009-10.9-0.037c-0.963-0.013-1.297,0.274-1.25,1.248
		c0.071,1.472-0.024,2.953,0.034,4.426c0.034,0.876-0.234,1.216-1.148,1.176c-1.473-0.065-2.954,0.031-4.427-0.034
		c-0.938-0.041-1.333,0.222-1.273,1.225c0.078,1.301-0.06,2.617,0.041,3.915c0.099,1.282-0.234,1.771-1.645,1.729
		c-3.517-0.111-7.04,0.017-10.558-0.066c-1.23-0.028-1.571,0.377-1.487,1.543c0.095,1.298-0.028,2.612,0.038,3.914
		c0.05,0.976-0.159,1.402-1.283,1.393c-5.96-0.05-11.922-0.029-17.883,0.009c-0.909,0.006-1.296-0.179-1.292-1.203
		C156.431,387.274,156.439,374.048,156.457,360.82z"/>
	<path fill-rule="evenodd" clip-rule="evenodd" fill="#1E1C1D" d="M217.766,367.647c1.874-0.008,3.748-0.057,5.619-0.009
		c0.882,0.022,1.21-0.248,1.169-1.154c-0.064-1.416,0.044-2.841-0.036-4.256c-0.061-1.075,0.229-1.545,1.394-1.453
		c1.241,0.099,2.502-0.059,3.742,0.045c1.294,0.106,1.765-0.25,1.723-1.651c-0.105-3.516,0.007-7.038-0.048-10.556
		c-0.017-1.068,0.221-1.552,1.392-1.454c1.184,0.1,2.397-0.098,3.571,0.051c1.655,0.21,2.033-0.506,1.895-1.983
		c-0.111-1.182,0.051-2.388-0.043-3.572c-0.088-1.103,0.362-1.357,1.366-1.306c1.416,0.074,2.841-0.038,4.255,0.038
		c0.995,0.053,1.244-0.324,1.232-1.268c-0.046-3.631,0.029-7.266-0.046-10.896c-0.024-1.189,0.306-1.542,1.51-1.529
		c1.731,0.019,4.107,0.803,5.025-0.338c0.871-1.08,0.283-3.356,0.291-5.107c0.019-4.541,0.042-9.082-0.007-13.623
		c-0.012-1.031,0.255-1.42,1.328-1.347c1.299,0.09,2.617-0.061,3.913,0.045c1.247,0.102,1.638-0.258,1.628-1.571
		c-0.066-8.57-0.039-17.142-0.043-25.713l0.058,0.049c1.797-0.015,3.594-0.07,5.389-0.025c0.967,0.023,1.446-0.209,1.396-1.3
		c-0.085-1.849-0.05-3.703-0.065-5.556c0.033-2.258,0.065-4.516,0.099-6.773c2.236,0,4.473,0,6.71,0
		c0.018,13.216,0.025,26.431,0.069,39.646c0.003,0.988-0.338,1.279-1.279,1.235c-1.358-0.063-2.729,0.064-4.081-0.039
		c-1.236-0.095-1.506,0.391-1.495,1.546c0.053,5.784-0.018,11.571,0.055,17.355c0.017,1.306-0.379,1.687-1.631,1.586
		c-1.297-0.104-2.612,0.044-3.911-0.044c-1.089-0.073-1.336,0.362-1.321,1.371c0.051,3.573-0.042,7.148,0.051,10.719
		c0.035,1.315-0.394,1.68-1.638,1.581c-1.296-0.103-2.612,0.043-3.911-0.043c-1.09-0.072-1.346,0.374-1.316,1.375
		c0.053,1.813-0.015,3.629-0.032,5.442c-1.739,0.006-3.479,0.066-5.214-0.004c-1.13-0.046-1.637,0.26-1.57,1.493
		c0.096,1.789,0.038,3.587,0.046,5.382c-0.008,1.809-0.067,3.62-0.004,5.427c0.035,1.012-0.238,1.438-1.32,1.365
		c-1.295-0.087-2.606,0.056-3.9-0.042c-1.223-0.093-1.766,0.229-1.638,1.565c0.117,1.232-0.068,2.495,0.05,3.727
		c0.127,1.337-0.417,1.658-1.639,1.565c-1.293-0.098-2.604,0.045-3.899-0.042c-1.082-0.073-1.355,0.354-1.32,1.365
		c0.063,1.807,0.004,3.618-0.004,5.427c-1.851,0.015-3.703,0.07-5.552,0.024c-0.952-0.024-1.279,0.304-1.256,1.256
		c0.047,1.85-0.01,3.701-0.023,5.552c-1.873,0.008-3.747,0.055-5.619,0.008c-0.894-0.023-1.202,0.286-1.168,1.175
		c0.056,1.474-0.038,2.953,0.031,4.426c0.046,0.985-0.323,1.287-1.272,1.245c-1.417-0.064-2.842,0.05-4.255-0.038
		c-1.089-0.067-1.377,0.36-1.321,1.373c0.073,1.302-0.076,2.619,0.044,3.913c0.124,1.342-0.418,1.671-1.646,1.57
		c-1.184-0.098-2.393,0.078-3.572-0.048c-1.421-0.15-1.758,0.454-1.654,1.734c0.095,1.184-0.051,2.387,0.04,3.572
		c0.09,1.166-0.266,1.575-1.494,1.55c-3.575-0.076-7.152,0.021-10.728-0.04c-1.114-0.02-1.506,0.312-1.434,1.435
		c0.087,1.356-0.043,2.728,0.041,4.085c0.066,1.066-0.324,1.351-1.356,1.338c-4.086-0.046-8.174-0.01-12.261-0.004
		c-1.759-0.007-3.522,0.062-5.275-0.049c-1.329-0.084-1.66,0.447-1.597,1.676c0.087,1.696,0.014,3.402,0.01,5.104
		c-4.522,0.03-9.044,0.06-13.566,0.089c-2.262-0.007-4.523-0.016-6.784-0.022c-0.023-0.737-0.068-1.474-0.068-2.21
		c-0.003-32.189-0.005-64.38-0.001-96.569c0.001-17.031,0.013-34.063,0.019-51.095l-0.026-0.034
		c1.703,0.003,3.413,0.111,5.104-0.021c1.485-0.117,1.759,0.458,1.746,1.82c-0.068,6.809-0.031,13.617-0.031,20.425
		c0,23.66,0,47.318,0.002,70.978c0,0.737,0.034,1.474,0.052,2.21c-0.018,13.228-0.025,26.454-0.075,39.682
		c-0.004,1.024,0.383,1.209,1.292,1.203c5.961-0.038,11.923-0.059,17.883-0.009c1.124,0.01,1.333-0.417,1.283-1.393
		c-0.066-1.302,0.057-2.616-0.038-3.914c-0.084-1.166,0.257-1.571,1.487-1.543c3.518,0.083,7.042-0.045,10.558,0.066
		c1.411,0.043,1.744-0.446,1.645-1.729c-0.101-1.298,0.037-2.614-0.041-3.915c-0.06-1.003,0.335-1.266,1.273-1.225
		c1.473,0.065,2.954-0.031,4.427,0.034c0.914,0.04,1.182-0.3,1.148-1.176c-0.058-1.473,0.037-2.954-0.034-4.426
		c-0.047-0.974,0.288-1.261,1.25-1.248c3.633,0.046,7.268-0.038,10.9,0.037c1.2,0.025,1.574-0.319,1.511-1.518
		c-0.092-1.754-0.005-3.518,0.006-5.277c1.853-0.013,3.706-0.069,5.557-0.019c0.952,0.025,1.278-0.292,1.252-1.248
		C217.692,371.354,217.752,369.5,217.766,367.647z"/>
	<path fill-rule="evenodd" clip-rule="evenodd" fill="#1E1C1D" d="M231.352,163.109c-0.001-1.758,0.056-3.518-0.021-5.272
		c-0.048-1.083,0.253-1.535,1.407-1.457c1.354,0.093,2.724-0.034,4.08,0.04c1.017,0.054,1.431-0.241,1.368-1.324
		c-0.086-1.469,0.009-2.948-0.031-4.42c-0.022-0.79,0.236-1.106,1.062-1.1c3.855,0.03,7.711,0.032,11.566,0
		c0.875-0.007,1.036,0.398,1.019,1.143c-0.034,1.473,0.036,2.95-0.025,4.422c-0.04,0.938,0.243,1.326,1.235,1.278
		c1.471-0.07,2.949,0.021,4.421-0.031c0.866-0.03,1.198,0.24,1.188,1.152c-0.041,3.798-0.043,7.597,0.001,11.395
		c0.011,0.959-0.419,1.128-1.232,1.105c-1.417-0.041-2.837,0.043-4.251-0.029c-1.017-0.052-1.432,0.241-1.369,1.323
		c0.086,1.469-0.009,2.948,0.032,4.421c0.022,0.789-0.237,1.106-1.063,1.1c-3.854-0.03-7.71-0.032-11.566,0.001
		c-0.874,0.007-1.035-0.398-1.018-1.144c0.035-1.474-0.036-2.95,0.025-4.421c0.039-0.939-0.243-1.329-1.235-1.279
		c-1.415,0.07-2.837-0.039-4.251,0.036c-1.021,0.054-1.413-0.25-1.366-1.327C231.41,166.854,231.352,164.98,231.352,163.109z"/>
	<path fill-rule="evenodd" clip-rule="evenodd" fill="#43231E" d="M272.181,265.434c-2.237,0-4.474,0-6.71,0
		c-0.018-1.87,0.008-3.741-0.068-5.609c-0.041-1,0.371-1.271,1.298-1.233c1.415,0.057,2.836,0.057,4.25,0
		c0.928-0.037,1.339,0.233,1.298,1.233C272.173,261.692,272.198,263.563,272.181,265.434z"/>
	<path fill-rule="evenodd" clip-rule="evenodd" fill="#873327" d="M265.372,272.207c0.016,1.853-0.02,3.707,0.065,5.556
		c0.05,1.091-0.43,1.323-1.396,1.3c-1.795-0.045-3.592,0.011-5.389,0.025c-0.015-1.853,0.016-3.706-0.063-5.556
		c-0.047-1.076,0.417-1.342,1.396-1.315C261.779,272.265,263.576,272.216,265.372,272.207z"/>
	<path fill-rule="evenodd" clip-rule="evenodd" fill="#43231E" d="M245.002,354.036c-0.008-1.795,0.05-3.593-0.046-5.382
		c-0.066-1.233,0.44-1.539,1.57-1.493c1.735,0.07,3.475,0.01,5.214,0.004c0.017,1.8-0.017,3.602,0.07,5.398
		c0.052,1.083-0.275,1.501-1.41,1.454C248.604,353.944,246.802,354.021,245.002,354.036z"/>
	<path fill-rule="evenodd" clip-rule="evenodd" fill="#A4331F" d="M224.497,381.226c0.014-1.851,0.07-3.702,0.023-5.552
		c-0.023-0.952,0.304-1.28,1.256-1.256c1.849,0.046,3.701-0.01,5.552-0.024c0.007,1.864-0.019,3.729,0.037,5.59
		c0.028,0.953-0.326,1.307-1.278,1.279C228.224,381.207,226.359,381.233,224.497,381.226z"/>
	<path fill-rule="evenodd" clip-rule="evenodd" fill="#43231E" d="M170.01,415.251c0.004-1.702,0.077-3.408-0.01-5.104
		c-0.063-1.229,0.268-1.76,1.597-1.676c1.753,0.11,3.516,0.042,5.275,0.049c-0.016,1.797-0.097,3.596-0.024,5.389
		c0.046,1.133-0.365,1.462-1.449,1.409C173.605,415.231,171.806,415.267,170.01,415.251z"/>
	<path fill-rule="evenodd" clip-rule="evenodd" fill="#43231E" d="M149.66,415.317c2.261,0.007,4.522,0.016,6.784,0.022
		c-0.015,1.853-0.071,3.706-0.024,5.558c0.024,0.958-0.319,1.277-1.263,1.248c-1.852-0.058-3.706-0.022-5.559-0.024l0.004-0.005
		c-0.026-2.266-0.053-4.532-0.079-6.798L149.66,415.317z"/>
	<path fill-rule="evenodd" clip-rule="evenodd" fill="#873327" d="M149.609,265.443c-0.006,17.032-0.018,34.063-0.019,51.095
		c-0.004,32.189-0.001,64.38,0.001,96.569c0,0.736,0.044,1.473,0.068,2.21c0,0-0.136,0.001-0.136,0.001
		c-2.24-0.009-4.481-0.017-6.722-0.025c-0.008-1.701-0.025-3.403-0.025-5.104c-0.001-47.54,0.008-95.081-0.035-142.621
		c-0.001-1.643,0.283-2.394,2.107-2.185C146.418,265.563,148.021,265.436,149.609,265.443z"/>
	<path fill-rule="evenodd" clip-rule="evenodd" fill="#B94031" d="M142.801,415.293c2.241,0.009,4.482,0.017,6.722,0.025
		c0.025,2.266,0.052,4.532,0.079,6.798c-1.857,0.004-3.716-0.026-5.572,0.027c-0.955,0.027-1.296-0.334-1.268-1.278
		C142.818,419.009,142.793,417.15,142.801,415.293z"/>
	<path fill-rule="evenodd" clip-rule="evenodd" fill="#B94031" d="M217.766,367.647c-0.014,1.853-0.074,3.706-0.024,5.558
		c0.025,0.956-0.3,1.273-1.252,1.248c-1.851-0.051-3.704,0.006-5.557,0.019c-0.008-1.863,0.021-3.728-0.036-5.59
		c-0.029-0.956,0.331-1.302,1.28-1.273C214.039,367.664,215.903,367.64,217.766,367.647z"/>
</g>
</svg>
