<?xml version="1.0" encoding="utf-8"?>
<!-- Generator: Adobe Illustrator 16.0.0, SVG Export Plug-In . SVG Version: 6.00 Build 0)  -->
<!DOCTYPE svg PUBLIC "-//W3C//DTD SVG 1.1//EN" "http://www.w3.org/Graphics/SVG/1.1/DTD/svg11.dtd">
<svg version="1.1" id="Layer_1" xmlns="http://www.w3.org/2000/svg" xmlns:xlink="http://www.w3.org/1999/xlink" x="0px" y="0px"
	 width="512px" height="512px" viewBox="0 0 512 512" enable-background="new 0 0 512 512" xml:space="preserve">
<g>
	<path fill-rule="evenodd" clip-rule="evenodd" fill="#FDFDFD" d="M256.989,513c-83.98,0-167.959-0.023-251.939,0.088
		c-3.312,0.005-4.153-0.508-4.151-4.035C1.015,341.094,1.018,173.135,0.888,5.176C0.885,1.367,1.917,0.918,5.323,0.92
		c167.792,0.092,335.584,0.093,503.376-0.005c3.467-0.003,4.411,0.536,4.408,4.283c-0.124,167.792-0.124,335.584-0.002,503.377
		c0.002,3.916-1.065,4.517-4.678,4.512C424.615,512.975,340.802,513,256.989,513z M351.951,78.012
		c2.992-2.53,6.987-2.451,10.377-4.006c11.475-5.263,14.896-15.513,8.373-26.283c-1.879-3.103-4.233-6.013-6.794-8.589
		c-11.476-11.54-24.554-20.99-39.132-28.165C294.411-3.976,266.51,0.745,242.702,24.722c-17.133,17.253-27.686,38.426-35.679,61.057
		c-0.766,2.169-1.212,4.484-3.08,6.09c-11.218,6.051-20.836,14.24-30.13,22.813c-2.881,2.657-5.012,3.221-7.867-0.015
		c-3.411-3.867-7.088-7.536-10.937-10.97c-3.395-3.029-4.743-6.153-4.042-10.927c1.212-8.247-5.796-16.115-13.357-15.935
		c-9.249,0.222-14.945,6.192-14.612,15.314c0.338,9.265,6.315,14.724,15.8,13.654c4.439-0.501,7.201,0.89,9.788,4.243
		c2.634,3.415,5.688,6.522,8.71,9.616c5.614,5.745,5.659,5.7,0.507,11.902c-21.633,26.045-36.533,55.334-43.388,88.663
		c-4.337,21.088-3.664,42.433-3.838,63.708c-0.325,39.664-0.277,79.334-0.008,118.999c0.117,17.32,0.217,34.627-0.387,51.938
		c-0.229,6.573,0.911,7.615,7.958,7.634c48.411,0.126,91.004-15.443,127.54-47.331c1.502-1.312,2.913-2.843,4.637-3.763
		c4.358-2.327,5.787,1.568,7.741,4.06c2.354,3.001-1.018,3.276-2.309,4.113c-10.118,6.556-15.149,15.96-16.288,27.788
		c-0.822,8.535-0.091,9.436,8.265,8.854c1.493-0.104,2.998-0.056,4.498-0.056c17.167-0.003,34.333-0.009,51.5,0.006
		c2.242,0.002,4.096,0.202,4.358-3.146c1.235-15.78-8.506-31.278-23.575-36.166c-7.012-2.274-12.932-5.55-17.729-11.327
		c-4.919-5.926-5.323-6.114-0.423-12.003c31.408-37.737,46.32-81.368,46.648-130.231c0.049-7.308,0.735-8.059,8.059-9.25
		c1.471-0.239,2.951-0.55,4.356-1.034c29.391-10.134,48.474-29.989,56.506-60.166c3.184-11.96,3.117-12.186,15.563-11.56
		c4.49,0.226,6.048-1.354,6.038-5.539c-0.042-17.456-2.048-34.521-9.578-50.558C384.611,105.314,371.783,88.55,351.951,78.012z"/>
	<path fill-rule="evenodd" clip-rule="evenodd" fill="#201E1F" d="M351.951,78.012c19.832,10.538,32.66,27.303,41.998,47.188
		c7.53,16.037,9.536,33.102,9.578,50.558c0.01,4.186-1.548,5.765-6.038,5.539c-12.445-0.626-12.379-0.4-15.563,11.56
		c-8.032,30.177-27.115,50.032-56.506,60.166c-1.405,0.484-2.886,0.795-4.356,1.034c-7.323,1.191-8.01,1.942-8.059,9.25
		c-0.328,48.863-15.24,92.494-46.648,130.231c-4.9,5.889-4.496,6.077,0.423,12.003c4.797,5.777,10.717,9.053,17.729,11.327
		c15.069,4.888,24.811,20.386,23.575,36.166c-0.263,3.348-2.116,3.147-4.358,3.146c-17.167-0.015-34.333-0.009-51.5-0.006
		c-1.5,0-3.004-0.049-4.498,0.056c-8.356,0.581-9.087-0.319-8.265-8.854c1.139-11.828,6.17-21.232,16.288-27.788
		c1.292-0.837,4.664-1.112,2.309-4.113c-1.954-2.491-3.383-6.387-7.741-4.06c-1.725,0.92-3.135,2.451-4.637,3.763
		c-36.536,31.888-79.129,47.457-127.54,47.331c-7.046-0.019-8.187-1.061-7.958-7.634c0.604-17.311,0.504-34.617,0.387-51.938
		c-0.269-39.665-0.317-79.335,0.008-118.999c0.174-21.275-0.5-42.62,3.838-63.708c6.855-33.329,21.754-62.618,43.388-88.663
		c5.152-6.202,5.107-6.157-0.507-11.902c-3.022-3.094-6.077-6.201-8.71-9.616c-2.587-3.354-5.349-4.744-9.788-4.243
		c-9.485,1.069-15.462-4.39-15.8-13.654c-0.333-9.122,5.364-15.093,14.612-15.314c7.562-0.181,14.57,7.688,13.357,15.935
		c-0.702,4.773,0.647,7.897,4.042,10.927c3.849,3.434,7.526,7.103,10.937,10.97c2.855,3.235,4.986,2.672,7.867,0.015
		c9.293-8.572,18.912-16.762,30.13-22.813c0.479,3.071-0.733,5.813-1.593,8.647c-0.942,3.105-0.453,4.796,3.45,3.469
		c3.565-1.213,7.238-2.227,10.943-2.864c2.397-0.412,4.592-2.74,7.282-1.005c-1.359,0.899-2.672,1.879-4.083,2.688
		c-40.257,23.063-67.851,56.55-82.512,100.567c-7.865,23.614-9.903,47.977-9.718,72.784c0.398,53.46,0.122,106.926,0.123,160.39
		c0,1.332,0.06,2.667-0.008,3.996c-0.132,2.605,1.146,3.712,3.637,3.437c6.086-0.672,12.314-0.494,18.111-2.95
		c3.007,0.826,5.991,0.312,8.872-0.46c53.136-14.234,93.707-44.232,117.97-94.481c11.09-22.968,19.266-46.845,19.367-72.686
		c0.232-59.646,0.165-119.292,0.195-178.938c0.002-2.824-0.234-5.649-0.359-8.475c0.642-2.382-0.349-3.78-2.646-4.391
		c0.183-0.924,0.787-1.3,1.67-1.568c4.948-1.5,9.913-1.352,15.065-1.188C323.784,79.288,337.894,79.398,351.951,78.012z
		 M275.004,428.038c-10.074-0.549-17.229,3.322-20.474,10.956c-1.136,2.673-1.363,4.298,2.483,4.21
		c9.322-0.211,18.65-0.149,27.977-0.198c1.902,1.396,4.11,0.979,6.213,0.954c2.69-0.031,3.428-1.377,2.438-3.902
		C290.721,432.611,283.151,427.69,275.004,428.038z M311.012,176.148c-3.913-0.871-2.969,2.058-2.98,3.981
		c-0.098,17.164-0.146,34.329-0.171,51.494c-0.009,5.428,1.008,6.376,6.103,5.208c23.463-5.38,39.998-18.844,48.354-41.751
		c3.837-4.272,3.788-9.738,4.636-14.943c0.544-3.338-0.823-4.374-4.091-4.333C345.579,176.021,328.289,175.038,311.012,176.148z
		 M308.21,84.007c-0.783,25.262-0.088,50.529-0.303,75.793c-0.028,3.391,1.962,3.198,4.219,3.204
		c9.643,0.025,19.289,0.287,28.926,0.07c6.282-0.141,12.616,0.53,18.854-0.784c4.926,1.225,9.945,0.42,14.917,0.64
		c10.217,0.453,10.516,0.007,9.225-10.003c-4.515-34.992-36.566-66.657-71.661-70.693C310.89,82.062,308.477,80.818,308.21,84.007z"
		/>
	<path fill-rule="evenodd" clip-rule="evenodd" fill="#212222" d="M224.025,100.115c-2.689-1.735-4.884,0.593-7.282,1.005
		c-3.705,0.638-7.378,1.651-10.943,2.864c-3.902,1.327-4.392-0.363-3.45-3.469c0.86-2.834,2.072-5.576,1.593-8.647
		c1.867-1.605,2.313-3.921,3.08-6.09c7.993-22.631,18.546-43.804,35.679-61.057c23.808-23.977,51.709-28.697,82.074-13.753
		c14.578,7.175,27.656,16.625,39.132,28.165c2.561,2.576,4.915,5.486,6.794,8.589c6.522,10.771,3.102,21.021-8.373,26.283
		c-3.39,1.555-7.385,1.476-10.377,4.006c-14.058,1.387-28.167,1.276-42.243,0.828c-5.152-0.164-10.117-0.313-15.065,1.188
		c-0.883,0.269-1.487,0.645-1.67,1.568C269.523,86.032,246.51,92.091,224.025,100.115z M222.406,84.512
		c2.222-0.438,3.346-0.594,4.434-0.886c17.493-4.681,35.005-9.294,52.463-14.104c11.845-3.264,23.467-6.297,36.163-4.774
		c12.018,1.441,24.311,0.925,36.242-1.981c9.226-2.248,10.24-5.25,3.726-12.018c-12.713-13.207-27.357-23.871-44.558-30.434
		c-19.218-7.333-37.028-4.143-52.701,9.195C241.106,44.037,231.056,63.23,222.406,84.512z"/>
	<path fill-rule="evenodd" clip-rule="evenodd" fill="#EEB026" d="M295.619,85.986c0.125,2.825,0.361,5.65,0.359,8.475
		c-0.03,59.646,0.037,119.293-0.195,178.938c-0.102,25.841-8.277,49.718-19.367,72.686c-24.263,50.249-64.833,80.247-117.97,94.481
		c-2.88,0.771-5.865,1.286-8.87,0.46c-0.209-6.501-0.421-13.002-0.632-19.503c5.478-1.397,11.056-2.487,16.417-4.241
		c52.909-17.309,86.336-53.796,103.625-105.929c4.527-13.651,6.74-27.784,7.176-42.184c0.117-3.857-0.691-6.406-5.405-6.41
		c-4.512-0.003-6.907,1.588-7.078,6.274c-0.084,2.317-0.597,4.618-0.915,6.926c-3.521-0.03-4.158,2.938-5.215,5.251
		c-10.462,22.901-26.37,41.46-46.092,56.724c-15.204,11.768-31.66,21.391-50.954,25.025c-0.167-2.644-0.474-5.287-0.478-7.931
		c-0.036-26.226-0.022-52.45-0.022-78.676c0-11.021,0-11.021-10.821-13.477c-0.689-13.936,1.546-27.534,4.854-40.986
		c10.228-41.598,30.593-76.82,65.4-102.718C242.216,102.226,267.585,90.988,295.619,85.986z M260.155,164.589
		c0.07-8.445-4.873-13.693-12.95-13.746c-8.124-0.053-13.362,5.2-13.36,13.396c0.002,8.146,5.338,13.826,13.074,13.915
		C254.863,178.244,260.087,172.891,260.155,164.589z"/>
	<path fill-rule="evenodd" clip-rule="evenodd" fill="#FAF9F9" d="M295.619,85.986c-28.034,5.002-53.403,16.239-76.182,33.187
		c-34.807,25.897-55.172,61.12-65.4,102.718c-3.308,13.452-5.543,27.051-4.854,40.986c-2.136,1.366-2.196,3.492-2.195,5.711
		c0.016,49.255,0.009,98.51,0.024,147.765c0,1.933-0.503,4.12,1.933,5.171c0.211,6.501,0.422,13.002,0.632,19.503
		c-5.798,2.456-12.026,2.278-18.113,2.95c-2.491,0.275-3.77-0.831-3.637-3.437c0.068-1.329,0.008-2.664,0.008-3.996
		c0-53.464,0.275-106.93-0.123-160.39c-0.185-24.808,1.853-49.17,9.718-72.784c14.661-44.018,42.254-77.505,82.512-100.567
		c1.411-0.809,2.724-1.788,4.083-2.688c22.485-8.024,45.499-14.083,68.948-18.52C295.271,82.206,296.261,83.604,295.619,85.986z"/>
	<path fill-rule="evenodd" clip-rule="evenodd" fill="#F1AB46" d="M359.905,162.29c-6.237,1.314-12.571,0.644-18.854,0.784
		c-9.637,0.217-19.283-0.045-28.926-0.07c-2.257-0.006-4.247,0.187-4.219-3.204c0.215-25.264-0.48-50.531,0.303-75.793
		c1.771-0.196,3.232,0.651,4.694,1.436c8.559,4.587,15.808,10.662,22.238,18.013C349.957,120.387,358.739,139.694,359.905,162.29z"
		/>
	<path fill-rule="evenodd" clip-rule="evenodd" fill="#F0AB45" d="M362.316,195.081c-8.355,22.907-24.891,36.371-48.354,41.751
		c-5.095,1.168-6.111,0.22-6.103-5.208c0.025-17.165,0.073-34.33,0.171-51.494c0.012-1.924-0.933-4.853,2.98-3.981
		c0.639,1.295,1.841,1.908,3.089,2.339C330.166,184.037,346.242,189.555,362.316,195.081z"/>
	<path fill-rule="evenodd" clip-rule="evenodd" fill="#E58B2E" d="M359.905,162.29c-1.166-22.596-9.948-41.903-24.763-58.835
		c-6.431-7.351-13.68-13.426-22.238-18.013c-1.462-0.784-2.924-1.632-4.694-1.436c0.267-3.188,2.68-1.945,4.176-1.773
		c35.095,4.036,67.146,35.701,71.661,70.693c1.291,10.01,0.992,10.456-9.225,10.003C369.851,162.71,364.831,163.515,359.905,162.29z
		"/>
	<path fill-rule="evenodd" clip-rule="evenodd" fill="#E48B2E" d="M362.316,195.081c-16.074-5.526-32.15-11.044-48.216-16.594
		c-1.248-0.431-2.45-1.044-3.089-2.339c17.277-1.11,34.567-0.128,51.85-0.344c3.268-0.041,4.635,0.995,4.091,4.333
		C366.104,185.343,366.153,190.809,362.316,195.081z"/>
	<path fill-rule="evenodd" clip-rule="evenodd" fill="#EFAA45" d="M284.989,443.006c-9.326,0.049-18.654-0.013-27.977,0.198
		c-3.846,0.088-3.619-1.537-2.483-4.21c3.246-7.634,10.4-11.505,20.474-10.956C278.606,432.845,284.018,436.445,284.989,443.006z"/>
	<path fill-rule="evenodd" clip-rule="evenodd" fill="#E28A2E" d="M284.989,443.006c-0.972-6.561-6.383-10.161-9.985-14.968
		c8.147-0.348,15.717,4.573,18.636,12.02c0.99,2.525,0.253,3.871-2.438,3.902C289.1,443.984,286.892,444.401,284.989,443.006z"/>
	<path fill-rule="evenodd" clip-rule="evenodd" fill="#EFE892" d="M222.406,84.512c8.649-21.281,18.7-40.475,35.77-55.001
		c15.673-13.338,33.483-16.528,52.701-9.195c17.2,6.563,31.845,17.227,44.558,30.434c6.515,6.768,5.5,9.77-3.726,12.018
		c-11.932,2.906-24.225,3.423-36.242,1.981c-12.696-1.522-24.318,1.511-36.163,4.774c-17.458,4.81-34.97,9.423-52.463,14.104
		C225.752,83.918,224.628,84.073,222.406,84.512z"/>
	<path fill-rule="evenodd" clip-rule="evenodd" fill="#201E1E" d="M148.945,421.523c-2.437-1.051-1.933-3.238-1.933-5.171
		c-0.015-49.255-0.008-98.51-0.024-147.765c-0.001-2.219,0.059-4.345,2.195-5.711c10.821,2.456,10.821,2.456,10.821,13.477
		c0,26.226-0.014,52.45,0.022,78.676c0.003,2.644,0.311,5.287,0.477,7.932c-1.163,12.952-0.248,25.936-0.561,38.902
		c-0.12,4.973,3.329,3.412,5.98,2.384c40.678-15.781,69.748-43.612,86.612-83.924c5.925-14.164,10.107-28.818,10.23-44.363
		c0.318-2.308,0.831-4.608,0.915-6.926c0.171-4.687,2.566-6.277,7.078-6.274c4.714,0.004,5.522,2.553,5.405,6.41
		c-0.436,14.399-2.648,28.532-7.176,42.184c-17.289,52.133-50.716,88.62-103.625,105.929
		C160.001,419.036,154.422,420.126,148.945,421.523z"/>
	<path fill-rule="evenodd" clip-rule="evenodd" fill="#FAF9F9" d="M262.765,275.96c-0.123,15.545-4.305,30.199-10.23,44.363
		c-16.864,40.312-45.934,68.143-86.612,83.924c-2.651,1.028-6.101,2.589-5.98-2.384c0.313-12.967-0.603-25.95,0.561-38.902
		c19.295-3.636,35.751-13.259,50.955-25.026c19.722-15.264,35.63-33.822,46.092-56.724
		C258.606,278.898,259.243,275.93,262.765,275.96z"/>
	<path fill-rule="evenodd" clip-rule="evenodd" fill="#E8BD67" d="M265.694,164.627c-0.097,11.797-7.521,19.405-18.809,19.276
		c-10.993-0.126-18.576-8.197-18.579-19.774c-0.003-11.646,7.442-19.111,18.986-19.036
		C258.77,145.168,265.794,152.625,265.694,164.627z"/>
	<path fill-rule="evenodd" clip-rule="evenodd" fill="#211E1D" d="M260.155,164.589c-0.068,8.302-5.292,13.655-13.236,13.564
		c-7.736-0.089-13.072-5.769-13.074-13.915c-0.002-8.195,5.237-13.448,13.36-13.396
		C255.282,150.896,260.226,156.144,260.155,164.589z"/>
</g>
</svg>
