<?xml version="1.0" encoding="utf-8"?>
<!-- Generator: Adobe Illustrator 16.0.0, SVG Export Plug-In . SVG Version: 6.00 Build 0)  -->
<!DOCTYPE svg PUBLIC "-//W3C//DTD SVG 1.1//EN" "http://www.w3.org/Graphics/SVG/1.1/DTD/svg11.dtd">
<svg version="1.1" id="Layer_1" xmlns="http://www.w3.org/2000/svg" xmlns:xlink="http://www.w3.org/1999/xlink" x="0px" y="0px"
	 width="512px" height="512px" viewBox="0 0 512 512" enable-background="new 0 0 512 512" xml:space="preserve">
<path fill="#F95C38" stroke="#212222" stroke-width="14" stroke-miterlimit="10" d="M315.846,237.86c0,0,45.814-50.289-2.76-54.956
	s-16.365-19.333-56.804-7.333s-62.438,9.333-61.104,34.667c1.334,25.334-44,47.86-14.667,68.93
	c29.333,21.071-3.174,45.578,24.746,45.991s14.437,22.175,14.437,22.175S276.512,243.483,315.846,237.86z"/>
<path fill="#D63E25" d="M205.37,318.667c0,0,21.392-70,54.955-76.667c33.563-6.667,50.478-10.228,51.354-17.447
	c0.875-7.219,14.074-20.006,16.903-14.553s-15.481,22.046-15.481,22.046s-69.825,48.802-86.813,91.948
	C226.289,323.994,210.187,322,205.37,318.667z"/>
</svg>
