<?xml version="1.0" encoding="utf-8"?>
<!-- Generator: Adobe Illustrator 16.0.0, SVG Export Plug-In . SVG Version: 6.00 Build 0)  -->
<!DOCTYPE svg PUBLIC "-//W3C//DTD SVG 1.1//EN" "http://www.w3.org/Graphics/SVG/1.1/DTD/svg11.dtd">
<svg version="1.1" id="Layer_1" xmlns="http://www.w3.org/2000/svg" xmlns:xlink="http://www.w3.org/1999/xlink" x="0px" y="0px"
	 width="512px" height="512px" viewBox="0 0 512 512" enable-background="new 0 0 512 512" xml:space="preserve">
<g>
	<path fill="#FFFFFF" stroke="#000000" stroke-miterlimit="10" d="M257.014,513c-83.979,0-167.958-0.021-251.938,0.085
		c-3.261,0.004-4.18-0.434-4.178-4.009C1.015,341.117,1.017,173.158,0.893,5.199C0.89,1.455,1.83,0.912,5.299,0.914
		C173.091,1.013,340.884,1.012,508.676,0.92c3.403-0.002,4.439,0.443,4.438,4.254c-0.13,167.959-0.127,335.918-0.014,503.877
		c0.003,3.526-0.836,4.042-4.148,4.037C424.972,512.977,340.992,513,257.014,513z M272.777,455.225
		c10.164,0,20.33,0.003,30.494-0.002c1.809-0.001,3.566,0.366,3.672-2.58c0.618-17.766-9.043-32.849-25.389-37.326
		c-6.031-1.652-10.49-4.305-14.242-8.881c-0.844-1.025-1.668-2.113-2.695-2.933c-3.961-3.146-3.785-5.918-0.463-9.834
		c32.728-38.576,47.753-83.573,47.833-133.841c0.006-3.903,1.598-6.3,5.249-6.509c6.314-0.361,11.83-3.308,17.271-5.678
		c18.364-8,31.744-21.559,40.445-39.629c3.771-7.836,6.041-16.197,7.78-24.669c0.521-2.546,1.435-3.281,3.883-3.166
		c3.822,0.18,7.667-0.072,11.493,0.084c2.997,0.123,4.106-1.037,4.159-4.061c0.289-16.634-1.425-32.987-7.961-48.409
		c-10.039-23.688-25.362-42.393-49.22-53.944c-12.065-5.843-24.119-10.162-37.438-10.882c-37.188-2.012-71.211,8.229-103.104,26.689
		c-0.718,0.415-1.407,0.881-2.11,1.321c-10.753,6.744-20.693,14.544-29.987,23.172c-1.914,1.776-3.623,3.576-6.235,0.927
		c-4.672-4.738-9.417-9.404-14.181-14.051c-2.311-2.255-3.327-4.517-2.249-7.97c2.242-7.175-5.72-17.817-12.889-17.221
		c-9.791,0.814-15.646,6.624-14.728,16.159c0.892,9.262,7.519,14.193,17.129,12.541c2.976-0.512,5.174,0.242,6.942,2.622
		c3.388,4.56,7.364,8.593,11.363,12.604c4.739,4.752,4.589,4.628,0.157,9.907c-30.366,36.172-47.201,77.825-47.803,125.096
		c-0.751,58.979-0.167,117.974-0.196,176.961c-0.004,8.156-0.228,16.313-0.337,24.469c-0.045,3.351,1.161,4.985,4.98,5.116
		c23.227,0.794,45.734-3.015,67.604-10.531c23.396-8.043,44.26-20.554,62.79-36.951c1.492-1.321,2.932-2.819,4.661-3.73
		c4.414-2.325,5.693,2.051,7.767,4.184c2.412,2.479-0.377,3.267-1.962,4.255c-12.037,7.507-16.794,18.777-16.832,32.495
		c-0.008,2.892,0.871,4.389,4.355,4.295C252.777,455.05,262.779,455.225,272.777,455.225z"/>
	<path fill="#212222" d="M272.777,455.225c-9.998,0-20-0.175-29.991,0.098c-3.484,0.094-4.363-1.403-4.355-4.295
		c0.038-13.718,4.795-24.988,16.832-32.495c1.584-0.988,4.375-1.776,1.963-4.255c-2.076-2.133-3.354-6.509-7.769-4.184
		c-1.729,0.911-3.169,2.409-4.661,3.73c-18.53,16.397-39.394,28.908-62.79,36.951c-21.87,7.519-44.377,11.325-67.604,10.531
		c-3.819-0.131-5.025-1.768-4.98-5.116c0.109-8.155,0.333-16.313,0.337-24.469c0.029-58.985-0.555-117.98,0.196-176.961
		c0.602-47.271,17.438-88.924,47.803-125.096c4.432-5.279,4.582-5.155-0.157-9.907c-4-4.011-7.976-8.044-11.363-12.604
		c-1.768-2.38-3.967-3.134-6.942-2.622c-9.61,1.652-16.237-3.279-17.129-12.541c-0.918-9.535,4.937-15.345,14.728-16.159
		c7.169-0.597,15.131,10.046,12.889,17.221c-1.079,3.453-0.063,5.715,2.249,7.97c4.763,4.646,9.509,9.313,14.181,14.051
		c2.612,2.649,4.321,0.85,6.235-0.927c9.294-8.628,19.234-16.428,29.987-23.172c0.703-0.44,1.393-0.906,2.11-1.321
		c31.892-18.46,65.917-28.701,103.104-26.689c13.318,0.72,25.373,5.039,37.438,10.882c23.855,11.552,39.183,30.257,49.22,53.944
		c6.536,15.422,8.25,31.775,7.963,48.409c-0.055,3.023-1.164,4.184-4.161,4.061c-3.826-0.156-7.67,0.096-11.493-0.084
		c-2.448-0.115-3.361,0.62-3.883,3.166c-1.739,8.472-4.01,16.833-7.78,24.669c-8.701,18.07-22.081,31.629-40.445,39.629
		c-5.44,2.37-10.956,5.316-17.271,5.678c-3.651,0.209-5.243,2.605-5.249,6.509c-0.08,50.267-15.105,95.265-47.835,133.841
		c-3.32,3.916-3.496,6.688,0.465,9.834c1.025,0.817,1.854,1.905,2.693,2.933c3.752,4.576,8.213,7.229,14.242,8.881
		c16.346,4.479,26.011,19.563,25.391,37.326c-0.104,2.946-1.863,2.579-3.674,2.58C293.107,455.228,282.941,455.225,272.777,455.225z
		 M284.029,442.141c1.912,0.761,3.916,0.633,5.912,0.646c3.479,0.027,4.02-1.305,2.246-4.229c-4.188-6.9-9.375-12.11-18.225-11.683
		c-11.493-0.438-19.043,4.936-21.69,15.264C262.825,442.141,273.428,442.141,284.029,442.141z M361.324,194.08
		c3.813-4.841,3.845-10.741,4.629-16.438c0.322-2.336-0.854-2.766-2.863-2.757c-17.707,0.074-35.418-0.583-53.12,0.326
		c-3.349-1.063-2.923,1.233-2.927,3.237c-0.034,17.825,0.057,35.652-0.24,53.473c-0.07,4.338,1.779,4.666,5.043,3.982
		C335.87,230.872,352.476,217.064,361.324,194.08z M307.269,82.051c-0.119,6.976-0.341,13.951-0.344,20.927
		c-0.009,18.293,0.061,36.586,0.157,54.878c0.01,1.732-1.011,4.192,2.489,4.119c16.448-0.345,32.909,0.566,49.351-0.51
		c5.479,0.107,10.954,0.278,16.434,0.31c8.951,0.052,8.951,0.015,7.727-8.938c-5.008-36.535-36.322-67.329-72.818-71.569
		C309.233,81.147,307.914,80.473,307.269,82.051z M294.581,84.791c0.551-5.132-3.313-3.718-5.713-3.492
		c-24.714,2.321-48.39,8.285-70.088,20.778c-36.584,21.065-63.025,51.002-78.59,90.344c-9.735,24.607-13.587,50.194-13.446,76.632
		c0.294,55.303,0.089,110.606,0.09,165.909c0,1.499,0.071,3,0.017,4.496c-0.088,2.395,0.628,3.615,3.403,3.384
		c6.112-0.511,12.243-0.765,18.146-2.66c4.884,0.745,9.356-0.795,13.973-2.137c54.138-15.741,93.63-48.363,116.359-100.46
		c8.916-20.435,15.615-41.696,15.85-63.97c0.643-61.106,0.209-122.224,0.189-183.337C294.77,88.449,294.646,86.62,294.581,84.791z"
		/>
	<path fill="#D6C8BE" d="M294.581,84.791c0.065,1.829,0.188,3.658,0.188,5.487c0.02,61.113,0.453,122.23-0.189,183.337
		c-0.232,22.273-6.934,43.535-15.85,63.97c-22.729,52.097-62.223,84.719-116.359,100.46c-4.616,1.342-9.088,2.882-13.973,2.137
		c-0.195-6.558-0.391-13.113-0.585-19.674c1.434-0.398,2.849-0.888,4.303-1.188c70.158-14.637,120.09-79.384,122.916-150.63
		c0.237-5.992-0.892-6.967-6.755-6.782c-3.229,0.101-4.936,1.616-5.326,4.741c-0.354,2.806-0.684,5.611-1.021,8.416
		c-3.039-0.207-3.807,2.24-4.812,4.262c-1.996,4.013-3.474,8.333-5.837,12.104c-17.625,28.131-40.701,50.305-71.227,64.104
		c-6.646,3.004-13.417,5.82-20.785,6.668c-0.129-1.99-0.37-3.979-0.371-5.971c-0.017-28.164,0.018-56.326-0.003-84.486
		c-0.006-8.241-0.069-8.229-7.949-9.053c-0.983-0.103-1.943-0.436-2.914-0.66c-0.525-12.735,1.12-25.259,3.975-37.62
		c14.667-63.513,51.515-108.027,112.792-131.672C274.471,89.006,284.574,87.14,294.581,84.791z M259.125,163.441
		c0.009-8.155-5.288-13.609-13.179-13.567c-7.594,0.04-12.976,5.502-13.061,13.257c-0.086,7.857,5.547,13.896,13.044,13.98
		C253.649,177.199,259.116,171.537,259.125,163.441z"/>
	<path fill="#EADFD8" d="M147.813,420.508c0.195,6.561,0.39,13.116,0.585,19.674c-5.902,1.896-12.034,2.149-18.146,2.66
		c-2.774,0.231-3.491-0.989-3.403-3.384c0.055-1.496-0.017-2.997-0.017-4.496c-0.001-55.303,0.204-110.606-0.09-165.909
		c-0.141-26.438,3.711-52.024,13.446-76.632c15.565-39.342,42.006-69.278,78.59-90.344c21.699-12.493,45.375-18.457,70.088-20.778
		c2.399-0.226,6.264-1.64,5.713,3.492c-10.007,2.349-20.11,4.215-29.782,7.946c-61.277,23.645-98.125,68.159-112.792,131.672
		c-2.854,12.361-4.5,24.885-3.975,37.62c-1.982,1.516-1.949,3.656-1.947,5.867c0.044,49.248,0.061,98.498,0.088,147.744
		C146.174,417.438,145.793,419.384,147.813,420.508z"/>
	<path fill="#DEDAB2" d="M358.922,161.465c-16.439,1.076-32.902,0.165-49.351,0.51c-3.5,0.073-2.479-2.387-2.489-4.119
		c-0.099-18.292-0.166-36.585-0.157-54.878c0.003-6.976,0.225-13.951,0.344-20.927c1.956,0.886,3.999,1.62,5.854,2.684
		c11.271,6.469,20.35,15.413,27.845,25.869C351.836,125.768,358.372,142.593,358.922,161.465z"/>
	<path fill="#DEDAB2" d="M361.324,194.08c-8.851,22.984-25.454,36.792-49.479,41.823c-3.264,0.684-5.113,0.355-5.043-3.982
		c0.297-17.82,0.206-35.647,0.24-53.473c0.004-2.004-0.422-4.301,2.928-3.237c0.612,0.532,1.141,1.312,1.852,1.562
		C328.31,182.576,344.819,188.323,361.324,194.08z"/>
	<path fill="#BAB383" d="M358.922,161.465c-0.55-18.872-7.086-35.697-17.956-50.861c-7.495-10.456-16.574-19.4-27.845-25.869
		c-1.854-1.063-3.896-1.798-5.854-2.684c0.646-1.578,1.967-0.903,2.993-0.784c36.496,4.24,67.813,35.034,72.818,71.569
		c1.227,8.953,1.227,8.99-7.729,8.938C369.876,161.743,364.399,161.572,358.922,161.465z"/>
	<path fill="#BAB383" d="M361.324,194.08c-16.505-5.757-33.017-11.504-49.504-17.308c-0.711-0.25-1.237-1.029-1.852-1.562
		c17.701-0.909,35.412-0.252,53.119-0.326c2.01-0.009,3.188,0.421,2.863,2.757C365.169,183.339,365.14,189.239,361.324,194.08z"/>
	<path fill="#3D3D39" d="M284.029,442.141c-10.604,0-21.204,0-31.754,0c2.647-10.328,10.198-15.699,21.691-15.264
		c1.284,1.48,2.54,2.987,3.857,4.438C280.688,434.472,283.822,437.464,284.029,442.141z"/>
	<path fill="#191915" d="M284.029,442.141c-0.207-4.677-3.342-7.669-6.206-10.824c-1.317-1.45-2.573-2.957-3.857-4.438
		c8.849-0.43,14.033,4.78,18.222,11.683c1.773,2.925,1.234,4.257-2.246,4.229C287.945,442.771,285.941,442.899,284.029,442.141z"/>
	<path fill="#212222" d="M147.813,420.508c-2.02-1.124-1.639-3.067-1.64-4.865c-0.027-49.248-0.044-98.496-0.088-147.746
		c-0.002-2.211-0.035-4.352,1.947-5.867c0.971,0.229,1.93,0.562,2.914,0.662c7.88,0.822,7.943,0.812,7.949,9.053
		c0.021,28.16-0.013,56.322,0.003,84.486c0.001,1.988,0.242,3.979,0.371,5.971c-0.09,12.641-0.051,25.283-0.338,37.922
		c-0.103,4.543,1.98,4.729,5.183,3.336c6.517-2.838,13.188-5.42,19.418-8.805c27.758-15.068,48.95-36.602,63.087-64.973
		c8.592-17.242,14.225-35.283,15.311-54.617c0.34-2.805,0.67-5.61,1.021-8.416c0.393-3.125,2.1-4.643,5.326-4.741
		c5.863-0.185,6.992,0.79,6.755,6.782c-2.826,71.246-52.758,135.993-122.916,150.63C150.662,419.62,149.247,420.107,147.813,420.508
		z"/>
	<path fill="#BAF4F2" d="M261.93,275.064c-1.086,19.332-6.718,37.373-15.311,54.617c-14.137,28.369-35.329,49.9-63.087,64.973
		c-6.23,3.383-12.901,5.965-19.418,8.803c-3.203,1.396-5.286,1.207-5.183-3.336c0.287-12.637,0.248-25.281,0.338-37.922
		c7.369-0.848,14.139-3.664,20.785-6.668c30.526-13.797,53.602-35.971,71.227-64.102c2.363-3.772,3.841-8.095,5.837-12.105
		C258.123,277.305,258.891,274.857,261.93,275.064z"/>
	<path fill="#212222" d="M259.125,163.441c-0.009,8.096-5.476,13.758-13.195,13.67c-7.498-0.085-13.13-6.123-13.044-13.98
		c0.085-7.755,5.467-13.217,13.061-13.257C253.837,149.832,259.134,155.286,259.125,163.441z"/>
</g>
<path fill="#AAD3E8" stroke="#212222" stroke-width="14" stroke-miterlimit="10" d="M246.005,82.051
	c0,0,13.533-51.481,22.147-56.551c15.418-9.074,4.348-9,4.348-9s-56.257,14.241-51.128,32.241c0,0-61.461-34.325-65.461-32.325
	c0,0,9.589,16.084,13.589,27.084s5,35.902,3,37.451c0,0-60.156-41.451-63.078-38.451s-26.922,4-29.922,11c0,0,35.477,34,47.238,54
	c0,0-61.238,2-62.238,5s-30,32.748-29,37.374s73.844-17.374,73.922-14.374s16.555,13.748,17.316,14.374S96.5,155.5,96.5,155.5
	s-21,3.883-21,19.441c0,0,14,3.362,24,9.46s-6,21.159-6,21.159l33.238-4.061C126.738,201.5,158.51,88.602,246.005,82.051z"/>
<path fill="#D6C8BE" d="M134.5,194.08"/>
<path fill="#FCFCFC" stroke="#212222" stroke-width="14" stroke-miterlimit="10" d="M109.422,243.499
	c0,0-11.922,188.739-18.922,199.37s-29,34.631-31,31.631s2,3,2,3s104.992-29.008,111.996-43.004s-31.004-101.201,0-176.599
	C173.496,257.897,108.289,250.222,109.422,243.499z"/>
<path fill="#FCFCFC" stroke="#212222" stroke-width="14" stroke-miterlimit="10" d="M104.5,221.5c0,0,85,17.358,96,14.679
	s-52.687,38.873-52.687,38.873S96.291,239.786,104.5,221.5z"/>
<path fill="none" stroke="#212222" stroke-width="14" stroke-miterlimit="10" d="M187.307,248.276c0,0,83.193,23.392,115.193,14.308
	"/>
<path fill="#FCFCFC" d="M187.307,257.001"/>
<path fill="#97D6D6" d="M262.494,270.378c0,0-66.94-10.324-73.661-14.378l-9.667,6.584c0,0-17.045,23.806-8.971,96.997
	c0,0,57.874-16.1,86.922-80.257c0,0,1.241-4.029,4.812-4.26"/>
<path fill="#FFFFFF" stroke="#212222" stroke-width="14" stroke-miterlimit="10" d="M241.167,355.834c0,0,27.598,13.333,32.799,10"
	/>
<path fill="#FFFFFF" stroke="#212222" stroke-width="14" stroke-miterlimit="10" d="M221.372,376.5c0,0,30.136,18.001,35.632,14.667
	"/>
<path fill="#97D6D6" d="M274.916,271.096h20.015c0,0-0.792,44.899-26.778,88.485l-19.83-7.466
	C248.322,352.115,275.999,308.357,274.916,271.096z"/>
<path fill="#7A6440" d="M221.372,384.039l19.795,9.284c0,0-22.917,25.177-59.917,38.677l-2.5-21
	C178.75,411,189.667,408.02,221.372,384.039z"/>
<path fill="#EDD057" d="M260,371.125l-9.603,12.27c0,0-17.471-7.66-19.309-9.215l9.201-10.802"/>
<path fill="#AAD3E8" stroke="#212222" stroke-width="14" stroke-miterlimit="10" d="M265.648,100.726
	c0,0-54.607,7.196-74.629,59.551c-20.023,52.354,21.078,3.189,21.078,3.189s45.726-55.553,54.119-45.792
	C274.609,127.435,285.03,101.461,265.648,100.726z"/>
<path fill="#D3D3D3" d="M147.813,283.831c0,0-5.313,127.333-26.979,168c0,0,43.716-14.995,47.191-19.831
	c0,0-21.895-116.461-6.191-156.948C161.833,275.052,152.792,277.165,147.813,283.831z"/>
<path fill="#AAD3E8" d="M120.833,194.08c0,0,57.333-115.574,119.667-117.907l-25.24-6.667
	C215.26,69.506,108.833,155.321,120.833,194.08z"/>
</svg>
