<?xml version="1.0" encoding="utf-8"?>
<!-- Generator: Adobe Illustrator 16.0.0, SVG Export Plug-In . SVG Version: 6.00 Build 0)  -->
<!DOCTYPE svg PUBLIC "-//W3C//DTD SVG 1.1//EN" "http://www.w3.org/Graphics/SVG/1.1/DTD/svg11.dtd">
<svg version="1.1" id="Layer_1" xmlns="http://www.w3.org/2000/svg" xmlns:xlink="http://www.w3.org/1999/xlink" x="0px" y="0px"
	 width="512px" height="512px" viewBox="0 0 512 512" enable-background="new 0 0 512 512" xml:space="preserve">
<g>
	<path fill-rule="evenodd" clip-rule="evenodd" fill="#FDFDFD" d="M1,256.5C1,172.667,1.027,88.833,0.904,5
		C0.899,1.576,1.576,0.903,5,0.905c168,0.108,336,0.108,504,0c3.424-0.002,4.097,0.671,4.095,4.095c-0.108,168-0.108,336,0,504
		c0.002,3.424-0.671,4.097-4.095,4.095c-168-0.108-336-0.108-504,0c-3.424,0.002-4.101-0.671-4.096-4.095
		C1.027,424.833,1,340.667,1,256.5z M205.881,89.095c-8.484-0.031-16.972,0.066-25.451-0.164c-2.967-0.081-3.542,0.983-3.487,3.678
		c0.174,8.482,0.096,16.969,0.115,25.455c-10.038,0-20.076,0-30.114,0c0.019-8.666-0.037-17.333,0.104-25.996
		c0.038-2.34-0.562-3.171-3.029-3.123c-7.663,0.151-15.333,0.145-22.996,0.002c-2.405-0.044-3.12,0.677-3.075,3.078
		c0.143,7.497,0.188,15.002-0.017,22.496c-0.079,2.902,0.875,3.6,3.638,3.54c8.496-0.186,16.997-0.099,25.496-0.118
		c-0.021,8.411-0.083,16.821-0.023,25.231c0.009,1.34-0.804,3.019,0.956,3.994c-1.998,9.924-0.533,19.969-1.039,29.945
		c-8.651-0.038-17.303,0.005-25.951-0.165c-2.417-0.047-3.106,0.701-3.057,3.083c0.18,8.646,0.158,17.296,0.212,25.944
		c-0.055,8.313,0.026,16.63-0.231,24.937c-0.098,3.164,0.667,4.272,4.04,4.178c8.308-0.232,16.629-0.028,24.944,0
		c0.024,37.445,0.103,74.892-0.015,112.337c-0.012,3.639,0.734,4.75,4.575,4.695c16.806-0.238,33.618-0.178,50.426-0.035
		c3.128,0.027,4.338-0.619,4.205-4.034c-0.279-7.146,0.042-14.313-0.151-21.464c-0.077-2.821,0.72-3.693,3.59-3.639
		c8.484,0.163,16.973,0.02,25.461-0.004c0.049,9.698,0.099,19.396,0.148,29.095c-0.082,9.639-0.164,19.278-0.246,28.917l0.05-0.049
		c-9.645,0.083-19.29,0.166-28.935,0.248c-8.319-0.054-16.643,0.029-24.955-0.232c-3.174-0.1-4.253,0.669-4.161,4.039
		c0.237,8.647,0.041,17.308,0.017,25.963c-8.796,0.021-17.594,0.146-26.387,0c-2.778-0.046-3.672,0.71-3.616,3.567
		c0.166,8.46,0.025,16.927,0.004,25.391c-8.482,0.037-16.966,0.198-25.445,0.04c-2.881-0.054-3.612,0.855-3.543,3.626
		c0.183,7.314,0.195,14.641-0.005,21.955c-0.079,2.864,0.825,3.574,3.608,3.555c17.299-0.122,34.601-0.121,51.9-0.002
		c2.759,0.02,3.685-0.65,3.627-3.537c-0.169-8.479-0.018-16.965,0.008-25.448c9.638-0.078,19.276-0.157,28.915-0.236
		c9.69,0.034,19.379,0.068,29.069,0.103c-0.02,8.661,0.031,17.322-0.108,25.98c-0.037,2.321,0.534,3.151,3.013,3.132
		c18.65-0.145,37.302-0.147,55.954-0.194c8.459,0.047,16.921,0.011,25.377,0.189c2.661,0.057,3.854-0.493,3.769-3.504
		c-0.207-7.295-0.249-14.606,0.014-21.897c0.121-3.361-1.316-3.733-4.094-3.698c-8.292,0.105-16.588-0.027-24.883-0.067
		c-0.034-8.151-0.324-16.313,0.009-24.45c0.16-3.931-1.147-4.634-4.718-4.515c-8.477,0.282-16.968,0.125-25.453,0.146
		c0.038-10.002,0.076-20.004,0.114-30.006c8.818-0.019,17.639-0.155,26.453,0.013c2.863,0.055,3.626-0.821,3.554-3.611
		c-0.221-8.479-0.167-16.963-0.22-25.445c0.085-9.644,0.169-19.287,0.252-28.93c8.477-0.03,16.952-0.127,25.428-0.051
		c2.347,0.021,3.613-0.243,3.533-3.14c-0.237-8.635-0.172-17.277-0.225-25.918c0.095-19.671,0.19-39.342,0.285-59.013
		c9.623-0.046,19.246-0.092,28.868-0.138c8.66,0.059,17.321,0.042,25.978,0.225c2.381,0.051,3.143-0.63,3.09-3.057
		c-0.187-8.657-0.161-17.319-0.217-25.979c0.053-9.683,0.106-19.367,0.159-29.05c8.828,0.012,17.66-0.087,26.484,0.102
		c2.831,0.061,3.605-0.767,3.585-3.588c-0.126-17.324-0.129-34.65,0.002-51.974c0.021-2.854-0.808-3.623-3.607-3.565
		c-8.825,0.181-17.656,0.082-26.485,0.091c0.009-8.594-0.083-17.189,0.089-25.78c0.052-2.619-0.694-3.361-3.311-3.309
		c-8.591,0.171-17.187,0.08-25.78,0.089c0.01-8.499-0.093-17,0.094-25.495c0.062-2.815-0.738-3.604-3.576-3.597
		c-36.661,0.093-73.323,0.093-109.985-0.002c-2.851-0.007-3.632,0.803-3.565,3.606c0.203,8.494,0.123,16.994,0.152,25.492
		l-0.256-0.139C225.182,88.961,215.532,89.028,205.881,89.095z"/>
	<path fill-rule="evenodd" clip-rule="evenodd" fill="#144B6B" d="M235.006,322.947c-8.487,0.023-16.977,0.167-25.46,0.004
		c-2.87-0.055-3.667,0.817-3.59,3.639c0.193,7.15-0.128,14.318,0.151,21.464c0.133,3.415-1.077,4.062-4.205,4.034
		c-16.808-0.143-33.62-0.203-50.426,0.035c-3.841,0.055-4.587-1.057-4.575-4.695c0.117-37.445,0.039-74.892,0.015-112.336
		c0.078-9.721,0.156-19.442,0.234-29.164c8.474,0.02,16.959-0.207,25.417,0.166c3.983,0.175,4.533-1.261,4.504-4.764
		c-0.15-18.111-0.039-36.224-0.019-54.335l-0.119,0.046c9.674-0.042,19.349-0.083,29.024-0.124
		c0.011,18.143,0.083,36.286-0.021,54.428c-0.019,3.276,0.678,4.864,4.389,4.727c6.815-0.252,13.65-0.205,20.469-0.007
		c3.286,0.096,4.298-1.067,4.274-4.31c-0.127-16.81-0.157-33.623,0.015-50.433c0.038-3.69-1.412-4.45-4.704-4.383
		c-8.152,0.167-16.311,0.034-24.466,0.021c0.042-9.671,0.083-19.342,0.125-29.013l-0.059,0.078
		c8.315-0.01,16.631-0.107,24.944,0.018c2.777,0.042,4.247-0.352,4.137-3.717c-0.277-8.471-0.176-16.954-0.227-25.432l0.256,0.139
		c17.602-0.011,35.206,0.107,52.804-0.127c4.237-0.057,5.291,1.324,5.241,5.38c-0.202,16.437-0.096,32.877-0.04,49.317
		c0.006,1.759-0.633,3.672,0.744,5.261c0.1,9.357,0.199,18.715,0.298,28.073c-0.003,9.701-0.004,19.401-0.005,29.102
		c-0.007,9.65-0.014,19.301-0.021,28.952c-0.002,19.657-0.005,39.314-0.007,58.971c-0.003,9.707-0.007,19.413-0.01,29.119
		c-0.084,9.644-0.168,19.287-0.253,28.931c-9.954,0.004-19.908,0.007-29.863,0.01c-0.016-9.699-0.031-19.398-0.048-29.097
		c0.019-8.474-0.08-16.949,0.12-25.418c0.068-2.893-0.894-3.615-3.651-3.548c-7.307,0.177-14.624,0.198-21.928-0.006
		c-2.944-0.082-3.563,0.986-3.519,3.693c0.14,8.471,0.024,16.946,0.008,25.419L235.006,322.947z"/>
	<path fill-rule="evenodd" clip-rule="evenodd" fill="#242223" d="M293.839,148.865c-1.377-1.589-0.738-3.502-0.744-5.261
		c-0.056-16.439-0.162-32.88,0.04-49.317c0.05-4.057-1.004-5.437-5.241-5.38c-17.599,0.234-35.203,0.116-52.804,0.127
		c-0.03-8.498,0.05-16.998-0.152-25.492c-0.067-2.803,0.714-3.613,3.565-3.606c36.662,0.095,73.324,0.095,109.985,0.002
		c2.838-0.007,3.638,0.782,3.576,3.597c-0.187,8.495-0.084,16.996-0.094,25.495l0.057-0.056c-9.646,0.061-19.293,0.121-28.938,0.182
		c-9.35-0.006-18.698-0.012-28.047-0.018c-2.057,1.268-1.097,3.308-1.105,4.969C293.843,112.359,293.854,130.612,293.839,148.865z"
		/>
	<path fill-rule="evenodd" clip-rule="evenodd" fill="#242223" d="M263.94,411.062c8.485-0.021,16.977,0.137,25.453-0.146
		c3.57-0.119,4.878,0.584,4.718,4.515c-0.333,8.137-0.043,16.299-0.009,24.45c-0.061,9.659-0.122,19.318-0.183,28.978
		c-18.651,0.047-37.303,0.05-55.954,0.194c-2.479,0.02-3.05-0.811-3.013-3.132c0.139-8.658,0.088-17.319,0.108-25.979
		c0,0-0.094,0.092-0.094,0.092c8.474-0.012,16.95-0.128,25.421,0.023c2.834,0.05,3.72-0.843,3.671-3.669
		c-0.147-8.471-0.036-16.947-0.025-25.421L263.94,411.062z"/>
	<path fill-rule="evenodd" clip-rule="evenodd" fill="#242223" d="M380.972,118.029c8.829-0.009,17.66,0.089,26.485-0.091
		c2.8-0.058,3.629,0.711,3.607,3.565c-0.131,17.324-0.128,34.65-0.002,51.974c0.021,2.821-0.754,3.648-3.585,3.588
		c-8.824-0.189-17.656-0.09-26.484-0.102l0.045,0.035c-0.004-19.674-0.008-39.349-0.012-59.023L380.972,118.029z"/>
	<path fill-rule="evenodd" clip-rule="evenodd" fill="#FAFBFB" d="M177.053,146.994c-0.02,18.112-0.131,36.225,0.019,54.335
		c0.029,3.503-0.521,4.939-4.504,4.764c-8.458-0.372-16.943-0.146-25.417-0.166l-0.075,0.024
		c-0.039-9.613-0.078-19.226-0.117-28.839c0.506-9.976-0.959-20.021,1.039-29.945C157.682,147.11,167.367,147.052,177.053,146.994z"
		/>
	<path fill-rule="evenodd" clip-rule="evenodd" fill="#242223" d="M177.077,440.074c-0.026,8.483-0.177,16.969-0.008,25.448
		c0.057,2.887-0.869,3.557-3.627,3.537c-17.299-0.119-34.601-0.12-51.9,0.002c-2.783,0.02-3.687-0.69-3.608-3.555
		c0.2-7.314,0.188-14.641,0.005-21.955c-0.069-2.771,0.662-3.68,3.543-3.626c8.479,0.158,16.963-0.003,25.444-0.039
		C156.976,439.949,167.026,440.012,177.077,440.074z"/>
	<path fill-rule="evenodd" clip-rule="evenodd" fill="#144B6B" d="M177.077,440.074c-10.051-0.063-20.102-0.125-30.152-0.188
		c0.022-8.465,0.163-16.932-0.003-25.392c-0.056-2.857,0.838-3.613,3.616-3.567c8.793,0.146,17.591,0.021,26.387,0
		c9.7,0.033,19.4,0.065,29.1,0.098l-0.05-0.051c0.005,9.621,0.01,19.242,0.016,28.863
		C196.353,439.917,186.715,439.996,177.077,440.074z"/>
	<path fill-rule="evenodd" clip-rule="evenodd" fill="#242223" d="M294.104,293.962c0.002-19.656,0.005-39.313,0.006-58.971
		c9.568,0.034,19.138,0.069,28.707,0.104l0.298-0.134c-0.095,19.671-0.19,39.342-0.285,59.013
		C313.255,293.97,303.68,293.966,294.104,293.962z"/>
	<path fill-rule="evenodd" clip-rule="evenodd" fill="#222224" d="M264.055,381.056c-0.038,10.002-0.076,20.004-0.114,30.006
		l0.093-0.095c-9.669,0.019-19.339,0.038-29.009,0.058L235,410.999c-0.014-10.029-0.027-20.06-0.04-30.089
		c0,0-0.05,0.049-0.049,0.049c9.686,0.003,19.373,0.007,29.059,0.01L264.055,381.056z"/>
	<path fill-rule="evenodd" clip-rule="evenodd" fill="#242223" d="M177.053,146.994c-9.686,0.058-19.371,0.116-29.056,0.175
		c-1.759-0.975-0.946-2.654-0.956-3.994c-0.061-8.41,0.001-16.821,0.023-25.231l-0.121,0.121c10.038,0,20.076,0,30.114,0
		c0,0-0.118-0.123-0.118-0.123c-0.002,9.7-0.004,19.399-0.007,29.099L177.053,146.994z"/>
	<path fill-rule="evenodd" clip-rule="evenodd" fill="#144B6B" d="M234.959,380.91c0.013,10.029,0.026,20.06,0.04,30.089
		c-9.674-0.008-19.349-0.016-29.024-0.024l0.05,0.051c0-9.956,0-19.911,0-29.867C215.669,381.076,225.314,380.993,234.959,380.91z"
		/>
	<path fill-rule="evenodd" clip-rule="evenodd" fill="#222224" d="M206.024,381.158c0,9.956,0,19.911,0,29.867
		c-9.7-0.032-19.4-0.064-29.1-0.098c0.024-8.655,0.22-17.315-0.017-25.963c-0.092-3.37,0.986-4.139,4.161-4.039
		C189.382,381.188,197.705,381.104,206.024,381.158z"/>
	<path fill-rule="evenodd" clip-rule="evenodd" fill="#222224" d="M263.979,352.021c9.955-0.003,19.909-0.006,29.863-0.01
		c0.053,8.482-0.001,16.967,0.22,25.445c0.072,2.79-0.69,3.666-3.554,3.611c-8.814-0.168-17.635-0.031-26.453-0.013l-0.086-0.087
		c0.019-9.665,0.038-19.329,0.057-28.994L263.979,352.021z"/>
	<path fill-rule="evenodd" clip-rule="evenodd" fill="#443325" d="M380.993,176.962c-0.053,9.683-0.106,19.367-0.159,29.05
		c-5.148-0.004-10.303-0.172-15.442,0.037c-4.42,0.179-8.961-1.034-13.252,0.956c-0.123-0.337-0.247-0.674-0.371-1.01
		c0.111-9.631,0.222-19.264,0.332-28.896c9.646-0.034,19.292-0.068,28.938-0.102L380.993,176.962z"/>
	<path fill-rule="evenodd" clip-rule="evenodd" fill="#3D3C3D" d="M147.15,205.928c-0.078,9.722-0.156,19.443-0.234,29.164
		c-8.316-0.029-16.637-0.233-24.945-0.001c-3.373,0.094-4.138-1.014-4.04-4.178c0.257-8.307,0.177-16.624,0.231-24.937
		c9.637-0.008,19.274-0.016,28.912-0.024L147.15,205.928z"/>
	<path fill-rule="evenodd" clip-rule="evenodd" fill="#EFAA53" d="M351.769,205.994c0.124,0.337,0.248,0.674,0.371,1.01
		c-0.052,9.273-0.104,18.546-0.156,27.819c-9.622,0.046-19.245,0.092-28.868,0.138l-0.298,0.134
		c0.015-9.708,0.029-19.415,0.043-29.123l0.247,0.051C332.661,206.013,342.215,206.004,351.769,205.994z"/>
	<path fill-rule="evenodd" clip-rule="evenodd" fill="#3D3C3D" d="M294.104,293.962c9.575,0.004,19.15,0.008,28.726,0.012
		c0.053,8.641-0.013,17.283,0.225,25.918c0.08,2.896-1.187,3.161-3.533,3.14c-8.476-0.076-16.951,0.021-25.427,0.051
		C294.098,313.375,294.102,303.669,294.104,293.962z"/>
	<path fill-rule="evenodd" clip-rule="evenodd" fill="#222224" d="M263.931,322.925c0.017,9.698,0.032,19.397,0.048,29.097
		l0.047-0.047c-9.624,0.022-19.247,0.045-28.87,0.067c-0.049-9.698-0.099-19.396-0.149-29.095c0,0-0.045,0.118-0.045,0.118
		C244.617,323.019,254.274,322.972,263.931,322.925z"/>
	<path fill-rule="evenodd" clip-rule="evenodd" fill="#144B6B" d="M235.155,352.042c9.623-0.022,19.247-0.045,28.87-0.067
		c-0.019,9.665-0.038,19.329-0.057,28.994c-9.686-0.003-19.373-0.007-29.059-0.01C234.992,371.32,235.074,361.681,235.155,352.042z"
		/>
	<path fill-rule="evenodd" clip-rule="evenodd" fill="#242223" d="M147.075,205.952c-9.638,0.008-19.275,0.016-28.912,0.024
		c-0.054-8.648-0.032-17.298-0.212-25.944c-0.049-2.382,0.64-3.13,3.057-3.083c8.648,0.17,17.3,0.127,25.951,0.165
		C146.997,186.726,147.036,196.339,147.075,205.952z"/>
	<path fill-rule="evenodd" clip-rule="evenodd" fill="#242223" d="M351.97,89.029c8.594-0.009,17.189,0.082,25.78-0.089
		c2.616-0.052,3.362,0.69,3.311,3.309c-0.172,8.59-0.08,17.186-0.089,25.78l0.055-0.055c-9.641-0.027-19.281-0.055-28.922-0.082
		c-0.026-9.64-0.052-19.279-0.078-28.918L351.97,89.029z"/>
	<path fill-rule="evenodd" clip-rule="evenodd" fill="#222224" d="M205.975,410.975c9.675,0.009,19.35,0.017,29.024,0.024
		c0,0,0.025,0.025,0.025,0.024c-0.019,9.67-0.038,19.34-0.057,29.01c0,0,0.094-0.092,0.094-0.092
		c-9.69-0.035-19.379-0.069-29.07-0.104C205.985,430.217,205.98,420.596,205.975,410.975z"/>
	<path fill-rule="evenodd" clip-rule="evenodd" fill="#B3B5B5" d="M234.833,88.894c0.051,8.478-0.05,16.961,0.227,25.432
		c0.11,3.365-1.359,3.759-4.137,3.717c-8.313-0.125-16.629-0.028-24.944-0.018c-0.033-9.644-0.065-19.287-0.098-28.93
		C215.532,89.028,225.182,88.961,234.833,88.894z"/>
	<path fill-rule="evenodd" clip-rule="evenodd" fill="#242223" d="M205.881,89.095c0.033,9.644,0.065,19.287,0.098,28.93
		l0.059-0.078c-9.699-0.002-19.398-0.004-29.097-0.006l0.118,0.123c-0.02-8.485,0.059-16.973-0.115-25.455
		c-0.056-2.695,0.52-3.759,3.487-3.678C188.909,89.161,197.396,89.063,205.881,89.095z"/>
	<path fill-rule="evenodd" clip-rule="evenodd" fill="#242223" d="M147.064,117.943c-8.499,0.019-17-0.068-25.496,0.118
		c-2.763,0.061-3.717-0.638-3.638-3.54c0.205-7.494,0.16-14.999,0.017-22.496c-0.045-2.401,0.669-3.122,3.075-3.078
		c7.664,0.143,15.333,0.149,22.996-0.002c2.467-0.049,3.066,0.782,3.029,3.123c-0.141,8.664-0.085,17.331-0.104,25.996
		L147.064,117.943z"/>
	<path fill-rule="evenodd" clip-rule="evenodd" fill="#767676" d="M293.92,468.858c0.061-9.659,0.122-19.318,0.183-28.978
		c8.295,0.04,16.591,0.173,24.883,0.067c2.777-0.035,4.215,0.337,4.094,3.698c-0.263,7.291-0.221,14.603-0.014,21.897
		c0.086,3.011-1.107,3.561-3.769,3.504C310.841,468.869,302.379,468.905,293.92,468.858z"/>
	<path fill-rule="evenodd" clip-rule="evenodd" fill="#242223" d="M351.983,234.823c0.053-9.273,0.104-18.546,0.156-27.819
		c4.291-1.989,8.832-0.776,13.252-0.956c5.14-0.208,10.294-0.041,15.442-0.037c0.056,8.66,0.03,17.322,0.217,25.979
		c0.053,2.426-0.709,3.107-3.09,3.057C369.305,234.865,360.644,234.882,351.983,234.823z"/>
	<path fill-rule="evenodd" clip-rule="evenodd" fill="#222224" d="M205.913,146.96c8.156,0.013,16.314,0.145,24.466-0.021
		c3.292-0.067,4.741,0.693,4.704,4.383c-0.172,16.81-0.143,33.623-0.015,50.433c0.024,3.243-0.988,4.406-4.274,4.31
		c-6.819-0.198-13.654-0.245-20.469,0.007c-3.711,0.137-4.408-1.451-4.389-4.727c0.104-18.143,0.033-36.286,0.021-54.428
		L205.913,146.96z"/>
	<path fill-rule="evenodd" clip-rule="evenodd" fill="#7F623B" d="M293.839,148.865c0.016-18.253,0.004-36.506,0.097-54.758
		c0.009-1.661-0.951-3.701,1.104-4.969c-0.014,17.781,0.046,35.564-0.104,53.345c-0.029,3.422,0.947,4.688,4.497,4.589
		c7.805-0.217,15.619-0.047,23.431-0.035c0.134,10.001,0.266,20.003,0.398,30.004l-0.475-0.055c-9.55-0.016-19.1-0.032-28.649-0.048
		C294.038,167.58,293.938,158.222,293.839,148.865z"/>
	<path fill-rule="evenodd" clip-rule="evenodd" fill="#716454" d="M322.86,205.972c-0.014,9.708-0.028,19.415-0.043,29.123
		c-9.569-0.035-19.139-0.069-28.707-0.104c0.008-9.65,0.015-19.301,0.02-28.952C303.706,206.017,313.283,205.995,322.86,205.972z"/>
	<path fill-rule="evenodd" clip-rule="evenodd" fill="#FAFBFB" d="M263.931,322.925c-9.657,0.047-19.313,0.094-28.97,0.141
		c0.016-8.473,0.131-16.948-0.008-25.419c-0.045-2.707,0.574-3.775,3.519-3.693c7.305,0.204,14.622,0.183,21.928,0.006
		c2.758-0.067,3.72,0.655,3.651,3.548C263.851,305.976,263.949,314.451,263.931,322.925z"/>
	<path fill-rule="evenodd" clip-rule="evenodd" fill="#483B2B" d="M322.86,205.972c-9.577,0.022-19.154,0.044-28.73,0.067
		c0.003-9.7,0.004-19.4,0.007-29.102c9.551,0.016,19.101,0.032,28.651,0.048c0.106,9.679,0.213,19.358,0.319,29.037L322.86,205.972z
		"/>
	<path fill-rule="evenodd" clip-rule="evenodd" fill="#FAFBFB" d="M176.94,117.94c9.699,0.002,19.398,0.004,29.097,0.006
		c-0.042,9.671-0.083,19.342-0.125,29.013l0.044-0.044c-9.674,0.041-19.349,0.082-29.023,0.124
		C176.936,137.34,176.938,127.64,176.94,117.94z"/>
	<path fill-rule="evenodd" clip-rule="evenodd" fill="#97703D" d="M322.863,147.036c-7.812-0.012-15.626-0.182-23.431,0.035
		c-3.55,0.099-4.526-1.167-4.497-4.589c0.15-17.781,0.091-35.563,0.104-53.345c9.35,0.006,18.698,0.012,28.047,0.018
		c0.011,9.626,0.021,19.251,0.031,28.877C323.032,127.7,322.947,137.368,322.863,147.036z"/>
	<path fill-rule="evenodd" clip-rule="evenodd" fill="#E38D40" d="M323.119,118.032c-0.011-9.625-0.021-19.251-0.032-28.877
		c9.646-0.061,19.293-0.121,28.939-0.182c0.026,9.64,0.052,19.279,0.078,28.918c0,0-0.248,0.251-0.247,0.25
		C342.278,118.105,332.699,118.069,323.119,118.032z"/>
	<path fill-rule="evenodd" clip-rule="evenodd" fill="#959494" d="M234.967,440.033c0.019-9.67,0.038-19.34,0.057-29.01
		c9.67-0.019,19.34-0.038,29.009-0.057c-0.011,8.474-0.122,16.95,0.025,25.421c0.049,2.826-0.837,3.719-3.671,3.669
		C251.917,439.905,243.44,440.021,234.967,440.033z"/>
	<path fill-rule="evenodd" clip-rule="evenodd" fill="#E38D40" d="M352.104,117.892c9.641,0.027,19.281,0.055,28.922,0.082
		c0.004,19.674,0.008,39.349,0.012,59.023c-9.646,0.034-19.292,0.068-28.938,0.102l-0.234-0.232
		c-0.003-19.574-0.006-39.149-0.01-58.723L352.104,117.892z"/>
	<path fill-rule="evenodd" clip-rule="evenodd" fill="#E38D40" d="M323.107,206.023c-0.106-9.679-0.213-19.358-0.319-29.037
		c-0.001,0,0.474,0.055,0.473,0.055c9.535-0.058,19.07-0.116,28.605-0.174l0.234,0.232c-0.11,9.632-0.221,19.265-0.332,28.896
		C342.215,206.004,332.661,206.013,323.107,206.023z"/>
	<path fill-rule="evenodd" clip-rule="evenodd" fill="#EFAA53" d="M351.866,176.867c-9.535,0.058-19.07,0.116-28.605,0.174
		c-0.132-10.001-0.264-20.003-0.397-30.004c0.084-9.668,0.169-19.336,0.255-29.004c9.581,0.037,19.16,0.073,28.739,0.11
		C351.86,137.718,351.863,157.292,351.866,176.867z"/>
</g>
</svg>
