<?xml version="1.0" encoding="utf-8"?>
<!-- Generator: Adobe Illustrator 16.0.0, SVG Export Plug-In . SVG Version: 6.00 Build 0)  -->
<!DOCTYPE svg PUBLIC "-//W3C//DTD SVG 1.1//EN" "http://www.w3.org/Graphics/SVG/1.1/DTD/svg11.dtd">
<svg version="1.1" id="Layer_1" xmlns="http://www.w3.org/2000/svg" xmlns:xlink="http://www.w3.org/1999/xlink" x="0px" y="0px"
	 width="512px" height="512px" viewBox="0 0 512 512" enable-background="new 0 0 512 512" xml:space="preserve">
<g>
	<path fill="#FEFEFE" d="M258.848,513.584c-83.98,0-167.96-0.021-251.939,0.085c-3.261,0.004-4.18-0.434-4.178-4.009
		C2.849,341.701,2.851,173.742,2.727,5.783C2.724,2.039,3.664,1.496,7.132,1.498C174.924,1.597,342.719,1.596,510.51,1.504
		c3.404-0.002,4.439,0.443,4.438,4.254c-0.129,167.959-0.127,335.918-0.012,503.877c0.002,3.526-0.836,4.042-4.15,4.037
		C426.807,513.561,342.826,513.584,258.848,513.584z M274.611,455.809c10.164,0,20.33,0.003,30.494-0.002
		c1.809-0.001,3.568,0.366,3.672-2.58c0.619-17.766-9.043-32.849-25.389-37.327c-6.031-1.652-10.49-4.304-14.242-8.88
		c-0.842-1.026-1.668-2.114-2.695-2.933c-3.961-3.146-3.785-5.918-0.463-9.834c32.729-38.576,47.754-83.573,47.834-133.841
		c0.006-3.903,1.598-6.3,5.248-6.509c6.316-0.361,11.83-3.308,17.271-5.678c18.365-8,31.744-21.559,40.445-39.629
		c3.771-7.836,6.041-16.197,7.781-24.669c0.52-2.546,1.434-3.281,3.883-3.166c3.822,0.18,7.666-0.072,11.492,0.084
		c2.998,0.123,4.107-1.037,4.16-4.061c0.289-16.634-1.424-32.987-7.961-48.409c-10.039-23.688-25.363-42.393-49.219-53.944
		c-12.066-5.843-24.119-10.162-37.439-10.882c-37.188-2.012-71.212,8.229-103.104,26.689c-0.718,0.415-1.407,0.881-2.11,1.321
		c-10.753,6.744-20.693,14.544-29.987,23.172c-1.914,1.776-3.623,3.576-6.235,0.927c-4.672-4.738-9.417-9.404-14.181-14.051
		c-2.311-2.255-3.327-4.517-2.249-7.97c2.242-7.175-5.72-17.817-12.889-17.221c-9.791,0.814-15.646,6.624-14.728,16.159
		c0.892,9.262,7.519,14.193,17.129,12.541c2.976-0.512,5.174,0.242,6.942,2.622c3.388,4.56,7.364,8.593,11.363,12.604
		c4.739,4.752,4.589,4.628,0.157,9.907c-30.366,36.172-47.201,77.825-47.803,125.096c-0.751,58.979-0.167,117.974-0.196,176.961
		c-0.004,8.156-0.228,16.313-0.337,24.468c-0.045,3.351,1.161,4.986,4.98,5.117c23.227,0.794,45.734-3.015,67.604-10.532
		c23.396-8.043,44.26-20.553,62.79-36.951c1.492-1.321,2.932-2.819,4.661-3.73c4.414-2.325,5.693,2.051,7.767,4.183
		c2.412,2.479-0.377,3.267-1.963,4.255c-12.037,7.507-16.794,18.778-16.832,32.495c-0.008,2.892,0.871,4.389,4.355,4.295
		C254.61,455.634,264.613,455.809,274.611,455.809z"/>
	<path fill="#212222" d="M272.777,455.225c-9.998,0-20-0.175-29.991,0.097c-3.484,0.094-4.363-1.403-4.355-4.295
		c0.038-13.717,4.795-24.988,16.832-32.495c1.584-0.988,4.375-1.776,1.963-4.255c-2.075-2.132-3.354-6.508-7.768-4.183
		c-1.729,0.911-3.169,2.409-4.661,3.73c-18.53,16.398-39.394,28.908-62.79,36.951c-21.87,7.519-44.377,11.326-67.604,10.532
		c-3.819-0.131-5.025-1.768-4.98-5.117c0.109-8.155,0.333-16.312,0.337-24.468c0.029-58.986-0.555-117.981,0.196-176.961
		c0.602-47.271,17.438-88.924,47.803-125.096c4.432-5.279,4.582-5.155-0.157-9.907c-4-4.011-7.976-8.044-11.363-12.604
		c-1.768-2.38-3.967-3.134-6.942-2.622c-9.61,1.652-16.237-3.279-17.129-12.541c-0.918-9.535,4.937-15.345,14.728-16.159
		c7.169-0.597,15.131,10.046,12.889,17.221c-1.079,3.453-0.063,5.715,2.249,7.97c4.763,4.646,9.509,9.313,14.181,14.051
		c2.612,2.649,4.321,0.85,6.235-0.927c9.294-8.628,19.234-16.428,29.987-23.172c0.703-0.44,1.393-0.906,2.11-1.321
		c31.892-18.46,65.917-28.701,103.104-26.689c13.319,0.72,25.373,5.039,37.438,10.882c23.855,11.552,39.182,30.257,49.22,53.944
		c6.536,15.422,8.25,31.775,7.962,48.409c-0.054,3.023-1.164,4.184-4.161,4.061c-3.826-0.156-7.67,0.096-11.493-0.084
		c-2.448-0.115-3.361,0.62-3.883,3.166c-1.739,8.472-4.009,16.833-7.78,24.669c-8.701,18.07-22.081,31.629-40.445,39.629
		c-5.441,2.37-10.956,5.316-17.271,5.678c-3.651,0.209-5.243,2.605-5.249,6.509c-0.08,50.267-15.105,95.265-47.834,133.841
		c-3.321,3.916-3.497,6.688,0.464,9.834c1.026,0.817,1.854,1.905,2.694,2.933c3.752,4.576,8.213,7.228,14.242,8.88
		c16.346,4.479,26.01,19.563,25.39,37.327c-0.104,2.946-1.863,2.579-3.673,2.58C293.107,455.228,282.941,455.225,272.777,455.225z
		 M284.029,442.141c1.912,0.76,3.916,0.632,5.912,0.646c3.479,0.027,4.02-1.305,2.246-4.229
		c-4.188-6.901-9.375-12.111-18.224-11.683c-11.493-0.438-19.043,4.936-21.69,15.264
		C262.825,442.141,273.428,442.141,284.029,442.141z M361.324,194.08c3.814-4.841,3.845-10.741,4.629-16.438
		c0.322-2.336-0.854-2.766-2.863-2.757c-17.707,0.074-35.418-0.583-53.12,0.326c-3.349-1.063-2.923,1.233-2.927,3.237
		c-0.034,17.825,0.057,35.652-0.24,53.473c-0.071,4.338,1.779,4.666,5.043,3.982C335.87,230.872,352.476,217.064,361.324,194.08z
		 M307.269,82.051c-0.12,6.976-0.341,13.951-0.344,20.927c-0.009,18.293,0.06,36.586,0.157,54.878
		c0.01,1.732-1.011,4.192,2.489,4.119c16.448-0.345,32.909,0.566,49.351-0.51c5.479,0.107,10.954,0.278,16.433,0.31
		c8.952,0.052,8.952,0.015,7.727-8.938c-5.008-36.535-36.322-67.329-72.818-71.569C309.233,81.147,307.914,80.473,307.269,82.051z
		 M294.581,84.791c0.551-5.132-3.313-3.718-5.713-3.492c-24.714,2.321-48.39,8.285-70.088,20.778
		c-36.584,21.065-63.025,51.002-78.59,90.344c-9.735,24.607-13.587,50.194-13.446,76.632c0.294,55.303,0.089,110.606,0.09,165.909
		c0,1.499,0.071,3,0.017,4.496c-0.088,2.395,0.628,3.615,3.403,3.384c6.112-0.511,12.243-0.765,18.146-2.66
		c4.884,0.745,9.356-0.795,13.973-2.137c54.138-15.741,93.63-48.363,116.359-100.46c8.916-20.435,15.615-41.696,15.85-63.97
		c0.643-61.106,0.209-122.224,0.189-183.337C294.77,88.449,294.646,86.62,294.581,84.791z"/>
	<path fill="#B7870F" d="M294.581,84.791c0.065,1.829,0.188,3.658,0.188,5.487c0.02,61.113,0.453,122.23-0.189,183.337
		c-0.232,22.273-6.934,43.535-15.85,63.97c-22.729,52.097-62.222,84.719-116.359,100.46c-4.616,1.342-9.088,2.882-13.973,2.137
		c-0.195-6.558-0.391-13.114-0.585-19.674c1.434-0.399,2.849-0.888,4.303-1.189c70.158-14.636,120.09-79.383,122.916-150.629
		c0.237-5.992-0.892-6.967-6.755-6.783c-3.228,0.101-4.935,1.617-5.326,4.742c-0.354,2.805-0.684,5.611-1.021,8.416
		c-3.039-0.207-3.807,2.24-4.812,4.261c-1.996,4.013-3.474,8.333-5.837,12.104c-17.625,28.131-40.701,50.305-71.227,64.103
		c-6.646,3.004-13.417,5.821-20.785,6.668c-0.129-1.99-0.37-3.979-0.371-5.97c-0.017-28.164,0.018-56.326-0.003-84.487
		c-0.006-8.241-0.069-8.229-7.949-9.052c-0.983-0.103-1.943-0.436-2.914-0.661c-0.525-12.735,1.12-25.259,3.975-37.62
		c14.667-63.513,51.515-108.027,112.792-131.672C274.471,89.006,284.574,87.14,294.581,84.791z M259.125,163.441
		c0.009-8.155-5.288-13.609-13.179-13.567c-7.594,0.04-12.976,5.502-13.061,13.257c-0.086,7.857,5.547,13.896,13.044,13.98
		C253.649,177.199,259.116,171.537,259.125,163.441z"/>
	<path fill="#8E6406" d="M147.813,420.508c0.195,6.56,0.39,13.116,0.585,19.674c-5.902,1.896-12.034,2.149-18.146,2.66
		c-2.774,0.231-3.491-0.989-3.403-3.384c0.055-1.496-0.017-2.997-0.017-4.496c-0.001-55.303,0.204-110.606-0.09-165.909
		c-0.141-26.438,3.711-52.024,13.446-76.632c15.565-39.342,42.006-69.278,78.59-90.344c21.699-12.493,45.375-18.457,70.088-20.778
		c2.399-0.226,6.264-1.64,5.713,3.492c-10.007,2.349-20.11,4.215-29.782,7.946c-61.277,23.645-98.125,68.159-112.792,131.672
		c-2.854,12.361-4.5,24.885-3.975,37.62c-1.982,1.516-1.949,3.656-1.947,5.867c0.044,49.248,0.061,98.498,0.088,147.745
		C146.174,417.438,145.793,419.384,147.813,420.508z"/>
	<path fill="#F2AC46" d="M358.922,161.465c-16.44,1.076-32.902,0.165-49.351,0.51c-3.5,0.073-2.479-2.387-2.489-4.119
		c-0.099-18.292-0.166-36.585-0.157-54.878c0.003-6.976,0.224-13.951,0.344-20.927c1.956,0.886,3.999,1.62,5.854,2.684
		c11.271,6.469,20.35,15.413,27.845,25.869C351.836,125.768,358.372,142.593,358.922,161.465z"/>
	<path fill="#F2AC46" d="M361.324,194.08c-8.85,22.984-25.454,36.792-49.479,41.823c-3.264,0.684-5.114,0.355-5.043-3.982
		c0.297-17.82,0.206-35.647,0.24-53.473c0.004-2.004-0.422-4.301,2.928-3.237c0.612,0.532,1.14,1.312,1.851,1.562
		C328.31,182.576,344.819,188.323,361.324,194.08z"/>
	<path fill="#E88D2E" d="M358.922,161.465c-0.55-18.872-7.086-35.697-17.956-50.861c-7.495-10.456-16.574-19.4-27.845-25.869
		c-1.854-1.063-3.896-1.798-5.854-2.684c0.646-1.578,1.966-0.903,2.993-0.784c36.496,4.24,67.812,35.034,72.818,71.569
		c1.227,8.953,1.227,8.99-7.728,8.938C369.876,161.743,364.399,161.572,358.922,161.465z"/>
	<path fill="#E88D2E" d="M361.324,194.08c-16.505-5.757-33.016-11.504-49.504-17.308c-0.711-0.25-1.237-1.029-1.851-1.562
		c17.701-0.909,35.412-0.252,53.119-0.326c2.01-0.009,3.187,0.421,2.863,2.757C365.169,183.339,365.14,189.239,361.324,194.08z"/>
	<path fill="#F2AC46" d="M284.029,442.141c-10.603,0-21.204,0-31.754,0c2.647-10.328,10.198-15.7,21.691-15.264
		c1.284,1.48,2.54,2.987,3.857,4.438C280.688,434.472,283.822,437.464,284.029,442.141z"/>
	<path fill="#E88D2E" d="M284.029,442.141c-0.207-4.677-3.342-7.669-6.206-10.825c-1.317-1.45-2.573-2.957-3.857-4.438
		c8.849-0.43,14.033,4.78,18.222,11.683c1.773,2.924,1.234,4.256-2.246,4.229C287.945,442.771,285.941,442.899,284.029,442.141z"/>
	<path fill="#212222" d="M147.813,420.508c-2.02-1.124-1.639-3.068-1.64-4.865c-0.027-49.248-0.044-98.496-0.088-147.746
		c-0.002-2.211-0.035-4.352,1.947-5.867c0.971,0.228,1.93,0.561,2.914,0.662c7.88,0.822,7.943,0.811,7.949,9.052
		c0.021,28.161-0.013,56.323,0.003,84.487c0.001,1.988,0.242,3.979,0.371,5.97c-0.09,12.641-0.051,25.284-0.338,37.922
		c-0.103,4.543,1.98,4.73,5.183,3.336c6.517-2.838,13.188-5.42,19.418-8.804c27.758-15.069,48.95-36.602,63.087-64.973
		c8.592-17.242,14.225-35.283,15.311-54.617c0.34-2.805,0.67-5.611,1.021-8.416c0.393-3.125,2.1-4.643,5.326-4.742
		c5.863-0.184,6.992,0.791,6.755,6.783c-2.826,71.246-52.758,135.993-122.916,150.629
		C150.662,419.62,149.247,420.107,147.813,420.508z"/>
	<path fill="#FCFCFC" d="M261.93,275.064c-1.086,19.332-6.718,37.373-15.311,54.617c-14.137,28.37-35.329,49.901-63.087,64.973
		c-6.23,3.383-12.901,5.965-19.418,8.803c-3.203,1.396-5.286,1.207-5.183-3.336c0.287-12.637,0.248-25.281,0.338-37.922
		c7.369-0.848,14.139-3.664,20.785-6.668c30.526-13.797,53.602-35.971,71.227-64.102c2.363-3.772,3.841-8.094,5.837-12.105
		C258.123,277.305,258.891,274.857,261.93,275.064z"/>
	<path fill="#212222" d="M259.125,163.441c-0.009,8.096-5.476,13.758-13.195,13.67c-7.498-0.085-13.13-6.123-13.044-13.98
		c0.085-7.755,5.467-13.217,13.061-13.257C253.837,149.832,259.134,155.286,259.125,163.441z"/>
</g>
<g>
	<path fill-rule="evenodd" clip-rule="evenodd" fill="none" stroke="#000000" stroke-width="14" stroke-miterlimit="10" d="
		M155.173,62.195c4.681,2.924,9.37,5.836,14.038,8.784c0.988,0.623,1.751,1.344,2.863,0.012c4.628-5.549,9.446-10.944,14.013-16.542
		c4.201-5.151,8.032-10.609,12.29-15.711c3.715-4.453,6.376-4.021,9.417,1.315c4.085,7.174,6.833,14.968,9.893,22.593
		c3.01,7.498,5.572,15.189,6.863,23.226c0.829,5.162,0.119,9.51-4.067,13.491c-14.261,13.564-28.741,26.874-43.559,39.824
		c-3.313,2.895-6.305,6.156-9.442,9.249c-4.651,3.461-8.484,7.731-12.034,12.276c-10.339,12.368-20.708,24.713-31.001,37.12
		c-2.796,3.37-5.413,6.893-8.032,10.404c-2.046,2.743-3.896,3.871-7.991,3.117c-7.871-1.45-16.066-1.019-24.07-1.898
		c-11.207-1.231-22.624-1.884-32.676-7.963c-5.314-3.213-5.582-5.274-1.248-9.744c2.968-3.061,5.968-6.092,8.922-9.165
		c2.206-2.298,4.483-4.271,8.027-4.055c1.614,0.097,2.878-1.017,4-2.175c4.546-4.699,9.065-9.426,13.711-14.024
		c1.717-1.7,1.788-3.107,0.591-5.192c-3.021-5.264-5.778-10.681-8.64-16.039c2.68,1.929,4.816,2.149,5.633-1.791
		c1.819,3.02,3.692,6.01,5.448,9.069c4.298,7.49,4.275,7.504,9.819,0.55c1.656-0.386,2.516-1.791,3.598-2.879
		c3.901-3.933,7.698-7.969,11.647-11.85c15.799-15.522,30.982-31.628,45.726-48.15c0.441-0.521,0.883-1.041,1.325-1.562
		c0.618-0.387,1.036-0.903,1.066-1.667c1.41-0.576,2.288-1.667,2.903-3.01l0.13,0.178l-0.206-0.104
		c2.442-1.681,2.789-3.036-0.156-4.797c-3.963-2.371-7.67-5.168-11.486-7.783C154.082,65.965,154.999,64.276,155.173,62.195z
		 M135.569,173.731l0.183-0.263c6.659-7.579,13.316-15.159,19.975-22.739c5.596-5.594,11.191-11.188,16.786-16.783
		c1.071-0.264,1.817-0.889,2.163-1.953c0.891-0.909,1.78-1.818,2.669-2.727c0.935-0.371,1.604-1.01,1.979-1.95
		c0.394-0.401,0.788-0.8,1.181-1.201c0.264-0.189,0.529-0.377,0.792-0.565c2.761-2.798,5.522-5.595,8.282-8.392
		c8.488-7.035,16.979-14.063,25.457-21.108c0.869-0.722,1.936-1.516,1.767-2.746c-0.866-6.393-0.573-12.963-2.84-19.147
		c0.626-2.887,1.27-5.771,1.875-8.662c0.732-3.484-0.382-4.663-3.753-2.958c-2.638-5.183-5.302-10.352-7.897-15.556
		c-1.079-2.165-2.165-2.387-3.672-0.385c-9.826,13.047-20.217,25.632-30.965,37.927c-14.714,15.845-29.429,31.69-44.145,47.536
		c-8.473,8.079-17.155,15.946-25.083,24.582c-9.471,8.554-18.943,17.105-28.415,25.66c-3.869,3.29-7.688,6.642-11.622,9.854
		c-4.233,3.459-4.263,3.455,0.958,5.642c7.324,3.068,14.961,5.093,22.68,6.854c2.095,1.368,3.661,0.112,5.243-1.056
		c0.314,1.736,1.728,1.614,2.975,1.734c3.248,0.309,6.493,0.675,9.746,0.871c7.597,0.456,10.478-1.339,13.951-8.529
		c1.086-1.259,2.173-2.517,3.259-3.777c0.195-0.281,0.389-0.563,0.584-0.844c4.232-5.318,8.461-10.638,12.691-15.958
		C133.438,175.972,134.504,174.853,135.569,173.731z"/>
	<path fill-rule="evenodd" clip-rule="evenodd" fill="#4F2005" d="M119.835,42.088c5.228,2.702,10.457,5.403,15.687,8.105
		c-2.446,1.389-3.033,3.754-3.307,6.286c-1.385,0.238-2.764,0.513-4.153,0.709c-8.667,1.229-8.668,1.223-7.662,10.068
		c-0.095,1.272-0.258,2.545-0.276,3.819c-0.119,8.678-0.104,8.601-8.631,8.207c-3.95-0.183-8.785-2.202-11.63,0.032
		c-3.098,2.434-1.446,7.74-2.272,11.727c-0.853,4.119,0.81,9.731-2.317,12.099c-3.25,2.459-8.606,0.713-12.848-0.145
		c-4.73-0.954-6.171,0.996-6.429,5.075c-0.045,0.706-0.097,1.412-0.145,2.117c-0.968,3.245-1.936,6.488-2.905,9.732
		c-2.404-1.332-4.462-0.754-6.282,1.138c-2.66-5.355-5.318-10.71-7.979-16.066c1.504-2.299,2.651-4.758,3.335-7.427
		c2.415-1.339,3.554-3.688,4.74-6c3.294-3.663,6.475-7.415,9.079-11.618c6.744-6.641,13.488-13.283,20.231-19.925
		c0.239-0.235,0.478-0.468,0.717-0.704c1.313-1.348,2.625-2.698,3.938-4.046c3.702-2.709,7.404-5.419,11.106-8.128
		c2.314-1.719,4.629-3.438,6.942-5.156l-0.049,0.025C119.096,42.039,119.466,42.064,119.835,42.088z M69.894,97.084
		c-1.167,1.242-2.236,2.595-3.519,3.703c-4.025,3.477-4.971,5.605,0.295,10.857c2.252,2.248,3.569,2.491,4.396-1.121
		c0.979-4.271,2.311-8.461,3.49-12.687c0.552-0.131,1.102-0.264,1.652-0.395c3.979,1.847,8.352,1.416,12.512,2.197
		c2.882,0.542,4.115-0.372,4.314-3.377c0.31-4.676,0.841-9.346,1.504-13.986c1.272-8.922,0.157-7.571,8.603-7.467
		c3.268,0.042,6.544,0.067,9.798,0.325c2.521,0.201,3.749-0.428,3.363-3.229c-0.368-2.667-0.458-5.37-0.668-8.058
		c-0.982-9.873-0.981-9.87,8.279-11.684c0.132-0.026,0.183-0.46,0.339-0.889c-1.896-0.686-3.928-3.289-5.651-1.657
		c-3.552,3.367-8.402,4.728-11.715,8.295c-0.213,0.058-0.403,0.16-0.57,0.306c-0.34,0.164-0.68,0.327-1.02,0.491
		c-1.015,1.01-2.031,2.021-3.046,3.032c-0.215,0.185-0.43,0.369-0.646,0.555c-8.072,7.667-16.137,15.343-23.321,23.879
		C75.486,89.812,72.691,93.448,69.894,97.084z"/>
	<path fill-rule="evenodd" clip-rule="evenodd" fill="#453A04" d="M62.02,97.566c-0.684,2.669-1.831,5.128-3.335,7.427
		c-6.014-13.301-12.25-26.507-17.983-39.927c-5.242-12.27,1.342-27.241,13.88-34.804c13.738-8.288,26.915-7.429,40.517,0.094
		c7.685,4.251,15.77,7.779,23.675,11.633c-2.313,1.718-4.628,3.437-6.943,5.155c1.394-2.179-0.684-2.302-1.78-2.852
		c-6.737-3.384-13.514-6.685-20.254-10.06c-9.82-4.915-19.685-4.759-29.613-0.372c-6.787,4.535-11.956,10.152-12.565,18.813
		c-0.028,0.346-0.056,0.693-0.084,1.04c-1.342,2.728-0.857,5.316,0.09,8.125C51.737,74.031,57.263,85.642,62.02,97.566z"/>
	<path fill-rule="evenodd" clip-rule="evenodd" fill="#0B4C07" d="M66.665,121.06c1.82-1.892,3.878-2.469,6.28-1.136
		c1.009,2.037,1.936,4.119,3.055,6.095c1.085,1.918,1.408,5.254,3.652,5.295c2.642,0.047,3.655-3.15,4.956-5.314
		c0.072-0.121,0.121-0.255,0.182-0.385c2.167-2.25,4.41-4.435,6.493-6.763c7.958-8.899,15.71-17.979,24.349-26.258
		c6.158-5.905,12.067-12.069,18.086-18.118c2.637-2.125,5.271-4.256,7.912-6.376c1.16-0.932,1.701-2.09,0.498-3.224
		c-3.151-2.972-5.555-6.847-9.914-8.395c0.275-2.532,0.862-4.897,3.308-6.286c6.55,3.999,13.101,8,19.651,12
		c-0.174,2.082-1.091,3.771-2.685,5.106c-5.12,1.931-8.388,6.27-12.453,9.572c-1.337,1.04-2.797,1.956-3.991,3.14
		c-8.052,7.977-16.238,15.833-24.009,24.075c-8.342,8.848-16.644,17.755-24.199,27.314c-2.208,2.317-4.514,4.57-5.161,7.906
		c-0.818,3.937-2.955,3.717-5.634,1.788C73.344,134.539,69.336,128.146,66.665,121.06z"/>
	<path fill-rule="evenodd" clip-rule="evenodd" fill="#978212" d="M155.447,160.71c3.55-4.545,7.383-8.815,12.034-12.276
		C163.468,152.525,159.458,156.618,155.447,160.71z"/>
	<path fill-rule="evenodd" clip-rule="evenodd" fill="#453A04" d="M119.835,42.088c-0.37-0.024-0.74-0.049-1.11-0.074
		C119.096,42.039,119.466,42.064,119.835,42.088z"/>
	<path fill-rule="evenodd" clip-rule="evenodd" fill="#E4CB43" d="M87.835,131.401c7.555-9.559,15.857-18.466,24.199-27.314
		c7.771-8.243,15.957-16.099,24.009-24.075c1.194-1.185,2.654-2.1,3.989-3.138c0.103,1.474,1.183,2.151,2.263,2.874
		c3.063,2.045,6.262,3.93,9.098,6.256c2.678,2.196,4.997,2.29,7.518,0.041c-14.744,16.522-29.927,32.628-45.726,48.15
		c-3.949,3.881-7.746,7.917-11.647,11.85c-1.083,1.088-1.942,2.493-3.599,2.879C95.233,142.702,91.479,137.084,87.835,131.401z"/>
	<path fill-rule="evenodd" clip-rule="evenodd" fill="#553203" d="M212.083,62.539c3.371-1.706,4.486-0.526,3.753,2.958
		c-0.605,2.891-1.249,5.774-1.875,8.662c-2.006,2.371-2.424,5.41-3.351,8.211c-0.954,2.885-2.63,3.776-5.511,2.92
		c-4.085-1.213-8.202-2.324-12.318-3.42c-5.169-1.377-5.21-1.347-4.253,4.115c1.005,5.737,2.061,11.463,3.138,17.187
		c0.763,4.055-0.355,5.159-4.751,4.582c-0.416-0.298-0.831-0.594-1.247-0.892c-0.269-0.148-0.539-0.297-0.806-0.446
		c-4.198-1.296-8.441-2.47-12.581-3.937c-2.546-0.902-3.252-0.071-3.365,2.372c-0.265,5.81-0.89,11.61-0.965,17.42
		c-0.043,3.267-1.408,4.054-4.343,4.065c-4.677,0.021-9.352,0.454-14.032,0.572c-2.163,0.055-3.416,0.543-3.397,3.1
		c0.032,4.525-0.229,9.052-0.368,13.579c-0.223,1.534-0.633,3.069-0.627,4.601c0.007,3.107-1.033,4.503-4.479,4.322
		c-4.377-0.232-8.785,0.264-13.182,0.28c-1.769,0.006-2.528,0.518-2.604,2.368c-0.242,5.797-0.622,11.587-0.948,17.379
		c-1.031,6.038-1.031,6.009-7.151,5.877c-3.4-0.073-6.803-0.072-10.203-0.03c-3.957,0.049-8.924-1.249-11.594,0.651
		c-2.952,2.097-1.992,7.563-2.948,11.513c-0.133,0.55-0.192,1.117-0.285,1.675c-0.875,3.791-1.748,7.583-2.623,11.373
		c-1.583,1.169-3.149,2.425-5.243,1.06c2.599-4.376,2.313-9.49,3.62-14.196c0.968-3.98,2.134-7.924,2.838-11.951
		c0.551-3.147,2.134-4.156,5.182-4.136c6.778,0.046,13.559-0.274,20.339-0.229c3.116,0.02,4.14-1.164,3.312-4.094
		c1.018-2.985,0.713-6.15,1.252-9.195c0.676-3.824-0.894-9.123,1.966-11.149c2.728-1.932,7.611-0.957,11.549-1.014
		c7.332-0.105,7.332-0.031,7.326-7.459c0.441-4.813,0.994-9.621,1.274-14.444c0.145-2.497,1.186-3.53,3.632-3.633
		c4.69-0.2,9.373-0.736,14.061-0.78c2.855-0.027,4.02-0.859,4.047-3.872c0.051-5.543,0.733-11.085,0.699-16.623
		c-0.025-3.807,1.041-5.236,4.944-4.17c4.103,1.12,8.294,1.928,12.446,2.874c1.087,0.666,2.35,1.644,3.491,0.847
		c1.226-0.855,0.37-2.396,0.172-3.576c-1.01-6.019-2.201-12.005-3.187-18.026c-0.654-3.996,0.814-5.185,4.566-4.085
		c5.173,1.517,10.371,2.952,15.563,4.409c1.503,0.421,3.279,1.127,3.948-1.006C208.701,73.62,211.552,68.434,212.083,62.539z"/>
	<path fill-rule="evenodd" clip-rule="evenodd" fill="#C8AB1A" d="M185.668,106.861c0.416,0.297,0.831,0.594,1.247,0.892
		c-0.365,3.489,1.512,6.345,2.664,9.406c-2.76,2.797-5.521,5.594-8.282,8.392c-0.263,0.188-0.527,0.376-0.792,0.565
		c-0.394,0.4-0.788,0.8-1.181,1.201c-0.922,0.383-1.576,1.038-1.979,1.95c-0.89,0.908-1.779,1.817-2.671,2.726
		c-0.721,0.651-1.441,1.302-2.161,1.954c-5.595,5.595-11.19,11.189-16.786,16.786c-3.306-2.381-6.611-4.764-9.917-7.147
		c0.14-4.526,0.401-9.052,0.369-13.578c-0.018-2.557,1.234-3.045,3.397-3.1c4.68-0.118,9.354-0.55,14.032-0.572
		c2.935-0.012,4.3-0.799,4.343-4.065c0.075-5.81,0.7-11.61,0.965-17.42c0.112-2.443,0.819-3.274,3.365-2.372
		c4.14,1.467,8.382,2.641,12.581,3.937C185.129,106.564,185.399,106.713,185.668,106.861z"/>
	<path fill-rule="evenodd" clip-rule="evenodd" fill="#985C11" d="M212.083,62.539c-0.532,5.895-3.383,11.081-5.118,16.605
		c-0.669,2.134-2.445,1.427-3.948,1.006c-5.192-1.457-10.39-2.892-15.563-4.409c-3.752-1.1-5.22,0.089-4.566,4.085
		c0.986,6.021,2.177,12.008,3.187,18.026c0.197,1.18,1.054,2.721-0.172,3.576c-1.142,0.797-2.404-0.181-3.491-0.849
		c-3.391-6.07-7.416-11.633-12.862-16.056c10.748-12.295,21.139-24.88,30.965-37.927c1.507-2.001,2.594-1.78,3.672,0.385
		C206.781,52.187,209.446,57.356,212.083,62.539z"/>
	<path fill-rule="evenodd" clip-rule="evenodd" fill="#BE7213" d="M169.549,84.525c5.447,4.423,9.472,9.986,12.862,16.056
		c-4.152-0.944-8.343-1.752-12.446-2.872c-3.904-1.065-4.969,0.363-4.944,4.17c0.035,5.538-0.648,11.08-0.699,16.623
		c-0.027,3.013-1.192,3.844-4.047,3.872c-4.688,0.044-9.371,0.58-14.061,0.78c-2.447,0.103-3.487,1.137-3.632,3.633
		c-0.281,4.823-0.833,9.631-1.275,14.446c-5.302-3.056-10.601-6.114-15.902-9.172C140.12,116.215,154.834,100.37,169.549,84.525z"/>
	<path fill-rule="evenodd" clip-rule="evenodd" fill="#978212" d="M189.579,117.159c-1.152-3.061-3.028-5.917-2.664-9.406
		c4.396,0.577,5.515-0.527,4.751-4.582c-1.078-5.724-2.133-11.45-3.138-17.187c-0.957-5.462-0.916-5.493,4.253-4.115
		c4.117,1.097,8.233,2.207,12.318,3.42c2.881,0.856,4.558-0.035,5.511-2.92c0.926-2.801,1.345-5.84,3.351-8.211
		c2.268,6.184,1.974,12.754,2.84,19.147c0.169,1.23-0.898,2.024-1.767,2.746C206.557,103.095,198.066,110.124,189.579,117.159z"/>
	<path fill-rule="evenodd" clip-rule="evenodd" fill="#DC9F53" d="M125.404,132.062c5.301,3.058,10.6,6.116,15.902,9.172
		c0.007,7.426,0.007,7.352-7.325,7.457c-3.938,0.057-8.821-0.917-11.549,1.014c-2.859,2.026-1.29,7.325-1.966,11.149
		c-0.539,3.045-0.234,6.21-1.252,9.195c-5.802-5.165-12.784-8.671-18.893-13.406C108.25,148.007,116.931,140.14,125.404,132.062z"/>
	<path fill-rule="evenodd" clip-rule="evenodd" fill="#C8AB1A" d="M91.79,192.223c0.093-0.558,0.151-1.125,0.285-1.675
		c0.956-3.95-0.004-9.416,2.948-11.513c2.67-1.899,7.638-0.602,11.594-0.651c3.4-0.042,6.802-0.043,10.203,0.03
		c6.12,0.131,6.12,0.16,7.152-5.877c3.008,1.134,6.048,2.212,8.401,4.557c-4.23,5.32-8.459,10.64-12.691,15.958
		c-0.195,0.28-0.39,0.563-0.584,0.844c-1.086,1.261-2.173,2.519-3.258,3.779c-2.098-0.994-4.404-0.825-6.607-1.222
		C103.339,195.387,97.101,195.687,91.79,192.223z"/>
	<path fill-rule="evenodd" clip-rule="evenodd" fill="#BE7213" d="M100.321,156.643c6.109,4.735,13.091,8.241,18.893,13.406
		c0.828,2.93-0.196,4.114-3.312,4.094c-6.78-0.044-13.561,0.276-20.339,0.229c-3.048-0.02-4.63,0.989-5.182,4.136
		c-0.705,4.027-1.871,7.971-2.838,11.951c-6.12-0.978-11.036-4.264-15.637-8.156C81.378,173.749,90.851,165.197,100.321,156.643z"/>
	<path fill-rule="evenodd" clip-rule="evenodd" fill="#E4CB43" d="M132.373,177.093c-2.353-2.344-5.393-3.422-8.401-4.557
		c0.325-5.792,0.705-11.582,0.947-17.379c0.076-1.85,0.835-2.361,2.604-2.368c4.397-0.017,8.805-0.513,13.182-0.28
		c3.445,0.181,4.486-1.215,4.479-4.322c-0.005-1.532,0.404-3.067,0.627-4.601c3.305,2.382,6.61,4.765,9.916,7.146
		c-6.659,7.577-13.316,15.157-19.973,22.734c0.002-0.004-0.229,0.032-0.229,0.032l0.045,0.233
		C134.504,174.853,133.438,175.972,132.373,177.093z"/>
	<path fill-rule="evenodd" clip-rule="evenodd" fill="#985C11" d="M71.907,182.303c4.601,3.892,9.517,7.178,15.637,8.156
		c-1.306,4.707-1.021,9.82-3.62,14.196c-7.72-1.764-15.356-3.788-22.681-6.856c-5.222-2.187-5.192-2.183-0.958-5.642
		C64.219,188.945,68.038,185.592,71.907,182.303z"/>
	<path fill-rule="evenodd" clip-rule="evenodd" fill="#C8AB1A" d="M158.912,86.045c-2.521,2.25-4.84,2.156-7.518-0.041
		c-2.835-2.326-6.035-4.21-9.098-6.256c-1.08-0.723-2.16-1.4-2.263-2.874c4.067-3.305,7.335-7.644,12.455-9.574
		c3.816,2.614,7.523,5.412,11.486,7.783c2.945,1.761,2.598,3.117,0.158,4.798c0.001,0.001,0.074-0.075,0.074-0.075
		c-0.615,1.344-1.494,2.434-2.903,3.012c-0.354,0.555-0.711,1.11-1.066,1.665C159.794,85.004,159.353,85.524,158.912,86.045z"/>
	<path fill-rule="evenodd" clip-rule="evenodd" fill="#978212" d="M91.79,192.223c5.311,3.464,11.549,3.164,17.442,4.229
		c2.203,0.397,4.51,0.228,6.607,1.222c-3.475,7.188-6.355,8.982-13.952,8.527c-3.253-0.195-6.499-0.562-9.746-0.871
		c-1.247-0.12-2.661,0.002-2.975-1.734C90.042,199.806,90.916,196.014,91.79,192.223z"/>
	<path fill-rule="evenodd" clip-rule="evenodd" fill="#C8AB1A" d="M87.835,131.401c3.643,5.683,7.397,11.3,10.104,17.523
		c-5.543,6.953-5.521,6.939-9.818-0.551c-1.756-3.059-3.629-6.049-5.448-9.069C83.321,135.972,85.627,133.718,87.835,131.401z"/>
	<path fill-rule="evenodd" clip-rule="evenodd" fill="#978212" d="M177.345,129.267c0.403-0.912,1.057-1.567,1.979-1.95
		C178.949,128.256,178.28,128.896,177.345,129.267z"/>
	<path fill-rule="evenodd" clip-rule="evenodd" fill="#978212" d="M172.512,133.946c0.72-0.652,1.44-1.303,2.161-1.954
		C174.329,133.058,173.583,133.682,172.512,133.946z"/>
	<path fill-rule="evenodd" clip-rule="evenodd" fill="#E4CB43" d="M160.236,84.483c0.355-0.555,0.712-1.11,1.066-1.665
		C161.272,83.581,160.854,84.096,160.236,84.483z"/>
	<polygon fill-rule="evenodd" clip-rule="evenodd" fill="#E4CB43" points="164.206,79.806 164.132,79.881 164.336,79.984 	"/>
	<path fill-rule="evenodd" clip-rule="evenodd" fill="#978212" d="M180.505,126.116c0.264-0.189,0.529-0.377,0.792-0.565
		C181.034,125.739,180.769,125.927,180.505,126.116z"/>
	<polygon fill-rule="evenodd" clip-rule="evenodd" fill="#C8AB1A" points="135.569,173.731 135.524,173.498 135.753,173.466 	"/>
	<path fill-rule="evenodd" clip-rule="evenodd" fill="#978212" d="M119.097,193.895c0.195-0.281,0.389-0.563,0.584-0.844
		C119.486,193.331,119.292,193.614,119.097,193.895z"/>
	<path fill-rule="evenodd" clip-rule="evenodd" fill="#E4CB43" d="M47.619,52.675c0.609-8.662,5.778-14.278,12.564-18.814
		c1.592,1.939,3.872,2.817,6.017,3.904c11.51,5.834,23.018,11.671,34.526,17.508c-1.313,1.349-2.626,2.698-3.934,4.043
		c-0.239,0.234-0.48,0.47-0.722,0.707c-6.743,6.642-13.488,13.284-20.233,19.926c-0.819-1.148-1.675-2.272-2.45-3.451
		c-4.619-7.023-7.5-14.94-11.439-22.315c-3.846-7.198-6.301-7.795-12.729-2.909C48.655,51.702,48.151,52.206,47.619,52.675z"/>
	<path fill-rule="evenodd" clip-rule="evenodd" fill="#16E01A" d="M133.718,74.475c-6.02,6.049-11.928,12.213-18.086,18.118
		c-8.638,8.279-16.39,17.359-24.349,26.258c-2.083,2.329-4.325,4.513-6.493,6.763c-2.844-5.219-5.253-10.69-8.938-15.425
		c0.048-0.705,0.1-1.412,0.145-2.117c0.258-4.08,1.698-6.029,6.429-5.075c4.242,0.857,9.599,2.604,12.848,0.145
		c3.126-2.368,1.464-7.98,2.317-12.099c0.826-3.987-0.825-9.293,2.272-11.727c2.845-2.234,7.68-0.215,11.63-0.032
		c8.526,0.394,8.512,0.471,8.631-8.207c0.019-1.274,0.181-2.546,0.276-3.817C125.585,68.286,129.526,71.615,133.718,74.475z"/>
	<path fill-rule="evenodd" clip-rule="evenodd" fill="#E04B14" d="M115.634,63.848c0.21,2.688,0.3,5.391,0.668,8.058
		c0.386,2.8-0.842,3.43-3.363,3.229c-3.254-0.258-6.53-0.283-9.798-0.325c-8.445-0.104-7.33-1.456-8.603,7.467
		c-0.663,4.64-1.195,9.31-1.504,13.986c-0.199,3.005-1.432,3.919-4.314,3.377c-4.16-0.781-8.534-0.35-12.507-2.198
		c4.43-3.071,3.115-7.193,2.071-11.267c7.184-8.536,15.249-16.211,23.32-23.88c0.215-0.184,0.431-0.369,0.646-0.554
		c1.016-1.011,2.031-2.022,3.046-3.032c0.34-0.164,0.68-0.327,1.021-0.491c0.167-0.146,0.356-0.249,0.57-0.306
		C109.497,60.342,113.301,61.01,115.634,63.848z"/>
	<path fill-rule="evenodd" clip-rule="evenodd" fill="#C8AB1A" d="M100.726,55.273C89.217,49.437,77.709,43.6,66.199,37.765
		c-2.145-1.087-4.424-1.965-6.017-3.904c9.93-4.387,19.794-4.543,29.614,0.372c6.741,3.375,13.518,6.676,20.254,10.06
		c1.096,0.549,3.174,0.672,1.78,2.852C108.13,49.854,104.427,52.563,100.726,55.273z"/>
	<path fill-rule="evenodd" clip-rule="evenodd" fill="#EFE19B" d="M47.619,52.675c0.532-0.469,1.037-0.973,1.6-1.401
		c6.428-4.886,8.883-4.29,12.729,2.909c3.939,7.375,6.82,15.292,11.439,22.315c0.775,1.179,1.63,2.303,2.45,3.451
		c-2.603,4.202-5.783,7.953-9.077,11.616c-3.796-7.766-7.441-15.611-11.447-23.267c-2.551-4.879-4.125-10.293-7.778-14.583
		C47.563,53.369,47.591,53.021,47.619,52.675z"/>
	<path fill-rule="evenodd" clip-rule="evenodd" fill="#11A613" d="M133.718,74.475c-4.192-2.86-8.132-6.189-13.318-7.216
		c-1.006-8.847-1.004-8.841,7.662-10.07c1.39-0.196,2.769-0.471,4.153-0.709c4.358,1.548,6.762,5.422,9.913,8.395
		c1.203,1.134,0.662,2.292-0.498,3.224C138.988,70.219,136.355,72.35,133.718,74.475z"/>
	<path fill-rule="evenodd" clip-rule="evenodd" fill="#E4CB43" d="M47.535,53.715c3.653,4.291,5.227,9.705,7.778,14.583
		c4.006,7.656,7.65,15.501,11.447,23.267c-1.186,2.312-2.325,4.661-4.74,6C57.263,85.642,51.737,74.031,47.625,61.84
		C46.678,59.031,46.193,56.442,47.535,53.715z"/>
	<path fill-rule="evenodd" clip-rule="evenodd" fill="#11A613" d="M75.852,110.189c3.685,4.734,6.094,10.206,8.938,15.425
		c-0.061,0.13-0.11,0.264-0.182,0.385c-1.301,2.164-2.314,5.361-4.956,5.314c-2.245-0.041-2.567-3.377-3.652-5.295
		c-1.119-1.976-2.045-4.058-3.055-6.095C73.916,116.678,74.883,113.435,75.852,110.189z"/>
	<path fill-rule="evenodd" clip-rule="evenodd" fill="#B73D0E" d="M74.555,97.838c-1.179,4.226-2.511,8.416-3.49,12.687
		c-0.827,3.612-2.143,3.369-4.396,1.121c-5.267-5.252-4.321-7.38-0.295-10.857c1.283-1.108,2.352-2.461,3.52-3.704
		C71.281,98.372,73.122,96.849,74.555,97.838z"/>
	<path fill-rule="evenodd" clip-rule="evenodd" fill="#B73D0E" d="M115.634,63.848c-2.333-2.838-6.137-3.506-8.748-5.935
		c3.313-3.567,8.163-4.928,11.715-8.295c1.723-1.632,3.754,0.972,5.651,1.657c-0.156,0.428-0.208,0.862-0.339,0.889
		C114.652,53.978,114.651,53.976,115.634,63.848z"/>
	<path fill-rule="evenodd" clip-rule="evenodd" fill="#DC9F53" d="M74.555,97.838c-1.434-0.989-3.274,0.534-4.661-0.754
		c2.797-3.636,5.592-7.272,8.39-10.909c1.044,4.073,2.358,8.195-2.071,11.267C75.657,97.574,75.107,97.707,74.555,97.838z"/>
	<path fill-rule="evenodd" clip-rule="evenodd" fill="#C8AB1A" d="M96.07,60.023c0.242-0.237,0.483-0.473,0.722-0.707
		C96.548,59.555,96.309,59.788,96.07,60.023z"/>
	<path fill-rule="evenodd" clip-rule="evenodd" fill="#B73D0E" d="M106.316,58.219c-0.341,0.164-0.681,0.327-1.021,0.491
		C105.637,58.546,105.977,58.383,106.316,58.219z"/>
	<path fill-rule="evenodd" clip-rule="evenodd" fill="#B73D0E" d="M102.25,61.742c-0.215,0.185-0.431,0.37-0.646,0.554
		C101.82,62.111,102.035,61.926,102.25,61.742z"/>
	<path fill-rule="evenodd" clip-rule="evenodd" fill="#978212" d="M185.668,106.861c-0.269-0.148-0.539-0.297-0.806-0.446
		C185.129,106.564,185.399,106.713,185.668,106.861z"/>
</g>
<path fill="none" stroke="#212222" stroke-width="14" stroke-miterlimit="10" d="M87.498,157.807c0,0-68.789-97.457-37.834-125.425
	C80.621,4.413,171.805,69.226,171.805,69.226s20.727-21.301,28.234-33.835s27.207,56.916,27.207,56.916
	S156.128,159.739,113.55,213.2c0,0-122.589,2.92-39.346-41.797C74.204,171.403,83.988,164.623,87.498,157.807z"/>
<path fill="#212222" d="M90.835,155.673"/>
<path fill="#212222" d="M90.825,154.216c0,0,57.916-52.015,75.404-82.673c17.49-30.658,9.029,6.382,9.029,6.382
	S92.59,168.513,82.783,168.89"/>
<path fill="#212222" d="M63.384,31.625c0,0,65.645,9.944,103.387,46.389c0,0,5.648-1.218-3.109-10.521
	c-8.759-9.303-97.727-48.207-103.744-38.101"/>
<path fill="#212222" d="M56.946,195.184c0,0,127.068-113.972,144.945-149.85c0,0,8.115-7.735,3.131-8.839
	c0,0-155.614,169.812-159.515,158.425c-3.901-11.387-0.18,0.969-0.18,0.969s15.126,14.076,67.568,19.826l-1.661-8.566
	C111.235,207.148,50.951,199.159,56.946,195.184z"/>
<path fill="#212222" d="M106.968,207.225c0,0,53.2-63.297,56.624-64.359c3.424-1.062,18.626-21.432,53.21-49.561
	c0,0-7.129-44.642-15.718-51.944c0,0,4.254,0.133,11.563,4.888l13.343,51.193c0,0-107.313,117.606-112.44,115.758
	C108.422,211.351,106.968,207.225,106.968,207.225z"/>
<path fill="#542B06" stroke="#212222" stroke-width="14" stroke-miterlimit="10" d="M289.365,159.105
	c0,0-12.512-1.069-17.013,17.969c0,0-29.828,47.619-68.707,27.953c0,0-32.225-15.6-7.353,11.182c0,0,74.34,25.646,83.317-4.617
	c8.978-30.263,9.564-37.193,13.978-32.401C298.002,183.982,304.241,152.091,289.365,159.105z"/>
<path fill="none" d="M147.813,268.145c0,0-10.187,91.855,0,118.855c0,0-24.68,5.5-41.497,14.5c0,0,5.312-111.744,14.498-133.372
	C120.814,268.128,123.626,265.289,147.813,268.145z"/>
<path fill="none" d="M147.813,268.145c0,0-10.187,91.855,0,118.855c0,0-24.68,5.5-41.497,14.5c0,0,5.312-111.744,14.498-133.372
	C120.814,268.128,123.626,265.289,147.813,268.145z"/>
<path fill="none" d="M147.813,268.145c0,0-10.187,91.855,0,118.855c0,0-24.68,5.5-41.497,14.5c0,0,5.312-111.744,14.498-133.372
	C120.814,268.128,123.626,265.289,147.813,268.145z"/>
<path fill="none" d="M147.813,268.145c0,0-10.187,91.855,0,118.855c0,0-24.68,5.5-41.497,14.5c0,0,5.312-111.744,14.498-133.372
	C120.814,268.128,123.626,265.289,147.813,268.145z"/>
<path fill="none" d="M147.813,268.145c0,0-10.187,91.855,0,118.855c0,0-24.68,5.5-41.497,14.5c0,0,5.312-111.744,14.498-133.372
	C120.814,268.128,123.626,265.289,147.813,268.145z"/>
<g>
	<path fill="#1AB777" stroke="#212222" stroke-width="14" stroke-miterlimit="10" d="M119.098,268.91
		c0,0,154.531,0.615,179.633,19.282s4.434,102,4.434,102s-68.687-25.999-86.343-7.333s-111.342,13.346-116.499,44.673
		S108.364,262.295,119.098,268.91z"/>
	<g>
		<path fill="none" d="M301.711,362.093c-0.068-0.152-0.139-0.331-0.211-0.568c-0.432-1.42-1.719-2.137-3.408-2.414
			C299.949,360.281,301.145,361.462,301.711,362.093z"/>
		<polygon fill="none" points="227.246,351.275 227.246,351.275 227.246,351.275 		"/>
		<path fill="#E4CB43" d="M301.711,362.093c-0.566-0.631-1.762-1.812-3.619-2.982c-5.15-0.844-14.063,2.415-14.063,2.415
			c-22.41-10.907-6.434,19.812-56.784-10.25l0,0l0,0c-0.782-0.467-1.578-0.947-2.392-1.443c-28.55-17.409-59.233-10.87-81.559-1.061
			c-0.054,9.38,0.196,18.438,0.915,26.322c27.8-11.946,64.117-22.451,83.037-6.901l34.684,3.832c0,0,37.029-4.5,36.801,2.5
			l3.375-11.964C301.982,362.56,301.85,362.402,301.711,362.093z"/>
		<path fill="none" d="M281.188,346.632c-0.043,0.016-0.084,0.032-0.127,0.049c0.033-0.011,0.059-0.019,0.059-0.019
			C281.143,346.651,281.164,346.643,281.188,346.632z"/>
		<path fill="none" d="M233.029,337.504c-1.001-0.624-2.016-1.269-3.052-1.95l0.002,0.003
			C231.003,336.244,232.019,336.886,233.029,337.504z"/>
		<path fill="#BE7213" d="M288.885,343.836c-0.057,0.014-0.111,0.025-0.168,0.04c-0.422,0.105-0.861,0.235-1.305,0.365
			c-1.203,0.366-2.482,0.832-3.842,1.421c-0.789,0.343-1.584,0.663-2.383,0.97c-0.023,0.011-0.045,0.02-0.068,0.03
			c0,0-0.025,0.008-0.059,0.019c-12.254,4.655-25.819,4.67-48.031-9.177c-1.011-0.618-2.026-1.26-3.05-1.947l-0.002-0.003
			c-2.738-1.799-5.6-3.795-8.605-6.014c-17.228-12.723-48.8-5.944-73.56,2.645c-1.426,0.494-2.826,0.995-4.202,1.499
			c-0.17,4.914-0.279,9.863-0.311,14.731c53.783-24.813,83.944,2.858,83.946,2.86l0,0c11.863,6.334,34.684,13.529,34.684,13.529
			c18.848-12.632,30.543-9.237,36.162-5.694c1.689,0.277,2.977,0.994,3.408,2.414c0.072,0.237,0.143,0.416,0.211,0.568
			c0.26,0.289,0.395,0.468,0.395,0.468l0,0c1.297,0.015,1.795-15.339,1.795-15.339S299.801,341.137,288.885,343.836z"/>
		<path fill="#BE7213" d="M224.854,349.832c0.814,0.496,1.61,0.977,2.392,1.443c-0.002-0.002-30.163-27.674-83.946-2.86
			c-0.001,0.118-0.004,0.238-0.005,0.356C165.621,338.962,196.304,332.423,224.854,349.832z"/>
		<path fill="#BE7213" d="M301.711,362.093c0.139,0.31,0.271,0.467,0.395,0.468l0,0
			C302.105,362.561,301.971,362.382,301.711,362.093z"/>
		<path fill="#BE7213" d="M284.029,361.525c0,0,8.912-3.259,14.063-2.415c-5.619-3.543-17.314-6.938-36.162,5.694
			c0,0-22.821-7.195-34.684-13.529C277.596,381.337,261.619,350.618,284.029,361.525z"/>
		<path fill="none" d="M303.832,323.525c0,3.112-1.561,4.898-4.096,5.747c2.648-0.752,3.719-2.27,4.104-3.678l-0.006-2.107
			C303.834,323.497,303.832,323.525,303.832,323.525z"/>
		<path fill="#E04B14" d="M303.84,325.595c0.354-1.291,0.135-2.484,0.035-2.906c-0.018,0.469-0.035,0.731-0.041,0.799
			L303.84,325.595z"/>
		<path fill="#E04B14" d="M299.736,329.272c-11.043,3.695-40.611-10.413-40.611-10.413c-52.575-24.876-89.897-25.259-113.485-20.025
			c-0.776,9.864-1.564,21.877-2.003,34.158c67.084-25.53,86.265,2.45,86.34,2.562c1.037,0.682,2.051,1.326,3.052,1.95
			c25.854,15.821,46.885,9.538,48.031,9.177c0.043-0.017,0.084-0.033,0.127-0.049c2.285-1.066,4.348-1.836,6.225-2.391
			c0.443-0.13,0.883-0.26,1.305-0.365c0.057-0.015,0.111-0.026,0.168-0.04c11.574-2.846,15.016,3.386,15.016,3.386l-0.061-21.627
			C303.455,327.003,302.385,328.521,299.736,329.272z"/>
		<path fill="#E04B14" d="M287.412,344.241c-1.877,0.555-3.939,1.324-6.225,2.391c0.799-0.307,1.594-0.627,2.383-0.97
			C284.93,345.073,286.209,344.607,287.412,344.241z"/>
		<path fill="#E04B14" d="M288.885,343.836c10.916-2.699,15.016,3.386,15.016,3.386S300.459,340.99,288.885,343.836z"/>
		<path fill="#E04B14" d="M281.061,346.681c-1.146,0.361-22.178,6.645-48.031-9.177
			C255.241,351.351,268.807,351.336,281.061,346.681z"/>
		<path fill="#E04B14" d="M147.813,332.185c24.76-8.589,56.332-15.367,73.56-2.645c3.005,2.219,5.867,4.215,8.605,6.014
			c-0.076-0.111-19.256-28.092-86.34-2.562c-0.008,0.23-0.019,0.46-0.026,0.691C144.987,333.18,146.387,332.679,147.813,332.185z"/>
		<path fill="#16E01A" d="M145.739,298.532c47.064-10.252,103.044,14.663,103.044,14.663c31.377,15.617,45.068,17.746,50.953,16.077
			c2.535-0.849,4.096-2.635,4.096-5.747c0,0,0.002-0.028,0.002-0.038l-0.002-0.962c0,0,0.018,0.06,0.043,0.163
			c0.188-5.231,0.008-33.287-25.377-34.496c0,0-78.434-13.522-130.685-13.023c0,0.007-1.058,9.553-2.151,23.381
			C145.688,298.544,145.713,298.538,145.739,298.532z"/>
		<path fill="#16E01A" d="M303.834,323.487c0.006-0.067,0.023-0.33,0.041-0.799c-0.025-0.104-0.043-0.163-0.043-0.163
			L303.834,323.487z"/>
		<path fill="#16E01A" d="M248.783,313.195c0,0-55.98-24.915-103.044-14.663c-0.025,0.006-0.051,0.012-0.076,0.018
			c-0.008,0.097-0.015,0.188-0.023,0.284c23.588-5.233,60.911-4.851,113.485,20.025c0,0,29.568,14.108,40.611,10.413
			C293.852,330.941,280.16,328.813,248.783,313.195z"/>
		<path fill="none" d="M114.241,312.859c2.334-1.832,4.756-3.486,7.251-4.977C116.623,310.673,114.241,312.859,114.241,312.859z"/>
		<path fill="none" d="M112.297,347.222c0.215-0.112,0.423-0.216,0.638-0.327C112.518,347.106,112.297,347.222,112.297,347.222z"/>
		<path fill="none" d="M112.297,347.222l1.944-34.362c5.743-44,9.133-36,9.133-36c6.973-1.091,15.31-1.603,24.439-1.69
			c-24.187-2.855-26.999-0.017-26.999-0.017c-7.03,16.552-11.791,85.886-13.638,117.517l3.743-24.477L112.297,347.222z"/>
		<path fill="none" d="M127.535,356.857c-10.314,6.063-16.615,11.335-16.615,11.335
			C116.649,363.864,122.188,360.108,127.535,356.857z"/>
		<path fill="none" d="M106.317,408.524c16.816-9,41.497-14.5,41.497-14.5c-1.755-4.651-2.903-11.231-3.604-18.931
			c-20.015,8.601-34.816,17.469-36.32,18.379C107.371,402.429,106.317,408.524,106.317,408.524z"/>
		<path fill="#C8AB1A" d="M143.294,348.771c-5.904,2.595-11.219,5.416-15.76,8.086c-5.346,3.251-11.971,8.173-17.701,12.501
			l-1.945,24.114c-0.026,0.436,0.024-0.421,0,0c1.504-0.91,16.306-9.778,36.32-18.379
			C143.491,367.21,143.241,358.151,143.294,348.771z"/>
		<path fill="#985C11" d="M110.919,349.475l-1.085,19.884c0,0,7.386-6.438,17.701-12.501c5.459-3.32,10.716-6.113,15.765-8.442
			c0.032-4.868,0.141-9.817,0.311-14.731c-15.625,5.712-27.819,11.762-30.676,13.211
			C112.72,347.006,111.135,349.362,110.919,349.475z"/>
		<path fill="#BE7213" d="M143.294,348.771c0-0.118,0.004-0.238,0.005-0.356c-5.048,2.329-10.305,5.122-15.765,8.442
			C132.075,354.188,137.391,351.366,143.294,348.771z"/>
		<path fill="#B73D0E" d="M114.241,312.859l-3.322,36.615c0,0,1.598-2.368,2.015-2.58c11.203-5.803,21.387-9.676,30.676-13.211
			c0.438-12.281,1.253-24.985,2.029-34.85c-10.974,2.435-18.968,6.083-24.147,9.049
			C118.997,309.373,116.575,311.027,114.241,312.859z"/>
		<path fill="#E04B14" d="M143.61,333.684c0.008-0.231,0.018-0.461,0.026-0.691c-9.289,3.535-19.499,8.1-30.702,13.902
			C115.791,345.445,127.985,339.396,143.61,333.684z"/>
		<path fill="#11A613" d="M114.241,312.859c0,0,2.381-2.187,7.251-4.977c7.514-4.486,15.697-7.479,24.17-9.333
			c1.093-13.828,2.15-23.374,2.151-23.381c-9.13,0.088-17.467,0.6-24.439,1.69C123.374,276.859,119.984,268.859,114.241,312.859z"/>
		<path fill="#16E01A" d="M121.493,307.883c5.179-2.966,13.173-6.614,24.147-9.049c0.008-0.097,0.015-0.188,0.023-0.284
			C137.189,300.403,129.006,303.396,121.493,307.883z"/>
	</g>
</g>
<path fill="#0D995C" d="M144.209,375.094c0,0,2.292,15.938,4.958,18.506s0,0,0,0s-19.033,1.949-42.85,14.925l1.572-15.052
	C107.889,393.473,116.152,385.2,144.209,375.094z"/>
</svg>
