<?xml version="1.0" encoding="utf-8"?>
<!-- Generator: Adobe Illustrator 16.0.0, SVG Export Plug-In . SVG Version: 6.00 Build 0)  -->
<!DOCTYPE svg PUBLIC "-//W3C//DTD SVG 1.1//EN" "http://www.w3.org/Graphics/SVG/1.1/DTD/svg11.dtd">
<svg version="1.1" id="Layer_1" xmlns="http://www.w3.org/2000/svg" xmlns:xlink="http://www.w3.org/1999/xlink" x="0px" y="0px"
	 width="512px" height="512px" viewBox="0 0 512 512" enable-background="new 0 0 512 512" xml:space="preserve">
<rect x="0.893" fill="#A0B74E" width="512.221" height="314.5"/>
<path fill="#F2DE22" stroke="#212222" stroke-width="14" stroke-miterlimit="10" d="M0.893,303.5c0,0,54.607-98.598,50.607-122.799
	c0,0,124.184,154.799,147.092,134.799c0,0,152.752-29.896,160.33-40.448c0,0,49.578,58.015,61.578,42.231c0,0,43-66.86,43-98.322
	l49.614,64.539v229.588H0.893V303.5z"/>
<path fill="#DDAA2A" stroke="#212222" stroke-width="14" stroke-miterlimit="10" d="M6.5,341.197c0,0,57.149-83.572,58.575-93.135
	c0,0,204.425,184.438,288.425,66.438c0,0,40.604,53,48.802,46c0,0,37.198-12.725,39.198-20.861c2-8.138-1,51.861,14,49.861
	c0,0,36-64.389,37-70.693c1-6.306,19.5,28.088,19.5,28.088l1.114,166.193H0.893L6.5,341.197z"/>
<polygon fill="#684905" stroke="#212222" stroke-width="14" stroke-miterlimit="10" points="0,426.853 3.706,426.853 
	513.114,426.853 513.114,513.088 0.893,513.088 "/>
<g>
	<path fill="#D78725" d="M294.581,84.791c0.065,1.829,0.188,3.658,0.188,5.487c0.02,61.113,0.453,122.23-0.189,183.337
		c-0.232,22.273-6.934,43.535-15.85,63.97c-22.729,52.097-62.225,84.719-116.359,100.46c-4.616,1.342-9.088,2.882-13.973,2.137
		c-0.195-6.558-0.391-13.111-0.585-19.674c1.434-0.396,2.849-0.888,4.303-1.188c70.158-14.639,120.09-79.385,122.916-150.631
		c0.237-5.992-0.892-6.967-6.755-6.781c-3.229,0.101-4.938,1.615-5.326,4.74c-0.354,2.807-0.684,5.61-1.021,8.416
		c-3.039-0.207-3.807,2.239-4.812,4.263c-1.996,4.013-3.474,8.333-5.837,12.104c-17.625,28.131-40.701,50.305-71.227,64.104
		c-6.646,3.004-13.417,5.82-20.785,6.668c-0.129-1.99-0.37-3.979-0.371-5.971c-0.017-28.164,0.018-56.326-0.003-84.486
		c-0.006-8.241-0.069-8.229-7.949-9.053c-0.983-0.104-1.943-0.438-2.914-0.66c-0.525-12.735,1.12-25.259,3.975-37.62
		c14.667-63.513,51.515-108.027,112.792-131.672C274.471,89.006,284.574,87.14,294.581,84.791z M259.125,163.441
		c0.009-8.155-5.288-13.609-13.179-13.567c-7.594,0.04-12.976,5.502-13.061,13.257c-0.086,7.857,5.547,13.896,13.044,13.98
		C253.649,177.199,259.116,171.537,259.125,163.441z"/>
	<path fill="#DF9D1C" d="M147.813,420.508c0.195,6.563,0.39,13.116,0.585,19.674c-5.902,1.896-12.034,2.149-18.146,2.66
		c-2.774,0.231-3.491-0.989-3.403-3.384c0.055-1.496-0.017-2.997-0.017-4.496c-0.001-55.303,0.204-110.606-0.09-165.909
		c-0.141-26.438,3.711-52.024,13.446-76.632c15.565-39.342,42.006-69.278,78.59-90.344c21.699-12.493,45.375-18.457,70.088-20.778
		c2.399-0.226,6.264-1.64,5.713,3.492c-10.007,2.349-20.11,4.215-29.782,7.946c-61.277,23.645-98.125,68.159-112.792,131.672
		c-2.854,12.361-4.5,24.885-3.975,37.62c-1.982,1.516-1.949,3.656-1.947,5.867c0.044,49.248,0.061,98.498,0.088,147.742
		C146.174,417.438,145.793,419.384,147.813,420.508z"/>
	<path fill="#D78725" d="M358.922,161.465c-16.438,1.076-32.902,0.165-49.351,0.51c-3.5,0.073-2.479-2.387-2.489-4.119
		c-0.099-18.292-0.166-36.585-0.157-54.878c0.003-6.976,0.227-13.951,0.344-20.927c1.956,0.886,3.999,1.62,5.854,2.684
		c11.271,6.469,20.35,15.413,27.845,25.869C351.836,125.768,358.372,142.593,358.922,161.465z"/>
	<path fill="#D78725" d="M361.324,194.08c-8.853,22.984-25.454,36.792-49.479,41.823c-3.264,0.684-5.111,0.355-5.043-3.982
		c0.297-17.82,0.206-35.647,0.24-53.473c0.004-2.004-0.422-4.301,2.928-3.237c0.612,0.532,1.143,1.312,1.854,1.562
		C328.31,182.576,344.819,188.323,361.324,194.08z"/>
	<path fill="#212222" d="M394.309,127.791c-10.036-23.687-25.363-42.392-49.22-53.944c-12.063-5.843-24.12-10.162-37.438-10.882
		c-37.188-2.012-71.212,8.229-103.104,26.689c-0.717,0.415-1.407,0.881-2.11,1.321c-10.753,6.744-20.693,14.544-29.987,23.172
		l-14.691,15.517c-30.365,36.172-47.201,77.825-47.803,125.096c-0.751,58.981-0.167,117.977-0.196,176.961
		c-0.004,8.156-0.228,16.314-0.337,24.471c-0.045,3.348,1.161,4.983,4.98,5.114c23.227,0.794,45.734-3.012,67.604-10.529
		c23.396-8.043,44.26-20.556,62.79-36.951c1.492-1.321,2.932-2.819,4.661-3.73c4.415-2.325,5.693,2.052,7.769,4.186
		c2.412,2.479-0.379,3.267-1.961,4.255c-12.037,7.507-16.794,18.775-16.832,32.495c-0.008,2.892,0.871,4.389,4.355,4.295
		c9.991-0.273,19.991-0.1,29.989-0.1c10.164,0,20.33,0.003,30.494-0.002c1.813-0.001,3.57,0.366,3.676-2.58
		c0.62-17.763-9.047-32.847-25.393-37.324c-6.029-1.652-10.49-4.307-14.242-8.882c-0.838-1.027-1.668-2.115-2.691-2.934
		c-3.961-3.146-3.785-5.918-0.467-9.834c32.73-38.576,47.757-83.572,47.837-133.841c0.006-3.904,1.598-6.3,5.249-6.509
		c6.313-0.362,11.831-3.308,17.271-5.678c18.364-8,31.744-21.559,40.445-39.629c3.77-7.836,6.041-16.197,7.78-24.669
		c0.521-2.546,1.435-3.281,3.883-3.166c3.823,0.18,7.667-0.072,11.493,0.084c2.997,0.123,4.104-1.038,4.161-4.061
		C402.559,159.566,400.845,143.213,394.309,127.791z M273.962,426.875c8.851-0.427,14.037,4.783,18.226,11.683
		c1.773,2.926,1.232,4.258-2.246,4.229c-1.996-0.013-4,0.115-5.911-0.646c-10.603,0-21.204,0-31.757-0.002
		C254.919,431.811,262.469,426.438,273.962,426.875z M294.582,273.615c-0.234,22.273-6.934,43.535-15.85,63.97
		c-22.729,52.097-62.223,84.719-116.359,100.46c-4.617,1.342-9.089,2.882-13.973,2.137c-5.903,1.896-12.034,2.149-18.146,2.66
		c-2.775,0.231-3.491-0.989-3.403-3.384c0.054-1.496-0.017-2.997-0.017-4.496c-0.001-55.303,0.204-110.606-0.09-165.909
		c-0.141-26.438,3.711-52.025,13.446-76.632c15.565-39.342,42.006-69.279,78.59-90.344c21.698-12.493,45.375-18.457,70.088-20.778
		c2.399-0.226,6.264-1.64,5.713,3.492c0.065,1.829,0.188,3.658,0.19,5.487C294.791,151.391,295.225,212.509,294.582,273.615z
		 M310.042,81.231c-0.591-0.102-1.249-0.311-1.814-0.153C308.792,80.92,309.449,81.129,310.042,81.231z M311.846,235.903
		c-3.264,0.684-5.111,0.356-5.043-3.982c0.297-17.821,0.206-35.648,0.24-53.473c0.004-2.004-0.422-4.3,2.926-3.238
		c0.614,0.533,1.142,1.312,1.853,1.562c16.485,5.804,32.999,11.551,49.504,17.308C352.476,217.064,335.87,230.872,311.846,235.903z
		 M365.953,177.642c-0.291,2.115-0.479,4.257-0.795,6.363c0.314-2.106,0.502-4.249,0.792-6.364c0.162-1.167-0.051-1.859-0.557-2.258
		C365.9,175.782,366.114,176.473,365.953,177.642z M375.356,161.775c-5.48-0.032-10.955-0.203-16.436-0.31
		c-16.44,1.076-32.902,0.165-49.351,0.51c-3.5,0.073-2.479-2.387-2.489-4.119c-0.096-18.292-0.166-36.585-0.157-54.878
		c0.003-6.976,0.227-13.951,0.344-20.926c1.958,0.886,3.999,1.621,5.854,2.683c11.271,6.469,20.35,15.413,27.845,25.869
		c10.87,15.164,17.406,31.989,17.956,50.861c5.479,0.107,10.954,0.278,16.427,0.309c8.956,0.052,8.956,0.015,7.729-8.938
		c-4.692-34.251-32.51-63.457-66.04-70.467c33.532,7.009,61.35,36.215,66.045,70.468
		C384.307,161.79,384.307,161.827,375.356,161.775z"/>
	<path fill="#F2AC46" d="M284.029,442.141c-10.604,0-21.204,0-31.754,0c2.647-10.328,10.198-15.697,21.691-15.264
		c1.284,1.48,2.54,2.987,3.857,4.438C280.688,434.472,283.822,437.464,284.029,442.141z"/>
	<path fill="#E88D2E" d="M284.029,442.141c-0.207-4.677-3.342-7.669-6.206-10.822c-1.317-1.45-2.573-2.957-3.857-4.438
		c8.849-0.43,14.033,4.78,18.222,11.685c1.773,2.925,1.234,4.257-2.246,4.229C287.945,442.771,285.941,442.899,284.029,442.141z"/>
	<path fill="#212222" d="M147.813,420.508c-2.02-1.124-1.639-3.065-1.64-4.865c-0.027-49.248-0.044-98.496-0.088-147.746
		c-0.002-2.211-0.035-4.352,1.947-5.867c0.971,0.229,1.93,0.563,2.914,0.662c7.88,0.822,7.943,0.813,7.949,9.055
		c0.021,28.158-0.013,56.32,0.003,84.484c0.001,1.988,0.242,3.979,0.371,5.973c-0.09,12.641-0.051,25.281-0.338,37.922
		c-0.103,4.543,1.98,4.729,5.183,3.336c6.517-2.838,13.188-5.42,19.418-8.807c27.758-15.066,48.95-36.602,63.087-64.973
		c8.592-17.242,14.225-35.283,15.311-54.617c0.34-2.805,0.67-5.608,1.021-8.416c0.393-3.125,2.1-4.643,5.326-4.739
		c5.863-0.187,6.992,0.79,6.755,6.78c-2.826,71.246-52.758,135.993-122.916,150.632C150.662,419.62,149.247,420.107,147.813,420.508
		z"/>
	<path fill="#DF9D1C" d="M261.93,275.064c-1.086,19.332-6.718,37.373-15.311,54.617c-14.137,28.367-35.329,49.898-63.087,64.973
		c-6.23,3.383-12.901,5.965-19.418,8.803c-3.203,1.396-5.286,1.207-5.183-3.336c0.287-12.637,0.248-25.281,0.338-37.922
		c7.369-0.848,14.139-3.664,20.785-6.668c30.526-13.797,53.602-35.971,71.227-64.102c2.363-3.772,3.841-8.097,5.837-12.105
		C258.123,277.305,258.891,274.857,261.93,275.064z"/>
	<path fill="#212222" d="M259.125,163.441c-0.009,8.096-5.476,13.758-13.195,13.67c-7.498-0.085-13.13-6.123-13.044-13.98
		c0.085-7.755,5.467-13.217,13.061-13.257C253.837,149.832,259.134,155.286,259.125,163.441z"/>
</g>
<ellipse fill="#FFFFFF" stroke="#212222" stroke-width="14" stroke-miterlimit="10" cx="221.371" cy="174.723" rx="37.673" ry="44.238"/>
<ellipse fill="#212222" stroke="#212222" stroke-miterlimit="10" cx="221.371" cy="179.031" rx="19.95" ry="24.074"/>
<path fill="#212222" d="M82.158,140.881c0,0-48.846-61.617-10.363-92.756c0,0,37.798-37.88,79.075,3.068
	c0,0,11.624-36.173,40.139-14.844c0,0,45.879,30.487-3.397,94.807c0,0-32.633,41.321-56.943,41.867c0,0,8.442,1.287,2.138,9.409
	c0,0-41.313,23.27-52.187-0.085C80.619,182.347,58.715,157.479,82.158,140.881z"/>
<path fill="#212222" d="M127.832,166.952c0,0-54.314,101.435-43.237,127.888c13.279,31.71,62.833,72.027,59.378,0
	c0,0-14.894-94.055-3.879-128.25C140.094,166.59,137.566,153.797,127.832,166.952z"/>
<g>
	<path fill="#DD8F23" d="M180.736,127.686c-8.81,11.57-20.756,21.097-34.314,28.344c-8.899,4.758-17.687,10.2-27.832,11.533
		c-1.918,0.251-3.295,1.464-3.117,3.074c0.234,2.124,1.843,3.361,4.25,2.71c2.541-0.687,4.394-1.032,4.886,2.671
		c0.491,3.688-1.28,4.343-4.033,5.211c-3.247,1.024-6.307,2.771-9.542,3.86c-15.854,5.328-31.181-6.795-29.82-23.53
		c0.539-6.646,4.138-11.408,9.801-14.651c13.08-7.491,25.892-15.398,37.426-25.36c9.391-8.114,17.67-17.069,22.46-28.821
		c1.56-3.826,1.962-7.652,2.206-11.628c0.62-10.081,1.569-20.17,7.322-29.198c4.85-7.61,14.263-10.746,21.892-7.125
		c10.238,4.859,16.511,12.991,16.262,25.01C198.167,90.04,193.754,109.434,180.736,127.686z"/>
	<path fill="#DD8F23" d="M135.609,51.792c-3.24-3.199-7.296-5.242-11.096-7.652c-0.936,0.256-1.643,0.017-2.035-0.874
		c-1-0.497-2.008-0.998-3.017-1.5c-0.36,0.134-0.64,0.049-0.835-0.255c-2.148-0.637-4.298-1.273-6.451-1.911l-0.339,0.127
		c0,0-0.257-0.234-0.25-0.234c-0.254-0.082-0.523-0.114-0.801-0.096c-0.514,0.493-1.034,1.126-1.479,0.031
		c-1.651-0.225-3.311-0.449-4.972-0.674c0,0-0.32-0.045-0.315-0.044c-25.123,1.151-43.734,26.144-37.848,50.83
		c0.269,0.144,0.306,0.347,0.111,0.604c0.147,0.679,0.297,1.362,0.448,2.045c0.177,0.439,0.356,0.877,0.531,1.308
		c0.248,0.595,0.499,1.198,0.748,1.8c0.07,0.422,0.14,0.842,0.208,1.255c0.189,0.681,0.381,1.37,0.575,2.061
		c0.891,0.501,1.14,1.296,0.913,2.304c1.647,3.796,3.298,7.596,4.948,11.396c0.914,2.118,1.672,4.329,2.78,6.329
		c1.463,2.642,3.025,3.537,4.573-0.402c1.321-3.361,2.966-6.606,4.471-9.908c1.899-2.625,3.804-5.254,5.706-7.885
		c0.224-0.292,0.449-0.584,0.667-0.868c11.337-13.878,24.823-25.312,39.13-35.808c1.478-1.033,2.962-2.057,4.433-3.101
		C142.721,56.194,142.624,55.117,135.609,51.792z"/>
	<path fill="#8C8807" d="M134.131,180.701"/>
	<path fill="#8C8807" d="M110.784,39.397c-0.514,0.493-1.034,1.126-1.479,0.031C109.804,39.418,110.294,39.408,110.784,39.397z"/>
	<path fill="#8C8807" d="M68.789,98.612c0.891,0.501,1.14,1.296,0.913,2.304C68.832,100.403,68.542,99.629,68.789,98.612z"/>
	<path fill="#8C8807" d="M124.513,44.14c-0.936,0.256-1.643,0.017-2.035-0.874C123.162,43.561,123.838,43.851,124.513,44.14z"/>
	<path fill="#8C8807" d="M66.728,92.188c0.177,0.439,0.356,0.877,0.531,1.308C67.081,93.056,66.904,92.622,66.728,92.188z"/>
	<path fill="#8C8807" d="M68.007,95.297c0.07,0.422,0.14,0.842,0.208,1.255C68.144,96.127,68.076,95.712,68.007,95.297z"/>
	<path fill="#8C8807" d="M92.179,100.445c0.224-0.292,0.449-0.584,0.667-0.868c-0.004,0.007-0.181,0.557-0.181,0.557L92.179,100.445
		z"/>
	<polygon fill="#8C8807" points="104.333,38.754 104.017,38.709 104.214,38.54 	"/>
	<path fill="#8C8807" d="M66.169,89.54c0.269,0.144,0.306,0.347,0.111,0.604c-0.002-0.004-0.271-0.254-0.271-0.254L66.169,89.54z"/>
	<path fill="#8C8807" d="M112.038,30.994c0,0,0.031,0.095,0.032,0.096L112.038,30.994z"/>
	<path fill="#8C8807" d="M112.174,39.601l-0.339,0.127c0,0-0.257-0.234-0.25-0.234c0.006,0.002,0.346-0.157,0.346-0.157
		L112.174,39.601z"/>
	<path fill="#8C8807" d="M119.46,41.766c-0.36,0.134-0.64,0.049-0.835-0.255C119.004,41.319,119.282,41.406,119.46,41.766z"/>
</g>
<path fill="none" stroke="#212222" stroke-miterlimit="10" d="M354.5,461.409"/>
<path fill="#DF9D1C" d="M307.268,82.052c0,0,71.56,6.468,71.4,78.958l-22.487,0.455C356.181,161.465,362.918,133.604,307.268,82.052
	z"/>
<path fill="#DF9D1C" d="M307.969,175.21l55.425,0.173c0,0,5.757,4.277-4.068,18.697L307.969,175.21"/>
<path fill="none" stroke="#212222" stroke-width="14" stroke-miterlimit="10" d="M347.5,164.465c0,0,6.168-48.568,31.168-43.553"/>
<path fill="#212222" d="M356.181,161.465c0,0-16.647,1.096,15.836-39.435c0,0,18.483,34.455,16.483,41.462
	C388.5,163.493,362.77,169.162,356.181,161.465z"/>
<path fill="#2D2D2D" d="M367.132,114.816c0,0,23.249,31.992,21.368,48.677l-25.416,2.011c0,0-5.584-20.004-15.584-30.004
	C347.5,135.5,357.764,115.132,367.132,114.816z"/>
</svg>
