<?xml version="1.0" encoding="utf-8"?>
<!-- Generator: Adobe Illustrator 16.0.0, SVG Export Plug-In . SVG Version: 6.00 Build 0)  -->
<!DOCTYPE svg PUBLIC "-//W3C//DTD SVG 1.1//EN" "http://www.w3.org/Graphics/SVG/1.1/DTD/svg11.dtd">
<svg version="1.1" id="Layer_1" xmlns="http://www.w3.org/2000/svg" xmlns:xlink="http://www.w3.org/1999/xlink" x="0px" y="0px"
	 width="512px" height="512px" viewBox="0 0 512 512" enable-background="new 0 0 512 512" xml:space="preserve">
<g>
	<path fill="#FEFEFE" d="M257.014,513c-83.979,0-167.959-0.021-251.938,0.085c-3.261,0.004-4.18-0.434-4.178-4.009
		C1.015,341.117,1.017,173.158,0.893,5.199C0.89,1.455,1.83,0.912,5.299,0.914C173.091,1.013,340.884,1.012,508.676,0.92
		c3.403-0.002,4.439,0.443,4.438,4.254c-0.13,167.959-0.127,335.918-0.013,503.877c0.003,3.526-0.836,4.042-4.149,4.037
		C424.972,512.977,340.992,513,257.014,513z M272.777,455.225c10.164,0,20.33,0.003,30.494-0.002
		c1.809-0.001,3.567,0.366,3.672-2.58c0.619-17.766-9.043-32.849-25.389-37.327c-6.031-1.652-10.49-4.304-14.242-8.88
		c-0.843-1.026-1.668-2.114-2.695-2.933c-3.961-3.146-3.785-5.918-0.463-9.834c32.728-38.576,47.753-83.573,47.833-133.841
		c0.006-3.903,1.598-6.3,5.249-6.509c6.315-0.361,11.83-3.308,17.271-5.678c18.364-8,31.744-21.559,40.445-39.629
		c3.771-7.836,6.041-16.197,7.78-24.669c0.521-2.546,1.435-3.281,3.883-3.166c3.823,0.18,7.667-0.072,11.493,0.084
		c2.997,0.123,4.107-1.037,4.16-4.061c0.289-16.634-1.425-32.987-7.961-48.409c-10.039-23.688-25.363-42.393-49.22-53.944
		c-12.065-5.843-24.119-10.162-37.438-10.882c-37.188-2.012-71.211,8.229-103.104,26.689c-0.718,0.415-1.407,0.881-2.11,1.321
		c-10.753,6.744-20.693,14.544-29.987,23.172c-1.914,1.776-3.623,3.576-6.235,0.927c-4.672-4.738-9.417-9.404-14.181-14.051
		c-2.311-2.255-3.327-4.517-2.249-7.97c2.242-7.175-5.72-17.817-12.889-17.221c-9.791,0.814-15.646,6.624-14.728,16.159
		c0.892,9.262,7.519,14.193,17.129,12.541c2.976-0.512,5.174,0.242,6.942,2.622c3.388,4.56,7.364,8.593,11.363,12.604
		c4.739,4.752,4.589,4.628,0.157,9.907c-30.366,36.172-47.201,77.825-47.803,125.096c-0.751,58.979-0.167,117.974-0.196,176.961
		c-0.004,8.156-0.228,16.313-0.337,24.468c-0.045,3.351,1.161,4.986,4.98,5.117c23.227,0.794,45.734-3.015,67.604-10.532
		c23.396-8.043,44.26-20.553,62.79-36.951c1.492-1.321,2.932-2.819,4.661-3.73c4.414-2.325,5.693,2.051,7.767,4.183
		c2.412,2.479-0.377,3.267-1.962,4.255c-12.037,7.507-16.794,18.778-16.832,32.495c-0.008,2.892,0.871,4.389,4.355,4.295
		C252.777,455.05,262.779,455.225,272.777,455.225z"/>
	<path fill="#1E1C1D" d="M272.777,455.225c-9.998,0-20-0.175-29.991,0.097c-3.484,0.094-4.363-1.403-4.355-4.295
		c0.038-13.717,4.795-24.988,16.832-32.495c1.584-0.988,4.375-1.776,1.963-4.255c-2.075-2.132-3.354-6.508-7.768-4.183
		c-1.729,0.911-3.169,2.409-4.661,3.73c-18.53,16.398-39.394,28.908-62.79,36.951c-21.87,7.519-44.377,11.326-67.604,10.532
		c-3.819-0.131-5.025-1.768-4.98-5.117c0.109-8.155,0.333-16.312,0.337-24.468c0.029-58.986-0.555-117.981,0.196-176.961
		c0.602-47.271,17.438-88.924,47.803-125.096c4.432-5.279,4.582-5.155-0.157-9.907c-4-4.011-7.976-8.044-11.363-12.604
		c-1.768-2.38-3.967-3.134-6.942-2.622c-9.61,1.652-16.237-3.279-17.129-12.541c-0.918-9.535,4.937-15.345,14.728-16.159
		c7.169-0.597,15.131,10.046,12.889,17.221c-1.079,3.453-0.063,5.715,2.249,7.97c4.763,4.646,9.509,9.313,14.181,14.051
		c2.612,2.649,4.321,0.85,6.235-0.927c9.294-8.628,19.234-16.428,29.987-23.172c0.703-0.44,1.393-0.906,2.11-1.321
		c31.892-18.46,65.917-28.701,103.104-26.689c13.319,0.72,25.373,5.039,37.438,10.882c23.855,11.552,39.182,30.257,49.22,53.944
		c6.536,15.422,8.25,31.775,7.962,48.409c-0.054,3.023-1.164,4.184-4.161,4.061c-3.826-0.156-7.67,0.096-11.493-0.084
		c-2.448-0.115-3.361,0.62-3.883,3.166c-1.739,8.472-4.009,16.833-7.78,24.669c-8.701,18.07-22.081,31.629-40.445,39.629
		c-5.441,2.37-10.956,5.316-17.271,5.678c-3.651,0.209-5.243,2.605-5.249,6.509c-0.08,50.267-15.105,95.265-47.834,133.841
		c-3.321,3.916-3.497,6.688,0.464,9.834c1.026,0.817,1.854,1.905,2.694,2.933c3.752,4.576,8.213,7.228,14.242,8.88
		c16.346,4.479,26.01,19.563,25.39,37.327c-0.104,2.946-1.863,2.579-3.673,2.58C293.107,455.228,282.941,455.225,272.777,455.225z
		 M284.029,442.141c1.912,0.76,3.916,0.632,5.912,0.646c3.479,0.027,4.02-1.305,2.246-4.229
		c-4.188-6.901-9.375-12.111-18.224-11.683c-11.493-0.438-19.043,4.936-21.69,15.264
		C262.825,442.141,273.428,442.141,284.029,442.141z M361.324,194.08c3.814-4.841,3.845-10.741,4.629-16.438
		c0.322-2.336-0.854-2.766-2.863-2.757c-17.707,0.074-35.418-0.583-53.12,0.326c-3.349-1.063-2.923,1.233-2.927,3.237
		c-0.034,17.825,0.057,35.652-0.24,53.473c-0.071,4.338,1.779,4.666,5.043,3.982C335.87,230.872,352.476,217.064,361.324,194.08z
		 M307.269,82.051c-0.12,6.976-0.341,13.951-0.344,20.927c-0.009,18.293,0.06,36.586,0.157,54.878
		c0.01,1.732-1.011,4.192,2.489,4.119c16.448-0.345,32.909,0.566,49.351-0.51c5.479,0.107,10.954,0.278,16.433,0.31
		c8.952,0.052,8.952,0.015,7.727-8.938c-5.008-36.535-36.322-67.329-72.818-71.569C309.233,81.147,307.914,80.473,307.269,82.051z
		 M294.581,84.791c0.551-5.132-3.313-3.718-5.713-3.492c-24.714,2.321-48.39,8.285-70.088,20.778
		c-36.584,21.065-63.025,51.002-78.59,90.344c-9.735,24.607-13.587,50.194-13.446,76.632c0.294,55.303,0.089,110.606,0.09,165.909
		c0,1.499,0.071,3,0.017,4.496c-0.088,2.395,0.628,3.615,3.403,3.384c6.112-0.511,12.243-0.765,18.146-2.66
		c4.884,0.745,9.356-0.795,13.973-2.137c54.138-15.741,93.63-48.363,116.359-100.46c8.916-20.435,15.615-41.696,15.85-63.97
		c0.643-61.106,0.209-122.224,0.189-183.337C294.77,88.449,294.646,86.62,294.581,84.791z"/>
	<path fill="#F2AC46" d="M358.922,161.465c-16.44,1.076-32.902,0.165-49.351,0.51c-3.5,0.073-2.479-2.387-2.489-4.119
		c-0.099-18.292-0.166-36.585-0.157-54.878c0.003-6.976,0.224-13.951,0.344-20.927c1.956,0.886,3.999,1.62,5.854,2.684
		c11.271,6.469,20.35,15.413,27.845,25.869C351.836,125.768,358.372,142.593,358.922,161.465z"/>
	<path fill="#F2AC46" d="M361.324,194.08c-8.85,22.984-25.454,36.792-49.479,41.823c-3.264,0.684-5.114,0.355-5.043-3.982
		c0.297-17.82,0.206-35.647,0.24-53.473c0.004-2.004-0.422-4.301,2.928-3.237c0.612,0.532,1.14,1.312,1.851,1.562
		C328.31,182.576,344.819,188.323,361.324,194.08z"/>
	<path fill="#E88D2E" d="M358.922,161.465c-0.55-18.872-7.086-35.697-17.956-50.861c-7.495-10.456-16.574-19.4-27.845-25.869
		c-1.854-1.063-3.896-1.798-5.854-2.684c0.646-1.578,1.966-0.903,2.993-0.784c36.496,4.24,67.812,35.034,72.818,71.569
		c1.227,8.953,1.227,8.99-7.728,8.938C369.876,161.743,364.399,161.572,358.922,161.465z"/>
	<path fill="#E88D2E" d="M361.324,194.08c-16.505-5.757-33.016-11.504-49.504-17.308c-0.711-0.25-1.237-1.029-1.851-1.562
		c17.701-0.909,35.412-0.252,53.119-0.326c2.01-0.009,3.187,0.421,2.863,2.757C365.169,183.339,365.14,189.239,361.324,194.08z"/>
	<path fill="#F2AC46" d="M284.029,442.141c-10.603,0-21.204,0-31.754,0c2.647-10.328,10.198-15.7,21.691-15.264
		c1.284,1.48,2.54,2.987,3.857,4.438C280.688,434.472,283.822,437.464,284.029,442.141z"/>
	<path fill="#E88D2E" d="M284.029,442.141c-0.207-4.677-3.342-7.669-6.206-10.825c-1.317-1.45-2.573-2.957-3.857-4.438
		c8.849-0.43,14.033,4.78,18.222,11.683c1.773,2.924,1.234,4.256-2.246,4.229C287.945,442.771,285.941,442.899,284.029,442.141z"/>
	<path fill="#1E1C1D" d="M147.813,420.508c-2.02-1.124-1.639-3.068-1.64-4.865c-0.027-49.248-0.044-98.496-0.088-147.746
		c-0.002-2.211-0.035-4.352,1.947-5.867c0.971,0.228,1.93,0.561,2.914,0.662c7.88,0.822,7.943,0.811,7.949,9.052
		c0.021,28.161-0.013,56.323,0.003,84.487c0.001,1.988,0.242,3.979,0.371,5.97c-0.09,12.641-0.051,25.284-0.338,37.922
		c-0.103,4.543,1.98,4.73,5.183,3.336c6.517-2.838,13.188-5.42,19.418-8.804c27.758-15.069,48.95-36.602,63.087-64.973
		c8.592-17.242,14.225-35.283,15.311-54.617c0.34-2.805,0.67-5.611,1.021-8.416c0.393-3.125,2.1-4.643,5.326-4.742
		c5.863-0.184,6.992,0.791,6.755,6.783c-2.826,71.246-52.758,135.993-122.916,150.629
		C150.662,419.62,149.247,420.107,147.813,420.508z"/>
	<path fill="#7DDD3E" d="M261.93,275.064c-1.086,19.332-6.718,37.373-15.311,54.617c-14.137,28.37-35.329,49.901-63.087,64.973
		c-6.23,3.383-12.901,5.965-19.418,8.803c-3.203,1.396-5.286,1.207-5.183-3.336c0.287-12.637,0.248-25.281,0.338-37.922
		c7.369-0.848,14.139-3.664,20.785-6.668c30.526-13.797,53.602-35.971,71.227-64.102c2.363-3.772,3.841-8.094,5.837-12.105
		C258.123,277.305,258.891,274.857,261.93,275.064z"/>
	<path fill="#1E1C1D" d="M259.125,163.441c-0.009,8.096-5.476,13.758-13.195,13.67c-7.498-0.085-13.13-6.123-13.044-13.98
		c0.085-7.755,5.467-13.217,13.061-13.257C253.837,149.832,259.134,155.286,259.125,163.441z"/>
</g>
<path fill="#FFFFFF" d="M178.889,132.559c0,0-20.723,46.279,14.277,67.945s29.077,44.667,28.205,46.667s42.129,12.667,57.795,3.333
	c15.666-9.333,15.666-9.333,15.666-9.333V80.951C294.833,80.951,230.278,79.28,178.889,132.559z"/>
<g>
	<path fill="#FCFCFC" d="M243.71,90.721c0.111-0.04,0.221-0.079,0.332-0.119C243.931,90.641,243.821,90.682,243.71,90.721z"/>
	<path fill="#FCFCFC" d="M226.015,98.2c5.534-2.715,10.956-4.999,16.178-6.928C236.702,93.253,231.305,95.548,226.015,98.2z"/>
	<path fill="#FCFCFC" d="M290.885,81.024c0.558-0.023,1.06-0.041,1.504-0.052C291.914,80.929,291.4,80.962,290.885,81.024z"/>
	<path fill="#FCFCFC" d="M179.211,132.231c0.023-0.023,0.045-0.046,0.068-0.069C179.256,132.186,179.234,132.208,179.211,132.231z"
		/>
	<path fill="#7DDD3E" d="M178.886,132.565c-16.575,16.76-29.526,36.673-38.698,59.856c-9.735,24.608-13.587,50.194-13.446,76.632
		c0.294,55.303,0.089,110.606,0.09,165.909c0,1.499,0.072,3,0.017,4.496c-0.088,2.395,0.629,3.615,3.403,3.384
		c6.112-0.511,12.244-0.764,18.146-2.66c-0.195-6.558-0.39-13.114-0.585-19.674c-2.02-1.124-1.639-3.07-1.642-4.866
		c-0.027-49.247-0.044-98.497-0.088-147.745c-0.002-2.211-0.035-4.352,1.947-5.867c-0.525-12.735,1.121-25.259,3.975-37.62
		c4.73-20.483,11.782-38.979,21.202-55.447C170.958,150.393,178.812,132.731,178.886,132.565z"/>
	<path fill="#FFFFFF" d="M178.889,132.559c0,0-0.002,0.005-0.003,0.006c0.109-0.11,0.215-0.224,0.325-0.333
		C179.104,132.342,178.996,132.448,178.889,132.559z"/>
	<path fill="#FFFFFF" d="M242.193,91.272c0.506-0.183,1.009-0.375,1.517-0.552C243.206,90.901,242.701,91.085,242.193,91.272z"/>
	<path fill="#FFFFFF" d="M226.015,98.2c-15.385,7.546-31.62,18.391-46.736,33.962c11.461-11.515,24.644-21.532,39.499-30.085
		C221.166,100.703,223.581,99.42,226.015,98.2z"/>
	<g>
		<path fill="#888888" d="M213.954,121.359c0.495-0.394,0.998-0.78,1.497-1.169C214.951,120.579,214.449,120.965,213.954,121.359z"
			/>
		<path fill="#888888" d="M209.079,125.401c0.537-0.461,1.071-0.924,1.614-1.379C210.149,124.477,209.616,124.939,209.079,125.401z"
			/>
		<path fill="#888888" d="M205.446,128.607c0.56-0.51,1.128-1.013,1.696-1.517C206.575,127.594,206.006,128.097,205.446,128.607z"/>
		<path fill="#888888" d="M223.028,114.611c0.405-0.281,0.818-0.556,1.226-0.835C223.846,114.055,223.434,114.33,223.028,114.611z"
			/>
		<path fill="#888888" d="M227.279,111.759c0.429-0.28,0.856-0.561,1.289-0.838C228.135,111.198,227.708,111.479,227.279,111.759z"
			/>
		<path fill="#888888" d="M200.805,133.015c0.589-0.58,1.176-1.162,1.774-1.734C201.98,131.853,201.394,132.435,200.805,133.015z"/>
		<path fill="#888888" d="M217.907,118.315c0.482-0.361,0.962-0.725,1.449-1.082C218.869,117.59,218.389,117.954,217.907,118.315z"
			/>
		<path fill="#888888" d="M183.338,153.293c0.62-0.851,1.248-1.694,1.883-2.532C184.586,151.599,183.958,152.442,183.338,153.293z"
			/>
		<path fill="#888888" d="M232.661,108.371c0.295-0.178,0.597-0.352,0.894-0.529C233.257,108.02,232.956,108.193,232.661,108.371z"
			/>
		<path fill="#888888" d="M177.118,162.461c0.596-0.942,1.2-1.877,1.812-2.806C178.317,160.584,177.713,161.519,177.118,162.461z"/>
		<path fill="#888888" d="M173.4,168.633c1.104-1.919,2.24-3.811,3.409-5.675C175.64,164.822,174.503,166.714,173.4,168.633z"/>
		<path fill="#888888" d="M193.089,141.159c1.034-1.17,2.087-2.324,3.156-3.465C195.176,138.834,194.124,139.989,193.089,141.159z"
			/>
		<path fill="#888888" d="M197.503,136.354c0.604-0.63,1.216-1.251,1.831-1.873C198.719,135.102,198.106,135.724,197.503,136.354z"
			/>
		<path fill="#888888" d="M190.133,144.586c0.623-0.745,1.254-1.481,1.89-2.214C191.388,143.105,190.756,143.842,190.133,144.586z"
			/>
		<path fill="#888888" d="M185.942,149.822c1.149-1.494,2.323-2.967,3.521-4.419C188.264,146.855,187.091,148.328,185.942,149.822z"
			/>
		<path fill="#888888" d="M179.371,158.996c1.156-1.735,2.341-3.444,3.556-5.128C181.712,155.552,180.527,157.261,179.371,158.996z"
			/>
		<path fill="#888888" d="M258.604,95.242c0.339-0.143,0.678-0.285,1.018-0.426C259.282,94.958,258.943,95.1,258.604,95.242z"/>
		<path fill="#888888" d="M253.592,97.417c0.006-0.003,0.012-0.005,0.018-0.008C253.604,97.412,253.598,97.415,253.592,97.417z"/>
		<path fill="#888888" d="M247.631,100.227c0.351-0.172,0.702-0.344,1.055-0.514C248.333,99.883,247.982,100.055,247.631,100.227z"
			/>
		<path fill="#888888" d="M294.833,133.299v105.008C294.995,203.306,294.908,168.302,294.833,133.299z"/>
		<path fill="#67C62A" d="M221.372,247.17c0.872-2,6.795-25-28.205-46.667c-13.326-8.249-18.57-20.066-19.959-31.539
			c-9.419,16.468-16.471,34.962-21.201,55.445c-2.855,12.361-4.5,24.885-3.975,37.62c0.971,0.226,1.931,0.559,2.914,0.661
			c7.88,0.822,7.943,0.811,7.949,9.052c0.021,28.161-0.014,56.323,0.003,84.487c0.001,1.99,0.242,3.979,0.371,5.97
			c7.368-0.847,14.139-3.664,20.785-6.668c30.526-13.798,53.602-35.972,71.227-64.103c2.363-3.771,3.841-8.092,5.837-12.104
			c1.005-2.021,1.772-4.468,4.812-4.261c0.338-2.805,0.668-5.611,1.021-8.416c0.392-3.125,2.099-4.642,5.326-4.742
			c5.863-0.184,6.992,0.791,6.755,6.783c-2.826,71.246-52.758,135.993-122.916,150.629c-1.454,0.302-2.869,0.79-4.303,1.189
			c0.194,6.56,0.39,13.116,0.585,19.674c4.885,0.745,9.357-0.795,13.973-2.137c54.138-15.741,93.631-48.363,116.359-100.46
			c8.916-20.435,15.617-41.696,15.85-63.97c0.113-10.812,0.185-21.624,0.239-32.437c-0.129,0.077-1.48,0.882-15.652,9.325
			C263.501,259.838,220.5,249.17,221.372,247.17z"/>
		<path fill="#888888" d="M242.849,102.641c0.164-0.086,0.332-0.169,0.496-0.254C243.18,102.472,243.013,102.555,242.849,102.641z"
			/>
		<path fill="#888888" d="M237.187,105.731c0.384-0.217,0.767-0.435,1.153-0.65C237.954,105.296,237.571,105.514,237.187,105.731z"
			/>
		<path fill="#FFFFFF" d="M185.221,150.761c0.238-0.314,0.48-0.626,0.721-0.939C185.701,150.135,185.459,150.447,185.221,150.761z"
			/>
		<path fill="#FFFFFF" d="M182.927,153.868c0.138-0.191,0.273-0.384,0.412-0.575C183.2,153.483,183.064,153.677,182.927,153.868z"/>
		<path fill="#FFFFFF" d="M228.567,110.921c1.349-0.863,2.711-1.715,4.093-2.55C231.279,109.206,229.916,110.058,228.567,110.921z"
			/>
		<path fill="#FFFFFF" d="M294.581,84.791c0.065,1.829,0.188,3.658,0.188,5.487c0.005,14.34,0.032,28.681,0.063,43.021V80.951
			c0,0-0.86-0.021-2.444,0.021c1.425,0.128,2.498,0.95,2.19,3.819c-10.007,2.349-20.11,4.215-29.782,7.946
			c-1.747,0.674-3.467,1.372-5.175,2.08c1.708-0.708,3.43-1.404,5.177-2.078C274.471,89.006,284.574,87.14,294.581,84.791z"/>
		<path fill="#FFFFFF" d="M189.462,145.403c0.224-0.271,0.445-0.546,0.671-0.817C189.907,144.857,189.687,145.132,189.462,145.403z"
			/>
		<path fill="#FFFFFF" d="M173.207,168.962c0,0.001,0,0.002,0,0.003c0.063-0.111,0.128-0.221,0.192-0.332
			C173.336,168.744,173.271,168.852,173.207,168.962z"/>
		<path fill="#FFFFFF" d="M294.833,238.307c-0.005,0.957-0.009,1.915-0.014,2.872c0.014-0.008,0.014-0.008,0.014-0.008V238.307z"/>
		<path fill="#FFFFFF" d="M192.023,142.372c0.353-0.407,0.709-0.811,1.066-1.213C192.732,141.562,192.376,141.965,192.023,142.372z"
			/>
		<path fill="#FFFFFF" d="M176.809,162.958c0.104-0.166,0.205-0.332,0.309-0.497C177.014,162.626,176.912,162.793,176.809,162.958z"
			/>
		<path fill="#FFFFFF" d="M178.93,159.656c0.146-0.221,0.294-0.439,0.441-0.66C179.224,159.216,179.076,159.435,178.93,159.656z"/>
		<path fill="#1E1C1D" d="M245.946,149.874c-7.594,0.04-12.976,5.502-13.061,13.257c-0.086,7.857,5.547,13.896,13.044,13.98
			c7.72,0.088,13.187-5.574,13.196-13.67C259.134,155.286,253.837,149.832,245.946,149.874z"/>
		<path fill="#FFFFFF" d="M210.693,124.021c1.073-0.899,2.16-1.787,3.261-2.663C212.854,122.235,211.767,123.122,210.693,124.021z"
			/>
		<path fill="#FFFFFF" d="M219.356,117.233c1.209-0.887,2.433-1.762,3.672-2.622C221.789,115.472,220.565,116.347,219.356,117.233z"
			/>
		<path fill="#FFFFFF" d="M233.555,107.842c1.198-0.714,2.409-1.417,3.632-2.111C235.964,106.425,234.752,107.128,233.555,107.842z"
			/>
		<path fill="#FFFFFF" d="M207.143,127.09c0.641-0.567,1.286-1.131,1.937-1.689C208.429,125.96,207.783,126.522,207.143,127.09z"/>
		<path fill="#FFFFFF" d="M215.451,120.19c0.812-0.631,1.629-1.256,2.456-1.875C217.081,118.934,216.263,119.559,215.451,120.19z"/>
		<path fill="#FFFFFF" d="M243.345,102.386c1.412-0.734,2.843-1.453,4.287-2.159C246.188,100.934,244.757,101.652,243.345,102.386z"
			/>
		<path fill="#FFFFFF" d="M224.254,113.776c0.999-0.681,2.006-1.354,3.024-2.018C226.261,112.423,225.253,113.096,224.254,113.776z"
			/>
		<path fill="#FFFFFF" d="M248.686,99.713c1.618-0.78,3.249-1.549,4.906-2.295C251.935,98.164,250.303,98.933,248.686,99.713z"/>
		<path fill="#FFFFFF" d="M199.333,134.481c0.487-0.492,0.978-0.98,1.471-1.466C200.312,133.501,199.82,133.99,199.333,134.481z"/>
		<path fill="#FFFFFF" d="M202.579,131.281c0.943-0.902,1.9-1.793,2.868-2.674C204.479,129.489,203.522,130.379,202.579,131.281z"/>
		<path fill="#FFFFFF" d="M196.245,137.694c0.419-0.447,0.834-0.897,1.258-1.34C197.079,136.796,196.664,137.247,196.245,137.694z"
			/>
		<path fill="#FFFFFF" d="M253.609,97.41c1.644-0.741,3.313-1.46,4.995-2.167C256.922,95.95,255.253,96.669,253.609,97.41z"/>
		<path fill="#FFFFFF" d="M238.34,105.081c1.486-0.828,2.985-1.644,4.508-2.44C241.326,103.437,239.826,104.253,238.34,105.081z"/>
		<path fill="#D8D81D" d="M294.833,133.299c-0.031-14.34-0.059-28.681-0.063-43.021c0-1.829-0.123-3.658-0.188-5.487
			c-10.007,2.349-20.11,4.215-29.782,7.947c-1.747,0.674-3.469,1.37-5.177,2.078c-0.34,0.141-0.679,0.283-1.018,0.426
			c-1.683,0.708-3.352,1.427-4.995,2.167c-0.006,0.002-0.012,0.005-0.018,0.008c-1.657,0.747-3.288,1.515-4.906,2.295
			c-0.353,0.17-0.704,0.342-1.055,0.514c-1.444,0.707-2.875,1.425-4.287,2.159c-0.165,0.085-0.332,0.168-0.496,0.254
			c-1.523,0.796-3.022,1.612-4.508,2.44c-0.386,0.215-0.77,0.433-1.153,0.65c-1.223,0.693-2.434,1.396-3.632,2.111
			c-0.297,0.177-0.599,0.351-0.894,0.529c-1.382,0.835-2.745,1.687-4.093,2.55c-0.432,0.277-0.86,0.558-1.289,0.838
			c-1.018,0.664-2.026,1.337-3.024,2.018c-0.408,0.279-0.821,0.554-1.226,0.835c-1.24,0.86-2.463,1.735-3.672,2.622
			c-0.487,0.357-0.967,0.72-1.449,1.082c-0.826,0.619-1.644,1.244-2.456,1.875c-0.5,0.389-1.002,0.775-1.497,1.169
			c-1.101,0.876-2.188,1.764-3.261,2.663c-0.543,0.455-1.078,0.918-1.614,1.379c-0.65,0.559-1.296,1.122-1.937,1.689
			c-0.568,0.503-1.137,1.006-1.696,1.517c-0.968,0.881-1.924,1.772-2.868,2.674c-0.598,0.572-1.185,1.154-1.774,1.734
			c-0.493,0.486-0.984,0.975-1.471,1.466c-0.614,0.621-1.227,1.243-1.831,1.873c-0.424,0.442-0.839,0.893-1.258,1.34
			c-1.068,1.141-2.122,2.295-3.156,3.465c-0.357,0.403-0.713,0.807-1.066,1.213c-0.636,0.733-1.268,1.47-1.89,2.214
			c-0.226,0.271-0.447,0.545-0.671,0.817c-1.198,1.452-2.372,2.925-3.521,4.419c-0.241,0.313-0.482,0.625-0.721,0.939
			c-0.635,0.838-1.263,1.681-1.883,2.532c-0.139,0.19-0.274,0.384-0.412,0.575c-1.215,1.684-2.4,3.394-3.556,5.128
			c-0.146,0.22-0.295,0.438-0.441,0.66c-0.612,0.928-1.216,1.863-1.812,2.806c-0.104,0.165-0.206,0.332-0.309,0.497
			c-1.169,1.864-2.305,3.755-3.409,5.675c-0.064,0.111-0.129,0.221-0.192,0.332c1.389,11.472,6.633,23.29,19.959,31.539
			c35,21.667,29.077,44.667,28.205,46.667s42.129,12.667,57.795,3.333c14.172-8.443,15.523-9.249,15.652-9.325
			c0.005-0.957,0.009-1.915,0.014-2.872V133.299z M245.929,177.111c-7.497-0.084-13.13-6.123-13.044-13.98
			c0.085-7.755,5.467-13.217,13.061-13.257c7.891-0.042,13.188,5.412,13.179,13.567
			C259.116,171.537,253.649,177.199,245.929,177.111z"/>
	</g>
	<path fill="#FFFFFF" d="M290.885,81.024c-7.586,0.321-25.38,1.926-46.843,9.578c14.385-4.987,29.402-7.854,44.824-9.303
		C289.477,81.241,290.182,81.108,290.885,81.024z"/>
	<path fill="#E5E528" d="M264.797,92.737c9.672-3.731,19.775-5.597,29.782-7.946c0.308-2.87-0.766-3.691-2.19-3.819
		c-0.444,0.012-0.946,0.029-1.504,0.052c-0.703,0.084-1.408,0.217-2.019,0.275c-15.422,1.449-30.439,4.316-44.824,9.303
		c-0.111,0.04-0.221,0.079-0.332,0.119c-0.508,0.177-1.011,0.369-1.517,0.552c-5.222,1.929-10.644,4.213-16.178,6.928
		c-2.434,1.22-4.85,2.502-7.237,3.877c-14.855,8.554-28.038,18.57-39.499,30.085c-0.022,0.023-0.045,0.045-0.068,0.069
		c-0.109,0.11-0.215,0.223-0.325,0.333c-0.074,0.167-7.928,17.828-5.679,36.397C192.995,134.367,223.282,108.756,264.797,92.737z"/>
</g>
</svg>
