<?xml version="1.0" encoding="utf-8"?>
<!-- Generator: Adobe Illustrator 16.0.0, SVG Export Plug-In . SVG Version: 6.00 Build 0)  -->
<!DOCTYPE svg PUBLIC "-//W3C//DTD SVG 1.1//EN" "http://www.w3.org/Graphics/SVG/1.1/DTD/svg11.dtd">
<svg version="1.1" id="Layer_1" xmlns="http://www.w3.org/2000/svg" xmlns:xlink="http://www.w3.org/1999/xlink" x="0px" y="0px"
	 width="512px" height="512px" viewBox="0 0 512 512" enable-background="new 0 0 512 512" xml:space="preserve">
<g>
	<path fill-rule="evenodd" clip-rule="evenodd" fill="#FEFEFE" d="M257.013,513c-83.979,0-167.959-0.022-251.938,0.085
		c-3.261,0.004-4.18-0.434-4.178-4.009C1.015,341.117,1.017,173.158,0.893,5.199C0.89,1.455,1.83,0.912,5.299,0.914
		C173.091,1.013,340.884,1.012,508.676,0.92c3.403-0.002,4.439,0.443,4.437,4.254c-0.13,167.959-0.127,335.918-0.012,503.877
		c0.003,3.526-0.836,4.042-4.15,4.037C424.972,512.977,340.992,513,257.013,513z M272.777,455.225
		c10.165,0,20.33,0.003,30.494-0.002c1.809-0.001,3.568,0.366,3.672-2.58c0.62-17.766-9.043-32.849-25.389-37.328
		c-6.03-1.652-10.49-4.303-14.242-8.879c-0.842-1.027-1.668-2.115-2.695-2.933c-3.961-3.147-3.785-5.918-0.463-9.834
		c32.728-38.576,47.753-83.574,47.833-133.841c0.006-3.903,1.598-6.3,5.249-6.509c6.316-0.361,11.83-3.308,17.272-5.678
		c18.364-8,31.744-21.559,40.445-39.629c3.772-7.836,6.041-16.197,7.78-24.669c0.521-2.546,1.435-3.281,3.883-3.166
		c3.823,0.18,7.667-0.072,11.493,0.084c2.997,0.123,4.108-1.037,4.161-4.061c0.289-16.634-1.425-32.987-7.961-48.409
		c-10.039-23.688-25.364-42.393-49.22-53.944c-12.066-5.843-24.119-10.162-37.439-10.882c-37.187-2.012-71.211,8.229-103.103,26.689
		c-0.718,0.415-1.407,0.881-2.11,1.321c-10.753,6.744-20.693,14.544-29.987,23.172c-1.914,1.776-3.623,3.576-6.235,0.927
		c-4.672-4.738-9.417-9.404-14.181-14.051c-2.311-2.255-3.327-4.517-2.249-7.97c2.242-7.175-5.72-17.817-12.889-17.221
		c-9.791,0.814-15.646,6.624-14.728,16.159c0.892,9.262,7.519,14.193,17.129,12.541c2.976-0.512,5.174,0.242,6.942,2.622
		c3.388,4.56,7.364,8.593,11.363,12.604c4.739,4.752,4.589,4.628,0.157,9.907c-30.366,36.172-47.201,77.825-47.803,125.096
		c-0.751,58.979-0.167,117.974-0.196,176.961c-0.004,8.156-0.228,16.312-0.337,24.467c-0.045,3.351,1.161,4.987,4.98,5.118
		c23.227,0.794,45.734-3.015,67.604-10.533c23.396-8.043,44.26-20.552,62.79-36.951c1.492-1.321,2.932-2.819,4.661-3.73
		c4.414-2.325,5.693,2.051,7.767,4.182c2.412,2.479-0.378,3.267-1.963,4.255c-12.037,7.507-16.794,18.779-16.832,32.495
		c-0.008,2.892,0.871,4.389,4.355,4.295C252.777,455.05,262.78,455.225,272.777,455.225z"/>
	<path fill-rule="evenodd" clip-rule="evenodd" fill="#1E1C1D" d="M272.777,455.225c-9.997,0-20-0.175-29.991,0.096
		c-3.484,0.094-4.363-1.403-4.355-4.295c0.038-13.716,4.795-24.988,16.832-32.495c1.585-0.988,4.375-1.776,1.963-4.255
		c-2.074-2.131-3.354-6.507-7.767-4.182c-1.729,0.911-3.169,2.409-4.661,3.73c-18.53,16.399-39.394,28.908-62.79,36.951
		c-21.87,7.519-44.377,11.327-67.604,10.533c-3.819-0.131-5.025-1.768-4.98-5.118c0.109-8.155,0.333-16.311,0.337-24.467
		c0.029-58.987-0.555-117.982,0.196-176.961c0.602-47.271,17.438-88.924,47.803-125.096c4.432-5.279,4.582-5.155-0.157-9.907
		c-4-4.011-7.976-8.044-11.363-12.604c-1.768-2.38-3.967-3.134-6.942-2.622c-9.61,1.652-16.237-3.279-17.129-12.541
		c-0.918-9.535,4.937-15.345,14.728-16.159c7.169-0.597,15.131,10.046,12.889,17.221c-1.079,3.453-0.063,5.715,2.249,7.97
		c4.763,4.646,9.509,9.313,14.181,14.051c2.612,2.649,4.321,0.85,6.235-0.927c9.294-8.628,19.234-16.428,29.987-23.172
		c0.703-0.44,1.393-0.906,2.11-1.321c31.892-18.46,65.917-28.701,103.103-26.689c13.32,0.72,25.373,5.039,37.439,10.882
		c23.855,11.552,39.181,30.257,49.22,53.944c6.536,15.422,8.25,31.775,7.961,48.409c-0.053,3.023-1.164,4.184-4.161,4.061
		c-3.826-0.156-7.67,0.096-11.493-0.084c-2.448-0.115-3.361,0.62-3.883,3.166c-1.739,8.472-4.008,16.833-7.78,24.669
		c-8.701,18.07-22.081,31.629-40.445,39.629c-5.442,2.37-10.956,5.316-17.272,5.678c-3.651,0.209-5.243,2.605-5.249,6.509
		c-0.08,50.267-15.105,95.265-47.833,133.841c-3.322,3.916-3.498,6.687,0.463,9.834c1.027,0.817,1.854,1.905,2.695,2.933
		c3.752,4.576,8.212,7.227,14.242,8.879c16.346,4.479,26.009,19.563,25.389,37.328c-0.104,2.946-1.863,2.579-3.672,2.58
		C293.107,455.228,282.942,455.225,272.777,455.225z M284.029,442.141c1.912,0.759,3.917,0.631,5.912,0.646
		c3.48,0.027,4.02-1.305,2.246-4.228c-4.188-6.902-9.374-12.112-18.223-11.683c-11.493-0.438-19.043,4.936-21.69,15.264
		C262.825,442.141,273.428,442.141,284.029,442.141z M361.324,194.08c3.815-4.841,3.845-10.741,4.629-16.438
		c0.322-2.336-0.854-2.766-2.863-2.757c-17.707,0.074-35.418-0.583-53.12,0.326c-3.349-1.063-2.923,1.233-2.927,3.237
		c-0.034,17.825,0.057,35.652-0.24,53.473c-0.072,4.338,1.779,4.666,5.043,3.982C335.87,230.872,352.476,217.064,361.324,194.08z
		 M307.269,82.051c-0.121,6.976-0.341,13.951-0.344,20.927c-0.009,18.293,0.059,36.586,0.157,54.878
		c0.01,1.732-1.011,4.192,2.489,4.119c16.448-0.345,32.909,0.566,49.351-0.51c5.478,0.107,10.954,0.278,16.432,0.31
		c8.953,0.052,8.953,0.015,7.727-8.938c-5.008-36.535-36.322-67.329-72.818-71.569C309.233,81.147,307.914,80.473,307.269,82.051z
		 M294.581,84.791c0.551-5.132-3.313-3.718-5.713-3.492c-24.714,2.321-48.39,8.285-70.088,20.778
		c-36.584,21.065-63.025,51.002-78.59,90.344c-9.735,24.607-13.587,50.194-13.446,76.632c0.294,55.302,0.089,110.606,0.09,165.909
		c0,1.499,0.071,3,0.017,4.496c-0.088,2.395,0.628,3.615,3.403,3.384c6.112-0.511,12.243-0.765,18.146-2.66
		c4.884,0.745,9.356-0.795,13.973-2.137c54.138-15.741,93.63-48.363,116.36-100.46c8.916-20.435,15.615-41.696,15.849-63.97
		c0.643-61.106,0.209-122.224,0.189-183.337C294.77,88.449,294.646,86.62,294.581,84.791z"/>
	<path fill-rule="evenodd" clip-rule="evenodd" fill="#888888" d="M294.581,84.791c0.065,1.829,0.188,3.658,0.188,5.487
		c0.02,61.113,0.453,122.23-0.189,183.337c-0.233,22.273-6.933,43.535-15.849,63.97c-22.729,52.097-62.222,84.719-116.36,100.46
		c-4.616,1.342-9.088,2.882-13.973,2.137c-0.195-6.558-0.391-13.115-0.585-19.674c1.434-0.4,2.849-0.888,4.303-1.19
		c70.158-14.635,120.09-79.383,122.916-150.629c0.237-5.992-0.891-6.966-6.755-6.783c-3.227,0.101-4.934,1.618-5.326,4.743
		c-0.353,2.804-0.683,5.611-1.022,8.416c-3.038-0.207-3.806,2.24-4.811,4.26c-1.996,4.013-3.474,8.333-5.837,12.105
		c-17.625,28.131-40.701,50.305-71.227,64.102c-6.646,3.004-13.417,5.821-20.785,6.668c-0.129-1.99-0.37-3.98-0.371-5.97
		c-0.017-28.163,0.018-56.325-0.003-84.487c-0.006-8.241-0.069-8.229-7.949-9.051c-0.983-0.103-1.943-0.436-2.914-0.662
		c-0.525-12.735,1.12-25.259,3.975-37.62c14.667-63.513,51.515-108.027,112.792-131.672C274.47,89.006,284.574,87.14,294.581,84.791
		z M259.125,163.441c0.009-8.155-5.288-13.609-13.179-13.567c-7.594,0.04-12.976,5.502-13.061,13.257
		c-0.086,7.857,5.547,13.896,13.044,13.98C253.649,177.199,259.116,171.537,259.125,163.441z"/>
	<path fill-rule="evenodd" clip-rule="evenodd" fill="#FCFCFC" d="M147.813,420.508c0.195,6.559,0.39,13.116,0.585,19.674
		c-5.902,1.896-12.034,2.149-18.146,2.66c-2.774,0.231-3.491-0.989-3.403-3.384c0.055-1.496-0.017-2.997-0.017-4.496
		c-0.001-55.303,0.204-110.607-0.09-165.909c-0.141-26.438,3.711-52.024,13.446-76.632c15.565-39.342,42.006-69.278,78.59-90.344
		c21.699-12.493,45.375-18.457,70.088-20.778c2.4-0.226,6.264-1.64,5.713,3.492c-10.007,2.349-20.111,4.215-29.782,7.946
		c-61.277,23.645-98.125,68.159-112.792,131.672c-2.854,12.361-4.5,24.885-3.975,37.62c-1.982,1.516-1.949,3.656-1.947,5.867
		c0.044,49.249,0.061,98.498,0.088,147.746C146.174,417.438,145.793,419.384,147.813,420.508z"/>
	<path fill-rule="evenodd" clip-rule="evenodd" fill="#F2AC46" d="M358.922,161.465c-16.441,1.076-32.902,0.165-49.351,0.51
		c-3.5,0.073-2.479-2.387-2.489-4.119c-0.099-18.292-0.166-36.585-0.157-54.878c0.003-6.976,0.223-13.951,0.344-20.927
		c1.956,0.886,3.999,1.62,5.853,2.684c11.271,6.469,20.35,15.413,27.845,25.869C351.836,125.768,358.372,142.593,358.922,161.465z"
		/>
	<path fill-rule="evenodd" clip-rule="evenodd" fill="#F2AC46" d="M361.324,194.08c-8.849,22.984-25.454,36.792-49.479,41.823
		c-3.264,0.684-5.115,0.355-5.043-3.982c0.297-17.82,0.206-35.647,0.24-53.473c0.004-2.004-0.422-4.301,2.928-3.237
		c0.612,0.532,1.139,1.312,1.85,1.562C328.31,182.576,344.819,188.323,361.324,194.08z"/>
	<path fill-rule="evenodd" clip-rule="evenodd" fill="#E88D2E" d="M358.922,161.465c-0.55-18.872-7.086-35.697-17.956-50.861
		c-7.495-10.456-16.574-19.4-27.845-25.869c-1.854-1.063-3.896-1.798-5.853-2.684c0.646-1.578,1.965-0.903,2.993-0.784
		c36.496,4.24,67.811,35.034,72.818,71.569c1.227,8.953,1.227,8.99-7.727,8.938C369.876,161.743,364.399,161.572,358.922,161.465z"
		/>
	<path fill-rule="evenodd" clip-rule="evenodd" fill="#E88D2E" d="M361.324,194.08c-16.505-5.757-33.015-11.504-49.504-17.308
		c-0.711-0.25-1.237-1.029-1.85-1.562c17.701-0.909,35.412-0.252,53.119-0.326c2.01-0.009,3.186,0.421,2.863,2.757
		C365.169,183.339,365.14,189.239,361.324,194.08z"/>
	<path fill-rule="evenodd" clip-rule="evenodd" fill="#F2AC46" d="M284.029,442.141c-10.602,0-21.204,0-31.754,0
		c2.647-10.328,10.197-15.701,21.691-15.264c1.284,1.48,2.54,2.987,3.857,4.438C280.688,434.472,283.822,437.464,284.029,442.141z"
		/>
	<path fill-rule="evenodd" clip-rule="evenodd" fill="#E88D2E" d="M284.029,442.141c-0.207-4.677-3.341-7.669-6.206-10.826
		c-1.317-1.45-2.573-2.957-3.857-4.438c8.848-0.43,14.033,4.78,18.222,11.683c1.773,2.923,1.234,4.255-2.246,4.228
		C287.946,442.771,285.941,442.899,284.029,442.141z"/>
	<path fill-rule="evenodd" clip-rule="evenodd" fill="#1E1C1D" d="M147.813,420.508c-2.02-1.124-1.639-3.069-1.64-4.865
		c-0.027-49.248-0.044-98.497-0.088-147.746c-0.002-2.211-0.035-4.352,1.947-5.867c0.971,0.227,1.93,0.56,2.914,0.662
		c7.88,0.822,7.943,0.81,7.949,9.051c0.021,28.162-0.013,56.324,0.003,84.487c0.001,1.989,0.242,3.979,0.371,5.97
		c-0.09,12.641-0.051,25.285-0.338,37.922c-0.103,4.543,1.98,4.731,5.183,3.336c6.517-2.838,13.188-5.42,19.418-8.803
		c27.758-15.07,48.95-36.602,63.087-64.973c8.592-17.243,14.225-35.284,15.31-54.617c0.34-2.805,0.67-5.612,1.022-8.416
		c0.393-3.125,2.1-4.643,5.326-4.743c5.864-0.183,6.992,0.791,6.755,6.783c-2.826,71.246-52.758,135.994-122.916,150.629
		C150.662,419.62,149.247,420.107,147.813,420.508z"/>
	<path fill-rule="evenodd" clip-rule="evenodd" fill="#FCFCFC" d="M261.929,275.064c-1.085,19.333-6.717,37.374-15.31,54.617
		c-14.137,28.371-35.329,49.902-63.087,64.973c-6.23,3.383-12.901,5.965-19.418,8.803c-3.203,1.396-5.286,1.207-5.183-3.336
		c0.287-12.637,0.248-25.281,0.338-37.922c7.369-0.847,14.139-3.664,20.785-6.668c30.526-13.797,53.602-35.971,71.227-64.102
		c2.363-3.772,3.841-8.093,5.837-12.105C258.123,277.305,258.891,274.857,261.929,275.064z"/>
	<path fill-rule="evenodd" clip-rule="evenodd" fill="#1E1C1D" d="M259.125,163.441c-0.009,8.096-5.476,13.758-13.195,13.67
		c-7.498-0.085-13.13-6.123-13.044-13.98c0.085-7.755,5.467-13.217,13.061-13.257C253.837,149.832,259.134,155.286,259.125,163.441z
		"/>
</g>
</svg>
