<?xml version="1.0" encoding="UTF-8" standalone="no"?>
<!-- Generator: Adobe Illustrator 16.0.0, SVG Export Plug-In . SVG Version: 6.00 Build 0)  -->

<svg
   xmlns:dc="http://purl.org/dc/elements/1.1/"
   xmlns:cc="http://creativecommons.org/ns#"
   xmlns:rdf="http://www.w3.org/1999/02/22-rdf-syntax-ns#"
   xmlns:svg="http://www.w3.org/2000/svg"
   xmlns="http://www.w3.org/2000/svg"
   xmlns:xlink="http://www.w3.org/1999/xlink"
   xmlns:sodipodi="http://sodipodi.sourceforge.net/DTD/sodipodi-0.dtd"
   xmlns:inkscape="http://www.inkscape.org/namespaces/inkscape"
   version="1.1"
   id="Layer_1"
   x="0px"
   y="0px"
   width="512px"
   height="512px"
   viewBox="0 0 512 512"
   enable-background="new 0 0 512 512"
   xml:space="preserve"
   sodipodi:docname="doge-borb.svg"
   inkscape:version="0.92.1 r15371"><metadata
     id="metadata3739"><rdf:RDF><cc:Work
         rdf:about=""><dc:format>image/svg+xml</dc:format><dc:type
           rdf:resource="http://purl.org/dc/dcmitype/StillImage" /><dc:title /></cc:Work></rdf:RDF></metadata><defs
     id="defs3737"><g
       id="a"><path
         id="path651"
         d="M18.8 200.95q-1.4.85-2.8 2-.35.25-.75.6.1 2.2.1 4.4 0 .5-.5 1 1.85 28.45 7.35 40 4.85 10.1 11.35 17.65 3.1 3.55 5.3 5.55 2.3 2.2 3.5 2.45-.95-1.2-1.9-2.45-6.65-8.8-11.85-19.25-5.8-11.85-5.85-34.45 1.25-13.95 3.7-21.7-2.1 1.4-7.65 4.2m-1.4-16.6q-1.35.05-2.75.5-.3 3.45-.35 5.15-.05 1.9 0 3.75.4 1.45.05 1.45h-.05q0 .05.05.1.55 3.5.8 6.95 6.7-6.45 11.55-7 .05-.5.15-1v-.3q-6.55 2.85-9.45-9.6m-1.5-9.55l-.1.5q-.7 3.05-1.05 7.85v.15q1.15-.3 2.3-.45-.75-3.55-1.15-8.05z"
         fill="#F2F0EE" /><path
         id="path653"
         d="M98.1 257.25l-2.25-.3-.1-.05h-.05l-.4-.05h-.05l-25.05-3.1q2.05 2.2 8.3 3.1 8.2.8 19.6.4z"
         fill="#2E2822" /><path
         id="path655"
         d="M135.15 225.25q-.95.25-1.5.5l6.95 8.5q-2.7-5-5.45-9m-8.3-6.85q1.75 1.25 3.25 2.8.85.85 1.6 1.75l.35.35h.1q.45-.25 1.25-.4-8.25-11-17-12.85-2.25.25 10.45 8.35m28.7-4.4l4.55 3.85q-3.05-5.45-10.45-10.85-7.8-5.7-19.55-7.05-11.7-1.4-12.2.8-.45 2.15 3.1 1.5 3.55-.7 13.7.35 10.15 1.05 20.85 11.4m-36.8-23.5q-.8.45 0 .95.25.2 1.2.25.95 0 8.05-.95 7.1-1 12.2-1.1 5.05-.2 12.6 1.7 8.1 2.05 12.55 5.2-3.35-3.9-9.25-6.45-7.2-3.1-16.3-3.1-6.95 0-13.6 1.3-5.5 1.05-7.45 2.2z"
         fill="#666" /><path
         id="path657"
         d="M143.8 222.55q3.35.05 4.65.1-1.2-.75-4.3-1-3.1-.25-10.75 1.25-.8.15-1.25.4.75-.05 4.5-.4 3.7-.4 7.15-.35z"
         fill="#6B6967" /><path
         id="path659"
         d="M26.8 196.5q-.15.05-.35.25-2.45 7.75-3.7 21.7.05 22.6 5.85 34.45 5.2 10.45 11.85 19.25.95 1.25 1.9 2.45.5.1.95.25l68.3 8.55h.05l4 .1h.45q.85 0 1.65.05h.95l10.65.05 4-.05h.3l7.05-.1-27.5-3.95q-.5 0-1.05-.1-11.55-1.85-19.8-7.25-8.8-5.65-13.85-15.3-6.25-.9-8.3-3.1l25.05 3.1h.05l.4.05h.05l.1.05 2.25.3q4.75-.75 7.8-1.8 4.7-1.75 4.2-1.75-34.55 1.2-52.65-17.35 18.2 4.45 28.8 1.7 8.7-2.35 8.45-3.85-16.3.65-28.1-1.35-11.8-2.05-16.75-6.7-5-4.7-6.05-2.45-.9 13 4.25 17.65 5.1 4.6 7.15 5.25-3.35.75-8.35-3.65t-6.25-11.8q-1.2-7.45-2.95-11.1-1.75-3.75-8.8-13.05-2-4.25-2.05-10.5m-.1-1.25h.1q0-.5.05-1-.1.5-.15 1z"
         fill="#E3C9B8" /><path
         id="path661"
         d="M39.9 185.1q-3.35-1.15-5-5-.3-.75-.3-.8-.4-.25-.8-.1-.55.2-1.4 1.15-.85.95-1.55 4.1-3.1 20.6 6.35 28 9.45 6.7 18.25.5 12.45 13.05 24.7 16.2 12.15 3.1 20.45 1.4 7.9-1.55 31.55-7.25-28.35 5.65-44.4 1.25Q70.65 220 68 201.6q4.4-5.55 8.2-11.7.2-.4.2-.9-2.75 3.2-5.15.15-2.2-2.8-6.7-.6-9.4 4.65-1.85 4.65 3.7 0 6.8 1.3.6.3.05.5-11.15 4.4-15.25 15.05 0-.55-.2-.95-4.35-9.25-12.45-14.85-4-4.45 3.35-3.95 4.4.35-2.7-3.8l-2.4-1.4z"
         fill="#DCC2B1" /><path
         id="path663"
         d="M15.9 174.8q.4 4.5 1.15 8.05 2.95-.45 6.1.05 3.6.5 5.25 1.35.8-2.95 1.5-4.1.7-1.25 1.45-2.25l.5-.7-.05-.05q-.6-.15-4.35-2.45-3.75-2.45-6.6-3.6-1.65-.7-3.95-.9-.55 2.2-1 4.6m3.75 9.65q-1.05-.2-2.25-.1 2.9 12.45 9.45 9.6.35-2.4.45-4.05.05-1.1.5-2.8-.1-.1-.25-.15-1.7-1.45-7.9-2.5m9.4-48.05q-2.05 2-2.7 3.35-2.1 4.05-3.95 10-2.1 6-4.95 18 2.3.2 4.5 1 4 1.4 7.35 4 2.6 1.9 3.4 3.3l.9-1.25q6.8-10.15 21.3-13.9 3.95-1 8.55-3.45-17.85.25-20.5-15.1-2.75-15.4-13.9-5.95m172.55 22.1q-14.65 1.2-26.9 13.1-6.9 6.7-18.4 7.2-36.4 1.4-51.55-20.6-11.55-16.75-32.45-6.85-1 .45-1.95 1v-.1q0 .1-.05.1v.05q0 .05-.05.05l-.05.05-4.6 5.75q-2.25 2.95-6.05 4.45 9.2 3.4 16.1 9.3 8.75 7.45.75 17 0 .5-.2.9-3.8 6.15-8.2 11.7 2.65 18.4 19.75 22.95 16.05 4.4 44.4-1.25h-.1l-.35-.35q-.75-.9-1.6-1.75-1.5-1.55-3.25-2.8-12.7-8.1-10.45-8.35 8.75 1.85 17 12.85 7.65-1.5 10.75-1.25 3.1.25 4.3 1-.25 3.45-11.05 2.1-1.3.25-2.25.5 2.75 4 5.45 9l-6.95-8.5q-.25.1-.4.25-17.4 5.6-38.55 8.2.25 1.5-8.45 3.85-10.6 2.75-28.8-1.7 18.1 18.55 52.65 17.35.5 0-4.2 1.75-3.05 1.05-7.8 1.8-11.4.4-19.6-.4 5.05 9.65 13.85 15.3 8.25 5.4 19.8 7.25.55.1 1.05.1l27.5 3.95 43.7-.3q22.15-.25 38.2-2.55h.05l12.55-1.1h.05q.85-2.1 2.15-6.05.4-1.3.8-2.75 3.1-10.4 3.4-34.35-.55 0-.9.2-13.05 7.95-27.5 9.25 4.85-3.9 8.6-9l-.4.65q16.8-17.9 17.45-33.8.6-15.9-3.6-18.85 1.6 1.05 2.9 2.35 2.85 2.4 4.05 5.15l.75 1.65q-1.8-28.75-29.75-34.5-3.8-.85-11.6-.95m-82.85 32.95q-.8-.5 0-.95 1.95-1.15 7.45-2.2 6.65-1.3 13.6-1.3 9.1 0 16.3 3.1 5.9 2.55 9.25 6.45-4.45-3.15-12.55-5.2-7.55-1.9-12.6-1.7-5.1.1-12.2 1.1-7.1.95-8.05.95-.95-.05-1.2-.25m41.35 26.4l-4.55-3.85q-10.7-10.35-20.85-11.4-10.15-1.05-13.7-.35-3.55.65-3.1-1.5.5-2.2 12.2-.8 11.75 1.35 19.55 7.05 7.4 5.4 10.45 10.85z"
         fill="#FCFCFB" /><path
         id="path665"
         d="M14.6 184.9v-.05q-2.85.75-6.2 2.8v.05q.2 12.3 2 25.85 2.45 17.95 4.65 29.4t8.7 19.55q4.05 5.05 10.2 11.1 3.5 3.4 7.75 7.2 75.45 7.15 82.95 7.55 94.8-3.65 110.55-8.85l-12.55 1.1h-.05q-16.05 2.3-38.2 2.55l-43.7.3-7.05.1h-.3l-4 .05-10.65-.05h-.95q-.8-.05-1.65-.05h-.45l-4-.1h-.05l-68.3-8.55q-.5-.15-1-.25-1.2-.25-3.5-2.45-2.2-2-5.3-5.55-6.5-7.55-11.35-17.65-5.5-11.55-7.35-40-.1-2.7-.15-4.8v-.05l-.2.1-.1.05-.25.2H14q-.1-.3-.55-.6.55-.6 1.15-1.05-.25-5.3-.3-7.5-.05-.05-.05-.1h.05q-.05-.8-.05-1.15-.05-.2 0-.3-.05-1.85 0-3.75.05-1.7.35-5.1m2.3-14.7q-1.75-.15-3.9-.05-2.2.1-4.1.55-.2 3.4-.3 7.3-.05.9-.05 1.85-.15 3.1-.15 6.3.6-.3 1.2-.7 2.5-1.45 5.15-2.15v-.15q.35-4.8 1.05-7.85l.1-.5q.45-2.4 1-4.6M262.25 60.5q2.1-31.95-7.75-40-9.95-8.1-20 .8-10.05 8.85-23.5 19.5-13.45 10.55-20.55 19.45-17.35-1.65-28.2-1.9-10.85-.2-19.55 1.3-11.7-8.6-18.2-10.4-6.55-1.85-6.35-2-11.8-18.35-18.75-27.4-7-9.1-9.5-8.1-13.4 5.3-17.1 27.3-3.7 22 2.05 37.5-5.3 3-27.65 15.85-22.4 12.85-29 33.45-6.55 20.6-7.9 29.35-.55 3.65-.95 8.45-.25 2.55-.4 5.55 1.25-.55 2.6-.95 3-.75 5.9-.5 2.85-12 4.95-18 1.85-5.95 3.95-10-5.6 7.65-7.05 11.95-1.4 4.25-2.65 6-1.3 1.7 0-7.9 1.2-9.55 3.95-15.85 2.7-6.25 9.4-11.35l1.1-1q-5.25 3.55-9.9 6.45 10.5-26.5 39.3-39.7 28.8-13.25 36.5-23 2.55-3.15 5.7-5.75 0-.55-.25-.8-.3-.3-.8-.3l-2.2-.6q-4.8-7.1-5.55-19.75-.7-12.65-3.05-13.3-2.3-.65-3.5 2-1.15 2.65-2.55 8.55 3.15-7.95 4-8.45 1.15-.55 2.15 7.35.95 7.95 1.4 12.9.35 4.9.4 6.45.05 1.45.5 6.95.4 5.45-5.75 9.95-6.15 4.5-6.25 4.25-4.35-12.05-3.8-27.85 1.9-19.15 11.9-30.25.2-.25.7-.25 13.7 15.75 23.6 35.55.1.2.6.2 14.75 4.2 25.5 12.35.3.3.85.3 26.35-2.15 49.45 2 .5.1 1.05.1Q215 44.3 230.05 31.4q15-13 21.3-4.05 6.3 8.85 5.6 39.2-.7 30.35-2.75 55.1 0 .9.15 1.8v.2q3.1-9.45 5 1.35 7.05 40.2 21.9 72.1 4.2 9.05 13.25 17.9-14.7-7.45-10.1 11.2 4.45 17.9.45 43.45 8.4-32.05 3.8-47.65-1.35-4.65 11.35-3.85-25.55-31.75-29.55-76.35-1.4-16.05-5.35-30.75-5-18.6-2.85-50.55z"
         fill="#151413" /><path
         id="path667"
         d="M29.3 172.75q-3.35-2.6-7.35-4-2.2-.8-4.5-1-2.9-.25-5.9.5-1.35.4-2.6.95-2.7 1.15-4.9 3.3 2.1-1.25 4.85-1.8 1.9-.45 4.1-.55 2.15-.1 3.9.05 2.3.2 3.95.9 2.85 1.15 6.6 3.6 3.75 2.3 4.35 2.45l.05.05-.5.7q-.75 1-1.45 2.25-.7 1.15-1.5 4.1-1.65-.85-5.25-1.35-3.15-.5-6.1-.05-1.15.15-2.3.45-2.65.7-5.15 2.15-.6.4-1.2.7-5.3 3.3-8.5 7.35 3.65-2.45 3.9-2.6 2.35-1.9 4.6-3.2v-.05q3.35-2.05 6.2-2.8v.05q0-.05.05-.05 1.4-.45 2.75-.5 1.2-.1 2.25.1 6.2 1.05 7.9 2.5.15.05.25.15-.45 1.7-.5 2.8-.1 1.65-.45 4.05v.3q-.05.5-.05 1h-.1q-4.85.55-11.55 7-.25.2-.5.55-.6.45-1.1 1.05.4.3.5.6h.05l.25-.2.1-.05.2-.1v.05q0-.05.05-.05.25-.3.55-.55.4-.35.75-.6 1.4-1.15 2.8-2 5.55-2.8 7.65-4.2.2-.2.35-.25.05 6.25 2.05 10.5 7.05 9.3 8.8 13.05 1.75 3.65 2.95 11.1 1.25 7.4 6.25 11.8t8.35 3.65q-2.05-.65-7.15-5.25-5.15-4.65-4.25-17.65 1.05-2.25 6.05 2.45 4.95 4.65 16.75 6.7 11.8 2 28.1 1.35 21.15-2.6 38.55-8.2.15-.15.4-.25.55-.25 1.5-.5t2.25-.5q10.8 1.35 11.05-2.1-1.3-.05-4.65-.1-3.45-.05-7.15.35-3.75.35-4.5.4-23.65 5.7-31.55 7.25-8.3 1.7-20.45-1.4-12.25-3.15-24.7-16.2-8.8 6.2-18.25-.5-9.45-7.4-6.35-28 .7-3.15 1.55-4.1.85-.95 1.4-1.15.4-.15.8.1 0 .05.3.8 1.65 3.85 5 5l2.4 1.4q7.1 4.15 2.7 3.8-7.35-.5-3.35 3.95 8.1 5.6 12.45 14.85.2.4.2.95Q58.4 199.4 69.55 195q.55-.2-.05-.5-3.1-1.3-6.8-1.3-7.55 0 1.85-4.65 4.5-2.2 6.7.6 2.4 3.05 5.15-.15 8-9.55-.75-17-6.9-5.9-16.1-9.3 3.8-1.5 6.05-4.45l4.6-5.75.05-.05q-.4.25-2.7 2-2.7 1.95-3.25 2.2-.6.25-.85.8-4.6 2.45-8.55 3.45-14.5 3.75-21.3 13.9l-.9 1.25q-.8-1.4-3.4-3.3m31.2-1.1q-5 2.75-5.8-3.05 10.75.2 5.8 3.05m-10.1 4.8q0 .25-1.05 1.15-8.65 7.05-9.8-4.4 9.9-10.1 10.85 3.25z"
         fill="#100E0D" /><path
         id="path669"
         d="M49.35 177.6q1.05-.9 1.05-1.15-.95-13.35-10.85-3.25 1.15 11.45 9.8 4.4z"
         fill="#EFEFEF" /><path
         id="path671"
         d="M54.7 168.6q.8 5.8 5.8 3.05 4.95-2.85-5.8-3.05z"
         fill="#D9D9D9" /><path
         id="path673"
         d="M242.2 192.3q-1.2-2.75-4.05-5.15-1.3-1.3-2.9-2.35 4.2 2.95 3.6 18.85-.65 15.9-17.45 33.8 10.5-8.15 16.15-18.25 5.55-10.15 5.65-16.45 2.55 5.1-.2 15.55 2.2-2.05 5.15-12.7.8-2.95 1.35-6.2 1.3-6.45-.5-10.75l-.15-.7q-5.45-26.5-34.65-30-4.7-.5-12.6.55 7.8.1 11.6.95 27.95 5.75 29.75 34.5l-.75-1.65z"
         fill="#181512" /><path
         id="path675"
         d="M256.95 66.55q.7-30.35-5.6-39.2-6.3-8.95-21.3 4.05Q215 44.3 191.1 66.95q-.55 0-1.05-.1-23.1-4.15-49.45-2-.55 0-.85-.3Q129 56.4 114.25 52.2q-.5 0-.6-.2-9.9-19.8-23.6-35.55-.5 0-.7.25-10 11.1-11.9 30.25-.55 15.8 3.8 27.85.1.25 6.25-4.25t5.75-9.95q-.45-5.5-.5-6.95-.05-1.55-.4-6.45-.45-4.95-1.4-12.9-1-7.9-2.15-7.35-.85.5-4 8.45 1.4-5.9 2.55-8.55 1.2-2.65 3.5-2 2.35.65 3.05 13.3.75 12.65 5.55 19.75l2.2.6q.5 0 .8.3.25.25.25.8-3.15 2.6-5.7 5.75-7.7 9.75-36.5 23-28.8 13.2-39.3 39.7 4.65-2.9 9.9-6.45l-1.1 1q-6.7 5.1-9.4 11.35-2.75 6.3-3.95 15.85-1.3 9.6 0 7.9 1.25-1.75 2.65-6 1.45-4.3 7.05-11.95.65-1.35 2.7-3.35 11.15-9.45 13.9 5.95 2.65 15.35 20.5 15.1.25-.55.85-.8.55-.25 3.25-2.2 2.3-1.75 2.7-2 .05 0 .05-.05v-.05q.05 0 .05-.1v.1q.95-.55 1.95-1 20.9-9.9 32.45 6.85 15.15 22 51.55 20.6 11.5-.5 18.4-7.2 12.25-11.9 26.9-13.1 7.9-1.05 12.6-.55 29.2 3.5 34.65 30l.15.7q1.8 4.3.5 10.75-.55 3.25-1.35 6.2-2.95 10.65-5.15 12.7 2.75-10.45.2-15.55-.1 6.3-5.65 16.45-5.65 10.1-16.15 18.25l.4-.65q-3.75 5.1-8.6 9 14.45-1.3 27.5-9.25.35-.2.9-.2-.3 23.95-3.4 34.35-.4 1.45-.8 2.75-1.3 3.95-2.15 6.05l2.15-.3q24.65-3.25 46.35-9.05.45-.15 1-.15l-.3 1.85.4-2.2q4-25.55-.45-43.45-4.6-18.65 10.1-11.2-9.05-8.85-13.25-17.9-14.85-31.9-21.9-72.1-1.9-10.8-5-1.35v-.2q-.15-.9-.15-1.8 2.05-24.75 2.75-55.1m-9.1 23.8q.35-.35-.6 6.45t-3.65 15.35q-2.75 8.5-.95 22.15-2.9-6.6-8.5-10.5Q212 108.6 195.3 88q16.75-31.1 46.3-48.75 2.05-1.2 3.5.85 4.1 5.4 4.55 12.6.35 7.15-1.95 13.35l.2-6.45q0-.55-.05-1.1-.4-3.75-1.3-7-1.7-5.75-4.95-9.8-.55 0-.9.25-23.85 17.1-35.95 46.05 14.1 18.5 31.8 33.4.3.25.85.25 5.15-9.45 8.05-21.1.15-.5.25-1.05l2.15-9.15m-80.4 35.25q4.15 2.35 7.85 5.55 8.15 22.7-6.6 36.55-.25.25-.75.25-15.6 6.45-31.4-1.35-4.85-2.4-6.3-3.9-1.25-.9-3.05-3.5-1.75-2.55-1.55-12.75 0 .45.3-2.05.1-2 1.75-6.75 1.6-4.75 7.65-10.7-3-.1-6.4 1.8 2.1-3.55 6-5.35 16.05-7.25 32.5 2.2m-36.8-31.55q18.7-6.85 29.15 3.15 3.85 9.8-7.5 11.15-18.6 2.2-32.2 10.4-6.05 3.65-5.85-5.5 4.75-12.95 16.4-19.2m-55.3-1.85q2.25.2 5.35-3.15 6.75-7.4 14.95-1.5 6.15 4.5 6 15.15-2.2 14.8-10.7 8.7-2.65-11.25-15.4-18.55-.2-.15-.2-.65m-9.5 8.4q14.1-3.3 14.75 3.7-3.05-2.15-14.75-3.7m6.35 10.55q.5 0 .85.25Q86 122.9 78.2 142.15q-12.4 14.6-26 1.6-.55 0-.85-5.1-.35-5.1.8-12.1 2.85-6.1 5.9-7.45 7.25-5.7 2.05-4.95-2.3.45-2.65 1.7.25-5.5 14.75-4.7m38.05-6.85q-3.7 4.35-7.3 14.25-1.5-4.45-.25-7.4 4.1-9 13.7-14-2.4 2.75-6.15 7.15m41.9 6.85q15.5-5.1 20.3 5.15-6.75-4.95-20.3-5.15z"
         fill="#E18E4C" /><path
         id="path677"
         d="M172.45 116.3q-4.8-10.25-20.3-5.15 13.55.2 20.3 5.15z"
         fill="#3C2613" /><path
         id="path679"
         d="M102.95 118.55q3.6-9.9 7.3-14.25 3.75-4.4 6.15-7.15-9.6 5-13.7 14-1.25 2.95.25 7.4z"
         fill="#2B1B0D" /><path
         id="path681"
         d="M63.4 127.85q4.2 13.6 8.15.65t-5.95-6.05q-1.9 1.8-2.2 5.4z"
         fill="#EBEBEB" /><path
         id="path683"
         d="M58.95 120.85q.05-.1.15-.15l.1-.15q-.15-1-.45-1.25l-.7-.2q-3.05 1.35-5.9 7.45-1.15 7-.8 12.1.3 5.1.85 5.1v-1.05h1.05q-1-8.05.65-15.65 1.9-3.5 4.9-6.15l.15-.05z"
         fill="#392920" /><path
         id="path685"
         d="M65.1 121.4q-.3-.25-.9-.6-1.75 1.9-2.55 4 .55.55.85 1.15.2.45.9 1.9.3-3.6 2.2-5.4-.25-.8-.5-1.05z"
         fill="#333335" /><path
         id="path687"
         d="M64.2 120.8q1.9-2.1 5.35-3.35-4.45-1.95-10.35 3.15l-.1.1q-.1.05-.15.15l-.15.05q-3 2.65-4.9 6.15-1.65 7.6-.65 15.65 10.05 6.9 7.3-10.85-.25-1.55.4-4.9.2-1.1.7-2.15.8-2.1 2.55-4z"
         fill="#EAEAEA" /><path
         id="path689"
         d="M73.05 111.4q-.35-.25-.85-.25-14.5-.8-14.75 4.7.35-1.25 2.65-1.7 5.2-.75-2.05 4.95l.7.2q.3.25.45 1.25l-.1.15.1-.1q5.9-5.1 10.35-3.15-3.45 1.25-5.35 3.35.6.35.9.6.25.25.5 1.05 9.9-6.9 5.95 6.05t-8.15-.65q-.7-1.45-.9-1.9-.3-.6-.85-1.15-.5 1.05-.7 2.15-.65 3.35-.4 4.9 2.75 17.75-7.3 10.85H52.2v1.05q13.6 13 26-1.6 7.8-19.25-5.15-30.75m2.15 18q-.4 3.45-1.4.25 2.7-11.75 1.4-.25z"
         fill="#15110F" /><path
         id="path691"
         d="M73.8 129.65q1 3.2 1.4-.25 1.3-11.5-1.4.25z"
         fill="#CBCACA" /><path
         id="path693"
         d="M80.6 104.3q-.65-7-14.75-3.7 11.7 1.55 14.75 3.7z"
         fill="#321F10" /><path
         id="path695"
         d="M80.7 89.05q-3.1 3.35-5.35 3.15 0 .5.2.65 12.75 7.3 15.4 18.55 8.5 6.1 10.7-8.7.15-10.65-6-15.15-8.2-5.9-14.95 1.5z"
         fill="#FDC470" /><path
         id="path697"
         d="M159.8 97.2q-10.45-10-29.15-3.15-11.65 6.25-16.4 19.2-.2 9.15 5.85 5.5 13.6-8.2 32.2-10.4 11.35-1.35 7.5-11.15z"
         fill="#FCC470" /><path
         id="path699"
         d="M151.7 128.5q2.15-1.65-6.9-.55l-3.55 1q6.15.2 7.65.55.1.05.1.55.5 0 2.7-1.55z"
         fill="#999" /><path
         id="path701"
         d="M125.95 144.4q-.3 2.5-.3 2.05-.2 10.2 1.55 12.75 1.8 2.6 3.05 3.5-2.3-2.65-3.3-5.45 1.55 2.3 3.2 2.95-1.15-1.2-1.35-1.6-1.65-3.55-1.55-9.05-1.3 5.05-1.3-5.15z"
         fill="#44342A" /><path
         id="path703"
         d="M127.95 145.85q-.15.8-.3 1.35t-.35 2.3h-.05v.05q-.1 5.5 1.55 9.05.2.4 1.35 1.6 6.4 6.45 11.8 3.25l-.55-1.75q-6.5-21.25 7.6-31.65 0-.5-.1-.55-1.5-.35-7.65-.55-9.7 4.6-13.3 16.9z"
         fill="#F1F1F1" /><path
         id="path705"
         d="M175.3 131.15q-3.7-3.2-7.85-5.55-16.45-9.45-32.5-2.2-3.9 1.8-6 5.35 3.4-1.9 6.4-1.8-6.05 5.95-7.65 10.7-1.65 4.75-1.75 6.75 0 10.2 1.3 5.15v-.05h.05q.2-1.75.35-2.3.15-.55.3-1.35 3.6-12.3 13.3-16.9l3.55-1q9.05-1.1 6.9.55-2.2 1.55-2.7 1.55-14.1 10.4-7.6 31.65l.55 1.75q-5.4 3.2-11.8-3.25-1.65-.65-3.2-2.95 1 2.8 3.3 5.45 1.45 1.5 6.3 3.9 15.8 7.8 31.4 1.35.5 0 .75-.25 14.75-13.85 6.6-36.55m-20.9 15.35q-9.2 2.55-8.55-9.05 11.75-12.05 12.8 4.3.3 3.55-4.25 4.75m10.75-6.7q-2.35 1.6-4.65-4.95 6.95 3.4 4.65 4.95z"
         fill="#0B0807" /><path
         id="path707"
         d="M160.5 134.85q2.3 6.55 4.65 4.95 2.3-1.55-4.65-4.95z"
         fill="#E6E6E6" /><path
         id="path709"
         d="M145.85 137.45q-.65 11.6 8.55 9.05 4.55-1.2 4.25-4.75-1.05-16.35-12.8-4.3z"
         fill="#F0F0F0" /><path
         id="path711"
         d="M247.25 96.8q.95-6.8.6-6.45l-2.15 9.15q-.1.55-.25 1.05-2.9 11.65-8.05 21.1-.55 0-.85-.25-17.7-14.9-31.8-33.4 12.1-28.95 35.95-46.05.35-.25.9-.25 3.25 4.05 4.95 9.8.9 3.25 1.3 7 .05.55.05 1.1l-.2 6.45q2.3-6.2 1.95-13.35-.45-7.2-4.55-12.6-1.45-2.05-3.5-.85Q212.05 56.9 195.3 88q16.7 20.6 38.85 35.8 5.6 3.9 8.5 10.5-1.8-13.65.95-22.15 2.7-8.55 3.65-15.35z"
         fill="#170E08" /></g></defs><sodipodi:namedview
     pagecolor="#ffffff"
     bordercolor="#666666"
     borderopacity="1"
     objecttolerance="10"
     gridtolerance="10"
     guidetolerance="10"
     inkscape:pageopacity="0"
     inkscape:pageshadow="2"
     inkscape:window-width="1920"
     inkscape:window-height="1001"
     id="namedview3735"
     showgrid="false"
     inkscape:zoom="1.578125"
     inkscape:cx="320.83911"
     inkscape:cy="349.94237"
     inkscape:window-x="-9"
     inkscape:window-y="-9"
     inkscape:window-maximized="1"
     inkscape:current-layer="layer2" /><g
     id="g3732"><path
       fill-rule="evenodd"
       clip-rule="evenodd"
       fill="#6E25DD"
       d="M257.417,513.422c-83.409,0-166.816-0.047-250.224,0.125   c-4.688,0.01-5.921-0.689-5.916-5.729C1.453,341.003,1.458,174.186,1.264,7.371C1.258,1.982,2.688,1.301,7.559,1.306   c166.579,0.14,333.159,0.142,499.738-0.003c4.901-0.004,6.288,0.722,6.281,6.079c-0.19,166.815-0.187,333.632-0.009,500.447   c0.004,5.062-1.264,5.727-5.929,5.717C424.233,513.376,340.825,513.422,257.417,513.422z M237.68,454.615   c1.405,1.503,3.22,1.882,5.172,1.882c19.411,0,38.821,0.029,58.231-0.061c1.574-0.008,3.145-0.827,4.717-1.27   c0.007-0.5,0.014-1,0.02-1.502c0.185-0.465,0.167-0.924-0.05-1.373l0.172,0.105c0.514-1.989,0.604-3.971-0.118-5.937   c-0.785-14.681-9.166-27.483-22.913-30.896c-9.175-2.278-14.432-8.249-20.493-14.076c-2.716-2.61-2.308-4.452-0.051-7.097   c33.195-38.899,49.222-84.103,49.13-135.101c-0.007-4.009,0.973-5.861,5.206-6.631c5.078-0.924,10.171-2.456,14.894-4.546   c29.848-13.207,45.911-36.837,51.131-68.499c5.675-0.139,12.744,1.755,16.669-0.936c4.781-3.279,1.477-10.809,1.589-16.504   c-0.438-50.053-42.13-95.555-91.029-99.347c-7.534-0.793-15.074-0.563-22.613-0.105c-41.935,2.807-78.36,18.822-110.013,46.104   c-9.583,8.26-9.46,8.425-18.316-1.165c-5.274-5.711-11.447-10.256-10.115-20.167c0.972-7.232-7.213-12.763-14.58-12.15   c-7.472,0.621-13.413,7.603-12.954,15.228c0.48,7.979,6.844,14.874,14.267,13.63c5.779-0.969,8.758,1.382,12.012,5.021   c3.157,3.529,6.403,7.022,9.941,10.158c3.594,3.186,3.489,5.406,0.267,9.197c-28.462,33.497-44.766,72.14-48.163,116.086   c-0.061,3.791-0.12,7.58-0.181,11.369c-0.152,13.954-0.421,27.906-0.435,41.859c-0.052,51.854,0.038,103.708-0.112,155.563   c-0.015,5.131,0.734,7.422,6.798,7.407c18.347-0.048,36.347-2.069,54.013-7.005c29.28-8.179,54.915-22.944,77.187-43.475   c4.954-4.565,6.381,0.111,8.869,2.24c4.004,3.428,0.2,4.397-1.991,5.938c-7.845,5.522-13.339,12.624-14.769,22.391   c-0.181,1.214-0.36,2.428-0.54,3.645C237.042,447.836,237.945,451.275,237.68,454.615z"
       id="path3680" /><path
       fill-rule="evenodd"
       clip-rule="evenodd"
       fill="#1C1B1E"
       d="M309.955,62.829c48.899,3.792,90.592,49.294,91.029,99.347   c-1.622,2.307-1.563,4.992-1.301,7.544c0.646,6.271-2.056,8.651-8.206,8.121c-2.975-0.257-6.227-0.704-8.751,1.775   c-5.22,31.661-21.283,55.292-51.131,68.499c-4.723,2.09-9.815,3.622-14.894,4.546c-4.233,0.77-5.213,2.622-5.206,6.631   c0.092,50.998-15.935,96.201-49.13,135.101c-2.257,2.645-2.665,4.486,0.051,7.097c6.062,5.827,11.318,11.798,20.493,14.076   c13.747,3.412,22.128,16.215,22.913,30.897c0.039,1.978,0.079,3.957,0.118,5.935c0,0-0.172-0.105-0.172-0.107   c-16.982-0.004-33.966-0.008-50.947-0.011c-12.372-0.003-12.372-0.002-15.756-11.325c1.43-9.767,6.924-16.868,14.769-22.391   c2.191-1.541,5.995-2.511,1.991-5.938c-2.488-2.129-3.915-6.806-8.869-2.24c-22.272,20.53-47.906,35.296-77.187,43.475   c-17.666,4.936-35.666,6.957-54.013,7.005c-6.064,0.015-6.813-2.276-6.798-7.407c0.149-51.854,0.06-103.708,0.112-155.563   c0.014-13.953,0.283-27.905,0.435-41.859c0.072,3.551,0.204,7.103,0.206,10.653c0.012,60.892,0.008,121.784,0.007,182.676   c0,2.29,0,4.582,0,6.872c1.041-0.724,1.195-1.414,1.196-2.103c0.014-67.526,0.016-135.054,0.015-202.578   c0-2.368,0.106-4.761-1.242-6.889c3.397-43.946,19.701-82.589,48.163-116.086c3.222-3.792,3.327-6.011-0.267-9.197   c-3.538-3.136-6.784-6.629-9.941-10.158c-3.254-3.639-6.233-5.99-12.012-5.021c-7.423,1.243-13.787-5.651-14.267-13.63   c-0.459-7.625,5.482-14.607,12.954-15.228c7.367-0.612,15.552,4.918,14.58,12.15c-1.332,9.911,4.841,14.455,10.115,20.167   c8.855,9.59,8.732,9.425,18.316,1.165c31.653-27.282,68.078-43.297,110.013-46.104C294.869,64.792,302.408,64.646,309.955,62.829z    M284.337,441.991c2.686,0.077,6.419,1.649,7.704-0.814c1.237-2.373-1.561-5.16-3.371-7.246c-4.129-4.754-9.032-8.163-15.777-7.621   c-9.08-0.694-15.247,3.78-19.813,11.134c-2.202,3.546-1.411,4.949,2.898,4.836C265.427,442.03,274.884,442.071,284.337,441.991z    M305.958,174.975c-0.046,0.464-0.092,0.929-0.139,1.395c0.134,17.706,0.507,35.414,0.266,53.114   c-0.079,5.789,1.588,6.737,6.873,5.449c23.058-5.623,38.906-19.375,47.747-41.325c2.872-6.169,4.459-12.65,4.692-19.457   c-1.541-1.76-3.599-2.043-5.77-2.042c-15.74,0.008-31.48,0.013-47.221,0.014c-1.928,0-3.731,0.385-5.281,1.613   c-0.117,0.468-0.234,0.936-0.352,1.403C306.494,175.121,306.223,175.066,305.958,174.975z M308.527,81.215   c-1.98-0.128-2.281,1.142-2.281,2.703c0,24.317,0.046,48.635-0.063,72.952c-0.016,3.627,1.704,4.294,4.778,4.264   c15.812-0.16,31.624-0.208,47.437-0.296c3.299,0.153,6.597,0.428,9.896,0.438c17.03,0.046,17.03,0.022,12.571-16.849   C371.744,109.931,340.866,82.947,308.527,81.215z M294.545,82.605c-2.781-3.609-6.594-1.778-9.842-1.522   c-85.323,6.736-157.213,84.918-158.08,172.523c-0.565,57.045-0.219,114.1-0.271,171.15c-0.018,19.744,2.103,21.18,21.639,14.752   c2.894,0.533,5.656-0.236,8.399-0.942c70.056-18.003,112.85-63.319,132.289-132.046c3.106-10.981,3.635-22.389,5.69-33.54   c2.694-1.652,1.381-4.31,1.385-6.45c0.082-58.542,0.069-117.083,0.051-175.625C295.804,88.089,296.204,85.184,294.545,82.605z    M123.982,439.196c0.222,0.036,0.442,0.071,0.664,0.107c0-59.149,0-118.301,0-177.451c-0.221,0-0.442,0-0.664,0.002   C123.982,320.968,123.982,380.082,123.982,439.196z"
       id="path3682" /><path
       fill-rule="evenodd"
       clip-rule="evenodd"
       fill="#0C130F"
       d="M109.688,244.667c1.348,2.128,1.242,4.521,1.242,6.889   c0.001,67.524-0.001,135.052-0.015,202.578c0,0.688-0.155,1.379-1.196,2.103c0-2.29,0-4.582,0-6.872   c0.001-60.892,0.005-121.784-0.007-182.676c-0.001-3.551-0.134-7.103-0.206-10.653   C109.567,252.246,109.627,248.457,109.688,244.667z"
       id="path3684" /><path
       fill-rule="evenodd"
       clip-rule="evenodd"
       fill="#0C130F"
       d="M239.066,440.954c3.384,11.323,3.384,11.322,15.756,11.325   c16.981,0.003,33.965,0.007,50.947,0.011c0.217,0.451,0.234,0.91,0.05,1.377c-0.521,0.356-1.039,0.714-1.559,1.069   c-21.694-0.052-43.39-0.104-65.084-0.156c-0.217-3.329-0.434-6.656-0.651-9.984C238.706,443.382,238.885,442.168,239.066,440.954z"
       id="path3686" /><path
       fill-rule="evenodd"
       clip-rule="evenodd"
       fill="#7038DB"
       d="M239.176,454.58c21.695,0.052,43.39,0.104,65.084,0.156   c0.514,0.145,1.026,0.287,1.539,0.431c-1.572,0.442-3.143,1.262-4.717,1.27c-19.41,0.09-38.82,0.061-58.231,0.061   c-1.952,0-3.767-0.379-5.172-1.881C238.179,454.604,238.678,454.592,239.176,454.58z"
       id="path3688" /><path
       fill-rule="evenodd"
       clip-rule="evenodd"
       fill="#0C130F"
       d="M382.727,179.617c2.524-2.479,5.776-2.032,8.751-1.775   c6.15,0.53,8.853-1.85,8.206-8.121c-0.263-2.553-0.321-5.237,1.301-7.544c-0.112,5.696,3.192,13.225-1.589,16.504   C395.471,181.372,388.401,179.478,382.727,179.617z"
       id="path3690" /><path
       fill-rule="evenodd"
       clip-rule="evenodd"
       fill="#0C130F"
       d="M309.955,62.829c-7.547,1.817-15.086,1.962-22.613-0.105   C294.881,62.267,302.421,62.036,309.955,62.829z"
       id="path3692" /><path
       fill-rule="evenodd"
       clip-rule="evenodd"
       fill="#292949"
       d="M239.176,454.58c-0.499,0.012-0.997,0.024-1.497,0.036   c0.266-3.341-0.637-6.78,0.845-10.019C238.742,447.924,238.959,451.251,239.176,454.58z"
       id="path3694" /><path
       fill-rule="evenodd"
       clip-rule="evenodd"
       fill="#292949"
       d="M305.941,452.397c-0.039-1.978-0.079-3.957-0.118-5.935   C306.545,448.427,306.455,450.408,305.941,452.397z"
       id="path3696" /><path
       fill-rule="evenodd"
       clip-rule="evenodd"
       fill="#292949"
       d="M305.8,455.167c-0.513-0.144-1.025-0.286-1.539-0.431   c0.52-0.355,1.038-0.713,1.559-1.069C305.813,454.167,305.807,454.667,305.8,455.167z"
       id="path3698" /><path
       fill-rule="evenodd"
       clip-rule="evenodd"
       fill="#4B0EA8"
       d="M294.37,272.979c-2.057,11.152-2.585,22.56-5.691,33.541   c-19.438,68.727-62.233,114.043-132.289,132.046c-2.743,0.706-5.505,1.476-8.4,0.942c-0.061-6.502-0.122-13.003-0.183-19.506   c1.341-0.456,2.652-1.052,4.028-1.349c68.607-14.831,118.788-77.285,122.409-149.091c0.186-3.665,1.432-7.666-4.877-7.844   c-5.446-0.154-8.014,1.395-7.413,7.118c0.193,1.84-0.299,3.752-0.478,5.632c-3.436,0.467-4.263,3.423-5.509,5.895   c-20.851,41.32-53.113,69.077-97.661,82.257c-0.125-29.841-0.262-59.683-0.371-89.523c-0.039-10.699-0.008-10.699-10.106-11.687   c-1.172-15.794,1.488-31.186,5.521-46.311c13.148-49.318,41.922-86.904,86.293-112.06c16.704-9.469,34.596-16.459,54.182-17.654   c0.146,3.304,0.419,6.608,0.423,9.914C294.309,154.526,294.335,213.753,294.37,272.979z M258.702,162.633   c-0.122-7.639-6.135-13.579-13.572-13.407c-7.157,0.165-12.798,6.02-12.896,13.382c-0.1,7.528,5.964,13.852,13.263,13.831   C252.897,176.417,258.823,170.221,258.702,162.633z"
       id="path3700" /><path
       fill-rule="evenodd"
       clip-rule="evenodd"
       fill="#6D28DA"
       d="M293.826,85.386c-19.586,1.194-37.478,8.185-54.182,17.654   c-44.371,25.156-73.145,62.742-86.293,112.06c-4.032,15.125-6.692,30.517-5.521,46.311c-0.424,0.6-0.849,1.2-1.273,1.8   c-0.101,0.699-0.29,1.397-0.29,2.096c-0.026,49.791-0.047,99.582-0.005,149.372c0.001,1.681-0.891,3.916,1.678,4.801l-0.133,0.523   c0.061,6.503,0.121,13.004,0.182,19.506c-19.535,6.428-21.655,4.992-21.638-14.752c0.052-57.05-0.295-114.104,0.271-171.15   c0.867-87.605,72.757-165.788,158.08-172.523c3.248-0.256,7.061-2.087,9.842,1.521C294.306,83.531,294.065,84.458,293.826,85.386z"
       id="path3702" /><path
       fill-rule="evenodd"
       clip-rule="evenodd"
       fill="#F3AE47"
       d="M358.397,160.837c-15.813,0.087-31.625,0.136-47.437,0.296   c-3.074,0.031-4.794-0.636-4.778-4.264c0.109-24.317,0.063-48.635,0.063-72.952c0-1.561,0.301-2.831,2.282-2.703   c1.695,1.261,3.341,2.592,5.089,3.771C340.582,103.168,356.157,128.064,358.397,160.837z"
       id="path3704" /><path
       fill-rule="evenodd"
       clip-rule="evenodd"
       fill="#F2AC46"
       d="M360.705,193.607c-8.841,21.95-24.689,35.703-47.747,41.325   c-5.285,1.289-6.952,0.34-6.873-5.449c0.241-17.7-0.132-35.408-0.266-53.114c0.047-0.465,0.093-0.931,0.139-1.395   c0.265,0.091,0.536,0.146,0.815,0.164c2.921,0.832,5.893,1.518,8.754,2.52C330.603,182.931,345.649,188.283,360.705,193.607z"
       id="path3706" /><path
       fill-rule="evenodd"
       clip-rule="evenodd"
       fill="#EE8F2E"
       d="M358.397,160.837c-2.24-32.773-17.815-57.669-44.78-75.851   c-1.748-1.179-3.394-2.51-5.089-3.771c32.338,1.732,63.216,28.715,72.336,63.211c4.459,16.871,4.459,16.895-12.571,16.849   C364.994,161.265,361.696,160.99,358.397,160.837z"
       id="path3708" /><path
       fill-rule="evenodd"
       clip-rule="evenodd"
       fill="#E58A2D"
       d="M360.705,193.607c-15.056-5.324-30.103-10.676-45.178-15.949   c-2.861-1.001-5.833-1.688-8.754-2.52c0.118-0.468,0.235-0.936,0.353-1.404c19.424,0.139,38.848,0.276,58.271,0.415   C365.164,180.957,363.577,187.438,360.705,193.607z"
       id="path3710" /><path
       fill-rule="evenodd"
       clip-rule="evenodd"
       fill="#F3AE47"
       d="M284.337,441.991c-9.453,0.08-18.91,0.039-28.36,0.288   c-4.309,0.113-5.1-1.29-2.898-4.836c4.566-7.354,10.733-11.828,19.814-11.134C278.171,430.47,282.33,435.446,284.337,441.991z"
       id="path3712" /><path
       fill-rule="evenodd"
       clip-rule="evenodd"
       fill="#1A1116"
       d="M293.826,85.386c0.239-0.928,0.479-1.855,0.719-2.782   c1.659,2.58,1.259,5.485,1.26,8.302c0.019,58.542,0.031,117.083-0.051,175.625c-0.004,2.141,1.31,4.798-1.385,6.449   c-0.034-59.227-0.061-118.453-0.12-177.68C294.245,91.995,293.973,88.69,293.826,85.386z"
       id="path3714" /><path
       fill-rule="evenodd"
       clip-rule="evenodd"
       fill="#160F0B"
       d="M123.982,439.196c0-59.114,0-118.229,0-177.342   c0.222-0.002,0.442-0.002,0.664-0.002c0,59.15,0,118.302,0,177.451C124.425,439.268,124.204,439.232,123.982,439.196z"
       id="path3716" /><path
       fill-rule="evenodd"
       clip-rule="evenodd"
       fill="#E58A2D"
       d="M284.337,441.991c-2.007-6.545-6.166-11.521-11.443-15.682   c6.744-0.542,11.647,2.867,15.776,7.621c1.811,2.086,4.608,4.873,3.371,7.246C290.756,443.641,287.022,442.068,284.337,441.991z"
       id="path3718" /><path
       fill-rule="evenodd"
       clip-rule="evenodd"
       fill="#1A1116"
       d="M365.397,174.15c-19.424-0.139-38.848-0.276-58.271-0.415   c1.55-1.228,3.354-1.613,5.281-1.613c15.74-0.001,31.48-0.005,47.221-0.014C361.799,172.107,363.856,172.39,365.397,174.15z"
       id="path3720" /><path
       fill-rule="evenodd"
       clip-rule="evenodd"
       fill="#0D0B19"
       d="M305.958,174.975c-0.046,0.464-0.092,0.929-0.139,1.395   C305.866,175.904,305.912,175.439,305.958,174.975z"
       id="path3722" /><path
       fill-rule="evenodd"
       clip-rule="evenodd"
       fill="#1C1B1E"
       d="M146.558,263.211c0.424-0.6,0.849-1.2,1.273-1.8   c10.098,0.987,10.067,0.987,10.106,11.687c0.109,29.841,0.246,59.683,0.371,89.526c-0.07,11.829,0.034,23.661-0.295,35.481   c-0.132,4.729,1.117,5.6,5.638,4.213c51.799-15.901,95.564-72.988,97.827-127.849c0.179-1.88,0.671-3.792,0.478-5.632   c-0.601-5.724,1.967-7.272,7.413-7.118c6.309,0.178,5.063,4.179,4.877,7.844c-3.621,71.806-53.802,134.26-122.409,149.091   c-1.376,0.297-2.688,0.893-4.028,1.349c0,0,0.133-0.523,0.133-0.523c-0.012-48.872-0.013-97.743-0.064-146.614   C147.873,269.614,148.556,266.214,146.558,263.211z"
       id="path3724" /><path
       fill-rule="evenodd"
       clip-rule="evenodd"
       fill="#6E27DB"
       d="M261.478,274.47c-2.263,54.86-46.027,111.947-97.827,127.849   c-4.521,1.387-5.771,0.517-5.638-4.213c0.329-11.82,0.226-23.652,0.295-35.481c44.547-13.183,76.81-40.939,97.661-82.26   C257.215,277.893,258.042,274.937,261.478,274.47z"
       id="path3726" /><path
       fill-rule="evenodd"
       clip-rule="evenodd"
       fill="#1C1B1E"
       d="M258.702,162.633c0.121,7.587-5.805,13.783-13.204,13.806   c-7.299,0.021-13.363-6.303-13.263-13.831c0.097-7.362,5.738-13.217,12.896-13.382C252.567,149.054,258.58,154.995,258.702,162.633   z"
       id="path3728" /><path
       fill-rule="evenodd"
       clip-rule="evenodd"
       fill="#0C130F"
       d="M146.558,263.211c1.998,3.003,1.315,6.403,1.318,9.654   c0.051,48.871,0.052,97.742,0.064,146.614c-2.569-0.885-1.676-3.12-1.678-4.801c-0.042-49.79-0.021-99.581,0.005-149.372   C146.268,264.608,146.458,263.91,146.558,263.211z"
       id="path3730" /></g><g
     inkscape:groupmode="layer"
     id="layer1"
     inkscape:label="Doge"
     style="display:inline"
     sodipodi:insensitive="true" /><g
     inkscape:groupmode="layer"
     id="layer2"
     inkscape:label="Doge 1"
     style="display:inline"><use
       id="use716"
       xlink:href="#a"
       x="0"
       y="0"
       width="100%"
       height="100%"
       transform="matrix(-0.99925304,0,0,0.99925304,416.11358,-19.183935)" /></g></svg>