<?xml version="1.0" encoding="utf-8"?>
<!-- Generator: Adobe Illustrator 16.0.0, SVG Export Plug-In . SVG Version: 6.00 Build 0)  -->
<!DOCTYPE svg PUBLIC "-//W3C//DTD SVG 1.1//EN" "http://www.w3.org/Graphics/SVG/1.1/DTD/svg11.dtd">
<svg version="1.1" id="Layer_1" xmlns="http://www.w3.org/2000/svg" xmlns:xlink="http://www.w3.org/1999/xlink" x="0px" y="0px"
	 width="512px" height="512px" viewBox="0 0 512 512" enable-background="new 0 0 512 512" xml:space="preserve">
<g>
	<path fill="#1E1C1D" d="M272.777,455.225c-9.998,0-20-0.175-29.991,0.097c-3.484,0.094-4.363-1.403-4.355-4.295
		c0.038-13.717,4.795-24.988,16.832-32.495c1.584-0.988,4.375-1.776,1.963-4.255c-2.075-2.132-3.354-6.508-7.768-4.183
		c-1.729,0.911-3.169,2.409-4.661,3.73c-18.53,16.398-39.394,28.908-62.79,36.951c-21.87,7.519-44.377,11.326-67.604,10.532
		c-3.819-0.131-5.025-1.768-4.98-5.117c0.109-8.155,0.333-16.312,0.337-24.468c0.029-58.986-0.555-117.981,0.196-176.961
		c0.602-47.271,17.438-88.924,47.803-125.096c4.432-5.279,4.582-5.155-0.157-9.907c-4-4.011-7.976-8.044-11.363-12.604
		c-1.768-2.38-3.967-3.134-6.942-2.622c-9.61,1.652-16.237-3.279-17.129-12.541c-0.918-9.535,4.937-15.345,14.728-16.159
		c7.169-0.597,15.131,10.046,12.889,17.221c-1.079,3.453-0.063,5.715,2.249,7.97c4.763,4.646,9.509,9.313,14.181,14.051
		c2.612,2.649,4.321,0.85,6.235-0.927c9.294-8.628,19.234-16.428,29.987-23.172c0.703-0.44,1.393-0.906,2.11-1.321
		c31.892-18.46,65.917-28.701,103.104-26.689c13.319,0.72,25.373,5.039,37.438,10.882c23.855,11.552,39.182,30.257,49.22,53.944
		c6.536,15.422,8.25,31.775,7.962,48.409c-0.054,3.023-1.164,4.184-4.161,4.061c-3.826-0.156-7.67,0.096-11.493-0.084
		c-2.448-0.115-3.361,0.62-3.883,3.166c-1.739,8.472-4.009,16.833-7.78,24.669c-8.701,18.07-22.081,31.629-40.445,39.629
		c-5.441,2.37-10.956,5.316-17.271,5.678c-3.651,0.209-5.243,2.605-5.249,6.509c-0.08,50.267-15.105,95.265-47.834,133.841
		c-3.321,3.916-3.497,6.688,0.464,9.834c1.026,0.817,1.854,1.905,2.694,2.933c3.752,4.576,8.213,7.228,14.242,8.88
		c16.346,4.479,26.01,19.563,25.39,37.327c-0.104,2.946-1.863,2.579-3.673,2.58C293.107,455.228,282.941,455.225,272.777,455.225z
		 M284.029,442.141c1.912,0.76,3.916,0.632,5.912,0.646c3.479,0.027,4.02-1.305,2.246-4.229
		c-4.188-6.901-9.375-12.111-18.224-11.683c-11.493-0.438-19.043,4.936-21.69,15.264
		C262.825,442.141,273.428,442.141,284.029,442.141z M361.324,194.08c3.814-4.841,3.845-10.741,4.629-16.438
		c0.322-2.336-0.854-2.766-2.863-2.757c-17.707,0.074-35.418-0.583-53.12,0.326c-3.349-1.063-2.923,1.233-2.927,3.237
		c-0.034,17.825,0.057,35.652-0.24,53.473c-0.071,4.338,1.779,4.666,5.043,3.982C335.87,230.872,352.476,217.064,361.324,194.08z
		 M307.269,82.051c-0.12,6.976-0.341,13.951-0.344,20.927c-0.009,18.293,0.06,36.586,0.157,54.878
		c0.01,1.732-1.011,4.192,2.489,4.119c16.448-0.345,32.909,0.566,49.351-0.51c5.479,0.107,10.954,0.278,16.433,0.31
		c8.952,0.052,8.952,0.015,7.727-8.938c-5.008-36.535-36.322-67.329-72.818-71.569C309.233,81.147,307.914,80.473,307.269,82.051z
		 M294.581,84.791c0.551-5.132-3.313-3.718-5.713-3.492c-24.714,2.321-48.39,8.285-70.088,20.778
		c-36.584,21.065-63.025,51.002-78.59,90.344c-9.735,24.607-13.587,50.194-13.446,76.632c0.294,55.303,0.089,110.606,0.09,165.909
		c0,1.499,0.071,3,0.017,4.496c-0.088,2.395,0.628,3.615,3.403,3.384c6.112-0.511,12.243-0.765,18.146-2.66
		c4.884,0.745,9.356-0.795,13.973-2.137c54.138-15.741,93.63-48.363,116.359-100.46c8.916-20.435,15.615-41.696,15.85-63.97
		c0.643-61.106,0.209-122.224,0.189-183.337C294.77,88.449,294.646,86.62,294.581,84.791z"/>
	<path fill="#FCFCFC" d="M147.813,420.508c0.195,6.56,0.39,13.116,0.585,19.674c-5.902,1.896-12.034,2.149-18.146,2.66
		c-2.774,0.231-3.491-0.989-3.403-3.384c0.055-1.496-0.017-2.997-0.017-4.496c-0.001-55.303,0.204-110.606-0.09-165.909
		c-0.141-26.438,3.711-52.024,13.446-76.632c15.565-39.342,42.006-69.278,78.59-90.344c21.699-12.493,45.375-18.457,70.088-20.778
		c2.399-0.226,6.264-1.64,5.713,3.492c-10.007,2.349-20.11,4.215-29.782,7.946c-61.277,23.645-98.125,68.159-112.792,131.672
		c-2.854,12.361-4.5,24.885-3.975,37.62c-1.982,1.516-1.949,3.656-1.947,5.867c0.044,49.248,0.061,98.498,0.088,147.745
		C146.174,417.438,145.793,419.384,147.813,420.508z"/>
	<path fill="#F2AC46" d="M358.922,161.465c-16.44,1.076-32.902,0.165-49.351,0.51c-3.5,0.073-2.479-2.387-2.489-4.119
		c-0.099-18.292-0.166-36.585-0.157-54.878c0.003-6.976,0.224-13.951,0.344-20.927c1.956,0.886,3.999,1.62,5.854,2.684
		c11.271,6.469,20.35,15.413,27.845,25.869C351.836,125.768,358.372,142.593,358.922,161.465z"/>
	<path fill="#F2AC46" d="M361.657,203.541c-8.85,22.984-25.454,36.792-49.479,41.823c-3.264,0.684-5.114,0.355-5.043-3.982
		c0.297-17.82,0.206-35.647,0.24-53.473c0.004-2.004-0.422-4.301,2.928-3.237c0.612,0.532,1.14,1.312,1.851,1.562
		C328.643,192.037,345.152,197.784,361.657,203.541z"/>
	<path fill="#E88D2E" d="M358.922,161.465c-0.55-18.872-7.086-35.697-17.956-50.861c-7.495-10.456-16.574-19.4-27.845-25.869
		c-1.854-1.063-3.896-1.798-5.854-2.684c0.646-1.578,1.966-0.903,2.993-0.784c36.496,4.24,67.812,35.034,72.818,71.569
		c1.227,8.953,1.227,8.99-7.728,8.938C369.876,161.743,364.399,161.572,358.922,161.465z"/>
	<path fill="#F2AC46" d="M284.029,442.141c-10.603,0-21.204,0-31.754,0c2.647-10.328,10.198-15.7,21.691-15.264
		c1.284,1.48,2.54,2.987,3.857,4.438C280.688,434.472,283.822,437.464,284.029,442.141z"/>
	<path fill="#E88D2E" d="M284.029,442.141c-0.207-4.677-3.342-7.669-6.206-10.825c-1.317-1.45-2.573-2.957-3.857-4.438
		c8.849-0.43,14.033,4.78,18.222,11.683c1.773,2.924,1.234,4.256-2.246,4.229C287.945,442.771,285.941,442.899,284.029,442.141z"/>
	<path fill="#1E1C1D" d="M147.813,420.508c-2.02-1.124-1.639-3.068-1.64-4.865c-0.027-49.248-0.044-98.496-0.088-147.746
		c-0.002-2.211-0.035-4.352,1.947-5.867c0.971,0.228,1.93,0.561,2.914,0.662c7.88,0.822,7.943,0.811,7.949,9.052
		c0.021,28.161-0.013,56.323,0.003,84.487c0.001,1.988,0.242,3.979,0.371,5.97c-0.09,12.641-0.051,25.284-0.338,37.922
		c-0.103,4.543,1.98,4.73,5.183,3.336c6.517-2.838,13.188-5.42,19.418-8.804c27.758-15.069,48.95-36.602,63.087-64.973
		c8.592-17.242,14.225-35.283,15.311-54.617c0.34-2.805,0.67-5.611,1.021-8.416c0.393-3.125,2.1-4.643,5.326-4.742
		c5.863-0.184,6.992,0.791,6.755,6.783c-2.826,71.246-52.758,135.993-122.916,150.629
		C150.662,419.62,149.247,420.107,147.813,420.508z"/>
	<path fill="#FCFCFC" d="M261.93,275.064c-1.086,19.332-6.718,37.373-15.311,54.617c-14.137,28.37-35.329,49.901-63.087,64.973
		c-6.23,3.383-12.901,5.965-19.418,8.803c-3.203,1.396-5.286,1.207-5.183-3.336c0.287-12.637,0.248-25.281,0.338-37.922
		c7.369-0.848,14.139-3.664,20.785-6.668c30.526-13.797,53.602-35.971,71.227-64.102c2.363-3.772,3.841-8.094,5.837-12.105
		C258.123,277.305,258.891,274.857,261.93,275.064z"/>
	<path fill="#E88D2E" d="M354.169,218.17c-14.873-9.183-30.666-22.597-45.513-31.823c-0.64-0.397-0.985-1.271-1.47-1.925
		c17.48,2.934,34.632,7.398,51.938,11.148c1.964,0.425,8.575,0.102,7.755,2.313C364.885,203.278,358.939,214.268,354.169,218.17z"/>
</g>
<path fill-rule="evenodd" clip-rule="evenodd" fill="#0A4A6E" d="M223.815,166.232c0.723-1.136,1.443-2.271,2.166-3.408
	c0.869-1.143,1.738-2.288,2.606-3.432c11.834-10.037,24.658-13.312,39.058-5.686c1.096,0.581,2.269,1.151,3.135,2.001
	c1.544,1.52,4.827,2.698,3.781,5.058c-1.269,2.855-4.022,0.394-6.018-0.029c-17.418-3.692-35.118,5.803-41.989,22.473
	c-0.965,2.342-0.556,6.777-3.396,6.549c-3.29-0.264-1.928-4.848-3.142-7.331c0.029-0.947,0.059-1.895,0.087-2.84
	c0.618-3.03,1.238-6.06,1.856-9.092C222.58,169.074,223.198,167.653,223.815,166.232z"/>
<path fill-rule="evenodd" clip-rule="evenodd" fill="#0A4A6E" d="M294.77,90.278c0-1.829-0.123-3.658-0.188-5.487
	c-10.007,2.349-20.11,4.215-29.782,7.947c-61.277,23.645-98.125,68.159-112.792,131.672c-2.855,12.361-4.5,24.885-3.975,37.62
	c0.971,0.226,1.931,0.559,2.914,0.661c7.88,0.822,7.943,0.811,7.949,9.052c0.021,28.161-0.014,56.323,0.003,84.487
	c0.001,1.99,0.242,3.979,0.371,5.97c7.368-0.847,14.139-3.664,20.785-6.668c30.526-13.798,53.602-35.972,71.227-64.103
	c2.363-3.771,3.841-8.092,5.837-12.104c1.005-2.021,1.772-4.468,4.812-4.261c0.338-2.805,0.668-5.611,1.021-8.416
	c0.392-3.125,2.099-4.642,5.326-4.742c5.863-0.184,6.992,0.791,6.755,6.783c-2.826,71.246-52.758,135.993-122.916,150.629
	c-1.454,0.302-2.869,0.79-4.303,1.189c0.194,6.56,0.39,13.116,0.585,19.674c4.885,0.745,9.357-0.795,13.973-2.137
	c54.138-15.741,93.631-48.363,116.359-100.46c8.916-20.435,15.617-41.696,15.85-63.97
	C295.223,212.508,294.789,151.391,294.77,90.278z"/>
<path fill-rule="evenodd" clip-rule="evenodd" fill="#1E1C1D" d="M260.096,149.355c0.723,0.532,1.286,1.233,0.888,2.119
	c-0.783,1.744-2.459,1.292-3.874,1.339c-10.097,0.352-18.787,3.779-26.017,11.075c-7.217,7.284-10.616,15.99-11.001,26.076
	c-0.053,1.38,0.516,3.25-1.357,3.795c-1.504,0.438-2.045-1.127-2.709-2.138c-6.404-9.768-3.862-26.951,5.348-36.261
	c10.329-10.439,27.353-13.457,37.656-6.678C259.381,148.913,259.743,149.128,260.096,149.355z"/>
<path fill-rule="evenodd" clip-rule="evenodd" fill="#FEFEFE" d="M513.113,5.174c0.002-3.811-1.034-4.256-4.438-4.254
	C340.884,1.012,173.091,1.013,5.299,0.914C1.83,0.912,0.89,1.455,0.893,5.199c0.124,167.959,0.122,335.918,0.004,503.877
	c-0.002,3.575,0.917,4.013,4.178,4.009C89.054,512.979,173.034,513,257.014,513c83.979,0,167.958-0.023,251.938,0.088
	c3.313,0.005,4.152-0.511,4.149-4.037C512.986,341.092,512.983,173.133,513.113,5.174z M402.27,176.2
	c-0.053,3.024-1.163,4.184-4.16,4.061c-0.005,0-0.01,0-0.015,0l-29.396-2.395l-1.087-1.219c0.081-0.236-0.069-0.492-0.663-0.743v0
	h-0.001c-2.732-1.156-14.851-2.208-56.979-0.693l1.148,0.458l-3.851-0.016l-0.081,8.77l70.302,17.688
	c-0.764,1.995-1.603,3.965-2.535,5.902c-8.701,18.07-22.081,31.629-40.445,39.629c-5.441,2.37-10.956,5.317-17.271,5.678
	c-3.651,0.209-5.243,2.606-5.249,6.509c-0.08,50.268-15.105,95.265-47.833,133.841c-3.322,3.916-3.498,6.688,0.463,9.834
	c1.027,0.818,1.853,1.906,2.695,2.933c3.752,4.576,8.211,7.228,14.242,8.88c16.346,4.479,26.008,19.562,25.389,37.327
	c-0.104,2.946-1.863,2.579-3.672,2.58c-10.164,0.005-20.33,0.002-30.494,0.002c-9.998,0-20-0.175-29.992,0.096
	c-3.484,0.094-4.363-1.403-4.355-4.295c0.038-13.717,4.795-24.988,16.832-32.495c1.585-0.988,4.375-1.776,1.962-4.255
	c-2.074-2.132-3.353-6.508-7.767-4.183c-1.729,0.911-3.169,2.409-4.661,3.73c-18.53,16.398-39.394,28.908-62.79,36.951
	c-21.87,7.518-44.377,11.326-67.604,10.532c-3.819-0.131-5.025-1.767-4.98-5.117c0.109-8.155,0.333-16.312,0.337-24.468
	c0.029-58.987-0.555-117.981,0.196-176.961c0.602-47.271,17.437-88.924,47.803-125.096c4.432-5.279,4.582-5.155-0.157-9.907
	c-3.999-4.011-7.975-8.044-11.363-12.604c-1.768-2.38-3.966-3.134-6.942-2.622c-9.61,1.652-16.237-3.279-17.129-12.541
	c-0.918-9.535,4.937-15.345,14.728-16.159c7.169-0.596,15.131,10.046,12.889,17.221c-1.078,3.453-0.062,5.715,2.249,7.97
	c4.764,4.647,9.509,9.313,14.181,14.051c2.612,2.649,4.321,0.849,6.235-0.927c9.294-8.628,19.234-16.428,29.987-23.172
	c0.703-0.44,1.392-0.906,2.11-1.321c31.892-18.46,65.916-28.701,103.104-26.689c13.319,0.72,25.373,5.039,37.438,10.882
	c23.856,11.551,39.181,30.256,49.22,53.944C400.845,143.213,402.559,159.566,402.27,176.2z"/>
<rect x="308.97" y="174.211" fill-rule="evenodd" clip-rule="evenodd" fill="#FEFEFE" width="123.197" height="9.211"/>
</svg>
