<?xml version="1.0" encoding="utf-8"?>
<!-- Generator: Adobe Illustrator 16.0.0, SVG Export Plug-In . SVG Version: 6.00 Build 0)  -->
<!DOCTYPE svg PUBLIC "-//W3C//DTD SVG 1.1//EN" "http://www.w3.org/Graphics/SVG/1.1/DTD/svg11.dtd">
<svg version="1.1" id="Layer_1" xmlns="http://www.w3.org/2000/svg" xmlns:xlink="http://www.w3.org/1999/xlink" x="0px" y="0px"
	 width="512px" height="512px" viewBox="0 0 512 512" enable-background="new 0 0 512 512" xml:space="preserve">
<g>
	<path fill-rule="evenodd" clip-rule="evenodd" fill="#6E25DD" d="M257.417,513.422c-83.409,0-166.816-0.047-250.224,0.125
		c-4.688,0.01-5.921-0.689-5.916-5.729C1.453,341.003,1.458,174.186,1.264,7.371C1.258,1.982,2.688,1.301,7.559,1.306
		c166.579,0.14,333.159,0.142,499.738-0.003c4.901-0.004,6.288,0.722,6.281,6.079c-0.19,166.815-0.187,333.632-0.009,500.447
		c0.004,5.062-1.264,5.727-5.929,5.717C424.233,513.376,340.825,513.422,257.417,513.422z M237.68,454.615
		c1.405,1.503,3.22,1.882,5.172,1.882c19.411,0,38.821,0.029,58.231-0.061c1.574-0.008,3.145-0.827,4.717-1.27
		c0.007-0.5,0.014-1,0.02-1.502c0.185-0.465,0.167-0.924-0.05-1.373l0.172,0.105c0.514-1.989,0.604-3.971-0.118-5.937
		c-0.785-14.681-9.166-27.483-22.913-30.896c-9.175-2.278-14.432-8.249-20.493-14.076c-2.716-2.61-2.308-4.452-0.051-7.097
		c33.195-38.899,49.222-84.103,49.13-135.101c-0.007-4.009,0.973-5.861,5.206-6.631c5.078-0.924,10.171-2.456,14.894-4.546
		c29.848-13.207,45.911-36.837,51.131-68.499c5.675-0.139,12.744,1.755,16.669-0.936c4.781-3.279,1.477-10.809,1.589-16.504
		c-0.438-50.053-42.13-95.555-91.029-99.347c-7.534-0.793-15.074-0.563-22.613-0.105c-41.935,2.807-78.36,18.822-110.013,46.104
		c-9.583,8.26-9.46,8.425-18.316-1.165c-5.274-5.711-11.447-10.256-10.115-20.167c0.972-7.232-7.213-12.763-14.58-12.15
		c-7.472,0.621-13.413,7.603-12.954,15.228c0.48,7.979,6.844,14.874,14.267,13.63c5.779-0.969,8.758,1.382,12.012,5.021
		c3.157,3.529,6.403,7.022,9.941,10.158c3.594,3.186,3.489,5.406,0.267,9.197c-28.462,33.497-44.766,72.14-48.163,116.086
		c-0.061,3.791-0.12,7.58-0.181,11.369c-0.152,13.954-0.421,27.906-0.435,41.859c-0.052,51.854,0.038,103.708-0.112,155.563
		c-0.015,5.131,0.734,7.422,6.798,7.407c18.347-0.048,36.347-2.069,54.013-7.005c29.28-8.179,54.915-22.944,77.187-43.475
		c4.954-4.565,6.381,0.111,8.869,2.24c4.004,3.428,0.2,4.397-1.991,5.938c-7.845,5.522-13.339,12.624-14.769,22.391
		c-0.181,1.214-0.36,2.428-0.54,3.645C237.042,447.836,237.945,451.275,237.68,454.615z"/>
	<path fill-rule="evenodd" clip-rule="evenodd" fill="#1C1B1E" d="M309.955,62.829c48.899,3.792,90.592,49.294,91.029,99.347
		c-1.622,2.307-1.563,4.992-1.301,7.544c0.646,6.271-2.056,8.651-8.206,8.121c-2.975-0.257-6.227-0.704-8.751,1.775
		c-5.22,31.661-21.283,55.292-51.131,68.499c-4.723,2.09-9.815,3.622-14.894,4.546c-4.233,0.77-5.213,2.622-5.206,6.631
		c0.092,50.998-15.935,96.201-49.13,135.101c-2.257,2.645-2.665,4.486,0.051,7.097c6.062,5.827,11.318,11.798,20.493,14.076
		c13.747,3.412,22.128,16.215,22.913,30.897c0.039,1.978,0.079,3.957,0.118,5.935c0,0-0.172-0.105-0.172-0.107
		c-16.982-0.004-33.966-0.008-50.947-0.011c-12.372-0.003-12.372-0.002-15.756-11.325c1.43-9.767,6.924-16.868,14.769-22.391
		c2.191-1.541,5.995-2.511,1.991-5.938c-2.488-2.129-3.915-6.806-8.869-2.24c-22.272,20.53-47.906,35.296-77.187,43.475
		c-17.666,4.936-35.666,6.957-54.013,7.005c-6.064,0.015-6.813-2.276-6.798-7.407c0.149-51.854,0.06-103.708,0.112-155.563
		c0.014-13.953,0.283-27.905,0.435-41.859c0.072,3.551,0.204,7.103,0.206,10.653c0.012,60.892,0.008,121.784,0.007,182.676
		c0,2.29,0,4.582,0,6.872c1.041-0.724,1.195-1.414,1.196-2.103c0.014-67.526,0.016-135.054,0.015-202.578
		c0-2.368,0.106-4.761-1.242-6.889c3.397-43.946,19.701-82.589,48.163-116.086c3.222-3.792,3.327-6.011-0.267-9.197
		c-3.538-3.136-6.784-6.629-9.941-10.158c-3.254-3.639-6.233-5.99-12.012-5.021c-7.423,1.243-13.787-5.651-14.267-13.63
		c-0.459-7.625,5.482-14.607,12.954-15.228c7.367-0.612,15.552,4.918,14.58,12.15c-1.332,9.911,4.841,14.455,10.115,20.167
		c8.855,9.59,8.732,9.425,18.316,1.165c31.653-27.282,68.078-43.297,110.013-46.104C294.869,64.792,302.408,64.646,309.955,62.829z
		 M284.337,441.991c2.686,0.077,6.419,1.649,7.704-0.814c1.237-2.373-1.561-5.16-3.371-7.246c-4.129-4.754-9.032-8.163-15.777-7.621
		c-9.08-0.694-15.247,3.78-19.813,11.134c-2.202,3.546-1.411,4.949,2.898,4.836C265.427,442.03,274.884,442.071,284.337,441.991z
		 M305.958,174.975c-0.046,0.464-0.092,0.929-0.139,1.395c0.134,17.706,0.507,35.414,0.266,53.114
		c-0.079,5.789,1.588,6.737,6.873,5.449c23.058-5.623,38.906-19.375,47.747-41.325c2.872-6.169,4.459-12.65,4.692-19.457
		c-1.541-1.76-3.599-2.043-5.77-2.042c-15.74,0.008-31.48,0.013-47.221,0.014c-1.928,0-3.731,0.385-5.281,1.613
		c-0.117,0.468-0.234,0.936-0.352,1.403C306.494,175.121,306.223,175.066,305.958,174.975z M308.527,81.215
		c-1.98-0.128-2.281,1.142-2.281,2.703c0,24.317,0.046,48.635-0.063,72.952c-0.016,3.627,1.704,4.294,4.778,4.264
		c15.812-0.16,31.624-0.208,47.437-0.296c3.299,0.153,6.597,0.428,9.896,0.438c17.03,0.046,17.03,0.022,12.571-16.849
		C371.744,109.931,340.866,82.947,308.527,81.215z M294.545,82.605c-2.781-3.609-6.594-1.778-9.842-1.522
		c-85.323,6.736-157.213,84.918-158.08,172.523c-0.565,57.045-0.219,114.1-0.271,171.15c-0.018,19.744,2.103,21.18,21.639,14.752
		c2.894,0.533,5.656-0.236,8.399-0.942c70.056-18.003,112.85-63.319,132.289-132.046c3.106-10.981,3.635-22.389,5.69-33.54
		c2.694-1.652,1.381-4.31,1.385-6.45c0.082-58.542,0.069-117.083,0.051-175.625C295.804,88.089,296.204,85.184,294.545,82.605z
		 M123.982,439.196c0.222,0.036,0.442,0.071,0.664,0.107c0-59.149,0-118.301,0-177.451c-0.221,0-0.442,0-0.664,0.002
		C123.982,320.968,123.982,380.082,123.982,439.196z"/>
	<path fill-rule="evenodd" clip-rule="evenodd" fill="#0C130F" d="M109.688,244.667c1.348,2.128,1.242,4.521,1.242,6.889
		c0.001,67.524-0.001,135.052-0.015,202.578c0,0.688-0.155,1.379-1.196,2.103c0-2.29,0-4.582,0-6.872
		c0.001-60.892,0.005-121.784-0.007-182.676c-0.001-3.551-0.134-7.103-0.206-10.653
		C109.567,252.246,109.627,248.457,109.688,244.667z"/>
	<path fill-rule="evenodd" clip-rule="evenodd" fill="#0C130F" d="M239.066,440.954c3.384,11.323,3.384,11.322,15.756,11.325
		c16.981,0.003,33.965,0.007,50.947,0.011c0.217,0.451,0.234,0.91,0.05,1.377c-0.521,0.356-1.039,0.714-1.559,1.069
		c-21.694-0.052-43.39-0.104-65.084-0.156c-0.217-3.329-0.434-6.656-0.651-9.984C238.706,443.382,238.885,442.168,239.066,440.954z"
		/>
	<path fill-rule="evenodd" clip-rule="evenodd" fill="#7038DB" d="M239.176,454.58c21.695,0.052,43.39,0.104,65.084,0.156
		c0.514,0.145,1.026,0.287,1.539,0.431c-1.572,0.442-3.143,1.262-4.717,1.27c-19.41,0.09-38.82,0.061-58.231,0.061
		c-1.952,0-3.767-0.379-5.172-1.881C238.179,454.604,238.678,454.592,239.176,454.58z"/>
	<path fill-rule="evenodd" clip-rule="evenodd" fill="#0C130F" d="M382.727,179.617c2.524-2.479,5.776-2.032,8.751-1.775
		c6.15,0.53,8.853-1.85,8.206-8.121c-0.263-2.553-0.321-5.237,1.301-7.544c-0.112,5.696,3.192,13.225-1.589,16.504
		C395.471,181.372,388.401,179.478,382.727,179.617z"/>
	<path fill-rule="evenodd" clip-rule="evenodd" fill="#0C130F" d="M309.955,62.829c-7.547,1.817-15.086,1.962-22.613-0.105
		C294.881,62.267,302.421,62.036,309.955,62.829z"/>
	<path fill-rule="evenodd" clip-rule="evenodd" fill="#292949" d="M239.176,454.58c-0.499,0.012-0.997,0.024-1.497,0.036
		c0.266-3.341-0.637-6.78,0.845-10.019C238.742,447.924,238.959,451.251,239.176,454.58z"/>
	<path fill-rule="evenodd" clip-rule="evenodd" fill="#292949" d="M305.941,452.397c-0.039-1.978-0.079-3.957-0.118-5.935
		C306.545,448.427,306.455,450.408,305.941,452.397z"/>
	<path fill-rule="evenodd" clip-rule="evenodd" fill="#292949" d="M305.8,455.167c-0.513-0.144-1.025-0.286-1.539-0.431
		c0.52-0.355,1.038-0.713,1.559-1.069C305.813,454.167,305.807,454.667,305.8,455.167z"/>
	<path fill-rule="evenodd" clip-rule="evenodd" fill="#4B0EA8" d="M294.37,272.979c-2.057,11.152-2.585,22.56-5.691,33.541
		c-19.438,68.727-62.233,114.043-132.289,132.046c-2.743,0.706-5.505,1.476-8.4,0.942c-0.061-6.502-0.122-13.003-0.183-19.506
		c1.341-0.456,2.652-1.052,4.028-1.349c68.607-14.831,118.788-77.285,122.409-149.091c0.186-3.665,1.432-7.666-4.877-7.844
		c-5.446-0.154-8.014,1.395-7.413,7.118c0.193,1.84-0.299,3.752-0.478,5.632c-3.436,0.467-4.263,3.423-5.509,5.895
		c-20.851,41.32-53.113,69.077-97.661,82.257c-0.125-29.841-0.262-59.683-0.371-89.523c-0.039-10.699-0.008-10.699-10.106-11.687
		c-1.172-15.794,1.488-31.186,5.521-46.311c13.148-49.318,41.922-86.904,86.293-112.06c16.704-9.469,34.596-16.459,54.182-17.654
		c0.146,3.304,0.419,6.608,0.423,9.914C294.309,154.526,294.335,213.753,294.37,272.979z M258.702,162.633
		c-0.122-7.639-6.135-13.579-13.572-13.407c-7.157,0.165-12.798,6.02-12.896,13.382c-0.1,7.528,5.964,13.852,13.263,13.831
		C252.897,176.417,258.823,170.221,258.702,162.633z"/>
	<path fill-rule="evenodd" clip-rule="evenodd" fill="#6D28DA" d="M293.826,85.386c-19.586,1.194-37.478,8.185-54.182,17.654
		c-44.371,25.156-73.145,62.742-86.293,112.06c-4.032,15.125-6.692,30.517-5.521,46.311c-0.424,0.6-0.849,1.2-1.273,1.8
		c-0.101,0.699-0.29,1.397-0.29,2.096c-0.026,49.791-0.047,99.582-0.005,149.372c0.001,1.681-0.891,3.916,1.678,4.801l-0.133,0.523
		c0.061,6.503,0.121,13.004,0.182,19.506c-19.535,6.428-21.655,4.992-21.638-14.752c0.052-57.05-0.295-114.104,0.271-171.15
		c0.867-87.605,72.757-165.788,158.08-172.523c3.248-0.256,7.061-2.087,9.842,1.521C294.306,83.531,294.065,84.458,293.826,85.386z"
		/>
	<path fill-rule="evenodd" clip-rule="evenodd" fill="#F3AE47" d="M358.397,160.837c-15.813,0.087-31.625,0.136-47.437,0.296
		c-3.074,0.031-4.794-0.636-4.778-4.264c0.109-24.317,0.063-48.635,0.063-72.952c0-1.561,0.301-2.831,2.282-2.703
		c1.695,1.261,3.341,2.592,5.089,3.771C340.582,103.168,356.157,128.064,358.397,160.837z"/>
	<path fill-rule="evenodd" clip-rule="evenodd" fill="#F2AC46" d="M360.705,193.607c-8.841,21.95-24.689,35.703-47.747,41.325
		c-5.285,1.289-6.952,0.34-6.873-5.449c0.241-17.7-0.132-35.408-0.266-53.114c0.047-0.465,0.093-0.931,0.139-1.395
		c0.265,0.091,0.536,0.146,0.815,0.164c2.921,0.832,5.893,1.518,8.754,2.52C330.603,182.931,345.649,188.283,360.705,193.607z"/>
	<path fill-rule="evenodd" clip-rule="evenodd" fill="#EE8F2E" d="M358.397,160.837c-2.24-32.773-17.815-57.669-44.78-75.851
		c-1.748-1.179-3.394-2.51-5.089-3.771c32.338,1.732,63.216,28.715,72.336,63.211c4.459,16.871,4.459,16.895-12.571,16.849
		C364.994,161.265,361.696,160.99,358.397,160.837z"/>
	<path fill-rule="evenodd" clip-rule="evenodd" fill="#E58A2D" d="M360.705,193.607c-15.056-5.324-30.103-10.676-45.178-15.949
		c-2.861-1.001-5.833-1.688-8.754-2.52c0.118-0.468,0.235-0.936,0.353-1.404c19.424,0.139,38.848,0.276,58.271,0.415
		C365.164,180.957,363.577,187.438,360.705,193.607z"/>
	<path fill-rule="evenodd" clip-rule="evenodd" fill="#F3AE47" d="M284.337,441.991c-9.453,0.08-18.91,0.039-28.36,0.288
		c-4.309,0.113-5.1-1.29-2.898-4.836c4.566-7.354,10.733-11.828,19.814-11.134C278.171,430.47,282.33,435.446,284.337,441.991z"/>
	<path fill-rule="evenodd" clip-rule="evenodd" fill="#1A1116" d="M293.826,85.386c0.239-0.928,0.479-1.855,0.719-2.782
		c1.659,2.58,1.259,5.485,1.26,8.302c0.019,58.542,0.031,117.083-0.051,175.625c-0.004,2.141,1.31,4.798-1.385,6.449
		c-0.034-59.227-0.061-118.453-0.12-177.68C294.245,91.995,293.973,88.69,293.826,85.386z"/>
	<path fill-rule="evenodd" clip-rule="evenodd" fill="#160F0B" d="M123.982,439.196c0-59.114,0-118.229,0-177.342
		c0.222-0.002,0.442-0.002,0.664-0.002c0,59.15,0,118.302,0,177.451C124.425,439.268,124.204,439.232,123.982,439.196z"/>
	<path fill-rule="evenodd" clip-rule="evenodd" fill="#E58A2D" d="M284.337,441.991c-2.007-6.545-6.166-11.521-11.443-15.682
		c6.744-0.542,11.647,2.867,15.776,7.621c1.811,2.086,4.608,4.873,3.371,7.246C290.756,443.641,287.022,442.068,284.337,441.991z"/>
	<path fill-rule="evenodd" clip-rule="evenodd" fill="#1A1116" d="M365.397,174.15c-19.424-0.139-38.848-0.276-58.271-0.415
		c1.55-1.228,3.354-1.613,5.281-1.613c15.74-0.001,31.48-0.005,47.221-0.014C361.799,172.107,363.856,172.39,365.397,174.15z"/>
	<path fill-rule="evenodd" clip-rule="evenodd" fill="#0D0B19" d="M305.958,174.975c-0.046,0.464-0.092,0.929-0.139,1.395
		C305.866,175.904,305.912,175.439,305.958,174.975z"/>
	<path fill-rule="evenodd" clip-rule="evenodd" fill="#1C1B1E" d="M146.558,263.211c0.424-0.6,0.849-1.2,1.273-1.8
		c10.098,0.987,10.067,0.987,10.106,11.687c0.109,29.841,0.246,59.683,0.371,89.526c-0.07,11.829,0.034,23.661-0.295,35.481
		c-0.132,4.729,1.117,5.6,5.638,4.213c51.799-15.901,95.564-72.988,97.827-127.849c0.179-1.88,0.671-3.792,0.478-5.632
		c-0.601-5.724,1.967-7.272,7.413-7.118c6.309,0.178,5.063,4.179,4.877,7.844c-3.621,71.806-53.802,134.26-122.409,149.091
		c-1.376,0.297-2.688,0.893-4.028,1.349c0,0,0.133-0.523,0.133-0.523c-0.012-48.872-0.013-97.743-0.064-146.614
		C147.873,269.614,148.556,266.214,146.558,263.211z"/>
	<path fill-rule="evenodd" clip-rule="evenodd" fill="#6E27DB" d="M261.478,274.47c-2.263,54.86-46.027,111.947-97.827,127.849
		c-4.521,1.387-5.771,0.517-5.638-4.213c0.329-11.82,0.226-23.652,0.295-35.481c44.547-13.183,76.81-40.939,97.661-82.26
		C257.215,277.893,258.042,274.937,261.478,274.47z"/>
	<path fill-rule="evenodd" clip-rule="evenodd" fill="#1C1B1E" d="M258.702,162.633c0.121,7.587-5.805,13.783-13.204,13.806
		c-7.299,0.021-13.363-6.303-13.263-13.831c0.097-7.362,5.738-13.217,12.896-13.382C252.567,149.054,258.58,154.995,258.702,162.633
		z"/>
	<path fill-rule="evenodd" clip-rule="evenodd" fill="#0C130F" d="M146.558,263.211c1.998,3.003,1.315,6.403,1.318,9.654
		c0.051,48.871,0.052,97.742,0.064,146.614c-2.569-0.885-1.676-3.12-1.678-4.801c-0.042-49.79-0.021-99.581,0.005-149.372
		C146.268,264.608,146.458,263.91,146.558,263.211z"/>
</g>
</svg>
