<?xml version="1.0" encoding="utf-8"?>
<!-- Generator: Adobe Illustrator 16.0.0, SVG Export Plug-In . SVG Version: 6.00 Build 0)  -->
<!DOCTYPE svg PUBLIC "-//W3C//DTD SVG 1.1//EN" "http://www.w3.org/Graphics/SVG/1.1/DTD/svg11.dtd">
<svg version="1.1" id="Layer_1" xmlns="http://www.w3.org/2000/svg" xmlns:xlink="http://www.w3.org/1999/xlink" x="0px" y="0px"
	 width="512px" height="512px" viewBox="0 0 512 512" enable-background="new 0 0 512 512" xml:space="preserve">
<circle fill="#828282" stroke="#212222" stroke-width="14" stroke-miterlimit="10" cx="363.841" cy="130.1" r="24.252"/>
<path fill="#828282" stroke="#212222" stroke-width="14" stroke-miterlimit="10" d="M339.589,137.673l-193.985,129
	c0,0-22.69,35.557-31.372,43.748l235.357-156.069L339.589,137.673z"/>
<path fill="#FFFFFF" stroke="#212222" stroke-width="14" stroke-miterlimit="10" d="M367.589,156.355c0,0,31,68.712,29,103.015
	s-9.814,97.883,0.093,101.593c0,0,2.093,0.71,0,7.71c0,0-85.489-1.18-91.291,10.91s-22.802,31.09-30.802,27.09
	c0,0-31.99-24-5.495-107c0,0-19.408-65.55-31.942-64"/>
<path fill="#253CC1" stroke="#212222" stroke-width="14" stroke-miterlimit="10" d="M295.589,193.225
	c0,0,27.586,43.448,21.793,74.448s-4.207,7.227,0,14.113s76.943,8.167,78.793-16.004c1.37-17.908-32.334-106.109-32.334-106.109
	c-17.748-8-64.856,39.337-64.856,39.337"/>
<path fill="#EA1B48" stroke="#212222" stroke-width="14" stroke-miterlimit="10" d="M363.841,286.123c0,0-10.244,76.911,8.752,82.73
	l24.089-0.181c0,0-9.05-73.1-2.071-82.55S375.093,281.573,363.841,286.123z"/>
<path fill="#FFFDFE" stroke="#212222" stroke-width="14" stroke-miterlimit="10" d="M335.589,286.123c0,0-11,55.325,4,84.438
	l33.004-1.707c0,0-22.5-47.28-8.752-82.73H335.589z"/>
<path fill="#EA1B48" stroke="#212222" stroke-width="14" stroke-miterlimit="10" d="M311.589,286.123c0,0-9,33.531,0,89.297
	l28-4.859c0,0-14-74.987-4-84.438H311.589z"/>
<path fill="#FFFDFE" stroke="#212222" stroke-width="14" stroke-miterlimit="10" d="M278.589,210.673c0,0,25,30,17,86
	s1.579,88,1.579,88l14.421-9.253c0,0-5.414-96.747,5.793-107.747c0,0-18.321-79.816-26.415-74.448L278.589,210.673z"/>
<path fill="#EA1B48" stroke="#212222" stroke-width="14" stroke-miterlimit="10" d="M252.589,222.442c0,0,38,37.23,26,93.23
	c0,0-12.697,59.6,8.151,87.05l11.245-11.581c0,0-10.396-81.469-2.396-87.469c0,0-8.702-107.741-20.302-100.05L252.589,222.442z"/>
<path fill="#C1BFC0" d="M345.902,135.173c0,0,26.687-21.146,35.687-5.073c0,0-0.888-18.452-17.844-17.847
	C363.745,112.253,345.716,113.673,345.902,135.173z"/>
<polygon fill="#FEFEFE" points="356.744,179.138 354.74,183.933 357.553,188.303 352.373,187.877 349.085,191.903 347.89,186.846 
	343.045,184.964 347.485,182.263 347.778,177.074 351.719,180.462 "/>
<polygon fill="#FEFEFE" points="365.998,196.879 363.994,201.674 366.807,206.045 361.627,205.619 358.338,209.645 357.143,204.588 
	352.299,202.705 356.738,200.004 357.031,194.816 360.973,198.203 "/>
<polygon fill="#FEFEFE" points="373.25,217.092 371.246,221.887 374.059,226.258 368.879,225.832 365.59,229.857 364.395,224.801 
	359.551,222.918 363.99,220.217 364.283,215.029 368.225,218.416 "/>
<polygon fill="#FEFEFE" points="380.504,235.791 378.5,240.586 381.313,244.957 376.133,244.531 372.844,248.557 371.648,243.5 
	366.805,241.617 371.244,238.916 371.537,233.729 375.479,237.115 "/>
<polygon fill="#FEFEFE" points="385.327,254.019 383.323,258.813 386.136,263.185 380.956,262.759 377.667,266.784 376.472,261.728 
	371.628,259.845 376.067,257.144 376.36,251.956 380.302,255.343 "/>
<polygon fill="#FEFEFE" points="339.145,186.552 337.141,191.347 339.953,195.718 334.773,195.292 331.484,199.317 330.289,194.261 
	325.445,192.378 329.885,189.677 330.178,184.489 334.119,187.876 "/>
<polygon fill="#FEFEFE" points="351.347,197.879 349.343,202.674 352.155,207.045 346.976,206.619 343.687,210.645 342.491,205.588 
	337.647,203.705 342.087,201.004 342.38,195.816 346.321,199.203 "/>
<polygon fill="#FEFEFE" points="330.034,201.381 328.03,206.176 330.843,210.547 325.663,210.121 322.374,214.146 321.179,209.09 
	316.335,207.207 320.774,204.506 321.067,199.318 325.009,202.705 "/>
<polygon fill="#FEFEFE" points="356.034,216.209 354.03,221.004 356.843,225.375 351.663,224.949 348.374,228.975 347.179,223.918 
	342.335,222.035 346.774,219.334 347.067,214.146 351.009,217.533 "/>
<polygon fill="#FEFEFE" points="337.287,218.695 335.283,223.49 338.096,227.861 332.916,227.436 329.627,231.461 328.432,226.404 
	323.588,224.521 328.027,221.82 328.32,216.633 332.262,220.02 "/>
<polygon fill="#FEFEFE" points="359.592,235.791 357.588,240.586 360.4,244.957 355.221,244.531 351.932,248.557 350.736,243.5 
	345.893,241.617 350.332,238.916 350.625,233.729 354.566,237.115 "/>
<polygon fill="#FEFEFE" points="365.846,255.019 363.842,259.813 366.654,264.185 361.475,263.759 358.186,267.784 356.99,262.728 
	352.146,260.845 356.586,258.144 356.879,252.956 360.82,256.343 "/>
<polygon fill="#FEFEFE" points="343.092,239.189 341.088,243.984 343.9,248.355 338.721,247.93 335.432,251.955 334.236,246.898 
	329.393,245.016 333.832,242.314 334.125,237.127 338.066,240.514 "/>
<polygon fill="#FEFEFE" points="345.034,259.212 343.03,264.007 345.843,268.378 340.663,267.952 337.374,271.978 336.179,266.921 
	331.335,265.038 335.774,262.337 336.067,257.149 340.009,260.536 "/>
</svg>
