<?xml version="1.0" encoding="utf-8"?>
<!-- Generator: Adobe Illustrator 16.0.0, SVG Export Plug-In . SVG Version: 6.00 Build 0)  -->
<!DOCTYPE svg PUBLIC "-//W3C//DTD SVG 1.1//EN" "http://www.w3.org/Graphics/SVG/1.1/DTD/svg11.dtd">
<svg version="1.1" id="Layer_1" xmlns="http://www.w3.org/2000/svg" xmlns:xlink="http://www.w3.org/1999/xlink" x="0px" y="0px"
	 width="512px" height="512px" viewBox="0 0 512 512" enable-background="new 0 0 512 512" xml:space="preserve">
<g>
	<circle fill="#828282" stroke="#212222" stroke-width="14" stroke-miterlimit="10" cx="433.841" cy="211.1" r="24.252"/>
	<path fill="#828282" stroke="#212222" stroke-width="14" stroke-miterlimit="10" d="M409.589,218.673l-193.985,129
		c0,0-22.69,35.558-31.372,43.748l235.357-156.069L409.589,218.673z"/>
	<path fill="#FFFFFF" stroke="#212222" stroke-width="14" stroke-miterlimit="10" d="M437.589,237.355c0,0,31,68.711,29,103.015
		c-2,34.303-9.813,97.883,0.093,101.593c0,0,2.094,0.71,0,7.71c0,0-85.488-1.18-91.291,10.91
		c-5.802,12.09-22.802,31.09-30.802,27.09c0,0-31.99-24-5.495-107c0,0-19.408-65.55-31.941-64"/>
	<path fill="#253CC1" stroke="#212222" stroke-width="14" stroke-miterlimit="10" d="M365.589,274.225
		c0,0,27.586,43.448,21.793,74.448s-4.207,7.228,0,14.113s76.943,8.167,78.793-16.004c1.37-17.908-32.334-106.109-32.334-106.109
		c-17.748-8-64.855,39.337-64.855,39.337"/>
	<path fill="#EA1B48" stroke="#212222" stroke-width="14" stroke-miterlimit="10" d="M433.841,367.123
		c0,0-10.244,76.911,8.752,82.729l24.089-0.181c0,0-9.05-73.1-2.07-82.55C471.59,357.672,445.093,362.573,433.841,367.123z"/>
	<path fill="#FFFDFE" stroke="#212222" stroke-width="14" stroke-miterlimit="10" d="M405.589,367.123c0,0-11,55.325,4,84.438
		l33.004-1.707c0,0-22.5-47.279-8.752-82.729L405.589,367.123L405.589,367.123z"/>
	<path fill="#EA1B48" stroke="#212222" stroke-width="14" stroke-miterlimit="10" d="M381.589,367.123c0,0-9,33.531,0,89.297
		l28-4.859c0,0-14-74.986-4-84.438H381.589z"/>
	<path fill="#FFFDFE" stroke="#212222" stroke-width="14" stroke-miterlimit="10" d="M348.589,291.673c0,0,25,30,17,86
		s1.579,88,1.579,88l14.421-9.253c0,0-5.414-96.747,5.793-107.747c0,0-18.321-79.815-26.415-74.448L348.589,291.673z"/>
	<path fill="#EA1B48" stroke="#212222" stroke-width="14" stroke-miterlimit="10" d="M322.589,303.441c0,0,38,37.23,26,93.23
		c0,0-12.697,59.601,8.151,87.05l11.245-11.581c0,0-10.396-81.469-2.396-87.469c0,0-8.702-107.74-20.302-100.05L322.589,303.441z"/>
	<path fill="#C1BFC0" d="M415.902,216.173c0,0,26.687-21.146,35.687-5.073c0,0-0.888-18.452-17.844-17.847
		C433.745,193.253,415.716,194.673,415.902,216.173z"/>
	<polygon fill="#FEFEFE" points="426.744,260.139 424.74,264.934 427.553,269.303 422.373,268.877 419.085,272.902 417.89,267.846 
		413.045,265.964 417.485,263.264 417.778,258.074 421.719,261.462 	"/>
	<polygon fill="#FEFEFE" points="435.998,277.879 433.994,282.674 436.807,287.045 431.627,286.619 428.338,290.645 
		427.143,285.588 422.299,283.705 426.738,281.004 427.031,275.816 430.973,279.203 	"/>
	<polygon fill="#FEFEFE" points="443.25,298.092 441.246,302.887 444.059,307.258 438.879,306.832 435.59,310.857 434.395,305.801 
		429.551,303.918 433.99,301.217 434.283,296.029 438.225,299.416 	"/>
	<polygon fill="#FEFEFE" points="450.504,316.791 448.5,321.586 451.313,325.957 446.133,325.531 442.844,329.557 441.648,324.5 
		436.805,322.617 441.244,319.916 441.537,314.729 445.479,318.115 	"/>
	<polygon fill="#FEFEFE" points="455.327,335.02 453.323,339.813 456.136,344.186 450.956,343.759 447.667,347.784 446.472,342.729 
		441.628,340.846 446.067,338.145 446.36,332.956 450.302,336.343 	"/>
	<polygon fill="#FEFEFE" points="409.145,267.552 407.141,272.348 409.953,276.718 404.773,276.292 401.484,280.316 
		400.289,275.261 395.445,273.378 399.885,270.677 400.178,265.489 404.119,268.876 	"/>
	<polygon fill="#FEFEFE" points="421.347,278.879 419.343,283.674 422.155,288.045 416.976,287.619 413.688,291.645 
		412.491,286.588 407.647,284.705 412.087,282.004 412.38,276.816 416.321,280.203 	"/>
	<polygon fill="#FEFEFE" points="400.034,282.381 398.03,287.176 400.843,291.547 395.663,291.121 392.374,295.146 391.179,290.09 
		386.335,288.207 390.774,285.506 391.067,280.318 395.009,283.705 	"/>
	<polygon fill="#FEFEFE" points="426.034,297.209 424.03,302.004 426.843,306.375 421.663,305.949 418.374,309.975 417.179,304.918 
		412.335,303.035 416.774,300.334 417.067,295.146 421.009,298.533 	"/>
	<polygon fill="#FEFEFE" points="407.287,299.695 405.283,304.49 408.096,308.861 402.916,308.436 399.627,312.461 398.432,307.404 
		393.588,305.521 398.027,302.82 398.32,297.633 402.262,301.02 	"/>
	<polygon fill="#FEFEFE" points="429.592,316.791 427.588,321.586 430.4,325.957 425.221,325.531 421.932,329.557 420.736,324.5 
		415.893,322.617 420.332,319.916 420.625,314.729 424.566,318.115 	"/>
	<polygon fill="#FEFEFE" points="435.846,336.02 433.842,340.813 436.654,345.186 431.475,344.759 428.186,348.784 426.99,343.729 
		422.146,341.846 426.586,339.145 426.879,333.956 430.82,337.343 	"/>
	<polygon fill="#FEFEFE" points="413.092,320.189 411.088,324.984 413.9,329.355 408.721,328.93 405.432,332.955 404.236,327.898 
		399.393,326.016 403.832,323.314 404.125,318.127 408.066,321.514 	"/>
	<polygon fill="#FEFEFE" points="415.034,340.212 413.03,345.007 415.843,349.378 410.663,348.952 407.374,352.979 406.179,347.921 
		401.335,346.038 405.774,343.337 406.067,338.148 410.009,341.536 	"/>
</g>
</svg>
