<?xml version="1.0" encoding="utf-8"?>
<!-- Generator: Adobe Illustrator 16.0.0, SVG Export Plug-In . SVG Version: 6.00 Build 0)  -->
<!DOCTYPE svg PUBLIC "-//W3C//DTD SVG 1.1//EN" "http://www.w3.org/Graphics/SVG/1.1/DTD/svg11.dtd">
<svg version="1.1" id="Layer_1" xmlns="http://www.w3.org/2000/svg" xmlns:xlink="http://www.w3.org/1999/xlink" x="0px" y="0px"
	 width="512px" height="512px" viewBox="0 0 512 512" enable-background="new 0 0 512 512" xml:space="preserve">
<g>
	<g>
		<path fill-rule="evenodd" clip-rule="evenodd" fill="#555553" d="M376.654,163.367c-0.535-0.29-0.738-0.702-0.479-1.287
			C376.58,162.419,376.781,162.831,376.654,163.367z"/>
		<path fill-rule="evenodd" clip-rule="evenodd" fill="#555553" d="M374.967,159.899c-0.672,0.072-0.781-0.288-0.641-0.838
			C374.729,159.195,374.914,159.497,374.967,159.899z"/>
		<path fill-rule="evenodd" clip-rule="evenodd" fill="#747474" d="M258.951,262.613c-1.984,0.704-3.326,2.282-4.754,3.673
			c-4.624,4.502-9.146,9.107-13.715,13.667c-3.083,3.074-6.348,3.314-9.024,0.682c-2.767-2.719-2.545-5.996,0.653-9.197
			c8.309-8.32,16.628-16.632,24.943-24.947c15.982-15.983,31.99-31.941,47.91-47.987c1.629-1.641,2.616-1.644,4.035,0.062
			c1.195,1.438,2.639,2.671,3.957,4.01c2.684,2.725,2.745,2.151,0.076,4.823c-14.377,14.392-28.764,28.772-43.147,43.156
			c-2.987,2.988-5.954,5.999-8.978,8.95c-0.904,0.883-1.584,1.844-1.906,3.059C259.004,262.562,258.951,262.613,258.951,262.613z"/>
		<path fill-rule="evenodd" clip-rule="evenodd" fill="#727271" d="M355.244,156.063c0.508,0.449,0.453,1.046,0.428,1.637
			c-0.318,0.369-0.822,1.007-0.447,1.225c0.672,0.388,0.451-0.565,0.746-0.831c2.492,2.478,5.012,4.929,7.471,7.438
			c2.738,2.793,2.871,6.381,0.121,9.165c-8.559,8.661-17.162,17.277-25.836,25.821c-3.057,3.009-6.482,2.853-9.527-0.169
			c-5.512-5.47-10.999-10.964-16.473-16.472c-3.203-3.224-3.237-6.587-0.008-9.884c4.518-4.612,9.118-9.145,13.684-13.71
			c3.791-3.792,7.57-7.596,11.377-11.371c3.314-3.283,6.734-3.271,10.053,0.007c2.15,2.126,4.264,4.29,6.432,6.397
			c0.523,0.508,0.965,1.491,1.998,0.751L355.244,156.063z M355.225,162.985c0,0.229,0,0.456,0,0.685
			c0.111,0.349,0.225,0.696,0.336,1.045c-0.092,0.198-0.186,0.397-0.277,0.596c0.072,0.011,0.207,0.037,0.209,0.029
			c0.055-0.204,0.096-0.412,0.139-0.62c0.109-0.422-0.08-0.748-0.342-1.05c0-0.229,0-0.456,0-0.685c0.096-0.2,0.191-0.4,0.287-0.601
			c-0.074-0.011-0.211-0.038-0.213-0.029C355.309,162.563,355.268,162.774,355.225,162.985z M339.592,176.62
			c-2.83,2.829-5.697,5.62-8.477,8.497c-2.908,3.01-2.672,7.179,0.453,9.677c2.637,2.106,5.967,1.728,8.795-1.083
			c5.543-5.509,11.059-11.044,16.576-16.579c2.799-2.809,2.945-6.541,0.387-9.185c-2.371-2.451-6.59-2.396-9.242,0.192
			C345.221,170.934,342.418,173.789,339.592,176.62z M335.473,172.308c2.828-2.828,5.684-5.631,8.477-8.493
			c2.682-2.748,2.33-6.483,0.127-9.049c-2.25-2.62-6.246-2.494-8.967,0.063c-0.758,0.714-1.291,1.676-2.076,2.354
			c-5.318,4.592-10.059,9.775-14.994,14.754c-3.004,3.031-2.862,6.66-0.049,9.298c2.646,2.482,6.244,2.258,9.164-0.619
			C329.945,177.864,332.699,175.077,335.473,172.308z"/>
		<path fill-rule="evenodd" clip-rule="evenodd" fill="#747474" d="M355.971,158.094c-0.295,0.266-0.074,1.219-0.746,0.831
			c-0.375-0.218,0.129-0.855,0.447-1.225C355.771,157.831,355.871,157.963,355.971,158.094z"/>
		<path fill-rule="evenodd" clip-rule="evenodd" fill="#555553" d="M258.951,262.613c0,0,0.053-0.052,0.051-0.051
			c0.059,0.213,0.119,0.425,0.179,0.638h0.03C259.124,263.005,259.037,262.809,258.951,262.613z"/>
		<path fill-rule="evenodd" clip-rule="evenodd" fill="#555553" d="M208.908,253.824c-0.231,0-0.462,0-0.694,0v0.03
			c0.232,0.001,0.463,0.001,0.694,0.001V253.824z"/>
		<path fill-rule="evenodd" clip-rule="evenodd" fill="#555553" d="M208.908,253.855c0.231,0,0.463,0,0.694,0v-0.031
			c-0.232,0-0.463,0-0.694,0V253.855z"/>
		<path fill-rule="evenodd" clip-rule="evenodd" fill="#555553" d="M210.295,253.824c-0.231,0-0.462,0-0.692,0v0.031
			c0.23,0,0.462,0,0.693,0L210.295,253.824z"/>
		<path fill-rule="evenodd" clip-rule="evenodd" fill="#555553" d="M210.296,253.855c0.23,0,0.462,0.001,0.693,0.001v-0.033
			c-0.231,0.001-0.463,0.001-0.693,0.001C210.295,253.824,210.296,253.855,210.296,253.855z"/>
		<path fill-rule="evenodd" clip-rule="evenodd" fill="#555553" d="M210.989,253.856c0.093-0.007,0.186-0.015,0.279-0.021
			c-0.037,0.02-0.077,0.061-0.111,0.056c-0.057-0.008-0.111-0.043-0.168-0.067V253.856z"/>
		<path fill-rule="evenodd" clip-rule="evenodd" fill="#212222" d="M339.59,176.619c2.828-2.83,5.631-5.686,8.494-8.479
			c2.652-2.589,6.871-2.644,9.242-0.192c2.559,2.644,2.412,6.376-0.387,9.185c-5.518,5.535-11.033,11.07-16.576,16.579
			c-2.828,2.811-6.158,3.189-8.795,1.083c-3.125-2.498-3.361-6.667-0.453-9.677C333.895,182.24,336.762,179.449,339.59,176.619z"/>
		<path fill-rule="evenodd" clip-rule="evenodd" fill="#747474" d="M355.289,163.67c0.262,0.302,0.451,0.628,0.342,1.05l-0.07-0.005
			c-0.111-0.349-0.225-0.696-0.336-1.045H355.289z"/>
		<path fill-rule="evenodd" clip-rule="evenodd" fill="#747474" d="M355.631,164.72c-0.043,0.208-0.084,0.416-0.139,0.62
			c-0.002,0.008-0.137-0.019-0.209-0.029c0.092-0.198,0.186-0.397,0.277-0.596L355.631,164.72z"/>
		<path fill-rule="evenodd" clip-rule="evenodd" fill="#747474" d="M355.225,162.985c0.043-0.211,0.084-0.422,0.139-0.63
			c0.002-0.009,0.139,0.019,0.213,0.029c-0.096,0.2-0.191,0.4-0.287,0.601H355.225z"/>
		<path fill-rule="evenodd" clip-rule="evenodd" fill="#747474" d="M355.225,163.67c0-0.229,0-0.456,0-0.685h0.064
			c0,0.229,0,0.456,0,0.685H355.225z"/>
	</g>
	<g>
		<path fill="#BC9131" d="M219.103,284.602c-3.771-7.728-2.139-15.703,4.604-22.492c1.965-1.979,1.964-1.977-0.613-3.068
			c-5.008-2.12-10.288-3.245-15.592-4.282c-3.105,0.372-6.201,0.478-9.27-0.291c-0.445,0.183-0.879,0.494-1.335,0.528
			c-6.157,0.463-11.999,2.172-17.717,4.394c-0.931,0.463-1.86,0.925-2.791,1.387c-2.842,1.219-5.205,3.242-7.905,4.697
			c-1.85,1.574-3.7,3.147-5.55,4.721c-0.323,0.368-0.632,0.748-0.97,1.1c-11.37,11.782-16.775,25.843-16.035,42.21
			c1.466,32.436,31.103,56.918,63.214,52.338c6.706-0.957,12.95-3.207,19.039-6.027c1.291-0.824,2.582-1.648,3.873-2.473
			c2.86-1.404,4.871-3.932,7.487-5.658c0.107-0.121,0.214-0.242,0.321-0.363c4.855-5.002,9.152-10.395,12.088-16.791
			c6.506-14.182,7.221-28.631,1.967-43.316c-1.676-4.686-1.824-4.633-5.377-1.275C239.496,298.48,224.554,295.771,219.103,284.602z"
			/>
		<path fill="none" d="M259.211,263.2c-0.028-0.063-0.056-0.127-0.084-0.19c0.018,0.063,0.036,0.127,0.054,0.19H259.211z"/>
		<path fill="none" d="M240.343,359.801c0.338-0.221,0.441-0.676,0.127-1.555l0,0C240.784,359.125,240.68,359.578,240.343,359.801z"
			/>
		<path fill="none" d="M238.696,359.928c-0.046-0.063-0.096-0.115-0.143-0.176l0,0C238.601,359.813,238.65,359.865,238.696,359.928z
			"/>
		<path fill="none" d="M238.759,359.949c0.156,0.016,0.311,0.029,0.458,0.037C239.069,359.979,238.915,359.965,238.759,359.949
			L238.759,359.949z"/>
		<path fill="none" d="M312.957,202.574c-1.318-1.339-2.762-2.571-3.957-4.01c-1.419-1.705-2.406-1.702-4.035-0.062
			c-15.92,16.046-31.928,32.004-47.91,47.987c-5.442,5.443-10.885,10.887-16.327,16.329c3.082,2.534,5.914,5.358,8.453,8.436
			c1.666-1.662,3.33-3.327,5.017-4.969c1.428-1.391,2.77-2.969,4.754-3.673c0.058,0.132,0.117,0.265,0.176,0.396
			c-0.042-0.148-0.085-0.298-0.127-0.447c0.324-1.215,1.004-2.176,1.908-3.059c3.023-2.951,5.99-5.962,8.978-8.95
			c14.384-14.384,28.771-28.765,43.147-43.156C315.702,204.726,315.641,205.299,312.957,202.574z"/>
		<path fill="none" d="M258.857,274.68c0.277,0.268,0.456,0.569,0.327,0.975C259.313,275.249,259.136,274.947,258.857,274.68z"/>
		<path fill="none" d="M259.185,275.654L259.185,275.654c-0.207-0.202-0.346-0.426-0.359-0.693
			C258.839,275.229,258.978,275.453,259.185,275.654z"/>
		<path fill="none" d="M355.259,156.044c-0.005,0.006-0.009,0.012-0.015,0.018c0.004,0.003,0.005,0.007,0.009,0.011
			c0.003-0.002,0.006-0.002,0.009-0.005C355.26,156.06,355.261,156.053,355.259,156.044z"/>
		<path fill="none" d="M355.971,158.094c-0.1-0.131-0.199-0.263-0.299-0.395c0.025-0.585,0.076-1.177-0.419-1.626
			c-1.026,0.728-1.468-0.25-1.989-0.756c-2.168-2.107-4.281-4.271-6.432-6.397c-3.318-3.278-6.738-3.29-10.053-0.007
			c-3.807,3.775-7.586,7.579-11.377,11.371c-4.565,4.565-9.166,9.098-13.684,13.71c-3.229,3.297-3.195,6.66,0.008,9.884
			c5.474,5.508,10.961,11.002,16.473,16.472c3.045,3.021,6.471,3.178,9.527,0.169c8.674-8.544,17.277-17.16,25.836-25.821
			c2.75-2.784,2.617-6.372-0.121-9.165C360.982,163.022,358.463,160.571,355.971,158.094z"/>
		<path fill="#20201E" d="M211.269,253.835c-0.07,0.005-0.141,0.011-0.209,0.016c0.032,0.016,0.064,0.035,0.098,0.04
			C211.191,253.896,211.231,253.854,211.269,253.835z"/>
		<path fill="#20201E" d="M234.853,357.938c1.514-0.023,2.73,0.6,3.701,1.814l0,0C237.584,358.537,236.366,357.914,234.853,357.938z
			"/>
		<path fill="#20201E" d="M240.47,358.246L240.47,358.246c-0.002-0.004-0.002-0.008-0.004-0.014
			C240.468,358.238,240.468,358.242,240.47,358.246z"/>
		<path fill="#20201E" d="M209.603,253.855c0.23,0,0.462,0,0.693,0c0.23,0,0.462,0.001,0.693,0.001
			c0.023-0.002,0.047-0.003,0.07-0.005c-0.023-0.011-0.047-0.018-0.07-0.028c-0.231,0.001-0.463,0.001-0.693,0.001
			c-0.232,0-0.463,0-0.693,0c-0.232,0-0.463,0-0.694,0s-0.462,0-0.694,0v0.03c0.232,0.001,0.463,0.001,0.694,0.001
			S209.371,253.855,209.603,253.855z"/>
		<path fill="#212222" d="M377.396,188.275c-0.992-1.285-2.156-2.464-3.369-3.548c-1.137-1.017-1.201-1.701-0.182-2.98
			c4.426-5.548,5.439-11.709,2.809-18.38c-0.535-0.29-0.738-0.702-0.479-1.287c-0.402-0.727-0.805-1.453-1.209-2.181
			c-0.672,0.072-0.781-0.288-0.641-0.838c-0.283-0.397-0.516-0.846-0.855-1.187c-6.395-6.421-12.709-12.923-19.232-19.209
			c-5.365-5.17-14.127-6.134-20.799-2.722c-1.734,0.887-3.154,3.238-4.836,2.874c-1.637-0.355-2.836-2.539-4.322-3.81
			c-2.863-2.447-6.504-2.402-8.86,0.019c-2.462,2.53-2.28,6.127,0.337,9.03c1.286,1.427,3.861,2.526,3.583,4.292
			c-0.251,1.591-2.415,2.9-3.783,4.287c-1.37,1.389-2.677,3.615-4.239,3.831c-1.674,0.229-2.774-2.39-4.263-3.613
			c-0.188-0.155-0.355-0.338-0.542-0.496c-2.631-2.23-6.388-2.125-8.665,0.24c-2.362,2.455-2.335,6.028,0.099,8.626
			c1.006,1.072,2.018,2.151,3.129,3.108c1.085,0.933,1.154,1.587,0.17,2.772c-4.418,5.32-5.5,11.353-3.25,17.895
			c0.521,1.517,0.277,2.45-0.877,3.6c-20.266,20.183-40.488,40.409-60.678,60.67c-1.152,1.156-1.984,1.441-3.522,0.643
			c-11.048-5.736-22.826-8.218-35.254-7.511c-7.284,0.414-14.361,1.842-21.121,4.669c-0.904,0.082-1.641,0.539-2.351,1.056
			c-0.299,0.021-0.599,0.041-0.899,0.062l-2.223,1.075c-1.599,0.956-3.198,1.912-4.796,2.868c-3.898,2.255-7.579,4.798-10.704,8.077
			c-1.306,0.739-2.188,1.927-3.184,2.996c-1.817,1.209-2.813,3.212-4.448,4.597c-0.143,0.229-0.287,0.457-0.429,0.686
			c-0.184,0.386-0.368,0.773-0.552,1.16c-0.265,0.173-0.53,0.346-0.795,0.519c-0.132,0.263-0.264,0.525-0.396,0.788
			c-1.73,2.354-3.22,4.805-4.582,7.434c-13.093,25.275-9.924,54.84,8.419,76.475c18.143,21.398,48.091,29.439,74.455,20.102
			c8.424-2.984,15.876-7.535,22.71-13.203c0.749-0.852,1.498-1.705,2.248-2.557c3.18-2.482,5.567-5.654,7.803-8.959
			c0.35-0.328,0.698-0.658,1.049-0.988c0.192-0.258,0.385-0.518,0.578-0.775c-0.057-0.43,0.129-0.729,0.501-0.926
			c0.108-0.219,0.204-0.445,0.328-0.654c12.923-22.014,14.089-44.549,2.901-67.578c-0.825-1.698-0.611-2.63,0.703-3.938
			c20.156-20.063,40.273-40.168,60.32-60.341c1.418-1.428,2.518-1.446,4.238-0.873c5.15,1.715,10.127,1.092,14.896-1.51
			c1.477-0.807,2.643-2.993,4.156-2.549c1.523,0.448,2.625,2.331,3.914,3.583c2.816,2.733,6.414,2.917,8.979,0.458
			c2.543-2.435,2.48-6.169-0.061-9.034c-1.328-1.499-3.998-2.692-3.748-4.453c0.232-1.633,2.541-2.989,3.973-4.43
			c4.115-4.139,4.123-4.132,8.254-0.157c0.178,0.17,0.344,0.351,0.529,0.512c2.572,2.239,6.066,2.29,8.49,0.125
			C379.18,194.611,379.484,190.977,377.396,188.275z M208.214,253.824c0.232,0,0.463,0,0.694,0s0.462,0,0.694,0
			c0.23,0,0.461,0,0.693,0c0.23,0,0.462,0,0.693-0.001c0.023,0.01,0.047,0.017,0.07,0.028c0.068-0.005,0.139-0.011,0.209-0.016
			c-0.037,0.02-0.077,0.061-0.111,0.056c-0.033-0.004-0.065-0.024-0.098-0.04c-0.023,0.002-0.047,0.003-0.07,0.005
			c-0.231,0-0.463-0.001-0.693-0.001c-0.231,0-0.463,0-0.693,0c-0.231,0-0.463,0-0.694,0s-0.462,0-0.694-0.001V253.824z
			 M234.853,357.938c1.514-0.023,2.731,0.6,3.701,1.814C237.583,358.537,236.366,357.914,234.853,357.938z M238.759,359.949
			L238.759,359.949c0.156,0.016,0.311,0.029,0.458,0.037C239.069,359.979,238.915,359.965,238.759,359.949z M240.343,359.801
			c0.337-0.223,0.441-0.676,0.127-1.555C240.784,359.125,240.681,359.58,240.343,359.801z M251.84,334.486
			c-2.936,6.396-7.232,11.789-12.088,16.791c-0.107,0.121-0.214,0.242-0.321,0.363c-2.616,1.727-4.627,4.254-7.487,5.658
			c-1.291,0.824-2.582,1.648-3.873,2.473c-6.089,2.82-12.333,5.07-19.039,6.027c-32.111,4.58-61.749-19.902-63.214-52.338
			c-0.74-16.367,4.666-30.428,16.035-42.21c0.338-0.352,0.647-0.731,0.97-1.1c1.85-1.573,3.7-3.146,5.55-4.721
			c2.701-1.455,5.063-3.479,7.905-4.697c0.931-0.462,1.86-0.924,2.791-1.387c5.718-2.222,11.56-3.931,17.717-4.394
			c0.456-0.034,0.89-0.346,1.335-0.528c3.068,0.769,6.164,0.663,9.27,0.291c5.304,1.037,10.584,2.162,15.592,4.282
			c2.577,1.092,2.578,1.09,0.613,3.068c-6.742,6.789-8.375,14.765-4.604,22.492c5.451,11.17,20.394,13.879,29.438,5.336
			c3.553-3.357,3.701-3.41,5.377,1.275C259.061,305.855,258.346,320.305,251.84,334.486z M259.185,275.654L259.185,275.654
			c-0.207-0.201-0.346-0.426-0.359-0.693C258.839,275.229,258.978,275.452,259.185,275.654c0.129-0.405-0.05-0.707-0.327-0.975
			C259.136,274.947,259.313,275.249,259.185,275.654z M313.033,207.397c-14.377,14.392-28.764,28.772-43.147,43.156
			c-2.987,2.988-5.954,5.999-8.978,8.95c-0.904,0.883-1.584,1.844-1.908,3.059c0.042,0.149,0.085,0.299,0.127,0.447
			c0.028,0.063,0.056,0.127,0.084,0.19h-0.03c-0.018-0.063-0.036-0.127-0.054-0.19c-0.059-0.132-0.118-0.265-0.176-0.396
			c-1.984,0.704-3.326,2.282-4.754,3.673c-1.687,1.642-3.351,3.307-5.017,4.969c-2.903,2.896-5.795,5.802-8.698,8.698
			c-3.083,3.074-6.348,3.314-9.024,0.682c-2.767-2.719-2.545-5.996,0.653-9.197c2.87-2.874,5.745-5.745,8.616-8.618
			c5.442-5.442,10.885-10.886,16.327-16.329c15.982-15.983,31.99-31.941,47.91-47.987c1.629-1.641,2.616-1.644,4.035,0.062
			c1.195,1.438,2.639,2.671,3.957,4.01C315.641,205.299,315.702,204.726,313.033,207.397z M363.563,174.697
			c-8.559,8.661-17.162,17.277-25.836,25.821c-3.057,3.009-6.482,2.853-9.527-0.169c-5.512-5.47-10.999-10.964-16.473-16.472
			c-3.203-3.224-3.237-6.587-0.008-9.884c4.518-4.612,9.118-9.145,13.684-13.71c3.791-3.792,7.57-7.596,11.377-11.371
			c3.314-3.283,6.734-3.271,10.053,0.007c2.15,2.126,4.264,4.29,6.432,6.397c0.521,0.506,0.963,1.483,1.989,0.756
			c-0.004-0.003-0.005-0.006-0.008-0.009l0.017,0.004c-0.002-0.008-0.001-0.015-0.003-0.023c-0.005,0.006-0.009,0.012-0.015,0.018v0
			c0.006-0.006,0.01-0.012,0.015-0.018c0,0,0,0,0,0.001l0,0c0.002,0.008,0.001,0.015,0.003,0.023
			c-0.003,0.002-0.006,0.003-0.009,0.005c0.495,0.449,0.444,1.041,0.419,1.626c0.1,0.132,0.199,0.264,0.299,0.395
			c2.492,2.478,5.012,4.929,7.471,7.438C366.18,168.325,366.313,171.913,363.563,174.697z"/>
	</g>
	<path fill="#20201E" d="M220.702,287.391"/>
	<g>
		<path fill="#D8A744" d="M224.886,260.619c0,0-27.646-19.08-61.146,8.92c0,0-39.25,34.5-1.855,80.277l9.044-9.598
			c-2.336-2.344-4.669-4.688-6.99-7.045c-2.684-2.725-2.71-6.432-0.235-8.957c2.532-2.582,6.309-2.488,9.119,0.275
			c2.236,2.201,4.447,4.424,6.662,6.646l41.219-43.748C220.702,287.391,210.444,274.865,224.886,260.619z"/>
		<path fill="#DDDDDD" d="M181.058,350.293c2.801,2.756,6.642,2.725,9.131,0.094c2.428-2.568,2.281-6.203-0.418-8.951
			c-2.801-2.848-5.643-5.652-8.469-8.475c-0.607-0.607-1.213-1.215-1.818-1.822l-8.556,9.08
			C174.29,343.59,177.663,346.951,181.058,350.293z"/>
		<path fill="#FFFFFF" d="M172.822,324.492c-2.811-2.764-6.587-2.857-9.119-0.275c-2.476,2.525-2.449,6.232,0.235,8.957
			c2.321,2.357,4.654,4.701,6.99,7.045l8.556-9.08C177.269,328.916,175.058,326.693,172.822,324.492z"/>
	</g>
	<path fill="#999898" d="M230.536,279.207l24.462-30.66c0,0-19.923,19.524-23.299,23.591
		C231.699,272.139,229.081,275.206,230.536,279.207z"/>
	<g>
		<path fill="#999898" d="M317.99,181.233c-2.813-2.638-2.955-6.267,0.049-9.298c4.936-4.979,9.676-10.162,14.994-14.754
			c0.785-0.678,1.318-1.64,2.076-2.354c2.721-2.557,6.717-2.683,8.967-0.063c0.882,1.026,1.46,2.241,1.673,3.504l4.431-6.006
			c0,0-7.399-13.589-18.035,1.268l-21.899,22.323c0,0-2.113,2.391-0.936,5.29l11.114,11.458l14.76-20.009
			c-2.675,2.676-5.335,5.366-8.029,8.021C324.234,183.491,320.637,183.716,317.99,181.233z"/>
		<path fill="#212222" d="M345.749,158.27c-0.213-1.263-0.791-2.478-1.673-3.504c-2.25-2.62-6.246-2.494-8.967,0.063
			c-0.758,0.714-1.291,1.676-2.076,2.354c-5.318,4.592-10.059,9.775-14.994,14.754c-3.004,3.031-2.862,6.66-0.049,9.298
			c2.646,2.482,6.244,2.258,9.164-0.619c2.694-2.655,5.354-5.345,8.029-8.021c0.096-0.096,0.191-0.191,0.287-0.287
			c2.83-2.827,5.686-5.63,8.479-8.492C345.558,162.166,346.068,160.163,345.749,158.27z"/>
	</g>
</g>
</svg>
