<?xml version="1.0" encoding="utf-8"?>
<!-- Generator: Adobe Illustrator 16.0.0, SVG Export Plug-In . SVG Version: 6.00 Build 0)  -->
<!DOCTYPE svg PUBLIC "-//W3C//DTD SVG 1.1//EN" "http://www.w3.org/Graphics/SVG/1.1/DTD/svg11.dtd">
<svg version="1.1" id="Layer_1" xmlns="http://www.w3.org/2000/svg" xmlns:xlink="http://www.w3.org/1999/xlink" x="0px" y="0px"
	 width="512px" height="512px" viewBox="0 0 512 512" enable-background="new 0 0 512 512" xml:space="preserve">
<g>
	<path fill="#555553" d="M431.035,283.1c-0.397-0.367-0.481-0.769-0.129-1.217C431.181,282.266,431.263,282.664,431.035,283.1z"/>
	<path fill="#555553" d="M430.345,279.734c-0.595-0.086-0.609-0.422-0.367-0.865C430.295,279.073,430.389,279.376,430.345,279.734z"
		/>
	<path fill="#747474" d="M307.552,342.723c-1.868,0.168-3.374,1.231-4.913,2.117c-4.984,2.861-9.902,5.836-14.852,8.762
		c-3.342,1.971-6.211,1.457-7.938-1.406c-1.787-2.957-0.871-5.734,2.594-7.791c9.009-5.342,18.022-10.676,27.033-16.014
		c17.322-10.259,34.66-20.49,51.94-30.816c1.768-1.055,2.62-0.84,3.467,0.945c0.714,1.504,1.688,2.887,2.53,4.334
		c1.713,2.943,1.892,2.461-1.001,4.178c-15.585,9.24-31.174,18.47-46.764,27.701c-3.237,1.918-6.463,3.859-9.725,5.738
		c-0.975,0.563-1.772,1.24-2.319,2.219C307.609,342.688,307.552,342.723,307.552,342.723z"/>
	<path fill="#727271" d="M414.176,272.066c0.339,0.5,0.16,1.002,0.008,1.507c-0.355,0.247-0.933,0.687-0.655,0.959
		c0.493,0.481,0.513-0.39,0.827-0.554c1.603,2.688,3.233,5.359,4.803,8.068c1.745,3.016,1.066,6.141-1.922,7.936
		c-9.299,5.582-18.624,11.115-27.995,16.57c-3.304,1.92-6.226,1.028-8.185-2.253c-3.547-5.938-7.066-11.89-10.571-17.852
		c-2.053-3.489-1.338-6.398,2.176-8.529c4.917-2.981,9.888-5.875,14.836-8.805c4.109-2.435,8.21-4.882,12.329-7.298
		c3.584-2.102,6.532-1.334,8.671,2.227c1.386,2.311,2.729,4.645,4.137,6.941c0.339,0.554,0.503,1.5,1.559,1.089L414.176,272.066z
		 M412.63,278.035c-0.051,0.197-0.101,0.393-0.152,0.591c0.021,0.325,0.042,0.649,0.061,0.976c-0.122,0.15-0.247,0.303-0.371,0.453
		c0.06,0.024,0.171,0.076,0.174,0.07c0.093-0.163,0.175-0.334,0.258-0.504c0.188-0.34,0.097-0.663-0.063-0.98
		c0.051-0.199,0.101-0.395,0.151-0.592c0.127-0.15,0.254-0.303,0.38-0.455c-0.063-0.025-0.174-0.078-0.179-0.07
		C412.796,277.689,412.713,277.861,412.63,278.035z M396.13,286.344c-3.067,1.816-6.159,3.592-9.19,5.459
		c-3.176,1.953-3.893,5.604-1.747,8.449c1.81,2.4,4.766,2.809,7.825,1.01c6.001-3.529,11.982-7.087,17.967-10.643
		c3.034-1.807,3.985-4.993,2.361-7.839c-1.502-2.64-5.154-3.523-8.016-1.878C402.243,282.682,399.192,284.525,396.13,286.344z
		 M393.527,281.714c3.065-1.815,6.146-3.603,9.19-5.456c2.92-1.777,3.442-5.078,2.108-7.777c-1.362-2.758-4.838-3.533-7.75-1.929
		c-0.813,0.448-1.485,1.16-2.313,1.572c-5.603,2.786-10.838,6.212-16.196,9.417c-3.263,1.951-3.941,5.111-2.098,8.011
		c1.736,2.728,4.89,3.327,8.044,1.49C387.531,285.286,390.523,283.49,393.527,281.714z"/>
	<path fill="#747474" d="M414.354,273.979c-0.313,0.164-0.332,1.035-0.826,0.555c-0.276-0.272,0.3-0.711,0.655-0.959
		C414.24,273.709,414.297,273.844,414.354,273.979z"/>
	<path fill="#555553" d="M307.552,342.723c0,0,0.059-0.035,0.056-0.033c0.004,0.195,0.009,0.392,0.014,0.59l0.027,0.007
		C307.613,343.098,307.583,342.908,307.552,342.723z"/>
	<path fill="#555553" d="M266.316,324.081c-0.198-0.054-0.397-0.103-0.6-0.153l-0.006,0.025c0.199,0.052,0.398,0.104,0.6,0.152
		L266.316,324.081z"/>
	<path fill="#555553" d="M266.311,324.105c0.199,0.053,0.398,0.104,0.6,0.154l0.007-0.027c-0.201-0.051-0.399-0.102-0.601-0.151
		L266.311,324.105z"/>
	<path fill="#555553" d="M267.514,324.387c-0.199-0.052-0.398-0.102-0.598-0.152l-0.007,0.026c0.198,0.052,0.397,0.103,0.599,0.153
		L267.514,324.387z"/>
	<path fill="#555553" d="M267.508,324.414c0.199,0.051,0.396,0.102,0.598,0.154l0.008-0.029c-0.199-0.051-0.399-0.102-0.598-0.15
		C267.514,324.387,267.508,324.414,267.508,324.414z"/>
	<path fill="#555553" d="M268.105,324.568c0.08,0.014,0.162,0.027,0.246,0.041c-0.037,0.01-0.08,0.037-0.109,0.024
		c-0.047-0.019-0.086-0.062-0.131-0.096L268.105,324.568z"/>
	<path fill="#212222" d="M396.128,286.343c3.064-1.815,6.115-3.661,9.202-5.438c2.86-1.646,6.514-0.762,8.016,1.877
		c1.624,2.846,0.673,6.033-2.361,7.839c-5.983,3.556-11.966,7.112-17.967,10.644c-3.061,1.799-6.017,1.391-7.825-1.011
		c-2.146-2.847-1.429-6.496,1.747-8.448C389.971,289.936,393.063,288.16,396.128,286.343z"/>
	<path fill="#747474" d="M412.534,278.641c0.159,0.317,0.251,0.642,0.063,0.98l-0.061-0.02c-0.019-0.326-0.04-0.65-0.061-0.977
		L412.534,278.641z"/>
	<path fill="#747474" d="M412.598,279.621c-0.083,0.17-0.165,0.341-0.258,0.504c-0.003,0.006-0.114-0.046-0.174-0.07
		c0.124-0.15,0.249-0.303,0.371-0.453L412.598,279.621z"/>
	<path fill="#747474" d="M412.63,278.035c0.083-0.174,0.166-0.346,0.258-0.514c0.005-0.006,0.116,0.047,0.179,0.071
		c-0.126,0.152-0.253,0.304-0.381,0.455L412.63,278.035z"/>
	<path fill="#747474" d="M412.478,278.626c0.053-0.198,0.103-0.394,0.152-0.591l0.056,0.014c-0.051,0.197-0.101,0.393-0.15,0.592
		L412.478,278.626z"/>
</g>
<g>
	<path fill="none" d="M307.647,343.285c-0.013-0.063-0.021-0.122-0.031-0.184c0.001,0.06,0.003,0.117,0.004,0.176L307.647,343.285z"
		/>
	<path fill="none" d="M270.021,422.463c0.34-0.117,0.53-0.484,0.453-1.313l0,0C270.553,421.978,270.361,422.345,270.021,422.463z"/>
	<path fill="none" d="M268.574,422.208c-0.027-0.063-0.059-0.12-0.084-0.183l0,0C268.518,422.088,268.547,422.145,268.574,422.208z"
		/>
	<path fill="none" d="M268.623,422.241c0.131,0.047,0.262,0.092,0.387,0.133C268.885,422.333,268.754,422.288,268.623,422.241
		L268.623,422.241z"/>
	<path fill="none" d="M367.415,302.854c-0.843-1.447-1.816-2.83-2.53-4.334c-0.847-1.785-1.699-2-3.467-0.945
		c-17.28,10.326-34.618,20.559-51.94,30.816c-5.896,3.493-11.796,6.988-17.693,10.481c2.099,2.866,3.918,5.931,5.43,9.146
		c1.804-1.065,3.606-2.136,5.425-3.178c1.541-0.886,3.047-1.949,4.914-2.118c0.021,0.126,0.043,0.255,0.064,0.382
		c-0.003-0.139-0.009-0.276-0.012-0.414c0.549-0.979,1.348-1.656,2.321-2.219c3.263-1.879,6.486-3.82,9.725-5.738
		c15.59-9.231,31.179-18.461,46.764-27.701C369.307,305.314,369.128,305.797,367.415,302.854z"/>
	<path fill="none" d="M304.805,353.109c0.182,0.295,0.269,0.594,0.067,0.914C305.072,353.703,304.986,353.402,304.805,353.109z"/>
	<path fill="none" d="M304.872,354.023L304.872,354.023c-0.136-0.222-0.205-0.443-0.157-0.678
		C304.667,353.58,304.738,353.805,304.872,354.023z"/>
	<path fill="none" d="M414.193,272.055c-0.007,0.004-0.013,0.008-0.019,0.012c0.004,0.004,0.003,0.009,0.006,0.011
		c0.003,0,0.007,0,0.01-0.002C414.189,272.066,414.192,272.063,414.193,272.055z"/>
	<path fill="none" d="M414.354,273.979c-0.058-0.135-0.113-0.27-0.171-0.404c0.151-0.5,0.326-0.999-0.002-1.497
		c-1.047,0.401-1.212-0.538-1.549-1.091c-1.406-2.297-2.751-4.633-4.137-6.941c-2.139-3.561-5.087-4.327-8.671-2.227
		c-4.119,2.416-8.221,4.863-12.329,7.298c-4.948,2.93-9.919,5.823-14.836,8.805c-3.515,2.131-4.229,5.04-2.176,8.529
		c3.505,5.962,7.024,11.913,10.571,17.852c1.959,3.281,4.881,4.173,8.185,2.253c9.371-5.455,18.696-10.988,27.995-16.57
		c2.988-1.795,3.667-4.92,1.922-7.936C417.589,279.339,415.957,276.668,414.354,273.979z"/>
	<path fill="#20201E" d="M268.352,324.609c-0.063-0.01-0.123-0.021-0.185-0.03c0.024,0.021,0.049,0.044,0.075,0.056
		C268.271,324.646,268.314,324.619,268.352,324.609z"/>
	<path fill="#20201E" d="M265.695,419.642c1.313,0.313,2.225,1.121,2.795,2.385l0,0
		C267.921,420.763,267.008,419.955,265.695,419.642z"/>
	<path fill="#20201E" d="M270.475,421.148L270.475,421.148c0-0.005,0-0.008,0-0.014
		C270.475,421.142,270.475,421.145,270.475,421.148z"/>
	<path fill="#20201E" d="M266.909,324.261c0.198,0.052,0.397,0.103,0.599,0.153c0.199,0.051,0.396,0.102,0.598,0.154
		c0.021,0.002,0.041,0.006,0.063,0.011c-0.018-0.017-0.036-0.026-0.055-0.04c-0.199-0.051-0.399-0.102-0.598-0.15
		c-0.201-0.054-0.4-0.104-0.6-0.154c-0.201-0.051-0.398-0.103-0.6-0.152c-0.198-0.053-0.397-0.104-0.6-0.153l-0.006,0.025
		c0.199,0.052,0.398,0.104,0.6,0.153C266.51,324.158,266.709,324.21,266.909,324.261z"/>
</g>
<path fill="#D8A744" d="M269.076,355.646c0,0,18.229,15.889,27.013,7.133s2.979,20.035-4.305,25.878s-72.185,46.856-79.613,27.521
	S265.795,360.444,269.076,355.646z"/>
<path fill="#20201E" d="M269.075,355.646"/>
<g>
	<g>
		<path fill="none" d="M200.052,384.339c-0.184,0.13-0.364,0.265-0.548,0.396l0,0C199.688,384.604,199.869,384.471,200.052,384.339
			L200.052,384.339z"/>
		<path fill="none" d="M209.799,376.779c0,0.002-0.001,0.002-0.001,0.003c0.917-0.773,1.834-1.548,2.73-2.343
			c-0.001,0-0.002,0.002-0.002,0.002C211.631,375.234,210.715,376.008,209.799,376.779z"/>
		<path fill="none" d="M265.695,419.642c1.313,0.313,2.225,1.121,2.795,2.385C267.921,420.763,267.008,419.955,265.695,419.642z"/>
		<path fill="none" d="M270.021,422.463c0.256-0.088,0.427-0.316,0.463-0.775C270.448,422.146,270.277,422.374,270.021,422.463z"/>
		<path fill="none" d="M183.532,394.654c2.161-1.174,4.268-2.399,6.35-3.651v-0.001C187.8,392.254,185.693,393.48,183.532,394.654z"
			/>
		<path fill="none" d="M218.658,411.921c6.596,4.701,14.421,7.855,23.023,8.798c5.998,0.656,11.883,0.096,17.758-0.993
			c1.295-0.427,2.594-0.852,3.889-1.277c2.777-0.579,5.07-2.314,7.71-3.229c0.12-0.081,0.237-0.161,0.356-0.242
			c5.295-3.242,10.193-6.945,14.141-11.815c8.747-10.799,12.557-23.107,11.268-36.938c-0.41-4.412-0.55-4.399-4.357-2.289
			c-8.588,4.762-19.213,0.871-23.077-7.621C256.285,379.277,239.294,397.707,218.658,411.921z"/>
		<polygon fill="none" points="414.177,272.066 414.182,272.076 414.19,272.074 		"/>
		<path fill="none" d="M414.354,273.979c-0.058-0.135-0.113-0.27-0.171-0.404c0.151-0.5,0.326-0.999-0.002-1.497
			c-1.047,0.401-1.212-0.538-1.549-1.091c-1.406-2.297-2.751-4.633-4.137-6.941c-2.139-3.561-5.087-4.327-8.671-2.227
			c-4.119,2.416-8.221,4.863-12.329,7.298c-4.948,2.93-9.919,5.823-14.836,8.805c-3.515,2.131-4.229,5.04-2.176,8.529
			c3.505,5.962,7.024,11.913,10.571,17.852c1.959,3.281,4.881,4.173,8.185,2.253c9.371-5.455,18.696-10.988,27.995-16.57
			c2.988-1.795,3.667-4.92,1.922-7.936C417.589,279.339,415.957,276.668,414.354,273.979z"/>
		<path fill="none" d="M304.872,354.023c0.2-0.32,0.114-0.621-0.067-0.914C304.984,353.404,305.072,353.703,304.872,354.023z"/>
		<path fill="none" d="M307.647,343.285c-0.013-0.063-0.021-0.122-0.031-0.184c0.001,0.06,0.003,0.117,0.004,0.176L307.647,343.285z
			"/>
		<path fill="none" d="M364.885,298.52c-0.847-1.785-1.699-2-3.467-0.945c-17.28,10.326-34.618,20.559-51.94,30.816
			c-5.896,3.493-11.796,6.988-17.693,10.481c-3.112,1.845-6.228,3.687-9.341,5.532c-3.465,2.056-4.381,4.834-2.594,7.789
			c1.728,2.863,4.598,3.379,7.938,1.406c3.144-1.857,6.28-3.726,9.426-5.582c1.804-1.066,3.606-2.137,5.425-3.179
			c1.541-0.886,3.047-1.95,4.914-2.118c0.021,0.127,0.043,0.254,0.064,0.381c-0.003-0.138-0.009-0.275-0.012-0.414
			c0.549-0.978,1.348-1.655,2.321-2.217c3.263-1.88,6.486-3.82,9.725-5.74c15.59-9.23,31.179-18.459,46.764-27.701
			c2.893-1.715,2.714-1.232,1.001-4.178C366.572,301.404,365.599,300.023,364.885,298.52z"/>
		<path fill="#5E3704" d="M269.075,355.646l-45.229,28.639c-0.357-0.605-0.719-1.208-1.077-1.813
			c-2.758,2.555-5.606,5.012-8.543,7.362c0.078,0.131,0.154,0.263,0.231,0.394l-4.048,2.563c-1.857,1.394-3.747,2.743-5.667,4.052
			c3.536,5.9,8.272,11.057,13.915,15.077c20.636-14.214,37.627-32.644,50.709-55.606c-0.478-1.049-0.854-2.166-1.108-3.349
			C268.604,354.629,269.075,355.646,269.075,355.646z"/>
		<path fill="#888888" d="M277.167,334.438c0.704-0.42,1.151-0.697,1.396-0.939c-0.983,0.575-1.881,1.168-2.699,1.771
			C276.282,334.982,276.717,334.705,277.167,334.438z"/>
		<path fill="#888888" d="M268.123,352.219c0.016,0.088,0.029,0.174,0.044,0.26C268.15,352.393,268.139,352.307,268.123,352.219z"/>
		<path fill="#888888" d="M278.596,333.467c0.451-0.477,0.022-0.818-1.279-1.813c-1.396-1.064-2.854-2.021-4.35-2.91
			C276.607,331.217,278.521,333.384,278.596,333.467z"/>
		<path fill="#888888" d="M268.352,324.609c-0.063-0.01-0.123-0.021-0.185-0.03c0.024,0.021,0.049,0.044,0.075,0.056
			C268.271,324.646,268.314,324.619,268.352,324.609z"/>
		<path fill="#888888" d="M266.316,324.081c-0.198-0.054-0.397-0.103-0.6-0.153l-0.006,0.025c0.199,0.052,0.398,0.104,0.6,0.152
			c0.198,0.053,0.397,0.104,0.599,0.154c0.198,0.051,0.397,0.104,0.599,0.153c0.199,0.051,0.396,0.103,0.598,0.153
			c0.021,0.004,0.041,0.007,0.063,0.012c-0.018-0.016-0.036-0.026-0.055-0.04c-0.199-0.052-0.399-0.101-0.598-0.151
			c-0.201-0.053-0.4-0.103-0.6-0.154C266.715,324.184,266.518,324.132,266.316,324.081z"/>
		<path fill="#1E1C1D" d="M204.537,396.51c0.066,0.113,0.139,0.223,0.206,0.334c1.92-1.309,3.81-2.658,5.667-4.052L204.537,396.51z"
			/>
		<path fill="#1E1C1D" d="M199.504,384.734c1.165,4.136,2.862,8.086,5.022,11.759c-1.976-4.265-3.438-8.312-4.474-12.153
			C199.869,384.471,199.688,384.604,199.504,384.734z"/>
		<path fill="#FCFCFC" d="M211.76,374.826c-0.849,0.514-1.508,1.185-1.961,1.953c0.916-0.771,1.832-1.545,2.727-2.338
			C212.268,374.551,212.011,374.674,211.76,374.826z"/>
		<polygon fill="#212222" points="414.191,272.055 414.191,272.055 414.193,272.055 		"/>
		<path fill="#212222" d="M414.176,272.066c0.005-0.004,0.011-0.008,0.017-0.012c0,0,0,0,0-0.002
			C414.188,272.059,414.183,272.063,414.176,272.066z"/>
		<path fill="#212222" d="M270.475,421.148c0.021,0.207,0.022,0.386,0.01,0.537C270.497,421.534,270.494,421.355,270.475,421.148z"
			/>
		<path fill="#212222" d="M304.872,354.023c-0.134-0.221-0.205-0.443-0.157-0.678C304.667,353.58,304.736,353.803,304.872,354.023z"
			/>
		<path fill="#212222" d="M424.049,300.948c-0.756-1.128-0.66-1.733,0.502-2.611c5.044-3.81,7.28-8.901,6.484-15.237
			c-0.397-0.367-0.481-0.769-0.129-1.217c-0.187-0.716-0.373-1.432-0.563-2.146c-0.595-0.088-0.609-0.424-0.367-0.866
			c-0.155-0.404-0.259-0.843-0.476-1.212c-4.099-6.953-8.109-13.958-12.35-20.823c-3.487-5.647-10.834-8.413-17.345-6.944
			c-1.691,0.382-3.438,2.098-4.807,1.412c-1.335-0.668-1.886-2.817-2.888-4.242c-1.933-2.744-5.081-3.51-7.65-1.942
			c-2.683,1.639-3.32,4.784-1.704,7.866c0.795,1.516,2.773,3.033,2.146,4.496c-0.568,1.315-2.726,1.967-4.212,2.861
			c-1.489,0.896-3.109,2.528-4.506,2.368c-1.494-0.171-1.864-2.675-2.88-4.06c-0.129-0.176-0.23-0.368-0.355-0.547
			c-1.778-2.506-5.042-3.246-7.53-1.708c-2.58,1.596-3.346,4.686-1.82,7.463c0.632,1.147,1.266,2.304,2.015,3.373
			c0.729,1.047,0.645,1.625-0.468,2.431c-4.986,3.614-7.255,8.581-6.758,14.721c0.115,1.425-0.302,2.177-1.553,2.913
			c-21.945,12.938-43.861,25.92-65.758,38.938c-1.249,0.744-2.031,0.807-3.182-0.224c-1.101-0.983-2.226-1.917-3.373-2.807
			c-1.778,4.839-3.724,9.634-5.795,14.381c-2.856,6.549-5.979,12.789-9.363,18.729c3.865,8.49,14.49,12.381,23.078,7.619
			c3.809-2.109,3.947-2.123,4.357,2.289c1.289,13.831-2.521,26.141-11.268,36.938c-3.946,4.87-8.846,8.573-14.141,11.815
			c-0.119,0.081-0.236,0.161-0.356,0.242c-2.64,0.913-4.933,2.648-7.71,3.229c-1.295,0.427-2.594,0.852-3.889,1.277
			c-5.875,1.088-11.761,1.649-17.759,0.993c-8.602-0.941-16.427-4.097-23.023-8.798c-3.222,2.219-6.522,4.347-9.921,6.361
			c12.075,9.928,27.821,15.107,43.887,13.663c7.927-0.714,15.362-2.992,22.511-6.373c0.834-0.568,1.669-1.142,2.504-1.709
			c3.292-1.438,6.055-3.647,8.711-6.007c0.377-0.205,0.749-0.412,1.124-0.62c0.224-0.181,0.447-0.36,0.671-0.54
			c0.045-0.386,0.272-0.602,0.637-0.688c0.143-0.165,0.273-0.339,0.428-0.492c16.014-16.139,22-35.323,17.436-57.665
			c-0.336-1.646,0.055-2.404,1.479-3.242c21.823-12.856,43.622-25.758,65.377-38.733c1.538-0.917,2.491-0.69,3.85,0.185
			c4.064,2.617,8.495,3.18,13.187,1.988c1.453-0.37,2.94-1.999,4.148-1.281c1.215,0.725,1.749,2.592,2.585,3.956
			c1.825,2.981,4.891,3.935,7.646,2.38c2.731-1.537,3.503-4.773,1.943-7.809c-0.814-1.587-2.854-3.205-2.25-4.67
			c0.563-1.357,2.854-2.018,4.406-2.945c4.465-2.66,4.472-2.652,7.156,1.689c0.115,0.186,0.22,0.378,0.344,0.559
			c1.726,2.5,4.729,3.316,7.297,1.984c2.5-1.295,3.565-4.364,2.361-7.156C425.6,303.427,424.855,302.152,424.049,300.948z
			 M265.695,419.642c1.313,0.313,2.226,1.121,2.795,2.385C267.92,420.763,267.008,419.955,265.695,419.642z M268.623,422.241
			c0.131,0.047,0.262,0.092,0.387,0.133C268.885,422.333,268.754,422.288,268.623,422.241z M270.021,422.463
			c0.256-0.089,0.427-0.316,0.463-0.775c0.013-0.152,0.01-0.331-0.01-0.538c0.02,0.207,0.021,0.386,0.01,0.538
			C270.448,422.146,270.277,422.375,270.021,422.463z M304.872,354.023c-0.136-0.222-0.205-0.443-0.157-0.678
			C304.667,353.58,304.738,353.805,304.872,354.023c0.2-0.32,0.112-0.619-0.067-0.914
			C304.986,353.402,305.072,353.703,304.872,354.023z M366.414,307.029c-15.585,9.242-31.174,18.471-46.764,27.701
			c-3.237,1.92-6.463,3.86-9.725,5.74c-0.975,0.562-1.772,1.239-2.322,2.217c0.004,0.139,0.01,0.276,0.013,0.414
			c0.01,0.062,0.02,0.121,0.031,0.184l-0.027-0.008c-0.001-0.059-0.003-0.116-0.004-0.176c-0.021-0.127-0.044-0.254-0.064-0.381
			c-1.868,0.168-3.374,1.232-4.913,2.118c-1.818,1.042-3.621,2.111-5.426,3.179c-3.145,1.856-6.281,3.725-9.426,5.582
			c-3.342,1.973-6.211,1.457-7.938-1.406c-1.787-2.955-0.871-5.733,2.594-7.789c3.111-1.848,6.228-3.688,9.34-5.532
			c5.898-3.493,11.797-6.988,17.693-10.481c17.322-10.259,34.66-20.49,51.94-30.816c1.768-1.055,2.62-0.84,3.467,0.945
			c0.714,1.504,1.688,2.887,2.53,4.334C369.128,305.797,369.307,305.314,366.414,307.029z M417.235,289.982
			c-9.299,5.582-18.624,11.115-27.995,16.569c-3.304,1.921-6.226,1.029-8.185-2.252c-3.547-5.938-7.066-11.89-10.571-17.852
			c-2.053-3.489-1.338-6.398,2.176-8.529c4.917-2.981,9.888-5.875,14.836-8.805c4.109-2.435,8.21-4.882,12.329-7.298
			c3.584-2.102,6.532-1.334,8.671,2.227c1.386,2.311,2.729,4.645,4.137,6.941c0.337,0.553,0.502,1.492,1.549,1.091
			c-0.003-0.002-0.002-0.007-0.005-0.009l0.015,0.007c-0.001-0.007,0.001-0.013,0.001-0.021c-0.005,0.004-0.012,0.008-0.017,0.012
			c0.007-0.004,0.013-0.008,0.017-0.013c0,0,0,0,0.002,0c-0.001,0-0.001,0.001-0.002,0.001c0,0.008-0.002,0.014-0.001,0.021
			c-0.003,0.002-0.007,0.002-0.01,0.002c0.328,0.498,0.153,0.997,0.002,1.497c0.058,0.136,0.113,0.271,0.172,0.404
			c1.603,2.689,3.233,5.36,4.803,8.069C420.902,285.063,420.225,288.188,417.235,289.982z"/>
		<path fill="#212222" d="M199.504,384.732c-3.105,2.189-6.313,4.278-9.622,6.27v0.001
			C193.19,389.014,196.399,386.924,199.504,384.732L199.504,384.732z"/>
		<path fill="#212222" d="M204.743,396.844c-3.059,2.084-6.195,4.063-9.409,5.92c3.586,5.973,8.145,11.195,13.403,15.52
			c3.399-2.016,6.7-4.144,9.921-6.361C213.016,407.899,208.279,402.744,204.743,396.844z"/>
		<path fill="#212222" d="M263.09,323.811c4.075,1.404,7.383,3.238,9.877,4.934c1.496,0.89,2.953,1.846,4.35,2.91
			c1.303,0.994,1.73,1.337,1.279,1.813c0.002,0.002,0.006,0.008,0.006,0.008c-0.013,0.008-0.023,0.016-0.037,0.022
			c-0.244,0.242-0.692,0.521-1.396,0.938c-0.45,0.27-0.885,0.547-1.304,0.832c-7.993,5.892-8.394,12.877-7.74,16.95
			c0.017,0.087,0.026,0.173,0.044,0.261c0.029,0.166,0.061,0.33,0.092,0.486c0.256,1.182,0.631,2.299,1.108,3.348
			c3.383-5.938,6.506-12.18,9.362-18.729c2.072-4.747,4.017-9.542,5.795-14.381c-5.394-4.184-11.311-7.331-17.729-9.456
			C265.668,317.146,264.432,320.502,263.09,323.811z M268.111,324.539c0.02,0.014,0.037,0.023,0.056,0.04
			c0.062,0.011,0.122,0.021,0.185,0.03c-0.037,0.01-0.08,0.037-0.108,0.024c-0.026-0.012-0.05-0.034-0.075-0.056
			c-0.021-0.005-0.04-0.008-0.063-0.012c-0.199-0.053-0.397-0.104-0.598-0.153c-0.199-0.052-0.398-0.103-0.599-0.153
			s-0.399-0.103-0.599-0.154c-0.201-0.049-0.399-0.102-0.6-0.152l0.006-0.025c0.201,0.051,0.4,0.102,0.6,0.153
			c0.199,0.051,0.397,0.103,0.6,0.151c0.197,0.053,0.398,0.103,0.6,0.154C267.713,324.438,267.913,324.488,268.111,324.539z"/>
		<path fill="#D8A744" d="M212.526,374.441c0,0,0.001-0.002,0.002-0.002"/>
		<path fill="#724806" d="M262.922,324.219c-9.048,22.166-22.794,42.172-40.152,58.254c0.357,0.604,0.719,1.207,1.077,1.813
			l45.229-28.64c0,0-0.473-1.018-0.816-2.681c-0.01-0.048-0.023-0.093-0.033-0.141c-0.023-0.116-0.037-0.231-0.059-0.347
			c-0.016-0.086-0.029-0.172-0.044-0.261c-1.177-6.784,1.539-12.731,7.739-16.95c0.82-0.604,1.717-1.195,2.701-1.771
			c0.01-0.01,0.022-0.021,0.031-0.03c-0.072-0.083-1.988-2.25-5.629-4.724c-2.632-1.563-5.386-2.912-8.156-4.229
			C264.176,324.43,263.547,324.332,262.922,324.219z"/>
		<path fill="#D8A744" d="M214.458,390.229c-0.077-0.131-0.154-0.263-0.231-0.394c-1.256,1.005-2.529,1.99-3.816,2.956
			L214.458,390.229z"/>
		<path fill="#D8A744" d="M278.602,333.475c0,0-0.004-0.006-0.006-0.008c-0.009,0.01-0.021,0.021-0.031,0.03
			C278.577,333.489,278.589,333.48,278.602,333.475z"/>
		<path fill="#D8A744" d="M264.811,324.514c2.771,1.317,5.524,2.666,8.156,4.229c-2.494-1.694-5.802-3.528-9.877-4.933
			c-0.055,0.137-0.111,0.271-0.168,0.407C263.547,324.332,264.176,324.43,264.811,324.514z"/>
		<path fill="#D8A744" d="M268.123,352.219c-0.653-4.072-0.253-11.06,7.74-16.951C269.662,339.486,266.945,345.434,268.123,352.219z
			"/>
		<path fill="#D8A744" d="M268.259,352.966c-0.032-0.155-0.063-0.319-0.092-0.487c0.021,0.115,0.034,0.23,0.06,0.348
			C268.234,352.873,268.249,352.918,268.259,352.966z"/>
		<path fill="#D8A744" d="M204.535,396.512l0.002-0.002c-0.003-0.005-0.007-0.011-0.011-0.017
			C204.529,396.499,204.532,396.506,204.535,396.512z"/>
	</g>
	<path fill="#DDDDDD" d="M220.972,401.159c1.807,2.997,5.128,3.817,7.857,2.099c2.663-1.68,3.339-4.849,1.618-7.816
		c-1.787-3.073-3.62-6.123-5.435-9.182c-0.39-0.658-0.778-1.316-1.166-1.975l-9.388,5.943
		C216.614,393.881,218.782,397.525,220.972,401.159z"/>
	<path fill="#1E1C1D" d="M204.526,396.493c-2.16-3.673-3.857-7.623-5.022-11.759c-3.105,2.188-6.314,4.277-9.623,6.269
		c0.827,2.411,1.801,4.8,2.943,7.148c0.771,1.584,1.613,3.118,2.509,4.611c3.214-1.857,6.35-3.836,9.409-5.92
		c-0.067-0.111-0.14-0.221-0.206-0.334l-0.002,0.002C204.532,396.506,204.529,396.499,204.526,396.493z"/>
</g>
<path fill="#999898" d="M279.369,350.76l27.88-21.048c0,0-21.503,12.44-25.313,15.206
	C281.936,344.918,278.997,346.984,279.369,350.76z"/>
<g>
	<path fill="#999898" d="M376.472,285.552c-1.845-2.897-1.165-6.06,2.098-8.011c5.358-3.205,10.595-6.631,16.196-9.417
		c0.826-0.412,1.5-1.124,2.313-1.571c2.912-1.605,6.388-0.83,7.75,1.928c0.534,1.08,0.764,2.256,0.67,3.393l5.148-4.203
		c0,0-3.382-13.359-15.842-2.891L370.979,279.2c0,0-2.352,1.595-1.978,4.358l7.059,12.34l17.156-14.002
		c-2.897,1.718-5.789,3.451-8.7,5.146C381.36,288.879,378.208,288.277,376.472,285.552z"/>
	<path fill="#212222" d="M405.497,271.872c0.094-1.138-0.136-2.313-0.67-3.394c-1.362-2.758-4.838-3.533-7.75-1.928
		c-0.813,0.448-1.485,1.16-2.313,1.572c-5.603,2.786-10.838,6.212-16.196,9.417c-3.263,1.951-3.941,5.112-2.098,8.011
		c1.736,2.727,4.89,3.327,8.044,1.49c2.911-1.693,5.803-3.428,8.7-5.146c0.104-0.062,0.208-0.123,0.313-0.184
		c3.065-1.814,6.146-3.602,9.19-5.455C404.471,275.191,405.354,273.576,405.497,271.872z"/>
</g>
<path fill="#D8A744" d="M218.658,411.922c0,0,37.908,25.9,66.875-8.761c0,0,11.656-6.763,11.268-36.938"/>
</svg>
