<?xml version="1.0" encoding="utf-8"?>
<!-- Generator: Adobe Illustrator 16.0.0, SVG Export Plug-In . SVG Version: 6.00 Build 0)  -->
<!DOCTYPE svg PUBLIC "-//W3C//DTD SVG 1.1//EN" "http://www.w3.org/Graphics/SVG/1.1/DTD/svg11.dtd">
<svg version="1.1" id="Layer_1" xmlns="http://www.w3.org/2000/svg" xmlns:xlink="http://www.w3.org/1999/xlink" x="0px" y="0px"
	 width="512px" height="512px" viewBox="0 0 512 512" enable-background="new 0 0 512 512" xml:space="preserve">
<g>
	<path fill="#8E708E" d="M294.581,84.791c0.065,1.829,0.188,3.658,0.188,5.487c0.02,61.113,0.453,122.23-0.189,183.337
		c-0.232,22.273-6.934,43.535-15.85,63.97c-22.729,52.097-62.224,84.719-116.359,100.46c-4.616,1.342-9.088,2.882-13.973,2.137
		c-0.195-6.558-0.391-13.112-0.585-19.674c1.434-0.397,2.849-0.888,4.303-1.188c70.158-14.638,120.09-79.385,122.916-150.631
		c0.237-5.992-0.892-6.967-6.755-6.781c-3.229,0.101-4.937,1.615-5.326,4.74c-0.354,2.807-0.684,5.611-1.021,8.416
		c-3.039-0.207-3.807,2.24-4.812,4.263c-1.996,4.013-3.474,8.333-5.837,12.104c-17.625,28.131-40.701,50.305-71.227,64.104
		c-6.646,3.004-13.417,5.82-20.785,6.668c-0.129-1.99-0.37-3.979-0.371-5.971c-0.017-28.164,0.018-56.326-0.003-84.486
		c-0.006-8.241-0.069-8.229-7.949-9.053c-0.983-0.104-1.943-0.437-2.914-0.66c-0.525-12.735,1.12-25.259,3.975-37.62
		c14.667-63.513,51.515-108.027,112.792-131.672C274.471,89.006,284.574,87.14,294.581,84.791z M259.125,163.441
		c0.009-8.155-5.288-13.609-13.179-13.567c-7.594,0.04-12.976,5.502-13.061,13.257c-0.086,7.857,5.547,13.896,13.044,13.98
		C253.649,177.199,259.116,171.537,259.125,163.441z"/>
	<path fill="#292341" d="M147.813,420.508c0.195,6.562,0.39,13.116,0.585,19.674c-5.902,1.896-12.034,2.149-18.146,2.66
		c-2.774,0.231-3.491-0.989-3.403-3.384c0.055-1.496-0.017-2.997-0.017-4.496c-0.001-55.303,0.204-110.606-0.09-165.909
		c-0.141-26.438,3.711-52.024,13.446-76.632c15.565-39.342,42.006-69.278,78.59-90.344c21.699-12.493,45.375-18.457,70.088-20.778
		c2.399-0.226,6.264-1.64,5.713,3.492c-10.007,2.349-20.11,4.215-29.782,7.946c-61.277,23.645-98.125,68.159-112.792,131.672
		c-2.854,12.361-4.5,24.885-3.975,37.62c-1.982,1.516-1.949,3.656-1.947,5.867c0.044,49.248,0.061,98.498,0.088,147.743
		C146.174,417.438,145.793,419.384,147.813,420.508z"/>
	<path fill="#212222" d="M147.813,420.508c-2.02-1.124-1.639-3.066-1.64-4.865c-0.027-49.248-0.044-98.496-0.088-147.746
		c-0.002-2.211-0.035-4.352,1.947-5.867c0.971,0.229,1.93,0.563,2.914,0.662c7.88,0.822,7.943,0.813,7.949,9.054
		c0.021,28.159-0.013,56.321,0.003,84.485c0.001,1.988,0.242,3.979,0.371,5.972c-0.09,12.641-0.051,25.282-0.338,37.922
		c-0.103,4.543,1.98,4.729,5.183,3.336c6.517-2.838,13.188-5.42,19.418-8.806c27.758-15.067,48.95-36.602,63.087-64.973
		c8.592-17.242,14.225-35.283,15.311-54.617c0.34-2.805,0.67-5.609,1.021-8.416c0.393-3.125,2.1-4.643,5.326-4.74
		c5.863-0.186,6.992,0.79,6.755,6.781c-2.826,71.246-52.758,135.993-122.916,150.631
		C150.662,419.62,149.247,420.107,147.813,420.508z"/>
	<path fill="#BA9BE1" d="M261.93,275.064c-1.086,19.332-6.718,37.373-15.311,54.617c-14.137,28.368-35.329,49.899-63.087,64.973
		c-6.23,3.383-12.901,5.965-19.418,8.803c-3.203,1.396-5.286,1.207-5.183-3.336c0.287-12.637,0.248-25.281,0.338-37.922
		c7.369-0.848,14.139-3.664,20.785-6.668c30.526-13.797,53.602-35.971,71.227-64.102c2.363-3.772,3.841-8.096,5.837-12.105
		C258.123,277.305,258.891,274.857,261.93,275.064z"/>
	<path fill="#212222" d="M259.125,163.441c-0.009,8.096-5.476,13.758-13.195,13.67c-7.498-0.085-13.13-6.123-13.044-13.98
		c0.085-7.755,5.467-13.217,13.061-13.257C253.837,149.832,259.134,155.286,259.125,163.441z"/>
</g>
<path fill="none" stroke="#212222" stroke-width="14" stroke-miterlimit="10" d="M294.931,72.5c0,0-46.431,142,5.569,174
	c0,0-189,18.358-213-10.321C87.5,236.179,176.361,64.5,294.931,72.5z"/>
<path fill="#4E3E7F" stroke="#212222" stroke-width="14" stroke-miterlimit="10" d="M164.349,186.714l-34.515-64.684
	c0,0,57.584,14.444,60.399,28.429"/>
<path fill="#4E3E7F" stroke="#212222" stroke-width="14" stroke-miterlimit="10" d="M89.919,240.761
	c0,0-24.291,144.757-58.343,147.618c0,0,42.707,15.368,25.87,42.036l115.646,46.054c0,0-16.745-221.125-38.351-225.743
	C134.741,250.726,89.458,248.067,89.919,240.761z"/>
<path fill="#FEED5B" stroke="#212222" stroke-width="14" stroke-miterlimit="10" d="M300.5,294.5c0,0-60.941,19.395-16.471,46.697"
	/>
<path fill="#FFFFFF" stroke="#212222" stroke-width="14" stroke-miterlimit="10" d="M221.372,372.5c0,0,26.198,22.831,34.49,22"/>
<path fill="#4E3E7F" d="M148.602,244.511c0,0,125.364,4.169,135.427-3.749c0,0-32.245-32.933,0.113-153.597
	C284.143,87.165,166.703,107.854,148.602,244.511z"/>
<path fill="#FFFFFF" stroke="#212222" stroke-width="14" stroke-miterlimit="10" d="M238.617,358.615"/>
<path fill="none" stroke="#212222" stroke-width="14" stroke-miterlimit="10" d="M257.004,132.5c0,0-47.458,6.882-54.647,42.441"/>
<path fill="#DF9F94" d="M294.931,97.167v136C294.931,233.167,266.026,205.167,294.931,97.167z"/>
<path fill="#DF9F94" d="M210.429,174.941c0,0-3.381-24.439,46.575-35.107C257.004,139.834,299.023,194.715,210.429,174.941z"/>
<circle fill="#212222" cx="244.407" cy="162.396" r="14.522"/>
<path fill="#4E3E7F" stroke="#212222" stroke-width="14" stroke-miterlimit="10" d="M118.438,200.28"/>
<path fill="#292341" d="M95.167,233.167c0,0,6.894,10.363,53.435,11.343l12.692-50.431l-15.209-24.246
	C146.085,169.834,120.5,189.834,95.167,233.167z"/>
<path fill="#292341" d="M91.833,252.181c0,0-23.85,101.515-28.053,109.41c0,0,23.841,6.611,30.349-13.229
	c0,0,22.21-60.119,28.106-55.967c0,0,24.232,12.692,7.286-34.657L91.833,252.181z"/>
<path fill="#292341" d="M164.5,466.5c0,0-25.331-156.392-34.666-126.862c0,0-13.479,104.238-20.074,87.217
	c0,0-16.594-37.646-44.594,0"/>
<path fill="#FFFFFF" stroke="#212222" stroke-width="14" stroke-miterlimit="10" d="M235.029,358.615c0,0,26.198,22.831,34.49,22"/>
<path fill-rule="evenodd" clip-rule="evenodd" fill="#FEED5B" d="M238.617,369.626l14.091,11.012c0,0,1.146,2.416-3.541,5.862
	s-17.652-12.789-17.652-12.789L238.617,369.626z"/>
<path fill-rule="evenodd" clip-rule="evenodd" fill="#FEED5B" d="M236.773,367.736"/>
<path fill-rule="evenodd" clip-rule="evenodd" fill="#4E3E7F" stroke="#212222" stroke-width="14" stroke-miterlimit="10" d="
	M160.034,349.824c0,0,53.916,20.609,82.139,0c0,0-50.89,60.538-75.733,54.398C166.44,404.223,164.592,381.123,160.034,349.824z"/>
</svg>
