<?xml version="1.0" encoding="utf-8"?>
<!-- Generator: Adobe Illustrator 16.0.0, SVG Export Plug-In . SVG Version: 6.00 Build 0)  -->
<!DOCTYPE svg PUBLIC "-//W3C//DTD SVG 1.1//EN" "http://www.w3.org/Graphics/SVG/1.1/DTD/svg11.dtd">
<svg version="1.1" id="Layer_1" xmlns="http://www.w3.org/2000/svg" xmlns:xlink="http://www.w3.org/1999/xlink" x="0px" y="0px"
	 width="512px" height="512px" viewBox="0 0 512 512" enable-background="new 0 0 512 512" xml:space="preserve">
<path fill="none" stroke="#212222" stroke-width="14" stroke-miterlimit="10" d="M119.22,331.638c0,0,16.989,14.318,28.423,12.068"
	/>
<path fill="none" stroke="#212222" stroke-width="14" stroke-miterlimit="10" d="M240.707,350.368c0,0,44.462-1.174,45.494-3.799"/>
<path fill="#6A4429" d="M125.598,344.181c0,0,16.787,5.003,21.045,3.656v50.514c0,0-1.179,1.888-18.856,1.856
	c0,0-2.935,1.828-2.508-8.178"/>
<path fill="none" stroke="#212222" stroke-width="14" stroke-miterlimit="10" d="M119.22,395.834c0,0,25.516,12.488,32.614,8.389"/>
<path fill="none" stroke="#212222" stroke-width="14" stroke-miterlimit="10" d="M175.5,405.5
	c62.611-5.567,62.663-5.418,73.775-8.162"/>
<path fill="#4B3726" d="M245.36,356.501l24.89-1.751c0,0-11,22.25-27,37.5l-37.029,3.584
	C206.221,395.834,234.557,374.249,245.36,356.501z"/>
<path fill="#4B3726" stroke="#212222" stroke-width="14" stroke-miterlimit="10" d="M300.527,277.516
	c1.844-12.342-34.638,11.224-32.916,10C267.611,287.516,289.222,353.197,300.527,277.516z"/>
<path fill="#4B3726" stroke="#212222" stroke-width="14" stroke-miterlimit="10" d="M126.738,216.5
	c0,0,105.733-15.999,141.414,50.667v21.903c0,0-66.986-83.51-145.653-44.57L126.738,216.5z"/>
<path fill="#4B3726" stroke="#212222" stroke-width="14" stroke-miterlimit="10" d="M147.813,163.493"/>
<path fill="none" stroke="#212222" stroke-width="14" stroke-miterlimit="10" d="M238.235,235.333c0,0,52.453,13.168,62.359,4.502"
	/>
<path fill="none" stroke="#212222" stroke-width="14" stroke-miterlimit="10" d="M151.833,297.834c0,0,90.352,43.874,104.028,25.334
	"/>
<path fill="#E3E5E5" d="M263.454,247.5c0,0,24.384,3.917,31.263,1.738c0.073-0.023,0.145-0.047,0.214-0.071V267.5
	c0,0-6.196,1.049-19.869,7.552C275.062,275.052,273.074,261.5,263.454,247.5z"/>
<path fill="#E3E5E5" d="M268.651,307.792c0,0,9.583,14.372,17.55,12.372l-9.087,21.033l-23.717,2.603
	C253.397,343.8,266.461,316.138,268.651,307.792z"/>
<path fill="#E3E5E5" d="M144.501,242.131c0,0,52.227-23.096,115.613,48.135c0,0-4.28,24.231-8.947,29.564
	c0,0-11.479,11.223-92.24-25.889c0,0-0.427-25.778-1.76-27.778c0,0-3.382-5.499-10.524-2.416l-1.782,0.009"/>
<path fill="#FEFEFE" d="M146.085,242.174l0.048,95.618c0,0-12.504-3.628-19.235-8.628l0.483-79.317
	C127.381,249.847,139.751,241.464,146.085,242.174z"/>
<path fill="none" stroke="#212222" stroke-width="14" stroke-miterlimit="10" d="M253.397,426.854"/>
<ellipse fill="#705328" stroke="#212222" stroke-width="14" stroke-miterlimit="10" cx="28.5" cy="-184.86" rx="0" ry="4.36"/>
<path fill-rule="evenodd" clip-rule="evenodd" fill="#FFC130" d="M337.463,306.955"/>
<path fill="#E3E5E5" d="M365.468,344.181"/>
<path fill="#E3E5E5" d="M146.133,229.171l1.68-7.333c0,0-8.451-0.667-14.381,0l-2.597,11.667"/>
</svg>
