<?xml version="1.0" encoding="utf-8"?>
<!-- Generator: Adobe Illustrator 16.0.0, SVG Export Plug-In . SVG Version: 6.00 Build 0)  -->
<!DOCTYPE svg PUBLIC "-//W3C//DTD SVG 1.1//EN" "http://www.w3.org/Graphics/SVG/1.1/DTD/svg11.dtd">
<svg version="1.1" id="Layer_1" xmlns="http://www.w3.org/2000/svg" xmlns:xlink="http://www.w3.org/1999/xlink" x="0px" y="0px"
	 width="512px" height="512px" viewBox="0 0 512 512" enable-background="new 0 0 512 512" xml:space="preserve">
<ellipse fill="#705328" stroke="#212222" stroke-width="14" stroke-miterlimit="10" cx="28.5" cy="-184.86" rx="0" ry="4.36"/>
<g>
	<g>
		<path fill="#54963C" stroke="#231F20" stroke-width="14" stroke-miterlimit="10" d="M177.729,87.888
			c0,0-112.9,39.405-77.639,78.645C135.353,205.772,188.849,215.006,177.729,87.888z"/>
		<path fill="#467536" d="M109.438,171.479c0,0,2.649-34.941,15.181-40.753l-3.555-11.536
			C121.063,119.19,74.465,145.017,109.438,171.479z"/>
		<path fill="#54963C" stroke="#231F20" stroke-width="14" stroke-miterlimit="10" d="M178.489,118.694
			c11.216-15.314,52.348-10.475,49.782-46.999c-3.017-42.992-48.451-62.51-58.101-52.167c-9.649,10.342-5.474,22.001-24.593,25.12
			c-18.69,3.047-63.643-33.34-15.042,91.972C130.536,136.621,143.375,166.635,178.489,118.694z"/>
		<path fill="#54963C" stroke="#231F20" stroke-width="14" stroke-miterlimit="10" d="M162.455,174.008
			c0,0,12.76-100.654,100.314-127.172c0,0,3.466-2.207,3.433,5.391C266.168,59.824,168.375,199.459,162.455,174.008z"/>
		<path fill="#467536" d="M208.599,84.568c0,0,45.788-23.338,47.47-20.208c0,0,16.817-22.882-1.35-11.045
			C254.719,53.314,222.951,64.611,208.599,84.568z"/>
		<path fill="#467536" d="M139.546,107.424c0,0-24.181-60.509-13.857-61.93c0,0-10.994-2.605-12.892,4.825
			c0,0-3.771,9.165,1.843,29.671c0,0,7.865,27.866,10.631,33.275C125.272,113.264,137.358,109.087,139.546,107.424z"/>
		<path fill="#467536" d="M141.919,113.488c0,0,9.974,24.513,15.259,23.971c0,0-17.301,12.773-23.298-0.048l-6.711-18.186
			C127.17,119.226,140.046,113.734,141.919,113.488z"/>
		<path fill="#5E3704" d="M127.17,119.226"/>
		<path fill="#467536" d="M141.919,113.488c0,0,51.588-22.45,57.13-28.196c5.539-5.747-37.089,52.455-42.83,52.999
			C156.22,138.291,146.797,129.864,141.919,113.488z"/>
		<path fill="none" stroke="#231F20" stroke-width="14" stroke-miterlimit="10" d="M125.392,116.435
			c1.792-0.651,92.867-29.522,99.458-61.046"/>
	</g>
	<path fill="#755736" stroke="#212222" stroke-width="14" stroke-miterlimit="10" d="M17.035,83.749l12.078-9.495l8.832-13.401
		l7.156,3.301l6.042-6.133l6.324-7.11l9.169,3.786l7.57-18.883l9.669,3.902l2.079,9.685c0,0,18.881,13.868,43.012,90.625
		C128.965,140.025,43.044,148.352,17.035,83.749z"/>
	<circle fill="#705328" stroke="#212222" stroke-width="14" stroke-miterlimit="10" cx="131.541" cy="141.839" r="12.376"/>
	<path fill="#543D25" d="M22.952,87.245L33.53,79.35l5.829-10.968l6.322,3.247l71.646,62.955l-2.289,0.491
		C115.038,135.075,60.998,143.005,22.952,87.245z"/>
</g>
</svg>
