<?xml version="1.0" encoding="utf-8"?>
<!-- Generator: Adobe Illustrator 16.0.0, SVG Export Plug-In . SVG Version: 6.00 Build 0)  -->
<!DOCTYPE svg PUBLIC "-//W3C//DTD SVG 1.1//EN" "http://www.w3.org/Graphics/SVG/1.1/DTD/svg11.dtd">
<svg version="1.1" id="Layer_1" xmlns="http://www.w3.org/2000/svg" xmlns:xlink="http://www.w3.org/1999/xlink" x="0px" y="0px"
	 width="512px" height="512px" viewBox="0 0 512 512" enable-background="new 0 0 512 512" xml:space="preserve">
<ellipse fill="#705328" stroke="#212222" stroke-width="14" stroke-miterlimit="10" cx="28.5" cy="-184.86" rx="0" ry="4.36"/>
<path fill-rule="evenodd" clip-rule="evenodd" fill="#FFFFFF" d="M405.846,282.129c0,0-2.348-4.434-8.307-4.454
	c0,0,0.359-16.823-16.776-13.545c0,0-4.996-1.304-8.593,5.557c0,0-12.589-10.955-20.993,1.243c0,0-17.046-3.68-8.718,11.737
	c0,0,0.646,2.909,24.283,15.108c0,0,7.165,4.459,2.834,25.644c0,0-5.097,8.859-4.606,13.608c0,0,12.736,27.205,14.86-10.189
	c0,0,1.266-19.771,10.596-23.067c9.329-3.297,9.329-3.297,9.329-3.297S415.647,293.622,405.846,282.129z"/>
<g>
	<path fill="none" d="M353.73,290.546c-3.118-1.741-6.182-3.583-9.147-5.599c-3.691-2.508-5.912-10.548-1.274-13.384
		c2.043-1.252,4.064-1.09,6.023-0.685c1.716,0.354,2.695-0.005,3.772-1.266c3.541-4.152,7.881-5.557,13.097-3.434
		c1.52,0.619,2.995,1.422,4.112,2.583c1.352,1.404,2.282,1.186,3.298-0.249c1.754-2.478,4.294-3.701,7.151-4.384
		c7.046-1.682,17.074,2.419,16.584,12.491c-0.078,1.588,0.846,1.485,1.839,1.695c6.643,1.404,9.578,6.158,8.033,12.736
		c-1.063,4.527-3.505,7.698-7.238,9.317C395.35,299.61,370.449,295.42,353.73,290.546z"/>
	<path fill="none" d="M380.636,320.682c-0.226,1.188-0.411,2.385-0.541,3.594c-0.46,4.313-0.844,8.633-1.262,12.949
		c-0.458,2.106-1.531,3.745-3.343,4.884c-2.677,1.685-5.794,1.423-8.191-0.667c-2.378-2.072-3.081-5.592-1.695-8.735
		c2.069-4.695,4.243-9.347,5.667-14.275C374.519,319.386,377.686,320.166,380.636,320.682z"/>
	<path fill="none" d="M325.063,295.985c2.049,0.426,4.073,0.979,6.103,1.496c2.876,0.731,3.021,0.955,2.315,3.839
		c-1.824,7.46-3.67,14.914-5.508,22.371c0.003,0.001,0.006,0.001,0.009,0.002c-1.708,6.931-3.375,13.872-5.157,20.783
		c-0.364,1.409-0.034,3.604-1.743,3.947c-1.758,0.354-2.973-1.426-4.093-2.696c-3.51-3.976-3.726-8.952-3.642-13.8
		c0.212-12.055,4.068-23.29,8.299-34.412C322.299,295.798,323.621,295.687,325.063,295.985z"/>
	<path fill="#FFC130" d="M396.175,306.855c0.798-0.101,1.697-0.242,1.4,1.047c-0.501,2.182-1.064,4.35-1.608,6.521
		c-0.149,0.592-0.575,0.903-1.149,1.001c-2.051,0.347-4.101,0.693-6.155,1.012c-1.347,0.21-1.676-0.42-1.261-1.521
		C388.263,311.153,392.472,307.318,396.175,306.855z"/>
	<path fill="#FFC130" d="M343.781,290.719c5.825,3.37,11.704,6.65,17.62,9.856c3.546,1.921,6.464,7.111,6.122,11.127
		c-0.149,1.774-0.771,2.484-2.663,2.004c-7.399-1.876-14.497-4.448-20.933-8.649c-5.101-3.329-5.108-3.317-3.683-9.262
		c0.315-1.279,0.695-2.547,0.93-3.842C341.483,290.256,342.035,289.71,343.781,290.719z"/>
	<path fill="#FFFFFF" d="M372.286,314.156c1.563-8.633-1.611-14.868-9.32-18.753c-3.107-1.564-6.197-3.164-9.235-4.857
		c16.719,4.874,41.619,9.064,46.25,9.824c-1.104,0.479-2.313,0.828-3.641,1.03c-6.862,1.044-11.239,4.713-13.477,11.119
		c-0.934,2.671-1.7,5.39-2.228,8.162c-2.95-0.516-6.117-1.296-9.365-2.251C371.676,317.029,372.022,315.608,372.286,314.156z"/>
	<path fill="#212222" stroke="#212222" stroke-width="2" stroke-miterlimit="10" d="M303.437,340.471
		c1.04,8.453,4.707,15.641,12.282,20.315c2.665,1.644,2.918,3.24,1.041,5.82c-0.82,1.128-1.724,2.206-2.423,3.405
		c-1.607,2.757-1.09,5.383,0.729,7.972c5.395,7.67,13.837,10.452,21.875,13.804c8.022,3.345,16.546,4.781,25.183,5.169
		c6.312,0.284,12.651,0.447,18.607-2.643c3.513-1.82,5.666-5.486,4.494-9.313c-0.546-1.782-0.575-3.482-0.135-5.259
		c6.014-24.259,12.054-48.512,17.976-72.793c0.696-2.854,3.261-3.791,4.86-5.687c4.626-5.486,6.461-11.301,4.479-18.487
		c-1.26-4.569-4.504-6.616-8.129-8.547c-0.974-0.519-1.598-1.016-1.857-2.117c-1.457-6.165-5.453-10.159-11.238-12.241
		c-5.941-2.137-11.869-2.294-17.338,1.602c-1.46,1.041-2.778,1.06-4.459,0.092c-5.728-3.296-13.35-2.256-18.3,2.374
		c-1.107,1.036-2.085,1.462-3.68,1.201c-8.476-1.378-13.12,6.452-12.16,12.325c0.368,2.262,0.158,4.621,1.728,6.638
		c0.851,1.092,0.124,2.468-0.427,3.521c-0.647,1.239-1.811,0.385-2.718,0.2c-1.823-0.373-3.622-0.871-5.432-1.316
		c-0.004,0.018-0.008,0.035-0.013,0.053c-2.109-0.52-4.202-1.142-6.335-1.537c-3.839-0.713-7.151,1.144-8.02,4.937
		c-1.466,6.396-4.401,12.253-6.363,18.465C304.361,318.886,302.084,329.492,303.437,340.471z M343.781,290.719
		c5.825,3.37,11.704,6.65,17.62,9.856c3.546,1.921,6.464,7.111,6.122,11.127c-0.149,1.774-0.771,2.484-2.663,2.004
		c-7.399-1.876-14.497-4.448-20.933-8.649c-5.101-3.329-5.108-3.317-3.683-9.262c0.315-1.279,0.695-2.547,0.93-3.842
		C341.483,290.256,342.035,289.71,343.781,290.719z M387.401,314.915c0.861-3.762,5.07-7.597,8.773-8.06
		c0.798-0.101,1.697-0.242,1.4,1.047c-0.501,2.182-1.064,4.35-1.608,6.521c-0.149,0.592-0.575,0.903-1.149,1.001
		c-2.051,0.347-4.101,0.693-6.155,1.012C387.315,316.646,386.986,316.017,387.401,314.915z M365.604,332.706
		c2.069-4.695,4.243-9.347,5.667-14.275c0.405-1.401,0.752-2.822,1.016-4.274c1.563-8.633-1.611-14.868-9.32-18.753
		c-3.107-1.564-6.197-3.164-9.235-4.857c-3.118-1.741-6.182-3.583-9.147-5.599c-3.691-2.508-5.912-10.548-1.274-13.384
		c2.043-1.252,4.064-1.09,6.023-0.685c1.716,0.354,2.695-0.005,3.772-1.266c3.541-4.152,7.881-5.557,13.097-3.434
		c1.52,0.619,2.995,1.422,4.112,2.583c1.352,1.404,2.282,1.186,3.298-0.249c1.754-2.478,4.294-3.701,7.151-4.384
		c7.046-1.682,17.074,2.419,16.584,12.491c-0.078,1.588,0.846,1.485,1.839,1.695c6.643,1.404,9.578,6.158,8.033,12.736
		c-1.063,4.527-3.505,7.698-7.238,9.317c-1.104,0.479-2.313,0.828-3.641,1.03c-6.862,1.044-11.239,4.713-13.477,11.119
		c-0.934,2.671-1.7,5.39-2.228,8.162c-0.226,1.188-0.411,2.385-0.541,3.594c-0.46,4.313-0.844,8.633-1.262,12.949
		c-0.458,2.106-1.531,3.745-3.343,4.884c-2.677,1.685-5.794,1.423-8.191-0.667C364.921,339.369,364.218,335.85,365.604,332.706z
		 M321.646,297.516c0.653-1.718,1.976-1.829,3.417-1.53c2.049,0.426,4.073,0.979,6.103,1.496c2.876,0.731,3.021,0.955,2.315,3.839
		c-1.824,7.46-3.67,14.914-5.508,22.371c0.003,0.001,0.006,0.001,0.009,0.002c-1.708,6.931-3.375,13.872-5.157,20.783
		c-0.364,1.409-0.034,3.604-1.743,3.947c-1.758,0.354-2.973-1.426-4.093-2.696c-3.51-3.976-3.726-8.952-3.642-13.8
		C313.559,319.873,317.415,308.638,321.646,297.516z"/>
</g>
<path fill-rule="evenodd" clip-rule="evenodd" fill="#FFC130" d="M394.371,320.978l-9.566,0.731c0,0-1.103,16.163-1.887,18.37
	c0,0-6.171,10.238-13.731,6.936c0,0-9.553-5.953-8.1-11.355c0,0,5.342-18.262,2.412-19.034c0,0-24.125-7.123-26.036-9.67
	l-14.681,59.583c0,0,21.492,27.136,58.466,14.406l14.682-59.583"/>
<path fill-rule="evenodd" clip-rule="evenodd" fill="#FFC130" d="M337.463,306.955"/>
<path fill="#E3E5E5" d="M365.468,344.181"/>
<path fill="#EFA91B" d="M347.96,311.635c0,0-14.329,56.865-7.27,68.115c0,0-14.376-6.924-17.908-13.212l14.681-59.583
	L347.96,311.635z"/>
<path fill="#EFA91B" d="M348.875,306.955l3.5-10.08l-9.875-5.75c0,0-2.755,8.94-2.333,10.25
	C340.167,301.375,342.25,304.785,348.875,306.955z"/>
</svg>
