<?xml version="1.0" encoding="utf-8"?>
<!-- Generator: Adobe Illustrator 16.0.0, SVG Export Plug-In . SVG Version: 6.00 Build 0)  -->
<!DOCTYPE svg PUBLIC "-//W3C//DTD SVG 1.1//EN" "http://www.w3.org/Graphics/SVG/1.1/DTD/svg11.dtd">
<svg version="1.1" id="Layer_1" xmlns="http://www.w3.org/2000/svg" xmlns:xlink="http://www.w3.org/1999/xlink" x="0px" y="0px"
	 width="512px" height="512px" viewBox="0 0 512 512" enable-background="new 0 0 512 512" xml:space="preserve">
<rect x="50.42" y="416.229" transform="matrix(0.7071 -0.7071 0.7071 0.7071 -269.6253 200.105)" fill="#2D120E" stroke="#212222" stroke-width="14" stroke-miterlimit="10" width="112.629" height="18.578"/>
<rect x="117.128" y="369.841" transform="matrix(0.7071 0.7071 -0.7071 0.7071 312.9321 2.7696)" fill="#3A3A3A" stroke="#212222" stroke-width="14" stroke-miterlimit="10" width="71.99" height="18.578"/>
<polygon fill="#D8D8D8" stroke="#212222" stroke-width="14" stroke-miterlimit="10" points="139.986,351.762 451.654,40.094 
	438.844,139.935 183.501,395.277 "/>
<polygon fill="#65675C" points="165.599,369.664 416.119,119.144 443.021,56.637 147.797,351.861 "/>
<path fill="#212222" d="M170.663,352.832c1.814,1.813,1.814,4.754,0,6.568l0,0c-1.813,1.813-4.754,1.813-6.568,0l0,0
	c-1.814-1.814-1.814-4.755,0-6.568l0,0C165.909,351.018,168.849,351.018,170.663,352.832L170.663,352.832z"/>
<path fill="#212222" d="M179.421,344.073c1.814,1.814,1.814,4.755,0,6.568l0,0c-1.814,1.814-4.754,1.814-6.568,0l0,0
	c-1.814-1.813-1.814-4.754,0-6.568l0,0C174.667,342.26,177.607,342.26,179.421,344.073L179.421,344.073z"/>
</svg>
