<?xml version="1.0" encoding="utf-8"?>
<!-- Generator: Adobe Illustrator 16.0.0, SVG Export Plug-In . SVG Version: 6.00 Build 0)  -->
<!DOCTYPE svg PUBLIC "-//W3C//DTD SVG 1.1//EN" "http://www.w3.org/Graphics/SVG/1.1/DTD/svg11.dtd">
<svg version="1.1" id="Layer_1" xmlns="http://www.w3.org/2000/svg" xmlns:xlink="http://www.w3.org/1999/xlink" x="0px" y="0px"
	 width="512px" height="512px" viewBox="0 0 512 512" enable-background="new 0 0 512 512" xml:space="preserve">
<rect x="175.156" y="364.458" fill="#3A3A3A" stroke="#212222" stroke-width="14" stroke-miterlimit="10" width="14.206" height="55.05"/>
<rect x="93.106" y="384.88" fill="#593531" stroke="#212222" stroke-width="14" stroke-miterlimit="10" width="55.05" height="14.206"/>
<polygon fill="#D8D8D8" stroke="#212222" stroke-width="14" stroke-miterlimit="10" points="186.331,370.082 483.333,370.082 
	429.657,417.139 186.331,417.139 "/>
<polygon fill="#65675C" points="193.833,393.609 421.293,393.609 473.333,374.357 193.833,374.357 "/>
<path fill="#393A34" d="M210.229,387.248c0,1.961-1.48,3.551-3.306,3.551l0,0c-1.826,0-3.305-1.59-3.305-3.551l0,0
	c0-1.963,1.479-3.553,3.305-3.553l0,0C208.75,383.695,210.229,385.285,210.229,387.248L210.229,387.248z"/>
<path fill="#393A34" d="M219.043,387.248c0,1.961-1.479,3.551-3.305,3.551l0,0c-1.825,0-3.305-1.59-3.305-3.551l0,0
	c0-1.963,1.48-3.553,3.305-3.553l0,0C217.564,383.695,219.043,385.285,219.043,387.248L219.043,387.248z"/>
</svg>
