<?xml version="1.0" encoding="utf-8"?>
<!-- Generator: Adobe Illustrator 16.0.0, SVG Export Plug-In . SVG Version: 6.00 Build 0)  -->
<!DOCTYPE svg PUBLIC "-//W3C//DTD SVG 1.1//EN" "http://www.w3.org/Graphics/SVG/1.1/DTD/svg11.dtd">
<svg version="1.1" id="Layer_1" xmlns="http://www.w3.org/2000/svg" xmlns:xlink="http://www.w3.org/1999/xlink" x="0px" y="0px"
	 width="512px" height="512px" viewBox="0 0 512 512" enable-background="new 0 0 512 512" xml:space="preserve">
<path fill="#4F4C4D" stroke="#212222" stroke-width="14" stroke-miterlimit="10" d="M193.975,247.121
	c0,0-38.451-160.78,68.263-103.011c0,0,12.418,17.682-3.143,14.877c0,0-71.664-55.428-54.75,71.333
	C204.346,230.32,199.79,248.727,193.975,247.121z"/>
<path fill="#4C4C4C" stroke="#212222" stroke-width="14" stroke-miterlimit="10" d="M364.762,162.826
	c5.289,29.351-14.217,57.432-43.567,62.721c-29.351,5.29-57.432-14.216-62.721-43.566c-5.374-29.816,11.633-56.967,43.566-62.721
	C331.391,113.97,359.472,133.476,364.762,162.826z"/>
<path fill="#6B6B6B" d="M266.769,158.47c0,0,73.507-28.15,87.604-6.304c0,0-17.518-27.665-37.556-26.086
	C316.817,126.08,280.841,120.032,266.769,158.47z"/>
<circle fill="#D80F40" stroke="#212222" stroke-width="14" stroke-miterlimit="10" cx="320.669" cy="160.611" r="21.5"/>
<path fill="#F91556" d="M306.451,158.77c0,0,25.889-5.51,28.614,4.666c0,0,1.007-15.084-12.168-16.775
	C322.897,146.661,309.628,144.287,306.451,158.77z"/>
<path fill="#4C4C4C" stroke="#212222" stroke-width="14" stroke-miterlimit="10" d="M265.206,196.222
	c0,0,21.75-33.262,37.021-22.465c0,0,30.589,42.922,42.251,39.127"/>
<path fill="#4F4C4D" stroke="#212222" stroke-width="14" stroke-miterlimit="10" d="M260.889,280.701
	c0,0-26.129,66.91-62.132,61.639l-1.904,16.063c0,0,58.014,11.169,75.72-72.479L260.889,280.701z"/>
<path fill="#424142" d="M272.609,198.4c0,0,32.765,20.176,47.242,8.422c0,0,9.045,7.939,10.941,8.571
	c1.895,0.632,1.895,0.632,1.895,0.632S291.879,230.152,272.609,198.4z"/>
<path fill="#4F4C4D" stroke="#212222" stroke-width="14" stroke-miterlimit="10" d="M234.754,267.885
	c0,0,68.633-46.239,115.523-0.979c0,0,4.178,19.928-5.8,41.928S232.342,280.936,234.754,267.885z"/>
<path fill="#4F4C4D" stroke="#212222" stroke-width="14" stroke-miterlimit="10" d="M266.932,213.121c0,0-27.686,8.051-1.726,40.215
	L246.945,261c0,0-27.755-31.854,9.993-71.598L266.932,213.121z"/>
<path fill="#4F4C4D" stroke="#212222" stroke-width="14" stroke-miterlimit="10" d="M215.833,261c0,0-28.667-2.06-36.667-13.78
	c0,0-39.333,66.28,0,164.947c0,0,21.333,10.667,29.333-8C208.5,404.167,224.599,262.143,215.833,261z"/>
<path fill="#6B6B6B" d="M303.371,254.5c0,0,34.58,34.167,31.712,53.334c0,0,8.942-0.334,8.847-37.334
	C343.93,270.5,328.91,254.167,303.371,254.5z"/>
<path fill="#6B6B6B" d="M181.5,259.5c0,0-16.667,38.088-12.667,71.711c0,0,24-42.976,42.667-50.51v-13.117
	C211.5,267.584,187.5,259.166,181.5,259.5z"/>
<path fill="#4F4C4D" stroke="#212222" stroke-width="14" stroke-miterlimit="10" d="M233.712,387.5c0,0,74.788-11.334,79.788-18
	s-16.576,33-79.788,49.667C233.712,419.167,222.591,404.833,233.712,387.5z"/>
<path fill="#6B6B6B" d="M237.112,411.834c0,0-5.388-6.748,0-17.874l27.388-4.126C264.5,389.834,243.057,403.501,237.112,411.834z"/>
</svg>
