<?xml version="1.0" encoding="utf-8"?>
<!-- Generator: Adobe Illustrator 16.0.0, SVG Export Plug-In . SVG Version: 6.00 Build 0)  -->
<!DOCTYPE svg PUBLIC "-//W3C//DTD SVG 1.1//EN" "http://www.w3.org/Graphics/SVG/1.1/DTD/svg11.dtd">
<svg version="1.1" id="Layer_1" xmlns="http://www.w3.org/2000/svg" xmlns:xlink="http://www.w3.org/1999/xlink" x="0px" y="0px"
	 width="512px" height="512px" viewBox="0 0 512 512" enable-background="new 0 0 512 512" xml:space="preserve">
<path fill="#4F4C4D" stroke="#212222" stroke-width="14" stroke-miterlimit="10" d="M111.975,242.121
	c0,0-38.451-160.78,68.263-103.011c0,0,12.417,17.682-3.143,14.877c0,0-71.664-55.428-54.749,71.333
	C122.346,225.32,117.79,243.727,111.975,242.121z"/>
<path fill="#4C4C4C" stroke="#212222" stroke-width="14" stroke-miterlimit="10" d="M282.762,157.826
	c5.289,29.351-14.217,57.432-43.567,62.721c-29.35,5.29-57.432-14.216-62.721-43.566c-5.374-29.816,11.633-56.967,43.566-62.721
	C249.391,108.97,277.473,128.476,282.762,157.826z"/>
<path fill="#6B6B6B" d="M184.769,153.47c0,0,73.506-28.15,87.604-6.304c0,0-17.518-27.665-37.556-26.086
	C234.817,121.08,198.841,115.032,184.769,153.47z"/>
<circle fill="#D80F40" stroke="#212222" stroke-width="14" stroke-miterlimit="10" cx="238.669" cy="155.611" r="21.5"/>
<path fill="#F91556" d="M224.451,153.77c0,0,25.889-5.51,28.614,4.666c0,0,1.007-15.084-12.168-16.775
	C240.897,141.661,227.628,139.287,224.451,153.77z"/>
<path fill="#4C4C4C" stroke="#212222" stroke-width="14" stroke-miterlimit="10" d="M183.206,191.222
	c0,0,21.75-33.262,37.021-22.465c0,0,30.588,42.922,42.25,39.127"/>
<path fill="#4F4C4D" stroke="#212222" stroke-width="14" stroke-miterlimit="10" d="M178.889,275.701c0,0-26.13,66.91-62.132,61.639
	l-1.904,16.063c0,0,58.014,11.17,75.719-72.479L178.889,275.701z"/>
<path fill="#424142" d="M190.609,193.4c0,0,32.765,20.176,47.243,8.422c0,0,9.045,7.939,10.94,8.571
	c1.896,0.632,1.896,0.632,1.896,0.632S209.879,225.152,190.609,193.4z"/>
<path fill="#4F4C4D" stroke="#212222" stroke-width="14" stroke-miterlimit="10" d="M152.754,262.885
	c0,0,68.633-46.239,115.523-0.979c0,0,4.178,19.928-5.801,41.928C252.499,325.834,150.342,275.936,152.754,262.885z"/>
<path fill="#4F4C4D" stroke="#212222" stroke-width="14" stroke-miterlimit="10" d="M184.932,208.121c0,0-27.686,8.051-1.726,40.215
	L164.945,256c0,0-27.755-31.854,9.993-71.598L184.932,208.121z"/>
<path fill="#4F4C4D" stroke="#212222" stroke-width="14" stroke-miterlimit="10" d="M133.833,256c0,0-28.667-2.06-36.667-13.78
	c0,0-39.333,66.28,0,164.947c0,0,21.333,10.667,29.333-8C126.5,399.167,142.599,257.143,133.833,256z"/>
<path fill="#6B6B6B" d="M221.372,249.5c0,0,34.58,34.167,31.711,53.334c0,0,8.942-0.334,8.847-37.334
	C261.93,265.5,246.91,249.167,221.372,249.5z"/>
<path fill="#6B6B6B" d="M99.5,254.5c0,0-16.667,38.088-12.667,71.711c0,0,24-42.977,42.667-50.51v-13.117
	C129.5,262.584,105.5,254.167,99.5,254.5z"/>
<path fill="#4F4C4D" stroke="#212222" stroke-width="14" stroke-miterlimit="10" d="M151.712,382.5c0,0,74.788-11.334,79.788-18
	s-16.576,33-79.788,49.667C151.712,414.167,140.591,399.833,151.712,382.5z"/>
<path fill="#6B6B6B" d="M155.112,406.834c0,0-5.388-6.748,0-17.874l27.388-4.126C182.5,384.834,161.057,398.501,155.112,406.834z"/>
</svg>
