<?xml version="1.0" encoding="utf-8"?>
<!-- Generator: Adobe Illustrator 16.0.0, SVG Export Plug-In . SVG Version: 6.00 Build 0)  -->
<!DOCTYPE svg PUBLIC "-//W3C//DTD SVG 1.1//EN" "http://www.w3.org/Graphics/SVG/1.1/DTD/svg11.dtd">
<svg version="1.1" id="Layer_1" xmlns="http://www.w3.org/2000/svg" xmlns:xlink="http://www.w3.org/1999/xlink" x="0px" y="0px"
	 width="512px" height="512px" viewBox="0 0 512 512" enable-background="new 0 0 512 512" xml:space="preserve">
<path fill="#75401C" stroke="#1E1C1D" stroke-width="14" stroke-miterlimit="10" d="M118.991,198.533
	c0,0,66.842,55.967,98.176,26.634c0,0,40.155-16.667,27.713,21.333c-12.441,38-19.39,212.244-30.903,201.333
	c0,0-53.912-27.755-66.163-16.666S80.5,452.744,71.167,461.411s34-68.911,32-106.911s2-84.529,3.333-92.614
	c1.333-8.084-8.062-30.72-13.396-38.053C93.104,223.833,98.991,181.594,118.991,198.533z"/>
<path fill="#5B2C0D" d="M101.167,222.5c0,0,11.334,26.335,12.667,34.501s-7.05,75.315-4.192,109.741
	c0,0-19.094,69.743-27.142,81.092c0,0,52.02-14.637,58.667-20.98c6.647-6.345-18.667-205.02-38.667-213.687"/>
<path fill="#5B2C0D" d="M152.5,246.5c0,0,55.333,12,73.333,0s0,4.668,0,23.334s-92.7-16.302-97.684-28.151
	S145.484,245.146,152.5,246.5z"/>
</svg>
