<?xml version="1.0" encoding="utf-8"?>
<!-- Generator: Adobe Illustrator 16.0.0, SVG Export Plug-In . SVG Version: 6.00 Build 0)  -->
<!DOCTYPE svg PUBLIC "-//W3C//DTD SVG 1.1//EN" "http://www.w3.org/Graphics/SVG/1.1/DTD/svg11.dtd">
<svg version="1.1" id="Layer_1" xmlns="http://www.w3.org/2000/svg" xmlns:xlink="http://www.w3.org/1999/xlink" x="0px" y="0px"
	 width="512px" height="512px" viewBox="0 0 512 512" enable-background="new 0 0 512 512" xml:space="preserve">
<path fill="#EDE326" stroke="#212222" stroke-width="14" stroke-miterlimit="10" d="M213.841,84.574
	c0,0-74.908-10.044-86.282-25.821c-11.374-15.777-17.221,52.27,62.231,54.446L213.841,84.574z"/>
<path fill="#FFFFFF" stroke="#000000" stroke-width="14" stroke-miterlimit="10" d="M146.085,94.5"/>
<path fill="#EDE326" stroke="#212222" stroke-width="14" stroke-miterlimit="10" d="M210.429,97.5c0,7.25-81.878,39.574-97.959,36
	c-18-4,42.248,47.239,68.248,12.5"/>
<path fill="#FFFFFF" stroke="#212222" stroke-width="14" stroke-miterlimit="10" d="M158.928,146"/>
<path fill="#FFFFFF" stroke="#212222" stroke-width="14" stroke-miterlimit="10" d="M171,97.5"/>
<path fill="#EDE326" stroke="#212222" stroke-width="14" stroke-miterlimit="10" d="M139.24,177.219
	c0-0.001-30.634,57.074-67.55,53.558c-20.653-3.277,97.591,18.874,100.705,3.836"/>
<path fill="#EDE326" stroke="#212222" stroke-width="14" stroke-miterlimit="10" d="M146.22,157
	c-6.805,2.484-75.675,23.739-81.313,20.112c0,0,47.477,26.048,60.238,16.968C137.906,185,146.22,157,146.22,157z"/>
<path fill="#EDE326" stroke="#212222" stroke-width="14" stroke-miterlimit="10" d="M183.622,168.904
	c0,0-35.341,43.304-45.622,39.656c0,0,50.893,18.926,85.435,5.605"/>
<path fill="#EDE326" stroke="#212222" stroke-width="14" stroke-miterlimit="10" d="M218.632,214.139
	c0,0-13.711,50.742-24.122,51.525c0,0,51.882-3.135,76.75-27.773"/>
<path fill="#EAC428" d="M210.686,257c0,0,49.564-26.75,48.439-29.5l6.875,5.25C266,232.75,254.621,249,210.686,257z"/>
<path fill="#EAC428" d="M216.5,202.5l4.872,6.061c0,0-31.125,10.182-64.872-1.561C156.5,207,212,206,216.5,202.5z"/>
<path fill="#EAC428" d="M103.5,227.5c0,0-3.709,6.5,63.896,4.5c0,0-53.896-5.169-51.896-13.084L103.5,227.5z"/>
<path fill="#EAC428" d="M88.5,180.5l38.238,2.25c0,0-5.385,10.201-14.899,7.201C102.325,186.951,88.5,180.5,88.5,180.5z"/>
<path fill="#EAC428" d="M128.5,69.75c0,0,37.801,30.083,62.333,31.083L184.5,107.5C184.5,107.5,128.5,98.833,128.5,69.75z"/>
<path fill="#EDE326" stroke="#212222" stroke-width="14" stroke-miterlimit="10" d="M122.97,381.669
	c0,0-69.964,78.293-89.964,63.293s45,97,75,16S122.97,381.669,122.97,381.669z"/>
<path fill="#EDE326" stroke="#212222" stroke-width="14" stroke-miterlimit="10" d="M122.404,350.354
	c0,0-33.666,57.811-57.645,51.28s31.645,31.358,46.424,8.688C125.962,387.648,122.404,350.354,122.404,350.354z"/>
<path fill="#EAC428" d="M56.225,472.284c0,0,39.667-14.301,58.667-54.65C114.891,417.634,97.558,517.617,56.225,472.284z"/>
<path fill="#EAC428" d="M79.891,406.951c0,0,23.667-1.334,31-12.334C110.891,394.617,108.224,421.285,79.891,406.951z"/>
<path fill="#EDE326" stroke="#212222" stroke-width="14" stroke-miterlimit="10" d="M275.063,69.75c0,0-88.127-20.25-94.345-41.25
	c-6.217-21-40.474,37.582,40.654,56.291C221.372,84.791,263.623,67,275.063,69.75z"/>
<path fill="#EDE326" stroke="#212222" stroke-width="14" stroke-miterlimit="10" d="M296.704,72.553c0,0-41.964,14.633-59.372-14.42
	c-17.408-29.053-7.704-21.559-7.704-21.559C226.932,24.247,304.639,41.557,296.704,72.553z"/>
<path fill="#EAC428" d="M124.5,140.167c0,0,82.349-25.969,89.341-35.151C220.833,95.834,181.167,166.167,124.5,140.167z"/>
<path fill="#EDE326" d="M124.5,140.167c0,0,43.871,7.142,64.436-8.096l-14.102,9.768C174.833,141.839,164.5,165.834,124.5,140.167z"
	/>
<path fill="#EAC428" d="M186.18,149.481"/>
<path fill="#EAC428" d="M174.833,141.839c0,0,12.538-16.425,14.102-18.668s-2.755,26.311-2.755,26.311"/>
<path fill="#EAC428" d="M199.833,127.823"/>
<path fill="#EAC428" d="M238.343,40.5c0,0,16.155,27.843,51.49,26.667C289.833,67.167,242.519,78.5,238.343,40.5z"/>
<path fill="#EAC428" d="M176.167,35.5c0,0,18.333,39.667,53,38.667l-7.795,3.667C221.372,77.833,168.834,67.833,176.167,35.5z"/>
</svg>
