<?xml version="1.0" encoding="utf-8"?>
<!-- Generator: Adobe Illustrator 16.0.0, SVG Export Plug-In . SVG Version: 6.00 Build 0)  -->
<!DOCTYPE svg PUBLIC "-//W3C//DTD SVG 1.1//EN" "http://www.w3.org/Graphics/SVG/1.1/DTD/svg11.dtd">
<svg version="1.1" id="Layer_1" xmlns="http://www.w3.org/2000/svg" xmlns:xlink="http://www.w3.org/1999/xlink" x="0px" y="0px"
	 width="512px" height="512px" viewBox="0 0 512 512" enable-background="new 0 0 512 512" xml:space="preserve">
<g>
	<path fill="#212222" d="M224.025,99.114c-2.689-1.735-4.884,0.593-7.282,1.005c-3.705,0.638-7.378,1.651-10.943,2.864
		c-3.902,1.327-4.392-0.363-3.45-3.469c0.86-2.834,2.072-5.576,1.593-8.647c1.867-1.605,2.313-3.921,3.08-6.09
		c7.993-22.631,18.546-43.804,35.679-61.057C266.51-0.257,294.411-4.978,324.776,9.966c14.577,7.175,27.655,16.625,39.132,28.165
		c2.561,2.576,4.915,5.486,6.794,8.589c6.521,10.771,3.102,21.021-8.373,26.283c-3.39,1.555-7.385,1.476-10.377,4.006
		c-14.059,1.387-28.167,1.276-42.243,0.828c-5.152-0.164-10.117-0.313-15.064,1.188c-0.884,0.269-1.487,0.645-1.67,1.568
		C269.523,85.031,246.51,91.089,224.025,99.114z M222.406,83.511c2.222-0.438,3.346-0.594,4.434-0.886
		c17.493-4.681,35.006-9.294,52.463-14.104c11.846-3.264,23.467-6.297,36.163-4.774c12.019,1.441,24.312,0.925,36.242-1.981
		c9.226-2.248,10.24-5.25,3.726-12.018c-12.713-13.207-27.356-23.871-44.558-30.434c-19.218-7.333-37.028-4.143-52.701,9.195
		C241.106,43.036,231.056,62.229,222.406,83.511z"/>
	<path fill="#EFE892" d="M222.406,83.511c8.649-21.281,18.7-40.475,35.77-55.001c15.674-13.338,33.483-16.528,52.701-9.195
		c17.2,6.563,31.845,17.227,44.558,30.434c6.516,6.768,5.5,9.77-3.726,12.018c-11.932,2.906-24.225,3.423-36.242,1.981
		c-12.695-1.522-24.318,1.511-36.162,4.774c-17.459,4.81-34.971,9.423-52.464,14.104C225.752,82.917,224.628,83.072,222.406,83.511z
		"/>
</g>
</svg>
