<?xml version="1.0" encoding="utf-8"?>
<!-- Generator: Adobe Illustrator 16.0.0, SVG Export Plug-In . SVG Version: 6.00 Build 0)  -->
<!DOCTYPE svg PUBLIC "-//W3C//DTD SVG 1.1//EN" "http://www.w3.org/Graphics/SVG/1.1/DTD/svg11.dtd">
<svg version="1.1" id="Layer_1" xmlns="http://www.w3.org/2000/svg" xmlns:xlink="http://www.w3.org/1999/xlink" x="0px" y="0px"
	 width="512px" height="512px" viewBox="0 0 512 512" enable-background="new 0 0 512 512" xml:space="preserve">
<path fill="#498748" stroke="#212222" stroke-width="14" stroke-miterlimit="10" d="M221.372,84.791
	c0,0,20.986-22.291-10.943-14.291c0,0,6.071-23.568-17.929-7.784c0,0-92-58.67-124-5.443S19.5,186.5,23.5,188.5c0,0,89-40,95-52
	c0,0-19.154,23.985-9.077,26.993c0,0-14.61,55.811,14.733,20.909C153.499,149.5,162.243,111.082,221.372,84.791z"/>
<path fill="#386637" d="M32,177.112c0,0,70.346-33.612,77.423-40.612C116.5,129.5,152,85.044,154,81.022S113,33.224,32,177.112z"/>
<path fill="#386637" d="M221.372,76c0,0-56.872,25.248-81.372,73.874S135.093,89.035,221.372,76z"/>
</svg>
