<?xml version="1.0" encoding="utf-8"?>
<!-- Generator: Adobe Illustrator 16.0.0, SVG Export Plug-In . SVG Version: 6.00 Build 0)  -->
<!DOCTYPE svg PUBLIC "-//W3C//DTD SVG 1.1//EN" "http://www.w3.org/Graphics/SVG/1.1/DTD/svg11.dtd">
<svg version="1.1" id="Layer_1" xmlns="http://www.w3.org/2000/svg" xmlns:xlink="http://www.w3.org/1999/xlink" x="0px" y="0px"
	 width="512px" height="512px" viewBox="0 0 512 512" enable-background="new 0 0 512 512" xml:space="preserve">
<path fill="#498748" stroke="#212222" stroke-width="14" stroke-miterlimit="10" d="M349.371,229.791
	c0,0,20.986-22.291-10.942-14.291c0,0,6.071-23.568-17.929-7.784c0,0-92-58.67-124-5.443s-49,129.227-45,131.227c0,0,89-40,95-52
	c0,0-19.154,23.985-9.077,26.992c0,0-14.61,55.812,14.733,20.91C281.5,294.5,290.243,256.082,349.371,229.791z"/>
<path fill="#386637" d="M160,322.111c0,0,70.346-33.611,77.423-40.611S280,230.044,282,226.022S241,178.224,160,322.111z"/>
<path fill="#386637" d="M347.25,221.25c0,0,2.75-1.75-18.375,3.875c0,0-41.875,10.875-51.375,55.875c0,0,29.734-36,69.867-55.5
	L347.25,221.25z"/>
</svg>
