<?xml version="1.0" encoding="utf-8"?>
<!-- Generator: Adobe Illustrator 16.0.0, SVG Export Plug-In . SVG Version: 6.00 Build 0)  -->
<!DOCTYPE svg PUBLIC "-//W3C//DTD SVG 1.1//EN" "http://www.w3.org/Graphics/SVG/1.1/DTD/svg11.dtd">
<svg version="1.1" id="Layer_1" xmlns="http://www.w3.org/2000/svg" xmlns:xlink="http://www.w3.org/1999/xlink" x="0px" y="0px"
	 width="512px" height="512px" viewBox="0 0 512 512" enable-background="new 0 0 512 512" xml:space="preserve">
<path fill="#774C0E" stroke="#212222" stroke-width="14" stroke-miterlimit="10" d="M310.495,118.807
	c-48.82-3.56-65.598,8.732-67.702,11.784c-2.105,3.052-20.216-8.153,1.344,132.694c0.094,0.614,0.187,1.21,0.28,1.813
	c-28.519-5.829-52.509-13.002-52.509-13.002s-36.908,3.904,0,4.986S260,378.999,267.045,376.82
	c7.045-2.18,13.955,11.18,14.883,16.763C282.857,399.166,299,391,301.926,389s22.003,4.584,22.003,4.584
	s31.103-155.504,11.104-130.083c-8.729,11.097-37.108,10.331-66.319,5.947c0.164-4.3,0.227-7.015,0.227-7.015
	s10.681-78.773,16.323-75.596c5.642,3.178,17.521,4.537,20.95,0c3.43-4.537,12.425-15.352,17.282-8.595
	c4.857,6.756,24.223-2.392,24.223-2.392l3.147-15.506C350.866,160.345,359.314,122.368,310.495,118.807z"/>
<path fill="#A05D15" d="M241.705,156.833c0,0,22.128-6,28.128,0l40.062-2.667c0,0-5.621,6.175,3.492-2.246
	s29.113,14.246,29.113,14.246s8.667-35.956-21-38.978C321.5,127.189,232.91,112.167,241.705,156.833z"/>
<path fill="#63340D" d="M286.614,280.135c0,0,43.55,29.041,43.718,35.87s4.701-41.864,4.701-41.864S313.396,278.103,286.614,280.135
	z"/>
</svg>
