<?xml version="1.0" encoding="utf-8"?>
<!-- Generator: Adobe Illustrator 16.0.0, SVG Export Plug-In . SVG Version: 6.00 Build 0)  -->
<!DOCTYPE svg PUBLIC "-//W3C//DTD SVG 1.1//EN" "http://www.w3.org/Graphics/SVG/1.1/DTD/svg11.dtd">
<svg version="1.1" id="Layer_1" xmlns="http://www.w3.org/2000/svg" xmlns:xlink="http://www.w3.org/1999/xlink" x="0px" y="0px"
	 width="512px" height="512px" viewBox="0 0 512 512" enable-background="new 0 0 512 512" xml:space="preserve">
<g>
	<path fill="#386637" d="M294.714,257.727c-0.04,5.297-0.078,10.594-0.134,15.89c-0.232,22.272-6.934,43.534-15.85,63.97
		c-22.729,52.098-62.223,84.719-116.359,100.46c-4.616,1.342-9.088,2.882-13.973,2.137c-0.195-6.558-0.391-13.113-0.585-19.674
		c1.434-0.398,2.849-0.888,4.303-1.188c70.158-14.637,120.09-79.383,122.916-150.629c0.237-5.992-0.892-6.967-6.755-6.783
		c-3.229,0.101-4.936,1.617-5.326,4.742c-0.354,2.805-0.684,5.61-1.021,8.416c-3.039-0.207-3.807,2.24-4.812,4.261
		c-1.996,4.013-3.474,8.333-5.837,12.104c-17.625,28.131-40.701,50.305-71.227,64.103c-6.646,3.004-13.417,5.821-20.785,6.668
		c-0.129-1.99-0.37-3.979-0.371-5.97c-0.017-28.164,0.018-56.326-0.003-84.487c-0.006-8.241-0.069-8.229-7.949-9.052
		c-0.983-0.104-1.943-0.437-2.914-0.662c-0.486-11.793,0.903-23.405,3.377-34.875c-11.266-4.103-18.489-8.24-18.772-12.148
		c0,0-11.428,2.565-7.745,228.863c0,0,162.615,4.63,171.635-185.868C296.527,258.001,295.896,257.907,294.714,257.727z"/>
</g>
<path fill="#518D4F" d="M294.714,257.727c-13.864-2.113-103.65-16.129-143.305-30.572c-2.474,11.47-3.863,23.082-3.377,34.876
	c0.971,0.226,1.931,0.559,2.914,0.66c7.88,0.822,7.943,0.812,7.949,9.053c0.021,28.16-0.014,56.322,0.003,84.486
	c0.001,1.99,0.242,3.979,0.371,5.971c7.368-0.848,14.139-3.664,20.785-6.668c30.526-13.799,53.602-35.973,71.227-64.104
	c2.363-3.771,3.841-8.092,5.837-12.104c1.005-2.021,1.772-4.469,4.812-4.262c0.338-2.805,0.668-5.61,1.021-8.416
	c0.392-3.125,2.099-4.642,5.326-4.741c5.863-0.185,6.992,0.79,6.755,6.782c-2.826,71.246-52.758,135.993-122.916,150.63
	c-1.454,0.302-2.869,0.79-4.303,1.188c0.143,4.832,0.287,9.662,0.431,14.492l0,0l-0.431,7.031c0,0,62.237-8.736,95.962-46.76
	c0,0,25.788-23.683,39.631-64.728c0,0,4.559-9.883,7.889-29.959c1.987-8.828,3.189-17.813,3.285-26.972
	C294.636,268.318,294.674,263.023,294.714,257.727z"/>
<path fill="none" stroke="#212222" stroke-width="14" stroke-miterlimit="10" d="M124.16,205.561
	c7.83,11.744,7.602,26.963,170.553,49.354"/>
<path fill="#386637" d="M159.04,362.2c0,0,75.21-20.243,100.085-86.222l2.576-0.914c0,0-3.121,95.727-102.661,131.83
	C159.04,406.896,155.08,371.4,159.04,362.2z"/>
<path fill="#1E1C1D" d="M147.584,420.508c-2.02-1.124-1.639-3.067-1.64-4.865c-0.027-49.248-0.044-98.496-0.088-147.746
	c-0.002-2.211-0.035-4.352,1.947-5.867c0.971,0.229,1.93,0.562,2.914,0.662c7.88,0.822,7.943,0.812,7.949,9.053
	c0.021,28.16-0.013,56.322,0.003,84.486c0.001,1.988,0.242,3.979,0.371,5.971c-0.09,12.641-0.051,25.283-0.338,37.922
	c-0.103,4.543,1.98,4.729,5.183,3.336c6.517-2.838,13.188-5.42,19.418-8.805c27.758-15.068,48.95-36.602,63.087-64.973
	c8.592-17.242,14.225-35.283,15.311-54.617c0.34-2.805,0.67-5.61,1.021-8.416c0.393-3.125,2.1-4.643,5.325-4.741
	c5.863-0.185,6.992,0.79,6.754,6.782c-2.825,71.246-52.758,135.993-122.916,150.63C150.433,419.62,149.018,420.107,147.584,420.508z
	"/>
<path fill="#518D4F" d="M160.04,363.2c0,0,18.945-3.515,52.953-27.607C247.001,311.501,213.5,299.5,197.5,307"/>
</svg>
