<?xml version="1.0" encoding="utf-8"?>
<!-- Generator: Adobe Illustrator 16.0.0, SVG Export Plug-In . SVG Version: 6.00 Build 0)  -->
<!DOCTYPE svg PUBLIC "-//W3C//DTD SVG 1.1//EN" "http://www.w3.org/Graphics/SVG/1.1/DTD/svg11.dtd">
<svg version="1.1" id="Layer_1" xmlns="http://www.w3.org/2000/svg" xmlns:xlink="http://www.w3.org/1999/xlink" x="0px" y="0px"
	 width="512px" height="512px" viewBox="0 0 512 512" enable-background="new 0 0 512 512" xml:space="preserve">
<g>
	<circle fill="#222B2D" stroke="#212222" stroke-width="14" stroke-miterlimit="10" cx="148.923" cy="200.026" r="39.5"/>
	<path fill="#3F4547" d="M123.026,220.511c0,0,23-34.5,54.5-37c0,0-20.5-28.5-47.5-9.5
		C130.026,174.011,105.526,189.011,123.026,220.511z"/>
	<path fill="#3F4547" stroke="#212222" stroke-width="14" stroke-miterlimit="10" d="M126.112,186.431
		c0,0-29.387-45.465,15.824-59.704c45.209-14.24,15.84,4.204,13.543,7.639c-2.295,3.437-25.16,14.889-9.207,47.67
		C162.229,214.817,126.112,186.431,126.112,186.431z"/>
	<circle fill="#222B2D" stroke="#212222" stroke-width="14" stroke-miterlimit="10" cx="148.136" cy="200.058" r="15.5"/>
	<path fill="#3F4547" d="M139.784,200.292c0,0,8.146-7.881,12.828-7.213c0,0-4.855-3.08-9.016-0.041
		C143.597,193.038,138.743,195.837,139.784,200.292z"/>
</g>
</svg>
