<?xml version="1.0" encoding="utf-8"?>
<!-- Generator: Adobe Illustrator 16.0.0, SVG Export Plug-In . SVG Version: 6.00 Build 0)  -->
<!DOCTYPE svg PUBLIC "-//W3C//DTD SVG 1.1//EN" "http://www.w3.org/Graphics/SVG/1.1/DTD/svg11.dtd">
<svg version="1.1" id="Layer_1" xmlns="http://www.w3.org/2000/svg" xmlns:xlink="http://www.w3.org/1999/xlink" x="0px" y="0px"
	 width="512px" height="512px" viewBox="0 0 512 512" enable-background="new 0 0 512 512" xml:space="preserve">
<path fill="#B6E3F2" d="M180.258,241.36l167.909-57.86c0,0,56-5.563,16,54.552l-201.992,73.58L180.258,241.36z"/>
<path fill="#4ACEED" d="M142.966,279.162L345.5,205.5c0,0,22-5.998,6,14.501L144.257,293.5"/>
<path fill="#57DCF2" d="M144.257,293.5L351.5,220.001c16-20.499-6-14.501-6-14.501l-202.534,73.662L345.5,205.5
	c15.333-0.667,11.58,4.891,11.58,4.891L144.257,285.5"/>
<path fill="#A9AAAA" stroke="#212222" stroke-width="14" stroke-miterlimit="10" d="M117.167,306.502L125,326.835
	c0,0,17.289,8.999,19.062-4.667s-9.088-43.006-9.088-43.006L117.167,306.502z"/>
</svg>
