<?xml version="1.0" encoding="utf-8"?>
<!-- Generator: Adobe Illustrator 16.0.0, SVG Export Plug-In . SVG Version: 6.00 Build 0)  -->
<!DOCTYPE svg PUBLIC "-//W3C//DTD SVG 1.1//EN" "http://www.w3.org/Graphics/SVG/1.1/DTD/svg11.dtd">
<svg version="1.1" id="Layer_1" xmlns="http://www.w3.org/2000/svg" xmlns:xlink="http://www.w3.org/1999/xlink" x="0px" y="0px"
	 width="512px" height="512px" viewBox="0 0 512 512" enable-background="new 0 0 512 512" xml:space="preserve">
<path fill="#A9AAAA" stroke="#212222" stroke-width="14" stroke-miterlimit="10" d="M248.167,343.502L256,363.835
	c0,0,17.289,8.999,19.063-4.667c1.772-13.666-9.088-43.006-9.088-43.006L248.167,343.502z"/>
<path fill="#FFFFFF" d="M273.966,316.162L476.5,242.5c0,0,22-5.998,6,14.501L275.257,330.5"/>
<path fill="#565656" d="M311.258,278.359L479.167,220.5c0,0,56-5.563,16,54.552l-201.992,73.58L311.258,278.359z"/>
<path fill="#4ACEED" d="M273.966,316.162L476.5,242.5c0,0,22-5.998,6,14.501L275.257,330.5"/>
<path fill="#57DCF2" d="M275.257,330.5L482.5,257.001c16-20.499-6-14.501-6-14.501l-202.534,73.662L476.5,242.5
	c15.333-0.667,11.58,4.891,11.58,4.891L275.257,322.5"/>
</svg>
