<?xml version="1.0" encoding="utf-8"?>
<!-- Generator: Adobe Illustrator 16.0.0, SVG Export Plug-In . SVG Version: 6.00 Build 0)  -->
<!DOCTYPE svg PUBLIC "-//W3C//DTD SVG 1.1//EN" "http://www.w3.org/Graphics/SVG/1.1/DTD/svg11.dtd">
<svg version="1.1" id="Layer_1" xmlns="http://www.w3.org/2000/svg" xmlns:xlink="http://www.w3.org/1999/xlink" x="0px" y="0px"
	 width="512px" height="512px" viewBox="0 0 512 512" enable-background="new 0 0 512 512" xml:space="preserve">
<path fill="#D6C8BE" d="M134.5,194.08"/>
<path fill="none" stroke="#212222" stroke-width="14" stroke-miterlimit="10" d="M187.307,248.276c0,0,83.193,23.392,115.193,14.308
	"/>
<path fill="#FCFCFC" d="M187.307,257.001"/>
<path fill="#97D6D6" d="M262.494,270.378c0,0-66.94-10.324-73.661-14.378l-9.667,6.584c0,0-17.045,23.806-8.971,96.997
	c0,0,57.874-16.1,86.922-80.257c0,0,1.241-4.029,4.812-4.26"/>
<path fill="#FFFFFF" stroke="#212222" stroke-width="14" stroke-miterlimit="10" d="M241.167,355.834c0,0,27.598,13.333,32.799,10"
	/>
<path fill="#97D6D6" d="M274.916,271.096h20.015c0,0-0.792,44.899-26.778,88.485l-19.83-7.466
	C248.322,352.115,275.999,308.357,274.916,271.096z"/>
</svg>
