<?xml version="1.0" encoding="utf-8"?>
<!-- Generator: Adobe Illustrator 16.0.0, SVG Export Plug-In . SVG Version: 6.00 Build 0)  -->
<!DOCTYPE svg PUBLIC "-//W3C//DTD SVG 1.1//EN" "http://www.w3.org/Graphics/SVG/1.1/DTD/svg11.dtd">
<svg version="1.1" id="Layer_1" xmlns="http://www.w3.org/2000/svg" xmlns:xlink="http://www.w3.org/1999/xlink" x="0px" y="0px"
	 width="512px" height="512px" viewBox="0 0 512 512" enable-background="new 0 0 512 512" xml:space="preserve">
<path fill="#FFFFFF" stroke="#000000" stroke-width="14" stroke-miterlimit="10" d="M152.12,149.991"/>
<path fill="#6B6B6B" stroke="#212222" stroke-width="14" stroke-miterlimit="10" d="M159.269,362.199"/>
<path fill="#6B6B6B" stroke="#212222" stroke-width="14" stroke-miterlimit="10" d="M111.312,233.921c0,0-27.211-9.414-14.312,8.079
	s8.342,37,5.421,65.5S102.5,327.5,99,353s-4.5,88.5-20,99s-12.5,27.5,4,20.5s15.977-2.5,43.738-0.5s36.614-1,49.688-7
	s21.074-4.182,27.574-3.591s10.743-3.909,17.372-9.909S188.5,281,194,273s5.871-25.5,16.686-25.5s11.196-9.218,12.755-16.109
	S163.124,202.842,111.312,233.921z"/>
<path fill="#545454" d="M213,240c0,0-77-13.5-91,10.5c0,0,61.5,31.5,65.5,20c0,0,7.903-13.604,10.952-15.552S213,240,213,240z"/>
<path fill="#545454" d="M90.5,461.409c0,0,19-20.909,27-107.909c0,0,15.117,99.5,7.059,111.5C124.559,465,99.5,461.318,90.5,461.409
	z"/>
<path fill="#545454" d="M205.82,384l4.866,29.5c0,0-31.686-3.5-37.186-0.5s-32,0-34-3.75C139.5,409.25,197.64,394,205.82,384z"/>
<path fill="#6B6B6B" stroke="#212222" stroke-width="14" stroke-miterlimit="10" d="M272.062,375.662
	c0,0,32.297,34.338,41.868,29.588s11.376,39.288-24.526,17.603c0,0-48.654-29.02-33.278-33.02
	C256.125,389.833,269.893,378.781,272.062,375.662z"/>
<path fill="#6B6B6B" stroke="#212222" stroke-width="14" stroke-miterlimit="10" d="M221.902,442.791c0,0,17.266-7.87,20.599-2.414"
	/>
<path fill="#545454" d="M252.275,409.25c0,0,7.475,4.914,6.85,7.914c0,0-12.623,10.647-16.624,14.99c0,0-12.667,0.328-14.667,2.669
	c0,0-3.904-5.805-0.919-7.971c0,0,20.586-17.85,23.919-17.603"/>
<path fill="#545454" d="M272.499,386.164c0,0,18.863,28.667,22.432,32c0,0-34.432-22.666-34.432-24
	C260.499,394.164,268.166,385.164,272.499,386.164z"/>
<path fill="#6B6B6B" stroke="#212222" stroke-width="14" stroke-miterlimit="10" d="M205.842,258.906"/>
</svg>
