<?xml version="1.0" encoding="utf-8"?>
<!-- Generator: Adobe Illustrator 16.0.0, SVG Export Plug-In . SVG Version: 6.00 Build 0)  -->
<!DOCTYPE svg PUBLIC "-//W3C//DTD SVG 1.1//EN" "http://www.w3.org/Graphics/SVG/1.1/DTD/svg11.dtd">
<svg version="1.1" id="Layer_1" xmlns="http://www.w3.org/2000/svg" xmlns:xlink="http://www.w3.org/1999/xlink" x="0px" y="0px"
	 width="512px" height="512px" viewBox="0 0 512 512" enable-background="new 0 0 512 512" xml:space="preserve">
<circle fill="#A5A5A5" stroke="#212222" stroke-width="14" stroke-miterlimit="10" cx="232.885" cy="162.01" r="62.5"/>
<circle fill="#FFFFFF" stroke="#212222" stroke-width="14" stroke-miterlimit="10" cx="236.385" cy="163.493" r="43"/>
<circle fill="#212222" cx="247.407" cy="164.396" r="14.522"/>
<path fill="#6B6B6B" stroke="#212222" stroke-width="14" stroke-miterlimit="10" d="M132.502,190.5l37.883-8.667l17.677,23.727
	c0,0-59.754,9.606-61.324,5.606L132.502,190.5z"/>
<path fill="#D6D6D6" d="M182.167,184.402c0,0-14.155-25.179,3.333-51.234c0,0,10.667-22.333,37.667-25.667
	C223.167,107.501,169.167,132.636,182.167,184.402z"/>
<path fill="#474747" d="M137.167,200.503c0,0,31.437-4.847,33.218-6.423c0,0,5.297,6.09,6.373,6.423
	c1.076,0.333,1.076,0.333,1.076,0.333s-40.77,6.312-42.552,5.656L137.167,200.503z"/>
</svg>
