<?xml version="1.0" encoding="utf-8"?>
<!-- Generator: Adobe Illustrator 16.0.0, SVG Export Plug-In . SVG Version: 6.00 Build 0)  -->
<!DOCTYPE svg PUBLIC "-//W3C//DTD SVG 1.1//EN" "http://www.w3.org/Graphics/SVG/1.1/DTD/svg11.dtd">
<svg version="1.1" id="Layer_1" xmlns="http://www.w3.org/2000/svg" xmlns:xlink="http://www.w3.org/1999/xlink" x="0px" y="0px"
	 width="512px" height="512px" viewBox="0 0 512 512" enable-background="new 0 0 512 512" xml:space="preserve">
<path fill="#FFFFFF" stroke="#000000" stroke-miterlimit="10" d="M174.089,176.285"/>
<path fill="#FFFFFF" stroke="#212222" stroke-width="14" stroke-miterlimit="10" d="M265.684,70.305
	c0,0-81.095-41.907-160.095,65.046c0,0,0.312,3.047,1.038,7.738c-6.834,8.785-17.17,25.265-13.038,40.485
	c0,0,12.013-7.914,20.205-10.817c3.228,8.821,7.568,16.452,13.295,19.127c0,0,24-21.219,30-16.149c0,0-15.5,28.069-6.5,44.569
	c0,0,25.5-17,32-14.5c0,0-6,26.5,0,34.5c0,0,19.5-21,22-20.5c0,0,1,25.5,8,28.5c0,0,20.859-31.5,24.43-29c0,0,1.502,14.5,12.036,20
	l14.534-19c0,0,6.779,27.658,6.431,39.387C270.02,259.691,279.333,78.712,265.684,70.305z"/>
<path fill="#212222" d="M228.724,156.498c-0.009,8.096-5.476,13.758-13.195,13.67c-7.498-0.085-13.13-6.123-13.044-13.98
	c0.085-7.755,5.467-13.217,13.061-13.257C223.436,142.889,228.733,148.343,228.724,156.498z"/>
<path fill="#FEFEFE" d="M99.827,172.167"/>
</svg>
