<?xml version="1.0" encoding="utf-8"?>
<!-- Generator: Adobe Illustrator 16.0.0, SVG Export Plug-In . SVG Version: 6.00 Build 0)  -->
<!DOCTYPE svg PUBLIC "-//W3C//DTD SVG 1.1//EN" "http://www.w3.org/Graphics/SVG/1.1/DTD/svg11.dtd">
<svg version="1.1" id="Layer_1" xmlns="http://www.w3.org/2000/svg" xmlns:xlink="http://www.w3.org/1999/xlink" x="0px" y="0px"
	 width="512px" height="512px" viewBox="0 0 512 512" enable-background="new 0 0 512 512" xml:space="preserve">
<path fill="#FFFFFF" stroke="#212222" stroke-width="14" stroke-miterlimit="10" d="M339.684,182.305
	c0,0-81.095-41.907-160.095,65.046c0,0,0.312,3.047,1.038,7.738c-6.834,8.786-17.17,25.265-13.038,40.485
	c0,0,12.013-7.914,20.205-10.816c3.228,8.82,7.568,16.451,13.295,19.127c0,0,24-21.219,30-16.149c0,0-15.5,28.069-6.5,44.569
	c0,0,25.5-17,32-14.5c0,0-6,26.5,0,34.5c0,0,19.5-21,22-20.5c0,0,1,25.5,8,28.5c0,0,20.859-31.5,24.43-29c0,0,1.502,14.5,12.036,20
	l14.534-19c0,0,6.779,27.658,6.431,39.387C344.02,371.691,353.333,190.712,339.684,182.305z"/>
</svg>
