<?xml version="1.0" encoding="utf-8"?>
<!-- Generator: Adobe Illustrator 16.0.0, SVG Export Plug-In . SVG Version: 6.00 Build 0)  -->
<!DOCTYPE svg PUBLIC "-//W3C//DTD SVG 1.1//EN" "http://www.w3.org/Graphics/SVG/1.1/DTD/svg11.dtd">
<svg version="1.1" id="Layer_1" xmlns="http://www.w3.org/2000/svg" xmlns:xlink="http://www.w3.org/1999/xlink" x="0px" y="0px"
	 width="512px" height="512px" viewBox="0 0 512 512" enable-background="new 0 0 512 512" xml:space="preserve">
<path fill="#FFFFFF" stroke="#212222" stroke-width="14" stroke-miterlimit="10" d="M179.728,123.089
	c0,0-99.083-24.36-106.384-37.986c-7.301-13.626-15.081,8.679-9.821,12.58c0,0,62.338,37.176,60.742,96.345L179.728,123.089z"/>
<path fill="#FFFFFF" stroke="#000000" stroke-width="14" stroke-miterlimit="10" d="M202.5,103.5"/>
<path fill="#FFFFFF" stroke="#000000" stroke-width="14" stroke-miterlimit="10" d="M194.5,105.5"/>
<path fill="#4EC935" stroke="#212222" stroke-width="14" stroke-miterlimit="10" d="M206.5,25.101c0,0-80.999,88.284-147.152,64.704
	c0.202-1.616-10.771-63.362,86.201-71.666C145.549,18.139,205,20.702,206.5,25.101z"/>
<path fill="#930C73" d="M288.866,81.299c-24.714,2.321-48.389,8.285-70.088,20.778c-8.667,4.991-16.759,10.486-24.278,16.48v-0.007
	c0,0-0.018,0.018-0.05,0.047c-0.487,0.389-0.977,0.775-1.459,1.168c-4.998,3.633-22.486,13.319-52.49-1.266l-67-22
	c0,0,65,38,57.991,124.605l0.006-0.008c-3.401,15.642-4.842,31.636-4.755,47.956c0.294,55.304,0.089,110.606,0.09,165.909
	c0,1.499,0.072,3,0.017,4.496c-0.088,2.395,0.629,3.615,3.403,3.384c6.112-0.511,12.244-0.764,18.146-2.66
	c-0.195-6.558-0.39-13.112-0.585-19.674c-2.02-1.124-1.639-3.07-1.642-4.867c-0.027-49.245-0.044-98.495-0.088-147.743
	c-0.002-2.211-0.035-4.353,1.947-5.867c-0.525-12.735,1.121-25.259,3.975-37.62c14.667-63.513,51.515-108.027,112.792-131.672
	c9.673-3.731,19.775-5.597,29.782-7.946C295.13,79.659,291.266,81.073,288.866,81.299z"/>
<path fill="#FFFFFF" stroke="#212222" stroke-width="14" stroke-miterlimit="10" d="M206.5,29"/>
<path fill="#FFFFFF" d="M109.422-32"/>
<path fill="#7A0559" d="M73.5,96.5c0,0,52.651,35.923,58.159,101.295C131.659,197.795,146.075,140.5,73.5,96.5z"/>
<path fill="#3BAD1F" d="M66,84.791c0,0,63.917-56.634,127.25-55.8C193.25,28.991,122.572,101.749,66,84.791z"/>
<path fill="#212222" d="M256.274,163.723c0,4.971-4.029,9-9,9l0,0c-4.971,0-9-4.029-9-9l0,0c0-4.971,4.029-9,9-9l0,0
	C252.245,154.723,256.274,158.752,256.274,163.723L256.274,163.723z"/>
<path fill="#FFFFFF" stroke="#212222" stroke-width="14" stroke-miterlimit="10" d="M179.728,123.089
	c0,0-99.083-24.36-106.384-37.986c-7.301-13.626-15.081,8.679-9.821,12.58c0,0,62.338,37.176,60.742,96.345L179.728,123.089z"/>
<path fill="#FFFFFF" stroke="#000000" stroke-width="14" stroke-miterlimit="10" d="M202.5,103.5"/>
<path fill="#FFFFFF" stroke="#000000" stroke-width="14" stroke-miterlimit="10" d="M194.5,105.5"/>
<path fill="#4EC935" stroke="#212222" stroke-width="14" stroke-miterlimit="10" d="M206.5,25.101c0,0-80.999,88.284-147.152,64.704
	c0.202-1.616-10.771-63.362,86.201-71.666C145.549,18.139,205,20.702,206.5,25.101z"/>
<path fill="#F43149" d="M288.866,81.299c-24.714,2.321-48.389,8.285-70.088,20.778c-8.667,4.991-16.759,10.486-24.278,16.48v-0.007
	c0,0-0.018,0.018-0.05,0.047c-0.487,0.389-0.977,0.775-1.459,1.168c-4.998,3.633-22.486,13.319-52.49-1.266l-67-22
	c0,0,65,38,57.991,124.605l0.006-0.008c-3.401,15.642-4.842,31.636-4.755,47.956c0.294,55.304,0.089,110.606,0.09,165.909
	c0,1.499,0.072,3,0.017,4.496c-0.088,2.395,0.629,3.615,3.403,3.384c6.112-0.511,12.244-0.764,18.146-2.66
	c-0.195-6.558-0.39-13.112-0.585-19.674c-2.02-1.124-1.639-3.07-1.642-4.867c-0.027-49.245-0.044-98.495-0.088-147.743
	c-0.002-2.211-0.035-4.353,1.947-5.867c-0.525-12.735,1.121-25.259,3.975-37.62c14.667-63.513,51.515-108.027,112.792-131.672
	c9.673-3.731,19.775-5.597,29.782-7.946C295.13,79.659,291.266,81.073,288.866,81.299z"/>
<path fill="#FFFFFF" stroke="#212222" stroke-width="14" stroke-miterlimit="10" d="M206.5,29"/>
<path fill="#FFFFFF" d="M109.422-32"/>
<path fill="#DD1221" d="M73.5,96.5c0,0,52.651,35.923,58.159,101.295C131.659,197.795,146.075,140.5,73.5,96.5z"/>
<path fill="#3BAD1F" d="M66,84.791c0,0,63.917-56.634,127.25-55.8C193.25,28.991,122.572,101.749,66,84.791z"/>
<path fill="#FFFFFF" d="M347.928,287.6"/>
<path fill="#FFFFFF" d="M347.928,287.6"/>
<path fill="#5AD33D" d="M66,84.791c0,0,5.126-47.291,81.813-59.291C147.813,25.5,59.5,21.582,66,84.791z"/>
</svg>
