<?xml version="1.0" encoding="utf-8"?>
<!-- Generator: Adobe Illustrator 16.0.0, SVG Export Plug-In . SVG Version: 6.00 Build 0)  -->
<!DOCTYPE svg PUBLIC "-//W3C//DTD SVG 1.1//EN" "http://www.w3.org/Graphics/SVG/1.1/DTD/svg11.dtd">
<svg version="1.1" id="Layer_1" xmlns="http://www.w3.org/2000/svg" xmlns:xlink="http://www.w3.org/1999/xlink" x="0px" y="0px"
	 width="512px" height="512px" viewBox="0 0 512 512" enable-background="new 0 0 512 512" xml:space="preserve">
<path fill="#35180E" stroke="#212222" stroke-width="14" stroke-miterlimit="10" d="M355.922,175.503c0,0,71.578,31.16,85.078,24.08
	c0,0-7.5-11.58-4.5-14.58c0,0,42.5-8.873,34,3.063c0,0-12.5,26.437-17,27.437s-9,2-9.5,0S359.344,191.003,355.922,175.503z"/>
<path fill="#562C1A" d="M443.612,190.5c0,0-7.249-4.196,0-6.098c7.25-1.902,29.012-1.269,23.655,3.665
	C461.912,193,461.912,193,461.912,193S450.915,193.345,443.612,190.5z"/>
</svg>
