<?xml version="1.0" encoding="utf-8"?>
<!-- Generator: Adobe Illustrator 16.0.0, SVG Export Plug-In . SVG Version: 6.00 Build 0)  -->
<!DOCTYPE svg PUBLIC "-//W3C//DTD SVG 1.1//EN" "http://www.w3.org/Graphics/SVG/1.1/DTD/svg11.dtd">
<svg version="1.1" id="Layer_1" xmlns="http://www.w3.org/2000/svg" xmlns:xlink="http://www.w3.org/1999/xlink" x="0px" y="0px"
	 width="512px" height="512px" viewBox="0 0 512 512" enable-background="new 0 0 512 512" xml:space="preserve">
<g>
	<path fill="#1AB777" stroke="#212222" stroke-width="14" stroke-miterlimit="10" d="M167.098,164.91
		c0,0,154.531,0.615,179.633,19.282s4.434,102,4.434,102s-68.688-25.999-86.344-7.333c-17.656,18.666-111.341,13.346-116.499,44.673
		S156.364,158.295,167.098,164.91z"/>
	<g>
		<path fill="none" d="M349.711,258.093c-0.068-0.152-0.139-0.331-0.211-0.568c-0.432-1.42-1.719-2.137-3.408-2.414
			C347.949,256.281,349.145,257.462,349.711,258.093z"/>
		<polygon fill="none" points="275.246,247.275 275.246,247.275 275.246,247.275 		"/>
		<path fill="#E4CB43" d="M349.711,258.093c-0.566-0.631-1.762-1.812-3.619-2.982c-5.15-0.844-14.063,2.415-14.063,2.415
			c-22.41-10.907-6.434,19.812-56.783-10.25l0,0l0,0c-0.782-0.467-1.578-0.947-2.393-1.443c-28.55-17.409-59.233-10.87-81.559-1.061
			c-0.054,9.38,0.196,18.438,0.915,26.322c27.8-11.946,64.117-22.451,83.037-6.901l34.684,3.832c0,0,37.029-4.5,36.801,2.5
			l3.375-11.964C349.982,258.56,349.85,258.402,349.711,258.093z"/>
		<path fill="none" d="M329.188,242.632c-0.043,0.016-0.084,0.032-0.127,0.049c0.033-0.011,0.059-0.019,0.059-0.019
			C329.143,242.651,329.164,242.643,329.188,242.632z"/>
		<path fill="none" d="M281.029,233.504c-1.001-0.624-2.016-1.269-3.053-1.95l0.002,0.003
			C279.004,232.244,280.019,232.886,281.029,233.504z"/>
		<path fill="#BE7213" d="M336.885,239.836c-0.057,0.014-0.111,0.025-0.168,0.04c-0.422,0.105-0.861,0.235-1.305,0.365
			c-1.203,0.366-2.482,0.832-3.842,1.421c-0.789,0.343-1.584,0.663-2.383,0.97c-0.023,0.011-0.045,0.02-0.068,0.03
			c0,0-0.025,0.008-0.059,0.019c-12.254,4.655-25.819,4.67-48.031-9.177c-1.011-0.618-2.025-1.26-3.051-1.947l-0.002-0.003
			c-2.738-1.799-5.6-3.795-8.604-6.014c-17.228-12.723-48.8-5.944-73.56,2.645c-1.426,0.494-2.826,0.995-4.202,1.499
			c-0.17,4.914-0.279,9.863-0.311,14.731c53.783-24.813,83.944,2.858,83.947,2.86l0,0c11.863,6.334,34.684,13.529,34.684,13.529
			c18.848-12.632,30.543-9.237,36.162-5.694c1.689,0.277,2.977,0.994,3.408,2.414c0.072,0.237,0.143,0.416,0.211,0.568
			c0.26,0.289,0.395,0.468,0.395,0.468l0,0c1.297,0.015,1.795-15.339,1.795-15.339S347.801,237.137,336.885,239.836z"/>
		<path fill="#BE7213" d="M272.854,245.832c0.814,0.496,1.61,0.977,2.393,1.443c-0.003-0.002-30.164-27.674-83.947-2.86
			c-0.001,0.118-0.004,0.238-0.005,0.356C213.621,234.962,244.304,228.423,272.854,245.832z"/>
		<path fill="#BE7213" d="M349.711,258.093c0.139,0.31,0.271,0.467,0.395,0.468l0,0
			C350.105,258.561,349.971,258.382,349.711,258.093z"/>
		<path fill="#BE7213" d="M332.029,257.525c0,0,8.912-3.259,14.063-2.415c-5.619-3.543-17.314-6.938-36.162,5.694
			c0,0-22.82-7.195-34.684-13.529C325.596,277.337,309.619,246.618,332.029,257.525z"/>
		<path fill="none" d="M351.832,219.525c0,3.112-1.561,4.898-4.096,5.747c2.648-0.752,3.719-2.27,4.104-3.678l-0.006-2.107
			C351.834,219.497,351.832,219.525,351.832,219.525z"/>
		<path fill="#E04B14" d="M351.84,221.595c0.354-1.291,0.135-2.484,0.035-2.906c-0.018,0.469-0.035,0.731-0.041,0.799
			L351.84,221.595z"/>
		<path fill="#E04B14" d="M347.736,225.272c-11.043,3.695-40.611-10.413-40.611-10.413c-52.575-24.876-89.897-25.259-113.485-20.025
			c-0.776,9.864-1.564,21.877-2.003,34.158c67.084-25.53,86.265,2.45,86.34,2.562c1.037,0.682,2.052,1.326,3.053,1.95
			c25.854,15.821,46.885,9.538,48.031,9.177c0.043-0.017,0.084-0.033,0.127-0.049c2.285-1.066,4.348-1.836,6.225-2.391
			c0.443-0.13,0.883-0.26,1.305-0.365c0.057-0.015,0.111-0.026,0.168-0.04c11.574-2.846,15.016,3.386,15.016,3.386l-0.061-21.627
			C351.455,223.003,350.385,224.521,347.736,225.272z"/>
		<path fill="#E04B14" d="M335.412,240.241c-1.877,0.555-3.939,1.324-6.225,2.391c0.799-0.307,1.594-0.627,2.383-0.97
			C332.93,241.073,334.209,240.607,335.412,240.241z"/>
		<path fill="#E04B14" d="M336.885,239.836c10.916-2.699,15.016,3.386,15.016,3.386S348.459,236.99,336.885,239.836z"/>
		<path fill="#E04B14" d="M329.061,242.681c-1.146,0.361-22.178,6.645-48.031-9.177
			C303.241,247.351,316.807,247.336,329.061,242.681z"/>
		<path fill="#E04B14" d="M195.813,228.185c24.76-8.589,56.332-15.367,73.56-2.645c3.005,2.219,5.866,4.215,8.604,6.014
			c-0.075-0.111-19.256-28.092-86.34-2.562c-0.008,0.23-0.019,0.46-0.026,0.691C192.987,229.18,194.387,228.679,195.813,228.185z"/>
		<path fill="#16E01A" d="M193.739,194.532c47.064-10.252,103.044,14.663,103.044,14.663c31.377,15.617,45.068,17.746,50.953,16.077
			c2.535-0.849,4.096-2.635,4.096-5.747c0,0,0.002-0.028,0.002-0.038l-0.002-0.962c0,0,0.018,0.06,0.043,0.163
			c0.188-5.231,0.008-33.287-25.377-34.496c0,0-78.434-13.522-130.685-13.023c0,0.007-1.058,9.553-2.151,23.381
			C193.688,194.544,193.713,194.538,193.739,194.532z"/>
		<path fill="#16E01A" d="M351.834,219.487c0.006-0.067,0.023-0.33,0.041-0.799c-0.025-0.104-0.043-0.163-0.043-0.163
			L351.834,219.487z"/>
		<path fill="#16E01A" d="M296.783,209.195c0,0-55.98-24.915-103.044-14.663c-0.025,0.006-0.051,0.012-0.076,0.018
			c-0.008,0.097-0.015,0.188-0.023,0.284c23.588-5.233,60.911-4.851,113.485,20.025c0,0,29.568,14.108,40.611,10.413
			C341.852,226.941,328.16,224.813,296.783,209.195z"/>
		<path fill="none" d="M162.241,208.859c2.334-1.832,4.756-3.486,7.251-4.977C164.623,206.673,162.241,208.859,162.241,208.859z"/>
		<path fill="none" d="M160.297,243.222c0.215-0.112,0.423-0.216,0.638-0.327C160.518,243.106,160.297,243.222,160.297,243.222z"/>
		<path fill="none" d="M160.297,243.222l1.944-34.362c5.743-44,9.133-36,9.133-36c6.973-1.091,15.31-1.603,24.439-1.69
			c-24.187-2.855-26.999-0.017-26.999-0.017c-7.03,16.552-11.791,85.886-13.638,117.517l3.743-24.477L160.297,243.222z"/>
		<path fill="none" d="M175.535,252.857c-10.314,6.063-16.615,11.335-16.615,11.335
			C164.649,259.864,170.188,256.108,175.535,252.857z"/>
		<path fill="none" d="M154.317,304.524c16.816-9,41.497-14.5,41.497-14.5c-1.755-4.651-2.903-11.231-3.604-18.931
			c-20.015,8.601-34.816,17.469-36.32,18.379C155.371,298.429,154.317,304.524,154.317,304.524z"/>
		<path fill="#C8AB1A" d="M191.294,244.771c-5.904,2.595-11.219,5.416-15.76,8.086c-5.346,3.251-11.971,8.173-17.701,12.501
			l-1.945,24.114c-0.026,0.436,0.024-0.421,0,0c1.504-0.91,16.306-9.778,36.32-18.379
			C191.491,263.21,191.241,254.151,191.294,244.771z"/>
		<path fill="#985C11" d="M158.919,245.475l-1.085,19.884c0,0,7.386-6.438,17.701-12.501c5.459-3.32,10.716-6.113,15.765-8.442
			c0.032-4.868,0.141-9.817,0.311-14.731c-15.625,5.712-27.819,11.762-30.676,13.211
			C160.72,243.006,159.135,245.362,158.919,245.475z"/>
		<path fill="#BE7213" d="M191.294,244.771c0-0.118,0.004-0.238,0.005-0.356c-5.048,2.329-10.305,5.122-15.765,8.442
			C180.075,250.188,185.391,247.366,191.294,244.771z"/>
		<path fill="#B73D0E" d="M162.241,208.859l-3.322,36.615c0,0,1.598-2.368,2.015-2.58c11.203-5.803,21.387-9.676,30.676-13.211
			c0.438-12.281,1.253-24.985,2.029-34.85c-10.974,2.435-18.968,6.083-24.147,9.049
			C166.997,205.373,164.575,207.027,162.241,208.859z"/>
		<path fill="#E04B14" d="M191.61,229.684c0.008-0.231,0.018-0.461,0.026-0.691c-9.289,3.535-19.499,8.1-30.702,13.902
			C163.791,241.445,175.985,235.396,191.61,229.684z"/>
		<path fill="#11A613" d="M162.241,208.859c0,0,2.381-2.187,7.251-4.977c7.514-4.486,15.697-7.479,24.17-9.333
			c1.093-13.828,2.15-23.374,2.151-23.381c-9.13,0.088-17.467,0.6-24.439,1.69C171.374,172.859,167.984,164.859,162.241,208.859z"/>
		<path fill="#16E01A" d="M169.493,203.883c5.179-2.966,13.173-6.614,24.147-9.049c0.008-0.097,0.015-0.188,0.023-0.284
			C185.189,196.403,177.006,199.396,169.493,203.883z"/>
	</g>
</g>
<path fill="#0D995C" d="M192.154,271.094c0,0,2.291,15.938,4.958,18.506s0,0,0,0s-19.033,1.949-42.85,14.925l1.572-15.052
	C155.833,289.473,164.097,281.2,192.154,271.094z"/>
</svg>
