<?xml version="1.0" encoding="utf-8"?>
<!-- Generator: Adobe Illustrator 16.0.0, SVG Export Plug-In . SVG Version: 6.00 Build 0)  -->
<!DOCTYPE svg PUBLIC "-//W3C//DTD SVG 1.1//EN" "http://www.w3.org/Graphics/SVG/1.1/DTD/svg11.dtd">
<svg version="1.1" id="Layer_1" xmlns="http://www.w3.org/2000/svg" xmlns:xlink="http://www.w3.org/1999/xlink" x="0px" y="0px"
	 width="512px" height="512px" viewBox="0 0 512 512" enable-background="new 0 0 512 512" xml:space="preserve">
<g>
	<path fill="#FCFCFC" d="M261.93,275.064c-1.086,19.332-6.718,37.373-15.311,54.617c-14.137,28.369-35.329,49.9-63.087,64.973
		c-6.23,3.383-12.901,5.965-19.418,8.803c-3.203,1.396-5.286,1.207-5.183-3.336c0.287-12.637,0.248-25.281,0.338-37.922
		c7.369-0.848,14.139-3.664,20.785-6.668c30.526-13.797,53.602-35.971,71.227-64.102c2.363-3.772,3.841-8.095,5.837-12.105
		C258.123,277.305,258.891,274.857,261.93,275.064z"/>
</g>
<path fill="none" d="M147.813,268.145c0,0-10.187,91.855,0,118.855c0,0-24.68,5.5-41.497,14.5c0,0,5.312-111.744,14.498-133.372
	C120.814,268.128,123.626,265.289,147.813,268.145z"/>
<path fill="none" d="M147.813,268.145c0,0-10.187,91.855,0,118.855c0,0-24.68,5.5-41.497,14.5c0,0,5.312-111.744,14.498-133.372
	C120.814,268.128,123.626,265.289,147.813,268.145z"/>
<path fill="none" d="M147.813,268.145c0,0-10.187,91.855,0,118.855c0,0-24.68,5.5-41.497,14.5c0,0,5.312-111.744,14.498-133.372
	C120.814,268.128,123.626,265.289,147.813,268.145z"/>
<path fill="none" d="M147.813,268.145c0,0-10.187,91.855,0,118.855c0,0-24.68,5.5-41.497,14.5c0,0,5.312-111.744,14.498-133.372
	C120.814,268.128,123.626,265.289,147.813,268.145z"/>
<path fill="none" d="M147.813,268.145c0,0-10.187,91.855,0,118.855c0,0-24.68,5.5-41.497,14.5c0,0,5.312-111.744,14.498-133.372
	C120.814,268.128,123.626,265.289,147.813,268.145z"/>
<g>
	<path fill="#1AB777" stroke="#212222" stroke-width="14" stroke-miterlimit="10" d="M119.098,268.91
		c0,0,154.531,0.615,179.632,19.281c25.103,18.668,4.435,102,4.435,102s-68.687-25.998-86.343-7.332
		c-17.656,18.666-111.342,13.346-116.499,44.673C95.166,458.859,108.364,262.295,119.098,268.91z"/>
	<g>
		<path fill="none" d="M301.711,362.093c-0.068-0.151-0.139-0.331-0.211-0.567c-0.432-1.42-1.719-2.137-3.408-2.414
			C299.949,360.281,301.145,361.462,301.711,362.093z"/>
		<path fill="none" d="M227.246,351.275L227.246,351.275L227.246,351.275z"/>
		<path fill="#E4CB43" d="M301.711,362.093c-0.566-0.631-1.762-1.812-3.619-2.981c-5.15-0.844-14.063,2.414-14.063,2.414
			c-22.41-10.906-6.434,19.813-56.784-10.25l0,0l0,0c-0.782-0.467-1.578-0.946-2.392-1.442c-28.55-17.409-59.233-10.87-81.559-1.062
			c-0.054,9.381,0.196,18.438,0.915,26.322c27.8-11.945,64.117-22.451,83.037-6.9l34.684,3.832c0,0,37.029-4.5,36.801,2.5
			l3.375-11.965C301.982,362.561,301.85,362.402,301.711,362.093z"/>
		<path fill="none" d="M281.188,346.632c-0.043,0.017-0.084,0.032-0.127,0.05c0.033-0.012,0.06-0.02,0.06-0.02
			C281.143,346.65,281.164,346.643,281.188,346.632z"/>
		<path fill="none" d="M233.029,337.504c-1.001-0.624-2.016-1.27-3.052-1.949l0.002,0.002
			C231.003,336.244,232.019,336.886,233.029,337.504z"/>
		<path fill="#BE7213" d="M288.885,343.836c-0.057,0.014-0.111,0.025-0.168,0.04c-0.422,0.104-0.861,0.235-1.305,0.365
			c-1.203,0.366-2.482,0.832-3.842,1.421c-0.789,0.343-1.584,0.663-2.383,0.97c-0.023,0.011-0.045,0.021-0.068,0.03
			c0,0-0.025,0.008-0.059,0.02c-12.254,4.654-25.819,4.67-48.032-9.178c-1.011-0.618-2.026-1.26-3.05-1.947l-0.002-0.002
			c-2.738-1.8-5.6-3.796-8.605-6.015c-17.228-12.724-48.8-5.944-73.56,2.646c-1.426,0.494-2.826,0.994-4.202,1.498
			c-0.17,4.914-0.279,9.863-0.311,14.731c53.783-24.813,83.944,2.858,83.946,2.86l0,0c11.863,6.334,34.685,13.528,34.685,13.528
			c18.848-12.632,30.543-9.237,36.161-5.694c1.688,0.277,2.978,0.994,3.408,2.414c0.071,0.237,0.144,0.416,0.211,0.568
			c0.261,0.289,0.396,0.469,0.396,0.469l0,0c1.297,0.015,1.795-15.34,1.795-15.34S299.801,341.137,288.885,343.836z"/>
		<path fill="#BE7213" d="M224.854,349.832c0.814,0.496,1.61,0.977,2.392,1.443c-0.002-0.002-30.163-27.674-83.946-2.86
			c-0.001,0.118-0.004,0.237-0.005,0.356C165.621,338.962,196.304,332.423,224.854,349.832z"/>
		<path fill="#BE7213" d="M301.711,362.093c0.139,0.31,0.271,0.468,0.395,0.468l0,0
			C302.105,362.561,301.971,362.382,301.711,362.093z"/>
		<path fill="#BE7213" d="M284.029,361.525c0,0,8.912-3.26,14.063-2.416c-5.619-3.543-17.314-6.938-36.162,5.695
			c0,0-22.821-7.195-34.684-13.529C277.596,381.337,261.619,350.618,284.029,361.525z"/>
		<path fill="none" d="M303.832,323.525c0,3.111-1.561,4.897-4.096,5.746c2.647-0.752,3.719-2.27,4.104-3.678l-0.006-2.107
			C303.834,323.497,303.832,323.525,303.832,323.525z"/>
		<path fill="#E04B14" d="M303.84,325.596c0.354-1.291,0.135-2.484,0.035-2.906c-0.018,0.469-0.035,0.73-0.041,0.799L303.84,325.596
			z"/>
		<path fill="#E04B14" d="M299.736,329.271c-11.043,3.695-40.611-10.412-40.611-10.412c-52.575-24.877-89.897-25.26-113.485-20.025
			c-0.776,9.864-1.564,21.877-2.003,34.158c67.084-25.53,86.265,2.449,86.34,2.563c1.037,0.682,2.051,1.325,3.052,1.949
			c25.854,15.821,46.885,9.538,48.032,9.178c0.043-0.018,0.084-0.033,0.127-0.05c2.285-1.065,4.348-1.836,6.225-2.391
			c0.443-0.13,0.883-0.261,1.305-0.365c0.057-0.015,0.111-0.026,0.168-0.04c11.574-2.846,15.016,3.387,15.016,3.387l-0.061-21.627
			C303.455,327.003,302.385,328.521,299.736,329.271z"/>
		<path fill="#E04B14" d="M287.412,344.241c-1.877,0.555-3.939,1.323-6.225,2.391c0.799-0.307,1.594-0.627,2.383-0.97
			C284.93,345.073,286.209,344.607,287.412,344.241z"/>
		<path fill="#E04B14" d="M288.885,343.836c10.916-2.699,15.016,3.387,15.016,3.387S300.459,340.99,288.885,343.836z"/>
		<path fill="#E04B14" d="M281.061,346.682c-1.146,0.36-22.178,6.645-48.031-9.178C255.241,351.352,268.807,351.336,281.061,346.682
			z"/>
		<path fill="#E04B14" d="M147.813,332.186c24.76-8.59,56.332-15.367,73.56-2.646c3.005,2.219,5.867,4.215,8.605,6.015
			c-0.076-0.111-19.256-28.093-86.34-2.563c-0.008,0.23-0.019,0.46-0.026,0.691C144.987,333.18,146.387,332.68,147.813,332.186z"/>
		<path fill="#16E01A" d="M145.739,298.532c47.064-10.253,103.044,14.663,103.044,14.663c31.377,15.617,45.068,17.746,50.953,16.076
			c2.535-0.849,4.096-2.635,4.096-5.746c0,0,0.002-0.028,0.002-0.039l-0.002-0.961c0,0,0.018,0.06,0.043,0.162
			c0.188-5.23,0.008-33.287-25.377-34.496c0,0-78.434-13.521-130.685-13.022c0,0.007-1.058,9.554-2.151,23.381
			C145.688,298.544,145.713,298.538,145.739,298.532z"/>
		<path fill="#16E01A" d="M303.834,323.486c0.006-0.066,0.023-0.329,0.041-0.799c-0.025-0.104-0.043-0.162-0.043-0.162
			L303.834,323.486z"/>
		<path fill="#16E01A" d="M248.783,313.195c0,0-55.98-24.916-103.044-14.663c-0.025,0.006-0.051,0.012-0.076,0.018
			c-0.008,0.097-0.015,0.188-0.023,0.284c23.588-5.232,60.911-4.852,113.485,20.025c0,0,29.568,14.107,40.611,10.412
			C293.852,330.941,280.16,328.813,248.783,313.195z"/>
		<path fill="none" d="M114.241,312.859c2.334-1.832,4.756-3.486,7.251-4.978C116.623,310.673,114.241,312.859,114.241,312.859z"/>
		<path fill="none" d="M112.297,347.223c0.215-0.113,0.423-0.217,0.638-0.328C112.518,347.105,112.297,347.223,112.297,347.223z"/>
		<path fill="none" d="M112.297,347.223l1.944-34.363c5.743-44,9.133-36,9.133-36c6.973-1.09,15.31-1.603,24.439-1.689
			c-24.187-2.855-26.999-0.018-26.999-0.018c-7.03,16.553-11.791,85.887-13.638,117.518l3.743-24.477L112.297,347.223z"/>
		<path fill="none" d="M127.535,356.857c-10.314,6.063-16.615,11.334-16.615,11.334
			C116.649,363.864,122.188,360.107,127.535,356.857z"/>
		<path fill="none" d="M106.317,408.524c16.816-9,41.497-14.501,41.497-14.501c-1.755-4.65-2.903-11.23-3.604-18.931
			c-20.015,8.601-34.816,17.47-36.32,18.38C107.371,402.429,106.317,408.524,106.317,408.524z"/>
		<path fill="#C8AB1A" d="M143.294,348.771c-5.904,2.595-11.219,5.416-15.76,8.086c-5.346,3.25-11.971,8.172-17.701,12.5
			l-1.945,24.115c-0.026,0.436,0.024-0.422,0,0c1.504-0.91,16.306-9.779,36.32-18.38C143.491,367.21,143.241,358.15,143.294,348.771
			z"/>
		<path fill="#985C11" d="M110.919,349.475l-1.085,19.885c0,0,7.386-6.438,17.701-12.502c5.459-3.319,10.716-6.112,15.765-8.441
			c0.032-4.868,0.141-9.816,0.311-14.73c-15.625,5.711-27.819,11.762-30.676,13.211C112.72,347.006,111.135,349.361,110.919,349.475
			z"/>
		<path fill="#BE7213" d="M143.294,348.771c0-0.119,0.004-0.238,0.005-0.356c-5.048,2.329-10.305,5.122-15.765,8.442
			C132.075,354.188,137.391,351.366,143.294,348.771z"/>
		<path fill="#B73D0E" d="M114.241,312.859l-3.322,36.615c0,0,1.598-2.369,2.015-2.58c11.203-5.804,21.387-9.677,30.676-13.211
			c0.438-12.281,1.253-24.985,2.029-34.851c-10.974,2.435-18.968,6.083-24.147,9.049
			C118.997,309.373,116.575,311.027,114.241,312.859z"/>
		<path fill="#E04B14" d="M143.61,333.684c0.008-0.23,0.018-0.461,0.026-0.69c-9.289,3.534-19.499,8.1-30.702,13.901
			C115.791,345.445,127.985,339.396,143.61,333.684z"/>
		<path fill="#11A613" d="M114.241,312.859c0,0,2.381-2.188,7.251-4.978c7.514-4.485,15.697-7.479,24.17-9.333
			c1.093-13.828,2.15-23.374,2.151-23.381c-9.13,0.088-17.467,0.6-24.439,1.689C123.374,276.859,119.984,268.859,114.241,312.859z"
			/>
		<path fill="#16E01A" d="M121.493,307.883c5.179-2.966,13.173-6.613,24.147-9.049c0.008-0.098,0.015-0.188,0.023-0.284
			C137.189,300.402,129.006,303.396,121.493,307.883z"/>
	</g>
</g>
<path fill="#0D995C" d="M144.209,375.094c0,0,2.292,15.938,4.958,18.506c2.666,2.568,0,0,0,0s-19.033,1.949-42.85,14.926
	l1.572-15.053C107.889,393.473,116.152,385.2,144.209,375.094z"/>
</svg>
