<?xml version="1.0" encoding="utf-8"?>
<!-- Generator: Adobe Illustrator 16.0.0, SVG Export Plug-In . SVG Version: 6.00 Build 0)  -->
<!DOCTYPE svg PUBLIC "-//W3C//DTD SVG 1.1//EN" "http://www.w3.org/Graphics/SVG/1.1/DTD/svg11.dtd">
<svg version="1.1" id="Layer_1" xmlns="http://www.w3.org/2000/svg" xmlns:xlink="http://www.w3.org/1999/xlink" x="0px" y="0px"
	 width="512px" height="512px" viewBox="0 0 512 512" enable-background="new 0 0 512 512" xml:space="preserve">
<path fill="#FFFFFF" stroke="#000000" stroke-width="14" stroke-miterlimit="10" d="M151.804,148.746"/>
<path fill="#F95C38" stroke="#212222" stroke-width="14" stroke-miterlimit="10" d="M223.845,85.86c0,0,45.815-50.289-2.759-54.956
	c-48.575-4.667-16.366-19.333-56.804-7.333c-40.438,12-62.438,9.333-61.104,34.667c1.334,25.334-44,47.859-14.667,68.93
	c29.333,21.071-3.174,45.578,24.746,45.991c27.92,0.413,14.437,22.175,14.437,22.175S184.511,91.483,223.845,85.86z"/>
<path fill="#D63E25" d="M113.37,166.667c0,0,21.392-70,54.955-76.667s50.478-10.228,51.354-17.447
	c0.876-7.219,14.075-20.006,16.904-14.553s-15.482,22.046-15.482,22.046s-69.824,48.801-86.813,91.948
	C134.289,171.994,118.187,170,113.37,166.667z"/>
</svg>
