<?xml version="1.0" encoding="utf-8"?>
<!-- Generator: Adobe Illustrator 16.0.0, SVG Export Plug-In . SVG Version: 6.00 Build 0)  -->
<!DOCTYPE svg PUBLIC "-//W3C//DTD SVG 1.1//EN" "http://www.w3.org/Graphics/SVG/1.1/DTD/svg11.dtd">
<svg version="1.1" id="Layer_1" xmlns="http://www.w3.org/2000/svg" xmlns:xlink="http://www.w3.org/1999/xlink" x="0px" y="0px"
	 width="512px" height="512px" viewBox="0 0 512 512" enable-background="new 0 0 512 512" xml:space="preserve">
<path fill="#AAD3E8" stroke="#212222" stroke-width="14" stroke-miterlimit="10" d="M246.005,82.051
	c0,0,13.533-51.481,22.147-56.551c15.418-9.074,4.348-9,4.348-9s-56.257,14.241-51.128,32.241c0,0-61.461-34.325-65.461-32.325
	c0,0,9.589,16.084,13.589,27.084s5,35.902,3,37.451c0,0-60.156-41.451-63.078-38.451s-26.922,4-29.922,11c0,0,35.477,34,47.238,54
	c0,0-61.238,2-62.238,5s-30,32.748-29,37.374s73.844-17.374,73.922-14.374s16.555,13.748,17.316,14.374S96.5,155.5,96.5,155.5
	s-21,3.883-21,19.441c0,0,14,3.362,24,9.46s-6,21.159-6,21.159l33.238-4.061C126.738,201.5,158.51,88.602,246.005,82.051z"/>
<path fill="#D6C8BE" d="M134.5,194.08"/>
<path fill="#AAD3E8" d="M120.833,194.08c0,0,57.333-115.574,119.667-117.907l-25.24-6.667
	C215.26,69.506,108.833,155.321,120.833,194.08z"/>
</svg>
