<?xml version="1.0" encoding="utf-8"?>
<!-- Generator: Adobe Illustrator 16.0.0, SVG Export Plug-In . SVG Version: 6.00 Build 0)  -->
<!DOCTYPE svg PUBLIC "-//W3C//DTD SVG 1.1//EN" "http://www.w3.org/Graphics/SVG/1.1/DTD/svg11.dtd">
<svg version="1.1" id="Layer_1" xmlns="http://www.w3.org/2000/svg" xmlns:xlink="http://www.w3.org/1999/xlink" x="0px" y="0px"
	 width="512px" height="512px" viewBox="0 0 512 512" enable-background="new 0 0 512 512" xml:space="preserve">
<rect x="175.156" y="364.458" fill="#3A3A3A" stroke="#212222" stroke-width="14" stroke-miterlimit="10" width="14.206" height="55.05"/>
<path fill="#919191" stroke="#212222" stroke-width="14" stroke-miterlimit="10" d="M156.167,261.165
	c0,0,52.903-93.035,107.785-1.519l-52.522,22.852L156.167,261.165z"/>
<path fill="#B2B2B2" d="M166.5,258c0,0,46-32,86.75-2c0,0-19.75-31-40.75-30C212.5,226,190.5,225.25,166.5,258z"/>
<path fill="#6B629B" d="M147.985,261.068l-21.038-4.416c-0.152,3.783-0.226,7.58-0.205,11.398
	c0.294,55.303,0.089,110.606,0.09,165.909c0,1.499,0.072,3,0.017,4.496c-0.071,1.927,0.401,3.078,2.025,3.339l3.343-0.112
	c5.458-0.426,10.911-0.81,16.181-2.503c-0.195-6.558-0.39-13.113-0.585-19.674c-2.02-1.124-1.639-3.07-1.642-4.866
	c-0.027-49.247-0.044-98.497-0.088-147.745C146.081,264.703,146.054,262.582,147.985,261.068z"/>
<path fill="#6B629B" d="M275.208,263.755l20.058-10.925c0,0,5.01,73-45.452,131.333c0,0-48.98,57.411-123.075,57.705l19.396-22.361
	C146.135,419.507,259.464,408.488,275.208,263.755z"/>
<path fill="#48446D" d="M295.266,252.83c0,0-20.232,130.309-121.166,180.99C174.1,433.819,300.029,405.826,295.266,252.83z"/>
<g>
	<path fill="none" d="M158.898,355.229c0.001,1.988,0.242,3.979,0.371,5.971c-0.09,12.641-0.051,25.283-0.338,37.922
		c-0.103,4.543,1.98,4.729,5.183,3.336c6.517-2.838,13.188-5.42,19.418-8.805c27.758-15.068,48.95-36.602,63.087-64.973
		c2.908-5.837,5.468-11.768,7.637-17.807c-18.276-8.505-47.773-19.691-95.36-33.699C158.908,303.191,158.883,329.21,158.898,355.229
		z"/>
	<path fill="#1E1C1D" d="M150.946,261.689c-0.984-0.102-1.943-0.435-2.914-0.662c-0.017,0.014-0.028,0.029-0.045,0.041
		c0.011,0.005,3.887,1.139,10.324,3.076C157.507,262.383,155.587,262.175,150.946,261.689z"/>
	<path fill="#1E1C1D" d="M275.032,267.688c0.237-5.992-0.892-6.967-6.755-6.783c-3.228,0.101-4.935,1.617-5.326,4.742
		c-0.352,2.806-0.682,5.611-1.021,8.416c-0.449,8.008-1.689,15.793-3.588,23.393c4.163,1.628,8.045,3.217,11.564,4.743
		C272.813,291.001,274.566,279.436,275.032,267.688z"/>
	<path fill="#89521A" d="M269.906,302.198c-1.258,4.841-2.727,9.614-4.405,14.301c18.923,10.276,18.528,15.214,18.528,15.214
		l5.106-16.885C289.926,312.061,282.15,307.51,269.906,302.198z"/>
	<path fill="#89521A" d="M150.099,261.068L150.099,261.068l-24.121-4.416l-0.235,11.398c7.722,1.846,15.106,3.648,22.181,5.411
		c-0.002-2.188-0.002-4.378-0.005-6.567C147.917,264.704,147.886,262.583,150.099,261.068z"/>
	<g>
		<path fill="#E6B676" d="M256.463,304.229c-0.336,1.104-0.687,2.203-1.051,3.299C255.776,306.432,256.126,305.331,256.463,304.229z
			"/>
		<path fill="#E6B676" d="M255.396,307.574c-0.364,1.097-0.742,2.189-1.133,3.279C254.654,309.764,255.032,308.671,255.396,307.574z
			"/>
		<path fill="#E6B676" d="M257.447,300.85c-0.311,1.116-0.635,2.229-0.972,3.338C256.813,303.078,257.139,301.966,257.447,300.85z"
			/>
		<path fill="#573011" d="M255.413,307.525c-0.005,0.017-0.011,0.031-0.016,0.049C255.402,307.559,255.407,307.542,255.413,307.525z
			"/>
		<path fill="#573011" d="M254.263,310.854c-0.002,0.008-0.005,0.015-0.007,0.021l0,0
			C254.258,310.867,254.261,310.859,254.263,310.854z"/>
		<path fill="#573011" d="M257.45,300.84c-0.001,0.003-0.002,0.006-0.003,0.01C257.448,300.846,257.449,300.843,257.45,300.84z"/>
		<path fill="#573011" d="M256.476,304.188c-0.004,0.015-0.008,0.027-0.012,0.041C256.467,304.215,256.472,304.201,256.476,304.188z
			"/>
		<path fill="#E6B676" d="M258.341,297.455c1.899-7.6,3.14-15.385,3.589-23.393c-3.039-0.207-3.807,2.24-4.812,4.261
			c-1.996,4.012-3.474,8.333-5.837,12.104c-0.737,1.178-1.498,2.326-2.254,3.481c-2.526,3.858-5.151,7.608-7.898,11.225
			c-16.1,21.19-36.088,38.103-61.075,49.396c-6.646,3.005-13.416,5.82-20.785,6.669c-0.09,12.641-0.051,25.284-0.338,37.922
			c-0.103,4.543,1.98,4.73,5.183,3.336c6.517-2.838,13.188-5.42,19.418-8.804c27.758-15.07,48.95-36.603,63.087-64.973
			c2.909-5.837,5.468-11.768,7.637-17.807c0.002-0.007,0.005-0.014,0.007-0.021c0.391-1.09,0.769-2.183,1.133-3.278
			c0.005-0.017,0.011-0.032,0.016-0.048c0.364-1.096,0.714-2.195,1.051-3.299c0.004-0.014,0.008-0.026,0.012-0.041
			c0.337-1.108,0.662-2.222,0.972-3.338c0-0.004,0.002-0.007,0.003-0.01c0.31-1.115,0.604-2.234,0.885-3.359
			C258.337,297.473,258.34,297.464,258.341,297.455C258.342,297.455,258.342,297.455,258.341,297.455z"/>
		<path fill="#E6B676" d="M258.341,297.455c1.899-7.6,3.14-15.385,3.589-23.393c-3.039-0.207-3.807,2.24-4.812,4.261
			c-1.996,4.012-3.474,8.333-5.837,12.104c-0.737,1.178-1.498,2.326-2.254,3.481c-2.526,3.858-5.151,7.608-7.898,11.225
			c-16.1,21.19-36.088,38.103-61.075,49.396c-6.646,3.005-13.416,5.82-20.785,6.669c-0.09,12.641-0.051,25.284-0.338,37.922
			c-0.103,4.543,1.98,4.73,5.183,3.336c6.517-2.838,13.188-5.42,19.418-8.804c27.758-15.07,48.95-36.603,63.087-64.973
			c2.909-5.837,5.468-11.768,7.637-17.807c0.002-0.007,0.005-0.014,0.007-0.021c0.391-1.09,0.769-2.183,1.133-3.278
			c0.005-0.017,0.011-0.032,0.016-0.048c0.364-1.096,0.714-2.195,1.051-3.299c0.004-0.014,0.008-0.026,0.012-0.041
			c0.337-1.108,0.662-2.222,0.972-3.338c0-0.004,0.002-0.007,0.003-0.01c0.31-1.115,0.604-2.234,0.885-3.359
			C258.337,297.473,258.34,297.464,258.341,297.455C258.342,297.455,258.342,297.455,258.341,297.455z"/>
	</g>
	<path fill="#1E1C1D" d="M258.342,297.455c-1.132,4.537-2.502,9.008-4.086,13.419c-2.169,6.039-4.729,11.97-7.637,17.808
		c-14.137,28.37-35.329,49.902-63.087,64.973c-6.23,3.384-12.901,5.966-19.418,8.804c-3.203,1.395-5.286,1.207-5.183-3.336
		c0.287-12.638,0.248-25.281,0.338-37.922c-0.129-1.991-0.37-3.981-0.371-5.97c-0.015-26.021,0.01-52.039-0.002-78.056
		c-0.001-2.146,0.001-4.288,0-6.433c-0.002-3.389-0.024-5.367-0.584-6.598c-6.437-1.938-10.313-3.072-10.324-3.076
		c-1.931,1.515-1.904,3.636-1.902,5.826c0.002,2.189,0.002,4.379,0.004,6.567c0.04,47.062,0.059,94.119,0.084,141.179
		c0.001,1.797-0.38,3.741,1.64,4.865c1.434-0.4,2.849-0.888,4.303-1.188c53.59-11.181,95.376-51.601,113.385-101.818
		c1.68-4.687,3.148-9.46,4.405-14.302C266.387,300.672,262.505,299.083,258.342,297.455z"/>
	<path fill="#1E1C1D" d="M259.247,295.811c-1.121,4.537-2.478,9.008-4.045,13.418c-2.146,6.039-4.68,11.971-7.559,17.808
		c-13.994,28.371-34.97,49.903-62.445,64.973c-6.167,3.384-12.77,5.966-19.22,8.804c-3.17,1.396-5.232,1.207-5.13-3.336
		c0.284-12.638,0.246-25.281,0.334-37.922c-0.127-1.99-0.366-3.98-0.367-5.97c-0.015-26.021,0.01-52.038-0.002-78.056
		c-0.001-2.145,0.001-4.287,0-6.432c-0.002-3.389-0.024-5.367-0.579-6.599c-6.372-1.938-10.208-3.071-10.219-3.075
		c-1.911,1.514-1.884,3.635-1.882,5.826c0.002,2.189,0.002,4.378,0.004,6.566c0.04,47.062,0.058,94.119,0.083,141.18
		c0.001,1.797-0.376,3.741,1.624,4.865c1.419-0.4,2.82-0.889,4.259-1.189c53.045-11.18,94.405-51.6,112.23-101.818
		c1.662-4.687,3.116-9.459,4.36-14.301C267.21,299.025,263.367,297.438,259.247,295.811z"/>
</g>
<path fill="#FFFFFF" stroke="#212222" stroke-width="14" stroke-miterlimit="10" d="M126.738,252.83"/>
<path fill="#FFFFFF" stroke="#212222" stroke-width="14" stroke-miterlimit="10" d="M124.738,249.583
	c0,0,29.428,3.002,29.428,10.833"/>
<path fill="#FFFFFF" stroke="#212222" stroke-width="14" stroke-miterlimit="10" d="M268.277,260.904
	c0,0,16.223-5.572,30.223-11.321"/>
<path fill="#4B250E" d="M279.836,306.864l-6.016,14.577c0,0,11.021,8.045,10.209,10.271c-0.813,2.227,5.106-16.885,5.106-16.885
	S289.766,311.529,279.836,306.864z"/>
<path fill="#393A34" d="M210.229,387.248c0,1.961-1.48,3.551-3.306,3.551l0,0c-1.826,0-3.305-1.59-3.305-3.551l0,0
	c0-1.963,1.479-3.553,3.305-3.553l0,0C208.75,383.695,210.229,385.285,210.229,387.248L210.229,387.248z"/>
<path fill="#E6B676" d="M160.751,403.222c84.766-15.594,101.179-131.823,101.179-131.823
	c-23.993,56.709-100.243,88.935-100.243,88.935"/>
<path fill="#1E1C1D" d="M230.5,358.164c0,0-25,29.779-59,45.057l-25.365,16.286c0,0,51.32-2.222,103.343-70.282l-22.245,9.412
	L230.5,358.164z"/>
</svg>
