<?xml version="1.0" encoding="utf-8"?>
<!-- Generator: Adobe Illustrator 16.0.0, SVG Export Plug-In . SVG Version: 6.00 Build 0)  -->
<!DOCTYPE svg PUBLIC "-//W3C//DTD SVG 1.1//EN" "http://www.w3.org/Graphics/SVG/1.1/DTD/svg11.dtd">
<svg version="1.1" id="Layer_1" xmlns="http://www.w3.org/2000/svg" xmlns:xlink="http://www.w3.org/1999/xlink" x="0px" y="0px"
	 width="512px" height="512px" viewBox="0 0 512 512" enable-background="new 0 0 512 512" xml:space="preserve">
<path fill="none" stroke="#212222" stroke-width="14" stroke-miterlimit="10" d="M119.39,357.167c0,0,16.989,12.654,28.423,10.666"
	/>
<path fill="none" stroke="#212222" stroke-width="14" stroke-miterlimit="10" d="M215.168,379.167c0,0,51.782-0.895,52.984-2.895"/>
<path fill="#FEFEFE" d="M148.833,244"/>
<g>
	<path fill="none" stroke="#212222" stroke-width="14" stroke-miterlimit="10" d="M119.39,230.489c0,0,148.443,36.677,181.11,10.678
		"/>
	<path fill="none" stroke="#212222" stroke-width="14" stroke-miterlimit="10" d="M153.831,324.129c0,0,75.391,17.704,102.03,4.371"
		/>
	<path fill="#FDF76D" d="M128.37,239.671L148.833,244c0,0-1.103,15.07-0.801,18.029c0,0-1.945,1.383-1.947,3.625l0.061,95.499
		c0,0-8.021,1.001-19.25-7.333C126.896,353.82,125.206,258.439,128.37,239.671z"/>
	<path fill="#FDF76D" d="M222.924,326.594c0,0,32.159-36.137,36.201-50.615l2.805-0.914c0,0-0.42,26.899-12.663,49.064
		C249.267,324.129,230.681,327.688,222.924,326.594z"/>
	<path fill="#EADF5C" d="M148.032,262.029c0,0,2.797,1.084,5.799,0.986c0,0,4.792-0.073,4.927,3.953V318
		c0,0,45.365,9.801,64.165,8.594c0,0,35.826-40.637,36.201-50.615c0,0,0.734-1.021,2.805-0.914c0,0,0.837-10.247,2.092-11.342
		c0,0,1.854-1.834,4.256-1.815c0,0,5.559-0.384,6.134,1.715c0,0,1.486,2.46-1.046,22.672c0,0-3.895,24.811-14.547,47.178
		c0,0-10.818,22.034-25.485,38.534c0,0,26-1.334,27.5-1.334c0,0,22.167-34.324,28.167-60.324c0,0,7.264-19.5,5.632-51.333l0.239-7
		c0,0-49.038,8-90.705,1.667c0,0-52.666-8.197-55.333-9.682C148.833,244,147.398,259.543,148.032,262.029z"/>
</g>
</svg>
