<?xml version="1.0" encoding="utf-8"?>
<!-- Generator: Adobe Illustrator 16.0.0, SVG Export Plug-In . SVG Version: 6.00 Build 0)  -->
<!DOCTYPE svg PUBLIC "-//W3C//DTD SVG 1.1//EN" "http://www.w3.org/Graphics/SVG/1.1/DTD/svg11.dtd">
<svg version="1.1" id="Layer_1" xmlns="http://www.w3.org/2000/svg" xmlns:xlink="http://www.w3.org/1999/xlink" x="0px" y="0px"
	 width="512px" height="512px" viewBox="0 0 512 512" enable-background="new 0 0 512 512" xml:space="preserve">
<path fill="none" stroke="#212222" stroke-width="14" stroke-miterlimit="10" d="M149.39,193.489c0,0,148.443,36.677,181.11,10.678"
	/>
<path fill="none" stroke="#212222" stroke-width="14" stroke-miterlimit="10" d="M183.831,287.129c0,0,75.391,17.704,102.03,4.371"
	/>
<path fill="#FDF76D" d="M158.37,202.671L178.833,207c0,0-1.103,15.07-0.801,18.029c0,0-1.945,1.383-1.947,3.625l0.061,95.499
	c0,0-8.021,1.001-19.25-7.333C156.896,316.82,155.206,221.439,158.37,202.671z"/>
<path fill="#FDF76D" d="M252.924,289.594c0,0,32.159-36.137,36.201-50.615l2.805-0.914c0,0-0.42,26.899-12.663,49.064
	C279.267,287.129,260.682,290.688,252.924,289.594z"/>
<path fill="#EADF5C" d="M178.032,225.029c0,0,2.797,1.084,5.799,0.986c0,0,4.792-0.073,4.927,3.953V281
	c0,0,45.365,9.801,64.165,8.594c0,0,35.826-40.637,36.201-50.615c0,0,0.734-1.021,2.805-0.914c0,0,0.837-10.247,2.092-11.342
	c0,0,1.854-1.834,4.256-1.815c0,0,5.559-0.384,6.134,1.715c0,0,1.486,2.46-1.046,22.672c0,0-3.895,24.811-14.547,47.178
	c0,0-10.818,22.034-25.484,38.534c0,0,25.999-1.334,27.499-1.334c0,0,22.167-34.324,28.167-60.324c0,0,7.264-19.5,5.632-51.333
	l0.239-7c0,0-49.038,8-90.705,1.667c0,0-52.666-8.197-55.333-9.682C178.833,207,177.398,222.543,178.032,225.029z"/>
</svg>
