<?xml version="1.0" encoding="utf-8"?>
<!-- Generator: Adobe Illustrator 16.0.0, SVG Export Plug-In . SVG Version: 6.00 Build 0)  -->
<!DOCTYPE svg PUBLIC "-//W3C//DTD SVG 1.1//EN" "http://www.w3.org/Graphics/SVG/1.1/DTD/svg11.dtd">
<svg version="1.1" id="Layer_1" xmlns="http://www.w3.org/2000/svg" xmlns:xlink="http://www.w3.org/1999/xlink" x="0px" y="0px"
	 width="512px" height="512px" viewBox="0 0 512 512" enable-background="new 0 0 512 512" xml:space="preserve">
<g>
	<path fill-rule="evenodd" clip-rule="evenodd" fill="none" stroke="#000000" stroke-width="14" stroke-miterlimit="10" d="
		M298.173,206.195c4.681,2.924,9.37,5.836,14.038,8.784c0.988,0.623,1.75,1.344,2.862,0.012c4.628-5.549,9.446-10.944,14.013-16.542
		c4.201-5.151,8.031-10.609,12.29-15.711c3.715-4.453,6.376-4.021,9.417,1.315c4.085,7.174,6.832,14.968,9.893,22.593
		c3.01,7.498,5.572,15.189,6.863,23.226c0.828,5.162,0.119,9.51-4.066,13.491c-14.262,13.564-28.741,26.874-43.56,39.824
		c-3.313,2.895-6.306,6.156-9.442,9.248c-4.65,3.461-8.484,7.731-12.033,12.276c-10.34,12.368-20.709,24.714-31.002,37.12
		c-2.796,3.369-5.412,6.893-8.031,10.403c-2.047,2.743-3.896,3.871-7.992,3.117c-7.871-1.45-16.066-1.019-24.07-1.897
		c-11.207-1.231-22.624-1.885-32.676-7.964c-5.314-3.214-5.582-5.274-1.248-9.743c2.968-3.062,5.968-6.092,8.922-9.166
		c2.206-2.298,4.483-4.271,8.027-4.055c1.614,0.098,2.878-1.017,4-2.175c4.546-4.698,9.065-9.426,13.711-14.024
		c1.717-1.699,1.788-3.107,0.591-5.191c-3.021-5.265-5.778-10.682-8.64-16.039c2.68,1.929,4.816,2.148,5.633-1.791
		c1.819,3.021,3.692,6.011,5.448,9.069c4.298,7.49,4.275,7.504,9.819,0.55c1.656-0.386,2.516-1.79,3.598-2.879
		c3.901-3.932,7.698-7.969,11.647-11.85c15.799-15.521,30.982-31.628,45.727-48.15c0.441-0.521,0.883-1.041,1.324-1.562
		c0.617-0.387,1.036-0.903,1.066-1.667c1.409-0.576,2.287-1.667,2.902-3.01l0.131,0.178l-0.206-0.104
		c2.442-1.681,2.788-3.036-0.156-4.797c-3.963-2.371-7.67-5.168-11.485-7.783C297.082,209.965,297.998,208.276,298.173,206.195z
		 M278.568,317.73l0.184-0.262c6.658-7.58,13.315-15.159,19.975-22.739c5.596-5.595,11.19-11.188,16.785-16.783
		c1.071-0.265,1.817-0.889,2.164-1.953c0.891-0.909,1.779-1.818,2.669-2.727c0.935-0.37,1.604-1.011,1.979-1.95
		c0.393-0.4,0.787-0.8,1.181-1.2c0.265-0.188,0.528-0.377,0.792-0.565c2.76-2.798,5.521-5.595,8.281-8.393
		c8.488-7.035,16.979-14.063,25.457-21.107c0.869-0.722,1.936-1.516,1.768-2.746c-0.867-6.393-0.573-12.963-2.841-19.147
		c0.626-2.887,1.27-5.771,1.875-8.662c0.732-3.484-0.382-4.663-3.753-2.958c-2.639-5.183-5.303-10.352-7.897-15.556
		c-1.079-2.165-2.165-2.387-3.673-0.385c-9.826,13.047-20.217,25.632-30.965,37.927c-14.715,15.845-29.43,31.689-44.145,47.536
		c-8.473,8.079-17.155,15.946-25.083,24.581c-9.471,8.555-18.943,17.105-28.415,25.66c-3.869,3.289-7.688,6.643-11.622,9.854
		c-4.233,3.459-4.263,3.455,0.958,5.642c7.324,3.068,14.961,5.093,22.68,6.854c2.095,1.367,3.661,0.111,5.243-1.057
		c0.314,1.736,1.728,1.615,2.975,1.734c3.248,0.309,6.493,0.676,9.746,0.871c7.597,0.455,10.478-1.34,13.951-8.529
		c1.086-1.259,2.174-2.517,3.26-3.777c0.194-0.281,0.389-0.563,0.584-0.844c4.232-5.318,8.461-10.638,12.691-15.957
		C276.438,319.973,277.504,318.853,278.568,317.73z"/>
	<path fill-rule="evenodd" clip-rule="evenodd" fill="#4F2005" d="M262.836,186.088c5.228,2.702,10.456,5.403,15.686,8.105
		c-2.445,1.389-3.033,3.754-3.307,6.286c-1.385,0.238-2.764,0.513-4.153,0.709c-8.667,1.229-8.669,1.223-7.662,10.068
		c-0.095,1.272-0.258,2.545-0.276,3.819c-0.119,8.678-0.104,8.601-8.631,8.207c-3.95-0.183-8.785-2.202-11.63,0.032
		c-3.098,2.434-1.446,7.74-2.272,11.727c-0.853,4.119,0.81,9.731-2.317,12.099c-3.25,2.459-8.606,0.713-12.848-0.145
		c-4.73-0.954-6.171,0.996-6.429,5.075c-0.045,0.706-0.097,1.412-0.145,2.117c-0.968,3.245-1.936,6.488-2.905,9.732
		c-2.404-1.332-4.462-0.754-6.282,1.138c-2.66-5.354-5.318-10.71-7.979-16.066c1.504-2.299,2.651-4.758,3.335-7.427
		c2.415-1.339,3.554-3.688,4.74-6c3.294-3.663,6.475-7.415,9.079-11.618c6.744-6.641,13.488-13.283,20.231-19.925
		c0.239-0.235,0.478-0.468,0.717-0.704c1.313-1.348,2.625-2.698,3.938-4.046c3.702-2.709,7.404-5.419,11.106-8.128
		c2.315-1.719,4.629-3.438,6.942-5.156l-0.049,0.025C262.096,186.039,262.466,186.064,262.836,186.088z M212.894,241.084
		c-1.167,1.242-2.236,2.595-3.519,3.703c-4.025,3.477-4.971,5.605,0.295,10.857c2.252,2.248,3.569,2.492,4.396-1.121
		c0.979-4.271,2.311-8.461,3.49-12.687c0.552-0.131,1.102-0.264,1.652-0.395c3.979,1.847,8.352,1.416,12.512,2.197
		c2.882,0.542,4.115-0.372,4.314-3.377c0.31-4.676,0.841-9.346,1.504-13.986c1.272-8.922,0.157-7.571,8.603-7.467
		c3.268,0.042,6.544,0.067,9.798,0.325c2.52,0.201,3.749-0.428,3.363-3.229c-0.368-2.667-0.458-5.37-0.668-8.058
		c-0.982-9.873-0.981-9.87,8.279-11.684c0.132-0.026,0.183-0.46,0.339-0.889c-1.896-0.686-3.928-3.289-5.65-1.657
		c-3.553,3.367-8.402,4.728-11.715,8.295c-0.213,0.058-0.403,0.16-0.57,0.306c-0.34,0.164-0.68,0.327-1.02,0.491
		c-1.015,1.01-2.031,2.021-3.046,3.032c-0.215,0.185-0.43,0.369-0.646,0.555c-8.072,7.667-16.137,15.343-23.321,23.879
		C218.486,233.812,215.691,237.448,212.894,241.084z"/>
	<path fill-rule="evenodd" clip-rule="evenodd" fill="#453A04" d="M205.02,241.566c-0.684,2.669-1.831,5.128-3.335,7.427
		c-6.014-13.301-12.25-26.507-17.983-39.927c-5.242-12.27,1.342-27.241,13.88-34.804c13.738-8.288,26.915-7.429,40.517,0.094
		c7.685,4.251,15.77,7.779,23.674,11.633c-2.313,1.718-4.627,3.437-6.942,5.155c1.394-2.179-0.684-2.302-1.78-2.852
		c-6.737-3.384-13.514-6.685-20.254-10.06c-9.82-4.915-19.685-4.759-29.613-0.372c-6.787,4.535-11.956,10.152-12.565,18.813
		c-0.028,0.346-0.056,0.693-0.084,1.04c-1.342,2.728-0.857,5.316,0.09,8.125C194.737,218.031,200.263,229.642,205.02,241.566z"/>
	<path fill-rule="evenodd" clip-rule="evenodd" fill="#0B4C07" d="M209.665,265.06c1.82-1.892,3.878-2.47,6.28-1.136
		c1.009,2.036,1.936,4.119,3.055,6.094c1.085,1.919,1.408,5.255,3.652,5.296c2.642,0.048,3.655-3.15,4.956-5.313
		c0.072-0.121,0.121-0.256,0.182-0.386c2.167-2.25,4.41-4.435,6.493-6.763c7.958-8.899,15.71-17.979,24.348-26.258
		c6.158-5.905,12.067-12.069,18.087-18.118c2.638-2.125,5.271-4.256,7.911-6.376c1.16-0.932,1.701-2.09,0.498-3.224
		c-3.15-2.972-5.555-6.847-9.913-8.395c0.274-2.532,0.862-4.897,3.308-6.286c6.551,3.999,13.102,8,19.651,12
		c-0.175,2.082-1.091,3.771-2.685,5.106c-5.12,1.931-8.389,6.27-12.453,9.572c-1.338,1.04-2.798,1.956-3.992,3.14
		c-8.052,7.977-16.237,15.833-24.008,24.075c-8.342,8.848-16.644,17.755-24.199,27.314c-2.208,2.317-4.514,4.57-5.161,7.906
		c-0.818,3.937-2.955,3.717-5.634,1.788C216.344,278.539,212.336,272.146,209.665,265.06z"/>
	<path fill-rule="evenodd" clip-rule="evenodd" fill="#978212" d="M298.447,304.71c3.549-4.545,7.383-8.815,12.033-12.276
		C306.469,296.525,302.457,300.618,298.447,304.71z"/>
	<path fill-rule="evenodd" clip-rule="evenodd" fill="#453A04" d="M262.836,186.088c-0.37-0.024-0.74-0.049-1.111-0.074
		C262.096,186.039,262.466,186.064,262.836,186.088z"/>
	<path fill-rule="evenodd" clip-rule="evenodd" fill="#E4CB43" d="M230.835,275.401c7.555-9.559,15.857-18.466,24.199-27.314
		c7.771-8.243,15.957-16.099,24.008-24.075c1.194-1.185,2.654-2.1,3.99-3.138c0.103,1.474,1.183,2.151,2.263,2.874
		c3.063,2.045,6.263,3.93,9.098,6.256c2.678,2.196,4.997,2.29,7.519,0.041c-14.744,16.522-29.928,32.629-45.727,48.15
		c-3.949,3.881-7.746,7.918-11.647,11.85c-1.083,1.089-1.942,2.493-3.599,2.88C238.233,286.701,234.479,281.084,230.835,275.401z"/>
	<path fill-rule="evenodd" clip-rule="evenodd" fill="#553203" d="M355.084,206.539c3.371-1.706,4.485-0.526,3.753,2.958
		c-0.605,2.891-1.249,5.774-1.875,8.662c-2.006,2.371-2.425,5.41-3.351,8.211c-0.953,2.885-2.631,3.776-5.512,2.92
		c-4.084-1.213-8.201-2.324-12.318-3.42c-5.168-1.377-5.209-1.347-4.253,4.115c1.005,5.737,2.061,11.463,3.138,17.187
		c0.764,4.055-0.354,5.159-4.751,4.582c-0.416-0.298-0.831-0.594-1.247-0.892c-0.269-0.148-0.539-0.297-0.807-0.446
		c-4.197-1.296-8.44-2.47-12.58-3.937c-2.546-0.902-3.252-0.071-3.365,2.372c-0.265,5.81-0.89,11.61-0.965,17.42
		c-0.043,3.267-1.408,4.054-4.344,4.065c-4.677,0.021-9.352,0.453-14.031,0.572c-2.163,0.055-3.416,0.543-3.397,3.1
		c0.032,4.525-0.229,9.052-0.368,13.578c-0.223,1.535-0.633,3.07-0.627,4.602c0.007,3.107-1.033,4.503-4.479,4.322
		c-4.377-0.232-8.785,0.264-13.183,0.279c-1.769,0.007-2.528,0.518-2.604,2.368c-0.242,5.798-0.621,11.587-0.947,17.38
		c-1.031,6.037-1.031,6.008-7.151,5.877c-3.4-0.073-6.803-0.072-10.203-0.03c-3.957,0.049-8.924-1.249-11.594,0.651
		c-2.952,2.097-1.992,7.563-2.948,11.512c-0.133,0.551-0.192,1.117-0.285,1.676c-0.875,3.791-1.748,7.584-2.623,11.373
		c-1.583,1.168-3.149,2.424-5.243,1.06c2.599-4.376,2.313-9.489,3.62-14.196c0.968-3.98,2.134-7.924,2.838-11.951
		c0.551-3.146,2.134-4.156,5.182-4.136c6.778,0.046,13.559-0.274,20.339-0.229c3.116,0.02,4.141-1.164,3.313-4.094
		c1.018-2.984,0.713-6.15,1.252-9.195c0.676-3.824-0.895-9.123,1.965-11.148c2.729-1.932,7.611-0.957,11.55-1.015
		c7.331-0.104,7.331-0.03,7.325-7.459c0.441-4.813,0.994-9.621,1.275-14.444c0.145-2.496,1.186-3.53,3.632-3.633
		c4.69-0.201,9.372-0.736,14.062-0.781c2.854-0.027,4.02-0.858,4.047-3.871c0.051-5.543,0.733-11.085,0.699-16.623
		c-0.025-3.807,1.04-5.236,4.943-4.17c4.104,1.12,8.295,1.928,12.446,2.874c1.087,0.666,2.35,1.644,3.491,0.847
		c1.227-0.855,0.369-2.396,0.172-3.576c-1.01-6.019-2.2-12.005-3.186-18.026c-0.654-3.996,0.813-5.185,4.565-4.085
		c5.173,1.517,10.371,2.952,15.563,4.409c1.502,0.421,3.278,1.127,3.947-1.006C351.701,217.62,354.552,212.434,355.084,206.539z"/>
	<path fill-rule="evenodd" clip-rule="evenodd" fill="#C8AB1A" d="M328.668,250.861c0.416,0.297,0.831,0.594,1.247,0.892
		c-0.364,3.489,1.512,6.345,2.663,9.405c-2.76,2.798-5.521,5.595-8.281,8.393c-0.264,0.188-0.527,0.377-0.792,0.565
		c-0.394,0.4-0.788,0.8-1.181,1.2c-0.922,0.383-1.576,1.038-1.979,1.95c-0.89,0.908-1.778,1.817-2.671,2.726
		c-0.721,0.65-1.441,1.303-2.162,1.954c-5.595,5.595-11.189,11.188-16.785,16.786c-3.307-2.381-6.611-4.764-9.917-7.146
		c0.14-4.526,0.401-9.053,0.369-13.578c-0.019-2.557,1.234-3.045,3.397-3.1c4.68-0.119,9.354-0.551,14.031-0.572
		c2.936-0.012,4.301-0.799,4.344-4.065c0.075-5.81,0.7-11.61,0.965-17.42c0.113-2.443,0.819-3.274,3.365-2.372
		c4.14,1.467,8.383,2.641,12.58,3.937C328.129,250.564,328.399,250.713,328.668,250.861z"/>
	<path fill-rule="evenodd" clip-rule="evenodd" fill="#985C11" d="M355.084,206.539c-0.532,5.895-3.383,11.081-5.119,16.605
		c-0.669,2.134-2.445,1.427-3.947,1.006c-5.192-1.457-10.391-2.892-15.563-4.409c-3.752-1.1-5.22,0.089-4.565,4.085
		c0.985,6.021,2.176,12.008,3.186,18.026c0.197,1.18,1.055,2.721-0.172,3.576c-1.142,0.797-2.404-0.181-3.491-0.849
		c-3.391-6.07-7.415-11.633-12.862-16.056c10.748-12.295,21.139-24.88,30.965-37.927c1.508-2.001,2.594-1.78,3.673,0.385
		C349.781,196.187,352.445,201.356,355.084,206.539z"/>
	<path fill-rule="evenodd" clip-rule="evenodd" fill="#BE7213" d="M312.549,228.525c5.447,4.423,9.472,9.986,12.862,16.056
		c-4.151-0.944-8.343-1.752-12.446-2.872c-3.903-1.065-4.969,0.363-4.943,4.17c0.034,5.538-0.648,11.08-0.699,16.623
		c-0.027,3.013-1.192,3.844-4.047,3.871c-4.689,0.045-9.371,0.58-14.062,0.781c-2.446,0.103-3.487,1.137-3.632,3.633
		c-0.281,4.823-0.834,9.631-1.275,14.446c-5.303-3.056-10.602-6.114-15.902-9.172C283.119,260.215,297.834,244.37,312.549,228.525z"
		/>
	<path fill-rule="evenodd" clip-rule="evenodd" fill="#978212" d="M332.578,261.158c-1.151-3.061-3.027-5.916-2.663-9.405
		c4.396,0.577,5.515-0.527,4.751-4.582c-1.077-5.724-2.133-11.45-3.138-17.187c-0.956-5.462-0.915-5.493,4.253-4.115
		c4.117,1.097,8.234,2.207,12.318,3.42c2.881,0.856,4.559-0.035,5.512-2.92c0.926-2.801,1.345-5.84,3.351-8.211
		c2.268,6.184,1.974,12.754,2.841,19.147c0.168,1.23-0.898,2.024-1.768,2.746C349.557,247.095,341.066,254.124,332.578,261.158z"/>
	<path fill-rule="evenodd" clip-rule="evenodd" fill="#DC9F53" d="M268.404,276.062c5.301,3.058,10.6,6.116,15.902,9.172
		c0.006,7.427,0.006,7.353-7.325,7.457c-3.938,0.058-8.821-0.917-11.55,1.015c-2.859,2.025-1.289,7.324-1.965,11.148
		c-0.539,3.045-0.234,6.211-1.252,9.195c-5.803-5.165-12.784-8.671-18.894-13.406C251.25,292.008,259.932,284.141,268.404,276.062z"
		/>
	<path fill-rule="evenodd" clip-rule="evenodd" fill="#C8AB1A" d="M234.79,336.223c0.093-0.559,0.151-1.125,0.285-1.676
		c0.956-3.949-0.004-9.415,2.948-11.512c2.67-1.9,7.638-0.603,11.594-0.651c3.4-0.042,6.802-0.043,10.203,0.03
		c6.12,0.131,6.12,0.16,7.152-5.877c3.009,1.134,6.048,2.212,8.401,4.557c-4.23,5.319-8.459,10.639-12.691,15.957
		c-0.195,0.28-0.39,0.563-0.584,0.844c-1.086,1.261-2.174,2.519-3.258,3.779c-2.098-0.994-4.405-0.824-6.608-1.222
		C246.339,339.387,240.101,339.687,234.79,336.223z"/>
	<path fill-rule="evenodd" clip-rule="evenodd" fill="#BE7213" d="M243.321,300.643c6.109,4.735,13.091,8.241,18.894,13.406
		c0.828,2.93-0.196,4.113-3.313,4.094c-6.78-0.045-13.561,0.275-20.339,0.229c-3.048-0.021-4.63,0.989-5.182,4.136
		c-0.705,4.027-1.871,7.971-2.838,11.951c-6.12-0.979-11.036-4.264-15.637-8.156C224.378,317.748,233.851,309.197,243.321,300.643z"
		/>
	<path fill-rule="evenodd" clip-rule="evenodd" fill="#E4CB43" d="M275.373,321.094c-2.354-2.345-5.393-3.423-8.401-4.557
		c0.325-5.793,0.704-11.582,0.946-17.38c0.076-1.851,0.836-2.361,2.604-2.368c4.397-0.016,8.806-0.512,13.183-0.279
		c3.445,0.181,4.485-1.215,4.479-4.322c-0.006-1.531,0.404-3.066,0.627-4.602c3.305,2.383,6.609,4.766,9.916,7.146
		c-6.659,7.577-13.316,15.156-19.973,22.734c0.002-0.005-0.23,0.031-0.23,0.031l0.045,0.232
		C277.504,318.853,276.438,319.973,275.373,321.094z"/>
	<path fill-rule="evenodd" clip-rule="evenodd" fill="#985C11" d="M214.907,326.303c4.601,3.893,9.517,7.178,15.637,8.156
		c-1.306,4.707-1.021,9.82-3.62,14.196c-7.72-1.764-15.356-3.788-22.681-6.856c-5.222-2.187-5.192-2.183-0.958-5.642
		C207.219,332.945,211.038,329.592,214.907,326.303z"/>
	<path fill-rule="evenodd" clip-rule="evenodd" fill="#C8AB1A" d="M301.912,230.045c-2.521,2.25-4.841,2.156-7.519-0.041
		c-2.835-2.326-6.034-4.21-9.098-6.256c-1.08-0.723-2.16-1.4-2.263-2.874c4.066-3.305,7.335-7.644,12.455-9.574
		c3.815,2.614,7.522,5.412,11.485,7.783c2.944,1.761,2.599,3.117,0.158,4.798c0.001,0.001,0.073-0.075,0.073-0.075
		c-0.615,1.344-1.493,2.434-2.902,3.012c-0.354,0.555-0.711,1.11-1.066,1.665C302.795,229.004,302.354,229.524,301.912,230.045z"/>
	<path fill-rule="evenodd" clip-rule="evenodd" fill="#978212" d="M234.79,336.223c5.311,3.464,11.549,3.164,17.442,4.229
		c2.203,0.397,4.51,0.228,6.608,1.222c-3.475,7.188-6.356,8.982-13.953,8.527c-3.253-0.195-6.499-0.563-9.746-0.871
		c-1.247-0.119-2.661,0.002-2.975-1.734C233.042,343.807,233.916,340.014,234.79,336.223z"/>
	<path fill-rule="evenodd" clip-rule="evenodd" fill="#C8AB1A" d="M230.835,275.401c3.643,5.683,7.397,11.3,10.104,17.523
		c-5.543,6.953-5.521,6.939-9.818-0.551c-1.756-3.059-3.629-6.049-5.448-9.069C226.321,279.972,228.627,277.719,230.835,275.401z"/>
	<path fill-rule="evenodd" clip-rule="evenodd" fill="#978212" d="M320.345,273.267c0.403-0.912,1.058-1.567,1.979-1.95
		C321.949,272.256,321.279,272.896,320.345,273.267z"/>
	<path fill-rule="evenodd" clip-rule="evenodd" fill="#978212" d="M315.512,277.946c0.721-0.651,1.441-1.304,2.162-1.954
		C317.329,277.058,316.583,277.682,315.512,277.946z"/>
	<path fill-rule="evenodd" clip-rule="evenodd" fill="#E4CB43" d="M303.236,228.483c0.355-0.555,0.712-1.11,1.066-1.665
		C304.272,227.581,303.854,228.096,303.236,228.483z"/>
	<polygon fill-rule="evenodd" clip-rule="evenodd" fill="#E4CB43" points="307.205,223.806 307.132,223.881 307.336,223.984 	"/>
	<path fill-rule="evenodd" clip-rule="evenodd" fill="#978212" d="M323.505,270.116c0.265-0.188,0.528-0.377,0.792-0.565
		C324.033,269.739,323.77,269.928,323.505,270.116z"/>
	<polygon fill-rule="evenodd" clip-rule="evenodd" fill="#C8AB1A" points="278.568,317.73 278.523,317.498 278.754,317.467 	"/>
	<path fill-rule="evenodd" clip-rule="evenodd" fill="#978212" d="M262.098,337.895c0.194-0.281,0.389-0.563,0.584-0.844
		C262.486,337.331,262.292,337.613,262.098,337.895z"/>
	<path fill-rule="evenodd" clip-rule="evenodd" fill="#E4CB43" d="M190.619,196.675c0.609-8.662,5.778-14.278,12.564-18.814
		c1.592,1.939,3.872,2.817,6.017,3.904c11.51,5.834,23.018,11.671,34.526,17.508c-1.313,1.349-2.626,2.698-3.934,4.043
		c-0.239,0.234-0.48,0.47-0.722,0.707c-6.743,6.642-13.488,13.284-20.233,19.926c-0.819-1.148-1.675-2.272-2.45-3.451
		c-4.619-7.023-7.5-14.94-11.439-22.315c-3.846-7.198-6.301-7.795-12.729-2.909C191.655,195.702,191.151,196.206,190.619,196.675z"
		/>
	<path fill-rule="evenodd" clip-rule="evenodd" fill="#16E01A" d="M276.718,218.475c-6.02,6.049-11.929,12.213-18.087,18.118
		c-8.638,8.279-16.39,17.359-24.348,26.258c-2.083,2.328-4.325,4.513-6.493,6.763c-2.844-5.219-5.253-10.69-8.938-15.425
		c0.048-0.705,0.1-1.412,0.145-2.117c0.258-4.08,1.698-6.029,6.429-5.075c4.242,0.857,9.599,2.604,12.848,0.145
		c3.126-2.368,1.464-7.98,2.317-12.099c0.826-3.987-0.825-9.293,2.272-11.727c2.845-2.234,7.68-0.215,11.63-0.032
		c8.526,0.394,8.512,0.471,8.631-8.207c0.019-1.274,0.182-2.546,0.276-3.817C268.586,212.286,272.525,215.615,276.718,218.475z"/>
	<path fill-rule="evenodd" clip-rule="evenodd" fill="#E04B14" d="M258.634,207.848c0.21,2.688,0.3,5.391,0.668,8.058
		c0.386,2.8-0.843,3.43-3.363,3.229c-3.254-0.258-6.53-0.283-9.798-0.325c-8.445-0.104-7.33-1.456-8.603,7.467
		c-0.663,4.64-1.195,9.31-1.504,13.986c-0.199,3.005-1.432,3.919-4.314,3.377c-4.16-0.781-8.534-0.35-12.507-2.198
		c4.43-3.071,3.115-7.193,2.071-11.267c7.184-8.536,15.249-16.211,23.32-23.88c0.215-0.184,0.431-0.369,0.646-0.554
		c1.016-1.011,2.031-2.022,3.046-3.032c0.34-0.164,0.68-0.327,1.021-0.491c0.167-0.146,0.356-0.249,0.57-0.306
		C252.497,204.342,256.301,205.01,258.634,207.848z"/>
	<path fill-rule="evenodd" clip-rule="evenodd" fill="#C8AB1A" d="M243.726,199.273c-11.509-5.836-23.017-11.673-34.526-17.508
		c-2.145-1.087-4.424-1.965-6.017-3.904c9.93-4.387,19.794-4.543,29.614,0.372c6.741,3.375,13.518,6.676,20.254,10.06
		c1.096,0.549,3.174,0.672,1.78,2.852C251.13,193.854,247.427,196.563,243.726,199.273z"/>
	<path fill-rule="evenodd" clip-rule="evenodd" fill="#EFE19B" d="M190.619,196.675c0.532-0.469,1.037-0.973,1.6-1.401
		c6.428-4.886,8.883-4.29,12.729,2.909c3.939,7.375,6.82,15.292,11.439,22.315c0.775,1.179,1.63,2.303,2.45,3.451
		c-2.603,4.202-5.783,7.953-9.077,11.616c-3.796-7.766-7.441-15.611-11.447-23.267c-2.551-4.879-4.125-10.293-7.778-14.583
		C190.563,197.369,190.591,197.021,190.619,196.675z"/>
	<path fill-rule="evenodd" clip-rule="evenodd" fill="#11A613" d="M276.718,218.475c-4.192-2.86-8.132-6.189-13.318-7.216
		c-1.007-8.847-1.005-8.841,7.662-10.07c1.39-0.196,2.769-0.471,4.153-0.709c4.357,1.548,6.762,5.422,9.912,8.395
		c1.203,1.134,0.662,2.292-0.498,3.224C281.988,214.219,279.355,216.35,276.718,218.475z"/>
	<path fill-rule="evenodd" clip-rule="evenodd" fill="#E4CB43" d="M190.535,197.715c3.653,4.291,5.227,9.705,7.778,14.583
		c4.006,7.656,7.65,15.501,11.447,23.267c-1.186,2.312-2.325,4.661-4.74,6c-4.757-11.924-10.283-23.535-14.395-35.726
		C189.678,203.031,189.193,200.442,190.535,197.715z"/>
	<path fill-rule="evenodd" clip-rule="evenodd" fill="#11A613" d="M218.852,254.189c3.685,4.734,6.094,10.206,8.938,15.425
		c-0.061,0.13-0.11,0.265-0.182,0.386c-1.301,2.163-2.314,5.361-4.956,5.313c-2.245-0.041-2.567-3.377-3.652-5.296
		c-1.119-1.975-2.045-4.058-3.055-6.094C216.916,260.678,217.883,257.435,218.852,254.189z"/>
	<path fill-rule="evenodd" clip-rule="evenodd" fill="#B73D0E" d="M217.555,241.838c-1.179,4.226-2.511,8.416-3.49,12.687
		c-0.827,3.612-2.143,3.368-4.396,1.121c-5.267-5.252-4.321-7.38-0.295-10.857c1.283-1.108,2.352-2.461,3.52-3.704
		C214.281,242.372,216.122,240.849,217.555,241.838z"/>
	<path fill-rule="evenodd" clip-rule="evenodd" fill="#B73D0E" d="M258.634,207.848c-2.333-2.838-6.137-3.506-8.748-5.935
		c3.313-3.567,8.163-4.928,11.715-8.295c1.723-1.632,3.754,0.972,5.65,1.657c-0.156,0.428-0.207,0.862-0.339,0.889
		C257.652,197.978,257.651,197.976,258.634,207.848z"/>
	<path fill-rule="evenodd" clip-rule="evenodd" fill="#DC9F53" d="M217.555,241.838c-1.434-0.989-3.274,0.534-4.661-0.754
		c2.797-3.636,5.592-7.272,8.39-10.909c1.044,4.073,2.358,8.195-2.071,11.267C218.657,241.574,218.107,241.707,217.555,241.838z"/>
	<path fill-rule="evenodd" clip-rule="evenodd" fill="#C8AB1A" d="M239.07,204.023c0.242-0.237,0.483-0.473,0.722-0.707
		C239.548,203.555,239.309,203.788,239.07,204.023z"/>
	<path fill-rule="evenodd" clip-rule="evenodd" fill="#B73D0E" d="M249.316,202.219c-0.341,0.164-0.681,0.327-1.021,0.491
		C248.637,202.546,248.977,202.383,249.316,202.219z"/>
	<path fill-rule="evenodd" clip-rule="evenodd" fill="#B73D0E" d="M245.25,205.742c-0.215,0.185-0.431,0.37-0.646,0.554
		C244.82,206.111,245.035,205.926,245.25,205.742z"/>
	<path fill-rule="evenodd" clip-rule="evenodd" fill="#978212" d="M328.668,250.861c-0.269-0.148-0.539-0.297-0.807-0.446
		C328.129,250.564,328.399,250.713,328.668,250.861z"/>
</g>
<path fill="none" stroke="#212222" stroke-width="14" stroke-miterlimit="10" d="M230.498,301.807c0,0-68.789-97.457-37.834-125.425
	c30.957-27.969,122.141,36.844,122.141,36.844s20.727-21.301,28.234-33.835c7.506-12.534,27.206,56.916,27.206,56.916
	s-71.117,67.433-113.695,120.893c0,0-122.589,2.921-39.346-41.797C217.204,315.402,226.988,308.623,230.498,301.807z"/>
<path fill="#212222" d="M233.835,299.674"/>
<path fill="#212222" d="M233.825,298.216c0,0,57.916-52.015,75.404-82.673c17.49-30.658,9.029,6.382,9.029,6.382
	s-82.668,90.588-92.475,90.966"/>
<path fill="#212222" d="M206.384,175.625c0,0,65.646,9.944,103.388,46.389c0,0,5.648-1.218-3.109-10.521
	c-8.76-9.303-97.728-48.207-103.744-38.101"/>
<path fill="#212222" d="M199.946,339.184c0,0,127.067-113.972,144.945-149.85c0,0,8.115-7.735,3.131-8.839
	c0,0-155.614,169.812-159.515,158.425c-3.901-11.387-0.18,0.969-0.18,0.969s15.126,14.076,67.568,19.826l-1.661-8.566
	C254.235,351.148,193.951,343.159,199.946,339.184z"/>
<path fill="#212222" d="M249.968,351.225c0,0,53.2-63.297,56.624-64.359c3.425-1.062,18.627-21.432,53.211-49.56
	c0,0-7.13-44.642-15.719-51.944c0,0,4.254,0.133,11.563,4.888l13.343,51.193c0,0-107.313,117.606-112.44,115.757
	C251.422,355.351,249.968,351.225,249.968,351.225z"/>
</svg>
