<?xml version="1.0" encoding="utf-8"?>
<!-- Generator: Adobe Illustrator 16.0.0, SVG Export Plug-In . SVG Version: 6.00 Build 0)  -->
<!DOCTYPE svg PUBLIC "-//W3C//DTD SVG 1.1//EN" "http://www.w3.org/Graphics/SVG/1.1/DTD/svg11.dtd">
<svg version="1.1" id="Layer_1" xmlns="http://www.w3.org/2000/svg" xmlns:xlink="http://www.w3.org/1999/xlink" x="0px" y="0px"
	 width="512px" height="512px" viewBox="0 0 512 512" enable-background="new 0 0 512 512" xml:space="preserve">
<g>
	<path fill="none" stroke="#000000" stroke-width="14" stroke-miterlimit="10" d="M155.173,62.195
		c4.681,2.924,9.37,5.836,14.038,8.784c0.988,0.623,1.751,1.344,2.863,0.012c4.628-5.549,9.446-10.944,14.013-16.542
		c4.201-5.151,8.032-10.609,12.29-15.711c3.715-4.453,6.376-4.021,9.417,1.314c4.085,7.174,6.833,14.968,9.893,22.593
		c3.01,7.498,5.572,15.189,6.863,23.226c0.829,5.162,0.119,9.51-4.067,13.491c-14.261,13.564-28.741,26.874-43.559,39.824
		c-3.313,2.895-6.305,6.156-9.442,9.249c-4.651,3.461-8.484,7.731-12.034,12.276c-10.339,12.368-20.708,24.713-31.001,37.12
		c-2.796,3.37-5.413,6.893-8.032,10.404c-2.046,2.743-3.896,3.871-7.991,3.117c-7.871-1.45-16.066-1.019-24.07-1.898
		c-11.207-1.231-22.624-1.884-32.676-7.963c-5.314-3.213-5.582-5.274-1.248-9.744c2.968-3.061,5.968-6.092,8.922-9.165
		c2.206-2.298,4.483-4.271,8.027-4.055c1.614,0.097,2.878-1.017,4-2.175c4.546-4.699,9.065-9.426,13.711-14.024
		c1.717-1.7,1.788-3.107,0.591-5.192c-3.021-5.264-5.778-10.681-8.64-16.039c2.68,1.929,4.816,2.149,5.633-1.791
		c1.819,3.02,3.692,6.01,5.448,9.069c4.298,7.49,4.275,7.504,9.819,0.55c1.656-0.386,2.516-1.791,3.598-2.879
		c3.901-3.933,7.698-7.969,11.647-11.85c15.799-15.522,30.982-31.628,45.726-48.15c0.441-0.521,0.883-1.041,1.325-1.562
		c0.618-0.387,1.036-0.903,1.066-1.667c1.41-0.576,2.288-1.667,2.903-3.01l0.13,0.178l-0.206-0.104
		c2.442-1.681,2.789-3.036-0.156-4.797c-3.963-2.371-7.67-5.168-11.486-7.783C154.082,65.965,154.999,64.276,155.173,62.195z
		 M135.569,173.731l0.183-0.263c6.659-7.579,13.316-15.159,19.975-22.739c5.596-5.594,11.191-11.188,16.786-16.783
		c1.071-0.264,1.817-0.889,2.163-1.953c0.891-0.909,1.78-1.818,2.669-2.727c0.935-0.371,1.604-1.01,1.979-1.95
		c0.394-0.401,0.788-0.8,1.181-1.201c0.264-0.189,0.529-0.377,0.792-0.565c2.761-2.798,5.522-5.595,8.282-8.392
		c8.488-7.035,16.979-14.063,25.457-21.108c0.869-0.722,1.936-1.516,1.767-2.746c-0.866-6.393-0.573-12.963-2.84-19.147
		c0.626-2.887,1.27-5.771,1.875-8.662c0.732-3.484-0.382-4.663-3.753-2.958c-2.638-5.183-5.302-10.352-7.897-15.556
		c-1.079-2.165-2.165-2.387-3.672-0.385c-9.826,13.047-20.217,25.632-30.965,37.927c-14.714,15.845-29.429,31.69-44.145,47.536
		c-8.473,8.079-17.155,15.946-25.083,24.582c-9.471,8.554-18.943,17.105-28.415,25.66c-3.869,3.29-7.688,6.642-11.622,9.854
		c-4.233,3.459-4.263,3.455,0.958,5.642c7.324,3.068,14.961,5.093,22.68,6.854c2.095,1.368,3.661,0.112,5.243-1.056
		c0.314,1.736,1.728,1.614,2.975,1.734c3.248,0.309,6.493,0.675,9.746,0.871c7.597,0.456,10.478-1.339,13.951-8.529
		c1.086-1.259,2.173-2.517,3.259-3.777c0.195-0.281,0.389-0.563,0.584-0.844c4.232-5.318,8.461-10.638,12.691-15.958
		C133.438,175.972,134.504,174.853,135.569,173.731z"/>
	<path fill="#4F2005" d="M119.835,42.088c5.228,2.702,10.457,5.403,15.687,8.105c-2.446,1.389-3.033,3.754-3.307,6.286
		c-1.385,0.238-2.764,0.513-4.153,0.709c-8.667,1.229-8.668,1.223-7.662,10.068c-0.095,1.272-0.258,2.545-0.276,3.819
		c-0.119,8.678-0.104,8.601-8.631,8.207c-3.95-0.183-8.785-2.202-11.63,0.032c-3.098,2.434-1.446,7.74-2.272,11.727
		c-0.853,4.119,0.81,9.731-2.317,12.099c-3.25,2.459-8.606,0.713-12.848-0.145c-4.73-0.954-6.171,0.996-6.429,5.075
		c-0.045,0.706-0.097,1.412-0.145,2.117c-0.968,3.245-1.936,6.488-2.905,9.732c-2.404-1.332-4.462-0.754-6.282,1.138
		c-2.66-5.355-5.318-10.71-7.979-16.066c1.504-2.299,2.651-4.758,3.335-7.427c2.415-1.339,3.554-3.688,4.74-6
		c3.294-3.663,6.475-7.415,9.079-11.618c6.744-6.641,13.488-13.283,20.231-19.925c0.239-0.235,0.478-0.468,0.717-0.704
		c1.313-1.348,2.625-2.698,3.938-4.046c3.702-2.709,7.404-5.419,11.106-8.128c2.314-1.719,4.629-3.438,6.942-5.156l-0.049,0.025
		C119.096,42.039,119.466,42.064,119.835,42.088z M69.894,97.084c-1.167,1.242-2.236,2.595-3.519,3.703
		c-4.025,3.477-4.971,5.605,0.295,10.857c2.252,2.248,3.569,2.491,4.396-1.121c0.979-4.271,2.311-8.461,3.49-12.687
		c0.552-0.131,1.102-0.264,1.652-0.395c3.979,1.847,8.352,1.416,12.512,2.197c2.882,0.542,4.115-0.372,4.314-3.377
		c0.31-4.676,0.841-9.346,1.504-13.986c1.272-8.922,0.157-7.571,8.603-7.467c3.268,0.042,6.544,0.067,9.798,0.325
		c2.521,0.201,3.749-0.428,3.363-3.229c-0.368-2.667-0.458-5.37-0.668-8.058c-0.982-9.873-0.981-9.87,8.279-11.684
		c0.132-0.026,0.183-0.46,0.339-0.889c-1.896-0.686-3.928-3.289-5.651-1.657c-3.552,3.367-8.402,4.728-11.715,8.295
		c-0.213,0.058-0.403,0.16-0.57,0.306c-0.34,0.164-0.68,0.327-1.02,0.491c-1.015,1.01-2.031,2.021-3.046,3.032
		c-0.215,0.185-0.43,0.369-0.646,0.555c-8.072,7.667-16.137,15.343-23.321,23.879C75.486,89.812,72.691,93.448,69.894,97.084z"/>
	<path fill="#453A04" d="M62.02,97.566c-0.684,2.669-1.831,5.128-3.335,7.427c-6.014-13.301-12.25-26.507-17.983-39.927
		c-5.242-12.27,1.342-27.241,13.88-34.804c13.738-8.288,26.915-7.429,40.517,0.094c7.685,4.251,15.77,7.779,23.675,11.633
		c-2.313,1.718-4.628,3.437-6.943,5.155c1.394-2.179-0.684-2.302-1.78-2.852c-6.737-3.384-13.514-6.685-20.254-10.06
		c-9.82-4.915-19.685-4.759-29.613-0.372c-6.787,4.535-11.956,10.152-12.565,18.813c-0.028,0.346-0.056,0.693-0.084,1.04
		c-1.342,2.728-0.857,5.316,0.09,8.125C51.737,74.031,57.263,85.642,62.02,97.566z"/>
	<path fill="#0B4C07" d="M66.665,121.06c1.82-1.892,3.878-2.469,6.28-1.136c1.009,2.037,1.936,4.119,3.055,6.095
		c1.085,1.918,1.408,5.254,3.652,5.295c2.642,0.047,3.655-3.15,4.956-5.314c0.072-0.121,0.121-0.255,0.182-0.385
		c2.167-2.25,4.41-4.435,6.493-6.763c7.958-8.899,15.71-17.979,24.349-26.258c6.158-5.905,12.067-12.069,18.086-18.118
		c2.637-2.125,5.271-4.256,7.912-6.376c1.16-0.932,1.701-2.09,0.498-3.224c-3.151-2.972-5.555-6.847-9.914-8.395
		c0.275-2.532,0.862-4.897,3.308-6.286c6.55,3.999,13.101,8,19.651,12c-0.174,2.082-1.091,3.771-2.685,5.106
		c-5.12,1.931-8.388,6.27-12.453,9.572c-1.337,1.04-2.797,1.956-3.991,3.14c-8.052,7.977-16.238,15.833-24.009,24.075
		c-8.342,8.848-16.644,17.755-24.199,27.314c-2.208,2.317-4.514,4.57-5.161,7.906c-0.818,3.937-2.955,3.717-5.634,1.788
		C73.344,134.539,69.336,128.146,66.665,121.06z"/>
	<path fill="#978212" d="M155.447,160.71c3.55-4.545,7.383-8.815,12.034-12.276C163.468,152.525,159.458,156.618,155.447,160.71z"/>
	<path fill="#453A04" d="M119.835,42.088c-0.37-0.024-0.74-0.049-1.11-0.074C119.096,42.039,119.466,42.064,119.835,42.088z"/>
	<path fill="#E4CB43" d="M87.835,131.401c7.555-9.559,15.857-18.466,24.199-27.314c7.771-8.243,15.957-16.099,24.009-24.075
		c1.194-1.185,2.654-2.1,3.989-3.138c0.103,1.474,1.183,2.151,2.263,2.874c3.063,2.045,6.262,3.93,9.098,6.256
		c2.678,2.196,4.997,2.29,7.518,0.041c-14.744,16.522-29.927,32.628-45.726,48.15c-3.949,3.881-7.746,7.917-11.647,11.85
		c-1.083,1.088-1.942,2.493-3.599,2.879C95.233,142.702,91.479,137.084,87.835,131.401z"/>
	<path fill="#553203" d="M212.083,62.539c3.371-1.706,4.486-0.526,3.753,2.958c-0.605,2.891-1.249,5.774-1.875,8.662
		c-2.006,2.371-2.424,5.41-3.351,8.211c-0.954,2.885-2.63,3.776-5.511,2.92c-4.085-1.213-8.202-2.324-12.318-3.42
		c-5.169-1.377-5.21-1.347-4.253,4.115c1.005,5.737,2.061,11.463,3.138,17.187c0.763,4.055-0.355,5.159-4.751,4.582
		c-0.416-0.298-0.831-0.594-1.247-0.892c-0.269-0.148-0.539-0.297-0.806-0.446c-4.198-1.296-8.441-2.47-12.581-3.937
		c-2.546-0.902-3.252-0.071-3.365,2.372c-0.265,5.81-0.89,11.61-0.965,17.42c-0.043,3.267-1.408,4.054-4.343,4.065
		c-4.677,0.021-9.352,0.454-14.032,0.572c-2.163,0.055-3.416,0.543-3.397,3.1c0.032,4.525-0.229,9.052-0.368,13.579
		c-0.223,1.534-0.633,3.069-0.627,4.601c0.007,3.107-1.033,4.503-4.479,4.322c-4.377-0.232-8.785,0.264-13.182,0.28
		c-1.769,0.006-2.528,0.518-2.604,2.368c-0.242,5.797-0.622,11.587-0.948,17.379c-1.031,6.038-1.031,6.009-7.151,5.877
		c-3.4-0.073-6.803-0.072-10.203-0.03c-3.957,0.049-8.924-1.249-11.594,0.651c-2.952,2.097-1.992,7.563-2.948,11.513
		c-0.133,0.55-0.192,1.117-0.285,1.675c-0.875,3.791-1.748,7.583-2.623,11.373c-1.583,1.169-3.149,2.425-5.243,1.06
		c2.599-4.376,2.313-9.49,3.62-14.196c0.968-3.98,2.134-7.924,2.838-11.951c0.551-3.147,2.134-4.156,5.182-4.136
		c6.778,0.046,13.559-0.274,20.339-0.229c3.116,0.02,4.14-1.164,3.312-4.094c1.018-2.985,0.713-6.15,1.252-9.195
		c0.676-3.824-0.894-9.123,1.966-11.149c2.728-1.932,7.611-0.957,11.549-1.014c7.332-0.105,7.332-0.031,7.326-7.459
		c0.441-4.813,0.994-9.621,1.274-14.444c0.145-2.497,1.186-3.53,3.632-3.633c4.69-0.2,9.373-0.736,14.061-0.78
		c2.855-0.027,4.02-0.859,4.047-3.872c0.051-5.543,0.733-11.085,0.699-16.623c-0.025-3.807,1.041-5.236,4.944-4.17
		c4.103,1.12,8.294,1.928,12.446,2.874c1.087,0.666,2.35,1.644,3.491,0.847c1.226-0.855,0.37-2.396,0.172-3.576
		c-1.01-6.019-2.201-12.005-3.187-18.026c-0.654-3.996,0.814-5.185,4.566-4.085c5.173,1.517,10.371,2.952,15.563,4.409
		c1.503,0.421,3.279,1.127,3.948-1.006C208.701,73.62,211.552,68.434,212.083,62.539z"/>
	<path fill="#C8AB1A" d="M185.668,106.861c0.416,0.297,0.831,0.594,1.247,0.892c-0.365,3.489,1.512,6.345,2.664,9.406
		c-2.76,2.797-5.521,5.594-8.282,8.392c-0.263,0.188-0.527,0.376-0.792,0.565c-0.394,0.4-0.788,0.8-1.181,1.201
		c-0.922,0.383-1.576,1.038-1.979,1.95c-0.89,0.908-1.779,1.817-2.671,2.726c-0.721,0.651-1.441,1.302-2.161,1.954
		c-5.595,5.595-11.19,11.188-16.786,16.786c-3.306-2.381-6.611-4.764-9.917-7.147c0.14-4.526,0.401-9.052,0.369-13.578
		c-0.018-2.557,1.234-3.045,3.397-3.1c4.68-0.118,9.354-0.55,14.032-0.572c2.935-0.012,4.3-0.799,4.343-4.065
		c0.075-5.81,0.7-11.61,0.965-17.42c0.112-2.443,0.819-3.274,3.365-2.372c4.14,1.467,8.382,2.641,12.581,3.937
		C185.129,106.564,185.399,106.713,185.668,106.861z"/>
	<path fill="#985C11" d="M212.083,62.539c-0.532,5.895-3.383,11.081-5.118,16.605c-0.669,2.134-2.445,1.427-3.948,1.006
		c-5.192-1.457-10.39-2.892-15.563-4.409c-3.752-1.1-5.22,0.089-4.566,4.085c0.986,6.021,2.177,12.008,3.187,18.026
		c0.197,1.18,1.054,2.721-0.172,3.576c-1.142,0.797-2.404-0.181-3.491-0.849c-3.391-6.07-7.416-11.633-12.862-16.056
		c10.748-12.295,21.139-24.88,30.965-37.927c1.507-2.001,2.594-1.78,3.672,0.385C206.781,52.187,209.446,57.356,212.083,62.539z"/>
	<path fill="#BE7213" d="M169.549,84.525c5.447,4.423,9.472,9.986,12.862,16.056c-4.152-0.944-8.343-1.752-12.446-2.872
		c-3.904-1.065-4.969,0.363-4.944,4.17c0.035,5.538-0.648,11.08-0.699,16.623c-0.027,3.013-1.192,3.844-4.047,3.872
		c-4.688,0.044-9.371,0.58-14.061,0.78c-2.447,0.103-3.487,1.137-3.632,3.633c-0.281,4.823-0.833,9.631-1.275,14.446
		c-5.302-3.056-10.601-6.114-15.902-9.172C140.12,116.215,154.834,100.37,169.549,84.525z"/>
	<path fill="#978212" d="M189.579,117.159c-1.152-3.061-3.028-5.917-2.664-9.406c4.396,0.577,5.515-0.527,4.751-4.582
		c-1.078-5.724-2.133-11.45-3.138-17.187c-0.957-5.462-0.916-5.493,4.253-4.115c4.117,1.097,8.233,2.207,12.318,3.42
		c2.881,0.856,4.558-0.035,5.511-2.92c0.926-2.801,1.345-5.84,3.351-8.211c2.268,6.184,1.974,12.754,2.84,19.147
		c0.169,1.23-0.898,2.024-1.767,2.746C206.557,103.095,198.066,110.124,189.579,117.159z"/>
	<path fill="#DC9F53" d="M125.404,132.062c5.301,3.058,10.6,6.116,15.902,9.172c0.007,7.426,0.007,7.352-7.325,7.457
		c-3.938,0.057-8.821-0.917-11.549,1.014c-2.859,2.026-1.29,7.325-1.966,11.149c-0.539,3.045-0.234,6.21-1.252,9.195
		c-5.802-5.165-12.784-8.671-18.893-13.406C108.25,148.007,116.931,140.14,125.404,132.062z"/>
	<path fill="#C8AB1A" d="M91.79,192.223c0.093-0.558,0.151-1.125,0.285-1.675c0.956-3.95-0.004-9.416,2.948-11.513
		c2.67-1.899,7.638-0.602,11.594-0.651c3.4-0.042,6.802-0.043,10.203,0.03c6.12,0.131,6.12,0.16,7.152-5.877
		c3.008,1.134,6.048,2.212,8.401,4.557c-4.23,5.32-8.459,10.64-12.691,15.958c-0.195,0.28-0.39,0.563-0.584,0.844
		c-1.086,1.261-2.173,2.519-3.258,3.779c-2.098-0.994-4.404-0.825-6.607-1.222C103.339,195.387,97.101,195.687,91.79,192.223z"/>
	<path fill="#BE7213" d="M100.321,156.643c6.109,4.735,13.091,8.241,18.893,13.406c0.828,2.93-0.196,4.114-3.312,4.094
		c-6.78-0.044-13.561,0.276-20.339,0.229c-3.048-0.02-4.63,0.989-5.182,4.136c-0.705,4.027-1.871,7.971-2.838,11.951
		c-6.12-0.978-11.036-4.264-15.637-8.156C81.378,173.749,90.851,165.197,100.321,156.643z"/>
	<path fill="#E4CB43" d="M132.373,177.093c-2.353-2.344-5.393-3.422-8.401-4.557c0.325-5.792,0.705-11.582,0.947-17.379
		c0.076-1.85,0.835-2.361,2.604-2.368c4.397-0.017,8.805-0.513,13.182-0.28c3.445,0.181,4.486-1.215,4.479-4.322
		c-0.005-1.532,0.404-3.067,0.627-4.601c3.305,2.382,6.61,4.765,9.916,7.146c-6.659,7.577-13.316,15.157-19.973,22.734
		c0.002-0.004-0.229,0.032-0.229,0.032l0.045,0.233C134.504,174.853,133.438,175.972,132.373,177.093z"/>
	<path fill="#985C11" d="M71.907,182.303c4.601,3.892,9.517,7.178,15.637,8.156c-1.306,4.707-1.021,9.82-3.62,14.196
		c-7.72-1.764-15.356-3.788-22.681-6.856c-5.222-2.187-5.192-2.183-0.958-5.642C64.219,188.945,68.038,185.592,71.907,182.303z"/>
	<path fill="#C8AB1A" d="M158.912,86.045c-2.521,2.25-4.84,2.156-7.518-0.041c-2.835-2.326-6.035-4.21-9.098-6.256
		c-1.08-0.723-2.16-1.4-2.263-2.874c4.067-3.305,7.335-7.644,12.455-9.574c3.816,2.614,7.523,5.412,11.486,7.783
		c2.945,1.761,2.598,3.117,0.158,4.798c0.001,0.001,0.074-0.075,0.074-0.075c-0.615,1.344-1.494,2.434-2.903,3.012
		c-0.354,0.555-0.711,1.11-1.066,1.665C159.794,85.004,159.353,85.524,158.912,86.045z"/>
	<path fill="#978212" d="M91.79,192.223c5.311,3.464,11.549,3.164,17.442,4.229c2.203,0.397,4.51,0.228,6.607,1.222
		c-3.475,7.188-6.355,8.982-13.952,8.527c-3.253-0.195-6.499-0.562-9.746-0.871c-1.247-0.12-2.661,0.002-2.975-1.734
		C90.042,199.806,90.916,196.014,91.79,192.223z"/>
	<path fill="#C8AB1A" d="M87.835,131.401c3.643,5.683,7.397,11.3,10.104,17.523c-5.543,6.953-5.521,6.939-9.818-0.551
		c-1.756-3.059-3.629-6.049-5.448-9.069C83.321,135.972,85.627,133.718,87.835,131.401z"/>
	<path fill="#978212" d="M177.345,129.267c0.403-0.912,1.057-1.567,1.979-1.95C178.949,128.256,178.28,128.896,177.345,129.267z"/>
	<path fill="#978212" d="M172.512,133.946c0.72-0.652,1.44-1.303,2.161-1.954C174.329,133.058,173.583,133.682,172.512,133.946z"/>
	<path fill="#E4CB43" d="M160.236,84.483c0.355-0.555,0.712-1.11,1.066-1.665C161.272,83.581,160.854,84.096,160.236,84.483z"/>
	<polygon fill="#E4CB43" points="164.206,79.806 164.132,79.881 164.336,79.984 	"/>
	<path fill="#978212" d="M180.505,126.116c0.264-0.189,0.529-0.377,0.792-0.565C181.034,125.739,180.769,125.927,180.505,126.116z"
		/>
	<polygon fill="#C8AB1A" points="135.569,173.731 135.524,173.498 135.753,173.466 	"/>
	<path fill="#978212" d="M119.097,193.895c0.195-0.281,0.389-0.563,0.584-0.844C119.486,193.331,119.292,193.614,119.097,193.895z"
		/>
	<path fill="#E4CB43" d="M47.619,52.675c0.609-8.662,5.778-14.278,12.564-18.814c1.592,1.939,3.872,2.817,6.017,3.904
		c11.51,5.834,23.018,11.671,34.526,17.508c-1.313,1.349-2.626,2.698-3.934,4.043c-0.239,0.234-0.48,0.47-0.722,0.707
		c-6.743,6.642-13.488,13.284-20.233,19.926c-0.819-1.148-1.675-2.272-2.45-3.451c-4.619-7.023-7.5-14.94-11.439-22.315
		c-3.846-7.198-6.301-7.795-12.729-2.909C48.655,51.702,48.151,52.206,47.619,52.675z"/>
	<path fill="#16E01A" d="M133.718,74.475c-6.02,6.049-11.928,12.213-18.086,18.118c-8.638,8.279-16.39,17.359-24.349,26.258
		c-2.083,2.329-4.325,4.513-6.493,6.763c-2.844-5.219-5.253-10.69-8.938-15.425c0.048-0.705,0.1-1.412,0.145-2.117
		c0.258-4.08,1.698-6.029,6.429-5.075c4.242,0.857,9.599,2.604,12.848,0.145c3.126-2.368,1.464-7.98,2.317-12.099
		c0.826-3.987-0.825-9.293,2.272-11.727c2.845-2.234,7.68-0.215,11.63-0.032c8.526,0.394,8.512,0.471,8.631-8.207
		c0.019-1.274,0.181-2.546,0.276-3.817C125.585,68.286,129.526,71.615,133.718,74.475z"/>
	<path fill="#E04B14" d="M115.634,63.848c0.21,2.688,0.3,5.391,0.668,8.058c0.386,2.8-0.842,3.43-3.363,3.229
		c-3.254-0.258-6.53-0.283-9.798-0.325c-8.445-0.104-7.33-1.456-8.603,7.467c-0.663,4.64-1.195,9.31-1.504,13.986
		c-0.199,3.005-1.432,3.919-4.314,3.377c-4.16-0.781-8.534-0.35-12.507-2.198c4.43-3.071,3.115-7.193,2.071-11.267
		c7.184-8.536,15.249-16.211,23.32-23.88c0.215-0.184,0.431-0.369,0.646-0.554c1.016-1.011,2.031-2.022,3.046-3.032
		c0.34-0.164,0.68-0.327,1.021-0.491c0.167-0.146,0.356-0.249,0.57-0.306C109.497,60.342,113.301,61.01,115.634,63.848z"/>
	<path fill="#C8AB1A" d="M100.726,55.273C89.217,49.437,77.709,43.6,66.199,37.765c-2.145-1.087-4.424-1.965-6.017-3.904
		c9.93-4.387,19.794-4.543,29.614,0.372c6.741,3.375,13.518,6.676,20.254,10.06c1.096,0.549,3.174,0.672,1.78,2.852
		C108.13,49.854,104.427,52.563,100.726,55.273z"/>
	<path fill="#EFE19B" d="M47.619,52.675c0.532-0.469,1.037-0.973,1.6-1.401c6.428-4.886,8.883-4.29,12.729,2.909
		c3.939,7.375,6.82,15.292,11.439,22.315c0.775,1.179,1.63,2.303,2.45,3.451c-2.603,4.202-5.783,7.953-9.077,11.616
		c-3.796-7.766-7.441-15.611-11.447-23.267c-2.551-4.879-4.125-10.293-7.778-14.583C47.563,53.369,47.591,53.021,47.619,52.675z"/>
	<path fill="#11A613" d="M133.718,74.475c-4.192-2.86-8.132-6.189-13.318-7.216c-1.006-8.847-1.004-8.841,7.662-10.07
		c1.39-0.196,2.769-0.471,4.153-0.709c4.358,1.548,6.762,5.422,9.913,8.395c1.203,1.134,0.662,2.292-0.498,3.224
		C138.988,70.219,136.355,72.35,133.718,74.475z"/>
	<path fill="#E4CB43" d="M47.535,53.715c3.653,4.291,5.227,9.705,7.778,14.583c4.006,7.656,7.65,15.501,11.447,23.267
		c-1.186,2.312-2.325,4.661-4.74,6C57.263,85.642,51.737,74.031,47.625,61.84C46.678,59.031,46.193,56.442,47.535,53.715z"/>
	<path fill="#11A613" d="M75.852,110.189c3.685,4.734,6.094,10.206,8.938,15.425c-0.061,0.13-0.11,0.264-0.182,0.385
		c-1.301,2.164-2.314,5.361-4.956,5.314c-2.245-0.041-2.567-3.377-3.652-5.295c-1.119-1.976-2.045-4.058-3.055-6.095
		C73.916,116.678,74.883,113.435,75.852,110.189z"/>
	<path fill="#B73D0E" d="M74.555,97.838c-1.179,4.226-2.511,8.416-3.49,12.687c-0.827,3.612-2.143,3.369-4.396,1.121
		c-5.267-5.252-4.321-7.38-0.295-10.857c1.283-1.108,2.352-2.461,3.52-3.704C71.281,98.372,73.122,96.849,74.555,97.838z"/>
	<path fill="#B73D0E" d="M115.634,63.848c-2.333-2.838-6.137-3.506-8.748-5.935c3.313-3.567,8.163-4.928,11.715-8.295
		c1.723-1.632,3.754,0.972,5.651,1.657c-0.156,0.428-0.208,0.862-0.339,0.889C114.652,53.978,114.651,53.976,115.634,63.848z"/>
	<path fill="#DC9F53" d="M74.555,97.838c-1.434-0.989-3.274,0.534-4.661-0.754c2.797-3.636,5.592-7.272,8.39-10.909
		c1.044,4.073,2.358,8.195-2.071,11.267C75.657,97.574,75.107,97.707,74.555,97.838z"/>
	<path fill="#C8AB1A" d="M96.07,60.023c0.242-0.237,0.483-0.473,0.722-0.707C96.548,59.555,96.309,59.788,96.07,60.023z"/>
	<path fill="#B73D0E" d="M106.316,58.219c-0.341,0.164-0.681,0.327-1.021,0.491C105.637,58.546,105.977,58.383,106.316,58.219z"/>
	<path fill="#B73D0E" d="M102.25,61.742c-0.215,0.185-0.431,0.37-0.646,0.554C101.82,62.111,102.035,61.926,102.25,61.742z"/>
	<path fill="#978212" d="M185.668,106.861c-0.269-0.148-0.539-0.297-0.806-0.446C185.129,106.564,185.399,106.713,185.668,106.861z"
		/>
</g>
<path fill="none" stroke="#212222" stroke-width="14" stroke-miterlimit="10" d="M87.498,157.807c0,0-68.789-97.457-37.834-125.425
	C80.621,4.413,171.805,69.226,171.805,69.226s20.727-21.301,28.234-33.835c7.507-12.534,27.207,56.916,27.207,56.916
	S156.128,159.739,113.55,213.2c0,0-122.589,2.92-39.346-41.797C74.204,171.403,83.988,164.623,87.498,157.807z"/>
<path fill="#212222" d="M90.835,155.673"/>
<path fill="#212222" d="M90.825,154.216c0,0,57.916-52.015,75.404-82.673c17.49-30.658,9.029,6.382,9.029,6.382
	S92.59,168.513,82.783,168.89"/>
<path fill="#212222" d="M63.384,31.625c0,0,65.645,9.944,103.387,46.389c0,0,5.648-1.218-3.109-10.521
	c-8.759-9.303-97.727-48.207-103.744-38.101"/>
<path fill="#212222" d="M56.946,195.184c0,0,127.068-113.972,144.945-149.85c0,0,8.115-7.735,3.131-8.839
	c0,0-155.614,169.812-159.515,158.425c-3.901-11.387-0.18,0.969-0.18,0.969s15.126,14.076,67.568,19.826l-1.661-8.566
	C111.235,207.148,50.951,199.159,56.946,195.184z"/>
<path fill="#212222" d="M106.968,207.225c0,0,53.2-63.297,56.624-64.359c3.424-1.062,18.626-21.432,53.21-49.561
	c0,0-7.129-44.642-15.718-51.944c0,0,4.254,0.133,11.563,4.888l13.343,51.193c0,0-107.313,117.606-112.44,115.758
	C108.422,211.351,106.968,207.225,106.968,207.225z"/>
</svg>
