<?xml version="1.0" encoding="utf-8"?>
<!-- Generator: Adobe Illustrator 16.0.0, SVG Export Plug-In . SVG Version: 6.00 Build 0)  -->
<!DOCTYPE svg PUBLIC "-//W3C//DTD SVG 1.1//EN" "http://www.w3.org/Graphics/SVG/1.1/DTD/svg11.dtd">
<svg version="1.1" id="Layer_1" xmlns="http://www.w3.org/2000/svg" xmlns:xlink="http://www.w3.org/1999/xlink" x="0px" y="0px"
	 width="512px" height="512px" viewBox="0 0 512 512" enable-background="new 0 0 512 512" xml:space="preserve">
<polygon fill="#FFFD62" stroke="#212222" stroke-width="14" stroke-miterlimit="10" points="222.992,96.691 252.275,40.785 
	206.058,61.631 172.893,21.833 172.893,69.416 97.087,26.571 120.777,96.691 92.35,73.95 106.563,107.114 55.395,125.024 
	102.773,132.699 89.507,163.287 133.321,144.069 116.914,190.5 158.679,143.122 175.735,163.504 175.735,122.275 203.093,136.409 
	198.477,106.167 "/>
<path fill="#D2B83D" d="M95,146"/>
<polygon fill="#D2B83D" points="143.518,121.802 143.518,132.225 103.247,150.387 "/>
<polyline fill="#D2B83D" points="237.327,55.636 218.376,91.959 190.896,101.751 "/>
<polyline fill="#D2B83D" points="109.774,41.422 134.321,115.648 132.832,79.957 "/>
<polygon fill="#D2B83D" points="179.842,41.422 179.842,80.904 185.211,63.849 "/>
<path fill="#D2B83D" d="M100.833,91.84"/>
<polyline fill="#D2B83D" points="115.407,110.911 115.407,106.167 108.774,97.013 "/>
</svg>
