<?xml version="1.0" encoding="utf-8"?>
<!-- Generator: Adobe Illustrator 16.0.0, SVG Export Plug-In . SVG Version: 6.00 Build 0)  -->
<!DOCTYPE svg PUBLIC "-//W3C//DTD SVG 1.1//EN" "http://www.w3.org/Graphics/SVG/1.1/DTD/svg11.dtd">
<svg version="1.1" id="Layer_1" xmlns="http://www.w3.org/2000/svg" xmlns:xlink="http://www.w3.org/1999/xlink" x="0px" y="0px"
	 width="512px" height="512px" viewBox="0 0 512 512" enable-background="new 0 0 512 512" xml:space="preserve">
<polygon fill="#FFFD62" stroke="#212222" stroke-width="14" stroke-miterlimit="10" points="336.371,240.5 367.275,181.5 
	318.5,203.5 283.5,161.5 283.5,211.716 203.5,166.5 228.5,240.5 198.5,216.5 213.5,251.5 159.5,270.401 209.5,278.5 195.5,310.781 
	241.738,290.5 224.423,339.5 268.5,289.5 286.5,311.01 286.5,267.5 315.371,282.416 310.5,250.5 "/>
<polygon fill="#D2B83D" points="252.5,267 252.5,278 210,297.168 "/>
<polyline fill="#D2B83D" points="351.5,197.173 331.5,235.506 302.5,245.84 "/>
<polyline fill="#D2B83D" points="215.833,182.173 241.738,260.506 240.167,222.84 "/>
<polygon fill="#D2B83D" points="290.834,182.173 290.834,223.84 296.5,205.84 "/>
<polyline fill="#D2B83D" points="222.833,255.506 222.833,250.5 215.833,240.84 "/>
</svg>
