<?xml version="1.0" encoding="utf-8"?>
<!-- Generator: Adobe Illustrator 16.0.0, SVG Export Plug-In . SVG Version: 6.00 Build 0)  -->
<!DOCTYPE svg PUBLIC "-//W3C//DTD SVG 1.1//EN" "http://www.w3.org/Graphics/SVG/1.1/DTD/svg11.dtd">
<svg version="1.1" id="Layer_1" xmlns="http://www.w3.org/2000/svg" xmlns:xlink="http://www.w3.org/1999/xlink" x="0px" y="0px"
	 width="512px" height="512px" viewBox="0 0 512 512" enable-background="new 0 0 512 512" xml:space="preserve">
<g opacity="0.5">
	<path fill="#1E1C1D" d="M235.405,246.748c-1.164,0.241-1.446,0.879-1.091,1.94c0.113,0.038,0.225,0.076,0.337,0.113
		C234.887,248.16,235.123,247.519,235.405,246.748z"/>
	<path fill="#1E1C1D" d="M234.743,257.748c0.374-0.433,0.706-0.9,1.05-1.355c-0.149-0.127-0.298-0.254-0.447-0.381
		c-0.403,0.458-0.815,0.909-1.198,1.383c-0.046,0.057,0.043,0.315,0.128,0.354C234.408,257.809,234.672,257.827,234.743,257.748z"/>
	<path fill="#1E1C1D" d="M236.069,253.385c-0.009-0.105-0.022-0.21-0.032-0.315c-0.254,0.026-0.623-0.044-0.737,0.094
		c-0.447,0.53-1.048,1.032-0.667,1.976C235.111,254.554,235.591,253.97,236.069,253.385z"/>
	<path fill="#1E1C1D" d="M234.33,236.563c0.078,0.117,0.158,0.232,0.239,0.35c0.52-0.482,1.042-0.964,1.613-1.492
		C235.309,235.016,234.97,235.256,234.33,236.563z"/>
	<path fill="#1E1C1D" d="M233.934,251.512c0.296-0.333,0.651-0.633,0.864-1.012c0.126-0.218,0.022-0.561,0.022-0.849
		c-0.098-0.024-0.199-0.048-0.297-0.072c-0.293,0.43-0.625,0.841-0.853,1.303C233.604,251.019,233.837,251.299,233.934,251.512z"/>
	<path fill="#1E1C1D" d="M237.248,252.77c0.452-0.47,0.903-0.941,1.474-1.539C237.708,250.942,237.146,251.511,237.248,252.77z"/>
	<path fill="#1E1C1D" d="M237.66,246.644c0.415-0.722,0.729-1.241,0.997-1.783c0.035-0.067-0.182-0.255-0.282-0.388
		c-0.387,0.478-0.791,0.945-1.141,1.445C237.188,245.981,237.405,246.222,237.66,246.644z"/>
	<path fill="#1E1C1D" d="M235.011,243.642c0.153,0.105,0.436,0.311,0.442,0.301c0.486-0.604,0.948-1.227,1.471-1.925
		c-0.208-0.091-0.504-0.264-0.532-0.228C235.912,242.392,235.464,243.02,235.011,243.642z"/>
	<path fill="#1E1C1D" d="M232.735,244.376c-0.304,0.285-0.52,0.667-0.772,1.009c0.037,0.103,0.074,0.206,0.108,0.309
		c0.26-0.058,0.619-0.034,0.752-0.192c0.263-0.311,0.401-0.724,0.589-1.095C233.18,244.39,232.85,244.271,232.735,244.376z"/>
	<path fill="#1E1C1D" d="M238.208,247.55c-0.438,0.608-0.874,1.218-1.407,1.961C237.901,249.688,238.503,248.916,238.208,247.55z"/>
	<path fill="#1E1C1D" d="M230.735,263.71c0.462,0.049,1.322-1.19,1.239-1.72c-0.153-0.135-0.307-0.268-0.46-0.402
		c-0.365,0.521-0.757,1.029-1.07,1.58C230.384,263.271,230.611,263.697,230.735,263.71z"/>
	<path fill="#1E1C1D" d="M232.219,256.818c-0.233,0.32-0.568,0.615-0.66,0.972c-0.057,0.22,0.256,0.534,0.403,0.806
		c0.151-0.086,0.305-0.171,0.459-0.255C232.355,257.833,232.286,257.325,232.219,256.818z"/>
	<path fill="#1E1C1D" d="M232.635,252.967c-0.383,0.402-0.773,0.799-1.127,1.223c-0.023,0.027,0.217,0.27,0.474,0.579
		c0.388-0.569,0.702-1.011,0.981-1.474C232.982,253.262,232.749,253.08,232.635,252.967z"/>
	<path fill="#1E1C1D" d="M234.518,261.465c-0.011-0.094-0.099-0.248-0.161-0.254c-0.16-0.014-0.399-0.017-0.477,0.078
		c-0.334,0.414-0.624,0.865-1.031,1.447C233.599,262.795,234.569,261.958,234.518,261.465z"/>
	<path fill="#1E1C1D" d="M237.55,238.434c0.473-0.579,0.891-1.094,1.41-1.731C237.761,236.656,237.121,237.49,237.55,238.434z"/>
	<path fill="#1E1C1D" d="M234.156,259.273c-0.158-0.054-0.316-0.109-0.474-0.164c-0.337,0.461-0.674,0.922-1.011,1.383
		c0.444-0.139,0.926-0.217,1.32-0.441C234.147,259.961,234.108,259.543,234.156,259.273z"/>
	<path fill="#1E1C1D" d="M231.747,242.493c-0.007,0.028,0.099,0.084,0.378,0.313c0.198-0.652,0.372-1.204,0.511-1.762
		c0.007-0.024-0.282-0.12-0.434-0.182C232.05,241.406,231.892,241.948,231.747,242.493z"/>
	<path fill="#1E1C1D" d="M230.732,246.296c-0.474,0.491-0.956,0.975-1.409,1.483c-0.052,0.058,0.012,0.334,0.085,0.364
		c0.174,0.073,0.497,0.149,0.565,0.067c0.422-0.511,0.793-1.065,1.18-1.605C231.012,246.502,230.872,246.399,230.732,246.296z"/>
	<path fill="#1E1C1D" d="M231.085,256.342c-0.08-0.116-0.163-0.233-0.245-0.349c-0.813-0.041-1.15,0.657-1.638,1.123
		c0.087,0.147,0.176,0.294,0.266,0.439C230.005,257.151,230.546,256.746,231.085,256.342z"/>
	<path fill="#1E1C1D" d="M231.399,234.431c-0.558,0.624-1.055,1.297-1.573,1.955c0.094,0.1,0.186,0.2,0.28,0.3
		c0.275-0.18,0.594-0.321,0.818-0.549c0.351-0.353,0.651-0.756,0.945-1.159c0.105-0.146,0.124-0.354,0.183-0.532
		C231.828,234.435,231.491,234.327,231.399,234.431z"/>
	<path fill="#1E1C1D" d="M230.348,238.767c-0.225,0.417-0.324,0.9-0.47,1.358c0.146,0.057,0.293,0.115,0.443,0.172
		c0.277-0.502,0.556-1.004,1.003-1.807C230.814,238.623,230.427,238.615,230.348,238.767z"/>
	<path fill="#1E1C1D" d="M229.98,251.792c0.418-0.685,0.757-1.196,1.037-1.737c0.041-0.081-0.184-0.297-0.287-0.452
		c-0.389,0.483-0.795,0.955-1.151,1.462C229.532,251.135,229.749,251.384,229.98,251.792z"/>
	<path fill="#1E1C1D" d="M233.311,240.787c0.176,0.076,0.353,0.152,0.529,0.229c0.275-0.542,0.562-1.081,0.813-1.633
		c0.037-0.082-0.076-0.325-0.142-0.335c-0.154-0.022-0.417,0.007-0.463,0.102C233.773,239.681,233.551,240.239,233.311,240.787z"/>
	<path fill="#1E1C1D" d="M221.27,249.555c-0.043-0.125-0.087-0.25-0.13-0.375c-0.309,0.144-0.748,0.207-0.898,0.447
		c-0.286,0.457-1.033,0.886-0.348,1.687C220.383,250.689,220.825,250.122,221.27,249.555z"/>
	<path fill="#1E1C1D" d="M224.464,246.575c-0.165-0.077-0.332-0.156-0.499-0.233c-0.287,0.49-0.592,0.969-0.83,1.48
		c-0.028,0.061,0.309,0.288,0.476,0.438C223.896,247.699,224.181,247.137,224.464,246.575z"/>
	<path fill="#1E1C1D" d="M220.012,247.619c0.974-0.469,1.219-0.967,0.715-1.816c-0.372,0.594-0.697,1.112-1.022,1.631
		C219.808,247.495,219.911,247.557,220.012,247.619z"/>
	<path fill="#1E1C1D" d="M221.737,254.002c-0.426,0.624-0.77,1.128-1.219,1.783C221.625,255.866,222.134,255.13,221.737,254.002z"/>
	<path fill="#1E1C1D" d="M222.837,257.66c-0.122-0.104-0.245-0.21-0.367-0.315c-0.9,0.304-1.209,1.238-1.813,1.86
		c0.154,0.133,0.307,0.267,0.46,0.4C221.691,258.957,222.264,258.309,222.837,257.66z"/>
	<path fill="#1E1C1D" d="M223.578,260.359c-0.081-0.203-0.161-0.408-0.243-0.612c-0.52,0.23-1.05,0.448-1.549,0.718
		c-0.04,0.021,0.117,0.393,0.181,0.603C222.502,260.832,223.042,260.596,223.578,260.359z"/>
	<path fill="#1E1C1D" d="M220.401,238.755c0.117,0.132,0.234,0.264,0.351,0.396c0.47-0.485,0.969-0.948,1.391-1.472
		c0.087-0.111-0.103-0.44-0.254-1.004C221.254,237.563,220.828,238.159,220.401,238.755z"/>
	<path fill="#1E1C1D" d="M218.155,239.198c0.542-0.605,1.045-1.169,1.552-1.733C218.354,237.412,217.699,238.258,218.155,239.198z"
		/>
	<path fill="#1E1C1D" d="M219.04,259.146c-0.22,0.42-0.477,0.828-0.635,1.271c-0.037,0.104,0.254,0.324,0.395,0.49
		C219.022,260.367,219.792,259.982,219.04,259.146z"/>
	<path fill="#1E1C1D" d="M222.64,242.839c-0.351,0.477-0.71,0.947-1.036,1.441c-0.025,0.042,0.193,0.239,0.44,0.534
		c0.364-0.624,0.671-1.127,0.941-1.648C223.007,243.125,222.761,242.951,222.64,242.839z"/>
	<path fill="#1E1C1D" d="M221.852,252.425c0.527-0.568,1.031-1.157,1.563-1.765c-0.119-0.17-0.181-0.35-0.273-0.365
		c-0.158-0.027-0.408-0.013-0.493,0.088c-0.413,0.49-0.793,1.009-1.16,1.533c-0.062,0.089-0.06,0.293,0.004,0.379
		C221.561,252.383,221.815,252.464,221.852,252.425z"/>
	<path fill="#1E1C1D" d="M237.623,240.876c0.388-0.64,0.713-1.182,1.041-1.722c-0.115-0.055-0.23-0.11-0.344-0.166
		C237.31,239.682,237.133,240.049,237.623,240.876z"/>
	<path fill="#1E1C1D" d="M221.096,242.288c0.362-0.584,0.674-1.086,1.061-1.709C220.995,240.657,220.562,241.379,221.096,242.288z"
		/>
	<path fill="#1E1C1D" d="M228.587,260.467c0.126-0.088,0.192-0.266,0.286-0.402c-0.087-0.123-0.174-0.248-0.261-0.371
		c-0.364,0.272-0.756,0.523-1.083,0.836c-0.085,0.083,0.021,0.362,0.039,0.551C227.909,260.879,228.262,260.692,228.587,260.467z"/>
	<path fill="#1E1C1D" d="M218.836,255.185c-0.096-0.076-0.189-0.153-0.287-0.229c-0.357,0.55-0.715,1.099-1.123,1.722
		C218.462,256.765,218.815,256.331,218.836,255.185z"/>
	<path fill="#1E1C1D" d="M225.003,252.838c-0.221-0.167-0.363-0.273-0.504-0.379c-0.303,0.408-0.626,0.802-0.885,1.235
		c-0.046,0.075,0.176,0.309,0.275,0.47C224.24,253.748,224.59,253.331,225.003,252.838z"/>
	<path fill="#1E1C1D" d="M227.121,255.211c0.953,0.362,1.833-0.393,1.847-1.762C228.37,254.019,227.773,254.588,227.121,255.211z"/>
	<path fill="#1E1C1D" d="M229.921,242.507c-1.13,0.803-1.336,1.306-0.814,2.007C230.159,243.331,230.251,243.105,229.921,242.507z"
		/>
	<path fill="#1E1C1D" d="M224.341,234.933c-0.089,0.115,0.034,0.588,0.14,0.618c0.488,0.133,1.203-0.988,0.933-1.66
		C224.994,234.284,224.618,234.572,224.341,234.933z"/>
	<path fill="#1E1C1D" d="M225.951,238.793c0.136,0.092,0.269,0.184,0.404,0.277c0.353-0.621,0.706-1.241,1.059-1.861
		c-0.119-0.072-0.239-0.144-0.36-0.216C226.28,237.329,226.105,238.054,225.951,238.793z"/>
	<path fill="#1E1C1D" d="M226.456,246.369c1.049-1.439,1.162-2.137,0.426-2.753C226.745,244.508,226.064,245.197,226.456,246.369z"
		/>
	<path fill="#1E1C1D" d="M224.785,244.15c1.022-0.322,0.876-1.298,1.163-2.038C224.937,242.458,224.872,243.309,224.785,244.15z"/>
	<path fill="#1E1C1D" d="M268.373,248.274c0.475-0.293,0.936-0.61,1.49-0.988c-0.488-0.434-0.629-0.558-0.766-0.681
		c-0.34,0.435-0.689,0.863-1.002,1.316C268.068,247.962,268.357,248.284,268.373,248.274z"/>
	<path fill="#1E1C1D" d="M227.973,249.784c-0.415,0.604-0.708,1.034-1.106,1.613C227.978,251.513,228.242,251.136,227.973,249.784z"
		/>
	<path fill="#1E1C1D" d="M226.027,259.9c0.547-0.64,1.065-1.307,1.76-2.174c-1.178,0.07-2.431,1.283-2.388,1.988
		c0.007,0.094,0.089,0.254,0.147,0.26C225.707,259.988,225.944,259.995,226.027,259.9z"/>
	<path fill="#1E1C1D" d="M251.403,267.303c0.271-0.322,0.387-0.771,0.571-1.166c-0.122-0.06-0.241-0.119-0.36-0.18
		c-0.392,0.426-0.784,0.85-1.178,1.275c0.039,0.104,0.078,0.207,0.115,0.31C250.844,267.47,251.248,267.488,251.403,267.303z"/>
	<path fill="#1E1C1D" d="M249.476,249.131c-0.53,0.548-0.907,0.94-1.366,1.416C249.059,251.08,249.474,250.675,249.476,249.131z"/>
	<path fill="#1E1C1D" d="M249.24,265.669c-0.31,0.336-0.64,0.656-0.917,1.017c-0.083,0.107-0.084,0.387-0.002,0.477
		c0.089,0.096,0.426,0.14,0.477,0.074c0.323-0.418,0.594-0.871,0.882-1.312C249.533,265.839,249.387,265.754,249.24,265.669z"/>
	<path fill="#1E1C1D" d="M250.602,254.942c-0.108-0.076-0.213-0.152-0.322-0.229c-0.524,0.75-1.048,1.5-1.654,2.365
		C249.586,257.106,250.512,255.954,250.602,254.942z"/>
	<path fill="#1E1C1D" d="M249.485,259.025c-0.348,0.46-0.712,0.908-1.024,1.391c-0.062,0.094,0.087,0.32,0.213,0.714
		c0.594-0.821,0.924-1.263,1.217-1.727C249.909,259.371,249.627,259.156,249.485,259.025z"/>
	<path fill="#1E1C1D" d="M248.77,271.25c0.229-0.266,0.392-0.604,0.519-0.935c0.068-0.185,0.002-0.421-0.003-0.636
		c-0.19,0.059-0.47,0.057-0.555,0.184c-0.371,0.545-0.683,1.128-1.017,1.696c0.086,0.087,0.176,0.175,0.263,0.263
		C248.246,271.635,248.562,271.488,248.77,271.25z"/>
	<path fill="#1E1C1D" d="M247.743,254.732c0.31-0.625,0.576-1.27,0.855-1.909c-0.183-0.081-0.368-0.16-0.552-0.239
		c-0.312,0.597-0.635,1.189-0.924,1.797c-0.042,0.085,0.051,0.323,0.136,0.356C247.404,254.794,247.709,254.802,247.743,254.732z"/>
	<path fill="#1E1C1D" d="M248.323,241.637c0.16,0.095,0.323,0.189,0.483,0.283c0.349-0.543,0.697-1.087,1.045-1.631
		c-0.181-0.095-0.359-0.19-0.541-0.286C248.98,240.548,248.651,241.093,248.323,241.637z"/>
	<path fill="#1E1C1D" d="M247.313,261.992c-0.308,0.154-0.699,0.24-0.898,0.481c-0.236,0.286-0.307,0.705-0.45,1.065
		c0.14,0.044,0.28,0.087,0.419,0.13c0.374-0.454,0.745-0.907,1.119-1.36C247.439,262.203,247.377,262.098,247.313,261.992z"/>
	<path fill="#1E1C1D" d="M249.781,245.839c-0.426,0.653-0.814,1.244-1.292,1.976C249.767,247.693,250.34,246.747,249.781,245.839z"
		/>
	<path fill="#1E1C1D" d="M250.686,243.039c-0.133-0.062-0.266-0.124-0.399-0.185c-0.357,0.449-0.715,0.897-1.073,1.347
		c0.038,0.089,0.071,0.177,0.108,0.266c0.282-0.052,0.696-0.01,0.815-0.176C250.402,243.93,250.512,243.462,250.686,243.039z"/>
	<path fill="#1E1C1D" d="M253.892,264.549c-1.116,0.468-1.299,1.117-0.646,2.236C253.484,265.963,253.663,265.346,253.892,264.549z"
		/>
	<path fill="#1E1C1D" d="M268.885,242.49c0.154,0.106,0.309,0.213,0.463,0.32c0.341-0.478,0.68-0.956,1.021-1.434
		c-0.16-0.119-0.323-0.238-0.483-0.357C269.551,241.509,269.219,242,268.885,242.49z"/>
	<path fill="#1E1C1D" d="M270.357,245.229c0.355-0.529,0.695-1.07,1.036-1.608c-0.175-0.102-0.347-0.202-0.519-0.303
		c-0.309,0.466-0.637,0.922-0.916,1.406c-0.06,0.103,0.037,0.32,0.109,0.459C270.096,245.236,270.332,245.265,270.357,245.229z"/>
	<path fill="#1E1C1D" d="M254.497,257.215c-0.066-0.081-0.304-0.145-0.361-0.096c-0.511,0.424-1,0.875-1.492,1.317
		c0.144,0.154,0.291,0.309,0.435,0.462c0.488-0.432,0.983-0.855,1.453-1.307C254.594,257.533,254.566,257.301,254.497,257.215z"/>
	<path fill="#1E1C1D" d="M268.545,239.576c1.256-0.108,1.977-1.122,1.564-2.085C269.595,238.178,269.152,238.767,268.545,239.576z"
		/>
	<path fill="#1E1C1D" d="M268.235,235.163c0.037,0.105,0.076,0.211,0.115,0.317c0.3-0.073,0.735-0.049,0.875-0.239
		c0.292-0.393,0.427-0.898,0.626-1.357c-0.124-0.062-0.248-0.124-0.371-0.187C269.064,234.186,268.65,234.674,268.235,235.163z"/>
	<path fill="#1E1C1D" d="M250.737,240.547c0.144,0.103,0.291,0.205,0.435,0.308c0.307-0.459,0.639-0.906,0.9-1.39
		c0.046-0.084-0.215-0.329-0.433-0.641C251.274,239.52,251.004,240.034,250.737,240.547z"/>
	<path fill="#1E1C1D" d="M251.651,252.745c0.252-0.593,0.509-1.183,0.735-1.784c0.021-0.054-0.174-0.268-0.254-0.26
		c-0.156,0.016-0.385,0.101-0.438,0.22c-0.215,0.5-0.376,1.023-0.555,1.538C251.309,252.556,251.481,252.65,251.651,252.745z"/>
	<path fill="#1E1C1D" d="M252.35,259.736c-0.096-0.08-0.19-0.16-0.286-0.24c-0.355,0.529-0.711,1.058-1.103,1.643
		C251.917,261.346,252.317,260.869,252.35,259.736z"/>
	<path fill="#1E1C1D" d="M253.342,269.98c0.05-0.119-0.208-0.531-0.314-0.527c-0.492,0.021-1.102,1.75-0.697,2.449
		C252.735,271.158,253.076,270.586,253.342,269.98z"/>
	<path fill="#1E1C1D" d="M253.998,274.109c-0.124-0.025-0.25-0.051-0.373-0.076c-0.232,0.385-0.461,0.77-0.855,1.424
		c0.467-0.085,0.896-0.053,0.974-0.2C253.922,274.922,253.924,274.497,253.998,274.109z"/>
	<path fill="#1E1C1D" d="M245.743,267.726c-0.53,0.769-0.917,1.328-1.325,1.921C245.372,269.887,246.041,269.049,245.743,267.726z"
		/>
	<path fill="#1E1C1D" d="M242.028,268.199c-1.413,1.023-1.843,1.855-1.298,2.523C241.15,269.911,242.104,269.453,242.028,268.199z"
		/>
	<path fill="#1E1C1D" d="M242.97,259.795c0.087-0.047,0.025-0.352,0.032-0.538c-0.386,0.183-0.782,0.347-1.153,0.554
		c-0.177,0.098-0.31,0.273-0.564,0.509C242.262,261.006,242.493,260.058,242.97,259.795z"/>
	<path fill="#1E1C1D" d="M241.235,255.681c0.341-0.826,0.622-1.5,1.002-2.422C241.02,253.678,240.648,254.626,241.235,255.681z"/>
	<path fill="#1E1C1D" d="M241.196,235.596c-0.112,0.178,0.051,0.523,0.089,0.793c0.094-0.003,0.19-0.006,0.284-0.01
		c0.342-0.591,0.683-1.182,1.08-1.874C241.553,234.314,241.489,235.128,241.196,235.596z"/>
	<path fill="#1E1C1D" d="M241.909,248.765c-0.186-0.103-0.371-0.205-0.56-0.308c-0.425,0.658-0.864,1.309-1.262,1.983
		c-0.058,0.099,0.032,0.342,0.128,0.453c0.06,0.065,0.351,0.059,0.394-0.006C241.059,250.189,241.48,249.475,241.909,248.765z"/>
	<path fill="#1E1C1D" d="M242.626,250.887c-0.183,0.459-0.375,0.916-0.522,1.387c-0.007,0.021,0.377,0.165,0.582,0.25
		c0.172-0.477,0.342-0.955,0.514-1.431C243.009,251.024,242.816,250.955,242.626,250.887z"/>
	<path fill="#1E1C1D" d="M241.792,238.689c0.055,0.095,0.586,0.087,0.646-0.015c0.36-0.63,0.649-1.299,0.988-2.009
		C242.615,236.717,241.496,238.183,241.792,238.689z"/>
	<path fill="#1E1C1D" d="M237.179,257.08c-1.371,0.95-1.622,1.42-0.979,2.127c0.465-0.664,0.907-1.295,1.35-1.927
		C237.426,257.213,237.303,257.147,237.179,257.08z"/>
	<path fill="#1E1C1D" d="M240.261,255.084c-0.506,0.748-0.91,1.343-1.313,1.937c0.034,0.079,0.071,0.157,0.105,0.235
		c0.277-0.084,0.72-0.092,0.8-0.266C240.098,256.47,240.857,256.023,240.261,255.084z"/>
	<path fill="#1E1C1D" d="M236.298,266.818c0.312-0.281,0.484-0.715,0.713-1.086c-0.105-0.064-0.21-0.129-0.313-0.192
		c-0.413,0.322-0.828,0.645-1.241,0.967c-0.007,0.099-0.014,0.197-0.021,0.296C235.733,266.817,236.145,266.957,236.298,266.818z"/>
	<path fill="#1E1C1D" d="M244.498,266.357c0.005,0.143,0.399,0.416,0.429,0.393c0.566-0.43,1.102-0.896,1.82-1.502
		C245.924,265.158,244.484,265.988,244.498,266.357z"/>
	<path fill="#1E1C1D" d="M239.454,260.436c0.314-0.285,0.486-0.725,0.718-1.1c-0.115-0.081-0.229-0.163-0.344-0.244
		c-0.452,0.391-0.903,0.781-1.357,1.172c0.03,0.09,0.057,0.18,0.084,0.271C238.863,260.51,239.278,260.6,239.454,260.436z"/>
	<path fill="#1E1C1D" d="M238.332,253.843c-0.426,0.787-0.798,1.472-1.226,2.26C238.215,256.046,238.877,254.808,238.332,253.843z"
		/>
	<path fill="#1E1C1D" d="M244.338,255.021c-0.401,0.134-0.912,1.606-0.624,2.403c0.44-0.773,0.768-1.317,1.057-1.881
		c0.059-0.121,0.016-0.337-0.057-0.465C244.673,255.007,244.45,254.984,244.338,255.021z"/>
	<path fill="#1E1C1D" d="M245.092,244.18c0.108,0.104,0.216,0.208,0.321,0.312c0.229-0.216,0.547-0.393,0.664-0.657
		c0.174-0.396,0.209-0.854,0.303-1.286c-0.137-0.036-0.275-0.071-0.415-0.107C245.674,243.021,245.383,243.601,245.092,244.18z"/>
	<path fill="#1E1C1D" d="M243.71,244.314c-0.087,0.207-0.089,0.448-0.172,0.923c0.394-0.269,0.676-0.355,0.75-0.529
		c0.16-0.379,0.224-0.801,0.296-1.209c0.004-0.031-0.339-0.166-0.351-0.148C244.04,243.662,243.85,243.979,243.71,244.314z"/>
	<path fill="#1E1C1D" d="M243.891,249.662c0.182,0.062,0.365,0.125,0.548,0.188c0.362-0.777,0.99-1.466,0.836-2.411
		c-0.153-0.055-0.31-0.11-0.463-0.166C244.505,248.069,244.198,248.865,243.891,249.662z"/>
	<path fill="#1E1C1D" d="M244.854,251.245c-0.149,0.164-0.192,0.419-0.227,0.682c0.486-0.242,0.988-0.46,1.432-0.763
		c0.136-0.093,0.067-0.476,0.095-0.726C245.71,250.699,245.181,250.883,244.854,251.245z"/>
	<path fill="#1E1C1D" d="M244.792,259.854c0.608-0.955,1.082-1.695,1.653-2.591C245.186,257.426,244.379,258.636,244.792,259.854z"
		/>
	<path fill="#1E1C1D" d="M236.771,261.338c-0.094-0.102-0.19-0.205-0.285-0.308c-0.46,0.415-0.923,0.831-1.384,1.245
		c0.094,0.119,0.188,0.239,0.284,0.357C236.273,262.646,236.47,261.938,236.771,261.338z"/>
	<path fill="#1E1C1D" d="M247.173,244.414c-0.262,0.493-0.539,0.979-0.769,1.487c-0.048,0.104,0.046,0.325,0.147,0.419
		c0.06,0.057,0.341,0.016,0.378-0.053c0.273-0.539,0.511-1.095,0.761-1.646C247.517,244.552,247.345,244.483,247.173,244.414z"/>
	<path fill="#1E1C1D" d="M246.248,260.604c0.329-0.244,0.671-0.475,0.983-0.739c0.121-0.104,0.172-0.285,0.254-0.432
		c-0.106-0.121-0.211-0.242-0.316-0.364c-0.385,0.366-0.782,0.724-1.142,1.114C245.99,260.225,246.169,260.459,246.248,260.604z"/>
	<path fill="#1E1C1D" d="M244.551,252.395c0.034-0.147,0.055-0.309,0.075-0.468c-0.036,0.018-0.075,0.037-0.112,0.055
		C244.526,252.119,244.54,252.257,244.551,252.395z"/>
	<path fill="#1E1C1D" d="M240.685,247.104c0.086,0.072,0.324,0.11,0.379,0.053c0.584-0.606,1.106-1.251,1.187-2.099
		c-0.122-0.069-0.246-0.138-0.369-0.207c-0.44,0.629-0.892,1.251-1.313,1.893C240.522,246.815,240.598,247.032,240.685,247.104z"/>
	<path fill="#1E1C1D" d="M225.122,249.701c-0.027,0.055,0.136,0.258,0.243,0.296c0.108,0.038,0.335-0.005,0.378-0.084
		c0.353-0.624,0.674-1.266,1.006-1.902c-0.12-0.074-0.239-0.149-0.358-0.224C225.619,248.17,225.452,249,225.122,249.701z"/>
	<path fill="#1E1C1D" d="M308.928,249.951c0.137,0.012,0.276,0.023,0.414,0.034c0.283-0.414,0.607-0.81,0.823-1.255
		c0.063-0.127-0.188-0.403-0.294-0.61c-0.268,0.316-0.586,0.605-0.786,0.959C308.947,249.324,308.973,249.657,308.928,249.951z"/>
	<path fill="#1E1C1D" d="M302.703,235.919c0.251-0.915,0.439-1.594,0.689-2.499C302.188,234.155,301.987,234.881,302.703,235.919z"
		/>
	<path fill="#1E1C1D" d="M311.775,259.653c-1.265,0.113-1.597,0.695-1.049,1.542C311.1,260.646,311.436,260.15,311.775,259.653z"/>
	<path fill="#1E1C1D" d="M311.202,237.597c-0.063-0.096-0.13-0.193-0.194-0.289c-0.25,0.145-0.613,0.233-0.722,0.447
		c-0.19,0.373-0.222,0.824-0.319,1.242c0.148,0.01,0.294,0.021,0.441,0.032C310.674,238.551,310.937,238.075,311.202,237.597z"/>
	<path fill="#1E1C1D" d="M309.951,271.691c0.321-0.635,0.636-1.271,0.924-1.922c0.034-0.077-0.094-0.316-0.172-0.33
		c-0.146-0.023-0.405,0.014-0.456,0.109c-0.343,0.622-0.655,1.26-0.929,1.912c-0.039,0.092,0.184,0.291,0.291,0.451
		C309.776,271.807,309.91,271.771,309.951,271.691z"/>
	<path fill="#1E1C1D" d="M310.591,229.978c0.784,0.008,1.091-0.373,1.421-1.759C311.214,228.214,310.894,228.611,310.591,229.978z"
		/>
	<path fill="#1E1C1D" d="M310.004,252.777c1.135-0.097,1.243-1.055,1.606-1.8C310.531,251.121,310.323,251.996,310.004,252.777z"/>
	<path fill="#1E1C1D" d="M309.083,258.428c-0.142,0.146-0.225,0.348-0.41,0.646c1.214,0.473,1.051-0.666,1.494-1.009
		c0.053-0.042-0.089-0.331-0.142-0.507C309.708,257.847,309.38,258.123,309.083,258.428z"/>
	<path fill="#1E1C1D" d="M311.905,256.541c0.163-0.5,0.29-1.013,0.426-1.521c-0.169-0.04-0.336-0.078-0.506-0.117
		c-0.174,0.435-0.373,0.865-0.51,1.312c-0.033,0.106,0.104,0.313,0.222,0.397C311.61,256.665,311.886,256.603,311.905,256.541z"/>
	<path fill="#1E1C1D" d="M309.793,266.138c0.275-0.728,0.484-1.279,0.753-1.987C309.433,264.507,309.131,265.289,309.793,266.138z"
		/>
	<path fill="#1E1C1D" d="M309.844,254.92c-0.313,0.531-0.578,0.903-0.741,1.315c-0.041,0.105,0.277,0.5,0.388,0.482
		C309.922,256.654,310.214,255.543,309.844,254.92z"/>
	<path fill="#1E1C1D" d="M309.846,246.907c0.338-0.653,0.633-1.192,0.885-1.75c0.055-0.126,0-0.343-0.082-0.47
		c-0.042-0.064-0.273-0.067-0.386-0.021C309.594,244.941,309.332,246.128,309.846,246.907z"/>
	<path fill="#1E1C1D" d="M305.866,241.804c0.208-0.659,0.41-1.288,0.608-1.917c-0.121-0.036-0.243-0.071-0.361-0.106
		C305.196,240.642,305.093,241.262,305.866,241.804z"/>
	<path fill="#1E1C1D" d="M309.827,236.55c1.107,0.218,1.092-0.688,1.49-1.084c0.029-0.027-0.151-0.261-0.235-0.4
		c-0.324,0.304-0.658,0.598-0.963,0.917C310.009,236.096,309.965,236.274,309.827,236.55z"/>
	<path fill="#1E1C1D" d="M305.684,232.709c-0.371,0.473-1.053,0.855-0.554,1.858c0.412-0.543,0.706-0.893,0.946-1.274
		c0.074-0.115,0.041-0.345-0.027-0.48C306.008,232.733,305.716,232.67,305.684,232.709z"/>
	<path fill="#1E1C1D" d="M302.721,248.529c0.994-0.069,1.681-1.157,1.52-2.219C303.156,246.649,303.177,247.652,302.721,248.529z"/>
	<path fill="#1E1C1D" d="M302.302,239.117c1.161-0.003,1.77-0.859,1.334-2.03C303.136,237.849,302.746,238.439,302.302,239.117z"/>
	<path fill="#1E1C1D" d="M303.986,231.622c-0.025,0.049,0.24,0.245,0.371,0.372c0.303-0.417,0.607-0.835,0.963-1.325
		c-0.234-0.157-0.385-0.259-0.538-0.363C304.509,230.742,304.223,231.169,303.986,231.622z"/>
	<path fill="#1E1C1D" d="M309.951,231.867c-0.39,0.711-0.736,1.445-1.185,2.363c0.813-0.216,1.925-1.878,1.735-2.257
		C310.449,231.867,309.98,231.813,309.951,231.867z"/>
	<path fill="#1E1C1D" d="M307.531,241.69c0.91,0.013,1.078-0.102,1.497-1.064c0.086-0.197-0.021-0.477-0.042-0.718
		c-0.101-0.015-0.204-0.03-0.307-0.044C308.315,240.442,307.953,241.021,307.531,241.69z"/>
	<path fill="#1E1C1D" d="M308.128,230.332c-0.496-0.01-0.844,1.119-0.438,1.704c0.271-0.416,0.553-0.771,0.729-1.172
		C308.474,230.742,308.238,230.334,308.128,230.332z"/>
	<path fill="#1E1C1D" d="M306.117,235.96c0.192,0.053,0.497,0.206,0.558,0.141c0.425-0.47,0.804-0.983,1.213-1.504
		c-0.132-0.155-0.219-0.257-0.307-0.36c-0.419,0.353-0.863,0.683-1.246,1.072C306.191,235.457,306.187,235.739,306.117,235.96z"/>
	<path fill="#1E1C1D" d="M307.868,236.573c-0.408,0.284-0.755,0.657-1.377,1.227c0.54,0.018,1.02,0.178,1.241,0.008
		c0.356-0.272,0.541-0.762,0.801-1.159C308.307,236.618,308.006,236.479,307.868,236.573z"/>
	<path fill="#1E1C1D" d="M308.181,251.948c-0.184,0.281-0.175,0.685-0.247,1.035c0.128,0.042,0.258,0.083,0.387,0.125
		c0.332-0.503,0.664-1.006,0.994-1.509c-0.094-0.101-0.188-0.2-0.282-0.301C308.741,251.511,308.363,251.668,308.181,251.948z"/>
	<path fill="#1E1C1D" d="M311.958,261.549c-0.157,0.566-0.332,1.129-0.455,1.701c-0.028,0.127,0.094,0.324,0.206,0.426
		c0.057,0.051,0.336-0.011,0.361-0.077c0.242-0.653,0.736-1.301,0.274-2.005C312.217,261.579,312.086,261.564,311.958,261.549z"/>
	<path fill="#1E1C1D" d="M312.859,271.64c0.109-0.14,0.219-0.28,0.329-0.42c0.001-0.356,0.001-0.713,0.002-1.068
		c-0.275,0.405-0.541,0.819-0.807,1.231C312.543,271.469,312.702,271.555,312.859,271.64z"/>
	<path fill="#1E1C1D" d="M302.418,254.688c1.077,0.104,1.722-0.604,1.653-1.946C303.426,253.5,302.966,254.042,302.418,254.688z"/>
	<path fill="#1E1C1D" d="M308.936,260.914c-0.567,0.479-1.113,0.986-1.638,1.516c-0.029,0.029,0.192,0.302,0.297,0.462
		c0.61-0.524,1.218-1.047,1.926-1.655C309.242,261.08,308.984,260.875,308.936,260.914z"/>
	<path fill="#1E1C1D" d="M303.049,271.092c-0.19,0.748-0.36,1.418-0.529,2.088c0.104,0.029,0.213,0.057,0.32,0.084
		C303.529,272.726,303.763,271.567,303.049,271.092z"/>
	<path fill="#1E1C1D" d="M302.577,263.376c0.263-0.522,0.495-0.941,0.682-1.38c0.039-0.09-0.055-0.303-0.151-0.361
		c-0.093-0.057-0.343-0.043-0.394,0.027C302.382,262.135,301.876,262.602,302.577,263.376z"/>
	<path fill="#1E1C1D" d="M313.229,235.959c-0.055,0.222-0.055,0.453,0,0.678C313.229,236.411,313.229,236.186,313.229,235.959z"/>
	<path fill="#1E1C1D" d="M313.002,265.219c0.063,0.009,0.13-0.012,0.198-0.053c0.001-0.41,0.001-0.817,0.002-1.227
		c-0.154,0.227-0.302,0.447-0.425,0.676C312.706,264.749,312.893,265.201,313.002,265.219z"/>
	<path fill="#1E1C1D" d="M312.186,233.362c-0.078,0.095,0.064,0.366,0.104,0.556c0.17-0.076,0.392-0.109,0.497-0.237
		c0.151-0.182,0.291-0.374,0.441-0.586c0-0.273,0-0.545,0-0.818C312.603,232.379,312.48,233.001,312.186,233.362z"/>
	<path fill="#1E1C1D" d="M311.695,241.309c0.112,0.007,0.224,0.014,0.334,0.021c0.397-0.7,0.796-1.404,1.199-2.119
		c0-0.106,0-0.211,0-0.316c-0.634-0.076-0.855,0.145-1.407,1.348C311.679,240.552,311.732,240.951,311.695,241.309z"/>
	<path fill="#1E1C1D" d="M311.968,278.281c-0.078,0.156,0.144,0.464,0.298,0.898c0.342-0.613,0.633-1.134,0.906-1.623
		c0.001-0.365,0.004-0.73,0.005-1.096C312.552,276.885,312.303,277.629,311.968,278.281z"/>
	<path fill="#1E1C1D" d="M302.954,258.525c0.192,0.058,0.386,0.115,0.578,0.174c0.161-0.53,0.321-1.06,0.479-1.59
		c-0.167-0.053-0.334-0.105-0.503-0.159C303.323,257.475,303.141,258,302.954,258.525z"/>
	<path fill="#1E1C1D" d="M306.182,251.612c0.182,0.026,0.362,0.052,0.543,0.078c0.082-0.517,0.165-1.035,0.247-1.552
		c-0.192-0.028-0.387-0.055-0.579-0.083C306.321,250.575,306.253,251.093,306.182,251.612z"/>
	<path fill="#1E1C1D" d="M306.727,266.062c0.367-0.462,0.921-0.871,0.398-1.812c-0.361,0.551-0.646,0.932-0.851,1.35
		C306.241,265.666,306.567,265.902,306.727,266.062z"/>
	<path fill="#1E1C1D" d="M308.943,268.041c-0.124-0.047-0.248-0.096-0.371-0.144c-0.954,0.803-1.025,1.029-0.419,1.802
		C308.441,269.094,308.691,268.567,308.943,268.041z"/>
	<path fill="#1E1C1D" d="M307.817,271.64c-0.553,0.661-1.032,1.237-1.599,1.917C307.404,273.739,308.234,272.71,307.817,271.64z"/>
	<path fill="#1E1C1D" d="M307.011,244.926c0.299-0.61,0.548-1.241,0.813-1.865c-0.188-0.091-0.378-0.183-0.565-0.274
		c-0.307,0.654-0.623,1.305-0.907,1.968c-0.03,0.071,0.121,0.311,0.199,0.316C306.704,245.084,306.96,245.03,307.011,244.926z"/>
	<path fill="#1E1C1D" d="M303.529,276.684c0.354-0.464,0.643-0.973,0.956-1.465c-0.148-0.112-0.297-0.223-0.443-0.334
		c-0.364,0.449-0.75,0.886-1.08,1.359c-0.088,0.124-0.006,0.361,0.002,0.548C303.156,276.759,303.445,276.795,303.529,276.684z"/>
	<path fill="#1E1C1D" d="M303.988,251.549c0.461-0.685,0.818-1.217,1.334-1.979C303.969,249.854,303.512,250.586,303.988,251.549z"
		/>
	<path fill="#1E1C1D" d="M302.775,267.137c0.069,0.108,0.14,0.217,0.212,0.324c0.224-0.111,0.554-0.164,0.656-0.344
		c0.579-1.012,0.618-1.559,0.123-2.115C303.418,265.752,303.097,266.445,302.775,267.137z"/>
	<path fill="#1E1C1D" d="M306.649,248.282c0.247-0.595,0.495-1.19,0.741-1.786c-0.178-0.073-0.356-0.146-0.535-0.219
		c-0.235,0.561-0.488,1.117-0.688,1.691C306.152,248.013,306.479,248.175,306.649,248.282z"/>
	<path fill="#1E1C1D" d="M306.326,262.672c0.037-0.059-0.162-0.267-0.252-0.405c-0.329,0.345-0.679,0.675-0.972,1.047
		c-0.106,0.134-0.071,0.376-0.102,0.569c0.102,0.063,0.204,0.126,0.306,0.189C305.652,263.609,306.01,263.154,306.326,262.672z"/>
	<path fill="#1E1C1D" d="M305.734,260.344c0.052-0.11-0.027-0.332-0.119-0.441c-0.051-0.059-0.328-0.043-0.381,0.029
		c-0.359,0.471-1,0.904-0.252,1.729C305.262,261.18,305.523,260.774,305.734,260.344z"/>
	<path fill="#1E1C1D" d="M311.088,282.804c0.053-0.176-0.087-0.41-0.21-0.891c-0.444,0.595-0.784,0.894-0.915,1.265
		c-0.119,0.336-0.01,0.75,0,1.131c0.19-0.058,0.484-0.058,0.555-0.181C310.756,283.713,310.948,283.262,311.088,282.804z"/>
	<path fill="#1E1C1D" d="M210.719,242.365c-0.295,0.618-0.603,1.231-0.874,1.858c-0.041,0.092,0.062,0.342,0.143,0.363
		c0.151,0.042,0.447,0.024,0.488-0.06c0.303-0.631,0.557-1.285,0.827-1.932C211.108,242.519,210.914,242.442,210.719,242.365z"/>
	<path fill="#1E1C1D" d="M211.228,237.361c0.351-0.234,0.566-0.678,0.807-1.052c0.03-0.048-0.114-0.296-0.204-0.31
		c-0.149-0.024-0.353,0.021-0.468,0.116c-0.385,0.314-0.742,0.665-1.414,1.278C210.533,237.393,210.98,237.525,211.228,237.361z"/>
	<path fill="#1E1C1D" d="M209.323,241.467c0.222-0.765,0.412-1.419,0.603-2.073C208.764,240.07,208.622,240.689,209.323,241.467z"/>
	<path fill="#1E1C1D" d="M209.506,247.723c0.209,0.083,0.419,0.166,0.631,0.249c0.245-0.638,0.492-1.275,0.737-1.914
		c-0.171-0.071-0.343-0.143-0.513-0.214C210.075,246.471,209.791,247.097,209.506,247.723z"/>
	<path fill="#1E1C1D" d="M214.599,234.628c-0.329,0.287-0.667,0.562-0.974,0.868c-0.115,0.115-0.154,0.303-0.302,0.619
		c1.059,0.167,1.106-0.67,1.48-1.084C214.839,234.99,214.672,234.767,214.599,234.628z"/>
	<path fill="#1E1C1D" d="M212.591,240.044c0.078-0.079-0.098-0.409-0.238-0.913c-0.537,0.855-0.889,1.417-1.364,2.172
		C212.252,241.441,212.167,240.466,212.591,240.044z"/>
	<path fill="#1E1C1D" d="M244.645,262.037c-0.027-0.1-0.058-0.201-0.085-0.302c-0.843,0.261-1.685,0.521-2.607,0.809
		C242.784,263.287,243.751,263.056,244.645,262.037z"/>
	<path fill="#1E1C1D" d="M242.684,270.987c0.326-0.474,0.651-0.947,0.974-1.421c-0.149-0.102-0.298-0.202-0.447-0.305
		c-0.342,0.471-0.685,0.939-1.027,1.409C242.352,270.776,242.519,270.881,242.684,270.987z"/>
	<path fill="#1E1C1D" d="M211.046,233.795c-0.41,0.323-0.836,0.637-1.185,1.02c-0.156,0.17-0.153,0.484-0.22,0.734
		c0.193,0.033,0.496,0.162,0.564,0.085c0.405-0.446,0.753-0.94,1.17-1.481C211.251,234.017,211.056,233.789,211.046,233.795z"/>
	<path fill="#1E1C1D" d="M224.7,257.311c-0.506,0.594-0.926,1.221-0.293,2.128c0.288-0.608,0.587-1.212,0.853-1.829
		c0.034-0.08-0.076-0.287-0.172-0.337C224.989,257.221,224.764,257.236,224.7,257.311z"/>
	<path fill="#1E1C1D" d="M225.454,253.894c-0.428,0.482-0.855,0.965-1.441,1.622c0.44,0.07,0.837,0.225,0.912,0.128
		c0.369-0.458,0.651-0.983,0.962-1.485C225.743,254.07,225.599,253.982,225.454,253.894z"/>
	<path fill="#1E1C1D" d="M213.104,246.39c0.11-0.031,0.221-0.063,0.331-0.094c0.25-0.49,0.511-0.976,0.743-1.475
		c0.069-0.147,0.091-0.344,0.05-0.496c-0.019-0.074-0.312-0.17-0.344-0.135c-0.303,0.334-0.674,0.659-0.828,1.06
		C212.933,245.577,213.08,246.006,213.104,246.39z"/>
	<path fill="#1E1C1D" d="M218.323,244.303c-0.31,0.681-0.591,1.3-0.874,1.917c0.117,0.047,0.236,0.094,0.353,0.141
		C218.761,245.621,218.976,244.971,218.323,244.303z"/>
	<path fill="#1E1C1D" d="M216.632,238.28c-0.878,0.104-0.99,1.001-1.364,1.586c-0.163,0.253-0.062,0.67-0.083,1.011
		c0.112,0.009,0.223,0.019,0.333,0.027c0.451-0.792,0.902-1.585,1.354-2.378C216.792,238.444,216.711,238.361,216.632,238.28z"/>
	<path fill="#1E1C1D" d="M215.396,254.265c-0.262,0.665-0.468,1.188-0.729,1.849C215.722,256.031,216.015,255.308,215.396,254.265z"
		/>
	<path fill="#1E1C1D" d="M216.876,236.721c0.458-0.924,0.823-1.66,1.226-2.472C216.993,234.339,216.347,235.547,216.876,236.721z"/>
	<path fill="#1E1C1D" d="M218.625,251.934c-0.099-0.08-0.197-0.161-0.295-0.242c-0.445,0.615-0.887,1.231-1.448,2.009
		C217.991,253.635,218.515,252.99,218.625,251.934z"/>
	<path fill="#1E1C1D" d="M212.8,251.173c-0.087-0.101-0.176-0.203-0.264-0.305c-0.305,0.225-0.695,0.397-0.891,0.692
		c-0.172,0.254-0.124,0.65-0.174,0.983c0.128,0.026,0.254,0.053,0.382,0.079C212.169,252.14,212.486,251.657,212.8,251.173z"/>
	<path fill="#1E1C1D" d="M262.548,275.947c-0.126,0.184-0.022,0.519-0.022,0.785c0.121,0.03,0.244,0.062,0.365,0.092
		c0.123-0.254,0.273-0.5,0.358-0.768c0.099-0.317,0.138-0.651,0.204-0.979C263.145,275.363,262.779,275.61,262.548,275.947z"/>
	<path fill="#1E1C1D" d="M212.66,249.724c0.403-0.552,0.727-0.964,1.006-1.404c0.073-0.113,0.043-0.335-0.023-0.468
		c-0.043-0.089-0.241-0.168-0.353-0.152C212.813,247.772,212.355,248.946,212.66,249.724z"/>
	<path fill="#1E1C1D" d="M213.796,238.707c0.3-0.484,0.552-0.857,0.761-1.253c0.06-0.117,0.037-0.326-0.034-0.445
		c-0.048-0.086-0.255-0.147-0.367-0.121C213.62,237.012,213.366,238.066,213.796,238.707z"/>
	<path fill="#1E1C1D" d="M214.816,250.146c-0.555,0.762-1.024,1.407-1.561,2.144C214.376,252.394,215.254,251.224,214.816,250.146z"
		/>
	<path fill="#1E1C1D" d="M213.173,254.544c-0.224,0.597-0.428,1.135-0.632,1.673c0.126,0.033,0.256,0.065,0.382,0.097
		C213.858,255.3,213.893,255.149,213.173,254.544z"/>
	<path fill="#1E1C1D" d="M263.433,272.568c-0.371,0.58-0.704,1.098-1.19,1.857C263.598,274.051,263.964,273.391,263.433,272.568z"/>
	<path fill="#1E1C1D" d="M307.685,280.516c-0.321,0.495-0.644,0.99-0.917,1.512c-0.082,0.156-0.043,0.391-0.011,0.581
		c0.011,0.069,0.158,0.118,0.378,0.265c0.216-0.377,0.47-0.708,0.605-1.08c0.137-0.371,0.159-0.783,0.213-1.181
		C307.957,280.591,307.696,280.496,307.685,280.516z"/>
	<path fill="#1E1C1D" d="M307.021,277.325c-1.236,0.444-1.511,1.222-0.931,2.221C306.396,278.814,306.651,278.207,307.021,277.325z"
		/>
	<path fill="#1E1C1D" d="M306.491,285.502c-0.039,0.094,0.123,0.313,0.247,0.404c0.061,0.046,0.318-0.032,0.355-0.112
		c0.243-0.551,0.451-1.117,0.668-1.679c-0.167-0.072-0.336-0.146-0.503-0.218C306.995,284.43,306.718,284.955,306.491,285.502z"/>
	<path fill="#1E1C1D" d="M302.08,242.135c0.41-0.518,1.19-0.872,0.841-1.723c-0.124-0.057-0.248-0.113-0.369-0.17
		c-0.287,0.572-0.572,1.145-0.859,1.717C301.82,242.018,301.952,242.076,302.08,242.135z"/>
	<path fill="#1E1C1D" d="M308.799,273.872c-0.533,0.38-0.973,0.663-1.371,0.99c-0.153,0.125-0.222,0.351-0.33,0.531
		c0.223,0.083,0.489,0.287,0.66,0.228C308.444,275.381,308.957,274.965,308.799,273.872z"/>
	<path fill="#1E1C1D" d="M308.865,279.121c0.272-0.441,0.439-0.949,0.648-1.43c-0.151-0.072-0.303-0.143-0.454-0.214
		c-0.361,0.565-0.722,1.131-1.083,1.696c0.063,0.085,0.126,0.17,0.19,0.254C308.407,279.331,308.755,279.299,308.865,279.121z"/>
	<path fill="#1E1C1D" d="M302.428,245.071c0.078-0.705,0.155-1.409,0.245-2.199c-1.095,0.471-1.181,0.879-0.575,2.149
		C302.208,245.038,302.317,245.055,302.428,245.071z"/>
	<path fill="#1E1C1D" d="M303.211,277.945c-0.31,0.308-0.669,0.58-0.905,0.934c-0.144,0.214-0.096,0.554-0.132,0.837
		c0.122,0.024,0.242,0.05,0.361,0.075c0.337-0.487,0.669-0.975,1.004-1.461C303.432,278.202,303.319,278.074,303.211,277.945z"/>
	<path fill="#1E1C1D" d="M303.743,286.184c0.388-0.588,0.747-1.195,1.13-1.824c-0.11-0.137-0.184-0.314-0.279-0.328
		c-0.153-0.02-0.403,0.018-0.472,0.12c-0.352,0.529-0.673,1.081-0.964,1.645c-0.045,0.089,0.097,0.321,0.211,0.42
		C303.438,286.275,303.697,286.252,303.743,286.184z"/>
	<path fill="#1E1C1D" d="M302.416,282.699c0.131-0.025,0.262-0.049,0.395-0.072c0.071-0.691,0.14-1.383,0.211-2.074
		c-0.129-0.046-0.26-0.092-0.388-0.137c-0.165,0.355-0.433,0.703-0.465,1.07C302.135,281.881,302.325,282.293,302.416,282.699z"/>
	<path fill="#1E1C1D" d="M305.075,267.818c-0.273,0.538-0.544,1.075-0.813,1.613c0.177,0.092,0.352,0.183,0.526,0.273
		c0.264-0.549,0.524-1.098,0.788-1.647C305.409,267.979,305.242,267.897,305.075,267.818z"/>
	<path fill="#1E1C1D" d="M306.432,270.896c0.068-0.117,0.073-0.359-0.004-0.449c-0.083-0.094-0.396-0.147-0.442-0.09
		c-0.368,0.461-0.954,0.874-0.446,1.83C305.921,271.644,306.198,271.283,306.432,270.896z"/>
	<path fill="#1E1C1D" d="M312.692,259.496c0.155,0.109,0.422,0.336,0.454,0.309c0.021-0.02,0.043-0.047,0.064-0.066
		c0.001-0.296,0.002-0.592,0.002-0.888C313.04,259.066,312.861,259.277,312.692,259.496z"/>
	<path fill="#1E1C1D" d="M312.975,281.749c0.121-0.129,0.155-0.341,0.18-0.56c0-0.139,0.001-0.278,0.001-0.418
		c-0.087-0.01-0.173-0.018-0.261-0.029c-0.332,0.349-0.668,0.697-1.003,1.045c0.033,0.105,0.066,0.209,0.099,0.314
		C312.328,281.992,312.764,281.973,312.975,281.749z"/>
	<path fill="#1E1C1D" d="M270.107,280.506c0.338-0.66,0.602-1.174,0.847-1.694c0.004-0.009-0.22-0.121-0.337-0.186
		c-0.273,0.493-0.546,0.986-0.812,1.481C269.799,280.121,269.845,280.162,270.107,280.506z"/>
	<path fill="#1E1C1D" d="M270.648,275.32c-0.405,0.559-0.813,1.118-1.219,1.677c0.151,0.112,0.303,0.225,0.451,0.337
		c0.434-0.538,0.869-1.075,1.303-1.613C271.004,275.588,270.828,275.454,270.648,275.32z"/>
	<path fill="#1E1C1D" d="M310.756,276.754c0.272-0.569,0.522-1.093,0.902-1.887C310.274,275.395,310.066,275.965,310.756,276.754z"
		/>
	<path fill="#1E1C1D" d="M312.264,265.748c-0.252,0.144-0.585,0.229-0.738,0.441c-0.286,0.391-0.467,0.855-0.838,1.57
		c0.479-0.143,0.824-0.146,0.994-0.32c0.237-0.247,0.381-0.606,0.5-0.939C312.266,266.269,312.242,266,312.264,265.748z"/>
	<path fill="#1E1C1D" d="M217.576,257.162c-0.246,0.75-1.293,1.097-0.892,2.182C217.892,258.479,218.149,257.883,217.576,257.162z"
		/>
	<path fill="#1E1C1D" d="M310.257,285.757c-0.498,0.532-1.247,0.97-0.704,1.861C309.904,287.037,310.829,286.69,310.257,285.757z"/>
	<path fill="#1E1C1D" d="M311.304,272.553c-0.305,0.398-0.628,0.785-0.897,1.205c-0.063,0.096,0.018,0.324,0.1,0.45
		c0.034,0.053,0.31,0.049,0.355-0.015c0.323-0.437,0.611-0.896,0.914-1.348C311.617,272.747,311.461,272.65,311.304,272.553z"/>
	<path fill="#1E1C1D" d="M295.418,244.087c-0.362,0.722-0.66,1.311-0.99,1.971C295.491,246.051,295.979,245.142,295.418,244.087z"/>
	<path fill="#1E1C1D" d="M287.851,258.802c-0.628,0.569-1.081,0.981-1.593,1.443C287.371,260.607,287.807,260.266,287.851,258.802z"
		/>
	<path fill="#1E1C1D" d="M286.058,278.086c0.311-0.279,0.674-0.521,0.906-0.854c0.14-0.206,0.075-0.552,0.103-0.835
		c-0.118-0.013-0.235-0.025-0.356-0.039c-0.283,0.361-0.61,0.699-0.831,1.096C285.804,277.592,285.991,277.871,286.058,278.086z"/>
	<path fill="#1E1C1D" d="M286.502,283.592c0.331-0.443,0.549-0.965,0.811-1.456c-0.151-0.095-0.303-0.188-0.454-0.281
		c-0.386,0.517-0.768,1.033-1.306,1.756C285.993,283.61,286.409,283.718,286.502,283.592z"/>
	<path fill="#1E1C1D" d="M300.476,250.546c-0.044-0.063-0.277-0.054-0.393-0.002c-0.497,0.226-0.688,1.389-0.222,2.035
		c0.282-0.6,0.524-1.071,0.719-1.562C300.631,250.887,300.564,250.67,300.476,250.546z"/>
	<path fill="#1E1C1D" d="M288.421,254.917c-0.481,0.754-0.865,1.361-1.254,1.968c0.049,0.078,0.1,0.155,0.149,0.232
		c0.253-0.076,0.669-0.09,0.729-0.241C288.263,256.316,289.103,255.884,288.421,254.917z"/>
	<path fill="#1E1C1D" d="M286.816,268.944c-1.01-0.206-1.425,0.612-1.99,1.188C285.838,270.385,286.232,269.488,286.816,268.944z"/>
	<path fill="#1E1C1D" d="M283.074,276.156c-0.731,0.762-1.288,1.306-0.855,2.211C282.736,277.808,283.304,277.269,283.074,276.156z"
		/>
	<path fill="#1E1C1D" d="M284.228,273.3c0.153-0.13,0.151-0.441,0.22-0.671c-0.255,0.062-0.585,0.047-0.748,0.201
		c-0.354,0.332-0.625,0.753-1.005,1.233C283.705,274.547,283.831,273.635,284.228,273.3z"/>
	<path fill="#1E1C1D" d="M299.568,261.457c0.263-0.647,0.504-1.235,0.744-1.822c-0.124-0.048-0.247-0.094-0.369-0.142
		C298.985,260.387,298.848,260.861,299.568,261.457z"/>
	<path fill="#1E1C1D" d="M285.529,279.449c-0.231-0.09-0.557-0.271-0.596-0.223c-0.471,0.574-0.902,1.181-1.341,1.779
		c0.169,0.115,0.476,0.341,0.485,0.329C284.546,280.762,284.988,280.168,285.529,279.449z"/>
	<path fill="#1E1C1D" d="M287.161,274.596c0.096-0.082,0.016-0.359,0.018-0.547c-0.192,0.035-0.457,0.006-0.562,0.119
		c-0.342,0.367-0.626,0.786-1.072,1.374C286.642,275.809,286.747,274.954,287.161,274.596z"/>
	<path fill="#1E1C1D" d="M300.723,231.775c-0.098-0.05-0.194-0.1-0.294-0.148c-0.389,0.706-0.776,1.411-1.205,2.184
		C300.18,233.867,300.874,232.787,300.723,231.775z"/>
	<path fill="#1E1C1D" d="M294.015,262.645c-0.121,0.227-0.029,0.564-0.033,0.853c0.203-0.138,0.43-0.251,0.608-0.417
		c0.281-0.258,0.529-0.551,0.813-0.848C294.75,261.906,294.35,262.014,294.015,262.645z"/>
	<path fill="#1E1C1D" d="M295.154,255.936c-0.415,0.643-0.777,1.185-1.103,1.75c-0.029,0.049,0.192,0.239,0.298,0.363
		c0.422-0.541,0.85-1.078,1.252-1.635C295.619,256.389,295.399,256.196,295.154,255.936z"/>
	<path fill="#1E1C1D" d="M296.615,252.646c-0.104-0.074-0.212-0.147-0.32-0.222c-0.366,0.653-0.732,1.307-1.146,2.042
		C296.14,254.551,296.499,254.024,296.615,252.646z"/>
	<path fill="#1E1C1D" d="M296.906,250.737c0.36-0.346,0.69-0.721,1.108-1.181c-0.308-0.186-0.575-0.377-0.594-0.355
		c-0.336,0.385-0.645,0.791-0.932,1.212C296.481,250.424,296.891,250.754,296.906,250.737z"/>
	<path fill="#1E1C1D" d="M294.721,269.887c-0.19,0.039-0.522,0.039-0.547,0.128c-0.126,0.413-0.167,0.852-0.239,1.28
		c0.2,0.014,0.398,0.027,0.596,0.041C294.595,270.854,294.659,270.369,294.721,269.887z"/>
	<path fill="#1E1C1D" d="M294.354,250.214c-0.788,0.194-1.422,0.602-1.611,1.468c-0.032,0.151,0.259,0.37,0.399,0.557
		c0.497-0.588,0.992-1.175,1.489-1.764C294.537,250.388,294.445,250.301,294.354,250.214z"/>
	<path fill="#1E1C1D" d="M297.87,263.947c0.119,0.064,0.235,0.128,0.353,0.191c0.594-0.365,1.134-0.76,0.951-1.529
		c-0.122-0.066-0.243-0.133-0.365-0.199C298.498,262.922,298.184,263.436,297.87,263.947z"/>
	<path fill="#1E1C1D" d="M299.453,240.523c0.273-0.471,0.518-0.957,0.757-1.447c0.014-0.029-0.078-0.108-0.346-0.46
		c-0.333,0.687-0.595,1.222-0.855,1.758C299.162,240.427,299.437,240.548,299.453,240.523z"/>
	<path fill="#1E1C1D" d="M294.021,264.849c-0.599,0.456-1.195,0.911-1.924,1.466C293.008,266.757,293.946,266.113,294.021,264.849z"
		/>
	<path fill="#1E1C1D" d="M295.277,259.506c0.043-0.042-0.119-0.277-0.186-0.423c-0.359,0.249-0.733,0.481-1.069,0.755
		c-0.12,0.097-0.156,0.292-0.229,0.443c0.096,0.109,0.192,0.219,0.288,0.328C294.484,260.246,294.899,259.893,295.277,259.506z"/>
	<path fill="#1E1C1D" d="M282.327,274.417c-0.186-0.136-0.481-0.421-0.539-0.381c-0.625,0.448-1.305,0.898-1.072,2.151
		C281.351,275.488,281.839,274.953,282.327,274.417z"/>
	<path fill="#1E1C1D" d="M276.036,260.728c-0.133,0.154-0.07,0.468-0.096,0.71c0.298-0.171,0.605-0.332,0.894-0.518
		c0.172-0.109,0.319-0.256,0.568-0.463C276.635,259.725,276.34,260.373,276.036,260.728z"/>
	<path fill="#1E1C1D" d="M279.686,253.908c0.1,0.038,0.2,0.078,0.304,0.116c0.179-0.153,0.372-0.292,0.532-0.463
		c0.226-0.242,0.432-0.506,0.624-0.775c0.007-0.012-0.251-0.271-0.296-0.248c-0.346,0.18-0.721,0.356-0.985,0.627
		C279.71,253.323,279.738,253.655,279.686,253.908z"/>
	<path fill="#1E1C1D" d="M297.993,245.683c-0.431,0.646-0.818,1.226-1.207,1.807c0.094,0.061,0.187,0.122,0.281,0.182
		C298.083,247.303,298.518,246.521,297.993,245.683z"/>
	<path fill="#1E1C1D" d="M279.284,256.826c-0.094-0.116-0.186-0.232-0.279-0.348c-0.534,0.423-1.071,0.844-1.605,1.268
		c0.093,0.111,0.185,0.225,0.275,0.338C278.469,257.982,278.937,257.479,279.284,256.826z"/>
	<path fill="#1E1C1D" d="M278.938,274.611c0.155,0.068,0.396,0.231,0.446,0.188c0.9-0.798,1.778-1.62,2.653-2.43
		C281.013,271.777,280.182,272.352,278.938,274.611z"/>
	<path fill="#1E1C1D" d="M276.656,264.139c-0.275,0.7-0.508,1.417-0.79,2.254c0.803-0.239,1.609-1.691,1.351-2.159
		C277.157,264.125,276.672,264.098,276.656,264.139z"/>
	<path fill="#1E1C1D" d="M282.795,236.728c0.497-0.463,0.994-0.927,1.6-1.49C283.453,234.841,282.8,235.396,282.795,236.728z"/>
	<path fill="#1E1C1D" d="M286.927,254.369c0.042-0.084-0.234-0.454-0.353-0.45c-0.507,0.019-1.094,1.636-0.701,2.359
		C286.271,255.576,286.631,254.986,286.927,254.369z"/>
	<path fill="#1E1C1D" d="M285.561,238.415c0.611-0.696,1.052-1.196,1.64-1.862C286.095,236.436,285.521,237.075,285.561,238.415z"/>
	<path fill="#1E1C1D" d="M282.116,240.786c0.291-0.638,0.571-1.249,0.851-1.86c-0.107-0.044-0.215-0.09-0.322-0.134
		C281.658,239.422,281.392,240.248,282.116,240.786z"/>
	<path fill="#1E1C1D" d="M284.296,232.291c0.062,0.118,0.126,0.235,0.188,0.353c1.103,0.232,1.394-0.824,2.104-1.216
		c-0.091-0.142-0.184-0.282-0.272-0.423C285.642,231.434,284.968,231.862,284.296,232.291z"/>
	<path fill="#1E1C1D" d="M277.729,248.795c0.108,0.097,0.418,0.16,0.47,0.099c0.443-0.531,0.85-1.093,1.264-1.647
		c-0.175-0.124-0.348-0.249-0.524-0.374c-0.436,0.49-0.883,0.969-1.293,1.48C277.578,248.436,277.637,248.71,277.729,248.795z"/>
	<path fill="#1E1C1D" d="M281.063,244.968c0.54-0.457,1.014-0.858,1.485-1.259c-0.144-0.123-0.38-0.378-0.423-0.35
		c-0.521,0.34-1.014,0.723-1.515,1.094C280.735,244.592,280.856,244.731,281.063,244.968z"/>
	<path fill="#1E1C1D" d="M277.411,245.256c0.352-0.514,0.623-0.915,0.894-1.316c0.043-0.059,0.109-0.112,0.117-0.175
		c0.023-0.158,0.067-0.337,0.015-0.474c-0.032-0.081-0.246-0.157-0.355-0.135C277.472,243.278,277.018,244.503,277.411,245.256z"/>
	<path fill="#1E1C1D" d="M277.799,270.973c-1.273,0.756-1.53,1.664-0.807,2.569C277.299,272.558,277.549,271.765,277.799,270.973z"
		/>
	<path fill="#1E1C1D" d="M278.163,236.943c0.062,0.111,0.126,0.221,0.188,0.333c0.261-0.133,0.577-0.212,0.77-0.409
		c0.374-0.381,0.701-0.815,1.004-1.256c0.11-0.16,0.101-0.401,0.144-0.606c-0.224,0.027-0.548-0.029-0.656,0.096
		C279.096,235.687,278.641,236.324,278.163,236.943z"/>
	<path fill="#1E1C1D" d="M277.973,282.599c0.14,0.015,0.357-0.05,0.43-0.156c0.322-0.491,0.609-1.007,0.994-1.659
		c-0.861,0.063-1.726,0.957-1.642,1.5C277.774,282.402,277.889,282.59,277.973,282.599z"/>
	<path fill="#1E1C1D" d="M279.868,276.65c-0.342,0.364-0.658,0.76-0.918,1.184c-0.041,0.068,0.237,0.329,0.368,0.502
		c0.284-0.426,0.567-0.854,1.028-1.543C280.2,276.746,279.921,276.594,279.868,276.65z"/>
	<path fill="#1E1C1D" d="M278.434,263.788c1.192,0.684,1.273-0.462,1.798-0.698c0.175-0.078,0.196-0.484,0.337-0.885
		C279.721,262.832,279.129,263.273,278.434,263.788z"/>
	<path fill="#1E1C1D" d="M280.543,268.486c-0.088-0.084-0.176-0.169-0.265-0.254c-0.468,0.496-0.937,0.993-1.459,1.547
		C279.766,270.1,280.216,269.707,280.543,268.486z"/>
	<path fill="#1E1C1D" d="M280.333,257.523c-1.1,0.85-1.134,0.95-0.465,1.777c0.305-0.588,0.575-1.111,0.846-1.635
		C280.588,257.618,280.459,257.57,280.333,257.523z"/>
	<path fill="#1E1C1D" d="M278.373,252.323c0.387-0.693,0.721-1.29,1.175-2.104C278.316,250.574,277.819,251.504,278.373,252.323z"/>
	<path fill="#1E1C1D" d="M278.563,268.11c0.446-0.794,0.834-1.478,1.306-2.318C278.663,265.851,277.986,267.048,278.563,268.11z"/>
	<path fill="#1E1C1D" d="M279.204,239.059c-0.299,0.28-0.688,0.514-0.862,0.855c-0.133,0.257,0.012,0.652,0.033,0.984
		c0.107-0.007,0.212-0.015,0.32-0.022c0.257-0.496,0.511-0.993,0.768-1.49C279.375,239.278,279.288,239.168,279.204,239.059z"/>
	<path fill="#1E1C1D" d="M290.891,259.121c-0.103-0.055-0.206-0.109-0.309-0.164c-0.456,0.4-0.915,0.801-1.37,1.201
		c0.082,0.127,0.162,0.255,0.245,0.383c0.387-0.219,0.815-0.393,1.146-0.676C290.783,259.713,290.799,259.376,290.891,259.121z"/>
	<path fill="#1E1C1D" d="M296.797,269.234c-0.195,0.324-0.383,0.594-0.52,0.885c-0.221,0.462-0.408,0.939-0.592,1.417
		c-0.002,0.007,0.33,0.167,0.344,0.146c0.438-0.619,0.859-1.25,1.26-1.893C297.311,269.754,297.118,269.591,296.797,269.234z"/>
	<path fill="#1E1C1D" d="M298.282,278.122c0.066-0.097,0.11-0.278,0.064-0.367c-0.051-0.095-0.228-0.184-0.34-0.175
		c-0.534,0.039-1.042,1.172-0.688,1.839C297.7,278.912,298.003,278.525,298.282,278.122z"/>
	<path fill="#1E1C1D" d="M297.724,281.695c0.947,0.391,1.03,0.326,1.582-1.176C298.243,280.322,298.286,281.338,297.724,281.695z"/>
	<path fill="#1E1C1D" d="M297.696,285.55c0.421-0.681,0.778-1.257,1.136-1.834c-0.097-0.063-0.194-0.128-0.291-0.191
		C297.636,283.928,297.239,284.684,297.696,285.55z"/>
	<path fill="#1E1C1D" d="M296.188,282.508c0.055-0.113-0.036-0.344-0.133-0.465c-0.045-0.062-0.346-0.045-0.375,0.015
		c-0.291,0.543-0.547,1.103-0.811,1.657c0.161,0.076,0.323,0.153,0.486,0.23C295.638,283.468,295.938,283.001,296.188,282.508z"/>
	<path fill="#1E1C1D" d="M293.848,268.012c-0.138-0.06-0.274-0.118-0.412-0.176c-0.377,0.549-0.752,1.098-1.128,1.646
		c0.063,0.11,0.128,0.219,0.191,0.33c0.251-0.129,0.603-0.195,0.728-0.397C293.494,268.984,293.648,268.482,293.848,268.012z"/>
	<path fill="#1E1C1D" d="M292.406,261.811c-0.019-0.079-0.249-0.197-0.337-0.167c-0.745,0.271-1.479,0.569-2.471,0.959
		c1.259,0.628,1.969,0.023,2.714-0.342C292.404,262.217,292.436,261.954,292.406,261.811z"/>
	<path fill="#1E1C1D" d="M291.839,273.984c-0.095-0.033-0.188-0.064-0.28-0.097c-0.275,0.351-0.629,0.666-0.805,1.06
		c-0.182,0.41-0.193,0.896-0.279,1.349c0.3-0.323,0.614-0.634,0.895-0.973c0.183-0.22,0.352-0.465,0.455-0.727
		C291.894,274.418,291.839,274.189,291.839,273.984z"/>
	<path fill="#1E1C1D" d="M292.992,281.868c0.119-0.343,0.029-0.757,0.029-1.14c-0.114-0.007-0.229-0.013-0.346-0.02
		c-0.206,0.51-0.409,1.02-0.615,1.53c0.085,0.097,0.169,0.192,0.256,0.288C292.55,282.311,292.903,282.133,292.992,281.868z"/>
	<path fill="#1E1C1D" d="M294.995,280.362c0.025-0.073-0.194-0.231-0.303-0.351c-0.315,0.482-0.652,0.953-0.929,1.455
		c-0.042,0.077,0.185,0.299,0.476,0.732C294.564,281.43,294.805,280.905,294.995,280.362z"/>
	<path fill="#1E1C1D" d="M299.562,265.789c-0.466,0.492-0.865,0.913-1.378,1.455C299.321,267.472,299.837,266.907,299.562,265.789z"
		/>
	<path fill="#1E1C1D" d="M200.063,241c0.126,0.056,0.251,0.11,0.378,0.166c0.972-0.799,1.125-1.175,0.571-1.84
		C200.67,239.927,200.367,240.464,200.063,241z"/>
	<path fill="#1E1C1D" d="M208.643,249.38c-0.114-0.099-0.227-0.197-0.339-0.295c-0.328,0.315-0.704,0.596-0.962,0.958
		c-0.146,0.203-0.099,0.542-0.138,0.819c0.133,0.019,0.263,0.039,0.394,0.059C207.945,250.407,208.294,249.893,208.643,249.38z"/>
	<path fill="#1E1C1D" d="M202.397,239.839c0.101,0.119,0.202,0.236,0.303,0.354c0.262-0.238,0.594-0.435,0.761-0.725
		c0.167-0.29,0.17-0.673,0.245-1.016c-0.126-0.038-0.25-0.075-0.373-0.113C203.021,238.839,202.709,239.34,202.397,239.839z"/>
	<path fill="#1E1C1D" d="M201.9,243.623c0.248-0.337,0.314-0.807,0.456-1.22c-0.121-0.047-0.245-0.095-0.367-0.143
		c-0.362,0.427-0.722,0.854-1.084,1.28c0.032,0.123,0.064,0.246,0.096,0.369C201.312,243.821,201.75,243.826,201.9,243.623z"/>
	<path fill="#1E1C1D" d="M291.77,278.637c0.021-0.028-0.216-0.217-0.33-0.331c-0.364,0.368-0.741,0.729-1.075,1.121
		c-0.027,0.034,0.204,0.284,0.419,0.574C291.171,279.482,291.485,279.07,291.77,278.637z"/>
	<path fill="#1E1C1D" d="M207.868,245.828c-1.208,0.412-1.237,1.385-1.581,2.218C207.126,248.043,207.724,247.222,207.868,245.828z"
		/>
	<path fill="#1E1C1D" d="M301.268,264.517c-0.21,0.457-0.439,0.907-0.618,1.375c-0.048,0.127,0.062,0.311,0.099,0.468
		c0.116,0.028,0.23,0.057,0.349,0.084c0.169-0.567,0.348-1.133,0.491-1.707C301.602,264.692,301.383,264.592,301.268,264.517z"/>
	<path fill="#1E1C1D" d="M206.961,238.227c0.248-0.362,0.348-0.822,0.513-1.239c-0.142-0.065-0.286-0.129-0.428-0.195
		c-0.401,0.592-0.8,1.185-1.201,1.777c0.087,0.096,0.174,0.193,0.262,0.29C206.396,238.653,206.772,238.501,206.961,238.227z"/>
	<path fill="#1E1C1D" d="M299.611,271.459c0.905-0.004,1.469-0.823,1.585-2.181C300.097,269.706,300.11,270.689,299.611,271.459z"/>
	<path fill="#1E1C1D" d="M300.234,276.557c-0.431,0.012-0.846,1.182-0.533,1.882c0.364-0.543,0.671-0.93,0.882-1.362
		C300.633,276.972,300.354,276.553,300.234,276.557z"/>
	<path fill="#1E1C1D" d="M205.482,242.73c-0.092,0.612-0.11,1.234-0.154,1.853c0.19,0.016,0.383,0.031,0.576,0.047
		c0.08-0.538,0.176-1.075,0.229-1.616c0.016-0.17-0.08-0.351-0.124-0.525C205.826,242.567,205.496,242.626,205.482,242.73z"/>
	<path fill="#1E1C1D" d="M206.166,239.633c-0.42,0.739-0.727,1.277-1.144,2.006C206.214,241.361,206.63,240.639,206.166,239.633z"/>
	<path fill="#1E1C1D" d="M288.324,250.752c0.243-0.098,0.596-0.13,0.706-0.308c0.386-0.612,0.684-1.276,1.016-1.92
		c-0.158-0.08-0.314-0.159-0.472-0.238c-0.488,0.71-0.978,1.42-1.465,2.13C288.181,250.529,288.251,250.64,288.324,250.752z"/>
	<path fill="#1E1C1D" d="M292.55,249.923c0.45-1.001,0.795-1.771,1.197-2.676C292.635,247.437,292.078,248.65,292.55,249.923z"/>
	<path fill="#1E1C1D" d="M293.029,239.015c-0.126-0.035-0.429,0.085-0.434,0.154c-0.036,0.518-0.021,1.039-0.021,1.56
		c0.175-0.007,0.349-0.013,0.522-0.02c0.068-0.44,0.157-0.878,0.187-1.319C293.291,239.263,293.146,239.047,293.029,239.015z"/>
	<path fill="#1E1C1D" d="M294.416,242.368c-0.186,0.073-0.431,0.153-0.509,0.304c-0.223,0.434-0.373,0.902-0.594,1.46
		c0.748-0.037,1.556-1.105,1.329-1.572C294.602,242.476,294.462,242.35,294.416,242.368z"/>
	<path fill="#1E1C1D" d="M292.097,231.715c-0.044,0.08,0.211,0.462,0.328,0.463c0.52,0.002,1.054-1.402,0.657-1.999
		C292.725,230.72,292.379,231.2,292.097,231.715z"/>
	<path fill="#1E1C1D" d="M292.843,243.457c0.021-0.073-0.22-0.3-0.35-0.31c-0.126-0.009-0.344,0.143-0.39,0.271
		c-0.148,0.415-0.241,0.85-0.402,1.472C292.772,244.763,292.686,244.009,292.843,243.457z"/>
	<path fill="#1E1C1D" d="M297.185,244.29c0.557-0.041,0.999,0.045,1.109-0.106c0.279-0.377,0.407-0.861,0.596-1.302
		c-0.129-0.063-0.258-0.124-0.388-0.187C298.133,243.142,297.765,243.588,297.185,244.29z"/>
	<path fill="#1E1C1D" d="M296.279,260.287c0.037,0.114,0.521,0.241,0.603,0.162c0.353-0.334,0.631-0.744,1.02-1.229
		C297.212,259.051,296.142,259.855,296.279,260.287z"/>
	<path fill="#1E1C1D" d="M296.774,267.061c0.293-0.303,0.517-0.674,0.768-1.018c-0.094-0.128-0.188-0.256-0.282-0.384
		c-0.359,0.305-0.737,0.589-1.059,0.927c-0.091,0.096-0.005,0.354,0,0.537C296.398,267.107,296.674,267.166,296.774,267.061z"/>
	<path fill="#1E1C1D" d="M296.547,241.442c1.153-0.214,1.518-0.885,1.03-1.729C297.195,240.354,296.87,240.898,296.547,241.442z"/>
	<path fill="#1E1C1D" d="M292.037,257.06c0.326-0.602,0.662-1.197,0.967-1.809c0.043-0.086-0.043-0.333-0.116-0.355
		c-0.147-0.044-0.432-0.039-0.475,0.042c-0.33,0.614-0.616,1.252-0.916,1.883C291.678,256.899,291.856,256.979,292.037,257.06z"/>
	<path fill="#1E1C1D" d="M295.204,233.811c1.176-0.065,1.817-1.249,1.26-2.093C296.014,232.468,295.61,233.14,295.204,233.811z"/>
	<path fill="#1E1C1D" d="M288.297,270.449c0.156,0.014,0.389-0.022,0.475-0.129c0.447-0.568,0.859-1.166,1.284-1.754
		c-0.157-0.133-0.313-0.264-0.471-0.397c-0.492,0.652-0.995,1.3-1.469,1.966C288.082,270.18,288.222,270.441,288.297,270.449z"/>
	<path fill="#1E1C1D" d="M290.565,253.351c-0.229-0.079-0.572-0.242-0.6-0.2c-0.34,0.509-0.655,1.037-0.916,1.587
		c-0.053,0.105,0.153,0.33,0.24,0.5C289.649,254.708,290.007,254.178,290.565,253.351z"/>
	<path fill="#1E1C1D" d="M291.012,240.565c-0.353,0.48-0.705,0.96-1.058,1.439c0.172,0.102,0.344,0.204,0.516,0.305
		c0.337-0.475,0.674-0.949,1.014-1.423C291.324,240.779,291.169,240.672,291.012,240.565z"/>
	<path fill="#1E1C1D" d="M290.516,234.237c-0.303,0.195-0.652,0.394-0.829,0.684c-0.197,0.322-0.225,0.745-0.326,1.125
		c0.131,0.032,0.349,0.126,0.376,0.087c0.369-0.511,0.71-1.04,1.182-1.752C290.771,234.324,290.584,234.192,290.516,234.237z"/>
	<path fill="#1E1C1D" d="M287.924,232.175c-0.114,0.091-0.039,0.416-0.05,0.633c0.215-0.067,0.513-0.068,0.634-0.213
		c0.432-0.512,0.8-1.074,1.192-1.616c-0.085-0.096-0.169-0.191-0.252-0.288C288.554,230.728,288.476,231.733,287.924,232.175z"/>
	<path fill="#1E1C1D" d="M290.742,282.513c-0.969,0.231-1.13,1.194-1.537,1.952C290.341,284.363,290.436,283.354,290.742,282.513z"
		/>
	<path fill="#1E1C1D" d="M298.58,254.391c-0.618,0.867-1.135,1.586-1.722,2.41C297.858,257.002,298.946,255.574,298.58,254.391z"/>
	<path fill="#1E1C1D" d="M289.338,265.29c0.104,0.183,0.203,0.366,0.305,0.549c0.392-0.272,0.793-0.532,1.159-0.832
		c0.05-0.041-0.073-0.29-0.117-0.442C290.236,264.806,289.787,265.049,289.338,265.29z"/>
	<path fill="#1E1C1D" d="M290.22,272.273c-0.225,0.447-0.337,0.949-0.497,1.428c0.135,0.02,0.353,0.099,0.39,0.049
		c0.357-0.49,0.685-1.001,1.068-1.576c-0.094-0.104-0.253-0.344-0.304-0.324C290.637,271.949,290.323,272.07,290.22,272.273z"/>
	<path fill="#1E1C1D" d="M271.009,257.477c-0.714,0.693-1.425,1.387-2.248,2.186C269.698,260.031,271.217,258.623,271.009,257.477z"
		/>
	<path fill="#1E1C1D" d="M290.247,244.455c-0.632,0.913-1.12,1.614-1.695,2.443C289.665,246.886,290.48,245.745,290.247,244.455z"/>
	<path fill="#1E1C1D" d="M290.714,236.793c-0.285,0.403-0.489,0.869-0.678,1.328c-0.062,0.153,0.023,0.364,0.044,0.548
		c0.208-0.072,0.524-0.083,0.606-0.227c0.347-0.603,0.624-1.244,0.929-1.871c-0.055-0.069-0.106-0.139-0.162-0.208
		C291.201,236.502,290.863,236.583,290.714,236.793z"/>
	<path fill="#1E1C1D" d="M286.574,251.348c0.062-0.157-0.023-0.369-0.043-0.556c-0.188,0.047-0.45,0.033-0.556,0.152
		c-0.323,0.368-0.584,0.787-0.87,1.188C285.735,252.513,286.217,252.262,286.574,251.348z"/>
	<path fill="#1E1C1D" d="M257.504,242.194c0.281-0.9,0.994-1.463,0.373-2.501C257.448,240.544,256.775,241.113,257.504,242.194z"/>
	<path fill="#1E1C1D" d="M257.939,260.07c-0.193-0.069-0.388-0.14-0.58-0.209c-0.218,0.529-0.433,1.057-0.648,1.586
		c0.174,0.068,0.347,0.137,0.522,0.204C257.469,261.125,257.703,260.597,257.939,260.07z"/>
	<path fill="#1E1C1D" d="M257.02,257.244c-0.98,0.154-1.622,1.993-0.941,2.811C256.376,259.164,256.674,258.273,257.02,257.244z"/>
	<path fill="#1E1C1D" d="M260.935,250.109c0.405-0.42,0.813-0.841,1.283-1.328c-0.243-0.205-0.388-0.326-0.532-0.447
		c-0.348,0.464-0.705,0.921-1.028,1.403C260.627,249.782,260.836,249.982,260.935,250.109z"/>
	<path fill="#1E1C1D" d="M257.805,263.878c0.295-0.386,0.526-0.819,0.842-1.337c-1.123-0.354-1.081,0.545-1.422,0.937
		c-0.086,0.097,0.021,0.356,0.038,0.54C257.448,263.975,257.717,263.992,257.805,263.878z"/>
	<path fill="#1E1C1D" d="M260.508,251.595c-0.297,0.419-0.566,0.859-0.818,1.307c-0.016,0.03,0.18,0.177,0.275,0.269
		c0.277-0.293,0.573-0.574,0.827-0.887c0.122-0.148,0.168-0.357,0.319-0.697C260.768,251.587,260.554,251.533,260.508,251.595z"/>
	<path fill="#1E1C1D" d="M256.19,253.183c-1.167,0.18-1.335,1.06-1.854,1.617C255.141,255.053,255.388,254.845,256.19,253.183z"/>
	<path fill="#1E1C1D" d="M258.734,246.587c-0.248,0.378-0.555,0.733-0.72,1.144c-0.089,0.226,0.064,0.545,0.108,0.823
		c0.098,0,0.194,0.001,0.291,0.001c0.224-0.469,0.488-0.928,0.648-1.417C259.108,247.003,258.852,246.772,258.734,246.587z"/>
	<path fill="#1E1C1D" d="M259.362,241.867c1.075,0.038,1.726-0.977,1.198-1.991C260.109,240.626,259.759,241.21,259.362,241.867z"/>
	<path fill="#1E1C1D" d="M254.16,252.276c0.16-0.542,0.334-1.082,0.463-1.63c0.012-0.05-0.25-0.163-0.383-0.246
		c-0.176,0.44-0.369,0.875-0.513,1.325c-0.044,0.134,0.05,0.312,0.082,0.47C253.926,252.223,254.043,252.25,254.16,252.276z"/>
	<path fill="#1E1C1D" d="M254.215,245.271c0.092-0.694,0.186-1.39,0.284-2.132C253.353,243.405,253.234,244.009,254.215,245.271z"/>
	<path fill="#1E1C1D" d="M259.08,242.998c-0.359,0.695-0.72,1.391-1.081,2.087C259.117,244.983,259.516,244.177,259.08,242.998z"/>
	<path fill="#1E1C1D" d="M254.63,233.847c-0.596,0.277-0.71,1.545-0.131,2.069c0.213-0.58,0.429-1.129,0.612-1.688
		c0.034-0.105-0.019-0.298-0.101-0.367C254.93,233.797,254.738,233.798,254.63,233.847z"/>
	<path fill="#1E1C1D" d="M254.423,240.375c-0.366,0.589-0.692,1.111-1.141,1.831C254.526,242.04,254.983,241.238,254.423,240.375z"
		/>
	<path fill="#1E1C1D" d="M254.894,261.469c-0.229,0.641-0.424,1.182-0.697,1.941C255.297,262.913,255.551,262.156,254.894,261.469z"
		/>
	<path fill="#1E1C1D" d="M255.918,271.471c-1.031,0.007-1.375,0.773-0.774,2.187C255.462,272.755,255.685,272.131,255.918,271.471z"
		/>
	<path fill="#1E1C1D" d="M254.169,239.102c0.074,0.118,0.149,0.235,0.223,0.353c0.273-0.167,0.639-0.273,0.799-0.514
		c0.269-0.402,0.404-0.89,0.594-1.34c-0.132-0.061-0.266-0.12-0.396-0.18C254.983,237.981,254.575,238.542,254.169,239.102z"/>
	<path fill="#1E1C1D" d="M256.34,249.819c-0.438,0.461-1.073,0.854-0.683,1.955c0.472-0.604,0.811-1.003,1.1-1.432
		c0.073-0.107,0.025-0.339-0.048-0.473C256.674,249.801,256.392,249.762,256.34,249.819z"/>
	<path fill="#1E1C1D" d="M257.904,235.95c-0.036,0.048,0.188,0.292,0.445,0.669c0.486-0.75,0.871-1.341,1.253-1.933
		c-0.14-0.086-0.382-0.267-0.403-0.245C258.746,234.927,258.309,235.425,257.904,235.95z"/>
	<path fill="#1E1C1D" d="M260.034,236.589c-0.153,0.028-0.301,0.142-0.429,0.246c-0.337,0.278-0.66,0.568-0.99,0.854
		c-0.039,0.113-0.08,0.227-0.121,0.34c0.344,0,0.799,0.137,1.004-0.03c0.353-0.286,0.557-0.756,0.797-1.163
		C260.313,236.809,260.107,236.576,260.034,236.589z"/>
	<path fill="#1E1C1D" d="M259.459,259.93c0.064-0.87,0.121-1.64,0.178-2.408C258.629,258.361,258.602,259.393,259.459,259.93z"/>
	<path fill="#1E1C1D" d="M254.64,248.631c0.755,0.08,1.224-0.498,1.535-1.904C255.313,246.635,255.052,246.959,254.64,248.631z"/>
	<path fill="#1E1C1D" d="M256.653,234.194c-0.011,0.021,0.344,0.29,0.353,0.28c0.357-0.373,0.697-0.765,1.126-1.253
		c-0.316-0.163-0.601-0.337-0.618-0.315C257.201,233.317,256.917,233.751,256.653,234.194z"/>
	<path fill="#1E1C1D" d="M261.76,247.065c0.298-0.796,0.559-1.486,0.868-2.31C261.255,245.25,260.907,246.273,261.76,247.065z"/>
	<path fill="#1E1C1D" d="M265.031,259.656c0.309-0.078,0.688-0.072,0.903-0.257c0.365-0.308,0.624-0.737,0.927-1.116
		c-0.226-0.055-0.544-0.232-0.658-0.146c-0.47,0.356-0.875,0.794-1.307,1.201C264.942,259.445,264.986,259.551,265.031,259.656z"/>
	<path fill="#1E1C1D" d="M266.377,263.579c-0.041-0.101-0.557-0.171-0.63-0.08c-0.38,0.464-0.685,0.987-1.103,1.618
		C265.359,265.196,266.549,264.02,266.377,263.579z"/>
	<path fill="#1E1C1D" d="M265.953,270.496c0.082-0.127,0.099-0.334,0.063-0.482c-0.02-0.074-0.238-0.156-0.354-0.14
		c-0.55,0.079-1.016,1.282-0.648,1.919C265.373,271.302,265.683,270.911,265.953,270.496z"/>
	<path fill="#1E1C1D" d="M268.918,262.885c-0.07-0.107-0.142-0.215-0.213-0.322c-0.502,0.275-1.001,0.552-1.5,0.828
		c0.062,0.113,0.125,0.228,0.188,0.342C268.098,263.828,268.676,263.682,268.918,262.885z"/>
	<path fill="#1E1C1D" d="M268.611,251.478c0.316-0.419,0.609-0.854,0.912-1.283c-0.02-0.11-0.043-0.22-0.064-0.331
		c-0.295,0.104-0.705,0.121-0.861,0.328c-0.312,0.404-0.486,0.911-0.691,1.385c-0.01,0.024,0.232,0.226,0.318,0.203
		C268.371,251.739,268.514,251.607,268.611,251.478z"/>
	<path fill="#1E1C1D" d="M267.363,266.777c-0.801-0.116-1.348,0.585-1.429,1.813C266.993,268.361,266.984,267.45,267.363,266.777z"
		/>
	<path fill="#1E1C1D" d="M265.609,254.427c0.926-0.23,1.072-1.083,1.445-1.753c-0.148-0.115-0.297-0.229-0.446-0.344
		c-0.442,0.618-0.882,1.237-1.324,1.856C265.392,254.265,265.502,254.346,265.609,254.427z"/>
	<path fill="#1E1C1D" d="M270.707,260.404c-0.533,0.352-1.063,0.705-1.731,1.149C269.897,262.107,270.475,261.753,270.707,260.404z"
		/>
	<path fill="#1E1C1D" d="M266.872,245.095c-0.062-0.045-0.313,0.032-0.359,0.117c-0.286,0.533-0.538,1.084-0.803,1.631
		c0.188,0.088,0.378,0.175,0.569,0.263c0.285-0.534,0.588-1.061,0.84-1.611C267.158,245.409,266.993,245.185,266.872,245.095z"/>
	<path fill="#1E1C1D" d="M267.16,261.373c0.232-0.391,0.482-0.771,0.682-1.176c0.062-0.126-0.012-0.318-0.023-0.48
		c-0.189,0.03-0.499,0-0.552,0.102c-0.229,0.445-0.386,0.927-0.569,1.396C266.852,261.268,267.008,261.32,267.16,261.373z"/>
	<path fill="#1E1C1D" d="M266.902,255.472c-0.438,0.68-0.791,1.225-1.174,1.817C266.797,257.438,267.305,256.718,266.902,255.472z"
		/>
	<path fill="#1E1C1D" d="M266.123,239.542c0.068,0.075,0.137,0.15,0.209,0.226c0.568-0.538,1.137-1.076,1.814-1.718
		C267.012,237.834,266.504,238.276,266.123,239.542z"/>
	<path fill="#1E1C1D" d="M263.433,256.833c0.653-0.382,0.754-0.966,0.552-1.662c-0.117-0.041-0.231-0.083-0.348-0.125
		c-0.197,0.55-0.395,1.099-0.592,1.649C263.174,256.741,263.305,256.788,263.433,256.833z"/>
	<path fill="#1E1C1D" d="M264.139,261.42c-0.219,0.903-0.386,1.595-0.59,2.433C264.665,263.405,264.924,262.358,264.139,261.42z"/>
	<path fill="#1E1C1D" d="M261.583,252.86c0.968,0.198,1.785-0.763,1.758-1.784c-0.097-0.065-0.19-0.131-0.284-0.196
		C262.582,251.517,262.107,252.153,261.583,252.86z"/>
	<path fill="#1E1C1D" d="M262.463,237.497c-0.55,0.109-0.801,1.21-0.328,1.795c0.271-0.451,0.507-0.805,0.697-1.183
		c0.064-0.127,0.059-0.336-0.003-0.466C262.786,237.553,262.576,237.474,262.463,237.497z"/>
	<path fill="#1E1C1D" d="M261.457,236.586c1.043,0.175,1.262-0.027,1.668-1.172c-0.077-0.077-0.156-0.154-0.234-0.231
		C262.47,235.597,262.046,236.011,261.457,236.586z"/>
	<path fill="#1E1C1D" d="M270.105,254.88c-0.156,0.008-0.364,0.096-0.449,0.218c-0.261,0.374-0.477,0.779-0.766,1.268
		c0.653,0.12,1.623-0.74,1.494-1.204C270.354,255.045,270.197,254.875,270.105,254.88z"/>
	<path fill="#1E1C1D" d="M264.798,236.619c-0.038,0.083,0.058,0.29,0.151,0.354c0.092,0.063,0.352,0.064,0.379,0.011
		c0.361-0.682,0.693-1.377,1.033-2.069c-0.188-0.092-0.377-0.184-0.566-0.275C265.459,235.297,265.112,235.951,264.798,236.619z"/>
	<path fill="#1E1C1D" d="M255.551,267.753c0.321-0.862,0.603-1.626,0.988-2.665C255.256,265.824,254.88,266.947,255.551,267.753z"/>
	<path fill="#1E1C1D" d="M263.792,241.619c0.486-0.935,0.927-1.781,1.366-2.626c-0.1-0.046-0.197-0.091-0.299-0.138
		C263.705,239.653,263.229,240.731,263.792,241.619z"/>
	<path fill="#1E1C1D" d="M263.886,259.672c-0.135-0.072-0.271-0.145-0.405-0.216c-0.407,0.475-1.189,0.778-0.939,1.557
		c0.131,0.066,0.261,0.134,0.392,0.201C263.252,260.699,263.57,260.186,263.886,259.672z"/>
	<path fill="#1E1C1D" d="M261.924,266.317c0.26-0.771,0.466-1.377,0.67-1.983c-0.099-0.032-0.199-0.065-0.298-0.097
		C261.464,264.939,261.328,265.409,261.924,266.317z"/>
	<path fill="#1E1C1D" d="M276.045,275.125c-0.953,0.813-1.165,1.402-0.732,2.029C276.188,276.275,276.411,275.66,276.045,275.125z"
		/>
	<path fill="#1E1C1D" d="M285.472,257.953c0.101-0.15,0.085-0.376,0.124-0.566c-0.22,0.015-0.499-0.051-0.646,0.058
		c-0.484,0.354-0.92,0.771-1.455,1.233C284.274,259.047,284.904,258.801,285.472,257.953z"/>
	<path fill="#1E1C1D" d="M271.426,241.707c0.387,0.058,0.625,0.167,0.715,0.095c0.318-0.258,0.601-0.564,0.855-0.884
		c0.036-0.045-0.149-0.262-0.231-0.399c-0.273,0.193-0.556,0.373-0.813,0.583C271.799,241.226,271.689,241.397,271.426,241.707z"/>
	<path fill="#1E1C1D" d="M275.789,270.553c0.303-0.652,0.589-1.27,0.944-2.037C275.393,268.891,275.021,269.813,275.789,270.553z"/>
	<path fill="#1E1C1D" d="M277.394,254.067c-0.589,0.725-1.111,1.366-1.591,1.955C276.427,256.16,277.386,255.243,277.394,254.067z"
		/>
	<path fill="#1E1C1D" d="M274.169,257.069c-0.407,0.362-0.79,0.757-1.181,1.144c0.143,0.088,0.357,0.283,0.413,0.246
		c0.431-0.299,0.829-0.639,1.315-1.027C274.436,257.24,274.201,257.043,274.169,257.069z"/>
	<path fill="#1E1C1D" d="M274.578,248.452c-0.394,0.653-0.762,1.321-1.134,1.988c0.175,0.059,0.479,0.202,0.505,0.165
		c0.395-0.596,0.752-1.214,1.164-1.906C274.9,248.6,274.588,248.437,274.578,248.452z"/>
	<path fill="#1E1C1D" d="M273.227,269.924c0.059-0.055-0.064-0.29-0.101-0.441c-0.364,0.222-0.737,0.431-1.089,0.673
		c-0.098,0.067-0.125,0.233-0.188,0.354c0.082,0.119,0.165,0.238,0.246,0.357C272.478,270.557,272.871,270.26,273.227,269.924z"/>
	<path fill="#1E1C1D" d="M271.55,248.856c0.112,0.064,0.421,0.019,0.47-0.07c0.277-0.516,0.501-1.059,0.742-1.592
		c-0.169-0.072-0.34-0.143-0.509-0.214c-0.284,0.475-0.589,0.939-0.839,1.432C271.359,248.519,271.446,248.795,271.55,248.856z"/>
	<path fill="#1E1C1D" d="M272.898,279.344c0.316-0.27,0.583-0.602,0.836-0.932c0.033-0.047-0.109-0.225-0.17-0.342
		c-0.303,0.191-0.611,0.373-0.902,0.58c-0.139,0.098-0.242,0.245-0.512,0.533C272.539,279.274,272.814,279.416,272.898,279.344z"/>
	<path fill="#1E1C1D" d="M274.318,258.754c-0.605,0.586-1.088,1.032-1.54,1.504c-0.071,0.072-0.075,0.292-0.014,0.381
		c0.057,0.084,0.284,0.157,0.356,0.111C273.773,260.346,274.526,259.993,274.318,258.754z"/>
	<path fill="#1E1C1D" d="M273.839,266.181c-0.347,0.464-0.729,0.903-1.011,1.401c-0.091,0.163,0.041,0.658,0.148,0.686
		C273.44,268.381,274.359,266.988,273.839,266.181z"/>
	<path fill="#1E1C1D" d="M276.834,233.355c-1.027,0.753-1.306,1.732-0.635,2.624c0.338-0.894,0.642-1.708,0.949-2.523
		C277.043,233.422,276.938,233.388,276.834,233.355z"/>
	<path fill="#1E1C1D" d="M281.855,250.674c0.089,0.232,0.227,0.63,0.348,0.631c0.464,0.002,0.936-1.375,0.59-1.936
		c-0.319,0.402-0.566,0.708-0.803,1.021C281.926,250.475,281.828,250.605,281.855,250.674z"/>
	<path fill="#1E1C1D" d="M283.752,256.587c0.091-0.064,0.012-0.36,0.012-0.55c-0.19,0.024-0.46-0.021-0.556,0.084
		c-0.346,0.382-0.634,0.816-1.044,1.368C283.304,257.895,283.304,256.905,283.752,256.587z"/>
	<path fill="#1E1C1D" d="M281.437,268.196c0.283-0.382,0.567-0.763,0.852-1.146c-0.069-0.104-0.138-0.21-0.206-0.314
		c-0.321,0.177-0.72,0.29-0.935,0.551c-0.16,0.194-0.082,0.579-0.109,0.879C281.17,268.177,281.303,268.186,281.437,268.196z"/>
	<path fill="#1E1C1D" d="M282.423,248.458c0.128,0.053,0.258,0.105,0.384,0.158c0.256-0.631,0.511-1.263,0.824-2.04
		C282.515,246.801,282.281,247.257,282.423,248.458z"/>
	<path fill="#1E1C1D" d="M284.658,265.365c-0.519,0.402-0.967,0.754-1.549,1.205C284.255,266.943,284.816,266.488,284.658,265.365z"
		/>
	<path fill="#1E1C1D" d="M284.041,262.172c0.252-0.283,0.348-0.7,0.511-1.059c-0.132-0.071-0.266-0.142-0.398-0.213
		c-0.39,0.415-0.776,0.828-1.163,1.243c0.055,0.147,0.109,0.295,0.165,0.442C283.46,262.454,283.847,262.396,284.041,262.172z"/>
	<path fill="#1E1C1D" d="M282.417,254.677c0.134,0.089,0.271,0.178,0.408,0.267c0.479-0.57,0.957-1.141,1.693-2.015
		c-0.527,0-0.89-0.095-0.975,0.017C283.127,253.492,282.786,254.094,282.417,254.677z"/>
	<path fill="#1E1C1D" d="M285.295,240.267c0.093,0.065,0.184,0.13,0.275,0.196c1.081-0.466,1.348-0.977,0.79-1.811
		C285.982,239.226,285.639,239.746,285.295,240.267z"/>
	<path fill="#1E1C1D" d="M285.346,245.962c0.747,0.099,1.646-0.769,1.497-1.34c-0.03-0.11-0.176-0.248-0.282-0.266
		c-0.115-0.019-0.311,0.055-0.369,0.15C285.898,244.968,285.637,245.452,285.346,245.962z"/>
	<path fill="#1E1C1D" d="M283.045,243.461c0.177,0.139,0.35,0.276,0.524,0.415c0.516-0.703,1.028-1.405,1.543-2.107
		c-0.156-0.115-0.312-0.231-0.47-0.347C284.11,242.101,283.579,242.782,283.045,243.461z"/>
	<path fill="#1E1C1D" d="M286.692,247.58c-0.087-0.077-0.177-0.154-0.264-0.232c-0.455,0.636-0.909,1.271-1.385,1.935
		C285.98,249.642,286.612,248.922,286.692,247.58z"/>
	<path fill="#1E1C1D" d="M259.156,273.8c0.424-0.458,0.791-0.968,1.146-1.481c0.019-0.025-0.329-0.361-0.36-0.342
		c-0.552,0.383-1.086,0.797-1.622,1.203c0.066,0.143,0.134,0.284,0.199,0.428C258.738,273.678,259.092,273.869,259.156,273.8z"/>
	<path fill="#1E1C1D" d="M264.258,265.452c-0.519,0.823-0.908,1.44-1.298,2.058c0.046,0.106,0.093,0.213,0.138,0.318
		c0.243-0.082,0.642-0.107,0.699-0.259C264.02,266.983,264.798,266.514,264.258,265.452z"/>
	<path fill="#1E1C1D" d="M268.655,275.566c-0.138-0.085-0.378-0.268-0.403-0.242c-0.492,0.494-0.969,1.008-1.424,1.539
		c-0.029,0.037,0.154,0.253,0.354,0.566C267.731,276.736,268.191,276.151,268.655,275.566z"/>
	<path fill="#1E1C1D" d="M267.044,272.393c-0.122-0.042-0.24-0.084-0.36-0.127c-1.008,0.892-1.262,1.62-0.686,2.533
		C266.385,273.912,266.715,273.152,267.044,272.393z"/>
	<path fill="#1E1C1D" d="M261.982,255.946c0.024-0.162,0.043-0.35-0.021-0.49c-0.039-0.083-0.25-0.154-0.362-0.13
		c-0.423,0.089-0.733,1.179-0.403,1.795c0.26-0.388,0.432-0.65,0.605-0.911C261.859,256.121,261.966,256.041,261.982,255.946z"/>
	<path fill="#1E1C1D" d="M264.803,278.54c0.281-0.411,0.543-0.841,0.774-1.284c0.124-0.236,0.167-0.514,0.245-0.772
		c-0.15-0.068-0.303-0.136-0.453-0.204c-0.418,0.682-0.857,1.351-1.23,2.055c-0.076,0.14,0.107,0.412,0.172,0.625
		C264.478,278.82,264.684,278.71,264.803,278.54z"/>
	<path fill="#1E1C1D" d="M261.629,271.896c0.145,0.029,0.41-0.004,0.459-0.095c0.368-0.732,0.7-1.485,1.045-2.231
		c-0.2-0.083-0.4-0.167-0.597-0.252c-0.354,0.741-0.718,1.478-1.05,2.228C261.447,271.632,261.556,271.881,261.629,271.896z"/>
	<path fill="#1E1C1D" d="M258.67,270.701c0.009-0.021-0.25-0.19-0.383-0.292c-0.266,0.493-0.533,0.987-0.795,1.483
		c-0.007,0.012,0.043,0.053,0.254,0.298C258.088,271.654,258.393,271.186,258.67,270.701z"/>
	<path fill="#1E1C1D" d="M257.555,268.07c-0.127-0.049-0.255-0.098-0.381-0.146c-0.245,0.547-0.488,1.096-0.731,1.645
		c0.153,0.059,0.305,0.117,0.458,0.178C257.217,269.221,257.873,268.814,257.555,268.07z"/>
	<path fill="#1E1C1D" d="M259.878,263.189c0.187-1.004,1.644-1.016,1.549-2.269C259.825,261.569,259.291,262.291,259.878,263.189z"
		/>
	<path fill="#1E1C1D" d="M260.416,275.432c0.466-0.293,0.895-0.759,0.362-1.399c-0.501,0.419-0.967,0.808-1.433,1.194
		c-0.036,0.111-0.072,0.221-0.107,0.332C259.637,275.526,260.119,275.621,260.416,275.432z"/>
	<path fill="#1E1C1D" d="M260.643,267.973c-0.412,0.459-0.996,0.862-0.707,1.557c0.135,0.053,0.272,0.104,0.407,0.156
		c0.239-0.516,0.477-1.031,0.714-1.548C260.919,268.083,260.781,268.027,260.643,267.973z"/>
	<path fill="#1E1C1D" d="M269.951,253.384c0.691-0.876,1.236-1.568,1.934-2.452C270.633,251.054,269.773,252.16,269.951,253.384z"/>
	<path fill="#1E1C1D" d="M273.474,243.193c-0.222,0.456-0.307,0.977-0.45,1.471c0.229-0.033,0.602,0.007,0.662-0.11
		c0.285-0.554,0.488-1.151,0.719-1.732c-0.066-0.074-0.133-0.148-0.199-0.223C273.953,242.794,273.601,242.939,273.474,243.193z"/>
	<path fill="#1E1C1D" d="M273.165,263.176c0.071-0.16-0.075-0.596-0.19-0.623c-0.486-0.115-1.141,1.047-0.686,2.032
		C272.656,264.014,272.963,263.618,273.165,263.176z"/>
	<path fill="#1E1C1D" d="M272.214,255.09c0.425-0.738,0.722-1.26,1.063-1.86C272.15,253.211,271.787,253.793,272.214,255.09z"/>
	<path fill="#1E1C1D" d="M274.811,246.754c0.529-0.732,1.134-1.439,0.611-2.421C275.01,245.094,274.352,245.806,274.811,246.754z"/>
	<path fill="#1E1C1D" d="M274.002,255.2c0.074-0.054-0.002-0.306-0.012-0.467c-0.188,0.02-0.451-0.031-0.55,0.072
		c-0.344,0.361-0.631,0.775-1.032,1.29C273.609,256.762,273.541,255.536,274.002,255.2z"/>
	<path fill="#1E1C1D" d="M272.242,236.008c1.185,0.11,1.729-0.438,1.504-1.581C273.181,235.022,272.76,235.464,272.242,236.008z"/>
	<path fill="#1E1C1D" d="M270.074,266.448c0.455-0.433,0.912-0.866,1.48-1.406C270.41,264.786,269.902,265.252,270.074,266.448z"/>
	<path fill="#1E1C1D" d="M270.471,271.896c0.07-0.109-0.076-0.351-0.122-0.531c-0.158,0.053-0.374,0.059-0.468,0.166
		c-0.325,0.375-0.607,0.785-1.02,1.332C270.01,273.332,270.138,272.422,270.471,271.896z"/>
	<path fill="#1E1C1D" d="M268.999,264.115c-0.371,0.405-0.759,0.799-1.101,1.229c-0.066,0.085,0.005,0.338,0.09,0.461
		c0.051,0.069,0.33,0.095,0.381,0.036c0.38-0.446,0.73-0.92,1.094-1.386C269.306,264.342,269.152,264.229,268.999,264.115z"/>
	<path fill="#1E1C1D" d="M274.263,239.127c-0.06,0.086,0.138,0.336,0.325,0.754c0.42-0.73,0.745-1.261,1.022-1.814
		c0.039-0.078-0.151-0.266-0.233-0.403C274.998,238.147,274.6,238.618,274.263,239.127z"/>
</g>
</svg>
