<?xml version="1.0" encoding="utf-8"?>
<!-- Generator: Adobe Illustrator 16.0.0, SVG Export Plug-In . SVG Version: 6.00 Build 0)  -->
<!DOCTYPE svg PUBLIC "-//W3C//DTD SVG 1.1//EN" "http://www.w3.org/Graphics/SVG/1.1/DTD/svg11.dtd">
<svg version="1.1" id="Layer_1" xmlns="http://www.w3.org/2000/svg" xmlns:xlink="http://www.w3.org/1999/xlink" x="0px" y="0px"
	 width="512px" height="512px" viewBox="0 0 512 512" enable-background="new 0 0 512 512" xml:space="preserve">
<g>
	
		<rect x="138.536" y="328.414" transform="matrix(0.7071 -0.7071 0.7071 0.7071 -189.8955 219.4228)" fill="#878785" stroke="#212222" stroke-width="14" stroke-miterlimit="10" width="62.765" height="21.043"/>
	<circle fill="#878785" stroke="#212222" stroke-width="14" stroke-miterlimit="10" cx="136.058" cy="372.272" r="28.036"/>
	<path fill="#878785" stroke="#212222" stroke-width="14" stroke-miterlimit="10" d="M184.67,309.305l7.134,7.221l-0.001,0.002
		l0.132,0.13l0.13,0.132l0.001-0.001l7.221,7.134c0,0,19.079,19.751,44.869,13.053l-36.138-36.139l-0.262-0.262l-36.139-36.139
		C164.919,290.226,184.67,309.305,184.67,309.305z"/>
	<polygon fill="#878785" stroke="#212222" stroke-width="14" stroke-miterlimit="10" points="387.335,117.459 339.503,133.118 
		189.966,282.655 204.815,297.504 205.966,298.655 206.139,298.828 207.29,299.979 222.139,314.828 371.677,165.291 	"/>
	<polygon fill="#9B9B9B" points="210.565,294.229 376.735,128.059 343.426,139.297 199.529,283.193 	"/>
</g>
<path fill="#9B9B9B" d="M177.285,280.342l23.382,22.772l-6.58,5.857C194.087,308.972,178.248,294.344,177.285,280.342z"/>
<path fill="#9B9B9B" d="M117,381.667c0,0,19.124-28.884,31.667-25.334c0,0-11.29-10.784-25.667-0.303
	C123,356.03,111.006,366.247,117,381.667z"/>
</svg>
