<?xml version="1.0" encoding="utf-8"?>
<!-- Generator: Adobe Illustrator 16.0.0, SVG Export Plug-In . SVG Version: 6.00 Build 0)  -->
<!DOCTYPE svg PUBLIC "-//W3C//DTD SVG 1.1//EN" "http://www.w3.org/Graphics/SVG/1.1/DTD/svg11.dtd">
<svg version="1.1" id="Layer_1" xmlns="http://www.w3.org/2000/svg" xmlns:xlink="http://www.w3.org/1999/xlink" x="0px" y="0px"
	 width="512px" height="512px" viewBox="0 0 512 512" enable-background="new 0 0 512 512" xml:space="preserve">
<g>
	<g>
		
			<rect x="137.268" y="386.124" transform="matrix(-0.9788 0.2047 -0.2047 -0.9788 414.3289 747.9711)" fill="#878785" stroke="#212222" stroke-width="14" stroke-miterlimit="10" width="62.42" height="18.584"/>
		
			<ellipse transform="matrix(-0.2047 -0.9788 0.9788 -0.2047 -249.0267 607.1983)" fill="#8E8D73" stroke="#212222" stroke-width="14" stroke-miterlimit="10" cx="122.159" cy="404.766" rx="24.76" ry="27.881"/>
		<path fill="#8E8D73" stroke="#212222" stroke-width="14" stroke-miterlimit="10" d="M197.127,379.943l1.775,8.787H198.9
			l0.035,0.16l0.032,0.16h0.002l1.895,8.762c0,0,4.501,23.834,29.305,30.827l-9.238-44.181l-0.068-0.32l-9.238-44.182
			C191.702,356.305,197.127,379.943,197.127,379.943z"/>
		<polygon fill="#8E8D73" stroke="#212222" stroke-width="14" stroke-miterlimit="10" points="470.072,329.773 422.256,319.244 
			216.388,362.293 220.184,380.445 220.479,381.854 220.522,382.064 220.817,383.473 224.613,401.626 430.481,358.578 		"/>
		<polygon fill="#C1C0A7" points="226.713,380.661 455.479,332.824 421.994,325.744 223.892,367.169 		"/>
	</g>
	<path fill="#C1C0A7" d="M101.5,406.896c0,0,20.569-16.162,39-11.469c0,0-8-10.928-19.5-7.928
		C121,387.5,100.485,390.598,101.5,406.896z"/>
</g>
</svg>
