<?xml version="1.0" encoding="utf-8"?>
<!-- Generator: Adobe Illustrator 16.0.0, SVG Export Plug-In . SVG Version: 6.00 Build 0)  -->
<!DOCTYPE svg PUBLIC "-//W3C//DTD SVG 1.1//EN" "http://www.w3.org/Graphics/SVG/1.1/DTD/svg11.dtd">
<svg version="1.1" id="Layer_1" xmlns="http://www.w3.org/2000/svg" xmlns:xlink="http://www.w3.org/1999/xlink" x="0px" y="0px"
	 width="512px" height="512px" viewBox="0 0 512 512" enable-background="new 0 0 512 512" xml:space="preserve">
<g>
	<path fill="#FFFFFF" stroke="#000000" stroke-width="14" stroke-miterlimit="10" d="M287.842,229.172
		c0,0,14.174-23.485,15.217-27.044c1.043-3.558-8.514-7.814-5.846-14.407c2.666-6.594,6.056-34.351,11.987-31.027
		c5.931,3.325,21.224,1.045,22.542,6.082c1.322,5.037,11.869,19.555,1.936,14.771s-20.449-13.332-20.365-8.153
		c0.083,5.178,8.459,28.134,4.729,28.858c-3.731,0.722-10.667,13.334-12.03,15.478c-1.363,2.141-2.803,11.961-0.979,15.512
		c1.822,3.551,5.717,13.194-2.008,12.354c-7.726-0.839-4.305-9.632-6.87-7.927C293.592,235.371,284.917,234.064,287.842,229.172z"/>
	<path fill="#FFFFFF" stroke="#000000" stroke-width="14" stroke-miterlimit="10" d="M364.109,259.801
		c0.035-1.033,0.928-0.672,1.329-1.057c-0.771-1.195-1.724-0.187-2.598-0.159c-0.077-0.227-0.157-0.452-0.239-0.677
		c-0.955,0.505-1.649-0.402-2.501-0.459c-0.024-0.844-1.108-0.586-1.208-1.354c0.195-1.113,0.924-2.236-0.457-3.169
		c-0.418-0.284-0.957-1.491,0.154-2.167c0.016-0.722-0.631-0.737-0.978-1.076c-0.573-0.003-1.181,0.524-1.714-0.073
		c-0.243,0.076-0.486,0.149-0.73,0.224c-0.36-1.69-0.723-3.381-1.084-5.071c-1.104-1.346-2.941,0.044-4.088-1.149
		c0.408-2.964-0.999-5.053-2.725-6.984c-0.944-1.344-2.213-1.218-3.545-0.799c-0.074-0.255-0.148-0.51-0.223-0.765
		c-2.036-0.353-3.947-1.3-6.061-1.283c-0.082-0.221-0.165-0.444-0.248-0.665c-0.09-0.355-0.282-0.573-0.573-0.806
		c-3.606-2.874-7.988-3.089-12.217-3.833c-0.912-0.365-2.032-0.126-2.761-1.024c-0.59,0.202-1.11,0.021-1.697-0.094
		c-2.081-0.4-3.909-1.872-6.161-1.498c-0.068-0.25-0.136-0.499-0.204-0.749c0.869-1.145,1.115-2.437,0.883-3.841
		c-0.463-0.006-0.881-0.084-0.985-0.679c-0.905,0.458-1.647-0.672-2.552-0.217c-0.217-0.15-0.488-0.48-0.646-0.423
		c-2.785,1.007-5.713,0.398-8.508,1.204c-2.746,0.415-5.535,0.194-8.247,0.603c-6.456,0.972-12.532-0.818-18.722-1.833
		c-0.943-0.154-1.689-0.729-2.395-1.612c-2.014-2.524-3.87-5.195-6.228-7.417c-3.403-3.205-7.396-5.493-10.951-8.438
		c-5.878-4.872-5.478-3.002-2.322-10.666c3.01-7.31,5.894-14.571,6.747-22.543c0.322-3.008-0.138-4.296-2.248-5.182
		c-2.094,0.224-3.902,1.561-5.949,1.961c-1.996,0.934-4.064,1.715-5.971,2.835c-3.239,1.904-6.33,4.116-9.567,6.023
		c-3.288,1.936-4.47,4.215-2.963,6.945c1.251,2.266,2.459,4.637,4.447,6.325c0.703,0.598,1.146,1.02-0.022,1.934
		c-1.037,0.812-2.173,1.713-2.961,2.778c-3.85,5.203-7.198,10.798-10.578,16.354c-0.792,1.3-0.2,2.8,0.797,4.067
		c3.088,3.925,6.983,6.821,10.993,9.389c3.844,2.461,5.623,8.504,4.587,12.854c-0.786,3.304-1.825,6.519-2.724,9.781
		c-1.271,4.606-2.15,9.329-4.152,13.719c-2.9,6.363-5.572,12.845-8.541,19.172c-1.009,2.15-0.425,3.541,0.769,5.012
		c0.684,0.842,1.673,1.422,1.91,2.647c1.264,0.54,1.863,1.687,2.293,2.982c0.511-0.14,1.023-0.279,1.534-0.42
		c-0.578,1.803-0.587,3.251,1.683,3.279c0.154-1.292,1.257-2.37,0.833-3.792c0.484-0.154,0.967-0.307,1.452-0.461
		c0.239,1.259,0.959,1.953,2.139,2.107c0.053,0.654,0.339,0.943,0.97,0.684c0,0-0.001,0.004-0.001,0.004
		c0.728,2.041,1.387,4.085,0.454,6.332c-0.216,0.519-0.302,1.096-0.455,1.645c-0.925,3.324-1.491,6.76-2.862,9.949
		c-1.355,0.429-2.291,1.419-2.655,2.83c-0.414,1.6-0.634,3.255-0.882,4.891c-0.427,2.821-0.285,5.699-1.994,8.299
		c-1.28,1.944-0.587,4.214-0.021,6.309c0.167,0.615,0.679,0.865,1.096,0.516c0.792-0.666,1.877-0.269,2.606-1.098
		c0.709-0.809,1.336-0.164,2.109-0.008c2.14,0.432,2.019,2.262,2.465,3.801c0.809,3.532,0.898,7.357,3.735,10.004
		c1.083,1.012,2.08,2.156,3.117,3.239c3.313,3.46,7.168,6.074,11.221,8.376l2.292-1.079c1.014-3.693,2.758-7.019,4.759-10.252
		c1.317-2.13,3.122-3.71,4.559-5.673c2.38-2.498,5.79-3.627,6.996-7.709c2.103-7.111,5.667-13.551,9.718-19.646
		c6.164-9.275,13.138-17.756,21.342-25.026c1.898-1.682,3.371-3.919,5.623-5.155c1.11-0.326,2.082-0.531,1.287,1.332
		c-0.118,0.275,0.078,0.697,0.128,1.053c0.024,0.515,0.229,0.853,0.755,0.719c1.855-0.473,3.774-0.477,5.605-0.855
		c7.104-1.467,14.075-3.707,21.24-4.92c3.979-0.674,7.875-2.032,11.827-2.982c1.911-0.459,3.791-0.952,5.808-0.98
		c4.365-0.061,5.873-1.235,6.643-4.512c0.18-0.762,0.475-1.624,0.416-2.306c-0.143-1.614,1.54-4.188-1.6-4.483
		c-0.086-0.787,0.413-0.987,0.975-1.139c0.62-0.164,1.227-0.351,1.003-1.282c-0.064-0.249-0.128-0.494-0.192-0.741
		C365.053,259.831,364.601,260.025,364.109,259.801z"/>
	<path fill="#8C8C8C" d="M235.114,179.249c0,0,14.911-10.896,21.586-11.978c0,0,0.998,9.537-8.961,30.693
		c0,0,0.994,4.104,4.525,5.85c3.531,1.745,18.223,14.155,20.001,18.646l-11.531-1.958l2.797-2.128l-0.625-2.998l-4.752-1.863
		l-5.988,1.648l-3.589-3.692l5.134-1.714l-1.452-2.921l-5.848-1.712l0.322-6.579l1.036-4.512l1.292-7.3c0,0,2.528-4.77,2.173-5.125
		c-0.356-0.355-8.82,2.276-8.82,2.276l11.258-7.477l-3.805-2.726c0,0-5.465,3.465-5.573,3.647c-0.108,0.18,1.118-2.723,1.118-2.723"
		/>
	<path fill="#8C8C8C" d="M275.01,229.552l12.66,3.761l28.088-0.787c0,0-15.361,3.322-18.098,5.735
		c-2.736,2.414-23.214,14.979-23.214,14.979l12.696-1.916c0,0,19.385-10.371,25.588-9.663c6.202,0.708,9.571-6.106,11.096-6.225
		c1.524-0.116,7.844-0.195,8.451,0.694c0.607,0.889-5.342,2.073-6.658,3.19c-1.316,1.118-15.874,8.294-16.377,8.583
		c-0.504,0.289,11.197-0.213,12.28-0.813c1.083-0.6,8.081-4.187,7.996,0.817c-0.085,5.005,6.011,1.819,6.631,0.743
		c0.622-1.077-1.959-6.707,1.875-6.555c0,0-1.558,14.165-3.127,14.748c-1.569,0.583-25.483,4.749-31.106,6.146
		c-5.623,1.396-16.807,11.267-16.807,11.267s41.078-13.72,42.766-12.373c1.689,1.347,10.686-1.432,11.988-1.941
		c1.302-0.508,4.797,1.398,4.619,1.9c-0.178,0.5-10.121,4.144-10.121,4.144l11.81-1.439l1.571,3.493l-18.084,3.768
		c0,0-16.217,5.973-15.801,6.613c0.414,0.642,0.415,1.999,0.415,1.999s35.556-7.067,41.396-9.128s0.119,0.571,0.119,0.571
		s5.988,0.013,4.801-5.699l-1.274-0.706c0,0,0.589-6.651-3.613-5.194c0,0-0.417-1.998-1.187-2.993c0,0-0.387-1.857,0.117-2.147
		c0.502-0.289,0.502-0.289,0.502-0.289s-2.383-1.306-1.674-1.954c0.711-0.648-2.367,0.802-2.308-0.271l-1.366-5.209
		c0,0-0.963-1.244-4.797-2.755c0,0,0.545-2.112,0.412-3.434c-0.135-1.322-2.09-2.595-2.09-2.595l-3.465-0.405
		c0,0-0.074-2.396-5.816-1.569c0,0-0.578-1.427-1.904-3.061c0,0-17.697-4.526-19.215-4.711L275.01,229.552z"/>
	<path fill="#8C8C8C" d="M310.586,224.592l0.825,3.963c0,0-14.07-1.979-16.837-1.066c-2.768,0.912,7.871-2.771,9.01-3.386
		c1.141-0.616,6.202-0.65,6.202-0.65l1.407,0.669L310.586,224.592z"/>
	<path fill="#8C8C8C" d="M299.689,218.236l2.412,0.09c0,0,0.41-4.792,3.132-7.956c2.722-3.164,4.861-8.445,11.68-14.247
		c0,0-2.664-24.311-6.456-27.645l-1.92,4.302c0,0,1.525,1.241,2.207,3.167c0.682,1.925-2.944,5.188-2.944,5.188l-0.165,3.551
		c0,0,2.76-0.948,3.115-1.271c0.355-0.322,1.479-1.014,1.813-0.085c0.334,0.929,0.662,3.858,0.662,3.858l-4.602,2.927l-2.01,3.195
		l3.949,1.102l2.043-2.75l1.496,1.776c0,0,0.785,1.747-0.783,2.329c-1.568,0.583-3.141,1.14-3.863,2.41
		c-0.723,1.268-0.618,2.557-0.32,3.875c0.299,1.317-2.23,4.841-2.793,4.845c-0.563,0.003-5.5,10.268-5.5,10.268L299.689,218.236z"/>
	<path fill="#8C8C8C" d="M308.319,159.557c0,0,19.392,2.513,20.161,3.507c0.77,0.997-13.127-0.159-13.127-0.159
		s-5.287-3.074-6.381-0.207c-1.092,2.867-2.008,1.854-2.008,1.854l0.428,2.053c0,0-1.746-0.275-2.885,3.058
		C304.508,169.663,306.164,159.269,308.319,159.557z"/>
	<path fill="#8C8C8C" d="M243.854,188.77c0,0-6.89,7.482-7.393,9.13c-0.503,1.647,4.572-0.353,4.572-0.353s-9.008,7.46-9.169,10.07
		c-0.161,2.61,4.427,1.65,4.427,1.65l7.061,1.453l-8.789,2.419c0,0,2.249,0.664,3.922,1.26c1.672,0.597,5.743-0.825,6.853-0.226
		c1.11,0.6-2.973,2.63-4.349,3.461c-1.375,0.832,2.533,2.021,2.533,2.021s5.253-2.503,7.74-1.375c0,0-5.341,2.074-5.651,3.97
		c-0.309,1.896-2.158,4.519-2.302,9.238c0,0,0.936-6.343-9.431-13.858c0,0-7.1-4.688-7.382-6.723c0,0,8.527-17.895,12.374-18.351
		c0,0,2.707-2.555,1.536-4.799"/>
	<path fill="#FFFFFF" stroke="#000000" stroke-width="14" stroke-miterlimit="10" d="M255.867,232.951"/>
	<path fill="#8C8C8C" d="M256.397,224.013l-8.766,9.305c0,0-6.741,10.911-9.428,21.009c0,0-13.247,22.96-10.905,26.093
		s-1.512,3.559,3.791,4.682c5.302,1.121,6.304-0.324,6.304-0.324s1.034,23.594,0.266,25.314c-0.769,1.721-2.583-1.77-2.255,1.158
		c0.328,2.93-3.519,12.695-3.841,16.566c0,0,4.75-2.43,7.784,1.018c1.106,1.257,1.126,1.373,2.707,8.965
		c0,0,0.91,4.402,13.858,14.514c0,0,6.743-15.654,15.855-20.578c0,0,7.936-20.896,13.717-25.438c0,0-12.752,7.059-13.697,10.64
		c-0.945,3.58-11.338,9.458-11.338,9.458l23.408-34.01c0,0,6.586-6.244,8.57-6.187c1.982,0.059,5.431-3.911,5.431-3.911l1.432-0.997
		l-12.106,0.012c0,0-6.588,0.819-7.376,3.798c-0.788,2.978-7.298,5.482-10.729,11.352c-3.43,5.871-2.296,9.967-4.028,12.467
		c-1.733,2.5,7.984-27.949,10.912-28.755c2.932-0.807,2.279-8.677,2.279-8.677s3.543-5.311,4.193-6.24
		c0.65-0.931,10.67-5.802,10.67-5.802s0.692-0.493,3.356-1.226c2.663-0.732-0.743-4.927-1.009-4.854
		c-0.268,0.073-7.254,1.693-7.992,2.199c-0.74,0.505-10.621,7.149-10.843,8.116c-0.223,0.967-9.571,7.465-9.393,8.322
		c0.179,0.855-3.782,5.268-5.44,7.232c-1.657,1.966,1.125,1.805-3.165,4.192s5.665,6.532,2.542,6.804
		c-3.123,0.272-3.336,1.564-4.814,2.576c-1.479,1.012-7.704,0.869-7.704,0.869l9.968-15.707l6.184-9.525l4.406-7.25
		c0,0,0.349-9.154,1.027-12.661c0.678-3.507,1-8.728,5.811-7.939c4.811,0.79-6.835-3.748-6.835-3.748s-0.698,3.407-1.468,5.126
		c-0.769,1.721-1.27,3.37-2.807,6.811c-1.537,3.442-5.885,8.261-5.441,9.045c0.445,0.783-3.519,3.383-5.205,4.754
		c-1.687,1.369-6.039,0.756-7.368,3.838c-1.33,3.084-1.446,5.229-1.357,7.016c0.09,1.787,10.465-21.899,10.465-21.899l6.245-9.457
		l-17.211,20.829c0,0,9.579-21.643,14.293-23.351c4.714-1.707,9.604-7.98,9.604-7.98s-13.456,3.001-14.117,3.885
		c-0.661,0.884-2.421,4.603-4.81,6.661"/>
	<path fill="#FFFFFF" stroke="#000000" stroke-width="14" stroke-miterlimit="10" d="M268.594,295.242
		c0.258,5.094,5.951,10.813-4.696,13.99c-10.647,3.179-42.314-11.033-43.172-8.566c-0.857,2.463-24.936,2.324-24.936,2.324
		l6.097-15.447c0,0-29.648,7.184-30.381,11.682c0,0-29.313,12.465-25.404-7.371c3.91-19.836,13.865-26.961,19.801-16.448
		c5.935,10.513,13.567,5.997,13.567,5.997l12.903-7.138c0,0,17.956-14.067,22.892-3.903c4.935,10.163-1.151,16.111-1.151,16.111
		l-4.054,7.271c0,0,9.738,0.038,14.18-1.322c4.441-1.36,18.025-2.977,22.239-7.088c4.213-4.111,11.393,1.868,11.561,5.169
		C258.205,293.802,268.594,295.242,268.594,295.242z"/>
	<path fill="#8C8C8C" d="M265.781,298.361c0,0-3.986,6.758-6.428,5.166c-2.444-1.592-9.708-7.064-9.708-7.064l-0.286,3.701
		l-6.106-1.942l2.904-5.327l-6.5,6.316l-4.241-1.096l-4.441-1.043l-8.001,0.223c0,0,22.04,10.405,41.021,9.256
		C263.994,306.551,272.44,302.416,265.781,298.361z"/>
	<path fill="#8C8C8C" d="M148.82,297.099c0,0-2.303,7.194,20.926,0.079c0,0-3.667-0.369,7.673-4.741l-3.228-2.32l-0.818,3.173
		l-4.398-2.867l-2.354-2.18l-4.485-3.286l0.313,5.565c0,0-0.476,0.752,1.102,1.232c1.578,0.48,2.223,2.563,2.223,2.563l-9.196,1.485
		l1.098-7.923l1.782-4.635l-5.104,2.877l-1.035,3.146l1.801,3.582C155.117,292.85,149.881,293.059,148.82,297.099z"/>
</g>
</svg>
