<?xml version="1.0" encoding="utf-8"?>
<!-- Generator: Adobe Illustrator 16.0.0, SVG Export Plug-In . SVG Version: 6.00 Build 0)  -->
<!DOCTYPE svg PUBLIC "-//W3C//DTD SVG 1.1//EN" "http://www.w3.org/Graphics/SVG/1.1/DTD/svg11.dtd">
<svg version="1.1" id="Layer_1" xmlns="http://www.w3.org/2000/svg" xmlns:xlink="http://www.w3.org/1999/xlink" x="0px" y="0px"
	 width="512px" height="512px" viewBox="0 0 512 512" enable-background="new 0 0 512 512" xml:space="preserve">
<g>
	<path fill="#363636" d="M-902.779-214.36c5.044,0.36,9.984-1.494,15.049-0.716c4.562,3.242,5.016,6.364,2.771,12.813
		c-5.945,17.085-16.349,31.366-27.075,45.681c-11.243,15.005-11.272,10.634,0.244,24.964c6.964,8.665,15.29,16.146,21.766,25.292
		c4.488,6.338,7.568,13.364,11.092,20.162c1.232,2.377,2.718,4.101,4.873,5.015c14.151,6.003,27.656,13.647,43.419,15.426
		c6.618,0.747,13.113,2.929,19.816,3.681c2.428,4.253,0.419,9.243-3.978,9.881c-5.352,0.352-10.416-1.509-15.641-2.041
		c-11.67-1.19-22.354-5.105-32.494-10.841c-2.584-1.461-4.671-4.342-8.271-3.405c-1.096,0.692-2.191,1.385-3.288,2.077
		c-9.653-14.612-20.557-28.302-31.475-41.952c-7.643-9.554-17.153-17.569-23.704-28.054c-3.651-5.843-4.854-8.833-0.484-13.809
		c3.58-4.078,7.223-8.103,10.781-12.199c10.696-12.318,23.257-23.317,27.966-39.869c0.555-1.949,1.453-4.222,0.311-5.587
		c-1.291-1.543-3.848-0.74-5.508,0.124c-3.216,1.674-6.764,2.253-10.061,3.599c-1.248-0.123-2.549-0.319-2.274,1.652
		c-0.984,0.033-2.022-0.124-2.946,0.132c-9.85,2.72-19.688,5.483-29.512,8.291c-1.999,0.571-1.605,2.348-1.376,3.741
		c0.831,5.068,3.092,9.771,6.438,13.355c3.939,4.221,4.135,8.078,1.586,12.695c-2.203,0.988-4.72,1.48-6.051,3.842
		c-1.629,0.142-3.715-0.626-4.072,2.047l0.049-0.027c-3.369-0.019-6.067,1.223-7.849,4.183l-0.019,0.017
		c-1.503-0.185-2.115,0.525-1.987,1.979l-0.015,0.016c-2.221,0.436-3.577,1.736-3.988,3.983l-0.013,0.015
		c-2.126,0.471-3.47,1.802-4.192,3.815c-4.514,3.987-8.825,8.245-13.633,11.838c-2.119,1.583-2.387,2.313-1.271,4.634
		c4.188,8.704,9.749,16.329,16.972,22.712c5.535,4.891,6.973,11.526,8.1,18.313c1.774,10.68-2.475,19.973-7.543,28.725
		c-4.088,7.059-6.921,14.684-11.04,21.768c-4.094,7.043-7.584,14.291-13.503,20.041l-0.032,0.015
		c-1.426-0.052-2.983-0.224-3.567,1.496c-0.438,1.291-0.404,2.579,1.467,2.761c0.063,0.616,0.126,1.232,0.189,1.849
		c-0.901-0.071-1.503,0.282-2.041,1.059c-4.252,6.146-8.863,12.028-13.318,18.013c-2.567,3.448-4.217,7.683-7.433,10.768
		c-1.225,1.175-1.501,2.48-1.294,4.027l-0.019,0.025c-0.783-0.019-1.567,0.016-1.609,1.061c-0.042,1.048,0.759,1.125,1.526,1.197
		c4.663,5.878,3.946,11.808,0.173,17.768c-1.28-0.001-2.56-0.002-3.839-0.004c-0.379-3.127-1.232-6.02-3.959-7.982
		c0.041-2.848-2.015-4.732-3.218-7.007c-2.102-3.972-2.799-7.398,0.647-11.532c10.146-12.168,19.663-24.858,29.666-37.148
		c6.899-8.477,11.308-18.37,16.583-27.77c3.736-6.656,7.78-13.125,11.269-19.942c4.595-8.979,3.359-23.402-4.528-31.175
		c-8.227-8.108-16.023-16.87-21.4-27.411c-1.737-3.406-2.4-7.076,0.117-9.47c10.737-10.214,21.417-20.535,33.097-29.684
		c2.388-1.871,5.523-3.173,8.377-4.335c3.217-1.31,2.375-2.511,1.005-4.257c-3.871-4.936-5.564-10.906-7.41-16.669
		c-2.225-6.944,1.697-11.259,10.433-13.537c8.604-2.244,17.011-5.249,25.617-7.485C-913.246-213.042-907.963-213.511-902.779-214.36
		z"/>
	<path fill="#818282" d="M-814.801-52.163c4.396-0.638,6.405-5.628,3.978-9.881c7.016-0.079,13.648,3.047,20.736,2.514
		c0.405-0.031,0.881,0.863,1.324,1.327c-4.257,2.594-1.12,6.611-1.901,9.875c-7.206-1.713-14.523-2.288-21.912-2.18
		C-813.686-50.492-814.396-51.158-814.801-52.163z"/>
	<path fill="#363636" d="M-780.832-54.076c-0.144,3.242-1.362,5.945-3.982,7.945c-0.645,0.004-1.289,0.008-1.934,0.012
		c-1.592-0.23-2.096-2.387-3.916-2.209c0.781-3.264-2.355-7.281,1.901-9.875c2.365-0.457,3.565,2.491,5.932,2.029
		C-782.877-54.796-781.924-54.37-780.832-54.076z"/>
	<path fill="#363636" d="M-678.84,63.538c0.072,2.193-1.458,2.235-3.007,2.225c-1.401-0.01-2.682,0.132-2.867,1.922
		c-2.285,0.253-3.482-2.612-5.876-2.05c-0.091-1.593-0.699-2.917-1.364-4.395c-1.074-2.388-3.027-5.867,1.339-7.697
		c1.989,0.641,3.187,3.067,5.699,2.531c0.077,0.546,0.154,1.092,0.231,1.639C-685.371,62.298-684.088,64.907-678.84,63.538z"/>
	<path fill="#D7D6D7" d="M-690.897,37.85c-2.96,0.816-2.283,3.812-1.431,4.692c2.809,2.9,0.532,4.938-0.481,7.275
		c-1.891,0.37-1.866-2.548-3.752-2.187c-1.259-4.548-2.554-9.092-1.979-13.901c0.612-0.017,1.225-0.032,1.838-0.05
		c0.969,1.642,2.667,0.848,4.022,1.202C-692.029,35.838-690.503,36.267-690.897,37.85z"/>
	<path fill="#818282" d="M-678.84,63.538c-5.248,1.369-6.531-1.24-5.845-5.825c2.078,0.471,4.831-1.179,6.069,1.932
		c-1.14,0.606-3.076-0.737-3.664,1.526c1.048,0.793,2.212,0.64,3.349,0.613C-678.9,62.369-678.87,62.953-678.84,63.538z"/>
	<path fill="#BEBDBD" d="M-690.589,65.635c2.393-0.563,3.59,2.303,5.875,2.05c7.288,2.56,2.035,7.219,1.576,10.87
		c-0.194,1.541-1.319,3.266-2.117,4.837c-3.437,6.769-7.585,8.448-17.946,5.929c-4.789-1.165-9.484-1.218-14.233-1.364
		c-9.822-0.303-19.716,0.33-29.468-0.602c-17.559-1.676-35.164-0.965-52.705-2.045c-4.52-0.278-9.069-1.436-13.692-1.519
		c-1.309-0.023-1.627-0.893-1.433-2.046c3.349-1.962,5.765-4.88,8.086-7.895c3.825,0.009,5.547-2.707,7.756-5.644
		c-4.458-0.923-7.313,0.977-9.982,3.402c-3.057,0.58-6.021,1.344-8.035,4.012c-5.938,1.361-10.525,5.405-15.851,7.968
		c-23.003,11.066-43.688,25.557-62.849,42.294c-12.591,10.999-24.202,23.054-32.682,37.48c-4.866,8.277-13.495,8.7-20.359,12.771
		c-0.026-0.222-0.06-0.441-0.101-0.66c5.729-7.593,13.107-13.664,19.007-21.209c4.91-6.277,9.876-12.687,15.535-18.473
		c2.81-2.873,5.118-6.5,7.417-9.924c6.603-9.835,13.97-19.094,21.419-28.258c7.411-9.117,16.905-16.152,25.65-23.933
		c4.637-4.126,3.562-9.768-2.168-11.66c-3.109-1.026-6.805-1.128-9.833,0.162c-11.599,4.941-19.289,14.447-27.154,23.791
		c-4.258,5.058-7.813,10.597-11.869,15.779c0.257-4.397-0.229-8.757,1.373-13.154c2.048-5.625,0.097-10.182-4.21-12.226
		c-3.368-1.6-6.255-0.364-9.051,1.479c-3.427-0.837-2.239-2.611-0.775-4.256c1.978-2.222,4.437-4.092,6.071-6.527
		c5.74-8.553,12.618-16.244,19.075-24.179c5.232-6.43,10.51-12.968,16.101-19.178c1.688-1.875,6.369-3.667,3.502-8
		c0.661,0.022,1.397-0.141,1.971,0.095c15.402,6.3,30.315,13.791,46.131,19.08c4.767,1.595,9.454,3.684,14.761,2.965
		c4.193-0.567,6.307-3.243,5.316-7.267c-0.363-1.479-0.236-2.673,1.612-2.927c1.268,2.845,2.695,2.989,4.293,0.254
		c0.605-0.07,1.212-0.141,1.817-0.211c1.645-0.03,3.578,0.529,4.012-1.969l-0.057-0.112c2.157-0.189,4.748,1.035,6.076-1.862
		c6.021-1.315,12.044-2.632,18.065-3.948c9.045,0.524,17.451,2.564,23.427,10.134c0.888,1.125,2.259,1.336,3.198,2.088
		c3.426,2.739,8.186,2.652,11.413,5.665c-8.506,0.255-13.385,3.746-14.085,10.081c-2.874,1.916-5.359-0.02-7.904-0.878
		c-2.873-0.969-5.195-3.135-8.59-3.075c-8.964,0.157-17.934-0.033-26.901-0.041c-1.311-0.001-2.943-0.208-3.878,0.454
		c-4.646,3.292-4.91,0.354-4.864-3.202c0.027-2.15-0.387-3.718-3.114-2.672c2.457,5.716,2.077,6.776-3.304,9.535
		c-2.195,1.125-3.542,2.683-3.53,5.413c0.014,3.136,0.822,5.5,4.109,6.417c-0.456,4.47,2.114,4.693,5.264,3.514
		c1.175-0.44,2.348-2.116,3.486-1.112c2.886,2.546,6.438,1.022,9.521,2.029c2.353,1.315,0.389,6.392,5.325,5.672
		c6.738-0.981,13.555-0.292,20.338-0.157c9.146,2.171,18.446,2.487,27.781,2.196c1.551-0.048,3.896,0.972,4.123-2.013
		c5.913,2.104,11.841,4.129,18.247,4.018c1.475-0.026,2.768,0.339,4.191,1.055c4.418,2.222,9.336,0.986,12.382-2.793
		c2.912-3.612,1.439-6.977-0.792-10.238C-694.757,60.238-693.917,65.676-690.589,65.635z M-837.237,53.9
		c5.547-1.454,11.388-2.367,15.006-7.734c0.576-0.854,1.401-1.498,0.31-2.467c-0.701-0.622-1.183-1.555-2.461-1.194
		c-4.332,1.222-8.783,2.097-12.998,3.63c-2.18,0.792-4.771,2.543-4.626,5.064C-841.919,52.733-839.711,54.386-837.237,53.9z"/>
	<path fill="#363636" d="M-922.636,77.85c2.796-1.844,5.683-3.079,9.051-1.479c4.307,2.044,6.258,6.601,4.21,12.226
		c-1.602,4.397-1.115,8.757-1.373,13.154c-3.057,6.393-1.951,13.523-3.593,20.253c-2.116,8.671-3.641,10.272-12.439,12.118
		c-5.299,1.112-11.08,0.58-15.96,3.604c-5.099-0.203-10.091,1.252-15.032,1.498c-12.645,0.63-25.134,3.44-37.862,2.646
		c-1.646-0.103-3.307,0.065-4.96,0.108c-6.121-0.113-13.205-2.834-16.05,5.925c-0.3-3.669,0.888-7.641-3.965-9.892
		c-1.752-0.813-2.919-2.618-4.997-1.266c-2.134,1.389-4.506-0.146-6.71,0.842c-1.156,0.519-2.247-0.346-2.339-1.809
		c-0.313-4.966-0.832-10.398,3.154-13.917c5.325-4.703,6.406-11.143,8.807-17.11c1.394-3.467,2.73-6.987,4.498-10.266
		c1.561-2.895,4.26-4.516,7.681-4.638c0.062,1.363-0.396,2.546-1.007,3.767c-4.631,9.226-10.005,18.109-13.378,27.917
		c-1.147,3.336-5.851,6.822-2.854,9.831c2.253,2.262,7.303,0.63,11.111,0.488c17.76,1.225,35.337-1.988,53.04-2.177
		c0.498-0.005,1.022,0.009,1.487-0.137c8.185-2.573,16.766-2.614,25.161-3.646c9.06-1.114,11.227-2.491,12.36-11.337
		c0.084-0.654,0.138-1.335,0.363-1.945c2.455-6.677,1.447-13.92,3.391-20.684c0.154-0.537-0.018-1.354-1.114-1.592
		c-1.727,0.881-3.156,2.473-5.058,3.49c-13.056,6.984-26.646,12.698-40.611,17.538c-3.111,1.078-5.987,0.72-8.57-2.021
		c-2.337-2.479-2.217-4.281-0.74-7.262c3.811-7.689,6.454-15.901,9.935-23.771c5.647-12.767,8.933-26.417,13.582-39.57
		c1.486-4.204,3.569-8.42,4.332-13.081c0.882-5.384,2.025-10.868,4.539-15.866c1.625-0.139,1.93,1.94,3.417,2.036
		c-1.868,3.696-1.991,7.658-1.771,11.672c0,0.001-0.061,0.081-0.061,0.081c-3.216,1.29-1.349,4.059-1.79,6.156
		c-0.192,1.469,0.13,3.352-0.664,4.336c-3.801,4.715-3.124,10.253-3.39,15.644c-2.9,7.1-4.286,14.605-5.909,22.048
		c-1.131,0.114-1.799,0.646-1.868,1.867c-0.415,7.39-2.048,14.442-5.704,20.963c-0.469,0.836-0.681,2.009,0.261,2.745
		c0.856,0.669,1.873,0.398,2.816-0.034c7.09-3.251,14.302-6.264,21.236-9.816C-932.61,84.739-926.914,82.383-922.636,77.85z"/>
	<path fill="#818282" d="M-1016.644,147.901c2.845-8.759,9.929-6.038,16.05-5.926c-1.933,3.221-5.097,1.071-7.623,1.723
		c-1.592,0.41-3.878-0.896-4.436,1.875c-0.435,2.165,0.21,4.151,2.101,5.165c2.123,1.139,4.06,2.856,6.626,2.999
		c10.219,0.568,20.196-0.823,30.05-3.526c3.437-0.942,6.775-1.022,9.076,2.807c2.336,3.889,2.489,7.236-1.843,9.403
		c-3.222,1.612-4.865,4.818-7.957,6.612c-3.25,1.886-5.216,5.404-7.418,8.482c-0.594,0.831-1.002,1.856-0.177,2.721
		c0.834,0.872,1.908,0.503,2.721-0.085c2.375-1.719,4.621-3.679,6.984-5.33c3.267-2.281,4.995-6.76,9.696-6.992
		c1.372,6.314,6.141,8.91,14.042,7.645c0.041,0.219,0.075,0.438,0.101,0.66c-4.368,3.46-9.419,5.851-13.587,9.755
		c-6.327,5.926-12.095,12.209-16.312,19.748c-1.856,3.318-4.042,2.699-5.96,0.988c-8.462-7.544-16.303-15.662-22.439-25.314
		c-1.922-3.023-3.719-6.158-5.786-9.047C-1018.145,164.697-1016.471,156.193-1016.644,147.901z"/>
	<path fill="#BEBDBD" d="M-1016.645,131.851c-3.809,0.141-8.858,1.772-11.111-0.489c-2.998-3.009,1.706-6.495,2.854-9.831
		c3.373-9.808,8.747-18.691,13.378-27.917c0.613-1.221,1.069-2.403,1.007-3.767c4.817-6.209,7.849-13.449,11.674-20.23
		c0.631-1.118,1.12-2.341,1.886-3.355c3.317-4.396,2.763-9.308,2.046-14.26c2.561,1.042,5.122,2.083,8.042,3.271
		c0-1.674,0.487-3.247-0.079-3.88c-3.896-4.357-4.053-10.633-7.979-14.979c-2.499-2.765-3.42-5.859,0.256-8.623
		c-1.414,5.485,2.746,6.611,6.383,7.858c8.31,2.852,15.708,7.111,21.877,13.409c2.377,2.427,2.178,4.626,0.041,7.36
		c-2.717,3.476-5.636,6.895-7.956,10.579c-5.493,8.725-10.327,17.864-15.397,26.853c-1.684,2.981-1.993,6.996-3.954,9.313
		c-6.349,7.504-11.101,16.273-18.417,23.005C-1013.844,127.775-1016.178,129.129-1016.645,131.851z"/>
	<path fill="#D7D6D7" d="M-994.672,27.79c-3.676,2.764-2.755,5.858-0.256,8.623c3.927,4.346,4.084,10.621,7.979,14.979
		c0.565,0.633,0.079,2.206,0.079,3.88c-2.92-1.188-5.48-2.229-8.042-3.271c0,0.001,0.004-0.008,0.004-0.009
		c0.271-1.561-0.413-2.238-1.958-2.121l0.03,0.036c0.531-3.278-0.895-5.232-4.061-6.014c0,0,0.041,0.049,0.041,0.048
		c0.112-1.378-0.437-2.143-1.906-2.095c-1.477,0.048-1.933,0.895-1.798,2.23c0.305,3.396-2.838,5.11-3.839,7.869
		c-5.36-1.445-4.625-4.638-2.367-8.265c3.772-5.96,4.49-11.89-0.172-17.768c0.027-0.752,0.055-1.505,0.083-2.258l0.019-0.025
		c2.291-0.982,4.408-1.421,6.251,0.998c1.273,1.67,2.674,1.426,4.056-0.179c1.167-1.354,2.608-2.467,3.877-3.736
		c0.931-0.931,2.107-1.297,3.12-0.627c1.113,0.736,1.014,2.261,0.327,3.116C-994.337,24.611-994.437,26.185-994.672,27.79z"/>
	<path fill="#5D5D5D" d="M-892.705,163.749c-5.215-1.78-8.907-7.153-15.207-6.479c-0.234,0.025-0.585-1.049-0.882-1.611
		c0.741-5.457,5.477-7.893,8.783-11.354c1.084-1.136,2.669-0.803,3.373,1.208C-894.567,151.436-892.439,157.329-892.705,163.749z"/>
	<path fill="#5D5D5D" d="M-816.908,75.621c2.015-2.668,4.979-3.432,8.036-4.011c1.345,0.147,2.258,0.725,2.226,2.24
		c-2.321,3.015-4.737,5.933-8.086,7.895c0.055-0.813-0.2-1.864,0.214-2.4C-811.719,75.71-814.119,75.574-816.908,75.621z"/>
	<path fill="#BEBDBD" d="M-1010.764,43.682c-2.258,3.627-2.993,6.819,2.367,8.265c0.033,0.877,0.067,1.754,0.101,2.632
		c-3.511,1.114-5.852-0.825-6.343-5.467c-0.189-1.791,0.011-3.622,0.035-5.435C-1013.324,43.68-1012.044,43.681-1010.764,43.682z"/>
	<path fill="#BEBDBD" d="M-1000.895,43.894c3.166,0.781,4.592,2.735,4.061,6.014C-999.592,48.851-1000.963,46.858-1000.895,43.894z"
		/>
	<path fill="#BEBDBD" d="M-1004.558,44.077c-0.135-1.336,0.321-2.183,1.798-2.23c1.469-0.048,2.018,0.717,1.906,2.095
		C-1002.088,43.987-1003.323,44.032-1004.558,44.077z"/>
	<path fill="#BEBDBD" d="M-996.864,49.871c1.545-0.117,2.229,0.561,1.958,2.121C-996.535,52.187-997.069,51.369-996.864,49.871z"/>
	<path fill="#F7F7F7" d="M-790.664-48.328c1.82-0.178,2.324,1.979,3.916,2.209c0.249,2.412-0.367,4.959,0.794,7.755
		c1.856-2.172,0.845-4.201,1.254-5.987c5.516,0.543,9.12,4.901,13.847,7.052c1.337,0.608,2.48,1.325,3.974,1.238
		c1.282,2.427,4.051,2.578,6.03,3.939c0.141,1.804-0.281,3.111-1.649,4.667c-2.274,2.583-5.72,3.933-7.283,7.166
		c-0.613,0.707-1.226,1.413-1.838,2.12c-7.026-0.013-14.052-0.026-21.077-0.039c-5.54,1.097-10.512-2.056-15.896-2.122l-0.041-0.035
		c-0.458-2.695-2.532-1.705-4.127-1.81c-4.172-1.748-8.757-1.867-12.982-3.692c-10.407-4.498-19.748-10.675-28.941-17.167
		c-2.374-1.676-4.515-2.449-6.239,1.236c-1.599,3.415-4.745,6.236-8.558,5.097c-3.935-1.175-7.233-3.716-9.472-7.911
		c-4.361-8.169-8.017-16.674-12.994-24.602c-3.913-6.232-9.155-11.591-12.314-18.069c-2.66-5.455-6.338-5.269-10.841-4.872
		c-0.497,0.044-0.994,0.08-1.491,0.12c-2.626,1.481-4.551,0.914-6.528-1.475c-1.68-2.028-3.391-3.9-4.479-6.37
		c-0.372-0.844-1.412-2.622-3.09-1.217c-1.01,0.846-1.894,1.542-0.791,3.253c1.137,1.763,1.737,3.866,3.406,5.323
		c1.482,1.294,1.917,2.884,0.295,4.235c-2.128,1.774-3.176,5.113-6.743,4.85c-0.115-0.009-0.188-0.597-0.279-0.915
		c1.011-5.516-4.133-5.847-6.951-7.455c-8.85-5.051-8.509-13.744-0.847-18.459c2.644-1.627,2.542-4.088,1.058-5.334
		c-3.516-2.952-4.15-7.563-7.099-10.719c-1.565-6.133-3.593-12.108-6.053-17.938c1.734-2.771,1.964-6.727,5.801-7.854
		c6.917-2.032,12.251-6.121,16.238-12.061c9.205-11.961,17.266-24.63,23.713-38.297c1.442,0.393,2.235-0.111,2.274-1.652
		c3.296-1.346,6.845-1.925,10.061-3.599c1.66-0.864,4.217-1.667,5.508-0.124c1.143,1.365,0.244,3.638-0.311,5.587
		c-4.709,16.552-17.27,27.551-27.966,39.869c-3.559,4.097-7.201,8.121-10.781,12.199c-4.368,4.976-3.167,7.966,0.484,13.809
		c6.551,10.484,16.061,18.5,23.704,28.054c10.918,13.65,21.822,27.34,31.475,41.952c0.798,1.821,1.671,5.009,3.313,4.442
		c2.061-0.711,0.057-3.655,0.315-5.62c0.037-0.279-0.22-0.599-0.34-0.899c3.6-0.937,5.688,1.944,8.271,3.405
		c10.14,5.735,20.824,9.65,32.494,10.841c5.225,0.532,10.289,2.393,15.641,2.041c0.405,1.005,1.115,1.671,2.225,1.655
		C-805.188-50.616-797.87-50.041-790.664-48.328z M-792.728-28.242c0-1.498-0.05-2.999,0.012-4.494
		c0.087-2.115-0.427-3.813-2.966-3.452c-3.925,0.56-8.29-1.746-11.747,1.762c-0.181,0.184-0.215,0.697-0.099,0.96
		c1.469,3.32-0.235,7.191,1.351,10.234c1.167,2.239,4.394,0.364,6.507,1.322c0.439,0.199,0.75,0.679,1.188,0.887
		c4.121,1.952,5.668,0.947,5.754-3.723C-792.705-25.911-792.724-27.076-792.728-28.242z"/>
	<path fill="#818282" d="M-994.672,27.79c0.235-1.605,0.334-3.179,1.468-4.587c0.688-0.855,0.786-2.38-0.327-3.116
		c-1.013-0.67-2.188-0.304-3.12,0.627c-1.27,1.27-2.71,2.383-3.877,3.736c-1.382,1.604-2.783,1.849-4.056,0.179
		c-1.843-2.419-3.96-1.98-6.251-0.998c-0.208-1.547,0.069-2.853,1.294-4.027c3.215-3.085,4.865-7.319,7.433-10.768
		c4.455-5.984,9.066-11.867,13.318-18.013c0.538-0.776,1.139-1.13,2.041-1.059c3.629,2.454,7.379,4.813,7.803,9.815
		c-4.646-0.097-8.792,2.54-13.516,2.356c-2.46-0.095-2.307,1.893-1.523,3.591c1.722,3.727,5.047,2.324,7.83,2.209
		c3.409-0.141,4.364,0.854,2.453,3.913c-0.51,0.816-0.668,1.868-1.23,2.634c-1.402,1.912-1.551,3.999,0.724,4.755
		c2.437,0.81,6.119,2.439,7.466-0.856c1.389-3.397,3.911-6.421,4.1-10.299c3.712-0.873,5.143,2.807,7.853,3.935
		c0.768,2.849,3.864,1.746,5.694,3.358c-0.991-3.855-2.253-7.503-1.581-11.38l-0.009,0.01c1.4-0.007,1.964-0.761,1.876-2.098
		l0.026-0.036c1.356-0.016,2-0.686,1.889-2.052l0.04-0.036c0.586-0.219,1.654-0.381,1.688-0.664
		c0.652-5.56,4.086-9.885,6.397-14.702c2.009-4.188,6.642-6.837,11.149-6.368c3.815,0.396,8.869,6.478,7.931,9.796
		c-3.357,11.876-8.899,23.041-11.545,35.161c-0.073,0.336-1.092,0.466-1.67,0.691c-0.219-4.013-0.096-7.975,1.775-11.671
		c0.178-1.969,0.353-3.937,0.527-5.905c3.672-2.947,1.499-6.343,0.926-9.692c-0.79,2.682-3.537,4.423-3.201,7.428
		c-1.148,1.884-1.235,4.057-1.671,6.134c-2.514,4.998-3.658,10.482-4.54,15.866c-0.763,4.661-2.846,8.877-4.332,13.081
		c-4.649,13.153-7.934,26.804-13.582,39.57c-3.481,7.869-6.125,16.081-9.935,23.771c-1.477,2.98-1.597,4.783,0.74,7.262
		c2.583,2.74,5.459,3.099,8.57,2.021c13.965-4.84,27.555-10.554,40.611-17.538c1.902-1.018,3.332-2.609,5.058-3.49
		c1.096,0.238,1.268,1.055,1.114,1.592c-1.943,6.764-0.936,14.007-3.391,20.684c-0.225,0.61-0.279,1.291-0.363,1.945
		c-1.134,8.846-3.3,10.223-12.36,11.337c-8.395,1.031-16.976,1.072-25.161,3.646c-0.465,0.146-0.99,0.132-1.487,0.137
		c-17.702,0.188-35.28,3.401-53.04,2.177c0.468-2.721,2.801-4.074,4.55-5.683c7.316-6.731,12.068-15.501,18.417-23.005
		c1.96-2.316,2.271-6.331,3.954-9.313c5.071-8.988,9.905-18.128,15.397-26.853c2.32-3.685,5.239-7.104,7.956-10.579
		c2.138-2.734,2.336-4.934-0.041-7.36c-6.168-6.298-13.567-10.558-21.877-13.409C-991.926,34.401-996.086,33.275-994.672,27.79z"/>
	<path fill="#818282" d="M-948.642-126.317c2.949,3.156,3.583,7.767,7.099,10.719c1.484,1.246,1.586,3.707-1.058,5.334
		c-7.662,4.715-8.003,13.408,0.847,18.459c2.818,1.608,7.961,1.939,6.951,7.455c-3.475,1.925-1.63,4.689-1.403,8.451
		c2.355-4.535,6.355-5.73,8.704-8.79c1.646-2.144,2.772-0.367,3.964,0.654c3.365,2.884,4.864,7.43,8.767,9.835
		c1.121,4.454-3.311,4.569-5.305,5.88c-4.301,2.825-8.303,7.753-14.751,4.284c-2.115-1.138-4.249,0.38-5.431,2.366
		c-6.893,11.586-12.734,23.774-20.202,35.046c-1.152,1.739-2.957,3.701-2.372,6.302c-2.585,1.167-4.089,3.059-4.018,6.004
		c-2.628,1.395-4.544,3.468-5.847,6.126c-2.775-0.368-3.824-2.938-5.554-4.559c-1.938-1.815-3.5-3.957-6.556-3.604
		c5.919-5.75,9.409-12.998,13.503-20.041c4.119-7.084,6.951-14.709,11.04-21.768c5.068-8.752,9.317-18.045,7.543-28.725
		c-1.127-6.785-2.565-13.421-8.1-18.312c-7.224-6.383-12.784-14.008-16.972-22.712c-1.116-2.32-0.848-3.051,1.271-4.634
		c4.808-3.593,9.119-7.851,13.633-11.838C-959.597-137.213-955.454-130.712-948.642-126.317z"/>
	<path fill="#BEBDBD" d="M-908.941-202.469c-6.448,13.668-14.509,26.337-23.714,38.298c-0.699-0.027-1.397-0.054-2.096-0.081
		c2.548-4.617,2.353-8.475-1.586-12.695c-3.346-3.585-5.607-8.288-6.438-13.355c-0.229-1.395-0.623-3.17,1.376-3.741
		c9.825-2.808,19.663-5.571,29.512-8.291C-910.964-202.592-909.926-202.435-908.941-202.469z"/>
	<path fill="#BEBDBD" d="M-948.642-126.317c-6.813-4.395-10.955-10.896-14.248-18.066c0.722-2.014,2.066-3.345,4.192-3.815
		c0.632,2.027,1.864,3.446,4.003,3.943C-952.234-138.426-950.207-132.45-948.642-126.317z"/>
	<path fill="#D7D6D7" d="M-984.807-16.355c3.056-0.353,4.619,1.789,6.556,3.604c1.73,1.621,2.779,4.19,5.554,4.559
		c-2.324,2.069-4.737,4.075-4.884,7.572c-0.003,0.086-0.892,0.134-1.367,0.199c-0.424-5.002-4.174-7.36-7.803-9.814
		c-0.063-0.616-0.126-1.232-0.189-1.849c-0.21-1.868,2.053-2.516,2.1-4.257L-984.807-16.355z"/>
	<path fill="#D7D6D7" d="M-954.694-144.256c-2.139-0.497-3.371-1.916-4.003-3.943l0.013-0.015c3.101,0.445,4.47-0.843,3.988-3.983
		l0.015-0.016c1.362,0.043,2.029-0.612,1.987-1.979l0.019-0.017c3.432,0.137,6.915,0.369,7.849-4.183l-0.049,0.027
		c1.742,0.082,3.887,0.967,4.071-2.047c1.331-2.361,3.848-2.854,6.051-3.842c0.699,0.027,1.397,0.054,2.096,0.081
		c-3.986,5.939-9.32,10.028-16.237,12.061C-952.73-150.982-952.96-147.026-954.694-144.256z"/>
	<path fill="#BEBDBD" d="M-944.825-158.391c-0.934,4.552-4.417,4.319-7.849,4.183C-950.892-157.168-948.194-158.409-944.825-158.391
		z"/>
	<path fill="#818282" d="M-871.207-68.45c0.121,0.301,0.377,0.62,0.34,0.899c-0.258,1.965,1.746,4.909-0.315,5.62
		c-1.642,0.566-2.515-2.621-3.313-4.442C-873.398-67.065-872.303-67.758-871.207-68.45z"/>
	<path fill="#BEBDBD" d="M-954.696-152.197c0.481,3.141-0.888,4.429-3.988,3.983C-958.272-150.461-956.917-151.762-954.696-152.197z
		"/>
	<path fill="#818282" d="M-984.839-16.341c-0.047,1.741-2.311,2.389-2.1,4.257c-1.872-0.182-1.906-1.47-1.467-2.761
		C-987.822-16.564-986.265-16.393-984.839-16.341z"/>
	<path fill="#BEBDBD" d="M-940.803-160.41c-0.184,3.014-2.33,2.129-4.071,2.047C-944.518-161.036-942.432-160.269-940.803-160.41z"
		/>
	<path fill="#818282" d="M-1010.854,23.656c-0.027,0.753-0.055,1.506-0.083,2.258c-0.767-0.072-1.568-0.149-1.526-1.197
		C-1012.421,23.672-1011.637,23.638-1010.854,23.656z"/>
	<path fill="#BEBDBD" d="M-906.668-204.12c-0.039,1.541-0.832,2.045-2.275,1.653C-909.217-204.439-907.916-204.243-906.668-204.12z"
		/>
	<path fill="#BEBDBD" d="M-952.693-154.191c0.042,1.366-0.625,2.021-1.987,1.979C-954.809-153.666-954.196-154.376-952.693-154.191z
		"/>
	<path fill="#D7D6D7" d="M-732.855-14.105c0.087,0.54,0.174,1.08,0.261,1.62c2.411,3.802,0.661,9.669,5.973,12.033
		c-1.187,0.263-1.653,1.058-2.257,2.121c-1.164,2.054-1.184,4.897-3.799,6.033c-1.469-3.061,3.438-6.313,0.281-8.824
		c-2.532-2.014-6.004-2.822-9.339-3.669c-2.066-0.524-3.649-2.025-5.602-0.061c-1.991-2.182-6.013,0.131-7.417-3.35
		c1.812-0.368,3.869,0.553,5.702-0.858c-1.437-2.169-2.865-4.31-5.005-4.863c-2.736-0.708-2.736-2.384-2.729-4.409
		c4.253-5.991,4.097-5.663,10.594-2.579C-741.672-18.766-738.346-14.284-732.855-14.105z"/>
	<path fill="#818282" d="M-732.855-14.105c-5.49-0.179-8.816-4.66-13.337-6.806c-6.497-3.084-6.341-3.412-10.593,2.579
		c-2.937-0.39-1.003,4.467-4.148,3.852c-1.498-4.147-5.538-4.422-8.849-5.809c1.563-3.233,5.009-4.583,7.283-7.166
		c1.368-1.556,1.79-2.863,1.649-4.667c9.645,4.212,19.911,7.35,27.034,15.89C-733.241-15.543-732.893-14.945-732.855-14.105z"/>
	<path fill="#BEBDBD" d="M-726.622-0.454c-5.312-2.362-3.562-8.229-5.973-12.031c5.011,1.246,9.068,4.498,13.714,6.514
		c0.05,0.608,0.101,1.217,0.15,1.825c0.599,5.205-3.232,3.627-5.89,3.846C-725.288-0.352-725.955-0.403-726.622-0.454z"/>
	<path fill="#363636" d="M-698.541,33.729c-0.574,4.81,0.721,9.354,1.979,13.901c-0.008,2.468-0.179,4.947,0.015,7.399
		c0.289,3.67-0.587,5.173-4.18,2.743c-0.539-5.869-3.341-10.488-7.831-14.175c-0.067-0.601-0.135-1.201-0.202-1.802
		c0.063-3.482,0.077-6.967,0.202-10.447c0.125-3.493-1.626-5.527-4.973-5.37c-11.742,0.55-23.168-3.28-34.917-2.357
		c-0.329,0.025-0.665,0.014-0.995-0.016c-1.252-0.111-2.857,0.323-3.059-1.636c-0.197-1.922,1.277-1.876,2.603-2.193
		c4.227-1.015,8.029-2.922,11.304-5.819c2.618-0.04,5.235-0.08,7.854-0.12c1.234,0.053,2.47,0.106,3.704,0.159
		c0.24,1.948,1.797,1.525,2.991,1.583c4.374,0.211,8.751,0.351,13.127,0.518c0.862,1.116,2.147,0.442,3.199,0.753
		c2.124,3.331,7.16,1.378,9.112,5.021C-698.586,25.824-698.563,29.777-698.541,33.729z"/>
	<path fill="#D7D6D7" d="M-710.92,16.098c-4.376-0.167-8.753-0.307-13.127-0.518c-1.194-0.058-2.751,0.365-2.991-1.583
		c3.874,0,7.748,0,12.145,0c-0.792-1.989-1.461-3.103-1.67-4.297c-0.747-4.264-1.59-8.313-7.217-8.401
		c-0.289-0.005-0.561-1.043-0.84-1.6c2.657-0.219,6.488,1.359,5.89-3.846c3.362-0.116,6.427,0.376,7.997,3.917
		c-1.773,0.099-3.621-0.553-5.216,0.419C-715.024,5.786-713.525,11.121-710.92,16.098z"/>
	<path fill="#FDFDFD" d="M-710.92,16.098c-2.605-4.977-4.104-10.312-5.029-15.908c1.595-0.972,3.442-0.32,5.216-0.419
		c3.134,5.317,5.438,10.782,3.013,17.08C-708.772,16.54-710.058,17.214-710.92,16.098z"/>
	<path fill="#D7D6D7" d="M-784.7-44.352c-0.409,1.786,0.603,3.815-1.254,5.987c-1.161-2.796-0.545-5.343-0.794-7.755
		c0.645-0.004,1.289-0.008,1.934-0.012C-784.776-45.538-784.738-44.945-784.7-44.352z"/>
	<path fill="#818282" d="M-700.728,57.773c3.593,2.43,4.469,0.927,4.18-2.743c-0.193-2.452-0.022-4.932-0.015-7.399
		c1.887-0.361,1.862,2.557,3.753,2.187c-0.141,1.755,2.553,1.843,2.194,3.727c-4.366,1.829-2.413,5.309-1.339,7.696
		c0.665,1.478,1.273,2.802,1.364,4.395c-3.327,0.041-4.167-5.396-8.229-3.739c-0.616-0.396-1.232-0.792-1.849-1.188
		C-700.688,59.729-700.707,58.751-700.728,57.773z"/>
	<path fill="#F7F7F7" d="M-954.717,71.764c1.623-7.442,3.009-14.948,5.909-22.048c1.896,0.132,1.862-1.495,2.435-2.615
		c4.388-8.58,10.455-16.089,15.794-24.038c6.082-9.057,12.699-17.759,17.878-27.39c2.733-5.082,7.689-7.788,12.731-5.628
		c5.535,2.371,11.419,3.507,17.077,5.381c13.265,4.394,26.251,9.193,38.697,15.641c8.165,4.229,16.248,9.449,26.155,8.573
		c4.902-0.434,7.65,2.161,9.48,6.26c-0.104,0.586-0.207,1.171-0.311,1.757c-1.849,0.254-1.976,1.447-1.612,2.927
		c0.99,4.023-1.123,6.699-5.316,7.267c-5.307,0.719-9.994-1.37-14.761-2.965c-15.815-5.289-30.729-12.78-46.131-19.08
		c-0.574-0.235-1.311-0.072-1.971-0.094c-3.385-1.283-6.769-2.567-10.154-3.851c-2.751-2.926-11.846-3.337-14.525-0.209
		c-5.517,6.441-10.685,13.271-16.389,19.455c-5.714,6.195-10.366,13.224-16.284,19.193c-0.53,0.535-0.033,1.208,0.65,1.527
		c-0.271,0.597-0.435,1.276-0.827,1.777c-4.803,6.121-11.382,10.703-15.274,17.655C-951.795,71.85-953.599,71.615-954.717,71.764z"
		/>
	<path fill="#F7F7F7" d="M-948.75,175.474c-7.902,1.266-12.67-1.33-14.042-7.646c-0.42-2.873,2.44-3.371,3.519-5.009
		c5.506-8.366,12.318-15.889,16.534-25.095c4.88-3.023,10.662-2.491,15.96-3.604c8.798-1.846,10.324-3.447,12.439-12.118
		c1.642-6.729,0.536-13.86,3.593-20.253c4.056-5.183,7.611-10.722,11.869-15.779c7.865-9.344,15.555-18.85,27.154-23.791
		c3.028-1.29,6.724-1.188,9.833-0.162c5.73,1.893,6.806,7.534,2.168,11.66c-8.745,7.78-18.239,14.815-25.65,23.933
		c-7.449,9.164-14.816,18.423-21.419,28.258c-2.298,3.424-4.607,7.051-7.417,9.924c-5.659,5.786-10.625,12.195-15.535,18.473
		C-935.643,161.81-943.021,167.881-948.75,175.474z"/>
	<path fill="#818282" d="M-888.815,11.86c3.385,1.283,6.769,2.567,10.154,3.851c2.867,4.332-1.814,6.124-3.502,7.999
		c-5.59,6.21-10.869,12.748-16.101,19.178c-6.457,7.935-13.335,15.626-19.075,24.179c-1.634,2.436-4.094,4.306-6.071,6.527
		c-1.464,1.646-2.652,3.419,0.775,4.256c-4.278,4.533-9.974,6.89-15.339,9.639c-6.935,3.553-14.146,6.565-21.236,9.816
		c-0.943,0.433-1.959,0.703-2.816,0.034c-0.942-0.736-0.73-1.909-0.261-2.745c3.656-6.521,5.289-13.573,5.704-20.963
		c0.069-1.222,0.737-1.753,1.868-1.867c1.119-0.148,2.922,0.086,3.252-0.504c3.893-6.952,10.472-11.534,15.274-17.655
		c0.393-0.501,0.557-1.181,0.826-1.778c2.059,0.467,3.082-1.193,4.03-2.351c4.627-5.65,11.088-9.298,15.538-15.299
		c4.893-6.599,12.132-11.166,17.412-17.593C-895.991,13.671-893.275,10.849-888.815,11.86z"/>
	<path fill="#F7F7F7" d="M-700.668,60.707c0.616,0.396,1.232,0.792,1.849,1.188c2.231,3.263,3.704,6.627,0.792,10.239
		c-3.046,3.779-7.964,5.015-12.382,2.793c-1.424-0.716-2.717-1.081-4.191-1.055c-6.406,0.111-12.334-1.913-18.247-4.018
		c-0.782-0.146-1.471-0.355-2.223-0.79c-5.567-3.218-10.604-7.793-17.701-7.32c-3.01-3.147-7.488-0.774-10.779-2.867
		c-5.035-2.251-10.369-0.87-15.532-1.051c-9.895-0.348-19.85-0.456-29.604,1.898c-3.287-0.916-4.096-3.28-4.109-6.416
		c-0.012-2.73,1.335-4.288,3.53-5.413c5.381-2.759,5.761-3.819,3.304-9.535c2.728-1.046,3.142,0.521,3.114,2.672
		c-0.046,3.556,0.219,6.494,4.864,3.202c0.935-0.662,2.567-0.455,3.878-0.454c8.968,0.008,17.938,0.198,26.901,0.041
		c3.395-0.06,5.717,2.106,8.59,3.075c2.545,0.858,5.03,2.794,7.903,0.878c2.385,1.569,4.91,2.609,7.851,2.091l0.058,0.026
		c1.964,3.727,5.402,1.157,8.067,1.889l0,0c0.95,1.813,1.9,3.627,3.037,5.799c2.068-2.488,4.165-4.118,7.023-1.874
		c0.668,0.038,1.336,0.076,2.003,0.114c1.519,0.24,3.662-0.794,3.956,1.941c-1.573,0.269-1.939,0.742-0.797,2.213
		c3.166,4.075,9.12,5.229,14.315,2.41c-3.835-1.748-9.476,1.519-11.496-4.342l-0.028-0.303
		C-711.259,58.126-705.805,58.56-700.668,60.707z"/>
	<path fill="#818282" d="M-738.596,13.958c-3.274,2.897-7.077,4.805-11.304,5.819c-1.325,0.317-2.8,0.271-2.603,2.193
		c0.201,1.959,1.807,1.524,3.059,1.636c0.33,0.029,0.666,0.041,0.995,0.016c11.749-0.923,23.175,2.907,34.917,2.357
		c3.347-0.157,5.098,1.877,4.973,5.37c-0.125,3.48-0.14,6.965-0.202,10.447c-5.936-0.077-11.872-0.153-17.808-0.229
		c-0.329-1.145,0.066-3.544-1.338-3.093c-3.185,1.023-5.755-1.655-8.719-0.78c-3.228-3.013-7.987-2.926-11.413-5.665
		c-0.939-0.752-2.311-0.963-3.198-2.088c-5.976-7.569-14.382-9.609-23.427-10.134c-3.347-5.662-7.411-6.616-13.144-4.516
		c-3.478,1.273-5.038,5.229-8.954,5.412c0.105-0.893,0.211-1.785,0.316-2.678c3.649-0.474,3.024-4.865,5.707-6.226
		c7.308,1.267,14.057-2.839,21.363-2.121c6.168,0.606,12.102,3.113,18.438,2.242c0.535,1.925,2.14,1.673,3.569,1.73
		C-744.443,13.77-741.52,13.858-738.596,13.958z"/>
	<path fill="#363636" d="M-752.771,61.745c7.097-0.473,12.134,4.103,17.701,7.32c0.752,0.435,1.44,0.644,2.223,0.79
		c-0.228,2.984-2.572,1.965-4.123,2.013c-9.335,0.291-18.635-0.025-27.78-2.196c-1.369-3.84-5.247-0.522-7.247-2.595
		c0.611-4.612,3.334-5.912,7.803-5.422C-760.43,62.069-756.582,61.743-752.771,61.745z"/>
	<path fill="#63433C" d="M-752.771,61.745c-3.811-0.002-7.658,0.324-11.424-0.09c-4.469-0.49-7.191,0.81-7.803,5.422
		c2,2.072,5.878-1.245,7.247,2.595c-6.784-0.135-13.601-0.824-20.339,0.157c-4.937,0.72-2.973-4.356-5.325-5.672
		c-0.001-0.001,0.032-0.065,0.032-0.065c2.573-0.426,1.377-2.744,2.065-4.115c4.432-0.339,8.847-0.341,13.301-0.081
		c3.813,0.222,7.766,0.628,11.466-1.018C-760.26,60.971-755.781,58.598-752.771,61.745z"/>
	<path fill="#36312E" d="M-796.761,20.704c3.916-0.183,5.477-4.139,8.954-5.412c5.732-2.101,9.797-1.146,13.144,4.516
		c-6.021,1.316-12.044,2.633-18.065,3.948c-2.101,0.378-4.872-1.438-6.076,1.862l0.057,0.112c-1.324,0.023-2.647,0.046-3.972,0.069
		c-0.031-0.711-0.063-1.422-0.094-2.133l-0.004,0.008c1.372,0.177,2.105-0.405,2.146-1.808
		C-799.367,21.479-798.064,21.092-796.761,20.704z"/>
	<path fill="#F7F7F7" d="M-837.237,53.9c-2.474,0.485-4.682-1.167-4.77-2.701c-0.145-2.521,2.446-4.272,4.626-5.064
		c4.215-1.533,8.666-2.408,12.998-3.63c1.278-0.36,1.76,0.572,2.461,1.194c1.092,0.969,0.267,1.612-0.31,2.467
		C-825.85,51.533-831.69,52.446-837.237,53.9z"/>
	<path fill="#D7D6D7" d="M-763.551,58.878c-3.7,1.646-7.652,1.239-11.466,1.018c-4.454-0.26-8.869-0.258-13.302,0.08
		c-3.453-0.015-2.229,2.316-2.064,4.116c0,0-0.033,0.064-0.032,0.065c-3.084-1.007-6.636,0.517-9.521-2.029
		c-1.139-1.004-2.312,0.672-3.486,1.112c-3.149,1.18-5.72,0.956-5.264-3.514c9.754-2.355,19.709-2.247,29.604-1.899
		C-773.92,58.008-768.586,56.627-763.551,58.878z"/>
	<path fill="#D7D6D7" d="M-736.625,37.694c2.964-0.875,5.534,1.804,8.719,0.78c1.404-0.451,1.009,1.948,1.337,3.094
		c-0.434,2.661-2.496,2.45-4.216,2.047c-1.699-0.399-3.437-1.158-4.845-2.188c-4.468-3.262-7.51,0.021-10.071,2.564
		c-3.745,3.718,2.677,3.105,2.806,5.379c0.01,0.165,0.023,0.33,0.035,0.495c-2.94,0.519-5.466-0.521-7.851-2.091
		C-750.01,41.44-745.131,37.949-736.625,37.694z"/>
	<path fill="#818282" d="M-806.646,73.851c0.032-1.516-0.881-2.093-2.226-2.24c2.669-2.427,5.523-4.326,9.981-3.403
		C-801.1,71.144-802.821,73.859-806.646,73.851z"/>
	<path fill="#818282" d="M-808.87,27.656c0.104-0.586,0.207-1.171,0.311-1.757c0.626-0.028,1.252-0.057,1.877-0.086
		c-0.058,1.462,0.885,1.919,2.105,2.097C-806.175,30.646-807.603,30.501-808.87,27.656z"/>
	<path fill="#5D5D5D" d="M-804.577,27.91c-1.221-0.178-2.163-0.635-2.105-2.097l0.013-0.012c1.266-0.047,1.955-0.678,1.994-1.968
		c0.62-0.056,1.241-0.111,1.862-0.167c0.031,0.711,0.063,1.422,0.094,2.133c-0.014,0.633-0.026,1.266-0.04,1.899
		C-803.365,27.77-803.972,27.84-804.577,27.91z"/>
	<path fill="#5D5D5D" d="M-798.805,25.618c1.204-3.3,3.976-1.484,6.076-1.862C-794.057,26.653-796.647,25.429-798.805,25.618z"/>
	<path fill="#818282" d="M-802.76,27.699c0.014-0.634,0.026-1.267,0.04-1.899c1.324-0.023,2.647-0.046,3.972-0.069
		C-799.182,28.229-801.115,27.669-802.76,27.699z"/>
	<path fill="#BEBDBD" d="M-802.813,23.667c-0.621,0.056-1.242,0.111-1.862,0.167c-1.384-0.072-1.959,0.674-1.994,1.968l-0.013,0.012
		c-0.625,0.029-1.251,0.058-1.877,0.086c-1.83-4.099-4.578-6.693-9.48-6.26c-9.907,0.876-17.99-4.344-26.155-8.573
		C-856.64,4.62-869.626-0.18-882.891-4.574c-5.658-1.874-11.542-3.01-17.077-5.381c-5.042-2.16-9.998,0.546-12.731,5.628
		c-5.179,9.631-11.796,18.333-17.878,27.39c-5.339,7.949-11.406,15.458-15.794,24.038c-0.573,1.12-0.54,2.747-2.435,2.615
		c0.267-5.391-0.411-10.929,3.39-15.644c0.793-0.984,0.471-2.867,0.664-4.336c3.517-1.203,1.57-3.995,1.79-6.156
		c0,0,0.061-0.08,0.061-0.081c0.578-0.227,1.597-0.356,1.67-0.692c2.646-12.12,8.188-23.285,11.545-35.161
		c0.938-3.318-4.115-9.399-7.931-9.796c-4.508-0.469-9.14,2.18-11.149,6.368c-2.311,4.817-5.745,9.143-6.397,14.702
		c-0.033,0.283-1.101,0.445-1.687,0.664c0.72-4.878-2.885-3.802-5.391-3.677c-3.783,0.188-4.641-0.958-2.444-4.121
		c2.655-0.4,1.821-2.452,1.924-4.062l0.002-0.003c2.976-2.688,2.952-5.434-0.07-8.045c-0.584-2.6,1.22-4.562,2.373-6.301
		c7.468-11.271,13.309-23.46,20.202-35.046c1.182-1.986,3.316-3.504,5.431-2.366c6.448,3.469,10.45-1.459,14.751-4.284
		c1.994-1.311,6.426-1.426,5.305-5.881c1.456-0.128,2.135-1.033,2.379-2.375c3.883,0.596,5.419-1.554,5.627-4.998
		c0.325-5.369-3.346-8.521-9.971-8.699c0.047-0.588,0.095-1.175,0.143-1.762c0.497-0.04,0.995-0.076,1.491-0.12
		c4.503-0.396,8.181-0.583,10.841,4.872c3.159,6.479,8.401,11.837,12.314,18.069c4.977,7.928,8.632,16.433,12.994,24.602
		c2.239,4.195,5.538,6.736,9.472,7.911c3.813,1.14,6.959-1.682,8.558-5.097c1.725-3.686,3.866-2.912,6.239-1.236
		c9.193,6.492,18.534,12.669,28.941,17.167c4.226,1.825,8.811,1.944,12.983,3.691c0.476,2.652,2.518,1.738,4.126,1.811
		c0,0,0.041,0.035,0.04,0.036c-0.034,11.145-0.075,22.289-0.096,33.434c-0.013,6.702,3.396,8.841,9.591,5.921
		c0.877-0.414,1.546-1.229,2.654-0.999c-0.105,0.893-0.211,1.785-0.316,2.678c-1.304,0.388-2.606,0.775-3.91,1.163
		c-1.374-0.18-2.19,0.304-2.146,1.808V23.667z M-844.362-0.241c10.364-0.35,17.776-2.384,25.211-4.296
		c1.044-0.269,1.916-0.76,1.696-2.02c-0.176-0.999-1.071-1.209-1.908-1.228c-9.426-0.199-18.284-4.111-27.749-4.159
		c-5.97-0.031-7.017-1.15-7.569-7.241c-0.301-3.312-0.229-6.667-0.678-9.954c-0.802-5.855-5.479-2.53-8.381-3.175
		c-2.883-0.641-2.819,1.63-2.949,3.79c-0.384,6.389,1.976,12.366,2.7,18.593c0.356,3.063,1.964,7.284,6.049,7.436
		C-852.454-2.293-847.308,0.221-844.362-0.241z"/>
	<path fill="#BEBDBD" d="M-942.74,137.725c-4.216,9.206-11.028,16.729-16.534,25.095c-1.078,1.638-3.939,2.136-3.519,5.009
		c-4.701,0.233-6.429,4.712-9.696,6.993c-2.363,1.651-4.609,3.611-6.984,5.33c-0.813,0.588-1.887,0.957-2.721,0.085
		c-0.826-0.864-0.417-1.89,0.177-2.721c2.202-3.078,4.168-6.597,7.418-8.482c3.092-1.794,4.735-5,7.957-6.612
		c4.332-2.167,4.179-5.515,1.843-9.403c-2.301-3.829-5.639-3.749-9.076-2.807c-9.854,2.703-19.831,4.095-30.05,3.526
		c-2.567-0.143-4.504-1.86-6.626-2.999c-1.891-1.014-2.536-3-2.101-5.165c0.557-2.771,2.844-1.465,4.436-1.875
		c2.526-0.651,5.69,1.498,7.623-1.723c1.654-0.042,3.315-0.21,4.96-0.107c12.728,0.795,25.217-2.016,37.862-2.646
		C-952.831,138.977-947.838,137.521-942.74,137.725z"/>
	<path fill="#63433C" d="M-940.603,5.922c-0.175,1.969-0.35,3.937-0.527,5.905c-1.49-0.096-1.795-2.175-3.42-2.036
		c0.438-2.077,0.524-4.25,1.674-6.134C-941.466,3.758-940.756,4.561-940.603,5.922z"/>
	<path fill="#818282" d="M-942.965,23.58c-0.22,2.161,1.727,4.953-1.79,6.156C-944.314,27.639-946.181,24.87-942.965,23.58z"/>
	<path fill="#D7D6D7" d="M-796.444,18.026c-1.108-0.229-1.777,0.585-2.654,0.999c-6.194,2.92-9.604,0.781-9.591-5.921
		c0.021-11.145,0.062-22.289,0.096-33.434c5.385,0.065,10.356,3.218,15.896,2.121c-0.037,4.685-0.074,9.369-0.111,14.053
		c-5.651,2.055-3.518,6.911-3.858,10.844c-0.329,3.79,2.713,2.756,4.737,3.209c0.933,0.209,1.145,1.048,1.193,1.904
		C-793.42,13.161-792.795,17.553-796.444,18.026z"/>
	<path fill="#BEBDBD" d="M-792.811-4.154c0.038-4.685,0.075-9.369,0.112-14.054c7.026,0.013,14.052,0.026,21.078,0.039
		c-0.028,1.065-0.634,1.549-1.443,2.258c-0.949,0.831-2.266,2.42-1.389,3.889c0.855,1.434,2.384,0.02,3.555,0.117
		c3.676,0.307,6.593-1.951,9.964-2.575c3.146,0.615,1.212-4.241,4.148-3.852c-0.008,2.025-0.008,3.701,2.729,4.409
		c2.14,0.554,3.568,2.694,5.005,4.863c-1.833,1.411-3.891,0.49-5.702,0.857c-7.703-0.037-15.428-0.423-23.103,0.023
		c-4.448,0.259-9.116,0.913-12.887,3.923c-0.681,0.034-1.36,0.068-2.041,0.103H-792.811z"/>
	<path fill="#D7D6D7" d="M-916.594-92.035c-0.047,0.587-0.095,1.174-0.143,1.762c-1.917,1.882-0.75,3.564,0.462,5.096
		c2.024,2.559,3.553,5.298,3.882,8.602c-0.244,1.342-0.923,2.247-2.379,2.375c-3.902-2.404-5.402-6.95-8.767-9.834
		c-1.192-1.021-2.318-2.798-3.964-0.654c-2.349,3.06-6.349,4.255-8.704,8.79c-0.227-3.762-2.072-6.526,1.403-8.451
		c0.092,0.318,0.164,0.906,0.279,0.915c3.567,0.264,4.615-3.075,6.743-4.85c1.621-1.352,1.187-2.941-0.295-4.235
		c-1.669-1.457-2.27-3.561-3.406-5.323c-1.103-1.711-0.22-2.407,0.791-3.253c1.678-1.405,2.718,0.373,3.09,1.217
		c1.088,2.47,2.799,4.342,4.479,6.37C-921.146-91.121-919.22-90.554-916.594-92.035z"/>
	<path fill="#FDFDFD" d="M-792.726-28.242c0.002,1.166,0.021,2.331-0.002,3.496c-0.086,4.67-1.633,5.675-5.754,3.723
		c-0.438-0.208-0.749-0.688-1.188-0.887c-2.113-0.958-5.34,0.917-6.507-1.322c-1.586-3.043,0.118-6.914-1.351-10.234
		c-0.116-0.263-0.082-0.776,0.099-0.96c3.457-3.508,7.822-1.202,11.747-1.762c2.539-0.361,3.053,1.337,2.966,3.452
		C-792.777-31.241-792.728-29.74-792.726-28.242z"/>
	<path fill="#363636" d="M-760.934-14.48c-3.371,0.624-6.288,2.882-9.964,2.575c-1.171-0.098-2.699,1.316-3.555-0.117
		c-0.877-1.469,0.439-3.058,1.389-3.889c0.81-0.709,1.415-1.192,1.443-2.258c0.612-0.707,1.225-1.413,1.838-2.12
		C-766.472-18.902-762.432-18.628-760.934-14.48z"/>
	<path fill="#D7D6D7" d="M-808.634-20.365c-1.608-0.072-3.65,0.842-4.126-1.811C-811.166-22.07-809.092-23.061-808.634-20.365z"/>
	<path fill="#F7F7F7" d="M-964.688-8.214c-2.197,3.163-1.339,4.309,2.444,4.121c2.506-0.125,6.111-1.201,5.391,3.677
		c0,0-0.041,0.036-0.04,0.037c-0.627,0.028-1.254,0.057-1.882,0.085c-5.104,1.404-8.161,6.715-13.743,7.241
		c-0.07,0.006-0.084,0.61-0.125,0.936c-0.189,3.878-2.711,6.901-4.1,10.299c-1.348,3.296-5.029,1.666-7.466,0.856
		c-2.275-0.756-2.126-2.843-0.724-4.755c0.562-0.766,0.72-1.817,1.23-2.634c1.911-3.059,0.956-4.054-2.453-3.913
		c-2.783,0.115-6.107,1.518-7.83-2.209c-0.784-1.698-0.937-3.686,1.523-3.591c4.725,0.184,8.869-2.453,13.516-2.356
		c0.475-0.066,1.363-0.114,1.366-0.2c0.146-3.497,2.56-5.503,4.884-7.572c1.303-2.658,3.218-4.731,5.847-6.126
		c2.056-0.709,4.851-2.898,4.087,2.04c0,0-0.002,0.003-0.002,0.004C-965.397-11.865-964.563-9.813-964.688-8.214z"/>
	<path fill="#D7D6D7" d="M-972.643,7.883c0.041-0.325,0.054-0.93,0.125-0.936c5.583-0.526,8.639-5.837,13.744-7.241
		c-0.002,0.655-0.005,1.311-0.008,1.966l-0.026,0.036c-1.305,0.092-1.955,0.769-1.877,2.098c0,0,0.009-0.01,0.008-0.01
		c-2.573,0.208-1.93,2.18-2.05,3.734c-0.13,1.696,0.691,3.853-2.063,4.287C-967.5,10.689-968.931,7.01-972.643,7.883z"/>
	<path fill="#BEBDBD" d="M-964.79,11.817c2.754-0.435,1.933-2.591,2.063-4.287c0.12-1.555-0.523-3.526,2.05-3.734
		c-0.672,3.877,0.59,7.524,1.582,11.38C-960.926,13.563-964.022,14.666-964.79,11.817z"/>
	<path fill="#5D5D5D" d="M-940.603,5.922c-0.154-1.361-0.863-2.164-2.274-2.265c-0.337-3.005,2.41-4.746,3.2-7.428
		C-939.104-0.421-936.93,2.975-940.603,5.922z"/>
	<path fill="#BEBDBD" d="M-960.686,3.806c-0.078-1.329,0.572-2.006,1.877-2.098C-958.722,3.045-959.286,3.799-960.686,3.806z"/>
	<path fill="#BEBDBD" d="M-958.783,1.672c0.002-0.655,0.005-1.311,0.008-1.966c0.627-0.028,1.254-0.057,1.881-0.085
		C-956.783,0.986-957.427,1.656-958.783,1.672z"/>
	<path fill="#D7D6D7" d="M-962.763-12.278c0.763-4.938-2.031-2.749-4.087-2.04c-0.071-2.945,1.433-4.837,4.018-6.004
		C-959.811-17.712-959.787-14.967-962.763-12.278z"/>
	<path fill="#F7F7F7" d="M-790.743-4.256c3.771-3.01,8.438-3.664,12.887-3.923c7.675-0.446,15.399-0.061,23.103-0.023
		c1.404,3.481,5.426,1.169,7.417,3.351c1.952-1.965,3.535-0.464,5.602,0.061c3.335,0.847,6.807,1.655,9.339,3.669
		c3.157,2.512-1.75,5.764-0.282,8.825c0,0.001-0.092,0.1-0.092,0.1c-2.74,4.751-7.235,4.24-11.706,3.994
		c-2.145-0.119-4.306,0.074-6.46,0.126c-6.336,0.87-12.27-1.637-18.438-2.243c-7.307-0.718-14.056,3.388-21.363,2.121
		c-0.049-0.854-0.261-1.694-1.193-1.903c-2.024-0.453-5.066,0.581-4.737-3.209c0.341-3.933-1.793-8.789,3.858-10.844
		c-0.001,0.001,0.025,0.002,0.025,0.001c0.284,0.51,0.501,1.399,0.861,1.462C-790.814-2.5-790.867-3.512-790.743-4.256z"/>
	<path fill="#FDFDFD" d="M-724.62-0.301c0.279,0.557,0.551,1.595,0.84,1.6c5.627,0.089,6.47,4.138,7.217,8.401
		c0.209,1.194,0.878,2.308,1.67,4.297c-4.396,0-8.271,0-12.145,0c-1.234-0.053-2.47-0.106-3.704-0.16
		c-0.56-2.05-2.804-3.535-2.028-6.034c0,0,0.092-0.099,0.092-0.1c2.616-1.137,2.636-3.98,3.8-6.034
		c0.604-1.063,1.07-1.858,2.257-2.121C-725.955-0.403-725.288-0.352-724.62-0.301z"/>
	<path fill="#BEBDBD" d="M-742.86,49.866c-0.012-0.165-0.025-0.33-0.035-0.495c-0.129-2.273-6.551-1.661-2.806-5.379
		c2.562-2.543,5.604-5.826,10.071-2.564c1.408,1.029,3.146,1.788,4.845,2.188c1.72,0.403,3.782,0.614,4.216-2.047
		c5.937,0.075,11.873,0.151,17.809,0.229c0.067,0.601,0.135,1.201,0.202,1.802c-0.121,0.121-0.243,0.241-0.366,0.36
		c-6.323-0.387-10.949,1.535-11.523,5.562c-0.34,2.386-1.604,4.171-2.223,6.3c-0.668-0.038-1.336-0.076-2.004-0.113
		c0.263-2.772-0.689-4.279-3.781-3.994c-2.078,0.191-4.186,0.057-6.279,0.068c0,0,0,0,0.001,0c-1.915-3.938-5.381-1.25-8.068-1.889
		L-742.86,49.866z"/>
	<path fill="#BEBDBD" d="M-700.668,60.707c-5.137-2.147-10.591-2.581-16.054-2.966c0.353-2.484,2.301-1.865,3.87-1.995
		c2.515-0.207,5.152,0.481,7.681-0.618c-1.564-3.802-4.522-3.27-7.307-3.368c-1.498-0.054-3.62,0.808-4.089-1.631
		c-0.414-2.155,2.033-1.81,2.719-2.739c1.332-1.808,4.546-0.593,4.923-3.431c0.123-0.119,0.245-0.239,0.366-0.36
		c4.49,3.687,7.292,8.306,7.831,14.175C-700.707,58.751-700.688,59.729-700.668,60.707z"/>
	<path fill="#D7D6D7" d="M-732.771,7.803c-0.775,2.499,1.469,3.984,2.028,6.035c-2.618,0.04-5.235,0.08-7.854,0.12
		c-2.924-0.1-5.848-0.188-8.771-0.306c-1.43-0.058-3.034,0.194-3.569-1.73c2.153-0.051,4.314-0.244,6.459-0.125
		C-740.006,12.043-735.511,12.554-732.771,7.803z"/>
	<path fill="#BEBDBD" d="M-888.815,11.86c-4.46-1.012-7.175,1.811-9.569,4.724c-5.279,6.427-12.519,10.994-17.412,17.593
		c-4.45,6.001-10.911,9.648-15.538,15.299c-0.948,1.157-1.971,2.817-4.03,2.351c-0.683-0.318-1.179-0.991-0.649-1.526
		c5.918-5.97,10.57-12.998,16.284-19.193c5.704-6.184,10.872-13.014,16.389-19.455C-900.662,8.523-891.566,8.935-888.815,11.86z"/>
	<path fill="#D7D6D7" d="M-708.925,43.959c-0.377,2.838-3.591,1.623-4.923,3.431c-0.686,0.93-3.133,0.584-2.719,2.739
		c0.469,2.438,2.591,1.577,4.089,1.631c2.784,0.099,5.742-0.434,7.307,3.368c-2.528,1.1-5.166,0.411-7.681,0.618
		c-1.569,0.13-3.518-0.489-3.87,1.995c0-0.001,0.028,0.302,0.027,0.299c-0.674-0.095-1.348-0.187-2.021-0.278
		c-0.294-2.735-2.438-1.701-3.956-1.941c0.62-2.129,1.884-3.914,2.224-6.3C-719.874,45.494-715.248,43.572-708.925,43.959z"/>
	<path fill="#FDFDFD" d="M-718.716,57.762c0.674,0.092,1.348,0.184,2.021,0.278c2.021,5.863,7.662,2.597,11.497,4.345
		c-5.195,2.819-11.149,1.665-14.315-2.41C-720.655,58.504-720.289,58.03-718.716,57.762z"/>
	<path fill="#D7D6D7" d="M-734.735,51.781c2.094-0.012,4.201,0.123,6.279-0.068c3.092-0.285,4.044,1.222,3.781,3.994
		c-2.858-2.245-4.955-0.615-7.023,1.873C-732.835,55.408-733.785,53.595-734.735,51.781z"/>
	<path fill="#D7D6D7" d="M-742.803,49.893c2.688,0.639,6.153-2.05,8.068,1.889C-737.4,51.05-740.839,53.619-742.803,49.893z"/>
	<path fill="#BEBDBD" d="M-790.383,64.092c-0.165-1.8-1.389-4.131,2.064-4.116C-789.006,61.348-787.81,63.666-790.383,64.092z"/>
	<path fill="#5D5D5D" d="M-802.817,23.675c-0.044-1.504,0.772-1.987,2.146-1.808C-800.712,23.27-801.445,23.852-802.817,23.675z"/>
	<path fill="#818282" d="M-806.67,25.802c0.035-1.294,0.61-2.04,1.994-1.968C-804.715,25.124-805.404,25.755-806.67,25.802z"/>
	<path fill="#363636" d="M-844.362-0.241c-2.945,0.462-8.092-2.052-13.578-2.254c-4.085-0.151-5.693-4.372-6.049-7.436
		c-0.724-6.227-3.084-12.204-2.7-18.593c0.13-2.16,0.066-4.431,2.949-3.79c2.902,0.645,7.579-2.681,8.381,3.175
		c0.449,3.287,0.377,6.643,0.678,9.954c0.553,6.091,1.6,7.21,7.569,7.241c9.465,0.048,18.323,3.96,27.749,4.159
		c0.837,0.019,1.732,0.229,1.908,1.228c0.22,1.26-0.652,1.751-1.696,2.02C-826.586-2.625-833.998-0.591-844.362-0.241z"/>
	<path fill="#818282" d="M-912.393-76.576c-0.329-3.304-1.857-6.043-3.882-8.602c-1.212-1.531-2.379-3.214-0.462-5.096
		c6.625,0.178,10.296,3.33,9.971,8.699C-906.974-78.13-908.51-75.98-912.393-76.576z"/>
	<path fill="#D7D6D7" d="M-964.688-8.214c0.125-1.599-0.708-3.651,1.924-4.061C-962.868-10.666-962.034-8.614-964.688-8.214z"/>
	<path fill="#D7D6D7" d="M-790.743-4.256c-0.124,0.744-0.071,1.756-1.18,1.563c-0.36-0.063-0.577-0.952-0.861-1.462
		C-792.104-4.188-791.424-4.222-790.743-4.256z"/>
</g>
<g>
	<path fill="#FFFFFF" stroke="#000000" stroke-width="14" stroke-miterlimit="10" d="M152.841,121.172
		c0,0,14.174-23.485,15.217-27.044c1.044-3.558-8.514-7.814-5.846-14.407c2.667-6.594,6.056-34.351,11.988-31.027
		c5.931,3.325,21.224,1.045,22.542,6.082c1.322,5.037,11.869,19.555,1.935,14.771c-9.933-4.784-20.448-13.332-20.365-8.153
		c0.083,5.178,8.46,28.134,4.73,28.858c-3.731,0.722-10.667,13.334-12.031,15.478c-1.363,2.141-2.802,11.961-0.979,15.512
		c1.823,3.551,5.718,13.194-2.007,12.354c-7.726-0.839-4.306-9.632-6.871-7.927C158.592,127.371,149.917,126.064,152.841,121.172z"
		/>
	<path fill="#FFFFFF" stroke="#000000" stroke-width="14" stroke-miterlimit="10" d="M229.11,151.801
		c0.034-1.033,0.928-0.672,1.329-1.056c-0.771-1.196-1.724-0.187-2.598-0.16c-0.078-0.227-0.158-0.453-0.239-0.677
		c-0.956,0.505-1.65-0.402-2.501-0.458c-0.025-0.845-1.109-0.586-1.208-1.354c0.196-1.113,0.924-2.236-0.456-3.169
		c-0.418-0.284-0.958-1.491,0.154-2.167c0.016-0.722-0.631-0.737-0.978-1.076c-0.574-0.003-1.18,0.524-1.714-0.073
		c-0.243,0.076-0.486,0.149-0.73,0.224c-0.36-1.69-0.723-3.381-1.083-5.071c-1.105-1.346-2.942,0.044-4.088-1.149
		c0.407-2.964-1-5.053-2.725-6.984c-0.944-1.344-2.212-1.218-3.545-0.799c-0.073-0.255-0.147-0.51-0.222-0.765
		c-2.037-0.353-3.947-1.3-6.061-1.283c-0.082-0.221-0.165-0.444-0.248-0.665c-0.09-0.355-0.282-0.573-0.573-0.806
		c-3.606-2.874-7.988-3.089-12.217-3.833c-0.912-0.365-2.032-0.126-2.76-1.024c-0.59,0.202-1.111,0.021-1.698-0.094
		c-2.081-0.4-3.909-1.872-6.161-1.498c-0.068-0.25-0.136-0.499-0.204-0.749c0.869-1.146,1.115-2.438,0.883-3.841
		c-0.463-0.006-0.881-0.084-0.986-0.679c-0.905,0.458-1.647-0.672-2.551-0.217c-0.218-0.15-0.488-0.48-0.646-0.423
		c-2.785,1.007-5.713,0.398-8.509,1.204c-2.746,0.415-5.535,0.194-8.247,0.603c-6.457,0.972-12.533-0.818-18.722-1.833
		c-0.942-0.154-1.689-0.729-2.394-1.612c-2.014-2.524-3.871-5.195-6.228-7.417c-3.403-3.205-7.396-5.493-10.951-8.438
		c-5.878-4.872-5.478-3.002-2.322-10.666c3.01-7.31,5.894-14.571,6.747-22.543c0.322-3.008-0.138-4.296-2.249-5.182
		c-2.094,0.224-3.902,1.561-5.949,1.961c-1.996,0.934-4.064,1.715-5.971,2.835c-3.239,1.904-6.33,4.116-9.567,6.023
		c-3.288,1.936-4.47,4.215-2.963,6.945c1.251,2.266,2.459,4.637,4.447,6.325c0.703,0.598,1.146,1.02-0.022,1.934
		c-1.037,0.812-2.173,1.713-2.961,2.778c-3.85,5.203-7.198,10.798-10.578,16.354c-0.792,1.3-0.2,2.8,0.797,4.067
		c3.088,3.925,6.983,6.821,10.993,9.389c3.844,2.461,5.623,8.504,4.587,12.854c-0.786,3.304-1.825,6.519-2.724,9.781
		c-1.271,4.606-2.15,9.329-4.152,13.718c-2.9,6.364-5.572,12.845-8.541,19.173c-1.009,2.15-0.425,3.541,0.769,5.011
		c0.684,0.842,1.673,1.422,1.91,2.647c1.264,0.541,1.863,1.686,2.293,2.982c0.511-0.139,1.023-0.279,1.534-0.42
		c-0.578,1.803-0.587,3.25,1.683,3.279c0.154-1.292,1.257-2.37,0.833-3.792c0.484-0.153,0.967-0.307,1.452-0.46
		c0.239,1.258,0.959,1.953,2.139,2.106c0.053,0.655,0.339,0.943,0.97,0.684l-0.001,0.004c0.728,2.042,1.387,4.085,0.454,6.332
		c-0.216,0.519-0.302,1.096-0.455,1.644c-0.925,3.325-1.491,6.76-2.862,9.95c-1.355,0.429-2.291,1.419-2.655,2.83
		c-0.414,1.599-0.634,3.255-0.882,4.891c-0.427,2.821-0.285,5.699-1.994,8.298c-1.28,1.945-0.587,4.214-0.021,6.309
		c0.167,0.615,0.679,0.866,1.096,0.517c0.792-0.666,1.877-0.269,2.606-1.098c0.709-0.808,1.336-0.164,2.109-0.008
		c2.14,0.432,2.019,2.263,2.465,3.801c0.809,3.532,0.898,7.358,3.735,10.004c1.083,1.011,2.08,2.156,3.117,3.239
		c3.313,3.46,7.168,6.074,11.221,8.376l2.293-1.079c1.013-3.693,2.758-7.018,4.758-10.252c1.317-2.13,3.122-3.71,4.559-5.672
		c2.38-2.498,5.79-3.627,6.996-7.709c2.103-7.111,5.667-13.551,9.718-19.647c6.164-9.275,13.137-17.756,21.341-25.026
		c1.898-1.682,3.371-3.918,5.623-5.155c1.111-0.327,2.082-0.532,1.287,1.332c-0.118,0.275,0.078,0.698,0.128,1.052
		c0.025,0.515,0.229,0.854,0.754,0.719c1.855-0.473,3.775-0.477,5.606-0.855c7.104-1.466,14.075-3.707,21.239-4.92
		c3.98-0.673,7.876-2.032,11.828-2.982c1.911-0.46,3.791-0.953,5.808-0.981c4.365-0.061,5.873-1.235,6.642-4.512
		c0.18-0.762,0.474-1.624,0.416-2.305c-0.143-1.614,1.541-4.188-1.599-4.483c-0.086-0.787,0.413-0.988,0.974-1.139
		c0.621-0.165,1.228-0.351,1.003-1.283c-0.064-0.249-0.128-0.494-0.193-0.741C230.052,151.831,229.601,152.025,229.11,151.801z"/>
	<path fill="#8C8C8C" d="M100.114,71.249c0,0,14.911-10.896,21.586-11.978c0,0,0.998,9.537-8.961,30.693c0,0,0.994,4.104,4.525,5.85
		c3.531,1.745,18.223,14.155,20.001,18.646l-11.531-1.958l2.796-2.128l-0.624-2.998l-4.752-1.863l-5.988,1.648l-3.589-3.692
		l5.134-1.714l-1.452-2.921l-5.848-1.712l0.322-6.579l1.036-4.512l1.292-7.3c0,0,2.528-4.77,2.173-5.125
		c-0.356-0.355-8.82,2.276-8.82,2.276l11.258-7.477l-3.805-2.726c0,0-5.465,3.465-5.573,3.647c-0.108,0.18,1.118-2.723,1.118-2.723"
		/>
	<path fill="#8C8C8C" d="M140.009,121.552l12.66,3.761l28.089-0.787c0,0-15.362,3.322-18.098,5.735
		c-2.736,2.414-23.214,14.979-23.214,14.979l12.696-1.916c0,0,19.385-10.371,25.587-9.663c6.203,0.708,9.572-6.106,11.096-6.225
		c1.525-0.116,7.845-0.195,8.452,0.694c0.608,0.889-5.341,2.073-6.658,3.19c-1.317,1.118-15.875,8.294-16.378,8.583
		c-0.503,0.289,11.197-0.213,12.281-0.813c1.083-0.6,8.081-4.187,7.996,0.817c-0.085,5.005,6.01,1.819,6.631,0.743
		c0.622-1.077-1.959-6.707,1.875-6.555c0,0-1.558,14.165-3.127,14.748s-25.484,4.749-31.106,6.146
		c-5.623,1.396-16.806,11.267-16.806,11.267s41.077-13.72,42.766-12.374c1.688,1.347,10.685-1.431,11.987-1.94
		c1.302-0.508,4.797,1.397,4.619,1.899c-0.177,0.501-10.121,4.144-10.121,4.144l11.81-1.439l1.572,3.493l-18.084,3.769
		c0,0-16.218,5.972-15.802,6.613c0.415,0.641,0.416,1.999,0.416,1.999s35.556-7.067,41.396-9.128
		c5.839-2.06,0.119,0.571,0.119,0.571s5.988,0.012,4.801-5.699l-1.275-0.706c0,0,0.589-6.651-3.613-5.194
		c0,0-0.417-1.998-1.186-2.994c0,0-0.387-1.857,0.116-2.146s0.503-0.289,0.503-0.289s-2.384-1.306-1.674-1.954
		c0.711-0.648-2.368,0.802-2.308-0.271l-1.366-5.209c0,0-0.963-1.244-4.797-2.755c0,0,0.545-2.112,0.413-3.434
		c-0.135-1.322-2.09-2.595-2.09-2.595l-3.465-0.405c0,0-0.074-2.396-5.816-1.569c0,0-0.579-1.427-1.904-3.061
		c0,0-17.698-4.526-19.214-4.711L140.009,121.552z"/>
	<path fill="#8C8C8C" d="M175.586,116.592l0.825,3.963c0,0-14.07-1.979-16.837-1.066c-2.767,0.912,7.872-2.771,9.01-3.386
		c1.14-0.616,6.202-0.65,6.202-0.65l1.407,0.669L175.586,116.592z"/>
	<path fill="#8C8C8C" d="M164.689,110.236l2.412,0.09c0,0,0.411-4.792,3.132-7.956c2.721-3.164,4.861-8.445,11.68-14.247
		c0,0-2.664-24.311-6.456-27.645l-1.921,4.302c0,0,1.525,1.241,2.208,3.167c0.682,1.925-2.944,5.188-2.944,5.188l-0.165,3.551
		c0,0,2.76-0.948,3.115-1.271c0.355-0.322,1.479-1.014,1.813-0.085c0.334,0.929,0.662,3.858,0.662,3.858l-4.601,2.927l-2.01,3.195
		l3.949,1.102l2.043-2.75l1.497,1.776c0,0,0.785,1.747-0.783,2.329c-1.568,0.583-3.141,1.14-3.863,2.41
		c-0.723,1.268-0.619,2.557-0.321,3.875c0.298,1.317-2.231,4.841-2.793,4.845c-0.563,0.003-5.5,10.268-5.5,10.268L164.689,110.236z"
		/>
	<path fill="#8C8C8C" d="M173.319,51.557c0,0,19.392,2.513,20.162,3.507c0.77,0.997-13.128-0.159-13.128-0.159
		s-5.287-3.074-6.38-0.207c-1.093,2.867-2.008,1.854-2.008,1.854l0.427,2.053c0,0-1.746-0.275-2.884,3.058
		C169.508,61.663,171.165,51.269,173.319,51.557z"/>
	<path fill="#8C8C8C" d="M108.854,80.77c0,0-6.89,7.482-7.393,9.13c-0.503,1.647,4.572-0.353,4.572-0.353s-9.008,7.46-9.169,10.07
		c-0.161,2.61,4.427,1.65,4.427,1.65l7.061,1.453l-8.789,2.419c0,0,2.249,0.664,3.922,1.26c1.672,0.597,5.743-0.825,6.853-0.226
		c1.11,0.6-2.973,2.63-4.349,3.461c-1.375,0.832,2.533,2.021,2.533,2.021s5.253-2.503,7.74-1.375c0,0-5.341,2.074-5.651,3.97
		c-0.309,1.896-2.158,4.519-2.302,9.238c0,0,0.936-6.343-9.431-13.858c0,0-7.1-4.688-7.382-6.723c0,0,8.527-17.896,12.374-18.351
		c0,0,2.707-2.555,1.536-4.799"/>
	<path fill="#FFFFFF" stroke="#000000" stroke-width="14" stroke-miterlimit="10" d="M120.867,124.951"/>
	<path fill="#8C8C8C" d="M121.397,116.013l-8.766,9.305c0,0-6.741,10.911-9.428,21.009c0,0-13.247,22.96-10.905,26.093
		c2.341,3.133-1.512,3.56,3.791,4.682c5.302,1.122,6.304-0.324,6.304-0.324s1.034,23.594,0.266,25.315
		c-0.769,1.721-2.583-1.77-2.255,1.158c0.328,2.93-3.519,12.696-3.841,16.567c0,0,4.75-2.43,7.784,1.017
		c1.106,1.257,1.126,1.373,2.707,8.964c0,0,0.91,4.403,13.858,14.514c0,0,6.743-15.654,15.856-20.578
		c0,0,7.935-20.896,13.717-25.437c0,0-12.753,7.059-13.697,10.639c-0.945,3.58-11.338,9.458-11.338,9.458l23.407-34.01
		c0,0,6.587-6.244,8.57-6.187c1.983,0.059,5.431-3.911,5.431-3.911l1.432-0.998l-12.107,0.012c0,0-6.588,0.82-7.375,3.798
		c-0.789,2.978-7.298,5.482-10.729,11.352c-3.43,5.87-2.296,9.966-4.029,12.466c-1.733,2.5,7.985-27.949,10.913-28.755
		c2.931-0.807,2.278-8.677,2.278-8.677s3.543-5.31,4.194-6.24c0.651-0.931,10.67-5.802,10.67-5.802s0.692-0.493,3.356-1.226
		c2.664-0.733-0.744-4.927-1.009-4.854c-0.267,0.073-7.253,1.693-7.992,2.199c-0.74,0.505-10.622,7.149-10.843,8.116
		c-0.223,0.967-9.571,7.465-9.393,8.322c0.179,0.856-3.783,5.268-5.44,7.232c-1.657,1.966,1.125,1.805-3.165,4.193
		c-4.29,2.388,5.666,6.532,2.542,6.803c-3.123,0.273-3.335,1.565-4.814,2.577c-1.479,1.012-7.704,0.87-7.704,0.87l9.968-15.707
		l6.184-9.526l4.405-7.25c0,0,0.349-9.154,1.027-12.661c0.678-3.507,1-8.729,5.811-7.939c4.81,0.79-6.835-3.748-6.835-3.748
		s-0.699,3.407-1.468,5.126c-0.769,1.721-1.27,3.37-2.807,6.811c-1.536,3.442-5.884,8.261-5.44,9.045
		c0.445,0.783-3.519,3.384-5.206,4.754c-1.687,1.369-6.039,0.756-7.368,3.838c-1.33,3.083-1.446,5.228-1.357,7.015
		c0.09,1.787,10.465-21.899,10.465-21.899l6.245-9.457l-17.211,20.828c0,0,9.579-21.642,14.293-23.35
		c4.714-1.707,9.603-7.98,9.603-7.98s-13.456,3.001-14.117,3.885s-2.421,4.603-4.81,6.661"/>
	<path fill="#FFFFFF" stroke="#000000" stroke-width="14" stroke-miterlimit="10" d="M133.594,187.242
		c0.257,5.094,5.95,10.813-4.697,13.991c-10.647,3.178-42.314-11.034-43.172-8.567c-0.857,2.464-24.936,2.324-24.936,2.324
		l6.097-15.446c0,0-29.648,7.183-30.381,11.681c0,0-29.313,12.465-25.404-7.371c3.91-19.836,13.865-26.961,19.801-16.448
		c5.935,10.513,13.567,5.998,13.567,5.998l12.903-7.138c0,0,17.956-14.067,22.892-3.904c4.935,10.164-1.151,16.112-1.151,16.112
		l-4.054,7.271c0,0,9.738,0.039,14.18-1.322c4.441-1.36,18.025-2.976,22.239-7.087c4.213-4.112,11.393,1.868,11.561,5.169
		C123.205,185.802,133.594,187.242,133.594,187.242z"/>
	<path fill="#8C8C8C" d="M130.782,190.361c0,0-3.986,6.759-6.429,5.167c-2.444-1.591-9.708-7.065-9.708-7.065l-0.286,3.702
		l-6.106-1.942l2.904-5.328l-6.5,6.316l-4.241-1.096l-4.441-1.043l-8.001,0.223c0,0,22.04,10.406,41.021,9.257
		C128.995,198.551,137.44,194.416,130.782,190.361z"/>
	<path fill="#8C8C8C" d="M13.82,189.099c0,0-2.303,7.194,20.926,0.08c0,0-3.667-0.37,7.673-4.742l-3.228-2.32l-0.818,3.173
		l-4.398-2.868l-2.354-2.179l-4.485-3.286l0.313,5.566c0,0-0.476,0.752,1.102,1.231c1.578,0.48,2.223,2.563,2.223,2.563
		l-9.196,1.485l1.098-7.922l1.782-4.635l-5.104,2.876l-1.035,3.146l1.801,3.582C20.117,184.849,14.881,185.059,13.82,189.099z"/>
</g>
</svg>
