<?xml version="1.0" encoding="utf-8"?>
<!-- Generator: Adobe Illustrator 16.0.0, SVG Export Plug-In . SVG Version: 6.00 Build 0)  -->
<!DOCTYPE svg PUBLIC "-//W3C//DTD SVG 1.1//EN" "http://www.w3.org/Graphics/SVG/1.1/DTD/svg11.dtd">
<svg version="1.1" id="Layer_1" xmlns="http://www.w3.org/2000/svg" xmlns:xlink="http://www.w3.org/1999/xlink" x="0px" y="0px"
	 width="512px" height="512px" viewBox="0 0 512 512" enable-background="new 0 0 512 512" xml:space="preserve">
<g>
	<path fill="#1E1C1D" d="M361.324,194.08c3.813-4.841,3.845-10.741,4.629-16.438c0.322-2.336-0.854-2.766-2.863-2.757
		c-17.707,0.074-35.418-0.583-53.12,0.326c-3.349-1.063-2.923,1.233-2.927,3.237c-0.034,17.825,0.057,35.652-0.24,53.473
		c-0.07,4.338,1.779,4.666,5.043,3.982C335.87,230.872,352.476,217.064,361.324,194.08z M307.269,82.051
		c-0.119,6.976-0.341,13.951-0.344,20.927c-0.009,18.293,0.061,36.586,0.157,54.878c0.01,1.732-1.011,4.192,2.489,4.119
		c16.448-0.345,32.909,0.566,49.351-0.51c5.479,0.107,10.954,0.278,16.434,0.31c8.951,0.052,8.951,0.015,7.727-8.938
		c-5.008-36.535-36.322-67.329-72.818-71.569C309.233,81.147,307.914,80.473,307.269,82.051z"/>
	<path fill="#F2AC46" d="M358.922,161.465c-16.439,1.076-32.902,0.165-49.351,0.51c-3.5,0.073-2.479-2.387-2.489-4.119
		c-0.099-18.292-0.166-36.585-0.157-54.878c0.003-6.976,0.225-13.951,0.344-20.927c1.956,0.886,3.999,1.62,5.854,2.684
		c11.271,6.469,20.35,15.413,27.845,25.869C351.836,125.768,358.372,142.593,358.922,161.465z"/>
	<path fill="#F2AC46" d="M361.324,194.08c-8.851,22.984-25.454,36.792-49.479,41.823c-3.264,0.684-5.113,0.355-5.043-3.982
		c0.297-17.82,0.206-35.647,0.24-53.473c0.004-2.004-0.422-4.301,2.928-3.237c0.612,0.532,1.141,1.312,1.852,1.562
		C328.31,182.576,344.819,188.323,361.324,194.08z"/>
	<path fill="#E88D2E" d="M358.922,161.465c-0.55-18.872-7.086-35.697-17.956-50.861c-7.495-10.456-16.574-19.4-27.845-25.869
		c-1.854-1.063-3.896-1.798-5.854-2.684c0.646-1.578,1.967-0.903,2.993-0.784c36.496,4.24,67.813,35.034,72.818,71.569
		c1.227,8.953,1.227,8.99-7.729,8.938C369.876,161.743,364.399,161.572,358.922,161.465z"/>
	<path fill="#E88D2E" d="M361.324,194.08c-16.505-5.757-33.017-11.504-49.504-17.308c-0.711-0.25-1.237-1.029-1.852-1.562
		c17.701-0.909,35.412-0.252,53.119-0.326c2.01-0.009,3.188,0.421,2.863,2.757C365.169,183.339,365.14,189.239,361.324,194.08z"/>
	<path fill="#1E1C1D" d="M259.125,163.441c-0.009,8.096-5.476,13.758-13.195,13.67c-7.498-0.085-13.13-6.123-13.044-13.98
		c0.085-7.755,5.467-13.217,13.061-13.257C253.837,149.832,259.134,155.286,259.125,163.441z"/>
</g>
<path fill="#DB7556" stroke="#212222" stroke-width="14" stroke-miterlimit="10" d="M154.535,152.682l12.612-11.606
	c0,0,36.626-13.368,41.089-18.802c4.463-5.434,5.358,38.936-30.013,39.712c-35.371,0.776-46.723,8.817-46.723,8.817L154.535,152.682
	z"/>
<g>
	<path d="M439.661,207.043l-0.005,0.005c1.455-1.41,2.51-3.03,2.576-5.163l0.011-0.01c3.253-7.885,10.099-13.938,11.475-22.717
		c0.666-4.249,0.608-8.64,0.614-12.967c0.014-9.708-7.638-14.787-12.752-21.293c-3.172-4.034-4.436-8.709-6.272-13.28
		c-1.354-3.367-0.701-6.447-0.548-9.764c0.106-2.271-1.951-4.374-3.604-5.761c-6.446-5.413-12.502-11.604-20.481-14.623
		c-5.135-1.943-10.385-4.018-15.238-6.243c-4.187-1.918-9.499-0.402-12.723-4.54c-0.046-0.057-0.592,0.294-0.905,0.456l-0.003,0.002
		c-2.228-0.714-4.493-1.327-6.658-2.201c-0.684-0.275-1.3-0.644-2.051-0.648c-3.894-0.023-7.711-0.206-11.346-2.047
		c-1.032-0.523-2.754,0.527-3.955,0.164c-4.722-1.426-9.938-0.331-14.397-2.999c-0.398-0.238-0.974-0.316-1.445-0.265
		c-10.387,1.145-20.238-3.535-30.567-2.855c-3.6,0.236-7.063,1.673-10.81,0.926c-2.648-0.527-5.268-1.226-8.001-1.474
		c-2.492-0.226-4.513,1.437-6.89,1.164c-3.303-0.379-6.718,0.084-9.888-1.297c-2.556-1.112-4.612,1.06-7.118,1.12
		c-4.455,0.105-8.17-2.452-12.486-2.578c-5.282-0.154-9.71,0.587-14.493,4.076c-7.005,5.11-13.329,10.739-18.972,17.234
		c-2.793,3.215-3.621,7.629-5.489,11.431c-2.144,4.363-3.645,9.211-6.995,12.694c-4.022,4.182-8.365,8.279-13.226,11.31
		c-3.892,2.426-6.127,6.347-9.771,8.867c-2.254,1.56-3.258,4.441-5.211,6.48c-2.26,2.359-1.845,5.926-2.481,8.938
		c-0.356,1.688,0.17,3.801-0.2,5.617c-1.508,7.384,1.19,14.056,4.679,19.779c2.301,3.773,6.455,6.745,9.184,10.533
		c4.544,6.309,9.299,12.561,11.943,20.057c0.685,1.941,0.594,4.093,1.323,6.121c1.027,2.855,2.119,5.372,4.251,7.744
		c1.956,2.172,3.021,5.197,5.151,7.545c2.823,3.109,5.714,6.071,8.724,8.992c3.148,3.057,7.414,4.642,9.929,8.378
		c1.447,2.15,4.063,2.556,6.036,3.677c5.718,3.25,11.321,6.713,16.918,10.149c3.906,2.402,8.056,4.318,11.904,6.887
		c5.938,3.961,12.578,6.807,18.685,10.531c3.704,2.261,7.619,4.138,11.231,6.507c6.513,4.271,13.624,6.476,21.125,8.235
		c5.687,1.332,11.443,2.625,17.056,4.414c5.46,1.74,10.756,4.043,16.581,4.615c2.073,0.205,3.953,1.979,6.051,2.452
		c3.899,0.878,7.836,1.604,11.886,1.703c3.748,0.092,7.066,2.282,11.004,2.349c3.716,0.063,7.488-1.337,10.836-0.711
		c5.601,1.051,10.643-0.595,15.874-1.436c4.489-0.723,7.729-4.247,11.793-6.047c4.232-1.875,7.482-5.649,9.979-9.231
		c2.786-3.998,4.24-9.271,3.568-14.573c-0.484-3.818,0.202-7.514,0.534-11.279c0.293-3.315-0.243-6.719-0.235-10.112
		c0.009-3.483-0.05-7.207-0.703-10.566c-0.632-3.256-0.511-6.557-0.434-9.581c0.134-5.083-1.396-10.146-0.185-15.188
		c1.223-5.097,2.551-10.168,3.834-15.25l-0.01,0.009C439.051,210.261,439.503,208.714,439.661,207.043z"/>
	<path fill="#111111" d="M381.935,91.423c-0.043-0.094-0.085-0.187-0.127-0.279c0.313-0.161,0.859-0.513,0.905-0.456
		c3.224,4.138,8.536,2.622,12.723,4.54c4.854,2.225,10.104,4.299,15.238,6.243c7.979,3.019,14.035,9.209,20.481,14.623
		c1.652,1.387,3.711,3.49,3.604,5.761c-0.153,3.317-0.807,6.397,0.548,9.764c1.838,4.571,3.102,9.246,6.272,13.28
		c5.114,6.506,12.766,11.585,12.752,21.293c-0.006,4.327,0.052,8.718-0.614,12.967c-1.376,8.779-8.222,14.833-11.475,22.717
		c-0.046-0.094-0.093-0.188-0.139-0.282c0.043,0.098,0.086,0.195,0.128,0.292c-0.066,2.133-1.121,3.752-2.576,5.163
		c-0.045-0.094-0.091-0.189-0.136-0.284c0.049,0.093,0.095,0.186,0.141,0.278c-0.158,1.671-0.61,3.218-1.794,4.462
		c-0.044-0.095-0.087-0.188-0.133-0.282c0.049,0.091,0.095,0.183,0.142,0.273c-1.282,5.081-2.61,10.153-3.833,15.25
		c-1.211,5.043,0.317,10.106,0.185,15.188c-0.077,3.023-0.198,6.325,0.434,9.581c0.653,3.36,0.712,7.083,0.703,10.566
		c-0.008,3.394,0.528,6.797,0.235,10.112c-0.332,3.767-1.02,7.461-0.534,11.279c0.672,5.305-0.782,10.575-3.568,14.573
		c-2.495,3.582-5.745,7.356-9.979,9.231c-4.064,1.8-7.304,5.324-11.793,6.047c-5.231,0.841-10.273,2.484-15.874,1.436
		c-3.348-0.626-7.12,0.772-10.836,0.711c-3.938-0.066-7.256-2.257-11.004-2.349c-4.05-0.099-7.985-0.825-11.886-1.703
		c-2.098-0.474-3.978-2.247-6.051-2.452c-5.825-0.572-11.121-2.875-16.581-4.615c-5.611-1.789-11.369-3.082-17.056-4.414
		c-7.502-1.762-14.612-3.967-21.125-8.235c-3.612-2.369-7.527-4.246-11.231-6.507c-6.104-3.727-12.745-6.57-18.685-10.531
		c-3.85-2.568-7.998-4.482-11.904-6.887c-5.597-3.438-11.2-6.899-16.918-10.149c-1.973-1.121-4.588-1.527-6.036-3.677
		c-2.516-3.736-6.781-5.321-9.929-8.378c-3.01-2.921-5.901-5.883-8.724-8.992c-2.131-2.348-3.196-5.373-5.151-7.545
		c-2.132-2.372-3.224-4.889-4.251-7.744c-0.729-2.028-0.638-4.18-1.323-6.121c-2.645-7.497-7.399-13.749-11.943-20.057
		c-2.729-3.789-6.882-6.76-9.184-10.533c-3.489-5.723-6.187-12.395-4.679-19.779c0.371-1.816-0.156-3.93,0.2-5.617
		c0.636-3.012,0.221-6.579,2.481-8.938c1.953-2.039,2.957-4.92,5.211-6.48c3.644-2.52,5.879-6.441,9.771-8.867
		c4.86-3.031,9.203-7.127,13.226-11.31c3.35-3.483,4.851-8.331,6.995-12.694c1.868-3.801,2.696-8.216,5.489-11.431
		c5.644-6.495,11.967-12.124,18.972-17.234c4.782-3.489,9.21-4.23,14.493-4.076c4.316,0.125,8.031,2.683,12.486,2.578
		c2.506-0.06,4.563-2.232,7.118-1.12c3.17,1.382,6.585,0.918,9.888,1.297c2.377,0.273,4.396-1.39,6.89-1.164
		c2.733,0.248,5.353,0.946,8.001,1.474c3.746,0.748,7.21-0.688,10.81-0.926c10.329-0.68,20.182,4,30.567,2.855
		c0.473-0.052,1.047,0.026,1.445,0.265c4.459,2.667,9.677,1.573,14.397,2.999c1.201,0.363,2.923-0.687,3.955-0.164
		c3.635,1.841,7.452,2.023,11.346,2.047c0.751,0.004,1.367,0.373,2.05,0.648c2.166,0.874,4.433,1.487,6.659,2.201
		C381.848,91.237,381.892,91.33,381.935,91.423z M425.645,197.964c-0.824-2.124,0.472-2.89,1.811-3.663
		c2.638-1.521,5.633-1.879,8.474-2.724c2.979-0.886,4.746-2.707,5.836-5.744c7.057-19.679-5.23-31.94-21.771-35.038
		c-4.04-0.757-8.153-0.901-12.28-1.221c1.822-1.628,3.731-1.516,5.794-1.071c4.701,1.018,9.369,2.459,14.29,1.67
		c1.449-0.232,2.616,0.58,3.804,1.251c10.985,6.215,16.231,18.773,13.116,31.416c-0.299,1.208-0.936,2.359-0.565,3.718
		c1.562-0.322,1.723-1.806,2.025-2.864c3.159-11.004,2.347-21.275-5.478-30.205c-2.144-2.448-4.204-4.98-6.171-7.578
		c-3.911-5.167-5.196-11.126-4.464-17.526c0.252-2.204-0.326-3.759-1.718-5.419c-13.672-16.322-30.578-25.246-52.024-23.975
		c-0.616,0.036-1.239,0.021-1.854-0.024c-0.211-0.015-0.407-0.197-0.625-0.311c0.237-1.326,1.304-0.854,2.06-0.966
		c0.781-0.117,1.581-0.106,2.396-0.152c-0.21-0.93-0.691-1.236-1.354-1.361c-33.4-6.333-66.974-11.117-101.029-11.688
		c-5.448-0.091-10.896-0.414-16.338-0.696c-10.624-0.551-18.972,3.845-25.507,12.225c-2.862,3.671-5.379,7.568-7.703,11.628
		c-4.862,8.496-9.082,17.436-16.377,24.922c5.558,1.51,11.196-1.226,16.73,2.471c-6.35-0.696-11.865-1.16-17.389,0.177
		c-16.065,3.889-26.681,18.904-24.237,34.893c1.454,9.517,7.106,16.457,14.12,22.454c0.636,0.544,4.043,0.754,1.194,3.151
		c-0.495,0.417,0.651,1.17,1.227,1.585c4.074,2.94,6.364,7.152,7.248,11.967c2.896,15.753,12.646,26.496,24.455,35.796
		c15.145,11.929,32.289,20.471,48.818,30.064c7.729,4.485,15.228,9.382,22.843,14.077c3.037,1.871,6.252,2.835,9.895,2.429
		c5.688-0.635,10.639,1.994,15.586,4.222c19.422,8.738,39.805,12.869,60.954,13.107c8.955,0.1,17.813-0.952,25.876-5.587
		c7.635-4.388,12.373-10.483,12.719-19.915c0.579-15.855-0.835-31.647-0.925-47.478c-0.056-9.828,1.001-19.448,3.73-28.895
		c1.539-5.329,4.51-9.793,7.512-14.449C435.278,194.309,430.146,195.146,425.645,197.964z M319.225,82.342
		c0.197,0.012,0.405-0.165,0.608-0.257c-0.308-0.12-0.609-0.294-0.927-0.337c-0.191-0.027-0.408,0.152-0.766,0.303
		C318.591,82.18,318.903,82.321,319.225,82.342z M312.628,81.581c-0.079-0.045-0.161-0.128-0.238-0.125
		c-0.074,0.003-0.146,0.097-0.22,0.15c0.079,0.046,0.16,0.091,0.24,0.137C312.482,81.689,312.556,81.635,312.628,81.581z
		 M398.861,314.592c0.085,0.008,0.176-0.04,0.263-0.064c-0.021-0.076-0.039-0.219-0.068-0.219c-0.086-0.01-0.175,0.039-0.263,0.063
		C398.814,314.449,398.832,314.588,398.861,314.592z"/>
	<path fill="#F7F7F7" d="M432.832,207.088c-2.729,9.447-3.786,19.067-3.73,28.895c0.09,15.83,1.504,31.623,0.925,47.478
		c-0.346,9.432-5.084,15.528-12.719,19.915c-8.063,4.636-16.921,5.687-25.876,5.587c-21.149-0.238-41.532-4.369-60.954-13.107
		c-4.947-2.228-9.896-4.855-15.586-4.222c-3.643,0.406-6.856-0.558-9.895-2.429c-7.615-4.695-15.114-9.591-22.843-14.077
		c-16.529-9.593-33.673-18.135-48.818-30.064c-11.809-9.3-21.559-20.043-24.455-35.796c-0.884-4.815-3.174-9.027-7.248-11.967
		c-0.576-0.415-1.722-1.169-1.227-1.585c2.849-2.397-0.559-2.607-1.194-3.151c-7.014-5.997-12.666-12.938-14.12-22.454
		c-2.444-15.988,8.172-31.003,24.237-34.893c5.524-1.337,11.039-0.873,17.389-0.177c-5.535-3.697-11.172-0.96-16.73-2.471
		c7.295-7.486,11.515-16.426,16.377-24.922c2.324-4.06,4.841-7.957,7.703-11.628c6.536-8.38,14.884-12.775,25.507-12.225
		c5.442,0.282,10.89,0.605,16.338,0.696c34.057,0.571,67.629,5.354,101.029,11.688c0.661,0.125,1.144,0.431,1.354,1.361
		c-0.813,0.046-1.613,0.035-2.396,0.152c-0.757,0.112-1.821-0.36-2.06,0.966c0.218,0.113,0.414,0.295,0.625,0.311
		c0.615,0.045,1.238,0.061,1.854,0.024c21.446-1.271,38.354,7.652,52.024,23.975c1.392,1.66,1.97,3.216,1.718,5.419
		c-0.732,6.4,0.553,12.359,4.464,17.526c1.967,2.598,4.027,5.13,6.171,7.578c7.822,8.93,8.637,19.201,5.478,30.205
		c-0.304,1.058-0.465,2.542-2.025,2.864c-0.369-1.358,0.268-2.509,0.565-3.718c3.115-12.642-2.131-25.201-13.116-31.416
		c-1.188-0.671-2.354-1.484-3.804-1.251c-4.921,0.79-9.589-0.652-14.29-1.67c-2.063-0.445-3.972-0.557-5.794,1.071
		c4.127,0.32,8.24,0.463,12.28,1.221c16.539,3.098,28.826,15.359,21.771,35.038c-1.09,3.037-2.856,4.858-5.836,5.744
		c-2.841,0.844-5.836,1.202-8.474,2.724c-1.339,0.773-2.635,1.54-1.811,3.663c4.501-2.818,9.635-3.655,14.699-5.325
		C437.342,197.295,434.371,201.76,432.832,207.088z M305.074,108.271c5.309-0.028,10.618,0.647,15.935,0.708
		c-13.723-3.164-27.477-3.372-41.149,0.333c-6.604,1.79-12.994,4.243-17.496,10.013c-0.331,0.495-0.661,0.991-0.991,1.485
		c0.92,0.457,1.31-0.166,1.66-0.862C275.363,109.671,290.092,108.35,305.074,108.271z M392.414,261.432
		c13.266-1.845,20.373-9.738,24.22-21.907c4.054-12.823,5.349-25.978,4.615-39.386c-0.304-5.562-2.298-10.582-4.473-15.544
		c-1.127-2.574-2.024-5.138-1.841-8.021c0.093-1.438-0.01-2.871-1.936-3.03c-1.836-0.151-2.205,1.218-2.657,2.576
		c-0.809,2.427-1.185,4.948-1.258,7.471c-0.154,5.32-2.66,8.823-7.087,11.548c-11.153,6.867-23.281,9.736-36.106,10.039
		c-22.935,0.541-44.6-5.565-65.889-13.323c-21.679-7.9-42.323-18.163-62.578-29.273c-2.209-1.211-4.065-2.215-3.377-5.322
		c0.263-1.19-0.102-2.601-1.134-3.468c-1.382-1.16-2.916-2.089-3.257,0.871c-0.655,5.673-4.184,8.921-8.843,11.339
		c-2.536,1.316-4.999,2.784-7.437,4.282c-0.887,0.545-2.263,1.114-1.929,2.388c0.311,1.184,1.777,1.367,2.827,1.482
		c1.452,0.159,2.951-0.007,4.42-0.144c4.883-0.456,8.504,3.396,7.024,8.14c-0.756,2.424-0.096,3.65,1.246,5.262
		c6.139,7.369,10.079,16.18,15.036,24.327c10.269,16.876,25.367,27.98,42.183,37.101c14.738,7.991,30.871,10.473,47.104,12.579
		c3.677,0.479,7.409,0.528,11.115,0.776C359.09,263.75,375.712,263.752,392.414,261.432z M361.873,167.439
		c-2.091-1.872-1.156-3.951-1.053-5.955c0.339-6.592,0.385-6.683,6.748-7.956c8.083-1.616,16.312-0.872,24.464-1.41
		c2.986-0.197,5.859-0.933,8.772-1.524c2.395-0.484,2.26-1.525,1.426-3.426c-1.813-4.143-4.956-6.775-9.068-7.754
		c-13.053-3.105-25.318-1.485-36.042,7.477c-1.111,0.929-1.871,1.21-3.242,0.632c-1.454-0.612-3.094-0.923-4.674-1.015
		c-0.998-0.059-2.438-0.243-2.915,1.103c-0.506,1.423-0.027,2.778,1.113,3.744c0.751,0.637,1.6,1.189,2.479,1.625
		c5.521,2.734,5.934,2.784,4.951,9.067c-0.98,6.275,0.289,10.858,6.27,13.473c0.662,0.291,1.217,0.861,1.791,1.338
		c4.112,3.408,4.306,5.131,1.16,9.332c-1.975,2.64-4.194,5.004-6.943,6.805c-2.83,1.855-5.619,2.65-8.362-0.208
		c-0.877-0.914-1.852-1.575-3.271-0.672c-1.763,1.12-0.431,2.319-0.097,3.247c2.41,6.688,6.756,8.146,12.301,3.859
		c3.943-3.047,7.516-6.601,11.231-9.951c1.483-1.338,2.785-2.398,4.466-0.1c1.616,2.21,3.199,1.646,3.976-0.797
		c0.768-2.42,2.123-1.966,3.61-1.047c1.796,1.109,3.496,2.382,5.283,3.505c2.037,1.28,4.092,2.593,7.622,2.358
		C381.072,186.365,371.875,176.4,361.873,167.439z M269.236,144.455c15.641-3.923,29.518,1.177,43.018,8.449
		c1.641,0.883,3.144,3.381,5.122,2.128c3.493-2.211,7.958-3.333,9.753-7.77c0.909-2.247-0.036-4.209-1.229-6.044
		c-3.546-5.451-8.535-9.044-14.373-11.492c-12.128-5.084-24.563-6.601-37.397-3.124c-5.709,1.546-10.445,4.646-13.857,9.612
		c-1.156,1.686-3.043,3.646-1.972,5.733c1.134,2.205,3.733,2.696,6.206,2.984C266.042,144.788,267.691,144.843,269.236,144.455z
		 M209.112,174.231c-1.262-3.901-2.17-7.77-1.096-11.88c2.83-10.835,15.479-17.472,25.802-13.483
		c0.767,0.298,1.375,1.015,2.06,1.534c12.901,9.809,27.272,12.544,42.786,8.677c4.87-1.214,8.617-4.376,9.837-9.822
		c0.433-1.923,0.3-2.92-2.078-2.126c-1.918,0.639-3.749,1.427-5.289,2.681c-10.225,8.323-20.59,7.187-30.912,0.496
		c-5.781-3.749-11.516-7.297-18.627-7.752c-11.044-0.704-20.347,2.573-26.659,12.301c-5.928,9.136-3.993,21.151,4.339,28.484
		C211.043,180.227,210.065,177.173,209.112,174.231z M396.053,105.83c-3.29-0.671-6.686-0.9-9.981-0.332
		c-15.725,2.711-31.113,0.451-46.357-3.162c-12.592-2.985-25.212-5.297-38.202-4.361c-16.386,1.183-31.554,5.946-44.656,16.52
		c-0.946,0.765-2.101,1.362-2.618,2.732c1.32,0.997,2.045-0.34,2.792-0.846c24.482-16.607,50.766-21.236,78.927-12.361
		c13.855,4.367,28.045,4.343,42.284,4.101c5.316-0.089,10.634-0.436,15.943-0.783c2.229-0.146,4.121,0.333,5.773,1.91
		c0.939,0.895,1.887,1.874,3.783,2.226C401.938,107.895,399.209,106.474,396.053,105.83z M422.421,163.134
		c-9.084-2.349-17.395,0.265-25.164,4.888c-2.258,1.342-3.811,1.891-5.597-0.256c-0.158-0.188-0.373-0.333-0.573-0.478
		c-1.826-1.326-3.72-2.958-5.943-0.993c-1.253,1.111,0.313,5.603,2.418,6.893c4.78,2.933,10.216,2.596,15.495,2.913
		c1.38,0.083,1.284-1.294,1.576-2.195c1.28-3.933,4.024-5.45,7.957-5.396c4.411,0.063,8.488,1.561,12.664,2.658
		c1.524,0.4,3,1.146,4.784,0.699C429.313,167.233,426.781,164.261,422.421,163.134z M346.314,285.545
		c0.125-0.38,0.251-0.761,0.376-1.143c-2.156-0.399-4.319-0.768-6.468-1.211c-2.302-0.475-4.595-0.989-6.882-1.539
		c-14.785-3.549-29.194-8.146-43.258-14.146c-14.205-6.056-27.69-13.338-40.809-21.451c-4.395-2.717-8.886-5.259-14.129-5.927
		C268.65,264.413,306.165,278.375,346.314,285.545z M263.753,103.083c21.42-13.229,44.064-15.396,67.942-8.925
		c12.335,3.343,24.927,5.42,37.803,4.962c0.055-0.989-0.466-1.264-1.298-1.277c-14.977-0.256-29.375-4.312-43.935-7.133
		c-23.25-4.506-44.744-0.47-64.744,12.41c-3.977,2.559-7.917,5.173-11.862,7.782c-0.149,0.1-0.163,0.412-0.543,1.46
		C253.049,109.069,258.535,106.304,263.753,103.083z M304.33,186.421c0.638,1.994,1.736,3.631,3.621,4.569
		c1.688,0.84,3.646,0.784,4.842-0.475c1.261-1.332,0.352-3.072-0.663-4.44c-0.371-0.5-0.729-1.028-1.179-1.447
		c-1.926-1.793-2.791-3.944-1.61-6.437c0.981-2.074,3.107-1.544,4.867-1.688c2.089-0.172,4.192-0.193,6.275-0.425
		c2.313-0.258,2.498-1.572,1.389-3.376c-0.929-1.511-2.429-2.307-4-2.447c-4.097-0.364-8.063,0.14-11.735,2.394
		c-2.49,1.529-2.324,3.938-2.574,7.007C303.377,181.49,303.553,183.986,304.33,186.421z M313.035,272.893
		c6.379,1.771,12.871,3.002,19.57,2.254c-6.961-1.068-13.822-2.487-20.563-4.533c-13.021-3.956-24.571-11.008-36.265-17.77
		c-5.897-3.412-11.688-7.056-18.055-9.536c-1.184-0.461-2.327-1.311-4.931-0.819C273.291,253.381,291.352,266.867,313.035,272.893z
		 M320.438,187.825c1.938-0.463,3.916-0.346,5.901-0.005c2.438,0.419,4.903,0.735,7.369,0.88c1.271,0.074,3.129,0.561,3.625-1.034
		c0.54-1.734-0.765-3.135-2.209-3.989c-5.488-3.242-11.36-2.875-17.306-1.741c-1.649,0.314-1.221,1.612-1.352,2.537
		C316.315,188.432,316.731,188.711,320.438,187.825z M399.185,285.893c-13.314,2.851-26.636,1.61-39.964,0.33
		c-2.321-0.225-4.656-0.318-7.004-0.106c15.786,2.038,31.532,5.013,47.543,2.153c5.754-1.027,10.733-3.598,14.639-8.15
		C409.351,282.311,404.516,284.75,399.185,285.893z M394.122,117.991c-10.701-4.107-21.772-4.113-32.914-2.246
		c-1.093,0.183-2.873,0.485-2.512,2.136c0.424,1.942,2.007,0.763,3.048,0.5c9.643-2.439,19.26-3.153,28.848,0.151
		c5.146,1.773,9.724,4.349,12.57,9.362c0.297,0.524,0.763,0.962,1.208,1.375c0.104,0.096,0.45-0.079,0.683-0.128
		C403.15,122.421,402,121.015,394.122,117.991z M385.756,276.313c-6.543,1.597-13.206,1.373-20.389,2.031
		c8.917,2.102,22.79,1.162,29.354-1.806c4.57-2.063,7.02-4.685,8.896-10.153C398.265,272.094,392.321,274.707,385.756,276.313z
		 M195.101,152.756c-1.534,2.475-1.769,5.296-1.852,8.067c-0.205,6.765,0.407,13.486,1.499,20.152
		c0.439,2.686,3.641,5.117,6.921,5.442C192.157,176.716,194.34,164.632,195.101,152.756z M367.308,269.111
		c-13.181-0.879-26.359-1.758-39.54-2.637c-0.069,0.357-0.141,0.713-0.211,1.069C340.815,267.921,353.921,270.926,367.308,269.111z
		 M297.525,174.901c-4.373,0.598-8.574-0.859-12.877-0.865c-1.771-0.002-3.961-0.729-5.321,2.179
		c5.269-1.463,10.075-0.391,14.919,0.164c2.068,0.237,4.184,0.333,6.193-0.563c1.697-0.756,2.324-2.207,2.425-3.929
		c0.069-1.224-0.204-2.318-1.992-1.988C302.256,173.317,300.572,174.486,297.525,174.901z M200.708,143.03
		c8.204-6.79,17.765-5.36,27.109-5.274C216.691,134.761,204.357,136.583,200.708,143.03z M436.498,165.053
		c0.023-1.406-0.879-2.03-1.79-2.637c-2.526-1.68-4.912-3.68-8.254-4.249c0.563,2.264,2.273,2.94,3.732,3.693
		c4.065,2.101,6.042,5.08,5.093,9.949c-0.406,2.084-1.085,4.466,0.931,6.648C437.235,173.83,436.425,169.436,436.498,165.053z
		 M316.835,111.623c5.201,3.972,7.473,8.851,6.738,15.048C326.124,119.104,322.859,111.322,316.835,111.623z M246.741,138.127
		c2.818-0.277,5.612-0.247,8.594-2.458c-4.873-0.308-8.76,1.604-12.931,1.092c1.806,4.309,4.482,5.287,9.241,3.331
		C250.052,139.028,247.881,140.356,246.741,138.127z M361.129,134.681c-0.426-3.913,0.193-7.509,3.721-9.979
		c0.521-0.364,1.729-1.026,0.415-1.94c-0.821-0.573-1.446-0.418-2.188,0.445c-2.305,2.682-3.454,5.661-3.272,9.274
		c0.104,2.079-0.235,4.183-0.375,6.275C360.673,137.576,361.309,136.328,361.129,134.681z M427.271,187.602
		c4.953,0.188,6.823-1.302,8.371-6.843C433.173,183.392,429.889,184.913,427.271,187.602z M416.24,277.832
		c1.063-2.703,2.622-5.346,0.555-8.316C416.611,272.287,416.426,275.059,416.24,277.832z M349.269,285.936
		c0.091-0.02,0.182-0.062,0.269-0.049c0.029,0.004,0.041,0.139,0.061,0.213c-0.089,0.021-0.179,0.043-0.269,0.064
		C349.308,286.087,349.288,286.014,349.269,285.936z"/>
	<path d="M318.142,82.051c0.449,0.129,0.763,0.271,1.083,0.291c0.197,0.012,0.405-0.165,0.608-0.257
		c-0.308-0.12-0.609-0.294-0.927-0.337C318.715,81.72,318.498,81.9,318.142,82.051z"/>
	<path d="M312.41,81.743c0.072-0.054,0.146-0.108,0.218-0.163c-0.079-0.045-0.161-0.128-0.238-0.125
		c-0.074,0.003-0.146,0.097-0.22,0.15C312.249,81.652,312.33,81.697,312.41,81.743z"/>
	<path d="M398.793,314.372c0.021,0.077,0.039,0.216,0.068,0.22c0.085,0.008,0.176-0.04,0.263-0.064
		c-0.021-0.076-0.039-0.219-0.068-0.219C398.97,314.299,398.881,314.348,398.793,314.372z"/>
	<path d="M381.805,91.146c0.043,0.092,0.087,0.185,0.13,0.277c-0.043-0.094-0.085-0.187-0.127-0.279L381.805,91.146z"/>
	<path d="M442.243,201.876c-0.046-0.094-0.093-0.188-0.138-0.282c0.043,0.098,0.085,0.195,0.127,0.292L442.243,201.876z"/>
	<path d="M439.656,207.048c-0.045-0.094-0.091-0.189-0.135-0.284c0.048,0.093,0.094,0.186,0.14,0.278L439.656,207.048z"/>
	<path d="M437.867,211.505c-0.044-0.095-0.087-0.188-0.133-0.282c0.049,0.091,0.095,0.183,0.142,0.273
		C437.877,211.496,437.867,211.505,437.867,211.505z"/>
	<path fill="#111111" d="M331.287,261.419c-16.231-2.106-32.364-4.588-47.104-12.579c-16.815-9.12-31.914-20.224-42.183-37.101
		c-4.957-8.146-8.897-16.958-15.036-24.327c-1.342-1.612-2.002-2.838-1.246-5.262c1.48-4.745-2.141-8.596-7.024-8.14
		c-1.469,0.137-2.968,0.303-4.42,0.144c-1.05-0.115-2.516-0.298-2.827-1.482c-0.334-1.274,1.042-1.843,1.929-2.388
		c2.438-1.498,4.901-2.966,7.437-4.282c4.659-2.418,8.188-5.666,8.843-11.339c0.341-2.96,1.875-2.031,3.257-0.871
		c1.032,0.867,1.397,2.277,1.134,3.468c-0.688,3.106,1.168,4.11,3.377,5.322c20.253,11.111,40.899,21.374,62.578,29.273
		c21.289,7.758,42.954,13.864,65.889,13.323c12.825-0.303,24.953-3.172,36.106-10.039c4.427-2.725,6.933-6.228,7.087-11.548
		c0.073-2.523,0.449-5.044,1.258-7.471c0.452-1.358,0.821-2.728,2.657-2.576c1.926,0.159,2.027,1.592,1.936,3.03
		c-0.185,2.883,0.714,5.448,1.841,8.021c2.175,4.963,4.169,9.983,4.473,15.544c0.732,13.408-0.563,26.563-4.615,39.386
		c-3.847,12.168-10.954,20.062-24.22,21.907c-16.702,2.32-33.324,2.318-50.012,0.765
		C338.696,261.947,334.964,261.896,331.287,261.419z M290.115,237.907c-2.586,4.813-2.467,4.868,2.414,6.687
		c6.596,2.456,13.045,5.368,20.025,6.61c0.606,0.106,1.223,0.183,1.837,0.25c6.543,0.71,6.526,0.709,7.335-5.781
		c0.452-3.633,1.004-7.25,1.433-10.886c0.144-1.232,0.271-2.428-1.556-2.809c-8.523-1.775-16.408-5.35-24.185-9.201
		c-0.428-0.212-0.916-0.294-2.049-0.646C296.354,228.653,292.721,233.061,290.115,237.907z M258.171,219.451
		c-1.104,1.181-0.453,1.647,0.373,2.253c7.218,5.294,13.709,11.566,21.203,16.494c1.729,1.136,2.957,1.688,3.483-1.162
		c0.396-2.139,1.893-3.808,2.983-5.642c1.027-1.719,2.164-3.428,2.837-5.299c1.629-4.524,0.928-5.693-3.38-7.41
		c-8.041-3.208-15.704-7.217-23.386-12.095C262.369,211.808,261.342,216.054,258.171,219.451z M296.261,199.255
		c0.511-1.619,0.272-2.438-1.483-3.004c-10.836-3.497-21.172-8.459-32.168-11.523c-1.125,5.215,1.593,11.21,6.656,14.395
		c4.227,2.656,8.815,4.501,13.517,6.117c3.502,1.205,6.907,2.707,10.501,4.132C294.261,206.022,295.197,202.619,296.261,199.255z
		 M330.311,213.781c0.566-4.227-0.364-6.218-4.704-7.306c-6.923-1.736-13.76-3.857-20.694-5.604
		c-1.959-0.494-2.605-0.043-3.055,1.843c-0.754,3.18-3.006,6.641-2.313,9.356c0.801,3.125,5.387,2.232,8.225,3.371
		c3.534,1.417,7.296,2.273,10.997,3.219c1.662,0.424,3.416,0.478,4.123,0.569C329.801,219.733,329.519,219.695,330.311,213.781z
		 M346.96,255.098c1.746-1.618,1.646-5.34,2.319-8.14c0.617-2.562,2.277-5.628,1.453-7.564c-0.785-1.841-4.433-0.657-6.803-1.05
		c-4.276-0.709-8.503-1.59-12.563-3.079c-2.165-0.794-2.788-0.404-2.836,1.955c-0.101,4.903,0.266,9.897-1.58,14.59
		c-0.609,1.551,0.278,1.663,1.244,2.005c3.315,1.17,6.779,1.24,10.554,1.527C341.341,255.128,344.978,256.936,346.96,255.098z
		 M255.752,189.662c2.537-7.1-1.479-10.108-6.922-12.99c-4.662-2.469-8.658-6.212-13.773-7.953c-4.72-1.607-5.454-0.993-4.44,4.068
		c1.519,7.584,6.65,12.186,12.9,15.627c3.681,2.027,7.706,3.313,12.389,4.152C255.825,191.36,255.49,190.4,255.752,189.662z
		 M381.07,221.195c1.476-0.304,2.455-0.604,1.528-2.675c-1.11-2.488,0.383-6.427-1.81-7.761c-1.676-1.019-4.837,0.685-7.358,0.882
		c-3.069,0.239-6.165,0.173-9.249,0.23c-1.938,0.035-3.471,0.395-2.463,2.978c0.084,0.22-0.001,0.503,0.021,0.753
		c0.172,1.962-1.593,4.546-0.021,5.675c1.452,1.044,4.021,0.47,6.099,0.609C372.262,222.336,376.686,222.102,381.07,221.195z
		 M360.5,256.577c3.277,0.005,5.809-0.666,6.938-4.592c0.85-2.948,2.747-5.606,4.317-8.308c1.003-1.728,0.438-2.302-1.242-2.816
		c-9.029-2.773-17.635,4.216-16.993,14.112c0.19,2.925,3.014,0.757,4.163,1.64C358.774,256.598,359.638,256.576,360.5,256.577z
		 M353.272,221.094c0.701,0.04,1.733,0.48,2.045-0.3c1.161-2.937-0.883-5.568-0.964-8.415c-0.047-1.689-1.4-1.09-2.218-1.123
		c-4.483-0.178-8.691-1.744-13.041-2.589c-2.238-0.435-2.969,0.16-3.148,2.575c-0.647,8.687-0.744,8.678,7.729,9.243
		c0.615,0.041,1.229,0.082,1.846,0.123c0-0.006,0.001-0.013,0.001-0.021C348.105,220.761,350.688,220.949,353.272,221.094z
		 M246.938,207.664c0.862,1.563,1.933,2.937,3.248,4.094c1.183,1.043,2.606,2.931,3.911,2.264c1.542-0.787,2.011-3.05,2.105-5
		c0.121-2.545-0.912-4.693-2.438-6.563c-3.509-4.298-7.952-6.769-14.149-7.292C242.8,199.422,244.718,203.632,246.938,207.664z
		 M398.395,207.703c-0.732-1.707-1.563-2.659-3.531-1.158c-1.231,0.94-2.865,1.587-4.396,1.806c-2.93,0.417-3.309,1.959-2.457,4.415
		c0.847,2.442,2.442,4.713,1.61,7.551c-0.072,0.246,0.152,0.71,0.38,0.892c1.052,0.839,6.889-1.178,7.283-2.52
		c0.67-2.28,1.286-4.577,1.636-5.836C399.086,210.362,398.948,208.991,398.395,207.703z M379.284,242.392
		c-0.547,0.094-0.829,0.442-0.897,1.003c-0.548,4.513-3.929,7.802-5.095,12.33c1.93,0.56,3.843,0.023,5.666-0.271
		c1.992-0.321,4.308-0.277,3.635-3.951c-0.368-2.014,1.799-3.981,3.081-5.829c0.915-1.32,1.732-2.711,3.126-4.911
		C385.038,241.407,382.162,241.897,379.284,242.392z M397.975,244.489c0.719-1.558,1.881-3.028,0.944-5.528
		c-5.118,3.784-7.286,9.189-9.688,15.019c4.194-0.446,7.906-0.885,11.913-2.656C396.016,249.488,395.862,249.081,397.975,244.489z
		 M405.548,200.713c-1.914,4.49-1.893,7.657,0.188,17.814C411.028,215.484,410.862,208.511,405.548,200.713z M410.365,236.58
		c-2.193,3.674-6.227,6.292-5.596,11.517C406.263,244.031,409.916,241.174,410.365,236.58z"/>
	<path fill="#111111" d="M386.247,190.83c-1.787-1.123-3.487-2.396-5.283-3.505c-1.487-0.918-2.844-1.373-3.609,1.047
		c-0.776,2.442-2.359,3.007-3.977,0.797c-1.681-2.298-2.98-1.238-4.466,0.1c-3.717,3.35-7.288,6.903-11.231,9.951
		c-5.545,4.287-9.891,2.828-12.301-3.859c-0.334-0.928-1.666-2.127,0.097-3.247c1.422-0.902,2.396-0.241,3.271,0.672
		c2.743,2.858,5.532,2.064,8.362,0.208c2.749-1.801,4.97-4.165,6.943-6.805c3.146-4.201,2.952-5.924-1.16-9.332
		c-0.574-0.478-1.129-1.047-1.79-1.338c-5.98-2.614-7.25-7.198-6.271-13.473c0.981-6.283,0.569-6.333-4.951-9.067
		c-0.881-0.436-1.729-0.988-2.479-1.625c-1.142-0.965-1.619-2.32-1.113-3.744c0.478-1.345,1.917-1.162,2.915-1.103
		c1.58,0.092,3.22,0.403,4.674,1.015c1.371,0.578,2.131,0.297,3.242-0.632c10.724-8.961,22.989-10.582,36.042-7.477
		c4.112,0.979,7.256,3.611,9.069,7.754c0.833,1.901,0.968,2.942-1.427,3.426c-2.913,0.591-5.785,1.327-8.772,1.524
		c-8.152,0.538-16.381-0.206-24.464,1.41c-6.363,1.273-6.409,1.363-6.748,7.956c-0.104,2.004-1.038,4.083,1.053,5.955
		c10.002,8.961,19.199,18.926,31.996,25.749C390.339,193.423,388.284,192.11,386.247,190.83z M393.823,145.394
		c-4.96-0.469-8.739-2.674-13.771-0.2C384.921,145.529,388.721,147.399,393.823,145.394z"/>
	<path fill="#111111" d="M258.299,141.948c-1.072-2.087,0.814-4.048,1.973-5.733c3.412-4.966,8.147-8.065,13.856-9.612
		c12.836-3.477,25.271-1.96,37.397,3.124c5.838,2.448,10.827,6.041,14.373,11.492c1.193,1.834,2.14,3.797,1.229,6.044
		c-1.795,4.437-6.26,5.559-9.753,7.77c-1.979,1.253-3.481-1.245-5.122-2.128c-13.5-7.272-27.377-12.373-43.017-8.449
		c-1.545,0.388-3.195,0.333-4.732,0.478C262.032,144.644,259.434,144.152,258.299,141.948z M296.911,138.871
		c0.769,2.15,4.471,1.275,6.737,2.362c2.923,1.402,5.386,3.522,8.201,5.041c2.229,1.2,5.311,3.021,7.022,0.622
		c1.669-2.337-0.765-4.891-2.575-6.799c-2.634-2.776-6.143-4.108-9.496-5.638c-2.559-1.166-5.227-2.077-8.074-3.192
		C298.729,134.161,296.178,136.815,296.911,138.871z M271.712,137.965c1.3-0.099,2.267-0.644,2.263-1.941
		c-0.008-1.574-1.451-1.071-2.274-1.066c-2.642,0.013-5.099,0.52-6.229,3.8C267.877,138.441,269.788,138.112,271.712,137.965z"/>
	<path fill="#111111" d="M209.274,183.341c1.769-3.114,0.791-6.168-0.162-9.11c-1.262-3.901-2.17-7.77-1.096-11.88
		c2.83-10.835,15.479-17.472,25.802-13.483c0.767,0.298,1.375,1.015,2.06,1.534c12.901,9.809,27.272,12.544,42.786,8.677
		c4.87-1.214,8.617-4.376,9.837-9.822c0.433-1.923,0.3-2.92-2.078-2.126c-1.918,0.639-3.749,1.427-5.289,2.681
		c-10.225,8.323-20.59,7.187-30.912,0.496c-5.781-3.749-11.516-7.297-18.627-7.752c-11.044-0.704-20.347,2.573-26.659,12.301
		C199.007,163.993,200.942,176.008,209.274,183.341z"/>
	<path fill="#111111" d="M403.739,111.473c-1.802-3.578-4.53-4.999-7.688-5.643c-3.29-0.671-6.686-0.9-9.981-0.332
		c-15.725,2.711-31.113,0.451-46.357-3.162c-12.592-2.985-25.212-5.297-38.201-4.361c-16.387,1.183-31.555,5.946-44.658,16.52
		c-0.945,0.765-2.1,1.362-2.617,2.732c1.32,0.997,2.045-0.34,2.792-0.846c24.481-16.607,50.765-21.236,78.926-12.361
		c13.855,4.367,28.045,4.343,42.284,4.101c5.316-0.089,10.634-0.436,15.943-0.783c2.229-0.146,4.121,0.333,5.773,1.91
		C400.896,110.142,401.843,111.121,403.739,111.473z"/>
	<path fill="#111111" d="M430.038,171.866c-0.728-4.633-3.257-7.605-7.617-8.732c-9.084-2.349-17.395,0.265-25.164,4.888
		c-2.258,1.342-3.811,1.891-5.597-0.256c-0.158-0.188-0.373-0.333-0.573-0.478c-1.826-1.326-3.72-2.958-5.943-0.993
		c-1.253,1.111,0.313,5.603,2.418,6.893c4.78,2.933,10.216,2.596,15.495,2.913c1.38,0.083,1.284-1.294,1.576-2.195
		c1.28-3.933,4.024-5.45,7.957-5.396c4.411,0.063,8.488,1.561,12.664,2.658C426.778,171.568,428.254,172.314,430.038,171.866z"/>
	<path fill="#111111" d="M235.146,240.13c33.506,24.283,71.02,38.245,111.169,45.415c0.125-0.38,0.251-0.761,0.376-1.143
		c-2.156-0.399-4.319-0.768-6.468-1.211c-2.302-0.475-4.595-0.989-6.882-1.539c-14.785-3.549-29.193-8.146-43.258-14.146
		c-14.205-6.056-27.689-13.338-40.809-21.451C244.88,243.34,240.389,240.798,235.146,240.13z"/>
	<path fill="#111111" d="M247.116,112.361c5.933-3.292,11.419-6.058,16.637-9.279c21.42-13.229,44.064-15.396,67.942-8.925
		c12.335,3.343,24.927,5.42,37.803,4.962c0.055-0.989-0.466-1.264-1.298-1.277c-14.977-0.256-29.375-4.312-43.935-7.133
		c-23.25-4.506-44.744-0.47-64.744,12.41c-3.977,2.559-7.917,5.173-11.862,7.782C247.511,111.001,247.497,111.313,247.116,112.361z"
		/>
	<path fill="#111111" d="M303.563,179.656c-0.186,1.834-0.01,4.331,0.769,6.765c0.638,1.994,1.736,3.631,3.621,4.569
		c1.688,0.84,3.646,0.784,4.842-0.475c1.261-1.332,0.353-3.072-0.663-4.44c-0.371-0.5-0.729-1.028-1.179-1.447
		c-1.926-1.793-2.791-3.944-1.61-6.437c0.981-2.074,3.107-1.544,4.867-1.688c2.089-0.172,4.192-0.193,6.275-0.425
		c2.313-0.258,2.498-1.572,1.389-3.376c-0.929-1.511-2.429-2.307-4-2.447c-4.097-0.364-8.063,0.14-11.735,2.394
		C303.646,174.177,303.813,176.586,303.563,179.656z"/>
	<path fill="#111111" d="M252.793,242.488c20.498,10.893,38.559,24.379,60.242,30.403c6.379,1.771,12.871,3.002,19.57,2.254
		c-6.961-1.067-13.822-2.486-20.563-4.533c-13.021-3.955-24.571-11.006-36.265-17.769c-5.897-3.412-11.688-7.056-18.055-9.536
		C256.54,242.846,255.396,241.997,252.793,242.488z"/>
	<path fill="#111111" d="M316.468,184.473c-0.151,3.958,0.265,4.238,3.969,3.352c1.938-0.463,3.917-0.346,5.902-0.005
		c2.438,0.419,4.903,0.735,7.369,0.88c1.271,0.074,3.129,0.561,3.625-1.034c0.54-1.734-0.765-3.135-2.209-3.989
		c-5.488-3.242-11.36-2.875-17.306-1.741C316.169,182.25,316.599,183.549,316.468,184.473z"/>
	<path fill="#111111" d="M414.397,280.118c-5.048,2.192-9.883,4.632-15.214,5.772c-13.314,2.852-26.636,1.611-39.964,0.33
		c-2.321-0.224-4.657-0.318-7.004-0.105c15.786,2.037,31.532,5.013,47.543,2.152C405.514,287.241,410.493,284.672,414.397,280.118z"
		/>
	<path fill="#111111" d="M405.052,129.137c-1.9-6.715-3.052-8.122-10.93-11.146c-10.701-4.107-21.772-4.113-32.914-2.246
		c-1.093,0.183-2.873,0.485-2.512,2.136c0.424,1.942,2.007,0.763,3.048,0.5c9.643-2.439,19.26-3.153,28.848,0.151
		c5.146,1.773,9.724,4.349,12.57,9.362c0.297,0.524,0.763,0.962,1.208,1.375C404.474,129.365,404.82,129.19,405.052,129.137z"/>
	<path fill="#111111" d="M263.031,119.949c12.332-10.278,27.061-11.599,42.043-11.677c5.309-0.028,10.618,0.647,15.935,0.708
		c-13.723-3.164-27.477-3.372-41.149,0.333c-6.604,1.79-12.994,4.243-17.496,10.013
		C262.585,119.533,262.809,119.741,263.031,119.949z"/>
	<path fill="#111111" d="M403.617,266.385c-5.354,5.709-11.296,8.322-17.861,9.928c-6.543,1.597-13.206,1.373-20.389,2.031
		c8.917,2.102,22.79,1.162,29.354-1.806C399.293,274.475,401.741,271.854,403.617,266.385z"/>
	<path fill="#111111" d="M201.669,186.417c-9.512-9.701-7.33-21.785-6.569-33.661c-1.534,2.475-1.769,5.296-1.852,8.067
		c-0.205,6.765,0.407,13.486,1.499,20.152C195.187,183.661,198.388,186.092,201.669,186.417z"/>
	<path fill="#111111" d="M327.557,267.545c13.26,0.376,26.364,3.381,39.751,1.566c-13.181-0.879-26.359-1.758-39.54-2.637
		C327.697,266.833,327.627,267.188,327.557,267.545z"/>
	<path fill="#111111" d="M300.872,169.898c1.384,3.419-0.3,4.588-3.347,5.003c-4.373,0.598-8.574-0.859-12.877-0.865
		c-1.771-0.002-3.961-0.729-5.321,2.179c5.269-1.463,10.075-0.391,14.919,0.164c2.068,0.237,4.184,0.333,6.193-0.563
		c1.697-0.756,2.324-2.207,2.425-3.929C302.934,170.663,302.66,169.568,300.872,169.898z"/>
	<path fill="#111111" d="M227.817,137.756c-11.126-2.995-23.46-1.173-27.109,5.274C208.912,136.241,218.473,137.67,227.817,137.756z
		"/>
	<path fill="#111111" d="M436.21,178.459c1.025-4.629,0.215-9.023,0.288-13.406c0.023-1.406-0.879-2.03-1.79-2.637
		c-2.526-1.68-4.912-3.68-8.254-4.249c0.563,2.264,2.273,2.94,3.732,3.693c4.065,2.101,6.042,5.08,5.093,9.949
		C434.873,173.895,434.194,176.276,436.21,178.459z"/>
	<path fill="#111111" d="M323.573,126.67c2.551-7.567-0.714-15.349-6.738-15.048C322.036,115.594,324.308,120.473,323.573,126.67z"
		/>
	<path fill="#111111" d="M251.645,140.093c-1.592-1.065-3.763,0.263-4.904-1.965c2.818-0.277,5.612-0.247,8.594-2.458
		c-4.873-0.308-8.76,1.604-12.931,1.092C244.209,141.07,246.886,142.049,251.645,140.093z"/>
	<path fill="#111111" d="M359.428,138.756c1.245-1.18,1.881-2.428,1.701-4.075c-0.426-3.913,0.193-7.509,3.721-9.979
		c0.521-0.364,1.729-1.026,0.415-1.94c-0.821-0.573-1.446-0.418-2.188,0.445c-2.305,2.682-3.454,5.661-3.272,9.274
		C359.907,134.56,359.566,136.663,359.428,138.756z"/>
	<path fill="#111111" d="M435.643,180.758c-2.47,2.633-5.754,4.155-8.371,6.843C432.225,187.79,434.095,186.299,435.643,180.758z"/>
	<path fill="#111111" d="M416.795,269.516c-0.184,2.771-0.369,5.543-0.555,8.316C417.304,275.129,418.862,272.486,416.795,269.516z"
		/>
	<path fill="#111111" d="M262.361,119.325c-0.33,0.495-0.66,0.991-0.99,1.485c0.92,0.457,1.309-0.166,1.66-0.862
		C262.809,119.741,262.585,119.533,262.361,119.325z"/>
	<path fill="#111111" d="M349.328,286.164c-0.021-0.077-0.04-0.15-0.061-0.229c0.091-0.021,0.182-0.063,0.269-0.051
		c0.029,0.004,0.041,0.139,0.061,0.215C349.508,286.12,349.418,286.143,349.328,286.164z"/>
	<path fill="#F7F7F7" d="M295.371,222.13c0.982,6.523-2.65,10.931-5.256,15.777c-2.586,4.813-2.467,4.868,2.414,6.687
		c6.596,2.456,13.045,5.368,20.025,6.61c0.606,0.106,1.223,0.183,1.837,0.25c6.543,0.71,6.526,0.709,7.335-5.781
		c0.452-3.633,1.004-7.25,1.433-10.886c0.144-1.232,0.271-2.428-1.556-2.809c-8.523-1.775-16.408-5.35-24.185-9.201
		C296.992,222.563,296.504,222.481,295.371,222.13z"/>
	<path fill="#F7F7F7" d="M262.286,206.591c0.083,5.217-0.944,9.463-4.115,12.86c-1.104,1.181-0.453,1.647,0.373,2.253
		c7.218,5.294,13.709,11.566,21.203,16.494c1.729,1.136,2.957,1.688,3.483-1.162c0.396-2.139,1.893-3.808,2.983-5.642
		c1.027-1.719,2.164-3.428,2.837-5.299c1.629-4.524,0.928-5.693-3.38-7.41C277.631,215.478,269.968,211.469,262.286,206.591z"/>
	<path fill="#F7F7F7" d="M293.282,209.373c0.979-3.351,1.915-6.754,2.979-10.117c0.51-1.619,0.271-2.438-1.484-3.004
		c-10.836-3.497-21.172-8.459-32.168-11.523c-1.125,5.215,1.593,11.21,6.656,14.395c4.227,2.656,8.815,4.501,13.517,6.117
		C286.283,206.445,289.688,207.947,293.282,209.373z"/>
	<path fill="#F7F7F7" d="M322.89,219.229c6.911,0.503,6.629,0.465,7.421-5.448c0.566-4.227-0.364-6.218-4.704-7.306
		c-6.923-1.736-13.76-3.857-20.694-5.604c-1.959-0.494-2.605-0.043-3.055,1.843c-0.754,3.18-3.006,6.641-2.313,9.356
		c0.801,3.125,5.387,2.232,8.225,3.371c3.534,1.417,7.296,2.273,10.997,3.219C320.429,219.084,322.183,219.138,322.89,219.229z"/>
	<path fill="#F7F7F7" d="M338.749,255.342c2.592-0.213,6.229,1.594,8.211-0.244c1.746-1.618,1.646-5.34,2.319-8.14
		c0.617-2.562,2.277-5.628,1.453-7.564c-0.785-1.841-4.433-0.657-6.803-1.05c-4.276-0.709-8.503-1.59-12.563-3.079
		c-2.165-0.794-2.788-0.404-2.836,1.955c-0.101,4.903,0.266,9.897-1.58,14.59c-0.609,1.551,0.278,1.663,1.244,2.005
		C331.512,254.985,334.976,255.055,338.749,255.342z"/>
	<path fill="#F7F7F7" d="M255.906,192.567c-0.081-1.208-0.416-2.167-0.153-2.905c2.537-7.1-1.479-10.108-6.922-12.99
		c-4.662-2.469-8.658-6.212-13.773-7.953c-4.72-1.607-5.454-0.993-4.44,4.068c1.519,7.584,6.65,12.186,12.9,15.627
		C247.198,190.443,251.223,191.729,255.906,192.567z"/>
	<path fill="#F7F7F7" d="M367.816,221.886c4.444,0.45,8.868,0.216,13.254-0.69c1.476-0.304,2.455-0.604,1.528-2.675
		c-1.11-2.488,0.383-6.427-1.81-7.761c-1.676-1.019-4.837,0.685-7.358,0.882c-3.069,0.239-6.165,0.173-9.249,0.23
		c-1.938,0.035-3.471,0.395-2.463,2.978c0.084,0.22-0.001,0.503,0.021,0.753c0.172,1.962-1.593,4.546-0.021,5.675
		C363.171,222.321,365.739,221.747,367.816,221.886z"/>
	<path fill="#F7F7F7" d="M357.684,256.613c1.092-0.016,1.954-0.037,2.816-0.036c3.277,0.005,5.809-0.666,6.938-4.592
		c0.85-2.948,2.747-5.606,4.317-8.308c1.003-1.728,0.438-2.302-1.242-2.816c-9.029-2.773-17.635,4.216-16.993,14.112
		C353.711,257.898,356.533,255.73,357.684,256.613z"/>
	<path fill="#F7F7F7" d="M345.522,220.588c2.583,0.173,5.165,0.361,7.75,0.506c0.701,0.04,1.733,0.48,2.045-0.3
		c1.161-2.937-0.883-5.568-0.964-8.415c-0.047-1.689-1.4-1.09-2.218-1.123c-4.483-0.178-8.691-1.744-13.041-2.589
		c-2.238-0.435-2.969,0.16-3.148,2.575c-0.647,8.687-0.744,8.678,7.729,9.243c0.615,0.041,1.229,0.082,1.846,0.123
		C345.521,220.603,345.522,220.595,345.522,220.588z"/>
	<path fill="#F7F7F7" d="M239.614,195.167c3.186,4.255,5.104,8.465,7.324,12.497c0.862,1.563,1.933,2.937,3.248,4.094
		c1.183,1.043,2.606,2.931,3.911,2.264c1.542-0.787,2.011-3.05,2.105-5c0.121-2.545-0.912-4.693-2.438-6.563
		C250.255,198.161,245.812,195.689,239.614,195.167z"/>
	<path fill="#F7F7F7" d="M398.92,212.852c0.166-2.49,0.028-3.861-0.525-5.148c-0.732-1.707-1.563-2.659-3.531-1.158
		c-1.231,0.94-2.865,1.587-4.396,1.806c-2.93,0.417-3.309,1.959-2.457,4.415c0.847,2.442,2.442,4.713,1.61,7.551
		c-0.072,0.246,0.152,0.71,0.38,0.892c1.052,0.839,6.889-1.178,7.283-2.52C397.954,216.408,398.57,214.111,398.92,212.852z"/>
	<path fill="#F7F7F7" d="M388.8,240.765c-3.762,0.642-6.638,1.132-9.516,1.627c-0.547,0.094-0.829,0.442-0.897,1.003
		c-0.548,4.513-3.929,7.802-5.095,12.33c1.93,0.56,3.843,0.023,5.666-0.271c1.992-0.321,4.308-0.277,3.635-3.951
		c-0.368-2.014,1.799-3.981,3.081-5.829C386.589,244.355,387.406,242.965,388.8,240.765z"/>
	<path fill="#F7F7F7" d="M401.145,251.324c-5.129-1.836-5.281-2.243-3.17-6.835c0.719-1.558,1.881-3.028,0.944-5.528
		c-5.118,3.784-7.286,9.189-9.688,15.019C393.426,253.534,397.138,253.095,401.145,251.324z"/>
	<path fill="#F7F7F7" d="M405.734,218.527c5.294-3.043,5.128-10.017-0.188-17.814C403.634,205.203,403.655,208.37,405.734,218.527z"
		/>
	<path fill="#F7F7F7" d="M404.771,248.097c1.491-4.065,5.146-6.922,5.595-11.517C408.172,240.253,404.14,242.872,404.771,248.097z"
		/>
	<path fill="#F7F7F7" d="M380.052,145.194c4.869,0.335,8.669,2.206,13.771,0.2C388.863,144.925,385.084,142.72,380.052,145.194z"/>
	<path fill="#F7F7F7" d="M298.727,131.267c0.002,2.895-2.549,5.548-1.814,7.604c0.77,2.15,4.471,1.275,6.736,2.362
		c2.924,1.402,5.387,3.522,8.202,5.041c2.229,1.2,5.311,3.021,7.022,0.622c1.669-2.337-0.765-4.891-2.575-6.799
		c-2.634-2.776-6.143-4.108-9.496-5.638C304.243,133.293,301.575,132.382,298.727,131.267z"/>
	<path fill="#F7F7F7" d="M265.471,138.758c2.406-0.316,4.317-0.646,6.241-0.793c1.3-0.099,2.267-0.644,2.263-1.941
		c-0.008-1.574-1.451-1.071-2.274-1.066C269.059,134.971,266.602,135.478,265.471,138.758z"/>
</g>
</svg>
