<?xml version="1.0" encoding="utf-8"?>
<!-- Generator: Adobe Illustrator 16.0.0, SVG Export Plug-In . SVG Version: 6.00 Build 0)  -->
<!DOCTYPE svg PUBLIC "-//W3C//DTD SVG 1.1//EN" "http://www.w3.org/Graphics/SVG/1.1/DTD/svg11.dtd">
<svg version="1.1" id="Layer_1" xmlns="http://www.w3.org/2000/svg" xmlns:xlink="http://www.w3.org/1999/xlink" x="0px" y="0px"
	 width="512px" height="512px" viewBox="0 0 512 512" enable-background="new 0 0 512 512" xml:space="preserve">
<path fill="#DB7556" stroke="#212222" stroke-width="14" stroke-miterlimit="10" d="M110.784,218.895l19.363-17.819
	c0,0,36.626-13.368,41.089-18.802s5.358,38.936-30.013,39.712s-38.598,8.817-38.598,8.817"/>
<g>
	<path fill-rule="evenodd" clip-rule="evenodd" d="M402.661,267.043l-0.005,0.006c1.455-1.41,2.51-3.03,2.576-5.163l0.011-0.01
		c3.253-7.885,10.099-13.938,11.475-22.717c0.666-4.249,0.608-8.64,0.614-12.967c0.014-9.708-7.638-14.787-12.752-21.293
		c-3.172-4.034-4.435-8.709-6.272-13.28c-1.354-3.367-0.702-6.447-0.548-9.764c0.106-2.271-1.951-4.374-3.604-5.761
		c-6.446-5.413-12.502-11.604-20.481-14.623c-5.135-1.943-10.385-4.018-15.238-6.243c-4.187-1.918-9.499-0.402-12.723-4.54
		c-0.046-0.057-0.592,0.294-0.905,0.456l-0.003,0.002c-2.228-0.714-4.493-1.327-6.659-2.201c-0.683-0.275-1.299-0.644-2.05-0.648
		c-3.894-0.023-7.711-0.206-11.346-2.047c-1.032-0.523-2.754,0.527-3.955,0.164c-4.722-1.426-9.939-0.331-14.398-2.999
		c-0.398-0.238-0.973-0.316-1.445-0.265c-10.387,1.145-20.238-3.535-30.567-2.855c-3.6,0.236-7.063,1.673-10.81,0.926
		c-2.648-0.527-5.267-1.226-8.001-1.474c-2.492-0.226-4.512,1.437-6.89,1.164c-3.302-0.379-6.717,0.084-9.887-1.297
		c-2.556-1.112-4.612,1.06-7.119,1.12c-4.454,0.105-8.169-2.452-12.485-2.578c-5.282-0.154-9.71,0.587-14.493,4.076
		c-7.005,5.11-13.329,10.739-18.972,17.234c-2.793,3.215-3.621,7.629-5.489,11.431c-2.144,4.363-3.645,9.211-6.995,12.694
		c-4.022,4.182-8.365,8.279-13.226,11.31c-3.892,2.426-6.127,6.347-9.771,8.867c-2.254,1.56-3.258,4.441-5.211,6.48
		c-2.26,2.359-1.845,5.926-2.481,8.938c-0.356,1.688,0.17,3.801-0.2,5.617c-1.508,7.384,1.19,14.056,4.679,19.779
		c2.301,3.773,6.455,6.745,9.184,10.533c4.544,6.309,9.299,12.561,11.943,20.058c0.685,1.94,0.594,4.092,1.323,6.121
		c1.027,2.854,2.119,5.371,4.251,7.744c1.956,2.172,3.021,5.196,5.151,7.545c2.823,3.108,5.714,6.07,8.724,8.991
		c3.148,3.057,7.414,4.642,9.929,8.378c1.447,2.15,4.063,2.556,6.036,3.677c5.718,3.25,11.321,6.713,16.918,10.149
		c3.907,2.403,8.056,4.318,11.904,6.887c5.939,3.961,12.579,6.806,18.685,10.531c3.704,2.261,7.619,4.138,11.232,6.507
		c6.512,4.27,13.623,6.475,21.124,8.235c5.687,1.332,11.444,2.625,17.056,4.415c5.46,1.74,10.756,4.043,16.581,4.615
		c2.073,0.205,3.953,1.979,6.051,2.452c3.899,0.878,7.836,1.604,11.886,1.703c3.748,0.092,7.066,2.282,11.004,2.349
		c3.715,0.062,7.488-1.337,10.836-0.711c5.6,1.05,10.642-0.595,15.874-1.436c4.489-0.722,7.728-4.247,11.793-6.046
		c4.232-1.875,7.482-5.65,9.978-9.232c2.786-3.998,4.24-9.27,3.568-14.574c-0.484-3.818,0.203-7.513,0.535-11.278
		c0.293-3.316-0.244-6.72-0.236-10.113c0.009-3.483-0.05-7.206-0.703-10.566c-0.632-3.256-0.511-6.558-0.433-9.581
		c0.133-5.082-1.396-10.145-0.185-15.188c1.223-5.098,2.551-10.169,3.834-15.25l-0.01,0.009
		C402.051,270.262,402.503,268.714,402.661,267.043z"/>
	<path fill-rule="evenodd" clip-rule="evenodd" fill="#111111" d="M344.935,151.423c-0.043-0.094-0.085-0.187-0.127-0.279
		c0.313-0.161,0.859-0.513,0.905-0.456c3.224,4.138,8.536,2.622,12.723,4.54c4.854,2.225,10.104,4.299,15.238,6.243
		c7.979,3.019,14.035,9.209,20.481,14.623c1.653,1.387,3.711,3.49,3.604,5.761c-0.154,3.317-0.807,6.397,0.548,9.764
		c1.838,4.571,3.101,9.246,6.272,13.28c5.114,6.506,12.766,11.585,12.752,21.293c-0.006,4.327,0.052,8.718-0.614,12.967
		c-1.376,8.779-8.222,14.833-11.475,22.717c-0.046-0.094-0.093-0.188-0.138-0.282c0.043,0.098,0.085,0.195,0.127,0.292
		c-0.066,2.133-1.121,3.753-2.576,5.163c-0.045-0.094-0.091-0.189-0.135-0.284c0.048,0.093,0.094,0.187,0.14,0.278
		c-0.158,1.671-0.61,3.219-1.794,4.462c-0.044-0.095-0.087-0.188-0.133-0.282c0.049,0.091,0.095,0.183,0.142,0.273
		c-1.282,5.081-2.61,10.152-3.833,15.25c-1.211,5.043,0.317,10.105,0.185,15.188c-0.078,3.023-0.199,6.325,0.433,9.581
		c0.653,3.36,0.712,7.083,0.703,10.566c-0.008,3.394,0.529,6.797,0.236,10.113c-0.332,3.766-1.02,7.46-0.535,11.278
		c0.672,5.305-0.782,10.576-3.568,14.574c-2.495,3.582-5.745,7.357-9.978,9.232c-4.065,1.799-7.304,5.324-11.793,6.046
		c-5.232,0.841-10.274,2.485-15.874,1.436c-3.348-0.626-7.121,0.772-10.836,0.711c-3.938-0.066-7.256-2.257-11.004-2.349
		c-4.05-0.099-7.986-0.825-11.886-1.703c-2.098-0.473-3.978-2.247-6.051-2.452c-5.825-0.572-11.121-2.875-16.581-4.615
		c-5.611-1.79-11.369-3.083-17.056-4.415c-7.501-1.761-14.612-3.966-21.124-8.235c-3.613-2.369-7.528-4.246-11.232-6.507
		c-6.105-3.726-12.745-6.57-18.685-10.531c-3.849-2.568-7.997-4.483-11.904-6.887c-5.597-3.437-11.2-6.899-16.918-10.149
		c-1.973-1.121-4.588-1.526-6.036-3.677c-2.516-3.736-6.781-5.321-9.929-8.378c-3.01-2.921-5.901-5.883-8.724-8.991
		c-2.131-2.349-3.196-5.373-5.151-7.545c-2.132-2.373-3.224-4.89-4.251-7.744c-0.729-2.029-0.638-4.181-1.323-6.121
		c-2.645-7.497-7.399-13.749-11.943-20.058c-2.729-3.789-6.882-6.76-9.184-10.533c-3.489-5.723-6.187-12.395-4.679-19.779
		c0.371-1.816-0.156-3.93,0.2-5.617c0.636-3.012,0.221-6.579,2.481-8.938c1.953-2.039,2.957-4.92,5.211-6.48
		c3.644-2.52,5.879-6.441,9.771-8.867c4.86-3.031,9.203-7.127,13.226-11.31c3.35-3.483,4.851-8.331,6.995-12.694
		c1.868-3.801,2.696-8.216,5.489-11.431c5.644-6.495,11.967-12.124,18.972-17.234c4.782-3.489,9.21-4.23,14.493-4.076
		c4.316,0.125,8.031,2.683,12.485,2.578c2.507-0.06,4.563-2.232,7.119-1.12c3.17,1.382,6.585,0.918,9.887,1.297
		c2.378,0.273,4.397-1.39,6.89-1.164c2.734,0.248,5.353,0.946,8.001,1.474c3.746,0.748,7.21-0.689,10.81-0.926
		c10.329-0.68,20.181,4,30.567,2.855c0.473-0.052,1.047,0.026,1.445,0.265c4.459,2.667,9.677,1.573,14.398,2.999
		c1.201,0.363,2.923-0.687,3.955-0.164c3.635,1.841,7.452,2.023,11.346,2.047c0.751,0.004,1.367,0.373,2.05,0.648
		c2.166,0.874,4.432,1.487,6.659,2.201C344.848,151.237,344.892,151.33,344.935,151.423z M388.645,257.964
		c-0.825-2.124,0.471-2.89,1.81-3.663c2.638-1.521,5.633-1.879,8.474-2.724c2.979-0.886,4.746-2.707,5.836-5.744
		c7.056-19.679-5.231-31.94-21.771-35.038c-4.04-0.757-8.153-0.901-12.28-1.221c1.822-1.628,3.731-1.516,5.794-1.071
		c4.701,1.018,9.369,2.459,14.29,1.67c1.449-0.232,2.616,0.58,3.804,1.251c10.985,6.215,16.231,18.773,13.116,31.416
		c-0.299,1.208-0.936,2.359-0.566,3.718c1.562-0.322,1.723-1.806,2.026-2.864c3.159-11.004,2.346-21.275-5.478-30.205
		c-2.143-2.448-4.204-4.98-6.171-7.578c-3.911-5.167-5.196-11.126-4.464-17.526c0.252-2.204-0.326-3.759-1.717-5.419
		c-13.672-16.322-30.578-25.246-52.025-23.975c-0.616,0.036-1.239,0.021-1.854-0.024c-0.211-0.015-0.407-0.197-0.625-0.311
		c0.237-1.326,1.303-0.854,2.059-0.966c0.782-0.117,1.581-0.106,2.396-0.152c-0.21-0.93-0.692-1.236-1.354-1.361
		c-33.4-6.333-66.973-11.117-101.029-11.688c-5.448-0.091-10.896-0.414-16.338-0.696c-10.624-0.551-18.972,3.845-25.507,12.225
		c-2.862,3.671-5.379,7.568-7.703,11.628c-4.862,8.496-9.082,17.436-16.377,24.922c5.558,1.51,11.196-1.226,16.73,2.471
		c-6.35-0.696-11.865-1.16-17.389,0.177c-16.065,3.889-26.681,18.904-24.237,34.893c1.454,9.517,7.106,16.457,14.12,22.454
		c0.636,0.544,4.043,0.754,1.194,3.151c-0.495,0.417,0.651,1.17,1.227,1.585c4.074,2.939,6.364,7.152,7.248,11.967
		c2.896,15.754,12.646,26.496,24.455,35.797c15.145,11.929,32.289,20.471,48.818,30.063c7.729,4.486,15.228,9.382,22.843,14.077
		c3.037,1.871,6.252,2.835,9.895,2.429c5.688-0.635,10.638,1.994,15.586,4.222c19.421,8.738,39.804,12.869,60.954,13.107
		c8.955,0.099,17.812-0.952,25.876-5.587c7.634-4.387,12.373-10.484,12.718-19.915c0.579-15.855-0.835-31.647-0.924-47.478
		c-0.056-9.828,1.001-19.448,3.73-28.896c1.539-5.328,4.51-9.793,7.512-14.449C398.278,254.309,393.146,255.146,388.645,257.964z
		 M282.225,142.342c0.197,0.012,0.405-0.165,0.608-0.257c-0.308-0.12-0.609-0.294-0.927-0.337c-0.191-0.027-0.408,0.152-0.765,0.303
		C281.591,142.18,281.903,142.321,282.225,142.342z M275.628,141.581c-0.079-0.045-0.161-0.128-0.238-0.125
		c-0.075,0.003-0.147,0.097-0.22,0.15c0.079,0.046,0.16,0.091,0.24,0.137C275.482,141.689,275.556,141.635,275.628,141.581z
		 M361.861,374.592c0.085,0.007,0.176-0.04,0.263-0.065c-0.021-0.076-0.039-0.218-0.068-0.219c-0.086-0.009-0.175,0.039-0.263,0.064
		C361.814,374.449,361.832,374.588,361.861,374.592z"/>
	<path fill-rule="evenodd" clip-rule="evenodd" fill="#F7F7F7" d="M395.832,267.088c-2.729,9.447-3.786,19.067-3.73,28.896
		c0.089,15.83,1.503,31.622,0.924,47.478c-0.345,9.431-5.084,15.528-12.718,19.915c-8.064,4.635-16.921,5.686-25.876,5.587
		c-21.15-0.238-41.533-4.369-60.954-13.107c-4.948-2.228-9.897-4.856-15.586-4.222c-3.643,0.406-6.857-0.558-9.895-2.429
		c-7.615-4.695-15.114-9.591-22.843-14.077c-16.529-9.593-33.673-18.135-48.818-30.063c-11.809-9.301-21.559-20.043-24.455-35.797
		c-0.884-4.814-3.174-9.027-7.248-11.967c-0.576-0.415-1.722-1.169-1.227-1.585c2.849-2.397-0.559-2.607-1.194-3.151
		c-7.014-5.997-12.666-12.938-14.12-22.454c-2.444-15.988,8.172-31.003,24.237-34.893c5.524-1.337,11.039-0.873,17.389-0.177
		c-5.535-3.697-11.172-0.96-16.73-2.471c7.295-7.486,11.515-16.426,16.377-24.922c2.324-4.06,4.841-7.957,7.703-11.628
		c6.536-8.38,14.884-12.775,25.507-12.225c5.442,0.282,10.89,0.605,16.338,0.696c34.057,0.571,67.629,5.354,101.029,11.688
		c0.661,0.125,1.144,0.431,1.354,1.361c-0.814,0.046-1.613,0.035-2.396,0.152c-0.756,0.112-1.821-0.36-2.059,0.966
		c0.218,0.113,0.414,0.295,0.625,0.311c0.615,0.045,1.238,0.061,1.854,0.024c21.447-1.271,38.354,7.652,52.025,23.975
		c1.391,1.66,1.969,3.216,1.717,5.419c-0.732,6.4,0.553,12.359,4.464,17.526c1.967,2.598,4.028,5.13,6.171,7.578
		c7.823,8.93,8.637,19.201,5.478,30.205c-0.304,1.058-0.465,2.542-2.026,2.864c-0.369-1.358,0.268-2.509,0.566-3.718
		c3.115-12.642-2.131-25.201-13.116-31.416c-1.188-0.671-2.354-1.484-3.804-1.251c-4.921,0.79-9.589-0.652-14.29-1.67
		c-2.063-0.445-3.972-0.557-5.794,1.071c4.127,0.32,8.24,0.463,12.28,1.221c16.539,3.098,28.826,15.359,21.771,35.038
		c-1.09,3.037-2.857,4.858-5.836,5.744c-2.841,0.844-5.836,1.202-8.474,2.724c-1.339,0.773-2.635,1.54-1.81,3.663
		c4.501-2.818,9.634-3.655,14.699-5.325C400.342,257.295,397.371,261.76,395.832,267.088z M268.074,168.271
		c5.309-0.028,10.618,0.647,15.935,0.708c-13.723-3.164-27.477-3.372-41.149,0.333c-6.604,1.79-12.995,4.243-17.497,10.013
		c-0.331,0.495-0.661,0.991-0.991,1.485c0.92,0.457,1.309-0.166,1.66-0.862C238.363,169.671,253.092,168.35,268.074,168.271z
		 M355.414,321.431c13.266-1.844,20.373-9.737,24.22-21.905c4.054-12.824,5.348-25.979,4.615-39.387
		c-0.304-5.561-2.298-10.581-4.473-15.544c-1.127-2.574-2.024-5.138-1.84-8.021c0.092-1.438-0.01-2.871-1.936-3.03
		c-1.836-0.151-2.205,1.218-2.657,2.576c-0.809,2.427-1.185,4.948-1.258,7.471c-0.154,5.32-2.66,8.823-7.087,11.548
		c-11.153,6.867-23.281,9.736-36.106,10.039c-22.935,0.541-44.6-5.564-65.889-13.323c-21.679-7.9-42.324-18.163-62.578-29.273
		c-2.209-1.211-4.065-2.215-3.377-5.322c0.263-1.19-0.102-2.601-1.134-3.468c-1.382-1.16-2.916-2.089-3.257,0.871
		c-0.655,5.673-4.184,8.921-8.843,11.339c-2.536,1.316-4.999,2.784-7.437,4.282c-0.887,0.545-2.263,1.114-1.929,2.388
		c0.311,1.184,1.777,1.367,2.827,1.482c1.452,0.159,2.951-0.007,4.42-0.144c4.883-0.456,8.504,3.396,7.024,8.14
		c-0.756,2.424-0.096,3.65,1.246,5.262c6.139,7.369,10.079,16.18,15.036,24.327c10.269,16.876,25.367,27.98,42.183,37.101
		c14.738,7.991,30.871,10.472,47.103,12.579c3.677,0.479,7.409,0.528,11.115,0.776C322.09,323.75,338.712,323.752,355.414,321.431z
		 M324.873,227.439c-2.091-1.872-1.156-3.951-1.053-5.955c0.339-6.592,0.385-6.683,6.748-7.956
		c8.083-1.616,16.312-0.872,24.464-1.41c2.987-0.197,5.86-0.933,8.773-1.524c2.394-0.484,2.259-1.525,1.426-3.426
		c-1.813-4.143-4.957-6.775-9.069-7.754c-13.053-3.105-25.318-1.485-36.042,7.477c-1.111,0.929-1.871,1.21-3.242,0.632
		c-1.454-0.612-3.094-0.923-4.674-1.015c-0.998-0.059-2.438-0.243-2.915,1.103c-0.506,1.423-0.027,2.778,1.113,3.744
		c0.751,0.637,1.6,1.189,2.48,1.625c5.521,2.734,5.933,2.784,4.951,9.067c-0.98,6.275,0.289,10.858,6.27,13.473
		c0.662,0.291,1.216,0.861,1.791,1.338c4.112,3.408,4.305,5.131,1.16,9.332c-1.975,2.64-4.195,5.004-6.944,6.805
		c-2.83,1.855-5.619,2.65-8.362-0.208c-0.877-0.914-1.851-1.575-3.271-0.672c-1.763,1.12-0.431,2.319-0.097,3.247
		c2.41,6.688,6.756,8.146,12.301,3.859c3.943-3.047,7.515-6.601,11.231-9.951c1.484-1.338,2.785-2.398,4.466-0.1
		c1.616,2.21,3.199,1.646,3.976-0.797c0.767-2.42,2.123-1.966,3.61-1.047c1.796,1.109,3.496,2.382,5.283,3.505
		c2.037,1.28,4.092,2.593,7.622,2.358C344.072,246.365,334.875,236.4,324.873,227.439z M232.237,204.455
		c15.64-3.923,29.517,1.177,43.017,8.449c1.641,0.883,3.143,3.381,5.122,2.128c3.493-2.211,7.958-3.333,9.753-7.77
		c0.909-2.247-0.036-4.209-1.23-6.044c-3.545-5.451-8.535-9.044-14.373-11.492c-12.127-5.084-24.562-6.601-37.397-3.124
		c-5.709,1.546-10.445,4.646-13.857,9.612c-1.157,1.686-3.044,3.646-1.972,5.733c1.134,2.205,3.733,2.696,6.206,2.984
		C229.042,204.788,230.692,204.843,232.237,204.455z M172.112,234.231c-1.262-3.901-2.17-7.77-1.096-11.88
		c2.83-10.835,15.479-17.472,25.802-13.483c0.767,0.298,1.375,1.015,2.06,1.534c12.901,9.809,27.273,12.544,42.786,8.677
		c4.87-1.214,8.617-4.376,9.837-9.822c0.432-1.923,0.3-2.92-2.078-2.126c-1.918,0.639-3.749,1.427-5.289,2.681
		c-10.225,8.323-20.59,7.187-30.912,0.496c-5.781-3.749-11.516-7.297-18.627-7.752c-11.044-0.704-20.347,2.573-26.659,12.301
		c-5.928,9.136-3.993,21.151,4.339,28.484C174.043,240.227,173.065,237.173,172.112,234.231z M359.053,165.83
		c-3.29-0.671-6.686-0.9-9.982-0.332c-15.724,2.711-31.113,0.451-46.357-3.162c-12.592-2.985-25.212-5.297-38.202-4.361
		c-16.386,1.183-31.554,5.946-44.657,16.52c-0.946,0.765-2.1,1.362-2.617,2.732c1.32,0.997,2.045-0.34,2.792-0.846
		c24.482-16.607,50.765-21.236,78.926-12.361c13.856,4.367,28.045,4.343,42.284,4.101c5.317-0.089,10.634-0.436,15.944-0.783
		c2.229-0.146,4.121,0.333,5.773,1.91c0.939,0.895,1.887,1.874,3.783,2.226C364.938,167.895,362.209,166.474,359.053,165.83z
		 M385.421,223.134c-9.084-2.349-17.395,0.265-25.164,4.888c-2.258,1.342-3.811,1.891-5.597-0.256
		c-0.158-0.188-0.373-0.333-0.573-0.478c-1.826-1.326-3.72-2.958-5.943-0.993c-1.253,1.111,0.313,5.603,2.418,6.893
		c4.78,2.933,10.215,2.596,15.495,2.913c1.38,0.083,1.284-1.294,1.576-2.195c1.28-3.933,4.024-5.45,7.957-5.396
		c4.411,0.062,8.488,1.561,12.664,2.658c1.524,0.4,3,1.146,4.784,0.699C392.312,227.233,389.781,224.261,385.421,223.134z
		 M309.314,345.545c0.125-0.38,0.251-0.761,0.376-1.142c-2.156-0.4-4.319-0.768-6.467-1.211c-2.302-0.475-4.595-0.99-6.882-1.539
		c-14.785-3.549-29.194-8.147-43.258-14.146c-14.205-6.056-27.69-13.338-40.809-21.451c-4.395-2.717-8.886-5.259-14.129-5.926
		C231.651,324.413,269.165,338.375,309.314,345.545z M226.753,163.083c21.42-13.229,44.064-15.396,67.942-8.925
		c12.335,3.343,24.927,5.42,37.803,4.962c0.055-0.989-0.466-1.264-1.298-1.277c-14.976-0.256-29.375-4.312-43.934-7.133
		c-23.251-4.506-44.745-0.47-64.745,12.41c-3.976,2.559-7.917,5.173-11.862,7.782c-0.149,0.1-0.163,0.412-0.543,1.46
		C216.049,169.069,221.535,166.304,226.753,163.083z M267.33,246.421c0.638,1.994,1.736,3.631,3.621,4.569
		c1.688,0.84,3.646,0.784,4.842-0.475c1.261-1.332,0.352-3.072-0.663-4.44c-0.371-0.5-0.729-1.028-1.179-1.447
		c-1.926-1.793-2.791-3.944-1.61-6.437c0.981-2.074,3.107-1.544,4.867-1.688c2.089-0.172,4.192-0.193,6.275-0.425
		c2.314-0.258,2.498-1.572,1.389-3.376c-0.929-1.511-2.429-2.307-4-2.447c-4.097-0.364-8.063,0.14-11.735,2.394
		c-2.49,1.529-2.325,3.938-2.575,7.007C266.377,241.49,266.553,243.986,267.33,246.421z M276.035,332.892
		c6.379,1.771,12.871,3.002,19.57,2.254c-6.96-1.068-13.822-2.487-20.563-4.533c-13.021-3.956-24.571-11.007-36.264-17.769
		c-5.898-3.412-11.688-7.057-18.056-9.537c-1.183-0.461-2.326-1.311-4.93-0.818C236.291,313.381,254.351,326.867,276.035,332.892z
		 M283.437,247.825c1.938-0.463,3.917-0.346,5.902-0.005c2.438,0.419,4.903,0.735,7.369,0.88c1.271,0.074,3.129,0.561,3.625-1.034
		c0.54-1.734-0.765-3.135-2.209-3.989c-5.488-3.242-11.36-2.875-17.306-1.741c-1.649,0.314-1.22,1.612-1.351,2.537
		C279.315,248.432,279.731,248.711,283.437,247.825z M362.185,345.892c-13.315,2.851-26.636,1.611-39.964,0.33
		c-2.322-0.224-4.657-0.318-7.004-0.106c15.786,2.038,31.532,5.013,47.543,2.153c5.754-1.027,10.733-3.597,14.638-8.15
		C372.351,342.311,367.516,344.75,362.185,345.892z M357.122,177.991c-10.701-4.107-21.772-4.113-32.914-2.246
		c-1.093,0.183-2.873,0.485-2.512,2.136c0.424,1.942,2.007,0.763,3.048,0.5c9.643-2.439,19.26-3.153,28.848,0.151
		c5.146,1.773,9.723,4.349,12.57,9.362c0.297,0.524,0.763,0.962,1.208,1.375c0.104,0.096,0.45-0.079,0.683-0.128
		C366.15,182.421,365,181.015,357.122,177.991z M348.756,336.312c-6.543,1.597-13.206,1.373-20.389,2.032
		c8.917,2.102,22.79,1.162,29.355-1.806c4.57-2.064,7.019-4.684,8.895-10.153C361.265,332.094,355.321,334.707,348.756,336.312z
		 M158.101,212.756c-1.534,2.475-1.769,5.296-1.852,8.067c-0.205,6.765,0.407,13.486,1.499,20.152
		c0.439,2.686,3.641,5.117,6.921,5.442C155.157,236.716,157.34,224.632,158.101,212.756z M330.308,329.112
		c-13.181-0.879-26.36-1.758-39.54-2.637c-0.07,0.357-0.141,0.713-0.211,1.069C303.815,327.921,316.921,330.926,330.308,329.112z
		 M260.526,234.901c-4.374,0.598-8.575-0.859-12.878-0.865c-1.771-0.002-3.961-0.729-5.321,2.179
		c5.268-1.463,10.076-0.391,14.919,0.164c2.068,0.237,4.183,0.333,6.194-0.563c1.697-0.756,2.324-2.207,2.424-3.929
		c0.069-1.224-0.204-2.318-1.992-1.988C265.256,233.317,263.572,234.486,260.526,234.901z M163.708,203.03
		c8.204-6.79,17.765-5.36,27.109-5.274C179.691,194.761,167.357,196.583,163.708,203.03z M399.498,225.053
		c0.024-1.406-0.879-2.03-1.79-2.637c-2.526-1.68-4.912-3.68-8.254-4.249c0.564,2.264,2.274,2.94,3.733,3.693
		c4.065,2.101,6.042,5.08,5.092,9.949c-0.406,2.084-1.085,4.466,0.931,6.648C400.235,233.83,399.425,229.436,399.498,225.053z
		 M279.835,171.623c5.201,3.972,7.473,8.851,6.738,15.048C289.124,179.104,285.859,171.322,279.835,171.623z M209.741,198.127
		c2.818-0.277,5.612-0.247,8.594-2.458c-4.873-0.308-8.76,1.604-12.931,1.092c1.806,4.309,4.482,5.287,9.241,3.331
		C213.052,199.028,210.881,200.356,209.741,198.127z M324.129,194.681c-0.426-3.913,0.193-7.509,3.721-9.979
		c0.521-0.364,1.729-1.026,0.415-1.94c-0.822-0.573-1.447-0.418-2.189,0.445c-2.305,2.682-3.454,5.661-3.272,9.274
		c0.104,2.079-0.236,4.183-0.375,6.275C323.673,197.576,324.309,196.328,324.129,194.681z M390.271,247.602
		c4.954,0.188,6.824-1.302,8.372-6.843C396.173,243.392,392.889,244.913,390.271,247.602z M379.24,337.832
		c1.063-2.703,2.622-5.345,0.555-8.316C379.611,332.287,379.426,335.059,379.24,337.832z M312.269,345.936
		c0.09-0.02,0.181-0.062,0.268-0.05c0.029,0.004,0.041,0.139,0.061,0.214c-0.089,0.021-0.179,0.043-0.269,0.064
		C312.308,346.087,312.288,346.013,312.269,345.936z"/>
	<path fill-rule="evenodd" clip-rule="evenodd" d="M281.142,142.051c0.449,0.129,0.762,0.271,1.083,0.291
		c0.197,0.012,0.405-0.165,0.608-0.257c-0.308-0.12-0.609-0.294-0.927-0.337C281.715,141.72,281.498,141.9,281.142,142.051z"/>
	<path fill-rule="evenodd" clip-rule="evenodd" d="M275.41,141.743c0.072-0.054,0.146-0.108,0.218-0.163
		c-0.079-0.045-0.161-0.128-0.238-0.125c-0.075,0.003-0.147,0.097-0.22,0.15C275.249,141.652,275.33,141.697,275.41,141.743z"/>
	<path fill-rule="evenodd" clip-rule="evenodd" d="M361.793,374.372c0.021,0.077,0.039,0.216,0.068,0.22
		c0.085,0.007,0.176-0.04,0.263-0.065c-0.021-0.076-0.039-0.218-0.068-0.219C361.97,374.299,361.881,374.347,361.793,374.372z"/>
	<path fill-rule="evenodd" clip-rule="evenodd" d="M344.805,151.146c0.043,0.092,0.087,0.185,0.13,0.277
		c-0.043-0.094-0.085-0.187-0.127-0.279L344.805,151.146z"/>
	<path fill-rule="evenodd" clip-rule="evenodd" d="M405.243,261.876c-0.046-0.094-0.093-0.188-0.138-0.282
		c0.043,0.098,0.085,0.195,0.127,0.292L405.243,261.876z"/>
	<path fill-rule="evenodd" clip-rule="evenodd" d="M402.656,267.049c-0.045-0.094-0.091-0.189-0.135-0.284
		c0.048,0.093,0.094,0.187,0.14,0.278L402.656,267.049z"/>
	<path fill-rule="evenodd" clip-rule="evenodd" d="M400.867,271.505c-0.044-0.095-0.087-0.188-0.133-0.282
		c0.049,0.091,0.095,0.183,0.142,0.273C400.877,271.496,400.867,271.505,400.867,271.505z"/>
	<path fill-rule="evenodd" clip-rule="evenodd" fill="#111111" d="M294.287,321.419c-16.231-2.107-32.364-4.588-47.103-12.579
		c-16.816-9.12-31.914-20.225-42.183-37.101c-4.957-8.146-8.897-16.958-15.036-24.327c-1.342-1.612-2.002-2.838-1.246-5.262
		c1.48-4.745-2.141-8.596-7.024-8.14c-1.469,0.137-2.968,0.303-4.42,0.144c-1.05-0.115-2.516-0.298-2.827-1.482
		c-0.334-1.274,1.042-1.843,1.929-2.388c2.438-1.498,4.901-2.966,7.437-4.282c4.659-2.418,8.188-5.666,8.843-11.339
		c0.341-2.96,1.875-2.031,3.257-0.871c1.032,0.867,1.397,2.277,1.134,3.468c-0.688,3.106,1.168,4.11,3.377,5.322
		c20.253,11.111,40.899,21.374,62.578,29.273c21.289,7.758,42.954,13.864,65.889,13.323c12.825-0.303,24.953-3.172,36.106-10.039
		c4.427-2.725,6.933-6.228,7.087-11.548c0.073-2.523,0.449-5.044,1.258-7.471c0.452-1.358,0.821-2.728,2.657-2.576
		c1.926,0.159,2.027,1.592,1.936,3.03c-0.185,2.883,0.713,5.448,1.84,8.021c2.175,4.963,4.169,9.983,4.473,15.544
		c0.732,13.408-0.562,26.563-4.615,39.387c-3.847,12.168-10.954,20.062-24.22,21.905c-16.702,2.321-33.324,2.319-50.012,0.765
		C301.696,321.947,297.964,321.897,294.287,321.419z M253.115,297.906c-2.586,4.813-2.466,4.869,2.415,6.688
		c6.595,2.456,13.044,5.368,20.025,6.609c0.606,0.107,1.222,0.184,1.837,0.25c6.543,0.71,6.526,0.709,7.335-5.781
		c0.452-3.633,1.003-7.25,1.432-10.887c0.144-1.231,0.272-2.428-1.555-2.809c-8.524-1.775-16.409-5.35-24.185-9.201
		c-0.428-0.213-0.916-0.295-2.049-0.646C259.354,288.652,255.721,293.061,253.115,297.906z M221.171,279.451
		c-1.104,1.181-0.453,1.647,0.373,2.253c7.218,5.294,13.709,11.566,21.203,16.494c1.729,1.136,2.957,1.688,3.484-1.161
		c0.396-2.14,1.892-3.809,2.983-5.643c1.027-1.719,2.164-3.428,2.837-5.299c1.628-4.523,0.927-5.692-3.38-7.41
		c-8.041-3.208-15.704-7.217-23.386-12.095C225.369,271.809,224.342,276.054,221.171,279.451z M259.261,259.256
		c0.511-1.619,0.272-2.438-1.483-3.004c-10.837-3.497-21.173-8.459-32.168-11.523c-1.125,5.215,1.592,11.21,6.656,14.395
		c4.226,2.656,8.815,4.502,13.516,6.117c3.502,1.205,6.907,2.707,10.501,4.133C257.261,266.021,258.197,262.619,259.261,259.256z
		 M293.311,273.781c0.566-4.227-0.365-6.218-4.705-7.306c-6.922-1.736-13.759-3.856-20.694-5.604
		c-1.959-0.494-2.606-0.043-3.054,1.843c-0.755,3.181-3.007,6.641-2.313,9.356c0.801,3.125,5.387,2.232,8.224,3.371
		c3.535,1.416,7.296,2.273,10.998,3.219c1.662,0.424,3.416,0.478,4.123,0.569C292.801,279.732,292.519,279.695,293.311,273.781z
		 M309.96,315.098c1.746-1.617,1.646-5.34,2.319-8.141c0.617-2.561,2.278-5.627,1.453-7.563c-0.785-1.841-4.432-0.657-6.802-1.05
		c-4.277-0.71-8.503-1.59-12.563-3.079c-2.165-0.794-2.788-0.404-2.836,1.954c-0.1,4.903,0.266,9.898-1.58,14.591
		c-0.609,1.552,0.278,1.663,1.244,2.005c3.316,1.171,6.78,1.24,10.554,1.527C304.341,315.129,307.978,316.936,309.96,315.098z
		 M218.752,249.662c2.537-7.1-1.479-10.108-6.922-12.99c-4.662-2.469-8.658-6.212-13.773-7.953c-4.72-1.607-5.454-0.993-4.44,4.068
		c1.519,7.584,6.65,12.186,12.9,15.627c3.681,2.027,7.706,3.313,12.389,4.152C218.825,251.36,218.49,250.4,218.752,249.662z
		 M344.07,281.195c1.476-0.305,2.455-0.604,1.529-2.676c-1.111-2.488,0.382-6.426-1.81-7.761c-1.676-1.019-4.837,0.685-7.358,0.882
		c-3.07,0.238-6.165,0.173-9.249,0.23c-1.938,0.035-3.471,0.395-2.463,2.978c0.084,0.22-0.001,0.503,0.021,0.753
		c0.172,1.963-1.593,4.547-0.021,5.676c1.452,1.044,4.021,0.47,6.098,0.608C335.262,282.336,339.686,282.102,344.07,281.195z
		 M323.5,316.577c3.277,0.005,5.809-0.666,6.938-4.593c0.849-2.947,2.747-5.605,4.317-8.307c1.003-1.729,0.437-2.303-1.242-2.816
		c-9.03-2.773-17.635,4.217-16.993,14.111c0.19,2.926,3.013,0.758,4.163,1.641C321.774,316.598,322.638,316.576,323.5,316.577z
		 M316.272,281.094c0.702,0.039,1.734,0.48,2.045-0.3c1.162-2.937-0.882-5.567-0.963-8.415c-0.047-1.688-1.401-1.09-2.218-1.123
		c-4.484-0.178-8.692-1.743-13.041-2.589c-2.239-0.435-2.969,0.159-3.149,2.575c-0.647,8.687-0.744,8.678,7.73,9.243
		c0.615,0.041,1.229,0.082,1.845,0.123c0-0.006,0.001-0.013,0.001-0.021C311.105,280.761,313.688,280.949,316.272,281.094z
		 M209.938,267.664c0.862,1.563,1.933,2.938,3.248,4.094c1.183,1.043,2.606,2.931,3.911,2.264c1.542-0.787,2.011-3.05,2.105-5
		c0.121-2.545-0.912-4.692-2.438-6.563c-3.509-4.299-7.952-6.77-14.149-7.292C205.8,259.422,207.718,263.632,209.938,267.664z
		 M361.395,267.703c-0.733-1.707-1.563-2.658-3.532-1.158c-1.231,0.939-2.865,1.588-4.395,1.806
		c-2.93,0.417-3.309,1.959-2.457,4.415c0.846,2.441,2.442,4.713,1.61,7.551c-0.072,0.245,0.152,0.709,0.38,0.891
		c1.052,0.84,6.889-1.178,7.283-2.52c0.67-2.279,1.286-4.576,1.636-5.836C362.086,270.361,361.948,268.99,361.395,267.703z
		 M342.284,302.393c-0.547,0.094-0.829,0.441-0.897,1.003c-0.548,4.513-3.929,7.802-5.095,12.33c1.93,0.56,3.843,0.022,5.666-0.271
		c1.992-0.32,4.308-0.277,3.635-3.951c-0.368-2.014,1.799-3.98,3.081-5.828c0.915-1.32,1.732-2.711,3.126-4.91
		C348.038,301.407,345.162,301.897,342.284,302.393z M360.975,304.488c0.718-1.557,1.88-3.027,0.944-5.527
		c-5.118,3.783-7.286,9.189-9.688,15.02c4.195-0.446,7.907-0.885,11.914-2.656C359.016,309.488,358.862,309.08,360.975,304.488z
		 M368.548,260.713c-1.914,4.49-1.893,7.656,0.187,17.814C374.028,275.484,373.862,268.511,368.548,260.713z M373.365,296.58
		c-2.193,3.674-6.226,6.291-5.595,11.517C369.263,304.031,372.916,301.174,373.365,296.58z"/>
	<path fill-rule="evenodd" clip-rule="evenodd" fill="#111111" d="M349.247,250.83c-1.787-1.123-3.487-2.396-5.283-3.505
		c-1.487-0.918-2.844-1.373-3.61,1.047c-0.776,2.442-2.359,3.007-3.976,0.797c-1.681-2.298-2.981-1.238-4.466,0.1
		c-3.717,3.35-7.288,6.903-11.231,9.951c-5.545,4.287-9.891,2.828-12.301-3.859c-0.334-0.928-1.666-2.127,0.097-3.247
		c1.421-0.902,2.395-0.241,3.271,0.672c2.743,2.858,5.532,2.064,8.362,0.208c2.749-1.801,4.97-4.165,6.944-6.805
		c3.145-4.201,2.952-5.924-1.16-9.332c-0.575-0.478-1.129-1.047-1.791-1.338c-5.98-2.614-7.25-7.198-6.27-13.473
		c0.981-6.283,0.569-6.333-4.951-9.067c-0.881-0.436-1.729-0.988-2.48-1.625c-1.141-0.965-1.619-2.32-1.113-3.744
		c0.478-1.345,1.917-1.162,2.915-1.103c1.58,0.092,3.22,0.403,4.674,1.015c1.371,0.578,2.131,0.297,3.242-0.632
		c10.724-8.961,22.989-10.582,36.042-7.477c4.112,0.979,7.256,3.611,9.069,7.754c0.833,1.901,0.968,2.942-1.426,3.426
		c-2.913,0.591-5.786,1.327-8.773,1.524c-8.152,0.538-16.381-0.206-24.464,1.41c-6.363,1.273-6.409,1.363-6.748,7.956
		c-0.104,2.004-1.038,4.083,1.053,5.955c10.002,8.961,19.199,18.926,31.996,25.749C353.339,253.423,351.284,252.11,349.247,250.83z
		 M356.823,205.394c-4.96-0.469-8.739-2.674-13.771-0.2C347.921,205.529,351.721,207.399,356.823,205.394z"/>
	<path fill-rule="evenodd" clip-rule="evenodd" fill="#111111" d="M221.299,201.948c-1.072-2.087,0.814-4.048,1.972-5.733
		c3.412-4.966,8.148-8.065,13.857-9.612c12.836-3.477,25.271-1.96,37.397,3.124c5.838,2.448,10.828,6.041,14.373,11.492
		c1.194,1.834,2.14,3.797,1.23,6.044c-1.795,4.437-6.26,5.559-9.753,7.77c-1.979,1.253-3.481-1.245-5.122-2.128
		c-13.5-7.272-27.377-12.373-43.017-8.449c-1.545,0.388-3.195,0.333-4.732,0.478C225.032,204.644,222.433,204.152,221.299,201.948z
		 M259.911,198.871c0.769,2.15,4.471,1.275,6.737,2.362c2.923,1.402,5.386,3.522,8.202,5.041c2.229,1.2,5.31,3.021,7.022,0.622
		c1.669-2.337-0.765-4.891-2.575-6.799c-2.634-2.776-6.143-4.108-9.496-5.638c-2.559-1.166-5.227-2.077-8.075-3.192
		C261.729,194.161,259.178,196.815,259.911,198.871z M234.712,197.965c1.3-0.099,2.266-0.644,2.262-1.941
		c-0.007-1.574-1.45-1.071-2.274-1.066c-2.642,0.013-5.099,0.52-6.229,3.8C230.877,198.441,232.788,198.112,234.712,197.965z"/>
	<path fill-rule="evenodd" clip-rule="evenodd" fill="#111111" d="M172.274,243.341c1.769-3.114,0.791-6.168-0.162-9.11
		c-1.262-3.901-2.17-7.77-1.096-11.88c2.83-10.835,15.479-17.472,25.802-13.483c0.767,0.298,1.375,1.015,2.06,1.534
		c12.901,9.809,27.273,12.544,42.786,8.677c4.87-1.214,8.617-4.376,9.837-9.822c0.432-1.923,0.3-2.92-2.078-2.126
		c-1.918,0.639-3.749,1.427-5.289,2.681c-10.225,8.323-20.59,7.187-30.912,0.496c-5.781-3.749-11.516-7.297-18.627-7.752
		c-11.044-0.704-20.347,2.573-26.659,12.301C162.007,223.993,163.942,236.008,172.274,243.341z"/>
	<path fill-rule="evenodd" clip-rule="evenodd" fill="#111111" d="M366.739,171.473c-1.802-3.578-4.53-4.999-7.687-5.643
		c-3.29-0.671-6.686-0.9-9.982-0.332c-15.724,2.711-31.113,0.451-46.357-3.162c-12.592-2.985-25.212-5.297-38.202-4.361
		c-16.386,1.183-31.554,5.946-44.657,16.52c-0.946,0.765-2.1,1.362-2.617,2.732c1.32,0.997,2.045-0.34,2.792-0.846
		c24.482-16.607,50.765-21.236,78.926-12.361c13.856,4.367,28.045,4.343,42.284,4.101c5.317-0.089,10.634-0.436,15.944-0.783
		c2.229-0.146,4.121,0.333,5.773,1.91C363.896,170.142,364.843,171.121,366.739,171.473z"/>
	<path fill-rule="evenodd" clip-rule="evenodd" fill="#111111" d="M393.038,231.866c-0.727-4.633-3.257-7.605-7.617-8.732
		c-9.084-2.349-17.395,0.265-25.164,4.888c-2.258,1.342-3.811,1.891-5.597-0.256c-0.158-0.188-0.373-0.333-0.573-0.478
		c-1.826-1.326-3.72-2.958-5.943-0.993c-1.253,1.111,0.313,5.603,2.418,6.893c4.78,2.933,10.215,2.596,15.495,2.913
		c1.38,0.083,1.284-1.294,1.576-2.195c1.28-3.933,4.024-5.45,7.957-5.396c4.411,0.062,8.488,1.561,12.664,2.658
		C389.778,231.568,391.254,232.314,393.038,231.866z"/>
	<path fill-rule="evenodd" clip-rule="evenodd" fill="#111111" d="M198.146,300.131c33.506,24.282,71.02,38.244,111.169,45.414
		c0.125-0.38,0.251-0.761,0.376-1.142c-2.156-0.4-4.319-0.768-6.467-1.211c-2.302-0.475-4.595-0.99-6.882-1.539
		c-14.785-3.549-29.194-8.147-43.258-14.146c-14.205-6.056-27.69-13.338-40.809-21.451
		C207.88,303.34,203.389,300.798,198.146,300.131z"/>
	<path fill-rule="evenodd" clip-rule="evenodd" fill="#111111" d="M210.116,172.361c5.933-3.292,11.419-6.058,16.637-9.279
		c21.42-13.229,44.064-15.396,67.942-8.925c12.335,3.343,24.927,5.42,37.803,4.962c0.055-0.989-0.466-1.264-1.298-1.277
		c-14.976-0.256-29.375-4.312-43.934-7.133c-23.251-4.506-44.745-0.47-64.745,12.41c-3.976,2.559-7.917,5.173-11.862,7.782
		C210.511,171.001,210.497,171.313,210.116,172.361z"/>
	<path fill-rule="evenodd" clip-rule="evenodd" fill="#111111" d="M266.562,239.656c-0.185,1.834-0.009,4.331,0.769,6.765
		c0.638,1.994,1.736,3.631,3.621,4.569c1.688,0.84,3.646,0.784,4.842-0.475c1.261-1.332,0.352-3.072-0.663-4.44
		c-0.371-0.5-0.729-1.028-1.179-1.447c-1.926-1.793-2.791-3.944-1.61-6.437c0.981-2.074,3.107-1.544,4.867-1.688
		c2.089-0.172,4.192-0.193,6.275-0.425c2.314-0.258,2.498-1.572,1.389-3.376c-0.929-1.511-2.429-2.307-4-2.447
		c-4.097-0.364-8.063,0.14-11.735,2.394C266.646,234.177,266.812,236.586,266.562,239.656z"/>
	<path fill-rule="evenodd" clip-rule="evenodd" fill="#111111" d="M215.793,302.488c20.498,10.893,38.558,24.379,60.242,30.403
		c6.379,1.771,12.871,3.002,19.57,2.254c-6.96-1.068-13.822-2.487-20.563-4.533c-13.021-3.956-24.571-11.007-36.264-17.769
		c-5.898-3.412-11.688-7.057-18.056-9.537C219.54,302.846,218.396,301.996,215.793,302.488z"/>
	<path fill-rule="evenodd" clip-rule="evenodd" fill="#111111" d="M279.468,244.473c-0.152,3.958,0.264,4.238,3.969,3.352
		c1.938-0.463,3.917-0.346,5.902-0.005c2.438,0.419,4.903,0.735,7.369,0.88c1.271,0.074,3.129,0.561,3.625-1.034
		c0.54-1.734-0.765-3.135-2.209-3.989c-5.488-3.242-11.36-2.875-17.306-1.741C279.169,242.25,279.599,243.549,279.468,244.473z"/>
	<path fill-rule="evenodd" clip-rule="evenodd" fill="#111111" d="M377.397,340.118c-5.047,2.192-9.882,4.632-15.213,5.773
		c-13.315,2.851-26.636,1.611-39.964,0.33c-2.322-0.224-4.657-0.318-7.004-0.106c15.786,2.038,31.532,5.013,47.543,2.153
		C368.514,347.241,373.493,344.672,377.397,340.118z"/>
	<path fill-rule="evenodd" clip-rule="evenodd" fill="#111111" d="M368.052,189.137c-1.901-6.715-3.052-8.122-10.93-11.146
		c-10.701-4.107-21.772-4.113-32.914-2.246c-1.093,0.183-2.873,0.485-2.512,2.136c0.424,1.942,2.007,0.763,3.048,0.5
		c9.643-2.439,19.26-3.153,28.848,0.151c5.146,1.773,9.723,4.349,12.57,9.362c0.297,0.524,0.763,0.962,1.208,1.375
		C367.474,189.365,367.82,189.19,368.052,189.137z"/>
	<path fill-rule="evenodd" clip-rule="evenodd" fill="#111111" d="M226.031,179.949c12.332-10.278,27.061-11.599,42.043-11.677
		c5.309-0.028,10.618,0.647,15.935,0.708c-13.723-3.164-27.477-3.372-41.149,0.333c-6.604,1.79-12.995,4.243-17.497,10.013
		C225.585,179.533,225.808,179.741,226.031,179.949z"/>
	<path fill-rule="evenodd" clip-rule="evenodd" fill="#111111" d="M366.617,326.385c-5.353,5.709-11.296,8.322-17.861,9.927
		c-6.543,1.597-13.206,1.373-20.389,2.032c8.917,2.102,22.79,1.162,29.355-1.806C362.293,334.474,364.741,331.854,366.617,326.385z"
		/>
	<path fill-rule="evenodd" clip-rule="evenodd" fill="#111111" d="M164.669,246.417c-9.512-9.701-7.33-21.785-6.569-33.661
		c-1.534,2.475-1.769,5.296-1.852,8.067c-0.205,6.765,0.407,13.486,1.499,20.152C158.187,243.661,161.388,246.092,164.669,246.417z"
		/>
	<path fill-rule="evenodd" clip-rule="evenodd" fill="#111111" d="M290.557,327.545c13.259,0.376,26.364,3.381,39.751,1.567
		c-13.181-0.879-26.36-1.758-39.54-2.637C290.697,326.833,290.627,327.188,290.557,327.545z"/>
	<path fill-rule="evenodd" clip-rule="evenodd" fill="#111111" d="M263.872,229.898c1.384,3.419-0.3,4.588-3.346,5.003
		c-4.374,0.598-8.575-0.859-12.878-0.865c-1.771-0.002-3.961-0.729-5.321,2.179c5.268-1.463,10.076-0.391,14.919,0.164
		c2.068,0.237,4.183,0.333,6.194-0.563c1.697-0.756,2.324-2.207,2.424-3.929C265.934,230.663,265.66,229.568,263.872,229.898z"/>
	<path fill-rule="evenodd" clip-rule="evenodd" fill="#111111" d="M190.817,197.756c-11.126-2.995-23.46-1.173-27.109,5.274
		C171.912,196.241,181.473,197.67,190.817,197.756z"/>
	<path fill-rule="evenodd" clip-rule="evenodd" fill="#111111" d="M399.21,238.459c1.025-4.629,0.215-9.023,0.288-13.406
		c0.024-1.406-0.879-2.03-1.79-2.637c-2.526-1.68-4.912-3.68-8.254-4.249c0.564,2.264,2.274,2.94,3.733,3.693
		c4.065,2.101,6.042,5.08,5.092,9.949C397.873,233.895,397.194,236.276,399.21,238.459z"/>
	<path fill-rule="evenodd" clip-rule="evenodd" fill="#111111" d="M286.573,186.67c2.551-7.567-0.714-15.349-6.738-15.048
		C285.036,175.594,287.308,180.473,286.573,186.67z"/>
	<path fill-rule="evenodd" clip-rule="evenodd" fill="#111111" d="M214.645,200.093c-1.592-1.065-3.763,0.263-4.904-1.965
		c2.818-0.277,5.612-0.247,8.594-2.458c-4.873-0.308-8.76,1.604-12.931,1.092C207.209,201.07,209.886,202.049,214.645,200.093z"/>
	<path fill-rule="evenodd" clip-rule="evenodd" fill="#111111" d="M322.428,198.756c1.245-1.18,1.881-2.428,1.701-4.075
		c-0.426-3.913,0.193-7.509,3.721-9.979c0.521-0.364,1.729-1.026,0.415-1.94c-0.822-0.573-1.447-0.418-2.189,0.445
		c-2.305,2.682-3.454,5.661-3.272,9.274C322.907,194.56,322.566,196.663,322.428,198.756z"/>
	<path fill-rule="evenodd" clip-rule="evenodd" fill="#111111" d="M398.643,240.758c-2.47,2.633-5.754,4.155-8.372,6.843
		C395.225,247.79,397.095,246.299,398.643,240.758z"/>
	<path fill-rule="evenodd" clip-rule="evenodd" fill="#111111" d="M379.795,329.516c-0.184,2.771-0.369,5.543-0.555,8.316
		C380.304,335.129,381.862,332.487,379.795,329.516z"/>
	<path fill-rule="evenodd" clip-rule="evenodd" fill="#111111" d="M225.362,179.325c-0.331,0.495-0.661,0.991-0.991,1.485
		c0.92,0.457,1.309-0.166,1.66-0.862C225.808,179.741,225.585,179.533,225.362,179.325z"/>
	<path fill-rule="evenodd" clip-rule="evenodd" fill="#111111" d="M312.328,346.164c-0.021-0.077-0.04-0.151-0.06-0.229
		c0.09-0.02,0.181-0.062,0.268-0.05c0.029,0.004,0.041,0.139,0.061,0.214C312.508,346.12,312.418,346.143,312.328,346.164z"/>
	<path fill-rule="evenodd" clip-rule="evenodd" fill="#F7F7F7" d="M258.371,282.13c0.983,6.522-2.65,10.931-5.256,15.776
		c-2.586,4.813-2.466,4.869,2.415,6.688c6.595,2.456,13.044,5.368,20.025,6.609c0.606,0.107,1.222,0.184,1.837,0.25
		c6.543,0.71,6.526,0.709,7.335-5.781c0.452-3.633,1.003-7.25,1.432-10.887c0.144-1.231,0.272-2.428-1.555-2.809
		c-8.524-1.775-16.409-5.35-24.185-9.201C259.992,282.563,259.504,282.48,258.371,282.13z"/>
	<path fill-rule="evenodd" clip-rule="evenodd" fill="#F7F7F7" d="M225.286,266.591c0.083,5.218-0.944,9.463-4.115,12.86
		c-1.104,1.181-0.453,1.647,0.373,2.253c7.218,5.294,13.709,11.566,21.203,16.494c1.729,1.136,2.957,1.688,3.484-1.161
		c0.396-2.14,1.892-3.809,2.983-5.643c1.027-1.719,2.164-3.428,2.837-5.299c1.628-4.523,0.927-5.692-3.38-7.41
		C240.631,275.478,232.968,271.469,225.286,266.591z"/>
	<path fill-rule="evenodd" clip-rule="evenodd" fill="#F7F7F7" d="M256.282,269.373c0.979-3.352,1.915-6.754,2.979-10.117
		c0.511-1.619,0.272-2.438-1.483-3.004c-10.837-3.497-21.173-8.459-32.168-11.523c-1.125,5.215,1.592,11.21,6.656,14.395
		c4.226,2.656,8.815,4.502,13.516,6.117C249.283,266.445,252.688,267.947,256.282,269.373z"/>
	<path fill-rule="evenodd" clip-rule="evenodd" fill="#F7F7F7" d="M285.89,279.229c6.911,0.503,6.629,0.466,7.421-5.448
		c0.566-4.227-0.365-6.218-4.705-7.306c-6.922-1.736-13.759-3.856-20.694-5.604c-1.959-0.494-2.606-0.043-3.054,1.843
		c-0.755,3.181-3.007,6.641-2.313,9.356c0.801,3.125,5.387,2.232,8.224,3.371c3.535,1.416,7.296,2.273,10.998,3.219
		C283.429,279.084,285.183,279.138,285.89,279.229z"/>
	<path fill-rule="evenodd" clip-rule="evenodd" fill="#F7F7F7" d="M301.749,315.342c2.592-0.213,6.229,1.594,8.211-0.244
		c1.746-1.617,1.646-5.34,2.319-8.141c0.617-2.561,2.278-5.627,1.453-7.563c-0.785-1.841-4.432-0.657-6.802-1.05
		c-4.277-0.71-8.503-1.59-12.563-3.079c-2.165-0.794-2.788-0.404-2.836,1.954c-0.1,4.903,0.266,9.898-1.58,14.591
		c-0.609,1.552,0.278,1.663,1.244,2.005C294.512,314.985,297.976,315.055,301.749,315.342z"/>
	<path fill-rule="evenodd" clip-rule="evenodd" fill="#F7F7F7" d="M218.906,252.567c-0.081-1.208-0.416-2.167-0.153-2.905
		c2.537-7.1-1.479-10.108-6.922-12.99c-4.662-2.469-8.658-6.212-13.773-7.953c-4.72-1.607-5.454-0.993-4.44,4.068
		c1.519,7.584,6.65,12.186,12.9,15.627C210.198,250.443,214.223,251.729,218.906,252.567z"/>
	<path fill-rule="evenodd" clip-rule="evenodd" fill="#F7F7F7" d="M330.816,281.886c4.445,0.45,8.869,0.216,13.254-0.69
		c1.476-0.305,2.455-0.604,1.529-2.676c-1.111-2.488,0.382-6.426-1.81-7.761c-1.676-1.019-4.837,0.685-7.358,0.882
		c-3.07,0.238-6.165,0.173-9.249,0.23c-1.938,0.035-3.471,0.395-2.463,2.978c0.084,0.22-0.001,0.503,0.021,0.753
		c0.172,1.963-1.593,4.547-0.021,5.676C326.171,282.321,328.739,281.747,330.816,281.886z"/>
	<path fill-rule="evenodd" clip-rule="evenodd" fill="#F7F7F7" d="M320.684,316.613c1.091-0.016,1.954-0.037,2.816-0.036
		c3.277,0.005,5.809-0.666,6.938-4.593c0.849-2.947,2.747-5.605,4.317-8.307c1.003-1.729,0.437-2.303-1.242-2.816
		c-9.03-2.773-17.635,4.217-16.993,14.111C316.711,317.898,319.533,315.73,320.684,316.613z"/>
	<path fill-rule="evenodd" clip-rule="evenodd" fill="#F7F7F7" d="M308.522,280.588c2.583,0.173,5.166,0.361,7.75,0.506
		c0.702,0.039,1.734,0.48,2.045-0.3c1.162-2.937-0.882-5.567-0.963-8.415c-0.047-1.688-1.401-1.09-2.218-1.123
		c-4.484-0.178-8.692-1.743-13.041-2.589c-2.239-0.435-2.969,0.159-3.149,2.575c-0.647,8.687-0.744,8.678,7.73,9.243
		c0.615,0.041,1.229,0.082,1.845,0.123C308.521,280.603,308.522,280.596,308.522,280.588z"/>
	<path fill-rule="evenodd" clip-rule="evenodd" fill="#F7F7F7" d="M202.614,255.167c3.186,4.255,5.104,8.465,7.324,12.497
		c0.862,1.563,1.933,2.938,3.248,4.094c1.183,1.043,2.606,2.931,3.911,2.264c1.542-0.787,2.011-3.05,2.105-5
		c0.121-2.545-0.912-4.692-2.438-6.563C213.255,258.16,208.812,255.689,202.614,255.167z"/>
	<path fill-rule="evenodd" clip-rule="evenodd" fill="#F7F7F7" d="M361.92,272.852c0.166-2.49,0.028-3.861-0.525-5.148
		c-0.733-1.707-1.563-2.658-3.532-1.158c-1.231,0.939-2.865,1.588-4.395,1.806c-2.93,0.417-3.309,1.959-2.457,4.415
		c0.846,2.441,2.442,4.713,1.61,7.551c-0.072,0.245,0.152,0.709,0.38,0.891c1.052,0.84,6.889-1.178,7.283-2.52
		C360.954,276.408,361.57,274.111,361.92,272.852z"/>
	<path fill-rule="evenodd" clip-rule="evenodd" fill="#F7F7F7" d="M351.8,300.766c-3.762,0.642-6.638,1.132-9.516,1.627
		c-0.547,0.094-0.829,0.441-0.897,1.003c-0.548,4.513-3.929,7.802-5.095,12.33c1.93,0.56,3.843,0.022,5.666-0.271
		c1.992-0.32,4.308-0.277,3.635-3.951c-0.368-2.014,1.799-3.98,3.081-5.828C349.589,304.355,350.406,302.965,351.8,300.766z"/>
	<path fill-rule="evenodd" clip-rule="evenodd" fill="#F7F7F7" d="M364.145,311.324c-5.129-1.836-5.282-2.244-3.17-6.836
		c0.718-1.557,1.88-3.027,0.944-5.527c-5.118,3.783-7.286,9.189-9.688,15.02C356.426,313.534,360.138,313.096,364.145,311.324z"/>
	<path fill-rule="evenodd" clip-rule="evenodd" fill="#F7F7F7" d="M368.734,278.527c5.294-3.043,5.128-10.017-0.187-17.814
		C366.634,265.203,366.655,268.369,368.734,278.527z"/>
	<path fill-rule="evenodd" clip-rule="evenodd" fill="#F7F7F7" d="M367.771,308.097c1.492-4.065,5.146-6.923,5.595-11.517
		C371.172,300.254,367.14,302.871,367.771,308.097z"/>
	<path fill-rule="evenodd" clip-rule="evenodd" fill="#F7F7F7" d="M343.052,205.194c4.869,0.335,8.669,2.206,13.771,0.2
		C351.863,204.925,348.084,202.72,343.052,205.194z"/>
	<path fill-rule="evenodd" clip-rule="evenodd" fill="#F7F7F7" d="M261.727,191.267c0.002,2.895-2.549,5.548-1.815,7.604
		c0.769,2.15,4.471,1.275,6.737,2.362c2.923,1.402,5.386,3.522,8.202,5.041c2.229,1.2,5.31,3.021,7.022,0.622
		c1.669-2.337-0.765-4.891-2.575-6.799c-2.634-2.776-6.143-4.108-9.496-5.638C267.243,193.293,264.575,192.382,261.727,191.267z"/>
	<path fill-rule="evenodd" clip-rule="evenodd" fill="#F7F7F7" d="M228.47,198.758c2.407-0.316,4.318-0.646,6.242-0.793
		c1.3-0.099,2.266-0.644,2.262-1.941c-0.007-1.574-1.45-1.071-2.274-1.066C232.058,194.971,229.601,195.478,228.47,198.758z"/>
</g>
</svg>
