<?xml version="1.0" encoding="utf-8"?>
<!-- Generator: Adobe Illustrator 16.0.0, SVG Export Plug-In . SVG Version: 6.00 Build 0)  -->
<!DOCTYPE svg PUBLIC "-//W3C//DTD SVG 1.1//EN" "http://www.w3.org/Graphics/SVG/1.1/DTD/svg11.dtd">
<svg version="1.1" id="Layer_1" xmlns="http://www.w3.org/2000/svg" xmlns:xlink="http://www.w3.org/1999/xlink" x="0px" y="0px"
	 width="512px" height="512px" viewBox="0 0 512 512" enable-background="new 0 0 512 512" xml:space="preserve">
<path fill="#FFFFFF" stroke="#212222" stroke-width="14" stroke-miterlimit="10" d="M227.903,180.951
	c0,0,51.739,40.126,43.919,56.503c-7.821,16.376,52.786,0.484,47.875-15.57C314.785,205.83,227.903,180.951,227.903,180.951z"/>
<path fill="#630A8C" stroke="#212222" stroke-width="14" stroke-miterlimit="10" d="M217.926,215.292
	c0,0,83.016-28.849,142.48,13.456c0,0-98.83,40.302-119.93,107.994C240.476,336.742,195.982,289.531,217.926,215.292z"/>
<path fill="#FFFFFF" stroke="#212222" stroke-width="14" stroke-miterlimit="10" d="M165.15,236.937
	c0,0,32.177,67.918,71.649,40.408c39.472-27.511-22.111-33.243-22.111-33.243l-61.036-31.453L165.15,236.937z"/>
<path fill="#8812C6" d="M221.149,233.833l1.965-13.667c0,0,76.775-21.623,121.247,8.022
	C344.361,228.189,297.798,209.167,221.149,233.833z"/>
</svg>
