<?xml version="1.0" encoding="utf-8"?>
<!-- Generator: Adobe Illustrator 16.0.0, SVG Export Plug-In . SVG Version: 6.00 Build 0)  -->
<!DOCTYPE svg PUBLIC "-//W3C//DTD SVG 1.1//EN" "http://www.w3.org/Graphics/SVG/1.1/DTD/svg11.dtd">
<svg version="1.1" id="Layer_1" xmlns="http://www.w3.org/2000/svg" xmlns:xlink="http://www.w3.org/1999/xlink" x="0px" y="0px"
	 width="512px" height="512px" viewBox="0 0 512 512" enable-background="new 0 0 512 512" xml:space="preserve">
<path fill="#FFFFFF" stroke="#000000" stroke-width="14" stroke-miterlimit="10" d="M151.804,148.746"/>
<path fill="#FFFFFF" stroke="#212222" stroke-width="14" stroke-miterlimit="10" d="M116.903,20.951
	c0,0,51.739,40.126,43.918,56.503c-7.821,16.376,52.787,0.484,47.875-15.57C203.785,45.83,116.903,20.951,116.903,20.951z"/>
<path fill="#630A8C" stroke="#212222" stroke-width="14" stroke-miterlimit="10" d="M106.926,55.292
	c0,0,83.016-28.849,142.48,13.456c0,0-98.83,40.302-119.93,107.994C129.476,176.742,84.982,129.531,106.926,55.292z"/>
<path fill="#FFFFFF" stroke="#212222" stroke-width="14" stroke-miterlimit="10" d="M54.15,76.937c0,0,32.177,67.919,71.649,40.408
	c39.472-27.511-22.111-33.243-22.111-33.243L42.652,52.649L54.15,76.937z"/>
<path fill="#8812C6" d="M110.149,73.833l1.965-13.667c0,0,76.775-21.623,121.247,8.022
	C233.361,68.189,186.798,49.167,110.149,73.833z"/>
</svg>
