<?xml version="1.0" encoding="utf-8"?>
<!-- Generator: Adobe Illustrator 16.0.0, SVG Export Plug-In . SVG Version: 6.00 Build 0)  -->
<!DOCTYPE svg PUBLIC "-//W3C//DTD SVG 1.1//EN" "http://www.w3.org/Graphics/SVG/1.1/DTD/svg11.dtd">
<svg version="1.1" id="Layer_1" xmlns="http://www.w3.org/2000/svg" xmlns:xlink="http://www.w3.org/1999/xlink" x="0px" y="0px"
	 width="512px" height="512px" viewBox="0 0 512 512" enable-background="new 0 0 512 512" xml:space="preserve">
<path fill="#FFFFFF" stroke="#000000" stroke-width="14" stroke-miterlimit="10" d="M152.12,149.991"/>
<path fill="#6B6B6B" stroke="#212222" stroke-width="14" stroke-miterlimit="10" d="M240.5,48.5c0,0,124.083-14.576-11.458,48.212
	c0,0-103.542,150.191-124.542,118.99C104.5,215.702,137.5,88.5,240.5,48.5z"/>
<path fill="#6B6B6B" stroke="#212222" stroke-width="14" stroke-miterlimit="10" d="M221.372,57.308
	c0,0-53.872-58.808-155.872-35.808c0,0-44,48-37,75c0,0,52-2,87-23c0,0,34,47,23,84"/>
<path fill="#545454" d="M34.5,90.5c0,0,77.667-9.549,83-27.785C117.5,62.715,38,72,34.5,90.5z"/>
<path fill="#545454" d="M208,73c0,0-27.5-34.5-45.5-41.5c0,0,39,7.822,57,28.911C219.5,60.411,219,61,208,73z"/>
<path fill="#545454" d="M152.12,146.314c0,0-13.513,36.483,3.416,15.696c0,0,39.108-76.292,50.284-81.225
	C205.82,80.786,208.577,60.312,152.12,146.314z"/>
<path fill="#545454" d="M143,157.5c0,0-15,22.5-30,56c0,0,7.5-37,22.5-56C135.5,157.5,138.501,153.144,143,157.5z"/>
<path fill="#6B6B6B" stroke="#212222" stroke-width="14" stroke-miterlimit="10" d="M159.269,362.199"/>
<path fill="#6B6B6B" stroke="#212222" stroke-width="14" stroke-miterlimit="10" d="M205.842,258.906"/>
</svg>
